<svg class="main-svg" xmlns="http://www.w3.org/2000/svg" xmlns:xlink="http://www.w3.org/1999/xlink" width="1000" height="500" style="" viewBox="0 0 1000 500"><rect x="0" y="0" width="1000" height="500" style="fill: rgb(255, 255, 255); fill-opacity: 1;"/><defs id="defs-f1680b"><g class="clips"><clipPath id="clipf1680bxyplot" class="plotclip"><rect width="840" height="320"/></clipPath><clipPath class="axesclip" id="clipf1680bx"><rect x="80" y="0" width="840" height="500"/></clipPath><clipPath class="axesclip" id="clipf1680by"><rect x="0" y="100" width="1000" height="320"/></clipPath><clipPath class="axesclip" id="clipf1680bxy"><rect x="80" y="100" width="840" height="320"/></clipPath></g><g class="gradients"/><g class="patterns"/></defs><g class="bglayer"><rect class="bg" x="80" y="100" width="840" height="320" style="fill: rgb(229, 236, 246); fill-opacity: 1; stroke-width: 0;"/></g><g class="layer-below"><g class="imagelayer"/><g class="shapelayer"/></g><g class="cartesianlayer"><g class="subplot xy"><g class="layer-subplot"><g class="shapelayer"/><g class="imagelayer"/></g><g class="minor-gridlayer"><g class="x"/><g class="y"/></g><g class="gridlayer"><g class="x"><path class="xgrid crisp" transform="translate(209.15,0)" d="M0,100v320" style="stroke: rgb(255, 255, 255); stroke-opacity: 1; stroke-width: 1px;"/><path class="xgrid crisp" transform="translate(338.48,0)" d="M0,100v320" style="stroke: rgb(255, 255, 255); stroke-opacity: 1; stroke-width: 1px;"/><path class="xgrid crisp" transform="translate(467.62,0)" d="M0,100v320" style="stroke: rgb(255, 255, 255); stroke-opacity: 1; stroke-width: 1px;"/><path class="xgrid crisp" transform="translate(596.95,0)" d="M0,100v320" style="stroke: rgb(255, 255, 255); stroke-opacity: 1; stroke-width: 1px;"/><path class="xgrid crisp" transform="translate(726.1,0)" d="M0,100v320" style="stroke: rgb(255, 255, 255); stroke-opacity: 1; stroke-width: 1px;"/><path class="xgrid crisp" transform="translate(855.43,0)" d="M0,100v320" style="stroke: rgb(255, 255, 255); stroke-opacity: 1; stroke-width: 1px;"/></g><g class="y"><path class="ygrid crisp" transform="translate(0,343.56)" d="M80,0h840" style="stroke: rgb(255, 255, 255); stroke-opacity: 1; stroke-width: 1px;"/><path class="ygrid crisp" transform="translate(0,283.13)" d="M80,0h840" style="stroke: rgb(255, 255, 255); stroke-opacity: 1; stroke-width: 1px;"/><path class="ygrid crisp" transform="translate(0,222.69)" d="M80,0h840" style="stroke: rgb(255, 255, 255); stroke-opacity: 1; stroke-width: 1px;"/><path class="ygrid crisp" transform="translate(0,162.26)" d="M80,0h840" style="stroke: rgb(255, 255, 255); stroke-opacity: 1; stroke-width: 1px;"/><path class="ygrid crisp" transform="translate(0,101.82)" d="M80,0h840" style="stroke: rgb(255, 255, 255); stroke-opacity: 1; stroke-width: 1px;"/></g></g><g class="zerolinelayer"><path class="yzl zl crisp" transform="translate(0,404)" d="M80,0h840" style="stroke: rgb(255, 255, 255); stroke-opacity: 1; stroke-width: 2px;"/></g><path class="xlines-below"/><path class="ylines-below"/><g class="overlines-below"/><g class="xaxislayer-below"/><g class="yaxislayer-below"/><g class="overaxes-below"/><g class="plot" transform="translate(80,100)" clip-path="url(#clipf1680bxyplot)"><g class="scatterlayer mlayer"><g class="trace scatter trace8a8e32" style="stroke-miterlimit: 2; opacity: 1;"><g class="fills"/><g class="errorbars"/><g class="lines"><path class="js-line" d="M0,289.92L0.18,290.04L0.35,288.9L0.71,287.86L1.24,288.25L1.42,288.81L2.48,292.25L2.65,289.78L3.01,288.39L3.54,288.56L3.72,288.42L6.19,288.5L6.37,289.67L6.55,290.11L6.72,289.1L6.9,288.5L10.79,287.53L10.97,287.76L12.03,287.16L12.21,287.02L14.51,286.9L14.68,285.42L14.86,285.42L15.04,284.51L15.75,286.9L15.92,286.32L16.1,286.32L16.28,285.87L16.45,283.08L16.98,285.42L17.16,283.08L17.34,284.51L17.51,285.42L17.69,282.01L18.58,283.44L18.75,282.37L19.46,283.08L19.64,282.37L20.7,282.37L20.88,275.7L21.05,275.7L21.23,268.4L21.41,266.61L21.58,268.13L21.76,271.63L23,259.84L23.18,259.92L24.41,263.86L24.59,263.06L25.3,254.69L25.48,247.7L26.01,241.28L26.18,242.93L26.36,244.59L26.54,236.41L27.07,243.35L27.25,243.6L27.6,247.97L28.13,246.36L28.31,244.56L28.48,244.69L28.66,240.38L29.37,245.57L29.55,242.3L30.43,227.37L30.61,228.66L30.78,229.61L31.14,232.35L31.67,231.38L31.84,231.02L32.02,231.63L32.38,231.44L32.55,228.8L32.91,230.13L33.08,231.37L33.44,232.79L33.61,234.91L33.79,239.2L34.14,230.86L34.32,230.86L35.56,239.98L35.74,239.98L35.91,234.77L36.44,237.37L36.62,237.37L37.51,230.86L37.68,243.89L37.86,243.89L38.04,242.58L38.21,242.58L38.39,243.89L38.74,243.89L38.92,245.19L39.1,245.19L39.28,243.89L39.45,244.54L39.98,243.89L40.16,242.58L41.04,246.49L41.22,246.49L41.58,246.49L41.75,249.09L42.28,250.57L42.46,259.43L42.64,259.43L42.81,260.33L42.99,255L43.52,256.48L43.7,262.12L43.88,262.12L44.05,260.33L44.23,260.33L44.41,262.12L44.58,263.16L44.76,262.77L44.94,254.63L46.18,277.01L46.35,272.92L46.53,265L46.71,265.26L46.88,277.21L47.24,273.79L47.41,267.95L47.59,266.85L47.77,269.87L47.94,274.98L49.01,280.94L49.18,281.66L50.07,274.39L50.24,277.01L50.42,275.7L50.6,281.66L51.31,281.66L51.48,283.8L51.66,282.37L52.19,283.8L52.37,283.8L52.72,283.8L52.9,280.94L53.61,283.8L53.78,271.4L54.67,286.32L54.84,286.32L55.02,286.32L55.2,284.51L55.73,283.8L55.91,279.63L56.08,279.63L56.26,271.4L56.97,283.8L57.14,274.39L57.5,274.39L57.67,283.8L60.33,283.8L60.51,282.37L61.21,282.37L61.39,283.8L62.27,281.66L62.45,281.66L68.64,281.66L68.82,283.08L69.53,282.37L69.71,281.66L69.88,281.66L70.06,284.96L70.41,284.96L70.59,280.94L70.77,280.94L70.94,283.08L71.12,283.08L71.3,280.94L71.65,280.94L71.83,279.63L72.01,279.63L72.18,281.66L72.36,281.66L72.54,278.32L73.24,278.32L73.42,277.01L73.6,277.01L73.77,275.7L74.13,275.7L74.3,264.81L74.48,264.81L74.66,253.52L74.84,253.52L75.01,263.02L75.37,263.02L75.54,255L76.07,255L76.25,239.98L77.31,239.98L77.49,238.68L78.2,238.68L78.37,237.37L79.08,237.37L79.26,243.89L79.79,243.89L79.97,241.28L80.67,241.28L80.85,239.98L81.56,239.98L81.74,230.86L81.91,230.86L82.09,228.26L82.27,228.26L82.44,226.95L82.8,226.95L82.97,225.65L84.04,225.65L84.21,224.35L84.39,224.35L84.57,223.05L84.74,223.05L84.92,236.07L85.27,236.07L85.45,234.77L85.98,234.77L86.16,232.16L86.87,232.16L87.04,229.56L87.75,229.56L87.93,230.86L88.1,230.86L88.28,229.56L88.46,229.56L88.64,228.26L89.34,228.26L89.52,226.95L90.23,226.95L90.4,224.35L90.94,224.35L91.11,223.05L91.47,223.05L91.64,219.14L92.7,219.14L92.88,215.24L93.06,215.24L93.24,219.14L93.94,219.14L94.12,216.54L94.65,216.54L94.83,217.84L95.89,217.84L96.07,208.72L96.42,208.72L96.6,216.54L96.77,216.54L96.95,213.93L97.66,213.93L97.83,211.33L98.01,211.33L98.19,206.12L98.37,206.12L98.54,211.33L98.9,211.33L99.07,213.93L99.25,213.93L99.43,212.63L99.6,212.63L99.78,213.93L100.49,213.93L100.67,212.63L101.37,212.63L101.55,213.93L101.73,213.93L101.9,216.54L102.08,216.54L102.26,220.44L102.61,220.44L102.79,217.84L102.97,217.84L103.14,220.44L103.32,217.84L103.85,220.44L104.03,224.35L104.2,224.35L104.38,217.84L104.56,217.84L104.73,219.14L105.09,219.14L105.27,220.44L105.44,220.44L105.62,226.95L105.8,226.95L105.97,236.07L106.33,236.07L106.5,242.58L106.68,242.58L106.86,239.98L107.57,239.98L107.74,237.37L107.92,237.37L108.1,246.49L109.51,246.49L109.69,253.52L110.04,253.52L110.22,256.48L110.75,256.48L110.93,259.43L111.28,259.43L111.46,256.48L111.63,256.48L111.81,259.43L111.99,259.43L112.17,255L112.52,255L112.7,260.33L113.23,260.33L113.4,261.22L113.76,261.22L113.93,262.12L114.11,262.12L114.29,263.92L114.47,263.92L114.64,274.39L115,274.39L115.17,280.94L115.35,280.94L115.53,283.08L116.59,283.08L116.76,283.8L118.71,284.51L118.89,286.78L120.66,287.51L120.83,287.64L124.02,287.76L124.2,266.61L124.9,266.61L125.08,267.51L125.26,267.51L125.43,262.12L125.61,262.12L125.79,275.7L126.5,275.7L126.67,277.01L126.85,277.01L127.03,275.7L127.38,275.7L127.56,268.4L128.09,268.4L128.26,285.87L130.21,286.32L130.39,286.78L133.57,287.14L133.75,288.01L135.16,287.76L135.34,292.49L137.29,292.25L137.46,288.5L137.99,287.88L138.17,287.14L144.72,287.51L144.89,286.78L145.07,286.78L145.25,282.37L145.43,282.37L145.6,285.87L145.96,285.87L146.13,266.61L147.19,266.61L147.37,267.51L147.55,267.51L147.73,265.71L147.9,265.71L148.08,266.61L148.43,266.61L148.61,265.71L148.79,265.71L148.96,219.14L149.14,219.14L149.32,280.94L150.03,281.66L150.2,279.63L150.91,279.63L151.09,281.66L151.62,281.66L151.79,252.05L152.15,252.05L152.33,256.48L152.5,256.48L152.68,255L152.86,255L153.03,281.66L154.09,281.66L154.27,279.63L154.63,279.63L154.8,277.01L154.98,277.01L155.16,281.66L157.1,280.94L157.28,287.39L161.52,286.9L161.7,286.32L162.06,286.32L162.23,287.27L163.29,286.9L163.47,284.96L164,285.42L164.18,283.8L166.12,283.08L166.3,282.37L166.48,282.37L166.66,280.94L168.25,281.66L168.42,282.37L168.6,282.37L168.78,286.9L168.96,286.9L169.13,281.66L170.19,282.37L170.37,283.8L171.08,283.08L171.26,281.66L172.32,280.94L172.49,278.32L172.67,278.32L172.85,279.63L173.2,279.63L173.38,284.96L173.56,284.96L173.73,285.87L174.79,285.42L174.97,288.13L175.15,288.13L175.32,281.66L175.68,281.66L175.86,284.96L178.51,285.42L178.69,283.08L178.86,283.08L179.04,284.96L181.87,284.96L182.05,283.8L185.05,283.8L185.23,281.66L185.59,281.66L185.76,283.8L186.29,283.8L186.47,282.37L188.06,282.37L188.24,266.61L188.42,266.61L188.59,263.92L188.77,263.92L188.95,266.61L189.65,266.61L189.83,283.8L190.01,283.8L190.19,234.77L190.54,234.77L190.72,280.94L191.78,281.66L191.95,282.37L193.02,282.37L193.19,283.8L195.85,283.08L196.02,282.37L197.09,283.08L197.26,281.66L197.44,281.66L197.62,283.08L197.97,283.08L198.15,234.77L198.32,234.77L198.5,283.8L198.68,283.8L198.85,282.37L199.21,282.37L199.39,283.8L199.56,283.8L199.74,285.42L200.45,285.87L200.62,284.96L202.39,285.42L202.57,285.87L204.16,285.87L204.34,286.32L205.4,286.32L205.58,285.42L205.75,285.42L205.93,284.51L206.64,284.51L206.82,283.08L208.23,282.37L208.41,268.4L209.12,268.4L209.29,282.37L209.82,282.37L210,279.63L211.06,279.63L211.24,275.7L211.59,275.7L211.77,277.01L211.95,277.01L212.12,275.7L212.3,275.7L212.48,271.4L212.83,271.4L213.01,268.4L213.18,268.4L213.36,271.4L213.54,271.4L213.72,267.51L214.07,267.51L214.25,266.61L214.42,266.61L214.6,265.71L214.78,265.71L214.95,264.81L215.31,264.81L215.48,263.02L215.66,263.02L215.84,265.71L216.02,265.71L216.19,262.12L216.55,262.12L216.72,260.33L217.25,260.33L217.43,256.48L217.78,256.48L217.96,252.05L218.14,252.05L218.32,257.95L218.49,257.95L218.67,253.52L219.02,253.52L219.2,246.49L219.38,246.49L219.55,243.89L219.73,243.89L219.91,242.58L220.26,242.58L220.44,237.37L221.5,232.16L221.68,238.68L222.03,238.68L222.21,237.37L222.74,237.37L222.91,234.77L223.09,234.77L223.27,236.07L223.45,236.07L223.62,241.28L223.98,241.28L224.15,236.07L225.21,236.07L225.39,241.28L225.57,241.28L225.75,250.57L225.92,250.57L226.1,241.28L226.45,241.28L226.63,242.58L227.16,242.58L227.34,245.19L227.69,245.19L227.87,243.89L228.05,243.89L228.22,245.19L228.4,245.19L228.58,246.49L228.93,246.49L229.11,255L229.28,255L229.46,257.95L229.64,257.95L229.81,263.92L230.17,263.92L230.35,267.51L230.52,267.51L230.7,268.4L230.88,268.4L231.05,285.87L231.41,285.87L231.58,284.96L231.76,284.96L231.94,287.02L233.35,287.39L233.53,288.37L233.88,288.37L234.06,292.79L234.24,292.79L234.41,294.91L234.59,294.91L234.77,293.7L235.12,293.7L235.3,294.91L235.48,294.91L235.65,296.12L236.36,296.12L236.54,292.79L236.71,292.79" style="vector-effect: non-scaling-stroke; fill: none; stroke: rgb(255, 0, 0); stroke-opacity: 1; stroke-width: 2px; opacity: 1;"/><path class="js-line" d="M387.45,300.43L389.92,300.68L390.1,300.08L392.58,300.31L392.75,299.84L393.46,298.74L393.64,299.7L394.35,300.25L394.52,300.19L394.7,300.12L395.76,299.85L395.94,299.87L397,299.9L397.18,300.03L399.65,300.01L399.83,299.98L401.25,300.23L401.42,300.43L402.66,300.23L402.84,300.58L403.72,300.37L403.9,302.67L404.79,302.73L404.96,301.53L406.38,301.2L406.55,298.09L407.44,301.4L407.62,301.46L407.79,301.56L407.97,300.66L408.85,298.93L409.03,298.98L409.74,299.52L409.92,299.02L410.09,300.42L410.45,302.13L410.98,301.88L411.15,301.88L411.51,302.19L411.68,301.04L412.04,298.18L412.22,293.76L412.92,301.19L413.1,300.78L413.28,285.33L414.34,299.01L414.52,296.5L414.69,296.61L415.58,304L415.75,304L417.17,304L417.35,299.14L417.88,293.45L418.05,267.37L418.76,269.7L418.94,283.46L419.65,285.44L419.82,290.25L421.59,292.96L421.77,287.6L421.95,276.96L422.3,285.06L422.48,293.58L424.6,282.13L424.78,283.72L424.95,286.99L425.66,289.8L425.84,285.35L426.72,278.2L426.9,278.03L427.25,277.29L427.43,278.23L427.61,278.71L428.32,276.21L428.49,277.18L428.67,278.35L428.85,279.74L429.02,277.37L429.2,273.67L429.91,277.67L430.08,280.18L430.26,285.59L430.44,279.09L430.97,284.48L431.15,281.45L431.5,280.22L431.68,282.24L431.85,281.99L432.03,279.26L432.21,282.69L432.56,278.54L432.74,276.65L433.09,276.34L433.27,280.09L433.45,282.71L433.8,279.57L433.98,278.77L434.15,279.11L434.33,278.55L434.51,280.84L435.21,271.92L435.39,272.3L435.57,274.93L435.92,272.3L436.1,273.11L436.28,275.77L437.51,262.38L437.69,263.25L439.11,273.21L439.28,277.83L439.46,278.24L439.64,276.6L439.99,275.42L440.17,277.24L440.35,280.41L440.52,281.99L440.7,294L441.05,295.46L441.23,301.38L441.76,274.95L442.29,280.77L442.47,278.48L443,276.63L443.35,276.73L443.53,276.68L444.24,277.67L444.41,287.98L445.48,299.61L445.65,299.51L446.01,299.76L446.18,297.25L449.9,297.16L450.08,295.55L450.96,293.96L451.14,293.96L451.67,293.89L451.84,296.1L452.73,299.72L452.91,299.68L456.09,299.53L456.27,293.34L457.15,283.29L457.68,283.54L457.86,283.38L458.21,281.94L458.57,282.57L458.74,282.95L459.45,283.5L459.63,288.34L460.51,291.19L460.69,292.58L461.58,293.96L461.75,293.96L462.81,295.65L462.99,295.62L465.47,295.68L465.64,290.32L466.53,286.15L466.71,286.15L467.06,297.11L467.59,296.78L467.77,296.72L468.65,291.39L468.83,291.4L469.18,291.4L469.36,286.96L470.07,237.1L470.24,253.12L470.42,282.6L470.78,278.7L470.95,267.54L471.13,245.97L471.48,277.64L471.66,277.37L472.54,278.67L472.72,256.19L473.25,278.31L473.78,278.16L473.96,278.22L475.2,278.06L475.37,278.11L477.5,278.32L477.67,286.62L478.03,291.55L478.56,291.48L478.74,291.46L479.8,291.48L479.97,291.52L481.21,291.51L481.39,291.48L481.74,288.99L481.92,287.9L482.81,286.95L482.98,287.71L483.34,290.74L483.87,290.7L484.04,289.61L484.4,287.33L484.75,288.28L484.93,288.75L485.46,290.69L485.64,282.82L486.52,276.58L486.7,276.51L487.58,279.71L487.76,278.01L488.64,279.79L488.82,279.8L489.88,291.4L490.06,291.39L491.12,292.71L491.3,292.54L491.47,295.39L491.65,297.61L492.01,294.85L492.18,294.88L492.36,294.47L493.24,292.71L493.42,292.73L497.49,292.65L497.67,293.81L498.02,298.23L498.37,297.3L498.55,295.69L500.14,296.24L500.32,296.72L501.2,296.65L501.38,295.78L502.44,293.48L502.62,293.57L503.15,293.35L503.33,292.44L504.57,299.25L504.74,299.22L504.92,299.32L506.34,299.69L506.51,299.47L507.4,299.7L507.57,299.51L508.99,300.1L509.17,300.31L509.87,299.48L510.05,298.55L510.58,296.56L510.94,297.27L511.11,297.26L512.35,297.81L512.53,298.15L512.7,298.86L513.06,297.81L513.24,297.84L513.94,297.86L514.12,298.67L514.65,300.12L515,300.06L515.18,299.97L515.89,299.96L516.07,300.05L519.25,300.01L519.43,299.81L520.49,300.17L520.67,300.2L522.61,300.29L522.79,300.25L525.27,300.05L525.44,300.32L525.8,299.74L526.15,299.92L526.33,300.66L526.5,301.18L526.86,300.04L527.03,300.11L528.27,299.74L528.45,299.48L528.63,298.74L528.8,300.28L529.16,299.26L529.33,299.69L530.22,299.38L530.4,280.54L530.75,277.25L530.93,273.51L531.1,273.49L531.28,264.68L531.63,248.39L531.99,261.28L532.17,269.27L533.05,274.78L533.23,274.82L534.29,291.01L534.47,291.01L535,290.99L535.17,288.01L535.88,286.69L536.06,288.26L536.94,289.44L537.12,289.42L537.3,287.96L537.65,289.28L537.83,281.48L538.53,271.67L538.71,239.64L538.89,210.33L539.24,265.54L539.42,278.29L539.95,278.38L540.13,258.58L540.3,250.64L540.48,265.65L540.66,278.36L542.43,278.44L542.6,291.6L543.49,287.83L543.66,292.03L544.37,294.21L544.55,290.46L544.9,280.58L545.08,271.67L545.26,271.67L545.43,272.88L545.61,272.88L545.79,271.67L546.14,167.11L546.5,230.57L546.67,239.64L546.85,239.64L547.03,253.54L547.91,272.88L548.09,271.67L548.97,278.33L549.33,278.07L549.5,277.85L550.21,289.13L550.39,289.12L550.56,289.14L550.74,289.13L550.92,292.46L551.8,294.51L551.98,294.5L553.04,290.92L553.22,289.01L553.93,289.12L554.1,290.88L555.87,297.65L556.05,297.61L556.23,295.34L556.76,294.29L557.11,294.37L557.29,294.39L561.18,294.25L561.36,296.55L561.53,297.62L561.71,295.36L561.89,294.17L562.77,293.49L562.95,293.32L563.13,293.76L563.3,293.23L563.48,292.02L564.72,297.28L564.89,297.31L565.96,297.43L566.13,296.25L566.49,295.73L566.66,292.24L566.84,278.79L567.37,288.4L567.55,288.76L568.96,294.22L569.14,294.23L574.98,293.53L575.16,294.53L576.04,295.53L576.22,295.44L577.1,295.75L577.28,295.73L577.99,295.74L578.16,296.7L578.69,296.73L578.87,296.03L579.76,295.66L579.93,295.36L580.64,295.4L580.82,296.88L581.7,297.85L581.88,297.85L583.82,297.83L584,295.48L584.89,294.16L585.06,294.18L585.77,294.22L585.95,295.47L586.83,293.91L587.01,295.58L587.19,296.57L587.72,296L587.89,296.01L588.25,296.01L588.42,296.89L589.13,297.78L589.31,297.09L591.43,297.37L591.61,297.35L592.67,297.38L592.85,296.58L593.2,295.26L593.56,296.31L593.73,296.32L594.09,295.11L594.26,296.32L594.44,280.28L594.62,268.47L594.97,273.54L595.15,284.36L595.86,296.16L596.03,287.38L597.98,287.54L598.16,277.12L598.33,272.67L598.69,272.71L598.86,278.54L599.92,283.18L600.1,284.17L600.28,284.14L600.45,285.21L601.52,294.34L601.69,294.35L604.52,294.38L604.7,293L605.05,266.92L605.23,196.87L606.12,273.13L606.29,273.47L606.47,273.32L606.65,275.25L606.82,284.56L607.53,284.52L607.71,284.49L608.59,284L608.77,282.41L608.95,282.17L609.12,279.85L610.01,240.61L610.36,247.15L610.54,248.77L610.72,243.87L611.07,244.94L611.25,254.53L612.13,273.59L612.31,273.74L613.19,273.3L613.37,278.53L614.79,288.78L614.96,288.8L617.09,288.76L617.26,289.77L618.5,293.37L618.68,287.51L619.56,296.43L619.74,295.05L619.92,293.22L620.27,293.31L620.45,292.08L621.33,291.52L621.51,291.56L623.98,287.31L624.16,287.31L625.05,287.31L625.22,287.24L627.35,287.11L627.52,287.01L627.7,287.07L627.88,288.12L628.05,290.6L628.76,290.44L628.94,290.41L629.29,292.45L629.47,293.18L631.59,292.69L631.77,291.77L631.95,290.37L632.3,292.75L632.48,292.7L633.72,292.97L633.89,293.42L635.13,296.05L635.31,296.02L635.66,296.46L635.84,298.93L636.02,297.74L636.37,299.82L636.55,299.89L636.9,299.96L637.08,299.14L637.96,297.1L638.14,297.52L638.32,297.99L641.32,298.28L641.5,298.3L642.56,298.39L642.74,297.89L643.62,297.52L643.8,297.51L646.28,298.06L646.45,298.41L647.87,298.46L648.05,299.24L648.93,299.76L649.11,299.79L650.7,299.95L650.88,297.47L651.76,297.45L651.94,296.61L652.11,292.92L652.65,293.73L652.82,293.85L654.41,294.14L654.59,295.64L658.84,295.15L659.01,294.07L660.25,294.15L660.43,296.05L661.31,297.68L661.49,297.3L662.2,295.43L662.38,296.02L663.26,299.51L663.44,299.52L666.27,300.46L666.44,300.13L667.15,300.01L667.33,298.8L667.51,299.01L667.68,283.42L668.04,273.11" style="vector-effect: non-scaling-stroke; fill: none; stroke: rgb(255, 0, 0); stroke-opacity: 1; stroke-width: 2px; opacity: 1;"/><path class="js-line" d="M717.22,299.9L719.17,299.82L719.34,299.83L721.11,299.87L721.29,299.9L722,299.69L722.17,299.02L723.41,299.88L723.59,299.93L725.53,299.53L725.71,299.38L726.07,297.78L726.42,298.74L726.6,298.89L727.83,298.98L728.01,298.95L731.2,299.24L731.37,297.95L731.73,294.81L731.9,283.3L732.08,275.12L732.61,278.22L732.79,278.7L733.14,259.52L733.67,263.13L733.85,270.56L734.38,271.36L734.56,270.89L734.73,230.69L734.91,225.56L735.09,189.12L735.27,162.75L735.44,210.9L735.62,221.82L737.03,275.99L737.21,276.15L737.39,276.24L737.57,280.39L738.1,283.8L738.27,283.79L738.45,277.12L738.8,255.05L739.16,266.84L739.33,276.5L740.22,276.66L740.4,280.39L740.93,289.62L741.46,289.58L741.63,289.55L741.99,292.11L742.17,294.15L744.11,294.77L744.29,295.82L745.17,295.51L745.35,293.55L746.59,258.02L746.76,213.95L746.94,172.93L747.3,246.65L747.47,259.04L749.42,291.36L749.6,291.35L749.77,291.36L751.36,291.32L751.54,291.97L751.9,292.64L752.07,291.88L752.25,289.77L752.43,287.35L752.78,289.13L752.96,290.92L755.61,290.55L755.79,292.4L756.85,295.51L757.03,295.51L757.38,295.33L757.56,294.09L758.09,293.82L758.26,292.25L760.03,292.12L760.21,288.56L760.56,287.35L761.1,287.65L761.27,287.65L761.8,287.65L761.98,289.22L762.86,290.86L763.04,290.86L764.28,291.31L764.46,292.28L764.99,294.12L765.34,293.15L765.52,293.18L765.87,293.7L766.05,294.06L766.76,293.51L766.93,293.39L767.29,294.15L767.64,293.88L767.82,297.74L768.88,295.99L769.06,295.99L772.95,295.24L773.13,293.85L774.01,295.84L774.19,295.78L774.36,295.81L776.66,296.08L776.84,297.32L777.9,297.29L778.08,295.9L778.79,297.2L778.96,297.14L779.14,297.17L781.26,297.11L781.44,297.14L781.62,297.2L781.79,298.59L783.03,298.29L783.21,299.2L784.09,300.13L784.27,300.19L786.39,300.22L786.57,300.16L788.87,299.98L789.05,298.41L791.52,297.93L791.7,297.5L794,298.56L794.18,298.59L794.89,298.5L795.06,297.96L795.24,296.45L795.59,298.23L795.77,298.41L797.72,298.65L797.89,298.62L798.78,295.3L798.96,295.72L799.13,297.29L799.31,297.32L799.49,295.42L799.84,295.27L800.02,293.61L801.08,293.51L801.26,295.24L802.14,297.44L802.32,297.38L803.91,290.37L804.09,290.4L804.26,290.43L804.44,289.65L805.68,292.03L805.86,292.06L806.21,291.91L806.39,292.79L806.92,297.41L807.09,296.45L807.27,294.45L809.75,280.76L809.92,263.9L810.1,227.58L810.45,287.32L810.63,287.23L811.52,287.26L811.69,286.44L811.87,285.3L812.22,286.66L812.4,289.8L812.58,293.3L812.93,289.89L813.11,288.62L813.64,288.92L813.82,287.56L814.52,292.7L814.88,291.79L815.05,291.85L815.94,291.97L816.12,291.04L816.82,288.62L817,290.95L818.59,293.39L818.77,293.33L819.48,293.45L819.65,293.76L820.54,297.02L820.72,296.84L820.89,297.74L821.6,300.04L821.78,298.5L821.95,297.38L822.13,299.41L822.49,296.57L822.66,296.54L824.43,296.81L824.61,295.97L824.79,293.23L825.14,296.87L825.32,296.91L825.85,296.94L826.02,300.28L826.73,289.82L826.91,300.49L827.79,289.72L827.97,289.79L828.15,289.75L828.32,290.79L828.85,293.3L829.21,293.26L829.39,294.13L829.92,296.56L830.27,296.49L830.45,296.49L830.8,297.01L830.98,298.89L831.33,298.89L831.51,300.32L832.22,298.89L832.39,300.52L833.28,292.81L833.45,296.84L833.81,299.27L833.98,295.8L834.34,16L834.69,174.29L834.87,221.47L835.75,251.61L835.93,245.94L836.82,300.32L837.17,296.98L837.35,297.01L837.52,296.94L837.7,300.52L838.58,296.98L838.76,296.98L840,296.96" style="vector-effect: non-scaling-stroke; fill: none; stroke: rgb(255, 0, 0); stroke-opacity: 1; stroke-width: 2px; opacity: 1;"/></g><g class="points"/><g class="text"/></g><g class="trace scatter traceb42938" style="stroke-miterlimit: 2; opacity: 1;"><g class="fills"/><g class="errorbars"/><g class="lines"><path class="js-line" d="M387.45,300.43L389.92,300.68L390.1,300.08L392.58,300.31L392.75,299.84L393.46,298.74L393.64,299.7L394.35,300.25L394.52,300.19L394.7,300.12L395.76,299.85L395.94,299.87L397,299.9L397.18,300.03L399.65,300.01L399.83,299.98L401.25,300.23L401.42,300.43L402.66,300.23L402.84,300.58L403.72,300.37L403.9,302.67L404.79,302.73L404.96,301.53L406.38,301.2L406.55,298.09L407.44,301.4L407.62,301.46L407.79,301.56L407.97,300.66L408.85,298.93L409.03,298.98L409.74,299.52L409.92,299.02L410.09,300.42L410.45,302.13L410.98,301.88L411.15,301.88L411.51,302.19L411.68,301.04L412.04,298.18L412.22,293.76L412.92,301.19L413.1,300.78L413.28,285.33L414.34,299.01L414.52,296.5L414.69,296.61L415.58,304L415.75,304L417.17,304L417.35,299.14L417.88,293.45L418.05,267.37L418.76,269.7L418.94,283.46L419.65,285.44L419.82,290.25L421.59,292.96L421.77,287.6L421.95,276.96L422.3,285.06L422.48,293.58L424.6,282.13L424.78,283.72L424.95,286.99L425.66,289.8L425.84,285.35L426.72,278.2L426.9,278.03L427.25,277.29L427.43,278.23L427.61,278.71L428.32,276.21L428.49,277.18L428.67,278.35L428.85,279.74L429.02,277.37L429.2,273.67L429.91,277.67L430.08,280.18L430.26,285.59L430.44,279.09L430.97,284.48L431.15,281.45L431.5,280.22L431.68,282.24L431.85,281.99L432.03,279.26L432.21,282.69L432.56,278.54L432.74,276.65L433.09,276.34L433.27,280.09L433.45,282.71L433.8,279.57L433.98,278.77L434.15,279.11L434.33,278.55L434.51,280.84L435.21,271.92L435.39,272.3L435.57,274.93L435.92,272.3L436.1,273.11L436.28,275.77L437.51,262.38L437.69,263.25L439.11,273.21L439.28,277.83L439.46,278.24L439.64,276.6L439.99,275.42L440.17,277.24L440.35,280.41L440.52,281.99L440.7,294L441.05,295.46L441.23,301.38L441.76,274.95L442.29,280.77L442.47,278.48L443,276.63L443.35,276.73L443.53,276.68L444.24,277.67L444.41,287.98L445.48,299.61L445.65,299.51L446.01,299.76L446.18,297.25L449.9,297.16L450.08,295.55L450.96,293.96L451.14,293.96L451.67,293.89L451.84,296.1L452.73,299.72L452.91,299.68L456.09,299.53L456.27,293.34L457.15,283.29L457.68,283.54L457.86,283.38L458.21,281.94L458.57,282.57L458.74,282.95L459.45,283.5L459.63,288.34L460.51,291.19L460.69,292.58L461.58,293.96L461.75,293.96L462.81,295.65L462.99,295.62L465.47,295.68L465.64,290.32L466.53,286.15L466.71,286.15L467.06,297.11L467.59,296.78L467.77,296.72L468.65,291.39L468.83,291.4L469.18,291.4L469.36,286.96L470.07,237.1L470.24,253.12L470.42,282.6L470.78,278.7L470.95,267.54L471.13,245.97L471.48,277.64L471.66,277.37L472.54,278.67L472.72,256.19L473.25,278.31L473.78,278.16L473.96,278.22L475.2,278.06L475.37,278.11L477.5,278.32L477.67,286.62L478.03,291.55L478.56,291.48L478.74,291.46L479.8,291.48L479.97,291.52L481.21,291.51L481.39,291.48L481.74,288.99L481.92,287.9L482.81,286.95L482.98,287.71L483.34,290.74L483.87,290.7L484.04,289.61L484.4,287.33L484.75,288.28L484.93,288.75L485.46,290.69L485.64,282.82L486.52,276.58L486.7,276.51L487.58,279.71L487.76,278.01L488.64,279.79L488.82,279.8L489.88,291.4L490.06,291.39L491.12,292.71L491.3,292.54L491.47,295.39L491.65,297.61L492.01,294.85L492.18,294.88L492.36,294.47L493.24,292.71L493.42,292.73L497.49,292.65L497.67,293.81L498.02,298.23L498.37,297.3L498.55,295.69L500.14,296.24L500.32,296.72L501.2,296.65L501.38,295.78L502.44,293.48L502.62,293.57L503.15,293.35L503.33,292.44L504.57,299.25L504.74,299.22L504.92,299.32L506.34,299.69L506.51,299.47L507.4,299.7L507.57,299.51L508.99,300.1L509.17,300.31L509.87,299.48L510.05,298.55L510.58,296.56L510.94,297.27L511.11,297.26L512.35,297.81L512.53,298.15L512.7,298.86L513.06,297.81L513.24,297.84L513.94,297.86L514.12,298.67L514.65,300.12L515,300.06L515.18,299.97L515.89,299.96L516.07,300.05L519.25,300.01L519.43,299.81L520.49,300.17L520.67,300.2L522.61,300.29L522.79,300.25L525.27,300.05L525.44,300.32L525.8,299.74L526.15,299.92L526.33,300.66L526.5,301.18L526.86,300.04L527.03,300.11L528.27,299.74L528.45,299.48L528.63,298.74L528.8,300.28L529.16,299.26L529.33,299.69L530.22,299.38L530.4,280.54L530.75,277.25L530.93,273.51L531.1,273.49L531.28,264.68L531.63,248.39L531.99,261.28L532.17,269.27L533.05,274.78L533.23,274.82L534.29,291.01L534.47,291.01L535,290.99L535.17,288.01L535.88,286.69L536.06,288.26L536.94,289.44L537.12,289.42L537.3,287.96L537.65,289.28L537.83,281.48L538.53,271.67L538.71,239.64L538.89,210.33L539.24,265.54L539.42,278.29L539.95,278.38L540.13,258.58L540.3,250.64L540.48,265.65L540.66,278.36L542.43,278.44L542.6,291.6L543.49,287.83L543.66,292.03L544.37,294.21L544.55,290.46L544.9,280.58L545.08,271.67L545.26,271.67L545.43,272.88L545.61,272.88L545.79,271.67L546.14,167.11L546.5,230.57L546.67,239.64L546.85,239.64L547.03,253.54L547.91,272.88L548.09,271.67L548.97,278.33L549.33,278.07L549.5,277.85L550.21,289.13L550.39,289.12L550.56,289.14L550.74,289.13L550.92,292.46L551.8,294.51L551.98,294.5L553.04,290.92L553.22,289.01L553.93,289.12L554.1,290.88L555.87,297.65L556.05,297.61L556.23,295.34L556.76,294.29L557.11,294.37L557.29,294.39L561.18,294.25L561.36,296.55L561.53,297.62L561.71,295.36L561.89,294.17L562.77,293.49L562.95,293.32L563.13,293.76L563.3,293.23L563.48,292.02L564.72,297.28L564.89,297.31L565.96,297.43L566.13,296.25L566.49,295.73L566.66,292.24L566.84,278.79L567.37,288.4L567.55,288.76L568.96,294.22L569.14,294.23L574.98,293.53L575.16,294.53L576.04,295.53L576.22,295.44L577.1,295.75L577.28,295.73L577.99,295.74L578.16,296.7L578.69,296.73L578.87,296.03L579.76,295.66L579.93,295.36L580.64,295.4L580.82,296.88L581.7,297.85L581.88,297.85L583.82,297.83L584,295.48L584.89,294.16L585.06,294.18L585.77,294.22L585.95,295.47L586.83,293.91L587.01,295.58L587.19,296.57L587.72,296L587.89,296.01L588.25,296.01L588.42,296.89L589.13,297.78L589.31,297.09L591.43,297.37L591.61,297.35L592.67,297.38L592.85,296.58L593.2,295.26L593.56,296.31L593.73,296.32L594.09,295.11L594.26,296.32L594.44,280.28L594.62,268.47L594.97,273.54L595.15,284.36L595.86,296.16L596.03,287.38L597.98,287.54L598.16,277.12L598.33,272.67L598.69,272.71L598.86,278.54L599.92,283.18L600.1,284.17L600.28,284.14L600.45,285.21L601.52,294.34L601.69,294.35L604.52,294.38L604.7,293L605.05,266.92L605.23,196.87L606.12,273.13L606.29,273.47L606.47,273.32L606.65,275.25L606.82,284.56L607.53,284.52L607.71,284.49L608.59,284L608.77,282.41L608.95,282.17L609.12,279.85L610.01,240.61L610.36,247.15L610.54,248.77L610.72,243.87L611.07,244.94L611.25,254.53L612.13,273.59L612.31,273.74L613.19,273.3L613.37,278.53L614.79,288.78L614.96,288.8L617.09,288.76L617.26,289.77L618.5,293.37L618.68,287.51L619.56,296.43L619.74,295.05L619.92,293.22L620.27,293.31L620.45,292.08L621.33,291.52L621.51,291.56L623.98,287.31L624.16,287.31L625.05,287.31L625.22,287.24L627.35,287.11L627.52,287.01L627.7,287.07L627.88,288.12L628.05,290.6L628.76,290.44L628.94,290.41L629.29,292.45L629.47,293.18L631.59,292.69L631.77,291.77L631.95,290.37L632.3,292.75L632.48,292.7L633.72,292.97L633.89,293.42L635.13,296.05L635.31,296.02L635.66,296.46L635.84,298.93L636.02,297.74L636.37,299.82L636.55,299.89L636.9,299.96L637.08,299.14L637.96,297.1L638.14,297.52L638.32,297.99L641.32,298.28L641.5,298.3L642.56,298.39L642.74,297.89L643.62,297.52L643.8,297.51L646.28,298.06L646.45,298.41L647.87,298.46L648.05,299.24L648.93,299.76L649.11,299.79L650.7,299.95L650.88,297.47L651.76,297.45L651.94,296.61L652.11,292.92L652.65,293.73L652.82,293.85L654.41,294.14L654.59,295.64L658.84,295.15L659.01,294.07L660.25,294.15L660.43,296.05L661.31,297.68L661.49,297.3L662.2,295.43L662.38,296.02L663.26,299.51L663.44,299.52L666.27,300.46L666.44,300.13L667.15,300.01L667.33,298.8L667.51,299.01L667.68,283.42L668.04,273.11" style="vector-effect: non-scaling-stroke; fill: none; stroke: rgb(0, 0, 255); stroke-opacity: 1; stroke-width: 2px; opacity: 1;"/><path class="js-line" d="M717.22,299.9L719.17,299.82L719.34,299.83L721.11,299.87L721.29,299.9L722,299.69L722.17,299.02L723.41,299.88L723.59,299.93L725.53,299.53L725.71,299.38L726.07,297.78L726.42,298.74L726.6,298.89L727.83,298.98L728.01,298.95L731.2,299.24L731.37,297.95L731.73,294.81L731.9,283.3L732.08,275.12L732.61,278.22L732.79,278.7L733.14,259.52L733.67,263.13L733.85,270.56L734.38,271.36L734.56,270.89L734.73,230.69L734.91,225.56L735.09,189.12L735.27,162.75L735.44,210.9L735.62,221.82L737.03,275.99L737.21,276.15L737.39,276.24L737.57,280.39L738.1,283.8L738.27,283.79L738.45,277.12L738.8,255.05L739.16,266.84L739.33,276.5L740.22,276.66L740.4,280.39L740.93,289.62L741.46,289.58L741.63,289.55L741.99,292.11L742.17,294.15L744.11,294.77L744.29,295.82L745.17,295.51L745.35,293.55L746.59,258.02L746.76,213.95L746.94,172.93L747.3,246.65L747.47,259.04L749.42,291.36L749.6,291.35L749.77,291.36L751.36,291.32L751.54,291.97L751.9,292.64L752.07,291.88L752.25,289.77L752.43,287.35L752.78,289.13L752.96,290.92L755.61,290.55L755.79,292.4L756.85,295.51L757.03,295.51L757.38,295.33L757.56,294.09L758.09,293.82L758.26,292.25L760.03,292.12L760.21,288.56L760.56,287.35L761.1,287.65L761.27,287.65L761.8,287.65L761.98,289.22L762.86,290.86L763.04,290.86L764.28,291.31L764.46,292.28L764.99,294.12L765.34,293.15L765.52,293.18L765.87,293.7L766.05,294.06L766.76,293.51L766.93,293.39L767.29,294.15L767.64,293.88L767.82,297.74L768.88,295.99L769.06,295.99L772.95,295.24L773.13,293.85L774.01,295.84L774.19,295.78L774.36,295.81L776.66,296.08L776.84,297.32L777.9,297.29L778.08,295.9L778.79,297.2L778.96,297.14L779.14,297.17L781.26,297.11L781.44,297.14L781.62,297.2L781.79,298.59L783.03,298.29L783.21,299.2L784.09,300.13L784.27,300.19L786.39,300.22L786.57,300.16L788.87,299.98L789.05,298.41L791.52,297.93L791.7,297.5L794,298.56L794.18,298.59L794.89,298.5L795.06,297.96L795.24,296.45L795.59,298.23L795.77,298.41L797.72,298.65L797.89,298.62L798.78,295.3L798.96,295.72L799.13,297.29L799.31,297.32L799.49,295.42L799.84,295.27L800.02,293.61L801.08,293.51L801.26,295.24L802.14,297.44L802.32,297.38L803.91,290.37L804.09,290.4L804.26,290.43L804.44,289.65L805.68,292.03L805.86,292.06L806.21,291.91L806.39,292.79L806.92,297.41L807.09,296.45L807.27,294.45L809.75,280.76L809.92,263.9L810.1,227.58L810.45,287.32L810.63,287.23L811.52,287.26L811.69,286.44L811.87,285.3L812.22,286.66L812.4,289.8L812.58,293.3L812.93,289.89L813.11,288.62L813.64,288.92L813.82,287.56L814.52,292.7L814.88,291.79L815.05,291.85L815.94,291.97L816.12,291.04L816.82,288.62L817,290.95L818.59,293.39L818.77,293.33L819.48,293.45L819.65,293.76L820.54,297.02L820.72,296.84L820.89,297.74L821.6,300.04L821.78,298.5L821.95,297.38L822.13,299.41L822.49,296.57L822.66,296.54L824.43,296.81L824.61,295.97L824.79,293.23L825.14,296.87L825.32,296.91L825.85,296.94L826.02,300.28L826.73,289.82L826.91,300.49L827.79,289.72L827.97,289.79L828.15,289.75L828.32,290.79L828.85,293.3L829.21,293.26L829.39,294.13L829.92,296.56L830.27,296.49L830.45,296.49L830.8,297.01L830.98,298.89L831.33,298.89L831.51,300.32L832.22,298.89L832.39,300.52L833.28,292.81L833.45,296.84L833.81,299.27L833.98,295.8L834.34,16L834.69,174.29L834.87,221.47L835.75,251.61L835.93,245.94L836.82,300.32L837.17,296.98L837.35,297.01L837.52,296.94L837.7,300.52L838.58,296.98L838.76,296.98L840,296.96" style="vector-effect: non-scaling-stroke; fill: none; stroke: rgb(0, 0, 255); stroke-opacity: 1; stroke-width: 2px; opacity: 1;"/></g><g class="points"/><g class="text"/></g></g></g><g class="overplot"/><path class="xlines-above crisp" d="M0,0" style="fill: none;"/><path class="ylines-above crisp" d="M0,0" style="fill: none;"/><g class="overlines-above"/><g class="xaxislayer-above"><g class="xtick"><text text-anchor="middle" x="0" y="433" transform="translate(80,0)" style="font-family: 'Open Sans', verdana, arial, sans-serif; font-size: 12px; fill: rgb(42, 63, 95); fill-opacity: 1; white-space: pre; opacity: 1;">2002</text></g><g class="xtick"><text text-anchor="middle" x="0" y="433" style="font-family: 'Open Sans', verdana, arial, sans-serif; font-size: 12px; fill: rgb(42, 63, 95); fill-opacity: 1; white-space: pre; opacity: 1;" transform="translate(209.15,0)">2004</text></g><g class="xtick"><text text-anchor="middle" x="0" y="433" style="font-family: 'Open Sans', verdana, arial, sans-serif; font-size: 12px; fill: rgb(42, 63, 95); fill-opacity: 1; white-space: pre; opacity: 1;" transform="translate(338.48,0)">2006</text></g><g class="xtick"><text text-anchor="middle" x="0" y="433" style="font-family: 'Open Sans', verdana, arial, sans-serif; font-size: 12px; fill: rgb(42, 63, 95); fill-opacity: 1; white-space: pre; opacity: 1;" transform="translate(467.62,0)">2008</text></g><g class="xtick"><text text-anchor="middle" x="0" y="433" style="font-family: 'Open Sans', verdana, arial, sans-serif; font-size: 12px; fill: rgb(42, 63, 95); fill-opacity: 1; white-space: pre; opacity: 1;" transform="translate(596.95,0)">2010</text></g><g class="xtick"><text text-anchor="middle" x="0" y="433" style="font-family: 'Open Sans', verdana, arial, sans-serif; font-size: 12px; fill: rgb(42, 63, 95); fill-opacity: 1; white-space: pre; opacity: 1;" transform="translate(726.1,0)">2012</text></g><g class="xtick"><text text-anchor="middle" x="0" y="433" style="font-family: 'Open Sans', verdana, arial, sans-serif; font-size: 12px; fill: rgb(42, 63, 95); fill-opacity: 1; white-space: pre; opacity: 1;" transform="translate(855.43,0)">2014</text></g></g><g class="yaxislayer-above"><g class="ytick"><text text-anchor="end" x="79" y="4.199999999999999" transform="translate(0,404)" style="font-family: 'Open Sans', verdana, arial, sans-serif; font-size: 12px; fill: rgb(42, 63, 95); fill-opacity: 1; white-space: pre; opacity: 1;">0</text></g><g class="ytick"><text text-anchor="end" x="79" y="4.199999999999999" style="font-family: 'Open Sans', verdana, arial, sans-serif; font-size: 12px; fill: rgb(42, 63, 95); fill-opacity: 1; white-space: pre; opacity: 1;" transform="translate(0,343.56)">20</text></g><g class="ytick"><text text-anchor="end" x="79" y="4.199999999999999" style="font-family: 'Open Sans', verdana, arial, sans-serif; font-size: 12px; fill: rgb(42, 63, 95); fill-opacity: 1; white-space: pre; opacity: 1;" transform="translate(0,283.13)">40</text></g><g class="ytick"><text text-anchor="end" x="79" y="4.199999999999999" style="font-family: 'Open Sans', verdana, arial, sans-serif; font-size: 12px; fill: rgb(42, 63, 95); fill-opacity: 1; white-space: pre; opacity: 1;" transform="translate(0,222.69)">60</text></g><g class="ytick"><text text-anchor="end" x="79" y="4.199999999999999" style="font-family: 'Open Sans', verdana, arial, sans-serif; font-size: 12px; fill: rgb(42, 63, 95); fill-opacity: 1; white-space: pre; opacity: 1;" transform="translate(0,162.26)">80</text></g><g class="ytick"><text text-anchor="end" x="79" y="4.199999999999999" style="font-family: 'Open Sans', verdana, arial, sans-serif; font-size: 12px; fill: rgb(42, 63, 95); fill-opacity: 1; white-space: pre; opacity: 1;" transform="translate(0,101.82)">100</text></g></g><g class="overaxes-above"/></g></g><g class="polarlayer"/><g class="smithlayer"/><g class="ternarylayer"/><g class="geolayer"/><g class="funnelarealayer"/><g class="pielayer"/><g class="iciclelayer"/><g class="treemaplayer"/><g class="sunburstlayer"/><g class="glimages"/><defs id="topdefs-f1680b"><g class="clips"/></defs><g class="layer-above"><g class="imagelayer"/><g class="shapelayer"/></g><g class="infolayer"><g class="g-gtitle"/><g class="g-xtitle"/><g class="g-ytitle"/></g></svg>