<svg class="main-svg" xmlns="http://www.w3.org/2000/svg" xmlns:xlink="http://www.w3.org/1999/xlink" width="1000" height="500" style="" viewBox="0 0 1000 500"><rect x="0" y="0" width="1000" height="500" style="fill: rgb(255, 255, 255); fill-opacity: 1;"/><defs id="defs-efaa74"><g class="clips"><clipPath id="clipefaa74xyplot" class="plotclip"><rect width="840" height="320"/></clipPath><clipPath class="axesclip" id="clipefaa74x"><rect x="80" y="0" width="840" height="500"/></clipPath><clipPath class="axesclip" id="clipefaa74y"><rect x="0" y="100" width="1000" height="320"/></clipPath><clipPath class="axesclip" id="clipefaa74xy"><rect x="80" y="100" width="840" height="320"/></clipPath></g><g class="gradients"/><g class="patterns"/></defs><g class="bglayer"><rect class="bg" x="80" y="100" width="840" height="320" style="fill: rgb(229, 236, 246); fill-opacity: 1; stroke-width: 0;"/></g><g class="layer-below"><g class="imagelayer"/><g class="shapelayer"/></g><g class="cartesianlayer"><g class="subplot xy"><g class="layer-subplot"><g class="shapelayer"/><g class="imagelayer"/></g><g class="minor-gridlayer"><g class="x"/><g class="y"/></g><g class="gridlayer"><g class="x"><path class="xgrid crisp" transform="translate(184.64,0)" d="M0,100v320" style="stroke: rgb(255, 255, 255); stroke-opacity: 1; stroke-width: 1px;"/><path class="xgrid crisp" transform="translate(290.43,0)" d="M0,100v320" style="stroke: rgb(255, 255, 255); stroke-opacity: 1; stroke-width: 1px;"/><path class="xgrid crisp" transform="translate(394.5,0)" d="M0,100v320" style="stroke: rgb(255, 255, 255); stroke-opacity: 1; stroke-width: 1px;"/><path class="xgrid crisp" transform="translate(500.29,0)" d="M0,100v320" style="stroke: rgb(255, 255, 255); stroke-opacity: 1; stroke-width: 1px;"/><path class="xgrid crisp" transform="translate(604.35,0)" d="M0,100v320" style="stroke: rgb(255, 255, 255); stroke-opacity: 1; stroke-width: 1px;"/><path class="xgrid crisp" transform="translate(710.14,0)" d="M0,100v320" style="stroke: rgb(255, 255, 255); stroke-opacity: 1; stroke-width: 1px;"/><path class="xgrid crisp" transform="translate(814.21,0)" d="M0,100v320" style="stroke: rgb(255, 255, 255); stroke-opacity: 1; stroke-width: 1px;"/></g><g class="y"><path class="ygrid crisp" transform="translate(0,329.77)" d="M80,0h840" style="stroke: rgb(255, 255, 255); stroke-opacity: 1; stroke-width: 1px;"/><path class="ygrid crisp" transform="translate(0,255.55)" d="M80,0h840" style="stroke: rgb(255, 255, 255); stroke-opacity: 1; stroke-width: 1px;"/><path class="ygrid crisp" transform="translate(0,181.32)" d="M80,0h840" style="stroke: rgb(255, 255, 255); stroke-opacity: 1; stroke-width: 1px;"/><path class="ygrid crisp" transform="translate(0,107.09)" d="M80,0h840" style="stroke: rgb(255, 255, 255); stroke-opacity: 1; stroke-width: 1px;"/></g></g><g class="zerolinelayer"><path class="yzl zl crisp" transform="translate(0,404)" d="M80,0h840" style="stroke: rgb(255, 255, 255); stroke-opacity: 1; stroke-width: 2px;"/></g><path class="xlines-below"/><path class="ylines-below"/><g class="overlines-below"/><g class="xaxislayer-below"/><g class="yaxislayer-below"/><g class="overaxes-below"/><g class="plot" transform="translate(80,100)" clip-path="url(#clipefaa74xyplot)"><g class="scatterlayer mlayer"><g class="trace scatter trace584436" style="stroke-miterlimit: 2; opacity: 1;"><g class="fills"/><g class="errorbars"/><g class="lines"><path class="js-line" d="M0,304L147.19,304L147.76,292.79L148.91,304L149.49,304L163.86,304L164.44,285.72L165.01,282.23L165.59,295.64L166.74,304L167.31,304L221.93,304L222.51,241.37L223.08,251.49L223.66,290.85L224.8,299.31L225.38,299.98L226.53,296.46L227.1,298.87L229.4,301.05L229.98,301.34L234.58,302.11L235.15,302.05L236.3,298.02L236.88,295.06L238.03,299.1L238.6,299.79L240.9,301L241.48,300.87L244.93,302.04L245.5,301.93L246.08,300.78L246.65,301.81L247.23,301.98L247.8,303.01L248.95,303.59L249.53,303.58L257.58,303.63L258.15,301.77L259.3,303.62L259.88,303.63L289.2,303.55L289.77,301.48L290.35,300.95L290.92,303.45L294.95,303.83L295.52,303.84L296.1,292.4L296.67,297.35L297.82,287.41L298.4,288.39L298.97,287.93L299.55,289.74L300.12,290.64L300.7,290.13L303,289.71L303.57,290.98L304.72,294.96L305.3,297.34L306.45,301.54L307.02,303.46L308.75,300.29L309.32,300.44L311.62,303.98L312.2,303.86L313.35,303.86L313.92,302.57L314.5,302.06L315.07,303.88L327.15,303.99L327.72,303.99L477.21,304L477.78,278.74L478.93,303.59L479.51,298.02L480.08,298.08L480.66,303.04L481.81,303.69L482.38,303.72L495.61,303.69L496.18,303.25L500.21,303.6L500.78,303.61L522.05,303.97L522.63,303.97L599.67,304L600.25,302.89L601.4,303.93L601.97,303.96L602.55,303.99L603.12,279.7L604.27,296.59L604.85,16L606,295.37L606.57,297.85L608.3,299.98L608.87,300.21L610.6,300.85L611.17,301.06L640.49,302.08L641.07,302.01L647.39,302.07L647.97,302.08L653.72,302.2L654.29,302.2L663.49,302.19L664.07,300.51L669.82,300.12L670.39,299.91L670.97,299.34L671.54,300.07L672.69,300.34L673.26,299.87L674.41,300.27L674.99,300.12L682.46,299.19L683.04,298.12L683.61,297.06L684.19,299.15" style="vector-effect: non-scaling-stroke; fill: none; stroke: rgb(255, 0, 0); stroke-opacity: 1; stroke-width: 2px; opacity: 1;"/><path class="js-line" d="M687.06,298.68L688.79,299.24L689.36,299.1L691.09,298.92L691.66,298.89" style="vector-effect: non-scaling-stroke; fill: none; stroke: rgb(255, 0, 0); stroke-opacity: 1; stroke-width: 2px; opacity: 1;"/><path class="js-line" d="M694.54,292.16L695.69,297.41L696.26,297.45L697.99,297.34L698.56,296.99L700.86,295.63L701.44,296.55L702.59,296.93L703.16,295.74L706.61,296.24L707.19,295.85L707.76,296.6L708.34,295.85L708.91,295.01L709.49,292.75L710.64,295.47L711.21,295.8L712.36,295.78L712.94,294.74L714.09,295.87L714.66,295.35L716.39,296.89L716.96,304L739.96,303.35L740.53,301.27L741.11,303.11L741.68,302.55L742.26,301.57L742.83,300.96L743.41,302.39L745.13,303.14L745.71,302.44L746.28,301.14L746.86,302.28L748.01,303.79L748.58,303.86L758.93,303.89L759.51,303.8L764.68,303.88L765.26,303.88L799.18,303.71L799.75,237.3L800.9,297.3L801.48,301.43L802.63,302.84L803.2,302.98L806.08,303.33L806.65,303.38L812.4,302.67L812.98,301.23L814.7,301.9L815.28,301.71L817,300.57L817.58,297.62L818.73,299.6L819.3,299.51L822.18,299.76L822.75,300.01L823.9,299.23L824.48,227.13L825.63,290.61L826.2,293.18L827.93,295.92L828.5,296.32L835.4,298.84L835.98,298.83L840,298.86" style="vector-effect: non-scaling-stroke; fill: none; stroke: rgb(255, 0, 0); stroke-opacity: 1; stroke-width: 2px; opacity: 1;"/></g><g class="points"/><g class="text"/></g><g class="trace scatter trace4e2018" style="stroke-miterlimit: 2; opacity: 1;"><g class="fills"/><g class="errorbars"/><g class="lines"><path class="js-line" d="M0,304L147.19,304L147.76,292.79L148.91,304L149.49,304L163.86,304L164.44,285.72L165.01,282.23L165.59,295.64L166.74,304L167.31,304L221.93,304L222.51,241.37L223.08,251.49L223.66,290.85L224.8,299.31L225.38,299.98L226.53,296.46L227.1,298.87L229.4,301.05L229.98,301.34L234.58,302.11L235.15,302.05L236.3,298.02L236.88,295.06L238.03,299.1L238.6,299.79L240.9,301L241.48,300.87L244.93,302.04L245.5,301.93L246.08,300.78L246.65,301.81L247.23,301.98L247.8,303.01L248.95,303.59L249.53,303.58L257.58,303.63L258.15,301.77L259.3,303.62L259.88,303.63L287.47,303.67" style="vector-effect: non-scaling-stroke; fill: none; stroke: rgb(0, 0, 255); stroke-opacity: 1; stroke-width: 2px; opacity: 1;"/><path class="js-line" d="M316.8,303.98L477.21,304L477.78,278.74L478.93,303.59L479.51,298.02L480.08,298.08L480.66,303.04L481.81,303.69L482.38,303.72L495.61,303.69L496.18,303.25L500.21,303.6L500.78,303.61L522.05,303.97L522.63,303.97L599.67,304L600.25,302.89L601.4,303.93L601.97,303.96L602.55,303.99L603.12,279.7L604.27,296.59L604.85,16L606,295.37L606.57,297.85L608.3,299.98L608.87,300.21L610.6,300.85L611.17,301.06L611.75,301.09" style="vector-effect: non-scaling-stroke; fill: none; stroke: rgb(0, 0, 255); stroke-opacity: 1; stroke-width: 2px; opacity: 1;"/><path class="js-line" d="M734.21,303.95L739.96,303.35L740.53,301.27L741.11,303.11L741.68,302.55L742.26,301.57L742.83,300.96L743.41,302.39L745.13,303.14L745.71,302.44L746.28,301.14L746.86,302.28L748.01,303.79L748.58,303.86L758.93,303.89L759.51,303.8L764.68,303.88L765.26,303.88L799.18,303.71L799.75,237.3L800.9,297.3L801.48,301.43L802.63,302.84L803.2,302.98L806.08,303.33L806.65,303.38L812.4,302.67L812.98,301.23L814.7,301.9L815.28,301.71L817,300.57L817.58,297.62L818.73,299.6L819.3,299.51L822.18,299.76L822.75,300.01L823.9,299.23L824.48,227.13L825.63,290.61L826.2,293.18L827.93,295.92L828.5,296.32L835.4,298.84L835.98,298.83L840,298.86" style="vector-effect: non-scaling-stroke; fill: none; stroke: rgb(0, 0, 255); stroke-opacity: 1; stroke-width: 2px; opacity: 1;"/></g><g class="points"/><g class="text"/></g></g></g><g class="overplot"/><path class="xlines-above crisp" d="M0,0" style="fill: none;"/><path class="ylines-above crisp" d="M0,0" style="fill: none;"/><g class="overlines-above"/><g class="xaxislayer-above"><g class="xtick"><text text-anchor="middle" x="0" y="433" transform="translate(80,0)" style="font-family: 'Open Sans', verdana, arial, sans-serif; font-size: 12px; fill: rgb(42, 63, 95); fill-opacity: 1; white-space: pre; opacity: 1;">Jan 2016</text></g><g class="xtick"><text text-anchor="middle" x="0" y="433" style="font-family: 'Open Sans', verdana, arial, sans-serif; font-size: 12px; fill: rgb(42, 63, 95); fill-opacity: 1; white-space: pre; opacity: 1;" transform="translate(184.64,0)">Jul 2016</text></g><g class="xtick"><text text-anchor="middle" x="0" y="433" style="font-family: 'Open Sans', verdana, arial, sans-serif; font-size: 12px; fill: rgb(42, 63, 95); fill-opacity: 1; white-space: pre; opacity: 1;" transform="translate(290.43,0)">Jan 2017</text></g><g class="xtick"><text text-anchor="middle" x="0" y="433" style="font-family: 'Open Sans', verdana, arial, sans-serif; font-size: 12px; fill: rgb(42, 63, 95); fill-opacity: 1; white-space: pre; opacity: 1;" transform="translate(394.5,0)">Jul 2017</text></g><g class="xtick"><text text-anchor="middle" x="0" y="433" style="font-family: 'Open Sans', verdana, arial, sans-serif; font-size: 12px; fill: rgb(42, 63, 95); fill-opacity: 1; white-space: pre; opacity: 1;" transform="translate(500.29,0)">Jan 2018</text></g><g class="xtick"><text text-anchor="middle" x="0" y="433" style="font-family: 'Open Sans', verdana, arial, sans-serif; font-size: 12px; fill: rgb(42, 63, 95); fill-opacity: 1; white-space: pre; opacity: 1;" transform="translate(604.35,0)">Jul 2018</text></g><g class="xtick"><text text-anchor="middle" x="0" y="433" style="font-family: 'Open Sans', verdana, arial, sans-serif; font-size: 12px; fill: rgb(42, 63, 95); fill-opacity: 1; white-space: pre; opacity: 1;" transform="translate(710.14,0)">Jan 2019</text></g><g class="xtick"><text text-anchor="middle" x="0" y="433" style="font-family: 'Open Sans', verdana, arial, sans-serif; font-size: 12px; fill: rgb(42, 63, 95); fill-opacity: 1; white-space: pre; opacity: 1;" transform="translate(814.21,0)">Jul 2019</text></g><g class="xtick"><text text-anchor="middle" x="0" y="433" style="font-family: 'Open Sans', verdana, arial, sans-serif; font-size: 12px; fill: rgb(42, 63, 95); fill-opacity: 1; white-space: pre; opacity: 1;" transform="translate(920,0)">Jan 2020</text></g></g><g class="yaxislayer-above"><g class="ytick"><text text-anchor="end" x="79" y="4.199999999999999" transform="translate(0,404)" style="font-family: 'Open Sans', verdana, arial, sans-serif; font-size: 12px; fill: rgb(42, 63, 95); fill-opacity: 1; white-space: pre; opacity: 1;">0</text></g><g class="ytick"><text text-anchor="end" x="79" y="4.199999999999999" style="font-family: 'Open Sans', verdana, arial, sans-serif; font-size: 12px; fill: rgb(42, 63, 95); fill-opacity: 1; white-space: pre; opacity: 1;" transform="translate(0,329.77)">50</text></g><g class="ytick"><text text-anchor="end" x="79" y="4.199999999999999" style="font-family: 'Open Sans', verdana, arial, sans-serif; font-size: 12px; fill: rgb(42, 63, 95); fill-opacity: 1; white-space: pre; opacity: 1;" transform="translate(0,255.55)">100</text></g><g class="ytick"><text text-anchor="end" x="79" y="4.199999999999999" style="font-family: 'Open Sans', verdana, arial, sans-serif; font-size: 12px; fill: rgb(42, 63, 95); fill-opacity: 1; white-space: pre; opacity: 1;" transform="translate(0,181.32)">150</text></g><g class="ytick"><text text-anchor="end" x="79" y="4.199999999999999" style="font-family: 'Open Sans', verdana, arial, sans-serif; font-size: 12px; fill: rgb(42, 63, 95); fill-opacity: 1; white-space: pre; opacity: 1;" transform="translate(0,107.09)">200</text></g></g><g class="overaxes-above"/></g></g><g class="polarlayer"/><g class="smithlayer"/><g class="ternarylayer"/><g class="geolayer"/><g class="funnelarealayer"/><g class="pielayer"/><g class="iciclelayer"/><g class="treemaplayer"/><g class="sunburstlayer"/><g class="glimages"/><defs id="topdefs-efaa74"><g class="clips"/></defs><g class="layer-above"><g class="imagelayer"/><g class="shapelayer"/></g><g class="infolayer"><g class="g-gtitle"/><g class="g-xtitle"/><g class="g-ytitle"/></g></svg>