<svg class="main-svg" xmlns="http://www.w3.org/2000/svg" xmlns:xlink="http://www.w3.org/1999/xlink" width="1000" height="500" style="" viewBox="0 0 1000 500"><rect x="0" y="0" width="1000" height="500" style="fill: rgb(255, 255, 255); fill-opacity: 1;"/><defs id="defs-0a28cd"><g class="clips"><clipPath id="clip0a28cdxyplot" class="plotclip"><rect width="840" height="320"/></clipPath><clipPath class="axesclip" id="clip0a28cdx"><rect x="80" y="0" width="840" height="500"/></clipPath><clipPath class="axesclip" id="clip0a28cdy"><rect x="0" y="100" width="1000" height="320"/></clipPath><clipPath class="axesclip" id="clip0a28cdxy"><rect x="80" y="100" width="840" height="320"/></clipPath></g><g class="gradients"/><g class="patterns"/></defs><g class="bglayer"><rect class="bg" x="80" y="100" width="840" height="320" style="fill: rgb(229, 236, 246); fill-opacity: 1; stroke-width: 0;"/></g><g class="layer-below"><g class="imagelayer"/><g class="shapelayer"/></g><g class="cartesianlayer"><g class="subplot xy"><g class="layer-subplot"><g class="shapelayer"/><g class="imagelayer"/></g><g class="minor-gridlayer"><g class="x"/><g class="y"/></g><g class="gridlayer"><g class="x"><path class="xgrid crisp" transform="translate(219.49,0)" d="M0,100v320" style="stroke: rgb(255, 255, 255); stroke-opacity: 1; stroke-width: 1px;"/><path class="xgrid crisp" transform="translate(360.51,0)" d="M0,100v320" style="stroke: rgb(255, 255, 255); stroke-opacity: 1; stroke-width: 1px;"/><path class="xgrid crisp" transform="translate(499.23,0)" d="M0,100v320" style="stroke: rgb(255, 255, 255); stroke-opacity: 1; stroke-width: 1px;"/><path class="xgrid crisp" transform="translate(640.26,0)" d="M0,100v320" style="stroke: rgb(255, 255, 255); stroke-opacity: 1; stroke-width: 1px;"/><path class="xgrid crisp" transform="translate(778.98,0)" d="M0,100v320" style="stroke: rgb(255, 255, 255); stroke-opacity: 1; stroke-width: 1px;"/></g><g class="y"><path class="ygrid crisp" transform="translate(0,381.63)" d="M80,0h840" style="stroke: rgb(255, 255, 255); stroke-opacity: 1; stroke-width: 1px;"/><path class="ygrid crisp" transform="translate(0,328.66999999999996)" d="M80,0h840" style="stroke: rgb(255, 255, 255); stroke-opacity: 1; stroke-width: 1px;"/><path class="ygrid crisp" transform="translate(0,275.72)" d="M80,0h840" style="stroke: rgb(255, 255, 255); stroke-opacity: 1; stroke-width: 1px;"/><path class="ygrid crisp" transform="translate(0,222.76999999999998)" d="M80,0h840" style="stroke: rgb(255, 255, 255); stroke-opacity: 1; stroke-width: 1px;"/><path class="ygrid crisp" transform="translate(0,169.81)" d="M80,0h840" style="stroke: rgb(255, 255, 255); stroke-opacity: 1; stroke-width: 1px;"/><path class="ygrid crisp" transform="translate(0,116.86)" d="M80,0h840" style="stroke: rgb(255, 255, 255); stroke-opacity: 1; stroke-width: 1px;"/></g></g><g class="zerolinelayer"/><path class="xlines-below"/><path class="ylines-below"/><g class="overlines-below"/><g class="xaxislayer-below"/><g class="yaxislayer-below"/><g class="overaxes-below"/><g class="plot" transform="translate(80,100)" clip-path="url(#clip0a28cdxyplot)"><g class="scatterlayer mlayer"><g class="trace scatter trace745b1a" style="stroke-miterlimit: 2; opacity: 1;"><g class="fills"/><g class="errorbars"/><g class="lines"><path class="js-line" d="M0,270.7L0.77,270.57L1.53,274.09L2.3,270.76L3.07,273.52L3.83,275.06L4.6,272.14L5.36,276.53L6.13,273.74L6.9,273.89L7.66,270.12L8.43,278.81L9.2,268.77L10.73,283.83L11.5,279.49L12.26,274.91L13.03,280.77L15.33,299.04L16.09,299.86L16.86,294.4L17.63,296.97L19.16,302.33L19.93,302.54L20.69,302.48L21.46,299.91L23.76,287.82L24.53,280.03L26.06,290.98L26.82,288.27L27.59,281.78L28.36,282.9L29.12,289.3L29.89,285.1L30.66,284.52L31.42,286.99L32.19,281.9L32.96,283.62L33.72,279.55L34.49,279.99L35.26,287.71L36.02,278.95L38.32,290.73L39.09,288.99L40.62,292.93L41.39,288.77L42.92,299.97L43.69,297.96L44.45,294L45.22,294.36L45.99,298.44L46.75,297.19L47.52,297.58L48.28,295.04L49.05,295.71L49.82,299.67L51.35,287.87L52.12,298.38L52.88,295.5L53.65,295.82L54.42,297.78L55.18,296.44L55.95,297.18L56.72,289.47L57.48,289.53L58.25,290.67L59.01,287.62L59.78,290.45L60.55,281.7L61.31,246.06L62.08,60.52L62.85,130.34L65.15,255.54L65.91,262.36L66.68,277.62L67.45,274.61L68.98,266.19L69.74,274.8L70.51,274.19L71.28,262.49L72.04,203.96L72.81,215.21L73.58,221.73L74.34,210.26L75.88,233.32L76.64,231.21L78.18,260.59L78.94,217.12L79.71,224.87L80.47,243.81L82.01,260.31L82.77,257.47L85.07,273.97L85.84,273.5L86.61,271.2L87.37,281.54L88.14,285.24L88.91,279.69L89.67,285.28L90.44,284.51L91.2,243.8L91.97,161.07L92.74,147.13L93.5,166.17L94.27,156.4L95.04,130.94L95.8,139.9L96.57,161.54L97.34,120.81L98.1,126.53L99.64,163.15L100.4,171.09L101.17,182.05L101.93,173.01L102.7,124.7L103.47,141.42L106.53,198.62L107.3,143.62L108.07,129.07L108.83,157.41L111.9,229.13L112.66,236.68L113.43,238.16L114.2,100.32L114.96,22.12L115.73,53.46L117.26,117.13L118.03,102.54L118.8,16L119.56,86.36L121.09,164.04L121.86,171.35L124.93,235.4L125.69,245.9L129.53,277.34L130.29,275.02L134.12,291.33L134.89,290.75L135.66,289.61L136.42,284.42L138.72,287.17L139.49,282.59L140.26,264.3L141.02,281.52L141.79,286.49L142.55,279.16L143.32,220.1L144.09,266.09L145.62,281.29L146.39,288.8L147.15,289.61L147.92,288.29L149.45,284.46L150.22,288.05L150.99,282.64L151.75,286.1L152.52,288.59L153.28,287.64L154.05,288.83L154.82,283.73L155.58,286.78L156.35,282.69L157.12,288.26L157.88,304L158.65,301.87L159.42,294.39L160.18,292.85L160.95,288.6L161.72,289.43L162.48,292.06L163.25,293.95L164.01,293.49L164.78,292.26L165.55,293.49L167.85,293.49L168.61,286.46L169.38,285.5L170.15,286.63L170.91,289.47L171.68,287.31L172.45,283.68L173.21,273.25L174.74,287.46L175.51,287.99L177.04,289.23L177.81,283.79L803.21,283.79" style="vector-effect: non-scaling-stroke; fill: none; stroke: rgb(255, 0, 0); stroke-opacity: 1; stroke-width: 2px; opacity: 1;"/></g><g class="points"/><g class="text"/></g><g class="trace scatter tracebe8f00" style="stroke-miterlimit: 2; opacity: 1;"><g class="fills"/><g class="errorbars"/><g class="lines"><path class="js-line" d="M0,270.7L0.77,270.57L1.53,274.09L2.3,270.76L3.07,273.52L3.83,275.06L4.6,272.14L5.36,276.53L6.13,273.74L6.9,273.89L7.66,270.12L8.43,278.81L9.2,268.77L10.73,283.83L11.5,279.49L12.26,274.91L13.03,280.77L15.33,299.04L16.09,299.86L16.86,294.4L17.63,296.97L19.16,302.33L19.93,302.54L20.69,302.48L21.46,299.91L23.76,287.82L24.53,280.03L26.06,290.98L26.82,288.27L27.59,281.78L28.36,282.9L29.12,289.3L29.89,285.1L30.66,284.52L31.42,286.99L32.19,281.9L32.96,283.62L33.72,279.55L34.49,279.99L35.26,287.71L36.02,278.95L38.32,290.73L39.09,288.99L40.62,292.93L41.39,288.77L42.92,299.97L43.69,297.96L44.45,294L45.22,294.36L45.99,298.44L46.75,297.19L47.52,297.58L48.28,295.04L49.05,295.71L49.82,299.67L51.35,287.87L52.12,298.38L52.88,295.5L53.65,295.82L54.42,297.78L55.18,296.44L55.95,297.18L56.72,289.47L57.48,289.53L58.25,290.67L59.01,287.62L59.78,290.45L60.55,281.7L61.31,246.06L62.08,60.52L62.85,130.34L65.15,255.54L65.91,262.36L66.68,277.62L67.45,274.61L68.98,266.19L69.74,274.8L70.51,274.19L71.28,262.49L72.04,203.96L72.81,215.21L73.58,221.73L74.34,210.26L75.88,233.32L76.64,231.21L78.18,260.59L78.94,217.12L79.71,224.87L80.47,243.81L82.01,260.31L82.77,257.47L85.07,273.97L85.84,273.5L86.61,271.2L87.37,281.54L88.14,285.24L88.91,279.69L89.67,285.28L90.44,284.51L91.2,243.8L91.97,161.07L92.74,147.13L93.5,166.17L94.27,156.4L95.04,130.94L95.8,139.9L96.57,161.54L97.34,120.81L98.1,126.53L99.64,163.15L100.4,171.09L101.17,182.05L101.93,173.01L102.7,124.7L103.47,141.42L106.53,198.62L107.3,143.62L108.07,129.07L108.83,157.41L111.9,229.13L112.66,236.68L113.43,238.16L114.2,100.32L114.96,22.12L115.73,53.46L117.26,117.13L118.03,102.54L118.8,16L119.56,86.36L121.09,164.04L121.86,171.35L124.93,235.4L125.69,245.9L129.53,277.34L130.29,275.02L134.12,291.33L134.89,290.75L135.66,289.61L136.42,284.42L138.72,287.17L139.49,282.59L140.26,264.3L141.02,281.52L141.79,286.49L142.55,279.16L143.32,220.1L144.09,266.09L145.62,281.29L146.39,288.8L147.15,289.61L147.92,288.29L149.45,284.46L150.22,288.05L150.99,282.64L151.75,286.1L152.52,288.59L153.28,287.64L154.05,288.83L154.82,283.73L155.58,286.78L156.35,282.69L157.12,288.26L157.88,304L158.65,301.87L159.42,294.39L160.18,292.85L160.95,288.6L161.72,289.43L162.48,292.06L163.25,293.95L164.01,293.49L164.78,292.26L165.55,293.49L167.85,293.49L168.61,286.46L169.38,285.5L170.15,286.63L170.91,289.47L171.68,287.31L172.45,283.68L173.21,273.25L174.74,287.46L175.51,287.99L177.04,289.23" style="vector-effect: non-scaling-stroke; fill: none; stroke: rgb(0, 0, 255); stroke-opacity: 1; stroke-width: 2px; opacity: 1;"/></g><g class="points"/><g class="text"/></g></g></g><g class="overplot"/><path class="xlines-above crisp" d="M0,0" style="fill: none;"/><path class="ylines-above crisp" d="M0,0" style="fill: none;"/><g class="overlines-above"/><g class="xaxislayer-above"><g class="xtick"><text text-anchor="middle" x="0" y="433" transform="translate(80,0)" style="font-family: 'Open Sans', verdana, arial, sans-serif; font-size: 12px; fill: rgb(42, 63, 95); fill-opacity: 1; white-space: pre; opacity: 1;">Jan 2012</text></g><g class="xtick"><text text-anchor="middle" x="0" y="433" style="font-family: 'Open Sans', verdana, arial, sans-serif; font-size: 12px; fill: rgb(42, 63, 95); fill-opacity: 1; white-space: pre; opacity: 1;" transform="translate(219.49,0)">Jul 2012</text></g><g class="xtick"><text text-anchor="middle" x="0" y="433" style="font-family: 'Open Sans', verdana, arial, sans-serif; font-size: 12px; fill: rgb(42, 63, 95); fill-opacity: 1; white-space: pre; opacity: 1;" transform="translate(360.51,0)">Jan 2013</text></g><g class="xtick"><text text-anchor="middle" x="0" y="433" style="font-family: 'Open Sans', verdana, arial, sans-serif; font-size: 12px; fill: rgb(42, 63, 95); fill-opacity: 1; white-space: pre; opacity: 1;" transform="translate(499.23,0)">Jul 2013</text></g><g class="xtick"><text text-anchor="middle" x="0" y="433" style="font-family: 'Open Sans', verdana, arial, sans-serif; font-size: 12px; fill: rgb(42, 63, 95); fill-opacity: 1; white-space: pre; opacity: 1;" transform="translate(640.26,0)">Jan 2014</text></g><g class="xtick"><text text-anchor="middle" x="0" y="433" style="font-family: 'Open Sans', verdana, arial, sans-serif; font-size: 12px; fill: rgb(42, 63, 95); fill-opacity: 1; white-space: pre; opacity: 1;" transform="translate(778.98,0)">Jul 2014</text></g><g class="xtick"><text text-anchor="middle" x="0" y="433" style="font-family: 'Open Sans', verdana, arial, sans-serif; font-size: 12px; fill: rgb(42, 63, 95); fill-opacity: 1; white-space: pre; opacity: 1;" transform="translate(920,0)">Jan 2015</text></g></g><g class="yaxislayer-above"><g class="ytick"><text text-anchor="end" x="79" y="4.199999999999999" transform="translate(0,381.63)" style="font-family: 'Open Sans', verdana, arial, sans-serif; font-size: 12px; fill: rgb(42, 63, 95); fill-opacity: 1; white-space: pre; opacity: 1;">5</text></g><g class="ytick"><text text-anchor="end" x="79" y="4.199999999999999" style="font-family: 'Open Sans', verdana, arial, sans-serif; font-size: 12px; fill: rgb(42, 63, 95); fill-opacity: 1; white-space: pre; opacity: 1;" transform="translate(0,328.66999999999996)">10</text></g><g class="ytick"><text text-anchor="end" x="79" y="4.199999999999999" style="font-family: 'Open Sans', verdana, arial, sans-serif; font-size: 12px; fill: rgb(42, 63, 95); fill-opacity: 1; white-space: pre; opacity: 1;" transform="translate(0,275.72)">15</text></g><g class="ytick"><text text-anchor="end" x="79" y="4.199999999999999" style="font-family: 'Open Sans', verdana, arial, sans-serif; font-size: 12px; fill: rgb(42, 63, 95); fill-opacity: 1; white-space: pre; opacity: 1;" transform="translate(0,222.76999999999998)">20</text></g><g class="ytick"><text text-anchor="end" x="79" y="4.199999999999999" style="font-family: 'Open Sans', verdana, arial, sans-serif; font-size: 12px; fill: rgb(42, 63, 95); fill-opacity: 1; white-space: pre; opacity: 1;" transform="translate(0,169.81)">25</text></g><g class="ytick"><text text-anchor="end" x="79" y="4.199999999999999" style="font-family: 'Open Sans', verdana, arial, sans-serif; font-size: 12px; fill: rgb(42, 63, 95); fill-opacity: 1; white-space: pre; opacity: 1;" transform="translate(0,116.86)">30</text></g></g><g class="overaxes-above"/></g></g><g class="polarlayer"/><g class="smithlayer"/><g class="ternarylayer"/><g class="geolayer"/><g class="funnelarealayer"/><g class="pielayer"/><g class="iciclelayer"/><g class="treemaplayer"/><g class="sunburstlayer"/><g class="glimages"/><defs id="topdefs-0a28cd"><g class="clips"/></defs><g class="layer-above"><g class="imagelayer"/><g class="shapelayer"/></g><g class="infolayer"><g class="g-gtitle"/><g class="g-xtitle"/><g class="g-ytitle"/></g></svg>