<svg class="main-svg" xmlns="http://www.w3.org/2000/svg" xmlns:xlink="http://www.w3.org/1999/xlink" width="1000" height="500" style="" viewBox="0 0 1000 500"><rect x="0" y="0" width="1000" height="500" style="fill: rgb(255, 255, 255); fill-opacity: 1;"/><defs id="defs-f28911"><g class="clips"><clipPath id="clipf28911xyplot" class="plotclip"><rect width="840" height="320"/></clipPath><clipPath class="axesclip" id="clipf28911x"><rect x="80" y="0" width="840" height="500"/></clipPath><clipPath class="axesclip" id="clipf28911y"><rect x="0" y="100" width="1000" height="320"/></clipPath><clipPath class="axesclip" id="clipf28911xy"><rect x="80" y="100" width="840" height="320"/></clipPath></g><g class="gradients"/><g class="patterns"/></defs><g class="bglayer"><rect class="bg" x="80" y="100" width="840" height="320" style="fill: rgb(229, 236, 246); fill-opacity: 1; stroke-width: 0;"/></g><g class="layer-below"><g class="imagelayer"/><g class="shapelayer"/></g><g class="cartesianlayer"><g class="subplot xy"><g class="layer-subplot"><g class="shapelayer"/><g class="imagelayer"/></g><g class="minor-gridlayer"><g class="x"/><g class="y"/></g><g class="gridlayer"><g class="x"><path class="xgrid crisp" transform="translate(246.95,0)" d="M0,100v320" style="stroke: rgb(255, 255, 255); stroke-opacity: 1; stroke-width: 1px;"/><path class="xgrid crisp" transform="translate(455.61,0)" d="M0,100v320" style="stroke: rgb(255, 255, 255); stroke-opacity: 1; stroke-width: 1px;"/><path class="xgrid crisp" transform="translate(664.26,0)" d="M0,100v320" style="stroke: rgb(255, 255, 255); stroke-opacity: 1; stroke-width: 1px;"/><path class="xgrid crisp" transform="translate(872.92,0)" d="M0,100v320" style="stroke: rgb(255, 255, 255); stroke-opacity: 1; stroke-width: 1px;"/></g><g class="y"><path class="ygrid crisp" transform="translate(0,321.63)" d="M80,0h840" style="stroke: rgb(255, 255, 255); stroke-opacity: 1; stroke-width: 1px;"/><path class="ygrid crisp" transform="translate(0,239.27)" d="M80,0h840" style="stroke: rgb(255, 255, 255); stroke-opacity: 1; stroke-width: 1px;"/><path class="ygrid crisp" transform="translate(0,156.9)" d="M80,0h840" style="stroke: rgb(255, 255, 255); stroke-opacity: 1; stroke-width: 1px;"/></g></g><g class="zerolinelayer"><path class="yzl zl crisp" transform="translate(0,404)" d="M80,0h840" style="stroke: rgb(255, 255, 255); stroke-opacity: 1; stroke-width: 2px;"/></g><path class="xlines-below"/><path class="ylines-below"/><g class="overlines-below"/><g class="xaxislayer-below"/><g class="yaxislayer-below"/><g class="overaxes-below"/><g class="plot" transform="translate(80,100)" clip-path="url(#clipf28911xyplot)"><g class="scatterlayer mlayer"><g class="trace scatter trace910795" style="stroke-miterlimit: 2; opacity: 1;"><g class="fills"/><g class="errorbars"/><g class="lines"><path class="js-line" d="M6.51,295.36L8.11,294.82L8.23,294.17L9.03,294.64L9.14,294.56L9.26,294.61L11.2,294.42L11.31,294L12.11,291.42L12.46,292.17L12.57,292.39L13.03,288.55L13.14,287.45L14.17,282.83L14.28,283.31L15.31,281.16L15.43,281.19L16,278.04L16.34,279.58L16.45,279.94L17.03,279.23L17.14,278.64L17.25,278.86L17.6,277.95L17.71,277.14L17.83,276.85L17.94,277.99L18.05,281.31L18.28,279.48L18.85,279.98L18.97,279.98L19.88,280.26L20,280.88L20.57,270.13L20.91,270.88L21.03,269.74L22.17,280.68" style="vector-effect: non-scaling-stroke; fill: none; stroke: rgb(255, 0, 0); stroke-opacity: 1; stroke-width: 2px; opacity: 1;"/><path class="js-line" d="M23.31,280.83L23.65,280.09L24.68,285.65L24.8,291.4L25.03,291.49L25.14,291.19L25.25,290.31L25.48,291.81L25.71,288.89L25.83,289.1L25.94,289.11L26.05,288.65L26.4,289.62L26.51,289.04L26.62,291.52L26.74,288.89L27.31,292.83L27.42,291.22L27.54,290.89L27.65,293.5L28.57,294.87L28.68,294.88L31.42,294.95L31.54,293.84L31.88,292.41L32.11,294.59L32.22,294.19L32.34,294.85L33.02,295.21L33.25,295.01L33.37,294.52L33.6,294.34L33.94,294.86L34.05,294.99L35.08,295.33L35.2,295.15L36.11,295.33L36.22,295.22L36.45,294.23L36.91,294.91L37.02,295.15L37.48,295.29" style="vector-effect: non-scaling-stroke; fill: none; stroke: rgb(255, 0, 0); stroke-opacity: 1; stroke-width: 2px; opacity: 1;"/><path class="js-line" d="M41.25,295.55L41.48,297.5L41.71,296.32L41.82,296.39L42.17,295.2L42.62,295.72L42.74,296.39L43.31,297.59L43.42,296.25L43.54,295.65L44.45,295.5L44.57,295.5L45.71,295.55L45.82,296.19L45.94,296.43L46.17,295.55L46.28,295.52L46.39,295.48L47.99,295.17L48.11,295.18L49.25,295.08L49.36,295.07L50.28,294.74L50.39,294.76L51.42,293.37L51.54,294.68L52.22,294.12L52.34,292.6L53.02,293.87L53.14,292.01L53.71,292.79L53.94,292.6L54.05,292.6L55.08,292.21L55.19,288.57L56.11,283.55L56.22,284.04L56.56,279.93L57.02,281.21L57.14,282L57.48,282.12L57.59,281.68L57.71,281.07L58.05,277.12L58.16,273.31L58.85,267.15L58.96,269.79L59.08,270.7L59.42,272.14L59.53,273.46L59.88,272.58L59.99,271.6L60.68,272.14L60.91,267L61.02,269.3L61.36,262.23L61.93,264.89L62.05,264.68L62.73,263.01L62.96,263.73L63.08,264.4L63.31,265.18L63.42,266.34L63.53,268.67L63.76,264.13L64.11,266.26L64.22,266.26L64.79,269.1L65.02,266.97L65.13,267.68L65.48,266.97L65.59,266.26L65.71,266.97L65.93,264.13L66.05,271.23L66.39,270.52L66.73,271.23L66.85,271.94L67.65,270.52L67.76,271.94L68.56,272.65L68.68,274.07L69.36,280.19L69.59,278.09L69.7,278.09L70.5,281.74L70.62,281.52L70.73,277.09L71.53,289.29L71.65,287.06L71.76,282.74L71.88,282.88L71.99,289.39L72.45,283.75L72.56,285.39L72.68,288.18L73.48,291.82L73.59,289.29L73.93,289.29L74.05,287.86L74.96,292.99L75.08,292.21L75.19,292.6L75.76,292.99L75.88,291.43L76.33,292.99L76.45,286.23L77.25,294.36L77.36,293.37L77.93,290.72L78.05,286.23L78.5,292.99L78.73,287.86L78.85,287.86L79.65,292.99L79.76,292.99L80.67,292.99L80.79,292.21L81.13,291.82L81.25,292.21L81.36,292.99L82.16,291.82L82.27,291.82L86.05,291.82L86.16,292.6L86.62,292.21L86.73,291.82L87.19,293.62L87.3,291.43L87.53,292.6L87.65,292.6L88.56,290L88.67,290L89.25,289.29L89.36,288.57L89.59,288.57L89.7,282.64L90.04,276.48L90.62,277.29L90.73,277.29L91.64,269.1L91.76,268.39L92.79,267.68L92.9,271.23L93.24,271.23L93.36,269.81L94.39,269.1L94.5,264.13L95.64,261.29L95.76,261.29L96.22,260.58L96.33,259.87L96.79,266.97L97.24,266.26L97.36,264.84L97.82,264.84L97.93,263.42L98.84,263.42L98.96,262.71L99.99,262L100.1,260.58L100.79,259.87L100.9,257.74L101.59,257.74L101.7,255.61L102.39,257.74L102.5,256.32L102.61,256.32L103.64,257.03L103.76,252.06L103.99,252.06L104.1,256.32L105.24,250.64L105.36,253.48L105.59,253.48L105.7,254.9L106.04,254.19L106.39,254.9L106.5,254.9L107.19,254.19L107.3,254.9L108.33,258.45L108.44,257.03L109.01,260.58L109.13,257.03L109.24,257.03L110.04,262L110.16,266.97L110.38,266.97L110.5,270.52L111.41,267.68L111.53,272.65L112.44,272.65L112.56,276.48L112.78,276.48L112.9,278.09L113.24,278.09L113.36,279.7L113.58,279.7L113.7,278.09L114.04,279.7L114.16,277.29L114.27,277.29L114.38,277.29L115.18,280.68L115.3,281.17L115.64,282.15L115.76,287.86L115.98,287.86L116.1,291.43L117.13,292.99L117.24,292.99L118.04,293.37L118.16,293.37L118.38,293.37L118.5,294.61L119.64,295.01L119.76,295.08L121.81,295.15L121.93,283.62L122.61,284.11L122.73,281.17L123.64,289.29L123.75,288.57L123.98,288.57L124.1,284.59L124.44,284.59L124.55,294.12L126.04,294.61L126.15,294.95L129.01,295.15L129.13,297.72L130.38,297.59L130.5,295.55L131.64,294.68L131.75,294.88L131.87,294.88L134.38,294.74L134.5,295.01L135.41,294.61L135.52,292.21L135.98,294.12L136.1,283.62L137.01,284.11L137.12,283.13L137.58,283.62L137.81,283.13L137.92,257.74L138.61,291.82L138.84,290.72L138.95,290.72L139.18,290.72L139.3,291.82L139.64,291.82L139.75,275.68L139.98,275.68L140.1,278.09L140.44,277.29L140.55,291.82L141.24,291.82L141.35,290.72L141.58,290.72L141.7,289.29L142.61,291.82L142.72,291.82L143.18,291.43L143.29,294.95L145.69,294.81L145.81,294.81L146.84,294.68L146.95,294.68L147.18,294.68L147.29,293.62L147.64,293.87L147.75,292.99L149.01,292.6L149.12,292.21L149.58,291.43L149.92,291.82L150.04,291.82L150.61,292.21L150.72,294.68L151.18,291.82L151.64,292.21L151.75,292.99L152.21,292.6L152.32,291.82L153.01,291.43L153.12,290L153.58,290.72L153.69,293.62L154.84,295.35L154.95,291.82L155.18,291.82L155.29,293.62L157.01,293.87L157.12,292.6L158.15,293.87L158.26,293.87L159.18,293.62L159.29,292.99L161.24,292.99L161.35,291.82L161.58,291.82L161.69,292.99L162.04,292.99L162.15,292.21L163.18,292.21L163.29,283.62L163.63,282.15L163.98,283.62L164.09,283.62L164.43,292.99L164.55,266.26L164.78,266.26L164.89,291.43L165.58,291.82L165.69,292.21L166.38,292.21L166.49,292.99L168.21,292.6L168.32,292.21L169.01,292.6L169.12,291.82L169.58,292.6L169.69,266.26L170.61,292.99L170.72,293.87L171.18,294.12L171.41,293.62L171.52,293.62L174.6,293.87L174.72,293.37L175.18,293.37L175.29,292.6L176.2,292.21L176.32,284.59L176.78,284.59L176.89,292.21L177.23,292.21L177.35,290.72L178.03,290.72L178.15,288.57L178.83,288.57L178.95,286.23L179.18,286.23L179.29,284.59L179.63,286.23L179.75,284.11L179.98,284.11L180.09,283.62L181,281.66L181.12,283.13L182.6,275.68L182.72,278.9L184.77,264.84L184.89,268.39L185.57,267.68L185.69,266.26L186.03,266.97L186.15,269.81L186.37,269.81L186.49,266.97L187.17,266.97L187.29,269.81L187.63,274.87L187.97,269.81L188.09,270.52L188.43,270.52L188.55,271.94L189.23,271.94L189.35,272.65L189.57,272.65L189.69,277.29L190.83,284.59L190.95,294.12L191.4,293.62L191.52,294.74L192.43,294.95L192.55,295.48L192.77,295.48L192.89,297.89L193.92,299.7L194.03,299.7L194.37,299.7L194.49,297.89" style="vector-effect: non-scaling-stroke; fill: none; stroke: rgb(255, 0, 0); stroke-opacity: 1; stroke-width: 2px; opacity: 1;"/><path class="js-line" d="M291.96,302.06L294.25,301.94L294.36,301.94L295.73,301.65L295.85,301.13L296.42,301.96L296.65,301.89L296.76,301.75L298.93,301.85L299.05,301.84L302.47,302.02L302.59,303.27L303.39,302.64L303.5,302.49L304.19,302.47L304.3,300.78L305.1,302.67L305.22,302.18L305.79,301.23L306.02,301.37L306.13,301.37L306.59,302.05L306.7,302.89L307.5,303.01L307.62,302.39L307.84,300.83L307.96,298.42L308.42,302.47L308.53,302.25L308.64,293.82L310.24,304L310.36,304L311.16,304L311.27,301.35L311.73,284.03L312.19,285.3L312.3,292.8L312.76,293.88L312.87,296.5L314.01,297.98L314.13,295.06L314.24,289.26L314.59,298.32L314.81,297.41L314.93,296.89L315.96,292.07L316.07,292.95L316.19,294.73L316.64,296.26L316.76,293.83L316.87,291.2L317.67,289.44L317.79,289.95L317.9,290.21L318.36,288.85L318.47,289.38L318.59,290.02L318.7,290.78L318.93,287.47L319.04,287.81L319.61,293.96L320.07,293.36L320.19,291.71L320.53,292.14L320.76,290.51L320.87,292.38L321.44,288.92L321.56,290.96L321.67,292.39L322.81,286.51L323.27,286.72L323.38,287.16L323.5,288.61L323.73,283.83L323.84,283.46L324.3,281.31L324.53,282.29L324.64,283.12L326.7,302.57L326.81,298.46L326.93,296.09L327.04,288.16L327.16,296.36L327.73,289.08L327.84,289.08L328.64,289.65L328.76,295.27L329.67,301.65L329.78,301.69L330.36,300.25L330.58,300.32L330.7,300.29L332.3,300.27L332.41,299.39L333.21,298.53L333.33,298.53L334.35,301.63L334.47,301.58L336.3,301.57L336.41,298.19L337.67,291.97L337.78,292.09L338.47,292.82L338.58,295.46L339.5,298.53L339.61,298.53L340.07,298.96L340.18,299.42L342.35,299.46L342.47,296.54L343.15,294.27L343.27,298.21L343.38,300.25L343.95,298.35L344.07,297.12L344.75,297.13L344.87,294.71L345.32,267.53L345.55,292.33L345.67,291.85L345.9,284.12L346.01,272.36L346.92,290.19L347.04,277.93L347.38,290L347.95,289.86L348.07,289.92L350.12,290L350.24,294.52L350.47,297.21L351.04,297.09L351.15,297.21L352.75,296.92L352.87,295.82L353.55,294.71L353.67,295.12L353.78,296.78L354.35,296.15L354.47,295.13L354.58,294.91L354.92,295.69L355.04,296.75L355.27,296.74L355.38,292.45L356.07,289.01L356.18,290.08L356.29,290.76L356.64,290.76L356.75,289.83L358.47,297.62L358.58,297.53L359.15,299.31L359.27,300.52L360.18,297.84L360.29,297.85L363.15,298.45L363.26,300.01L363.38,300.86L363.72,299.47L363.84,299.47L363.95,299.47L365.55,299.52L365.66,299.25L365.89,298.19L366.46,298.36L366.58,298.32L366.81,297.7L366.92,298.46L367.04,299.21L368.06,301.68L368.18,301.65L371.04,301.54L371.15,301.03L371.49,299.94L371.95,300.32L372.06,300.43L372.86,301.2L373.21,300.64L373.32,300.62L373.78,301.09L373.89,301.87L381.09,301.99L381.21,301.72L382.46,301.89L382.58,301.67L383.03,301.53L383.15,301.13L383.26,301.97L384.18,301.48L384.29,291.21L384.52,289.42L384.63,287.38L385.09,273.69L385.32,280.71L385.43,285.07L386.35,294.42L386.46,294.39L386.58,294.39L387.03,296.92L387.38,295.29L387.49,294.57L387.83,294.56L387.95,295.42L388.63,296.05L388.75,295.26L388.86,295.99L388.98,295.97L389.09,291.72L389.55,286.37L389.66,268.91L389.78,252.93L390.23,290.02L390.35,290.03L390.69,274.91L391.03,290.04L391.15,290.04L392.06,290.07L392.18,297.24L392.75,295.19L392.86,297.48L392.98,298.66L393.32,298.66L393.43,296.62L394.23,286.37L394.35,260.02L394.46,229.38L395.03,276.49L395.15,283.9L396.06,289.86L396.17,289.84L396.52,289.86L396.63,289.75L396.75,295.86L397.43,295.89L397.55,297.71L398.23,298.82L398.35,298.55L398.46,298.79L398.92,296.87L399.03,295.83L399.49,295.89L399.6,296.85L400.86,300.52L400.97,299.28L401.77,298.75L401.89,298.71L404.17,298.69L404.29,299.94L404.4,300.52L404.63,298.64L404.74,298.64L404.86,298.68L405.66,297.47L405.77,298.07L405.89,299.51L406.69,300.39L406.8,300.39L407.37,299.78L407.49,299.51L407.72,297.59L407.83,290.26L408.74,298.65L408.86,298.66L413.2,298.84L413.32,299.41L415.03,299.5L415.14,300.02L416.17,299.45L416.29,299.29L416.74,299.31L416.86,300.12L417.66,300.65L417.77,300.63L418.8,300.64L418.91,299.35L419.71,298.65L419.83,298.65L420.29,299.06L420.4,298.61L420.74,298.5L420.86,299.41L421.77,300.12L421.89,300.61L424.63,299.95L424.74,299.34L425.09,299.81L425.43,299.15L425.54,299.81L425.77,284.63L426.23,296.29L426.34,296.42L426.57,299.73L426.68,294.94L426.91,294.94L427.03,294.95L427.94,295.03L428.06,289.34L428.17,286.92L428.63,291.3L428.74,291.35L429.08,291.36L429.2,292.65L430.91,298.73L431.03,298.75L432.17,298.75L432.28,298L432.51,283.78L432.63,245.6L433.31,287.36L433.43,287.27L433.54,288.32L433.77,293.4L434.34,293.27L434.46,293.27L434.8,293.09L434.91,292.23L435.03,292.1L435.14,290.83L435.71,269.44L436.28,271.61L436.4,271.8L437.43,287.53L437.54,287.25L437.77,287.26L437.88,290.11L439.14,295.72L439.25,295.7L440.4,296.24L440.51,296.63L440.97,297.1L441.08,298.1L441.2,298.21L441.31,295.01L441.88,299.87L442.23,298.13L442.34,298.17L443.37,296.45L443.48,296.36L444.05,295.96L444.17,295.69L444.97,294.76L445.08,294.92L445.2,294.97L447.14,294.77L447.25,295.34L448.17,297.7L448.28,298.1L449.65,297.84L449.77,297.33L449.88,296.57L450.11,297.87L450.45,297.83L450.57,297.86L452.28,299.89L452.4,301.24L452.51,300.59L452.85,301.76L452.97,301.77L453.08,301.8L453.77,300.24L454.11,300.76L454.22,300.8L459.59,300.94L459.71,300.97L460.28,301.4L460.39,301.73L461.99,301.79L462.11,300.44L462.79,299.97L462.91,297.96L463.71,298.48L463.82,298.48L464.39,298.62L464.51,299.44L467.25,299.17L467.36,298.59L468.16,298.63L468.28,299.67L468.85,300.55L468.96,300.35L469.08,299.31L469.54,299.65L469.65,300.76L470.45,301.57L470.56,301.65L471.36,302.06L471.48,302.04L472.62,301.83L472.74,301.17L472.85,301.28L472.96,292.78L473.19,287.16" style="vector-effect: non-scaling-stroke; fill: none; stroke: rgb(255, 0, 0); stroke-opacity: 1; stroke-width: 2px; opacity: 1;"/><path class="js-line" d="M504.96,301.77L510.56,301.23L510.67,300.61L511.36,301.38L511.59,301.22L511.7,301.2L513.99,301.41L514.1,300.7L514.44,292.72L514.56,288.25L515.02,290.21L515.13,287.81L515.24,279.75L515.59,281.72L515.7,285.77L516.04,286.21L516.16,285.95L516.27,264.04L516.5,241.37L516.62,226.99L517.53,278.37L517.64,280.17L518.44,292.99L518.56,292.98L518.67,289.35L518.9,277.31L519.36,289.05L519.47,289.05L519.81,289.1L519.93,291.13L521.07,298.63L521.19,298.62L522.33,298.97L522.44,299.54L523.01,299.37L523.13,298.3L523.93,278.94L524.04,254.91L524.16,232.54L524.61,281.62L524.73,282.63L525.07,283.29L525.19,286.93L526.33,297.11L526.44,297.05L527.13,297.44L527.24,297.81L527.59,296.24L527.7,294.92L528.84,296.78L528.96,296.77L529.76,296.67L529.87,297.67L530.78,299.37L530.9,299.27L531.93,297.56L532.04,297.58L532.61,297.53L532.73,295.58L532.96,294.92L533.53,295.09L533.64,295.09L534.67,296.83L534.78,296.85L535.36,297.08L535.47,297.61L535.81,298.61L536.38,298.38L536.5,298.58L537.53,298.48L537.64,300.59L538.56,299.63L538.67,299.63L540.95,299.22L541.07,298.46L541.98,299.55L542.1,299.54L543.35,299.68L543.47,300.36L544.15,300.34L544.27,299.59L545.07,300.31L545.18,300.31L546.55,300.29L546.67,301.05L547.47,300.89L547.58,301.38L548.38,301.96L548.5,301.97L551.24,301.81L551.35,300.95L555.24,300.71L555.35,299.88L556.27,301.07L556.38,301.03L557.41,300.39L557.52,300.19L557.98,300.36L558.44,298.33L558.55,298.35L559.12,298.28L559.24,299.22L559.81,300.43L560.04,299.73L560.15,299.19L561.3,296.18L561.41,296.57L561.87,296.62L561.98,297.48L562.55,297.89L562.67,299.8L562.89,300.41L563.12,298.79L563.24,298.14L564.72,291.33L564.84,282.14L564.95,262.34L565.18,294.91L565.41,294.89L565.52,294.91L565.98,294.43L566.09,293.8L566.32,294.54L566.44,296.26L566.55,298.17L566.89,295.62L567.12,295.8L567.24,295.78L567.35,295.04L567.69,297.71L567.81,297.84L569.29,295.62L569.41,296.88L570.67,298.14L570.78,298.23L571.12,298.42L571.24,299.29L571.81,300.1L571.92,300.59L572.38,301.84L572.72,301.5L572.84,299.96L574.32,299.62L574.44,298.13L575.24,301.97L575.35,298.2L575.69,296.27L575.81,302.09L576.38,296.21L576.61,296.23L576.72,296.8L577.64,299.93L577.75,299.95L578.32,300.19L578.44,301.21L578.66,301.21L578.78,301.99L579.35,302.11L579.58,300.38L579.69,301.69L579.92,297.9L580.38,299.53L580.49,243.1L580.61,146.99L581.18,274.66L581.29,274.77L581.52,275.44L581.64,272.35L582.21,301.99L582.66,300.15L582.78,302.11L583.58,300.15L583.69,300.15L585.63,300.82L585.75,301.76L586.32,301.86L586.43,300.72L586.55,300.84L586.66,301.5L587.01,300.51L587.46,300.85L587.58,300.87L589.75,300.85L589.86,301.86L590.66,300.82L590.78,300.82L591.35,300.36L591.46,299.67L592.26,300.34L592.38,300.34L592.49,301.23L592.61,300L593.06,300.31L593.18,300.33L594.32,300.36L594.43,300.34L596.03,300.36L596.15,299.82L596.38,299.21L596.72,299.9L596.83,300.31L597.4,300.47L597.63,300.23L597.75,300.18L597.98,300.82L598.32,300.36L598.43,299.67L599.23,300.34L599.35,300.34L599.46,301.23L599.58,300L600.03,300.31L600.15,300.33L601.29,300.36L601.4,300.34L602.2,294.49L602.32,294.48L602.43,293.77L602.66,296.06L602.78,296.67L603,297.25L603.23,296.27L603.46,296.36L603.58,296.36L604.72,296.01L604.83,295.73L606.09,295.07L606.2,294.69L606.66,294.31L606.77,293.79L607.35,294.03L607.46,293.24L607.8,293.39L607.92,292.53L608.03,292.34L608.15,293.69L608.83,297.06L609.06,296.47L609.17,296.39L609.75,296.64L609.86,297.03L610.32,297.46L610.43,298.4L612.26,294.86L612.37,295.3L612.83,296.54L613.06,295.57L613.17,295.5L613.97,296.46L614.09,296.47L615,296.29L615.12,297.49L616.26,300.13L616.37,300.15L619.12,299.83L619.23,295.29L619.8,301.2L620.03,299.98L620.14,300.31L620.72,300.95L620.83,300.16L620.94,300.11L621.74,299.16L621.86,299.54L622.54,300.24L622.66,300.11L622.77,299.62L623.12,297.99L623.23,297.33L624.37,298.35L624.49,298.32L625.63,298.3L625.74,299.09L626.54,299.65L626.66,299.68L627.11,299.14L627.23,297.92L628.94,297.92L629.06,297.92L630.09,299.67L630.2,299.68L630.66,299.16L630.77,297.9L632.6,297.94L632.71,298.5L633.06,299.39L633.51,299.16L633.63,299.16L634.66,298.12L634.77,298.25L634.89,298.51L635.91,299.73L636.03,299.44L636.48,299.63L636.6,298.5L637.17,299.75L637.4,299.62L637.51,298.66L638.2,298.74L638.31,299.7L639.46,299.73L639.57,300L640.14,300.57L640.37,299.96L640.48,300L640.71,299.75L640.83,298.46L641.06,299.27L641.17,297.06L641.28,290.08L641.63,298.56L641.74,274.35L642.66,296.08L642.77,296.09L643.68,293.49L643.91,293.54L644.03,293.49L645.28,291.48L645.4,293.56L645.63,293.79L645.74,295.52L646.08,293.62L646.2,295.6L646.31,297.97L647.45,292.77L647.57,294.31L647.8,294.74L647.91,293.69L648.03,292.88L649.4,292.77L649.51,294.02L650.2,295.73L650.31,295.58L650.43,294.79L651.11,295.38L651.23,295.78L651.68,294.97L651.91,295.76L652.03,296.11L652.94,296.64L653.05,295.58L653.85,294.56L653.97,294.54L654.77,294.36L654.88,295.19L655.57,299.91L655.91,298.89L656.03,297.03L656.14,297.23L656.37,296.52L656.48,296.24L657.51,297.4L657.62,297.32L658.08,300.75L658.42,299.19L658.54,299.11L659.34,300.93L659.45,300.19L659.57,300.03L661.51,299.67L661.62,300.09L663.11,297.72L663.22,298.05L664.02,300.13L664.14,300.07L664.25,300.1L665.85,300.94L665.97,300.64L666.08,300.05L666.99,300.11L667.11,299.35L667.91,298.44L668.02,298.76L668.82,299.95L668.94,298.9L669.62,298.24L669.74,298.5L669.85,299.13L670.19,298.72L670.31,298.23L670.54,297.59L670.65,298.58L670.77,298.96L671.45,301.55L671.79,300.45L671.91,300.4L672.71,300.53L672.82,298.33L673.74,300.49L673.85,300.18L673.97,300.5L675.34,300.66L675.45,300.17L675.79,286.07L676.14,295.08L676.25,297.25L676.82,300.16L676.94,279.69L677.05,278.05L677.17,292.23L677.39,266.18L677.85,281.13L677.96,276.68L678.08,263.54L678.54,290.72L678.65,290.66L678.99,290.5L679.11,291.6L679.22,290.98L679.91,291.27L680.02,291.3L680.25,290.88L680.59,291.62L680.71,291.84L681.74,294.41L681.85,293.58L682.99,294.09L683.11,294.17L683.68,295.19L683.91,295.03L684.02,295.3L685.05,295.12L685.16,294.28L685.51,294.41L685.62,294.02L685.74,296.2L686.31,298.11L686.42,296.4L686.54,294.43L686.76,295.45L687.45,295.22L687.56,295.27L689.05,297.3L689.16,297.32L690.53,297.25L690.65,296.54L692.13,296.88L692.25,296.52L693.05,296.07L693.16,296.12L693.85,298.84L693.96,297.24L694.42,294.35L694.65,296.5L694.76,297.9L696.82,297.77L696.93,296.81L697.05,296.11L697.39,298.32L697.51,298.23L697.85,298.4L697.96,297.69L698.08,297.32L698.3,297.32L698.42,296.5L699.22,298.71L699.33,298.42L699.79,297.41L700.02,298.03L700.13,298.23L701.05,299.94L701.16,301.23L701.73,300.44L701.85,300.12L703.1,300.01L703.22,300.36L703.33,300.51L704.25,299.89L704.36,299.89L705.73,299.62L705.85,298.66L706.65,300.8L706.76,300.78L706.88,300.79L707.56,300.69L707.68,299.78L710.3,300.53L710.42,301.39L711.79,301.75L711.9,300.88L712.02,299.96L712.47,301.49L712.59,301.62L713.16,302.06L713.27,302.72L713.5,300L713.62,301.23L713.73,301.96L714.76,302.56L714.87,302.52L716.13,302.27L716.25,300.11L716.36,296.74L716.93,301.62L717.05,301.78L718.76,302.59L718.87,302.41L718.99,302.3L719.67,302.43L719.79,302.47L720.82,302.43L720.93,292.27L721.39,229.12L721.84,254.32L721.96,256.61L722.19,257.24L722.3,268.58L722.42,269.64L722.64,268L722.76,268.04L722.87,248.47L722.99,246.12L723.1,257.03L723.22,262.14L723.9,282.04L724.13,278.8L724.24,278.85L724.36,278.99L724.47,274.42L724.59,210.2L725.16,276.69L725.27,275.57L725.73,275.04L725.84,272.54L726.3,278.98L726.42,269.37L726.53,235.31L726.64,221.25L727.1,252.83L727.22,255.98L727.44,243.68L727.67,254.9L727.79,263.68L728.93,292.02L729.04,292.08L729.84,291.41L729.96,292.04L730.07,292.1L732.13,292.52L732.24,291.62L733.39,295.6L733.5,295.53L733.96,298.11L734.41,296.82L734.53,296.41L735.1,269.89L735.21,262.12L735.44,288.77L735.79,246.05L736.01,272.46L736.13,283.83L737.04,292.8L737.16,292.52L737.96,292.13L738.07,291.72L738.41,291.89L738.53,291.59L738.64,290.71L739.21,289.03L739.33,289.84L739.44,291.43L741.04,299.45L741.16,299.47L741.61,299.37L741.73,297.52L742.18,286.73L742.3,127.6L743.44,288.5L743.56,288.55L743.78,288.15L743.9,282.87L744.13,232.53L744.24,181.65L744.7,263.19L745.27,253.69L745.38,253.65L745.84,282.34L746.3,272.12L746.41,271.3L747.78,287.76L747.9,288.96L749.04,295.15L749.16,295.14L750.98,300.58L751.1,300.6L751.55,301.29L751.67,301.4L753.73,301.71L753.84,301.35L754.64,301.88L754.75,301.62L754.98,301.49L755.55,302.14L755.67,301.88L755.78,301.79L756.81,302.2L756.93,302.26L757.04,300.96L757.5,302.31L757.61,302.25L757.73,302.29L758.75,301.21L758.87,300.26L760.24,299.94L760.35,299.37L762.07,299.26L762.18,300.4L762.87,301.48L763.1,301.35L763.21,301.37L764.92,301.5L765.04,301.03L765.84,273.94L766.07,288.34L766.18,288.21L766.41,287.93L766.52,286.08L767.44,286.14L767.55,286.07L767.78,286.13L767.9,289.81L768.7,301.86L768.81,301.44L768.92,300.99L769.72,298.39L769.84,269.25L770.3,298.86L770.75,297.86L770.87,297.94L771.55,297.72L771.67,284.63L772.47,298.3L772.58,298.32L772.92,299.93L773.04,299.32L773.15,298.02L775.67,298.13L775.78,297.35L776.92,297.54L777.04,297.52L779.55,298.09L779.67,299.28L780.92,299.41L781.04,298.16L781.38,297.34L781.72,298.25L781.84,298.42L782.29,298L782.41,297.13L782.52,295.78L783.09,296.76L783.21,297.44L784.12,297.93L784.24,298.29L784.81,299.49L784.92,300.17L785.49,302.04L785.84,301.91L785.95,301.9L787.78,298.73L788.12,299.18L788.24,299.25L789.38,301.16L789.49,300.85L789.95,301.7L790.06,301.83L790.98,302.24L791.21,301.92L791.32,301.79L791.44,301.99L791.55,299.12L792.69,301.77L792.81,301.79L794.75,301.99L794.86,301.53L795.21,298.04L795.32,255.5L795.43,16L796.01,262.98L796.12,265.68L796.69,274.32L797.03,273.41L797.15,273.79L797.26,274.04L797.38,280.15L797.72,292.18L798.29,289.29L798.41,289.31L798.98,289.34L799.09,292.17L799.21,294.57L799.32,289.28L799.89,293.36L800.01,293.43L800.69,293.66L800.81,293.39L800.92,292.51L801.38,286.13L801.49,283.54L801.83,283.69L801.95,285.77L802.86,293.77L802.98,293.19L803.09,292.52L803.32,292.4L803.43,294.55L803.78,295.71L804,294.11L804.12,294.59L804.23,293.23L805.15,285.51L805.26,278L805.49,278.3L805.6,277.03L805.72,276.91L806.29,288.38L806.4,285.88L806.52,277.19L807.09,286.35L807.43,283.15L807.55,284.48L807.66,286.24L807.78,280.76L807.89,247.59L808,221.22L808.46,249.2L808.58,249.02L808.69,255.46L809.83,288.48L809.95,288.47L810.18,290.94L810.4,290.42L810.52,286.06L811.09,214.86L811.32,249.69L811.43,264.38L811.55,264.71L811.66,258.52L812.23,261.99L812.35,269.93L813.15,289.2L813.38,288.99L813.49,289.13L814.17,290.04L814.29,291.08L814.97,295.74L815.2,293.94L815.32,292.52L815.43,289.13L816,292.91L816.12,293.96L817.37,298.63L817.49,298.67L818.29,298.23L818.4,297.91L818.52,297.77L818.63,298.36L818.75,298.7L819.32,299.08L819.43,299.49L819.89,299.04L820,298.69L820.23,296.29L820.35,282.86L820.46,282.34L820.57,294.88L821.49,300.09L821.6,300.15L822.63,299.72L822.75,299.53L822.97,299.46L823.09,296.9L824,299.99L824.23,299.37L824.34,298.79L825.14,298.48L825.26,298.47L825.72,298.47L825.83,297.23L826.52,300.48L826.63,299.99L826.74,299.51L827.2,298.93L827.32,298.21L827.43,296.83L827.89,298.71L828,298.66L828.12,298.93L828.23,299.37L828.34,298.24L828.46,295.65L828.8,300.44L829.26,298.53L829.37,298.12L830.17,297.5L830.29,297.52L830.52,297.52L830.63,273.37L830.74,298.19L831.43,298.08L831.54,298.55L831.89,299.2L832,301.03L832.8,301.24L832.92,300.96L833.72,300.59L833.83,300.59L834.17,300.57L834.29,299.59L834.86,298.54L834.97,298.96L835.09,299.5L836.23,301.29L836.34,300.89L837.26,299.98L837.37,300.1L839.89,301.13L840,300.82" style="vector-effect: non-scaling-stroke; fill: none; stroke: rgb(255, 0, 0); stroke-opacity: 1; stroke-width: 2px; opacity: 1;"/></g><g class="points"/><g class="text"/></g><g class="trace scatter trace32abf2" style="stroke-miterlimit: 2; opacity: 1;"><g class="fills"/><g class="errorbars"/><g class="lines"><path class="js-line" d="M291.96,302.06L294.25,301.94L294.36,301.94L295.73,301.65L295.85,301.13L296.42,301.96L296.65,301.89L296.76,301.75L298.93,301.85L299.05,301.84L302.47,302.02L302.59,303.27L303.39,302.64L303.5,302.49L304.19,302.47L304.3,300.78L305.1,302.67L305.22,302.18L305.79,301.23L306.02,301.37L306.13,301.37L306.59,302.05L306.7,302.89L307.5,303.01L307.62,302.39L307.84,300.83L307.96,298.42L308.42,302.47L308.53,302.25L308.64,293.82L310.24,304L310.36,304L311.16,304L311.27,301.35L311.73,284.03L312.19,285.3L312.3,292.8L312.76,293.88L312.87,296.5L314.01,297.98L314.13,295.06L314.24,289.26L314.59,298.32L314.81,297.41L314.93,296.89L315.96,292.07L316.07,292.95L316.19,294.73L316.64,296.26L316.76,293.83L316.87,291.2L317.67,289.44L317.79,289.95L317.9,290.21L318.36,288.85L318.47,289.38L318.59,290.02L318.7,290.78L318.93,287.47L319.04,287.81L319.61,293.96L320.07,293.36L320.19,291.71L320.53,292.14L320.76,290.51L320.87,292.38L321.44,288.92L321.56,290.96L321.67,292.39L322.81,286.51L323.27,286.72L323.38,287.16L323.5,288.61L323.73,283.83L323.84,283.46L324.3,281.31L324.53,282.29L324.64,283.12L326.7,302.57L326.81,298.46L326.93,296.09L327.04,288.16L327.16,296.36L327.73,289.08L327.84,289.08L328.64,289.65L328.76,295.27L329.67,301.65L329.78,301.69L330.36,300.25L330.58,300.32L330.7,300.29L332.3,300.27L332.41,299.39L333.21,298.53L333.33,298.53L334.35,301.63L334.47,301.58L336.3,301.57L336.41,298.19L337.67,291.97L337.78,292.09L338.47,292.82L338.58,295.46L339.5,298.53L339.61,298.53L340.07,298.96L340.18,299.42L342.35,299.46L342.47,296.54L343.15,294.27L343.27,298.21L343.38,300.25L343.95,298.35L344.07,297.12L344.75,297.13L344.87,294.71L345.32,267.53L345.55,292.33L345.67,291.85L345.9,284.12L346.01,272.36L346.92,290.19L347.04,277.93L347.38,290L347.95,289.86L348.07,289.92L350.12,290L350.24,294.52L350.47,297.21L351.04,297.09L351.15,297.21L352.75,296.92L352.87,295.82L353.55,294.71L353.67,295.12L353.78,296.78L354.35,296.15L354.47,295.13L354.58,294.91L354.92,295.69L355.04,296.75L355.27,296.74L355.38,292.45L356.07,289.01L356.18,290.08L356.29,290.76L356.64,290.76L356.75,289.83L358.47,297.62L358.58,297.53L359.15,299.31L359.27,300.52L360.18,297.84L360.29,297.85L363.15,298.45L363.26,300.01L363.38,300.86L363.72,299.47L363.84,299.47L363.95,299.47L365.55,299.52L365.66,299.25L365.89,298.19L366.46,298.36L366.58,298.32L366.81,297.7L366.92,298.46L367.04,299.21L368.06,301.68L368.18,301.65L371.04,301.54L371.15,301.03L371.49,299.94L371.95,300.32L372.06,300.43L372.86,301.2L373.21,300.64L373.32,300.62L373.78,301.09L373.89,301.87L381.09,301.99L381.21,301.72L382.46,301.89L382.58,301.67L383.03,301.53L383.15,301.13L383.26,301.97L384.18,301.48L384.29,291.21L384.52,289.42L384.63,287.38L385.09,273.69L385.32,280.71L385.43,285.07L386.35,294.42L386.46,294.39L386.58,294.39L387.03,296.92L387.38,295.29L387.49,294.57L387.83,294.56L387.95,295.42L388.63,296.05L388.75,295.26L388.86,295.99L388.98,295.97L389.09,291.72L389.55,286.37L389.66,268.91L389.78,252.93L390.23,290.02L390.35,290.03L390.69,274.91L391.03,290.04L391.15,290.04L392.06,290.07L392.18,297.24L392.75,295.19L392.86,297.48L392.98,298.66L393.32,298.66L393.43,296.62L394.23,286.37L394.35,260.02L394.46,229.38L395.03,276.49L395.15,283.9L396.06,289.86L396.17,289.84L396.52,289.86L396.63,289.75L396.75,295.86L397.43,295.89L397.55,297.71L398.23,298.82L398.35,298.55L398.46,298.79L398.92,296.87L399.03,295.83L399.49,295.89L399.6,296.85L400.86,300.52L400.97,299.28L401.77,298.75L401.89,298.71L404.17,298.69L404.29,299.94L404.4,300.52L404.63,298.64L404.74,298.64L404.86,298.68L405.66,297.47L405.77,298.07L405.89,299.51L406.69,300.39L406.8,300.39L407.37,299.78L407.49,299.51L407.72,297.59L407.83,290.26L408.74,298.65L408.86,298.66L413.2,298.84L413.32,299.41L415.03,299.5L415.14,300.02L416.17,299.45L416.29,299.29L416.74,299.31L416.86,300.12L417.66,300.65L417.77,300.63L418.8,300.64L418.91,299.35L419.71,298.65L419.83,298.65L420.29,299.06L420.4,298.61L420.74,298.5L420.86,299.41L421.77,300.12L421.89,300.61L424.63,299.95L424.74,299.34L425.09,299.81L425.43,299.15L425.54,299.81L425.77,284.63L426.23,296.29L426.34,296.42L426.57,299.73L426.68,294.94L426.91,294.94L427.03,294.95L427.94,295.03L428.06,289.34L428.17,286.92L428.63,291.3L428.74,291.35L429.08,291.36L429.2,292.65L430.91,298.73L431.03,298.75L432.17,298.75L432.28,298L432.51,283.78L432.63,245.6L433.31,287.36L433.43,287.27L433.54,288.32L433.77,293.4L434.34,293.27L434.46,293.27L434.8,293.09L434.91,292.23L435.03,292.1L435.14,290.83L435.71,269.44L436.28,271.61L436.4,271.8L437.43,287.53L437.54,287.25L437.77,287.26L437.88,290.11L439.14,295.72L439.25,295.7L440.4,296.24L440.51,296.63L440.97,297.1L441.08,298.1L441.2,298.21L441.31,295.01L441.88,299.87L442.23,298.13L442.34,298.17L443.37,296.45L443.48,296.36L444.05,295.96L444.17,295.69L444.97,294.76L445.08,294.92L445.2,294.97L447.14,294.77L447.25,295.34L448.17,297.7L448.28,298.1L449.65,297.84L449.77,297.33L449.88,296.57L450.11,297.87L450.45,297.83L450.57,297.86L452.28,299.89L452.4,301.24L452.51,300.59L452.85,301.76L452.97,301.77L453.08,301.8L453.77,300.24L454.11,300.76L454.22,300.8L459.59,300.94L459.71,300.97L460.28,301.4L460.39,301.73L461.99,301.79L462.11,300.44L462.79,299.97L462.91,297.96L463.71,298.48L463.82,298.48L464.39,298.62L464.51,299.44L467.25,299.17L467.36,298.59L468.16,298.63L468.28,299.67L468.85,300.55L468.96,300.35L469.08,299.31L469.54,299.65L469.65,300.76L470.45,301.57L470.56,301.65L471.36,302.06L471.48,302.04L472.62,301.83L472.74,301.17L472.85,301.28L472.96,292.78L473.19,287.16" style="vector-effect: non-scaling-stroke; fill: none; stroke: rgb(0, 0, 255); stroke-opacity: 1; stroke-width: 2px; opacity: 1;"/><path class="js-line" d="M504.96,301.77L510.56,301.23L510.67,300.61L511.36,301.38L511.59,301.22L511.7,301.2L513.99,301.41L514.1,300.7L514.44,292.72L514.56,288.25L515.02,290.21L515.13,287.81L515.24,279.75L515.59,281.72L515.7,285.77L516.04,286.21L516.16,285.95L516.27,264.04L516.5,241.37L516.62,226.99L517.53,278.37L517.64,280.17L518.44,292.99L518.56,292.98L518.67,289.35L518.9,277.31L519.36,289.05L519.47,289.05L519.81,289.1L519.93,291.13L521.07,298.63L521.19,298.62L522.33,298.97L522.44,299.54L523.01,299.37L523.13,298.3L523.93,278.94L524.04,254.91L524.16,232.54L524.61,281.62L524.73,282.63L525.07,283.29L525.19,286.93L526.33,297.11L526.44,297.05L527.13,297.44L527.24,297.81L527.59,296.24L527.7,294.92L528.84,296.78L528.96,296.77L529.76,296.67L529.87,297.67L530.78,299.37L530.9,299.27L531.93,297.56L532.04,297.58L532.61,297.53L532.73,295.58L532.96,294.92L533.53,295.09L533.64,295.09L534.67,296.83L534.78,296.85L535.36,297.08L535.47,297.61L535.81,298.61L536.38,298.38L536.5,298.58L537.53,298.48L537.64,300.59L538.56,299.63L538.67,299.63L540.95,299.22L541.07,298.46L541.98,299.55L542.1,299.54L543.35,299.68L543.47,300.36L544.15,300.34L544.27,299.59L545.07,300.31L545.18,300.31L546.55,300.29L546.67,301.05L547.47,300.89L547.58,301.38L548.38,301.96L548.5,301.97L551.24,301.81L551.35,300.95L555.24,300.71L555.35,299.88L556.27,301.07L556.38,301.03L557.41,300.39L557.52,300.19L557.98,300.36L558.44,298.33L558.55,298.35L559.12,298.28L559.24,299.22L559.81,300.43L560.04,299.73L560.15,299.19L561.3,296.18L561.41,296.57L561.87,296.62L561.98,297.48L562.55,297.89L562.67,299.8L562.89,300.41L563.12,298.79L563.24,298.14L564.72,291.33L564.84,282.14L564.95,262.34L565.18,294.91L565.41,294.89L565.52,294.91L565.98,294.43L566.09,293.8L566.32,294.54L566.44,296.26L566.55,298.17L566.89,295.62L567.12,295.8L567.24,295.78L567.35,295.04L567.69,297.71L567.81,297.84L569.29,295.62L569.41,296.88L570.67,298.14L570.78,298.23L571.12,298.42L571.24,299.29L571.81,300.1L571.92,300.59L572.38,301.84L572.72,301.5L572.84,299.96L574.32,299.62L574.44,298.13L575.24,301.97L575.35,298.2L575.69,296.27L575.81,302.09L576.38,296.21L576.61,296.23L576.72,296.8L577.64,299.93L577.75,299.95L578.32,300.19L578.44,301.21L578.66,301.21L578.78,301.99L579.35,302.11L579.58,300.38L579.69,301.69L579.92,297.9L580.38,299.53L580.49,243.1L580.61,146.99L581.18,274.66L581.29,274.77L581.52,275.44L581.64,272.35L582.21,301.99L582.66,300.15L582.78,302.11L583.58,300.15L583.69,300.15L585.63,300.82L585.75,301.76L586.32,301.86L586.43,300.72L586.55,300.84L586.66,301.5L587.01,300.51L587.46,300.85L587.58,300.87L589.75,300.85L589.86,301.86L590.66,300.82L590.78,300.82L591.35,300.36L591.46,299.67L592.26,300.34L592.38,300.34L592.49,301.23L592.61,300L593.06,300.31L593.18,300.33L594.32,300.36L594.43,300.34L596.03,300.36L596.15,299.82L596.38,299.21L596.72,299.9L596.83,300.31L597.4,300.47L597.63,300.23L597.75,300.18L597.98,300.82L598.32,300.36L598.43,299.67L599.23,300.34L599.35,300.34L599.46,301.23L599.58,300L600.03,300.31L600.15,300.33L601.29,300.36L601.4,300.34L602.2,294.49L602.32,294.48L602.43,293.77L602.66,296.06L602.78,296.67L603,297.25L603.23,296.27L603.46,296.36L603.58,296.36L604.72,296.01L604.83,295.73L606.09,295.07L606.2,294.69L606.66,294.31L606.77,293.79L607.35,294.03L607.46,293.24L607.8,293.39L607.92,292.53L608.03,292.34L608.15,293.69L608.83,297.06L609.06,296.47L609.17,296.39L609.75,296.64L609.86,297.03L610.32,297.46L610.43,298.4L612.26,294.86L612.37,295.3L612.83,296.54L613.06,295.57L613.17,295.5L613.97,296.46L614.09,296.47L615,296.29L615.12,297.49L616.26,300.13L616.37,300.15L619.12,299.83L619.23,295.29L619.8,301.2L620.03,299.98L620.14,300.31L620.72,300.95L620.83,300.16L620.94,300.11L621.74,299.16L621.86,299.54L622.54,300.24L622.66,300.11L622.77,299.62L623.12,297.99L623.23,297.33L624.37,298.35L624.49,298.32L625.63,298.3L625.74,299.09L626.54,299.65L626.66,299.68L627.11,299.14L627.23,297.92L628.94,297.92L629.06,297.92L630.09,299.67L630.2,299.68L630.66,299.16L630.77,297.9L632.6,297.94L632.71,298.5L633.06,299.39L633.51,299.16L633.63,299.16L634.66,298.12L634.77,298.25L634.89,298.51L635.91,299.73L636.03,299.44L636.48,299.63L636.6,298.5L637.17,299.75L637.4,299.62L637.51,298.66L638.2,298.74L638.31,299.7L639.46,299.73L639.57,300L640.14,300.57L640.37,299.96L640.48,300L640.71,299.75L640.83,298.46L641.06,299.27L641.17,297.06L641.28,290.08L641.63,298.56L641.74,274.35L642.66,296.08L642.77,296.09L643.68,293.49L643.91,293.54L644.03,293.49L645.28,291.48L645.4,293.56L645.63,293.79L645.74,295.52L646.08,293.62L646.2,295.6L646.31,297.97L647.45,292.77L647.57,294.31L647.8,294.74L647.91,293.69L648.03,292.88L649.4,292.77L649.51,294.02L650.2,295.73L650.31,295.58L650.43,294.79L651.11,295.38L651.23,295.78L651.68,294.97L651.91,295.76L652.03,296.11L652.94,296.64L653.05,295.58L653.85,294.56L653.97,294.54L654.77,294.36L654.88,295.19L655.57,299.91L655.91,298.89L656.03,297.03L656.14,297.23L656.37,296.52L656.48,296.24L657.51,297.4L657.62,297.32L658.08,300.75L658.42,299.19L658.54,299.11L659.34,300.93L659.45,300.19L659.57,300.03L661.51,299.67L661.62,300.09L663.11,297.72L663.22,298.05L664.02,300.13L664.14,300.07L664.25,300.1L665.85,300.94L665.97,300.64L666.08,300.05L666.99,300.11L667.11,299.35L667.91,298.44L668.02,298.76L668.82,299.95L668.94,298.9L669.62,298.24L669.74,298.5L669.85,299.13L670.19,298.72L670.31,298.23L670.54,297.59L670.65,298.58L670.77,298.96L671.45,301.55L671.79,300.45L671.91,300.4L672.71,300.53L672.82,298.33L673.74,300.49L673.85,300.18L673.97,300.5L675.34,300.66L675.45,300.17L675.79,286.07L676.14,295.08L676.25,297.25L676.82,300.16L676.94,279.69L677.05,278.05L677.17,292.23L677.39,266.18L677.85,281.13L677.96,276.68L678.08,263.54L678.54,290.72L678.65,290.66L678.99,290.5L679.11,291.6L679.22,290.98L679.91,291.27L680.02,291.3L680.25,290.88L680.59,291.62L680.71,291.84L681.74,294.41L681.85,293.58L682.99,294.09L683.11,294.17L683.68,295.19L683.91,295.03L684.02,295.3L685.05,295.12L685.16,294.28L685.51,294.41L685.62,294.02L685.74,296.2L686.31,298.11L686.42,296.4L686.54,294.43L686.76,295.45L687.45,295.22L687.56,295.27L689.05,297.3L689.16,297.32L690.53,297.25L690.65,296.54L692.13,296.88L692.25,296.52L693.05,296.07L693.16,296.12L693.85,298.84L693.96,297.24L694.42,294.35L694.65,296.5L694.76,297.9L696.82,297.77L696.93,296.81L697.05,296.11L697.39,298.32L697.51,298.23L697.85,298.4L697.96,297.69L698.08,297.32L698.3,297.32L698.42,296.5L699.22,298.71L699.33,298.42L699.79,297.41L700.02,298.03L700.13,298.23L701.05,299.94L701.16,301.23L701.73,300.44L701.85,300.12L703.1,300.01L703.22,300.36L703.33,300.51L704.25,299.89L704.36,299.89L705.73,299.62L705.85,298.66L706.65,300.8L706.76,300.78L706.88,300.79L707.56,300.69L707.68,299.78L710.3,300.53L710.42,301.39L711.79,301.75L711.9,300.88L712.02,299.96L712.47,301.49L712.59,301.62L713.16,302.06L713.27,302.72L713.5,300L713.62,301.23L713.73,301.96L714.76,302.56L714.87,302.52L716.13,302.27L716.25,300.11L716.36,296.74L716.93,301.62L717.05,301.78L718.76,302.59L718.87,302.41L718.99,302.3L719.67,302.43L719.79,302.47L720.82,302.43L720.93,292.27L721.39,229.12L721.84,254.32L721.96,256.61L722.19,257.24L722.3,268.58L722.42,269.64L722.64,268L722.76,268.04L722.87,248.47L722.99,246.12L723.1,257.03L723.22,262.14L723.9,282.04L724.13,278.8L724.24,278.85L724.36,278.99L724.47,274.42L724.59,210.2L725.16,276.69L725.27,275.57L725.73,275.04L725.84,272.54L726.3,278.98L726.42,269.37L726.53,235.31L726.64,221.25L727.1,252.83L727.22,255.98L727.44,243.68L727.67,254.9L727.79,263.68L728.93,292.02L729.04,292.08L729.84,291.41L729.96,292.04L730.07,292.1L732.13,292.52L732.24,291.62L733.39,295.6L733.5,295.53L733.96,298.11L734.41,296.82L734.53,296.41L735.1,269.89L735.21,262.12L735.44,288.77L735.79,246.05L736.01,272.46L736.13,283.83L737.04,292.8L737.16,292.52L737.96,292.13L738.07,291.72L738.41,291.89L738.53,291.59L738.64,290.71L739.21,289.03L739.33,289.84L739.44,291.43L741.04,299.45L741.16,299.47L741.61,299.37L741.73,297.52L742.18,286.73L742.3,127.6L743.44,288.5L743.56,288.55L743.78,288.15L743.9,282.87L744.13,232.53L744.24,181.65L744.7,263.19L745.27,253.69L745.38,253.65L745.84,282.34L746.3,272.12L746.41,271.3L747.78,287.76L747.9,288.96L749.04,295.15L749.16,295.14L750.98,300.58L751.1,300.6L751.55,301.29L751.67,301.4L753.73,301.71L753.84,301.35L754.64,301.88L754.75,301.62L754.98,301.49L755.55,302.14L755.67,301.88L755.78,301.79L756.81,302.2L756.93,302.26L757.04,300.96L757.5,302.31L757.61,302.25L757.73,302.29L758.75,301.21L758.87,300.26L760.24,299.94L760.35,299.37L762.07,299.26L762.18,300.4L762.87,301.48L763.1,301.35L763.21,301.37L764.92,301.5L765.04,301.03L765.84,273.94L766.07,288.34L766.18,288.21L766.41,287.93L766.52,286.08L767.44,286.14L767.55,286.07L767.78,286.13L767.9,289.81L768.7,301.86L768.81,301.44L768.92,300.99L769.72,298.39L769.84,269.25L770.3,298.86L770.75,297.86L770.87,297.94L771.55,297.72L771.67,284.63L772.47,298.3L772.58,298.32L772.92,299.93L773.04,299.32L773.15,298.02L775.67,298.13L775.78,297.35L776.92,297.54L777.04,297.52L779.55,298.09L779.67,299.28L780.92,299.41L781.04,298.16L781.38,297.34L781.72,298.25L781.84,298.42L782.29,298L782.41,297.13L782.52,295.78L783.09,296.76L783.21,297.44L784.12,297.93L784.24,298.29L784.81,299.49L784.92,300.17L785.49,302.04L785.84,301.91L785.95,301.9L787.78,298.73L788.12,299.18L788.24,299.25L789.38,301.16L789.49,300.85L789.95,301.7L790.06,301.83L790.98,302.24L791.21,301.92L791.32,301.79L791.44,301.99L791.55,299.12L792.69,301.77L792.81,301.79L794.75,301.99L794.86,301.53L795.21,298.04L795.32,255.5L795.43,16L796.01,262.98L796.12,265.68L796.69,274.32L797.03,273.41L797.15,273.79L797.26,274.04L797.38,280.15L797.72,292.18L798.29,289.29L798.41,289.31L798.98,289.34L799.09,292.17L799.21,294.57L799.32,289.28L799.89,293.36L800.01,293.43L800.69,293.66L800.81,293.39L800.92,292.51L801.38,286.13L801.49,283.54L801.83,283.69L801.95,285.77L802.86,293.77L802.98,293.19L803.09,292.52L803.32,292.4L803.43,294.55L803.78,295.71L804,294.11L804.12,294.59L804.23,293.23L805.15,285.51L805.26,278L805.49,278.3L805.6,277.03L805.72,276.91L806.29,288.38L806.4,285.88L806.52,277.19L807.09,286.35L807.43,283.15L807.55,284.48L807.66,286.24L807.78,280.76L807.89,247.59L808,221.22L808.46,249.2L808.58,249.02L808.69,255.46L809.83,288.48L809.95,288.47L810.18,290.94L810.4,290.42L810.52,286.06L811.09,214.86L811.32,249.69L811.43,264.38L811.55,264.71L811.66,258.52L812.23,261.99L812.35,269.93L813.15,289.2L813.38,288.99L813.49,289.13L814.17,290.04L814.29,291.08L814.97,295.74L815.2,293.94L815.32,292.52L815.43,289.13L816,292.91L816.12,293.96L817.37,298.63L817.49,298.67L818.29,298.23L818.4,297.91L818.52,297.77L818.63,298.36L818.75,298.7L819.32,299.08L819.43,299.49L819.89,299.04L820,298.69L820.23,296.29L820.35,282.86L820.46,282.34L820.57,294.88L821.49,300.09L821.6,300.15L822.63,299.72L822.75,299.53L822.97,299.46L823.09,296.9L824,299.99L824.23,299.37L824.34,298.79L825.14,298.48L825.26,298.47L825.72,298.47L825.83,297.23L826.52,300.48L826.63,299.99L826.74,299.51L827.2,298.93L827.32,298.21L827.43,296.83L827.89,298.71L828,298.66L828.12,298.93L828.23,299.37L828.34,298.24L828.46,295.65L828.8,300.44L829.26,298.53L829.37,298.12L830.17,297.5L830.29,297.52L830.52,297.52L830.63,273.37L830.74,298.19L831.43,298.08L831.54,298.55L831.89,299.2L832,301.03L832.8,301.24L832.92,300.96L833.72,300.59L833.83,300.59L834.17,300.57L834.29,299.59L834.86,298.54L834.97,298.96L835.09,299.5L836.23,301.29L836.34,300.89L837.26,299.98L837.37,300.1L839.89,301.13L840,300.82" style="vector-effect: non-scaling-stroke; fill: none; stroke: rgb(0, 0, 255); stroke-opacity: 1; stroke-width: 2px; opacity: 1;"/></g><g class="points"/><g class="text"/></g></g></g><g class="overplot"/><path class="xlines-above crisp" d="M0,0" style="fill: none;"/><path class="ylines-above crisp" d="M0,0" style="fill: none;"/><g class="overlines-above"/><g class="xaxislayer-above"><g class="xtick"><text text-anchor="middle" x="0" y="433" transform="translate(246.95,0)" style="font-family: 'Open Sans', verdana, arial, sans-serif; font-size: 12px; fill: rgb(42, 63, 95); fill-opacity: 1; white-space: pre; opacity: 1;">2005</text></g><g class="xtick"><text text-anchor="middle" x="0" y="433" style="font-family: 'Open Sans', verdana, arial, sans-serif; font-size: 12px; fill: rgb(42, 63, 95); fill-opacity: 1; white-space: pre; opacity: 1;" transform="translate(455.61,0)">2010</text></g><g class="xtick"><text text-anchor="middle" x="0" y="433" style="font-family: 'Open Sans', verdana, arial, sans-serif; font-size: 12px; fill: rgb(42, 63, 95); fill-opacity: 1; white-space: pre; opacity: 1;" transform="translate(664.26,0)">2015</text></g><g class="xtick"><text text-anchor="middle" x="0" y="433" style="font-family: 'Open Sans', verdana, arial, sans-serif; font-size: 12px; fill: rgb(42, 63, 95); fill-opacity: 1; white-space: pre; opacity: 1;" transform="translate(872.92,0)">2020</text></g></g><g class="yaxislayer-above"><g class="ytick"><text text-anchor="end" x="79" y="4.199999999999999" transform="translate(0,404)" style="font-family: 'Open Sans', verdana, arial, sans-serif; font-size: 12px; fill: rgb(42, 63, 95); fill-opacity: 1; white-space: pre; opacity: 1;">0</text></g><g class="ytick"><text text-anchor="end" x="79" y="4.199999999999999" style="font-family: 'Open Sans', verdana, arial, sans-serif; font-size: 12px; fill: rgb(42, 63, 95); fill-opacity: 1; white-space: pre; opacity: 1;" transform="translate(0,321.63)">50</text></g><g class="ytick"><text text-anchor="end" x="79" y="4.199999999999999" style="font-family: 'Open Sans', verdana, arial, sans-serif; font-size: 12px; fill: rgb(42, 63, 95); fill-opacity: 1; white-space: pre; opacity: 1;" transform="translate(0,239.27)">100</text></g><g class="ytick"><text text-anchor="end" x="79" y="4.199999999999999" style="font-family: 'Open Sans', verdana, arial, sans-serif; font-size: 12px; fill: rgb(42, 63, 95); fill-opacity: 1; white-space: pre; opacity: 1;" transform="translate(0,156.9)">150</text></g></g><g class="overaxes-above"/></g></g><g class="polarlayer"/><g class="smithlayer"/><g class="ternarylayer"/><g class="geolayer"/><g class="funnelarealayer"/><g class="pielayer"/><g class="iciclelayer"/><g class="treemaplayer"/><g class="sunburstlayer"/><g class="glimages"/><defs id="topdefs-f28911"><g class="clips"/></defs><g class="layer-above"><g class="imagelayer"/><g class="shapelayer"/></g><g class="infolayer"><g class="g-gtitle"><text class="gtitle" x="50" y="50" text-anchor="start" dy="0em" style="font-family: 'Open Sans', verdana, arial, sans-serif; font-size: 17px; fill: rgb(42, 63, 95); opacity: 1; font-weight: normal; white-space: pre;">Aforament - Berga (Olvan)--a04</text></g><g class="g-xtitle"><text class="xtitle" x="500" y="460.8" text-anchor="middle" style="font-family: 'Open Sans', verdana, arial, sans-serif; font-size: 14px; fill: rgb(42, 63, 95); opacity: 1; font-weight: normal; white-space: pre;">Data</text></g><g class="g-ytitle"><text class="ytitle" transform="rotate(-90,31.309375000000003,260)" x="31.309375000000003" y="260" text-anchor="middle" style="font-family: 'Open Sans', verdana, arial, sans-serif; font-size: 14px; fill: rgb(42, 63, 95); opacity: 1; font-weight: normal; white-space: pre;">Cabal (m3/s)</text></g></g></svg>