<svg class="main-svg" xmlns="http://www.w3.org/2000/svg" xmlns:xlink="http://www.w3.org/1999/xlink" width="1000" height="500" style="" viewBox="0 0 1000 500"><rect x="0" y="0" width="1000" height="500" style="fill: rgb(255, 255, 255); fill-opacity: 1;"/><defs id="defs-6df731"><g class="clips"><clipPath id="clip6df731xyplot" class="plotclip"><rect width="840" height="320"/></clipPath><clipPath class="axesclip" id="clip6df731x"><rect x="80" y="0" width="840" height="500"/></clipPath><clipPath class="axesclip" id="clip6df731y"><rect x="0" y="100" width="1000" height="320"/></clipPath><clipPath class="axesclip" id="clip6df731xy"><rect x="80" y="100" width="840" height="320"/></clipPath></g><g class="gradients"/><g class="patterns"/></defs><g class="bglayer"><rect class="bg" x="80" y="100" width="840" height="320" style="fill: rgb(229, 236, 246); fill-opacity: 1; stroke-width: 0;"/></g><g class="layer-below"><g class="imagelayer"/><g class="shapelayer"/></g><g class="cartesianlayer"><g class="subplot xy"><g class="layer-subplot"><g class="shapelayer"/><g class="imagelayer"/></g><g class="minor-gridlayer"><g class="x"/><g class="y"/></g><g class="gridlayer"><g class="x"><path class="xgrid crisp" transform="translate(246.95,0)" d="M0,100v320" style="stroke: rgb(255, 255, 255); stroke-opacity: 1; stroke-width: 1px;"/><path class="xgrid crisp" transform="translate(455.61,0)" d="M0,100v320" style="stroke: rgb(255, 255, 255); stroke-opacity: 1; stroke-width: 1px;"/><path class="xgrid crisp" transform="translate(664.26,0)" d="M0,100v320" style="stroke: rgb(255, 255, 255); stroke-opacity: 1; stroke-width: 1px;"/><path class="xgrid crisp" transform="translate(872.92,0)" d="M0,100v320" style="stroke: rgb(255, 255, 255); stroke-opacity: 1; stroke-width: 1px;"/></g><g class="y"><path class="ygrid crisp" transform="translate(0,349.40999999999997)" d="M80,0h840" style="stroke: rgb(255, 255, 255); stroke-opacity: 1; stroke-width: 1px;"/><path class="ygrid crisp" transform="translate(0,294.81)" d="M80,0h840" style="stroke: rgb(255, 255, 255); stroke-opacity: 1; stroke-width: 1px;"/><path class="ygrid crisp" transform="translate(0,240.22)" d="M80,0h840" style="stroke: rgb(255, 255, 255); stroke-opacity: 1; stroke-width: 1px;"/><path class="ygrid crisp" transform="translate(0,185.62)" d="M80,0h840" style="stroke: rgb(255, 255, 255); stroke-opacity: 1; stroke-width: 1px;"/><path class="ygrid crisp" transform="translate(0,131.03)" d="M80,0h840" style="stroke: rgb(255, 255, 255); stroke-opacity: 1; stroke-width: 1px;"/></g></g><g class="zerolinelayer"><path class="yzl zl crisp" transform="translate(0,404)" d="M80,0h840" style="stroke: rgb(255, 255, 255); stroke-opacity: 1; stroke-width: 2px;"/></g><path class="xlines-below"/><path class="ylines-below"/><g class="overlines-below"/><g class="xaxislayer-below"/><g class="yaxislayer-below"/><g class="overaxes-below"/><g class="plot" transform="translate(80,100)" clip-path="url(#clip6df731xyplot)"><g class="scatterlayer mlayer"><g class="trace scatter trace269325" style="stroke-miterlimit: 2; opacity: 1;"><g class="fills"/><g class="errorbars"/><g class="lines"><path class="js-line" d="M276.99,292.34L277.79,298.02L277.91,297.98L278.02,297.97L278.36,297.62L278.48,297.94L278.59,299.18L279.39,301.13L279.5,300.74L279.62,300.07L279.85,299.52L280.08,300.68L280.19,300.75" style="vector-effect: non-scaling-stroke; fill: none; stroke: rgb(255, 0, 0); stroke-opacity: 1; stroke-width: 2px; opacity: 1;"/><path class="js-line" d="M280.88,299.89L281.22,300.33L281.56,299.48" style="vector-effect: non-scaling-stroke; fill: none; stroke: rgb(255, 0, 0); stroke-opacity: 1; stroke-width: 2px; opacity: 1;"/><path class="js-line" d="M420.17,298.55L420.29,299.24L420.4,297.59L420.51,287.21L421.09,296.53L421.31,296.29L421.43,296.52L422,297.97L422.34,297.56L422.46,296.95L422.91,298.71L423.37,298.27L423.49,298.62L424.17,299.57L424.29,298.67L424.51,300.57L424.74,298.92L424.86,299.14L424.97,300.19L425.2,300.11L425.31,284.64L425.77,229.72L426.11,273.41L426.23,277.01L427.26,288.94L427.37,281.95L427.94,289.59L428.28,287.22L428.4,287.01L429.77,294.95L430,293.58L430.11,291.16L430.57,295.5L430.68,295.44L430.8,283.23L431.71,296.55L431.83,290.2L432.17,297.32L432.51,290.76L432.63,265.39L433.88,294.46L434,294.99L434.11,295.1L434.23,294.61L434.34,294.24L435.03,280.62L435.14,283.14L435.26,282.73L435.71,258.26L436.05,275.66L436.17,276.89L436.63,278.22L436.74,280.39L437.77,289.28L437.88,290.17L438.34,289.8L438.91,297.21L439.03,296.98L439.25,297.97L439.37,295.76L440.17,298.56L440.63,298.13L440.74,297.72L440.85,298.63L440.97,285.37L441.88,298.73L442.34,298.11L442.45,298.14L443.03,298.36L443.14,298.23" style="vector-effect: non-scaling-stroke; fill: none; stroke: rgb(255, 0, 0); stroke-opacity: 1; stroke-width: 2px; opacity: 1;"/><path class="js-line" d="M458.79,296.69L458.91,298.02L459.59,297.86L459.71,297.56L460.39,297.22L460.62,298.77L460.74,298.32L460.85,297.85L461.08,299.19L461.19,299.21L461.31,300.34L461.54,299.86L461.88,300.68L461.99,300.7L462.57,299.18L462.68,298.38L462.91,299.51L463.48,298.9L463.59,298.84L464.05,298.33L464.28,299.17L464.39,298.26L465.42,300.43L465.54,300.22L465.65,299.82L466.45,300.4L466.57,299.58L466.68,299.18L466.79,300.27L467.14,300.21L467.25,300.07L468.05,298.55L468.16,294.87L468.28,275.74L468.85,296.55L468.96,298.13L469.65,296.57L469.76,290.53L470.68,296.37L470.79,291.89L472.39,298.92L472.51,298.84L473.54,281.96L473.65,282.55L474.11,288.27L474.34,282.36L474.45,284.08L474.56,285.76L474.91,289.98L475.02,284.31L475.14,282.81L475.94,294.06L476.05,279.85L476.51,281.58L476.74,271.15L476.85,278.41L477.88,295.55L477.99,296.44L478.22,297.37L478.33,298.1L478.45,297.86L478.79,298.72L478.91,299.29L479.02,299.54L479.36,298.83L479.48,298.93L479.59,298.97L479.71,299.11L479.82,298.64L479.93,296.75L480.16,299.04L480.28,298.29L480.39,292.2L480.96,299.36L481.19,298.98L481.31,298.83L481.53,298.64L481.99,299.28L482.11,298.76L482.33,298.65L482.56,300.85L482.91,299.7L483.02,299.26L484.05,299.76L484.16,299.04L484.73,298.75L484.85,297.68L485.42,299.32L485.65,298.76L485.76,298.76L578.78,298.76" style="vector-effect: non-scaling-stroke; fill: none; stroke: rgb(255, 0, 0); stroke-opacity: 1; stroke-width: 2px; opacity: 1;"/><path class="js-line" d="M621.86,298.76L622.2,298.76L622.32,301.72L622.43,303.71" style="vector-effect: non-scaling-stroke; fill: none; stroke: rgb(255, 0, 0); stroke-opacity: 1; stroke-width: 2px; opacity: 1;"/><path class="js-line" d="M623.12,304L624.37,304" style="vector-effect: non-scaling-stroke; fill: none; stroke: rgb(255, 0, 0); stroke-opacity: 1; stroke-width: 2px; opacity: 1;"/><path class="js-line" d="M624.83,301.78L625.63,299.21L625.74,299.39L625.97,298.56L626.77,300.41L626.89,300.14L627.23,300.35L627.34,299.7L627.46,299.19L627.8,300.35L628.03,299.48L628.14,298.9L628.26,298.1L628.37,300.1L628.83,298.94L628.94,299.74L629.06,299.42L629.4,299.98L629.63,299.74L629.74,299.79L630.66,298.85L630.77,299.42L630.89,300.1L631,296.46L631.57,300.68L631.69,300.35L632.26,299.46L632.37,300.19L632.49,289.48L632.6,289.97L632.71,296.19L633.06,300.26L633.63,299.74L633.74,299.98L634.2,300.57L634.43,299.7L634.54,299.1L635,288.54L635.23,295.56L635.34,297.24L636.14,299.92L636.26,299.49L636.37,292.83L636.71,298.62L636.83,269.24L637.97,299.35L638.08,299.59L638.2,299.79L638.31,298.73L638.54,299.54L638.66,286.95L639.34,298.66L639.8,298.24L639.91,298.31L640.26,299.67L640.71,298.9L640.83,292.45L641.17,294.58L641.4,288.7L641.51,291.82L641.63,295.56L641.74,296.72L641.86,283.29L642.88,298.9L643,298.22L643.11,296.87L643.68,298.88L643.8,298.21L643.91,297.61L644.26,298.4L644.6,297.96L644.71,298.07L644.94,298.56L645.06,296.51L645.28,294.31L645.97,300.61L646.2,299.49L646.31,299.13L646.54,301.24L646.88,298.99L647,298.99L647.11,298.99L647.68,297.98L648.14,298.5L648.25,298.5L648.94,298.99L649.05,297.98L649.17,295.74L649.28,278.33L650.2,298.99L650.31,299.46L650.54,299.46L650.65,298.5L650.88,297.98L651,298.99L651.23,298.5L651.34,296.33L651.57,298.99L652.14,298.5L652.25,295.74L653.17,299.92L653.28,298.99L653.74,297.98L653.97,298.99L654.08,298.99L654.65,299.86L654.77,299.37L654.88,289.26L655,286.29L655.23,295.54L655.34,289.8L655.45,297.22L656.25,300.82L656.37,298.87L656.48,287.64L657.05,297.98L657.17,298.75L657.28,299.27L657.4,299.16L657.51,296.14L657.85,290.62L658.31,300.95L658.42,300.94L658.54,298.84L658.77,284.14L659.22,298.36L659.34,300.03L659.57,300.37L659.68,298.17L660.48,300.5L660.6,299.25L660.71,298.92L660.94,298.39L661.05,299.85L661.28,298.28L661.62,298.61L661.74,299.96L661.97,300.03L662.08,299.3L662.2,298.28L662.54,299.57L662.88,299.16L663,298.15L663.11,296.82L663.22,283.59L663.8,220.05L663.91,271.06L664.48,295.42L664.94,295.24L665.05,296.64L665.4,300.41L665.97,299.53L666.08,299.6L666.31,299.96L666.42,293.33L667.11,300.39L667.45,299.2L667.57,299.26L667.79,297.61L668.25,298.34L668.37,298.3L669.62,298.32L669.74,298.45L670.54,298.69L670.65,297.56L670.88,289.7L671.34,295.6L671.45,296.52L671.91,297.27L672.14,296.25L672.25,296.34L672.37,297.36L672.71,296.34L672.82,276.77L672.94,264.67L673.39,290.21L673.51,291.53L674.42,295.8L674.54,295.69L674.65,295.48L674.77,296.6L674.88,288.76L674.99,287.99L675.11,290.69L675.22,292.46L675.57,295.21L675.68,291.89L675.79,287.55L675.91,285.74L676.14,288.84L676.25,292.01L676.94,296.63L677.05,276.97L677.17,281.93L677.28,191.78L677.96,272.14L678.19,265.07L678.31,270.41L679.34,287.32L679.45,287.96L680.02,289.72L680.25,289.4L680.36,288.05L680.82,291.42L680.94,288.93L681.05,283.27L682.08,291.08L682.19,291.29L682.54,292.35L682.65,290.38L682.76,290.31L683.79,294.42L683.91,294.24L684.59,297.24L684.82,297.03L684.94,297.1L685.16,296.89L685.28,295.18L685.51,293.5L685.62,295.77L685.85,295.48L685.96,296.13L686.54,297.74L686.76,297.58L686.88,296.79L687.68,295.61L687.79,295.92L687.91,296.08L688.02,295.96L688.13,296.72L688.25,296.96L688.71,296.54L688.82,297.3L688.93,297.31L689.51,296.38L689.73,296.96L689.85,296.83L690.65,297.26L690.76,297.12L690.88,296.19L690.99,295.2L691.45,297.22L691.56,297.28L692.36,297.05L692.48,296.34L692.82,295.44L692.93,293.86L694.08,297.71L694.19,297.3L694.31,297.05L694.65,296.31L695.11,296.65L695.22,296.68L695.45,295.03L695.68,295.45L695.79,296.44L696.02,295.97L696.13,296.58L696.25,296.14L696.36,295.94L696.48,295.66L696.59,296.28L697.05,295.96L697.16,291.17L697.28,291.71L697.39,296.53L697.85,297.58L698.19,296.83L698.3,296.8L698.42,294.5L698.76,297.65L698.99,297.53L699.1,297.76L699.45,297.52L699.56,296.78L700.02,296.12L700.13,297.19L700.25,297.43L700.7,296.8L700.82,297.01L700.93,296.02L701.05,277.76L701.5,297.23L701.62,297.22L701.73,298.06L702.99,296.01L703.1,296.66L703.22,297.4L704.02,297.88L704.13,297.51L704.36,298.09L704.93,297.06L705.05,297.69L705.96,297.87L706.08,297.42L706.88,298.57L706.99,298.38L707.33,297.61L707.68,299.15L707.79,298.54L707.9,297.96L708.25,298.41L708.59,298L708.7,298.67L708.82,297.64L709.39,298.86L709.5,298.78L709.85,299.24L710.07,299L710.19,297.45L710.3,294.97L710.76,298.87L710.87,299.19L711.1,298.6L711.56,298.89L711.67,299.81L711.79,300.29L712.02,298.48L712.13,297.1L712.25,297.81L712.36,281.86L712.47,279.54L712.59,291.77L712.7,294.9L713.27,298.51L713.39,298.06L713.5,280.64L713.62,267.3L714.07,293.46L714.19,295.11L714.42,293.79L714.76,297.43L714.99,296.54L715.1,294.35L716.02,297.52L716.13,296.12L716.36,253.5L716.7,274.93L716.82,279.75L717.85,293.98L717.96,293.68L718.07,293.95L718.42,291.92L718.76,295.98L718.87,290.42L718.99,277.29L719.56,287.43L719.67,288.42L720.47,295.28L720.59,292.47L720.7,291.26L720.82,289.79L720.93,258.72L721.04,207.9L721.62,241.18L721.73,246.41L722.42,270.98L722.87,268.08L722.99,254.71L723.67,279.14L724.02,272.15L724.13,257.6L724.47,269.33L724.59,235.19L724.7,233.63L725.16,274.87L725.62,268.45L725.73,266.31L726.19,279.46L726.42,275.79L726.53,254.63L726.64,233.22L727.22,254.89L727.33,249.31L727.44,244.82L727.79,259.62L727.9,266.34L729.04,286.48L729.16,286.57L729.39,286.24L729.5,287.75L729.73,289.09L729.84,284.92L729.96,262.42L730.53,288.96L730.64,289.99L731.21,288.22L731.33,290.04L731.44,290.63L731.79,292.43L731.9,289.11L732.01,283.45L732.93,294.49L733.04,294.96L733.96,298.19L734.07,297.82L734.19,297.32L734.64,293.04L734.76,283.31L735.1,285.65L735.21,270.52L735.44,286.27L735.56,282.67L735.67,264.44L735.79,263.51L735.9,266.45L736.01,274.53L736.93,290.52L737.04,280.87L737.16,272.93L737.5,288.18L737.61,285.08L737.73,286.53L738.53,280.46L738.64,280.74L739.56,289.18L739.67,290.69L740.93,298.11L741.27,297.84L741.38,297.74L741.61,297.18L741.73,294.43L742.18,284.48L742.3,145.13L743.21,279.11L743.33,282.2L743.56,283.71L743.67,282.25L744.24,197.14L744.47,225.62L744.58,240.07L744.7,251.45L744.93,225.55L745.38,245.14L745.5,247.44L745.73,255.29L745.84,224.5L746.3,253.98L746.76,253.72L746.87,254.02L748.93,283.54L749.04,284.04L749.27,284.99L749.38,285.3L750.87,292.57L750.98,293.16L751.1,292.58L751.55,293.9L751.67,294.55L752.35,295.55L752.7,294.84L752.81,294.9L753.5,293.2L753.61,294.17L753.73,295.3L754.75,296.3L754.87,295.21L755.67,295.4L755.78,295.87L756.01,295.27L756.35,296.32L756.47,296.09L756.58,295.79L756.93,295.58L757.04,296.15L757.15,295.95L757.27,296.68L758.3,297.69L758.41,298.02L759.33,295.06L759.44,295.06L759.9,295.06L760.01,296.26L760.7,298.22L760.81,297.57L760.93,297.31L761.15,297.89L761.72,297.58L761.84,296.68L762.07,288.38L762.18,294.19L762.3,295.36L762.64,295.15L762.98,297.17L763.21,296.98L763.32,297.1L763.67,297.75L763.78,296.3L763.9,296.19L764.12,297.34L764.24,296.93L764.35,294.99L764.92,297.07L765.04,296.73L765.15,292.77L765.84,293.15L765.95,281.2L766.07,290.07L766.75,286.37L766.87,286.46L766.98,287.16L767.44,288.32L767.67,284.95L767.78,287.04L768.01,290.21L768.12,295.21L768.81,300.56L769.04,299.06L769.15,298.13L769.61,294.15L769.84,295.58L769.95,280.06L770.41,299.03L770.87,297.68L770.98,296.83L771.32,297.43L771.55,297.06L771.67,296.05L771.78,288.46L772.12,298.12L772.35,296.34L772.47,296.74L772.69,295.76L772.81,289.9L773.15,297.33L773.61,296.98L773.72,292.1L773.84,280.45L774.41,296.85L774.52,298.52L774.87,294.94L775.32,296.56L775.44,296.84L775.55,297.77L775.89,296.06L776.12,296.7L776.24,296.88L776.47,296.56L776.58,296.68L776.69,291.8L776.92,296.65L777.49,296.16L777.61,295.94L777.84,295.46L778.07,296.53L778.18,296.34L778.29,296.43L779.21,290.58L779.32,292.94L780.58,299.9L780.81,298.74L780.92,299.07L781.27,294.08L781.72,296.56L781.84,297.2L782.18,297.2L782.29,297.83L782.41,296.91L782.52,297.24L782.86,296.68L783.09,296.65L783.21,296.08L783.55,297.79L783.89,297.09L784.01,295.46L784.35,297.69L784.69,295.94L784.81,287.47L784.92,200.99L785.49,296.92L785.61,297.15L785.72,296.94L785.95,297.58L786.29,297.25L786.41,297.43L786.52,296.72L786.86,297.51L787.09,297.25L787.21,297.7L787.55,298.1L787.89,296.83L788.01,296.55L788.12,297.57L788.35,296.79L788.46,292.75L788.58,290.72L788.92,296.74L789.04,297.54L789.38,299.29L789.61,299.06L789.72,284.78L789.84,260.98L790.29,295.97L790.41,297L790.86,298.35L790.98,299.14L791.55,295.91L791.66,277.12L791.78,277.38L791.89,281.04L792.92,298.38L793.03,298.38L793.15,296.08L793.49,299.97L793.72,299.08L793.83,300.2L793.95,297.17L794.29,301.33L794.52,300.04L794.63,299.29L794.75,299.06L794.86,299.45L794.98,299.5L795.09,297.59L795.32,189.58L795.43,16L796.35,272.67L796.46,273.34L797.95,292.03L798.18,291.58L798.29,287.55L798.41,286.79L798.63,287.95L799.09,287.16L799.21,287.93L799.78,294.6L800.01,291.65L800.12,291.25L800.81,295.7L801.15,294.86L801.26,294.68L801.61,275.86L801.72,286.17L801.83,288.7L802.18,292.12L802.29,288.91L802.98,294.96L803.09,293.46L803.21,291.26L803.43,288.76L803.78,291.5L803.89,292.14L804.58,290.43L804.69,284.19L805.15,288.08L805.26,284L805.38,266.68L805.6,221.72L805.83,246.3L805.95,252.41L806.98,278.5L807.09,277.96L807.55,281.17L807.66,280.79L807.78,269.89L808.23,244.28L808.58,247.3L808.69,254.23L809.83,283.4L809.95,278.85L810.06,275.08L810.29,284.23L810.4,265.19L810.52,258.05L811.09,153.32L811.32,227.61L811.43,244.7L813.83,285.68L813.95,260.7L814.97,290.53L815.09,284.76L815.2,270.51L815.77,288.87L815.89,289.58L817.03,296.75L817.15,295.67L817.37,297.53L818.06,297.4L818.17,297.16L818.52,295.92L818.63,289.91L819.66,297.7L819.77,297.62L819.89,297.87L820.23,297.05L820.35,295.51L820.46,180.62L821.03,289.1L821.15,292.16L821.83,291.3L822.06,294.97L822.17,295.73L822.52,297.58L822.75,296.18L822.86,295.44L823.09,296.11L823.2,283.01L824.23,297.5L824.34,296.71L824.57,294.65L825.03,296.39L825.14,296.43L825.37,292.13L825.94,294.56L826.06,295.84L826.63,296.66L826.74,296.35L826.86,295.57L827.77,297.14L828,296.51L828.12,290.33L828.34,293.42L828.46,281.7L828.57,281.82L828.69,286.92L829.37,294.84L829.49,292.8L829.6,291.8L829.83,293.31L829.94,295.2L830.29,294.87L830.52,295.38L830.63,295.28L830.74,280.7L831.66,292.72L831.77,293.19L832.92,297.16L833.03,296.76L833.14,294.98L833.72,297.15L833.94,296.93L834.06,296.86L834.17,297.3L834.52,295.9L834.63,296.22L834.74,295.89L835.54,296.89L835.66,294.94L835.77,293.86L836,295.72L836.34,295.58L836.46,296.49L837.37,294.07L837.6,295.17L837.71,295.53L838.51,297.15L838.74,296.82L838.86,296.57L839.2,294.2L839.77,294.95L839.89,294.96" style="vector-effect: non-scaling-stroke; fill: none; stroke: rgb(255, 0, 0); stroke-opacity: 1; stroke-width: 2px; opacity: 1;"/></g><g class="points"/><g class="text"/></g><g class="trace scatter trace4b21e2" style="stroke-miterlimit: 2; opacity: 1;"><g class="fills"/><g class="errorbars"/><g class="lines"><path class="js-line" d="M276.99,292.34L277.79,298.02L277.91,297.98L278.02,297.97L278.36,297.62L278.48,297.94L278.59,299.18L279.39,301.13L279.5,300.74L279.62,300.07L279.85,299.52L280.08,300.68L280.19,300.75" style="vector-effect: non-scaling-stroke; fill: none; stroke: rgb(0, 0, 255); stroke-opacity: 1; stroke-width: 2px; opacity: 1;"/><path class="js-line" d="M280.88,299.89L281.22,300.33L281.56,299.48" style="vector-effect: non-scaling-stroke; fill: none; stroke: rgb(0, 0, 255); stroke-opacity: 1; stroke-width: 2px; opacity: 1;"/><path class="js-line" d="M420.17,298.55L420.29,299.24L420.4,297.59L420.51,287.21L421.09,296.53L421.31,296.29L421.43,296.52L422,297.97L422.34,297.56L422.46,296.95L422.91,298.71L423.37,298.27L423.49,298.62L424.17,299.57L424.29,298.67L424.51,300.57L424.74,298.92L424.86,299.14L424.97,300.19L425.2,300.11L425.31,284.64L425.77,229.72L426.11,273.41L426.23,277.01L427.26,288.94L427.37,281.95L427.94,289.59L428.28,287.22L428.4,287.01L429.77,294.95L430,293.58L430.11,291.16L430.57,295.5L430.68,295.44L430.8,283.23L431.71,296.55L431.83,290.2L432.17,297.32L432.51,290.76L432.63,265.39L433.88,294.46L434,294.99L434.11,295.1L434.23,294.61L434.34,294.24L435.03,280.62L435.14,283.14L435.26,282.73L435.71,258.26L436.05,275.66L436.17,276.89L436.63,278.22L436.74,280.39L437.77,289.28L437.88,290.17L438.34,289.8L438.91,297.21L439.03,296.98L439.25,297.97L439.37,295.76L440.17,298.56L440.63,298.13L440.74,297.72L440.85,298.63L440.97,285.37L441.88,298.73L442.34,298.11L442.45,298.14L443.03,298.36L443.14,298.23" style="vector-effect: non-scaling-stroke; fill: none; stroke: rgb(0, 0, 255); stroke-opacity: 1; stroke-width: 2px; opacity: 1;"/><path class="js-line" d="M458.79,296.69L458.91,298.02L459.59,297.86L459.71,297.56L460.39,297.22L460.62,298.77L460.74,298.32L460.85,297.85L461.08,299.19L461.19,299.21L461.31,300.34L461.54,299.86L461.88,300.68L461.99,300.7L462.57,299.18L462.68,298.38L462.91,299.51L463.48,298.9L463.59,298.84L464.05,298.33L464.28,299.17L464.39,298.26L465.42,300.43L465.54,300.22L465.65,299.82L466.45,300.4L466.57,299.58L466.68,299.18L466.79,300.27L467.14,300.21L467.25,300.07L468.05,298.55L468.16,294.87L468.28,275.74L468.85,296.55L468.96,298.13L469.65,296.57L469.76,290.53L470.68,296.37L470.79,291.89L472.39,298.92L472.51,298.84L473.54,281.96L473.65,282.55L474.11,288.27L474.34,282.36L474.45,284.08L474.56,285.76L474.91,289.98L475.02,284.31L475.14,282.81L475.94,294.06L476.05,279.85L476.51,281.58L476.74,271.15L476.85,278.41L477.88,295.55L477.99,296.44L478.22,297.37L478.33,298.1L478.45,297.86L478.79,298.72L478.91,299.29L479.02,299.54L479.36,298.83L479.48,298.93L479.59,298.97L479.71,299.11L479.82,298.64L479.93,296.75L480.16,299.04L480.28,298.29L480.39,292.2L480.96,299.36L481.19,298.98L481.31,298.83L481.53,298.64L481.99,299.28L482.11,298.76L482.33,298.65L482.56,300.85L482.91,299.7L483.02,299.26L484.05,299.76L484.16,299.04L484.73,298.75L484.85,297.68L485.42,299.32" style="vector-effect: non-scaling-stroke; fill: none; stroke: rgb(0, 0, 255); stroke-opacity: 1; stroke-width: 2px; opacity: 1;"/><path class="js-line" d="M621.86,298.76L622.2,298.76L622.32,301.72L622.43,303.71" style="vector-effect: non-scaling-stroke; fill: none; stroke: rgb(0, 0, 255); stroke-opacity: 1; stroke-width: 2px; opacity: 1;"/><path class="js-line" d="M623.12,304L624.37,304" style="vector-effect: non-scaling-stroke; fill: none; stroke: rgb(0, 0, 255); stroke-opacity: 1; stroke-width: 2px; opacity: 1;"/><path class="js-line" d="M624.83,301.78L625.63,299.21L625.74,299.39L625.97,298.56L626.77,300.41L626.89,300.14L627.23,300.35L627.34,299.7L627.46,299.19L627.8,300.35L628.03,299.48L628.14,298.9L628.26,298.1L628.37,300.1L628.83,298.94L628.94,299.74L629.06,299.42L629.4,299.98L629.63,299.74L629.74,299.79L630.66,298.85L630.77,299.42L630.89,300.1L631,296.46L631.57,300.68L631.69,300.35L632.26,299.46L632.37,300.19L632.49,289.48L632.6,289.97L632.71,296.19L633.06,300.26L633.63,299.74L633.74,299.98L634.2,300.57L634.43,299.7L634.54,299.1L635,288.54L635.23,295.56L635.34,297.24L636.14,299.92L636.26,299.49L636.37,292.83L636.71,298.62L636.83,269.24L637.97,299.35L638.08,299.59L638.2,299.79L638.31,298.73L638.54,299.54L638.66,286.95L639.34,298.66L639.8,298.24L639.91,298.31L640.26,299.67L640.71,298.9L640.83,292.45L641.17,294.58L641.4,288.7L641.51,291.82L641.63,295.56L641.74,296.72L641.86,283.29L642.88,298.9L643,298.22L643.11,296.87L643.68,298.88L643.8,298.21L643.91,297.61L644.26,298.4L644.6,297.96L644.71,298.07L644.94,298.56L645.06,296.51L645.28,294.31L645.97,300.61L646.2,299.49L646.31,299.13L646.54,301.24L646.88,298.99L647,298.99L647.11,298.99L647.68,297.98L648.14,298.5L648.25,298.5L648.94,298.99L649.05,297.98L649.17,295.74L649.28,278.33L650.2,298.99L650.31,299.46L650.54,299.46L650.65,298.5L650.88,297.98L651,298.99L651.23,298.5L651.34,296.33L651.57,298.99L652.14,298.5L652.25,295.74L653.17,299.92L653.28,298.99L653.74,297.98L653.97,298.99L654.08,298.99L654.65,299.86L654.77,299.37L654.88,289.26L655,286.29L655.23,295.54L655.34,289.8L655.45,297.22L656.25,300.82L656.37,298.87L656.48,287.64L657.05,297.98L657.17,298.75L657.28,299.27L657.4,299.16L657.51,296.14L657.85,290.62L658.31,300.95L658.42,300.94L658.54,298.84L658.77,284.14L659.22,298.36L659.34,300.03L659.57,300.37L659.68,298.17L660.48,300.5L660.6,299.25L660.71,298.92L660.94,298.39L661.05,299.85L661.28,298.28L661.62,298.61L661.74,299.96L661.97,300.03L662.08,299.3L662.2,298.28L662.54,299.57L662.88,299.16L663,298.15L663.11,296.82L663.22,283.59L663.8,220.05L663.91,271.06L664.48,295.42L664.94,295.24L665.05,296.64L665.4,300.41L665.97,299.53L666.08,299.6L666.31,299.96L666.42,293.33L667.11,300.39L667.45,299.2L667.57,299.26L667.79,297.61L668.25,298.34L668.37,298.3L669.62,298.32L669.74,298.45L670.54,298.69L670.65,297.56L670.88,289.7L671.34,295.6L671.45,296.52L671.91,297.27L672.14,296.25L672.25,296.34L672.37,297.36L672.71,296.34L672.82,276.77L672.94,264.67L673.39,290.21L673.51,291.53L674.42,295.8L674.54,295.69L674.65,295.48L674.77,296.6L674.88,288.76L674.99,287.99L675.11,290.69L675.22,292.46L675.57,295.21L675.68,291.89L675.79,287.55L675.91,285.74L676.14,288.84L676.25,292.01L676.94,296.63L677.05,276.97L677.17,281.93L677.28,191.78L677.96,272.14L678.19,265.07L678.31,270.41L679.34,287.32L679.45,287.96L680.02,289.72L680.25,289.4L680.36,288.05L680.82,291.42L680.94,288.93L681.05,283.27L682.08,291.08L682.19,291.29L682.54,292.35L682.65,290.38L682.76,290.31L683.79,294.42L683.91,294.24L684.59,297.24L684.82,297.03L684.94,297.1L685.16,296.89L685.28,295.18L685.51,293.5L685.62,295.77L685.85,295.48L685.96,296.13L686.54,297.74L686.76,297.58L686.88,296.79L687.68,295.61L687.79,295.92L687.91,296.08L688.02,295.96L688.13,296.72L688.25,296.96L688.71,296.54L688.82,297.3L688.93,297.31L689.51,296.38L689.73,296.96L689.85,296.83L690.65,297.26L690.76,297.12L690.88,296.19L690.99,295.2L691.45,297.22L691.56,297.28L692.36,297.05L692.48,296.34L692.82,295.44L692.93,293.86L694.08,297.71L694.19,297.3L694.31,297.05L694.65,296.31L695.11,296.65L695.22,296.68L695.45,295.03L695.68,295.45L695.79,296.44L696.02,295.97L696.13,296.58L696.25,296.14L696.36,295.94L696.48,295.66L696.59,296.28L697.05,295.96L697.16,291.17L697.28,291.71L697.39,296.53L697.85,297.58L698.19,296.83L698.3,296.8L698.42,294.5L698.76,297.65L698.99,297.53L699.1,297.76L699.45,297.52L699.56,296.78L700.02,296.12L700.13,297.19L700.25,297.43L700.7,296.8L700.82,297.01L700.93,296.02L701.05,277.76L701.5,297.23L701.62,297.22L701.73,298.06L702.99,296.01L703.1,296.66L703.22,297.4L704.02,297.88L704.13,297.51L704.36,298.09L704.93,297.06L705.05,297.69L705.96,297.87L706.08,297.42L706.88,298.57L706.99,298.38L707.33,297.61L707.68,299.15L707.79,298.54L707.9,297.96L708.25,298.41L708.59,298L708.7,298.67L708.82,297.64L709.39,298.86L709.5,298.78L709.85,299.24L710.07,299L710.19,297.45L710.3,294.97L710.76,298.87L710.87,299.19L711.1,298.6L711.56,298.89L711.67,299.81L711.79,300.29L712.02,298.48L712.13,297.1L712.25,297.81L712.36,281.86L712.47,279.54L712.59,291.77L712.7,294.9L713.27,298.51L713.39,298.06L713.5,280.64L713.62,267.3L714.07,293.46L714.19,295.11L714.42,293.79L714.76,297.43L714.99,296.54L715.1,294.35L716.02,297.52L716.13,296.12L716.36,253.5L716.7,274.93L716.82,279.75L717.85,293.98L717.96,293.68L718.07,293.95L718.42,291.92L718.76,295.98L718.87,290.42L718.99,277.29L719.56,287.43L719.67,288.42L720.47,295.28L720.59,292.47L720.7,291.26L720.82,289.79L720.93,258.72L721.04,207.9L721.62,241.18L721.73,246.41L722.42,270.98L722.87,268.08L722.99,254.71L723.67,279.14L724.02,272.15L724.13,257.6L724.47,269.33L724.59,235.19L724.7,233.63L725.16,274.87L725.62,268.45L725.73,266.31L726.19,279.46L726.42,275.79L726.53,254.63L726.64,233.22L727.22,254.89L727.33,249.31L727.44,244.82L727.79,259.62L727.9,266.34L729.04,286.48L729.16,286.57L729.39,286.24L729.5,287.75L729.73,289.09L729.84,284.92L729.96,262.42L730.53,288.96L730.64,289.99L731.21,288.22L731.33,290.04L731.44,290.63L731.79,292.43L731.9,289.11L732.01,283.45L732.93,294.49L733.04,294.96L733.96,298.19L734.07,297.82L734.19,297.32L734.64,293.04L734.76,283.31L735.1,285.65L735.21,270.52L735.44,286.27L735.56,282.67L735.67,264.44L735.79,263.51L735.9,266.45L736.01,274.53L736.93,290.52L737.04,280.87L737.16,272.93L737.5,288.18L737.61,285.08L737.73,286.53L738.53,280.46L738.64,280.74L739.56,289.18L739.67,290.69L740.93,298.11L741.27,297.84L741.38,297.74L741.61,297.18L741.73,294.43L742.18,284.48L742.3,145.13L743.21,279.11L743.33,282.2L743.56,283.71L743.67,282.25L744.24,197.14L744.47,225.62L744.58,240.07L744.7,251.45L744.93,225.55L745.38,245.14L745.5,247.44L745.73,255.29L745.84,224.5L746.3,253.98L746.76,253.72L746.87,254.02L748.93,283.54L749.04,284.04L749.27,284.99L749.38,285.3L750.87,292.57L750.98,293.16L751.1,292.58L751.55,293.9L751.67,294.55L752.35,295.55L752.7,294.84L752.81,294.9L753.5,293.2L753.61,294.17L753.73,295.3L754.75,296.3L754.87,295.21L755.67,295.4L755.78,295.87L756.01,295.27L756.35,296.32L756.47,296.09L756.58,295.79L756.93,295.58L757.04,296.15L757.15,295.95L757.27,296.68L758.3,297.69L758.41,298.02L759.33,295.06L759.44,295.06L759.9,295.06L760.01,296.26L760.7,298.22L760.81,297.57L760.93,297.31L761.15,297.89L761.72,297.58L761.84,296.68L762.07,288.38L762.18,294.19L762.3,295.36L762.64,295.15L762.98,297.17L763.21,296.98L763.32,297.1L763.67,297.75L763.78,296.3L763.9,296.19L764.12,297.34L764.24,296.93L764.35,294.99L764.92,297.07L765.04,296.73L765.15,292.77L765.84,293.15L765.95,281.2L766.07,290.07L766.75,286.37L766.87,286.46L766.98,287.16L767.44,288.32L767.67,284.95L767.78,287.04L768.01,290.21L768.12,295.21L768.81,300.56L769.04,299.06L769.15,298.13L769.61,294.15L769.84,295.58L769.95,280.06L770.41,299.03L770.87,297.68L770.98,296.83L771.32,297.43L771.55,297.06L771.67,296.05L771.78,288.46L772.12,298.12L772.35,296.34L772.47,296.74L772.69,295.76L772.81,289.9L773.15,297.33L773.61,296.98L773.72,292.1L773.84,280.45L774.41,296.85L774.52,298.52L774.87,294.94L775.32,296.56L775.44,296.84L775.55,297.77L775.89,296.06L776.12,296.7L776.24,296.88L776.47,296.56L776.58,296.68L776.69,291.8L776.92,296.65L777.49,296.16L777.61,295.94L777.84,295.46L778.07,296.53L778.18,296.34L778.29,296.43L779.21,290.58L779.32,292.94L780.58,299.9L780.81,298.74L780.92,299.07L781.27,294.08L781.72,296.56L781.84,297.2L782.18,297.2L782.29,297.83L782.41,296.91L782.52,297.24L782.86,296.68L783.09,296.65L783.21,296.08L783.55,297.79L783.89,297.09L784.01,295.46L784.35,297.69L784.69,295.94L784.81,287.47L784.92,200.99L785.49,296.92L785.61,297.15L785.72,296.94L785.95,297.58L786.29,297.25L786.41,297.43L786.52,296.72L786.86,297.51L787.09,297.25L787.21,297.7L787.55,298.1L787.89,296.83L788.01,296.55L788.12,297.57L788.35,296.79L788.46,292.75L788.58,290.72L788.92,296.74L789.04,297.54L789.38,299.29L789.61,299.06L789.72,284.78L789.84,260.98L790.29,295.97L790.41,297L790.86,298.35L790.98,299.14L791.55,295.91L791.66,277.12L791.78,277.38L791.89,281.04L792.92,298.38L793.03,298.38L793.15,296.08L793.49,299.97L793.72,299.08L793.83,300.2L793.95,297.17L794.29,301.33L794.52,300.04L794.63,299.29L794.75,299.06L794.86,299.45L794.98,299.5L795.09,297.59L795.32,189.58L795.43,16L796.35,272.67L796.46,273.34L797.95,292.03L798.18,291.58L798.29,287.55L798.41,286.79L798.63,287.95L799.09,287.16L799.21,287.93L799.78,294.6L800.01,291.65L800.12,291.25L800.81,295.7L801.15,294.86L801.26,294.68L801.61,275.86L801.72,286.17L801.83,288.7L802.18,292.12L802.29,288.91L802.98,294.96L803.09,293.46L803.21,291.26L803.43,288.76L803.78,291.5L803.89,292.14L804.58,290.43L804.69,284.19L805.15,288.08L805.26,284L805.38,266.68L805.6,221.72L805.83,246.3L805.95,252.41L806.98,278.5L807.09,277.96L807.55,281.17L807.66,280.79L807.78,269.89L808.23,244.28L808.58,247.3L808.69,254.23L809.83,283.4L809.95,278.85L810.06,275.08L810.29,284.23L810.4,265.19L810.52,258.05L811.09,153.32L811.32,227.61L811.43,244.7L813.83,285.68L813.95,260.7L814.97,290.53L815.09,284.76L815.2,270.51L815.77,288.87L815.89,289.58L817.03,296.75L817.15,295.67L817.37,297.53L818.06,297.4L818.17,297.16L818.52,295.92L818.63,289.91L819.66,297.7L819.77,297.62L819.89,297.87L820.23,297.05L820.35,295.51L820.46,180.62L821.03,289.1L821.15,292.16L821.83,291.3L822.06,294.97L822.17,295.73L822.52,297.58L822.75,296.18L822.86,295.44L823.09,296.11L823.2,283.01L824.23,297.5L824.34,296.71L824.57,294.65L825.03,296.39L825.14,296.43L825.37,292.13L825.94,294.56L826.06,295.84L826.63,296.66L826.74,296.35L826.86,295.57L827.77,297.14L828,296.51L828.12,290.33L828.34,293.42L828.46,281.7L828.57,281.82L828.69,286.92L829.37,294.84L829.49,292.8L829.6,291.8L829.83,293.31L829.94,295.2L830.29,294.87L830.52,295.38L830.63,295.28L830.74,280.7L831.66,292.72L831.77,293.19L832.92,297.16L833.03,296.76L833.14,294.98L833.72,297.15L833.94,296.93L834.06,296.86L834.17,297.3L834.52,295.9L834.63,296.22L834.74,295.89L835.54,296.89L835.66,294.94L835.77,293.86L836,295.72L836.34,295.58L836.46,296.49L837.37,294.07L837.6,295.17L837.71,295.53L838.51,297.15L838.74,296.82L838.86,296.57L839.2,294.2L839.77,294.95L839.89,294.96" style="vector-effect: non-scaling-stroke; fill: none; stroke: rgb(0, 0, 255); stroke-opacity: 1; stroke-width: 2px; opacity: 1;"/></g><g class="points"/><g class="text"/></g></g></g><g class="overplot"/><path class="xlines-above crisp" d="M0,0" style="fill: none;"/><path class="ylines-above crisp" d="M0,0" style="fill: none;"/><g class="overlines-above"/><g class="xaxislayer-above"><g class="xtick"><text text-anchor="middle" x="0" y="433" transform="translate(246.95,0)" style="font-family: 'Open Sans', verdana, arial, sans-serif; font-size: 12px; fill: rgb(42, 63, 95); fill-opacity: 1; white-space: pre; opacity: 1;">2005</text></g><g class="xtick"><text text-anchor="middle" x="0" y="433" style="font-family: 'Open Sans', verdana, arial, sans-serif; font-size: 12px; fill: rgb(42, 63, 95); fill-opacity: 1; white-space: pre; opacity: 1;" transform="translate(455.61,0)">2010</text></g><g class="xtick"><text text-anchor="middle" x="0" y="433" style="font-family: 'Open Sans', verdana, arial, sans-serif; font-size: 12px; fill: rgb(42, 63, 95); fill-opacity: 1; white-space: pre; opacity: 1;" transform="translate(664.26,0)">2015</text></g><g class="xtick"><text text-anchor="middle" x="0" y="433" style="font-family: 'Open Sans', verdana, arial, sans-serif; font-size: 12px; fill: rgb(42, 63, 95); fill-opacity: 1; white-space: pre; opacity: 1;" transform="translate(872.92,0)">2020</text></g></g><g class="yaxislayer-above"><g class="ytick"><text text-anchor="end" x="79" y="4.199999999999999" transform="translate(0,404)" style="font-family: 'Open Sans', verdana, arial, sans-serif; font-size: 12px; fill: rgb(42, 63, 95); fill-opacity: 1; white-space: pre; opacity: 1;">0</text></g><g class="ytick"><text text-anchor="end" x="79" y="4.199999999999999" style="font-family: 'Open Sans', verdana, arial, sans-serif; font-size: 12px; fill: rgb(42, 63, 95); fill-opacity: 1; white-space: pre; opacity: 1;" transform="translate(0,349.40999999999997)">50</text></g><g class="ytick"><text text-anchor="end" x="79" y="4.199999999999999" style="font-family: 'Open Sans', verdana, arial, sans-serif; font-size: 12px; fill: rgb(42, 63, 95); fill-opacity: 1; white-space: pre; opacity: 1;" transform="translate(0,294.81)">100</text></g><g class="ytick"><text text-anchor="end" x="79" y="4.199999999999999" style="font-family: 'Open Sans', verdana, arial, sans-serif; font-size: 12px; fill: rgb(42, 63, 95); fill-opacity: 1; white-space: pre; opacity: 1;" transform="translate(0,240.22)">150</text></g><g class="ytick"><text text-anchor="end" x="79" y="4.199999999999999" style="font-family: 'Open Sans', verdana, arial, sans-serif; font-size: 12px; fill: rgb(42, 63, 95); fill-opacity: 1; white-space: pre; opacity: 1;" transform="translate(0,185.62)">200</text></g><g class="ytick"><text text-anchor="end" x="79" y="4.199999999999999" style="font-family: 'Open Sans', verdana, arial, sans-serif; font-size: 12px; fill: rgb(42, 63, 95); fill-opacity: 1; white-space: pre; opacity: 1;" transform="translate(0,131.03)">250</text></g></g><g class="overaxes-above"/></g></g><g class="polarlayer"/><g class="smithlayer"/><g class="ternarylayer"/><g class="geolayer"/><g class="funnelarealayer"/><g class="pielayer"/><g class="iciclelayer"/><g class="treemaplayer"/><g class="sunburstlayer"/><g class="glimages"/><defs id="topdefs-6df731"><g class="clips"/></defs><g class="layer-above"><g class="imagelayer"/><g class="shapelayer"/></g><g class="infolayer"><g class="g-gtitle"><text class="gtitle" x="50" y="50" text-anchor="start" dy="0em" style="font-family: 'Open Sans', verdana, arial, sans-serif; font-size: 17px; fill: rgb(42, 63, 95); opacity: 1; font-weight: normal; white-space: pre;">Aforament - Castellbisbal (Assut de Salzers)--a12</text></g><g class="g-xtitle"><text class="xtitle" x="500" y="460.8" text-anchor="middle" style="font-family: 'Open Sans', verdana, arial, sans-serif; font-size: 14px; fill: rgb(42, 63, 95); opacity: 1; font-weight: normal; white-space: pre;">Data</text></g><g class="g-ytitle"><text class="ytitle" transform="rotate(-90,31.309375000000003,260)" x="31.309375000000003" y="260" text-anchor="middle" style="font-family: 'Open Sans', verdana, arial, sans-serif; font-size: 14px; fill: rgb(42, 63, 95); opacity: 1; font-weight: normal; white-space: pre;">Cabal (m3/s)</text></g></g></svg>