<svg class="main-svg" xmlns="http://www.w3.org/2000/svg" xmlns:xlink="http://www.w3.org/1999/xlink" width="1000" height="500" style="" viewBox="0 0 1000 500"><rect x="0" y="0" width="1000" height="500" style="fill: rgb(255, 255, 255); fill-opacity: 1;"/><defs id="defs-edf1c1"><g class="clips"><clipPath id="clipedf1c1xyplot" class="plotclip"><rect width="840" height="320"/></clipPath><clipPath class="axesclip" id="clipedf1c1x"><rect x="80" y="0" width="840" height="500"/></clipPath><clipPath class="axesclip" id="clipedf1c1y"><rect x="0" y="100" width="1000" height="320"/></clipPath><clipPath class="axesclip" id="clipedf1c1xy"><rect x="80" y="100" width="840" height="320"/></clipPath></g><g class="gradients"/><g class="patterns"/></defs><g class="bglayer"><rect class="bg" x="80" y="100" width="840" height="320" style="fill: rgb(229, 236, 246); fill-opacity: 1; stroke-width: 0;"/></g><g class="layer-below"><g class="imagelayer"/><g class="shapelayer"/></g><g class="cartesianlayer"><g class="subplot xy"><g class="layer-subplot"><g class="shapelayer"/><g class="imagelayer"/></g><g class="minor-gridlayer"><g class="x"/><g class="y"/></g><g class="gridlayer"><g class="x"><path class="xgrid crisp" transform="translate(246.95,0)" d="M0,100v320" style="stroke: rgb(255, 255, 255); stroke-opacity: 1; stroke-width: 1px;"/><path class="xgrid crisp" transform="translate(455.61,0)" d="M0,100v320" style="stroke: rgb(255, 255, 255); stroke-opacity: 1; stroke-width: 1px;"/><path class="xgrid crisp" transform="translate(664.26,0)" d="M0,100v320" style="stroke: rgb(255, 255, 255); stroke-opacity: 1; stroke-width: 1px;"/><path class="xgrid crisp" transform="translate(872.92,0)" d="M0,100v320" style="stroke: rgb(255, 255, 255); stroke-opacity: 1; stroke-width: 1px;"/></g><g class="y"><path class="ygrid crisp" transform="translate(0,356.29)" d="M80,0h840" style="stroke: rgb(255, 255, 255); stroke-opacity: 1; stroke-width: 1px;"/><path class="ygrid crisp" transform="translate(0,308.58000000000004)" d="M80,0h840" style="stroke: rgb(255, 255, 255); stroke-opacity: 1; stroke-width: 1px;"/><path class="ygrid crisp" transform="translate(0,260.87)" d="M80,0h840" style="stroke: rgb(255, 255, 255); stroke-opacity: 1; stroke-width: 1px;"/><path class="ygrid crisp" transform="translate(0,213.15)" d="M80,0h840" style="stroke: rgb(255, 255, 255); stroke-opacity: 1; stroke-width: 1px;"/><path class="ygrid crisp" transform="translate(0,165.44)" d="M80,0h840" style="stroke: rgb(255, 255, 255); stroke-opacity: 1; stroke-width: 1px;"/><path class="ygrid crisp" transform="translate(0,117.73)" d="M80,0h840" style="stroke: rgb(255, 255, 255); stroke-opacity: 1; stroke-width: 1px;"/></g></g><g class="zerolinelayer"><path class="yzl zl crisp" transform="translate(0,404)" d="M80,0h840" style="stroke: rgb(255, 255, 255); stroke-opacity: 1; stroke-width: 2px;"/></g><path class="xlines-below"/><path class="ylines-below"/><g class="overlines-below"/><g class="xaxislayer-below"/><g class="yaxislayer-below"/><g class="overaxes-below"/><g class="plot" transform="translate(80,100)" clip-path="url(#clipedf1c1xyplot)"><g class="scatterlayer mlayer"><g class="trace scatter trace82955e" style="stroke-miterlimit: 2; opacity: 1;"><g class="fills"/><g class="errorbars"/><g class="lines"><path class="js-line" d="M0,289.19L1.26,296.37L1.37,295.99L1.6,283.85L1.71,227.98L2.63,286L2.74,286.42L4.8,298.46L4.91,302.01L5.14,297.9L5.71,300.98L5.83,300.92L6.17,300.91L6.28,298.78L7.31,301.05L7.43,301.13L7.54,300.84L8.11,301.22L8.23,301.73L9.14,302.47L9.26,302.57L9.6,302.68L9.71,301.97L9.83,302.33L9.94,302.13L10.06,301.72L10.51,302.62L10.63,302.69L13.71,303.17L13.83,302.75L14.06,302.83L14.17,302.33L14.28,302.07L15.31,303.17L15.43,303.28L16.91,303.22L17.03,303.35L19.31,303.85L19.43,303.87L23.31,304L23.43,304L30.17,303.95L30.28,303.03L30.4,302.86L30.62,303.55L30.74,303.8L32.91,303.72L33.02,303.72L34.05,303.54L34.17,303.55L36.22,303.46L36.34,303.15L36.57,298.7L37.02,302.01L37.14,302.28L38.74,303.3L38.85,303.33L41.94,303.38L42.05,302.96L42.17,302.39L42.74,302.86L42.85,302.89L44.34,303.09L44.45,303.05L46.74,303.16L46.85,302.38L47.65,302.77L47.76,302.82L48.79,302.83L48.91,300.42L49.02,298.35L49.48,301.72L49.59,301.92L51.08,303.05L51.19,303.05L52.11,303.05L52.22,301.95L52.68,281.56L53.02,290.76L53.14,279.8L53.25,271.48L53.71,290.15L53.82,292.05L55.08,301.46L55.19,301.57L55.42,301.87L55.76,301.24L55.88,300.9L55.99,301.19L56.11,300.54L56.22,208.52L57.59,295.68L57.71,296.71L58.05,296.08L58.96,301.47L59.08,301.62L59.31,301.97L59.42,298L59.53,290.41L60.11,296.93L60.22,298.53L61.36,302.93L61.48,303.06L63.19,303.53L63.31,303.57L65.71,303.98L65.82,302.26L65.93,296.11L66.51,303.16L66.62,303.26L67.08,302.08L67.19,302.64L67.31,303L68.56,303.74L68.68,302.85L68.9,298.35L69.48,301.74L69.59,301.83L70.73,303.08L70.85,302.96L71.76,303.31L71.88,303.13L71.99,302L73.02,303.39L73.13,303.34L73.25,303.4L73.7,303.48L73.82,295.79L73.93,289.68L74.39,299.9L74.5,300.82L75.53,302.7L75.65,302.75L77.7,303.15L77.82,303.14L78.05,301.91L78.73,302.04L78.85,302.23L78.96,302.35L79.07,301.71L79.19,297.24L80.22,302.28L80.33,302.34L80.79,302.44L80.9,293.57L81.02,270.43L81.59,297.72L81.7,298.8L82.85,301.8L82.96,301.86L83.87,302.34L83.99,297.01L84.1,295.62L84.45,299.27L84.56,300.23L85.47,301.82L85.59,301.22L86.62,302.36L86.73,302.34L88.33,302.6L88.45,302.6L89.02,302.34L89.13,290.47L89.25,285.72L89.7,293.25L89.82,216.27L89.93,203.6L90.04,262.49L90.16,278.68L91.19,296.69L91.3,297.58L93.02,301.21L93.13,301.3L93.36,295.18L93.93,296.5L94.04,298.13L94.62,300.01L94.73,295.72L95.76,300.76L95.87,300.8L97.7,302.55L97.82,301.28L97.93,300.96L98.27,302.26L98.39,302.38L99.76,303.1L99.87,302.41L99.99,302.17L100.33,302.81L100.44,303.02L102.84,303.99L102.96,303.99L111.64,303.99L111.76,303.52L112.67,303.93L112.78,303.96L114.96,303.54L115.07,303.14L115.18,303.02L115.64,303.59L115.76,303.64L116.21,303.38L116.33,301.79L116.56,229.4L116.78,257.3L116.9,283.25L117.93,296.61L118.04,293.68L118.16,288.14L118.61,297.3L118.73,298.05L119.76,301.24L119.87,300.75L119.98,300.35L120.33,301.17L120.67,300.93L120.78,292.89L121.01,295.53L121.13,296.78L121.47,299.31L121.81,296.19L121.93,253.75L122.95,293.78L123.07,295.02L124.44,300.25L124.55,300.34L124.78,300.1L125.01,300.65L125.13,300.85L127.87,302.04L127.98,302.04L128.21,301.58L128.67,302.21L128.78,302.23L130.38,302.2L130.5,300.64L130.73,301.65L130.84,300.24L130.95,264.72L131.41,293.54L131.75,285.58L131.87,289.25L133.12,298.79L133.24,299.28L134.27,300.93L134.38,300.61L134.5,300.3L134.61,300.79L135.07,300.13L135.18,299.33L135.3,207.52L135.87,291.93L135.98,293.07L136.21,295.13L136.44,290.97L136.55,291.21L136.67,290.88L136.78,292.45L136.9,293.41L137.12,293.74L137.24,288.51L138.04,304L138.15,304L157.01,304" style="vector-effect: non-scaling-stroke; fill: none; stroke: rgb(255, 0, 0); stroke-opacity: 1; stroke-width: 2px; opacity: 1;"/><path class="js-line" d="M157.24,304L211.74,304L211.86,269.85L212.66,304L212.77,304L220.88,304" style="vector-effect: non-scaling-stroke; fill: none; stroke: rgb(255, 0, 0); stroke-opacity: 1; stroke-width: 2px; opacity: 1;"/><path class="js-line" d="M238.71,302.48L239.05,302.06L240.31,303.5L240.42,303.52L241,303.62L241.11,302L241.68,303.17L241.8,300.11L241.91,298.19L242.37,302.08L242.48,302.43L243.74,303.27L243.85,303.31L255.74,303.32L255.85,302L256.88,303.17L256.99,303.25L259.96,303.57L260.08,303.52L260.76,303.29L260.88,286.15L261.79,300.95L261.91,301.14L262.14,294.49L262.59,300.14L262.71,300.77L263.74,302.53L263.96,302.15L264.08,301.27L264.19,300.45L264.65,301.81L264.76,301.9L264.88,301.52L265.34,302.4L265.45,302.59L265.68,301.71L266.02,303.02L266.14,303.19L266.94,303.57L267.05,303.01L268.88,303.24L268.99,303.24L274.48,303.12L274.59,301.9L275.16,301.57L276.08,303.44L276.19,303.35L277.68,303.39L277.79,303.42L279.5,303.25L279.62,303.25L283.39,303.27L283.5,303.48L284.99,303.8L285.1,303.81L292.3,303.42L292.42,301.31L293.22,303.49L293.33,303.48L293.45,303.49L295.85,303.69L295.96,302.04L297.56,303.57L297.67,303.51L298.59,303.56L298.7,303.57L301.33,303.48L301.44,301.75L302.24,303.39L302.36,301.48L303.96,303.21L304.07,303.06L304.3,303.06L304.42,302.21L304.99,301.61L305.1,301.65L305.22,302.44L306.13,303.52L306.24,303.59L306.82,303.56L306.93,302.41L307.04,288.46L307.62,300L307.73,300.52L308.53,302.07L308.64,300.29L308.76,295.91L309.33,301.26L309.44,300.49L309.79,299.52L309.9,299.79L310.01,293.62L311.16,301.14L311.27,287.27L312.41,302.18L312.53,302.38L313.56,303.61L313.67,303.61L326.81,303.14L326.93,301.93L327.04,289.97L327.61,301.93L327.73,302.28L328.87,303.27L328.98,303.29L331.27,303.41L331.38,302.65L332.41,303.16L332.53,303.23L333.1,303.29L333.21,302.48L333.44,256L333.9,294.79L334.01,296.59L334.81,300.47L334.93,289.9L335.95,300.66L336.07,300.4L336.18,300.46L337.21,301.53L337.33,300.46L337.67,266.93L338.13,286.37L338.24,289.66L339.27,297.96L339.38,298.2L340.75,300.95L340.87,300.96L341.1,300.77L341.44,301.38L341.55,301.44L343.72,302.14L343.84,300.73L343.95,301.06L344.07,299.98L344.18,295.51L344.75,299.91L345.1,298.48L345.21,298.65L345.55,296.79L345.9,298.72L346.01,298.68L346.12,298.23L346.58,299.4L346.7,299.77L347.15,299.02L347.5,300.3L347.61,299.23L348.64,301.41L348.75,301.45L348.98,301.77L349.1,300.93L349.21,296.71L350.24,302.79L350.35,302.85L352.64,303.61L352.75,303.64L353.21,303.72L353.32,303.07L353.44,302.5L354.35,303.72L354.47,303.75L359.84,303.76L359.95,303.76L367.15,303.76L367.26,302.38L367.49,300.24L367.61,299.06L368.52,303.34L368.64,303.37L371.84,303.5L371.95,303.17L373.21,303.51L373.32,303.51L374.46,303.3L374.58,302.59L374.81,300.69L375.15,302.58L375.26,302.79L375.95,303.22L376.18,302.93L376.29,302.64L376.41,300.41L376.86,302.76L376.98,302.72L377.09,302.05L377.21,301.42L377.78,302.34L377.89,302.32L379.03,303.02L379.15,302.94L379.95,302.76L380.06,291.71L380.75,300.68L381.09,299.65L381.21,293.6L381.32,283.54L381.89,298.36L382.01,298.73L382.46,300.12L382.58,299.31L382.69,296.8L383.03,299.6L383.15,293.06L383.26,283.86L383.83,295.46L383.95,296.06L385.32,299.79L385.43,300.1L386.12,300.67L386.23,299.14L388.18,301.72L388.29,301.87L389.32,302.66L389.43,301.28L389.55,296.81L389.66,264.09L390.46,295.99L390.69,292.18L390.8,277.05L391.83,299.08L391.95,299.6L393.32,302.22L393.43,302.35L394.12,302.11L394.23,302.52L394.35,302.5L395.03,300.63L395.15,301.74L395.26,302.3L396.52,303.49L396.63,303.55L401.66,303.06L401.77,302.64L403.6,303.71L403.72,303.71L405.09,303.71L405.2,302.13L405.32,295.68L405.89,302.69L406,297.73L406.12,296.13L407.03,303.08L407.14,303.14L407.72,303.35L407.83,297.96L407.94,296.06L408.06,265.6L409.43,301.15L409.54,301.42L410.69,302.33L410.8,302.44L413.54,302.96L413.66,302.25L413.77,302.05L414.12,302.85L414.23,302.91L416.17,302.57L416.29,297.99L416.4,297.88L416.51,299.65L417.66,302.06L417.77,302.16L419.49,302.73L419.6,302.78L420.4,302.62L420.51,297.64L421.66,302.12L421.77,302.17L422.69,302.23L422.8,301.77L423.71,302.71L423.83,302.75L424.17,302.79L424.29,301.39L425.2,302.57L425.31,272.36L425.66,202.4L426,278.46L426.11,286.46L427.14,298.45L427.26,298.67L429.08,300.96L429.2,300.96L430.11,301.06L430.23,296.1L431.14,301.01L431.26,301.08L432.4,301.96L432.51,301.8L432.63,298.83L433.43,302.44L433.54,302.26L433.66,302.65L434.34,303.12L434.46,301.39L434.8,302.24L434.91,299.31L435.03,292.61L435.26,299.9L435.83,298.44L435.94,299.27L437.54,303.19L437.65,303.2L439.48,303.51L439.6,302.59L440.51,303.36L440.63,303.42L440.85,302.73L440.97,295.2L441.88,303.04L442,303.16L444.51,303.78L444.63,303.78L451.14,303.15L451.25,298.27L451.37,302.31L451.6,289.81L452.05,300.66L452.17,301.41L452.28,300.98L452.4,293.64L452.62,271.61L453.08,296.64L453.2,298.49L453.31,299.42L453.54,298.49L453.65,267.39L453.77,193.9L454.11,282.6L454.45,214.6L454.57,253.5L455.48,296.05L455.6,296.8L457.42,300.32L457.54,300.43L460.85,301.49L460.97,301.38L462.11,302.05L462.22,301.44L463.02,302.23L463.14,302.2L463.25,302.32L468.05,302.92L468.16,302.55L468.28,299.89L468.85,302.45L468.96,302.38L469.54,302.83L469.65,302.06L469.76,299.06L470.34,301.91L470.45,301.95L470.68,302.21L470.79,301.79L470.91,301.04L471.02,300.46L471.48,301.84L471.59,301.84L472.51,302.7L472.62,302.09L472.85,301.47L473.08,302.13L473.19,302.38L473.42,302.5L473.54,301.71L474.22,302.85L474.45,302.74L474.56,302.83L474.91,302.99L475.02,300.67L475.14,299.41L475.48,302.33L475.59,302.62L475.82,302.78L475.94,302.34L476.05,301.62L476.62,302.97L476.85,302.4L476.96,302.81L478.68,303.06L478.79,303.06L479.93,303.81L480.05,303.86L492.5,303.86L492.62,300.95L493.08,303.05L493.19,298.56L493.42,302.09L493.53,302.57L493.65,302.85L493.76,285.49L494.56,302.28L494.68,302.2L494.79,302.64L496.73,303.06L496.85,301.17L496.96,300.54L497.3,302.64L497.42,302.74L498.9,303.27L499.02,303.27L502.79,303.27L502.9,302.64L503.36,302.11L503.7,302.64L503.82,302.64L503.93,302.32L504.5,302.64L504.62,302.95L505.99,303.4L506.1,303.4L507.47,302.91L507.59,300.62L507.93,302.85L508.05,275.43L508.16,240.05L508.73,296.96L508.85,298.22L510.1,301.71L510.22,301.6L510.33,301.71L511.02,302.28L511.13,300.91L511.47,301.88L511.59,301.08L511.7,299.65L512.73,302.17L512.84,302.28L513.76,302.8L513.87,301.37L513.99,301.48L514.1,297.7L514.44,294.04L514.79,298.39L514.9,299.08L515.93,301.82L516.04,301.42L516.16,300.74L516.73,298.89L516.96,300.09L517.07,300.32L517.76,300.14L517.99,300.66L518.1,300.69L518.56,300.76L518.67,302L518.79,302.8L519.02,300.82L519.47,302.65L519.59,302.82L529.3,303.06L529.41,302.96L529.76,301.37L529.87,302.55L529.99,302.57L530.67,303.22L530.78,303.59L532.38,303.68L532.5,303.26L532.61,301.9L533.07,303.36L533.18,303.33L533.3,303.34L535.13,303.6L535.24,303.58L537.3,303.58L537.41,302.21L537.53,283.66L538.1,301.37L538.21,301.79L539.47,302.98L539.58,303.02L541.07,303.15L541.18,302.32L542.1,303.19L542.21,303.24L544.5,303.24L544.61,301.65L545.41,303.08L545.53,303.06L545.64,303.04L546.1,303.06L546.21,301.81L547.01,303L547.13,302.01L548.15,302.87L548.27,302.96L552.61,303.18L552.72,302.72L552.95,303.08L553.07,302.99L553.18,300.62L554.55,303.27L554.67,303.33L555.7,302.8L555.81,302.6L556.84,303.46L556.95,303.48L559.12,303.42L559.24,302.17L560.15,303.3L560.27,303.42L561.3,303.64L561.41,301.46L561.87,301.15L562.44,303.43L562.55,303.48L563.12,302.2L563.24,303.01L563.35,303.28L563.81,303.61L564.15,303.25L564.27,303.01L565.29,303.72L565.41,303.76L566.67,303.66L566.78,303.72L568.61,303.85L568.72,303.85L569.18,303.58L569.29,300.6L570.21,303.75L570.32,303.75L570.78,303.81L570.89,303.04L571.01,302.68L571.47,303.55L571.58,303.63L572.04,303.6L572.15,297.42L572.26,297.21L572.38,298.64L573.29,303.28L573.41,301.16L573.52,252.89L574.09,300.39L574.21,292.98L575.12,302.49L575.24,302.63L576.95,303.31L577.06,303.33L577.52,303.35L577.64,302.34L578.78,303.25L578.89,303.27L580.15,303.18L580.26,302.93L580.38,303.04L580.49,299.83L580.72,255.13L581.18,295.47L581.29,297.26L582.21,300.75L582.32,294.28L582.44,293.21L582.66,297.52L582.78,298.63L583.81,300.77L583.92,301.02L584.95,301.91L585.06,301.95L586.21,302.55L586.32,301.49L586.43,301.11L586.78,302.29L586.89,302.43L587.92,302.7L588.03,302.42L588.26,301.77L588.72,302.68L588.83,302.67L590.32,302.83L590.43,301.36L591.23,302.89L591.35,302.44L591.46,301.9L591.81,302.81L591.92,302.83L592.03,302.86L592.38,302.95L592.49,301.56L593.18,302.54L593.29,292.64L593.4,290.3L593.52,295.55L593.86,294.95L593.98,296.81L595,300.84L595.12,301.1L596.49,302.43L596.6,301.85L596.72,301.56L597.06,302.51L597.18,302.58L597.86,302.63L597.98,300.19L599.69,302.33L599.8,302.27L600.15,301.56L601.75,303.71L601.86,303.74L603.23,303.44L603.35,303.18L604.37,303.9L604.49,303.91L607.23,303.84L607.35,302.72L607.46,301.66L608.03,303.31L608.15,303.48L608.37,303.69L608.49,300.48L608.6,300.29L608.72,301.33L608.83,301.81L609.86,303.8L609.97,286.45L610.09,276.75L610.55,297.34L610.66,298.32L611.92,303.26L612.03,303.26L612.37,302.76L612.49,303.13L612.6,303.56L614.09,303.9L614.2,303.91L615.23,303.91L615.34,303.16L615.46,302.19L616.03,303.6L616.14,303.65L619,303.69L619.12,302.84L619.23,289.82L619.8,302.58L619.92,302.77L623.46,303.55L623.57,303.55L632.49,303.06L632.6,301.56L633.51,303.36L633.63,303.24L634.54,303.49L634.66,303.17L634.77,303.05L635.8,303.36L635.91,303.4L636.71,303.48L636.83,301.26L636.94,299.41L637.51,302.04L637.63,302.33L638.54,303.33L638.66,302.11L638.77,300.86L639.34,302.57L639.46,302.42L640.6,303.22L640.71,302.72L641.28,300.22L641.51,301.82L641.63,302.16L641.86,301.98L643,303.31L643.11,303.03L643.23,302.42L643.68,303.38L643.8,303.35L643.91,303.44L645.28,303.69L645.4,303.24L646.43,303.87L646.54,303.87L655.11,304L655.23,303.76L658.42,303.89L658.54,301.13L658.77,295.71L659.22,302.08L659.34,302.69L660.25,303.47L660.37,303.49L663.11,303.54L663.22,301.96L663.45,298.66L663.68,301.31L663.8,300.89L664.94,302.89L665.05,302.98L665.85,303.26L665.97,302.86L666.08,301.69L666.99,302.73L667.11,302.83L669.17,303.29L669.28,303.34L669.97,303.11L670.08,299.55L670.31,293.41L670.42,294.91L670.54,297.67L670.77,299.6L670.88,292.36L670.99,292.61L672.02,300.39L672.14,300.2L672.59,301.2L672.71,300.87L672.82,290.86L673.85,300.42L674.08,299.97L674.19,300.54L674.77,301.42L674.88,297.9L675.79,301.36L675.91,301.43L677.05,302.5L677.17,302.2L677.28,285.07L678.19,299.79L678.31,300.14L679.91,302.51L680.02,302.6L680.82,303.02L680.94,302.84L681.05,301.3L682.31,303.08L682.42,303.11L682.76,302.47L682.99,303.23L683.11,303.27L685.39,303.73L685.51,303.63L693.28,304L693.39,304L696.13,303.6L696.25,301.83L697.05,303.87L697.16,303.83L699.1,303.86L699.22,303.84L700.93,303.89L701.05,300.49L701.16,297.43L701.62,303.02L701.73,303.19L703.45,303.55L703.56,303.55L709.73,303.61L709.85,303.6L710.19,303.35L710.3,302.44L710.87,303.48L711.22,303.38L711.33,303.41L712.25,303.5L712.36,302.77L712.47,302.3L712.93,303.24L713.05,303.21L713.16,302.86L713.39,303.17L713.5,296.65L713.62,291.3L714.07,300.77L714.19,301.31L714.42,301.07L715.9,302.66L716.02,302.37L716.25,300.48L716.36,298.92L717.96,302.35L718.07,302.41L718.76,302.74L718.87,301.17L718.99,298.91L719.56,301.17L719.67,301.35L720.47,302.58L720.59,302.21L720.7,300.88L720.82,301.45L720.93,271.36L721.96,298.11L722.07,298.8L723.44,301.48L723.56,301.68L723.9,301.72L724.02,301.54L724.13,300.65L724.47,301.43L724.59,288.3L725.62,300.2L725.73,300.17L725.84,300.62L726.87,302.62L726.99,302.54L727.1,301.47L727.56,300.32L727.9,302.28L728.02,302.06L729.04,303.37L729.16,303.42L731.1,303.63L731.21,303.17L731.79,303.76L732.13,303.54L732.24,303.64L732.59,303.48L732.7,302.8L733.61,303.81L733.73,303.83L735.56,303.46L735.67,303.31L736.7,303.82L736.81,303.82L737.04,303.81L737.16,302.94L737.73,303.59L737.84,303.38L737.96,301.82L739.1,303.67L739.21,303.66L741.61,303.6L741.73,296.37L742.07,302.81L742.18,292.02L742.3,234.2L743.21,299.69L743.33,300.19L743.56,300.9L743.67,298.63L743.78,297.06L744.01,299.06L744.13,286.45L744.24,271.4L744.7,295.04L744.81,291.88L744.93,294.7L745.04,296.24L745.16,284.94L745.73,296.93L745.84,251.59L746.07,267.96L746.3,219.5L746.41,255.17L746.53,269.52L747.44,294.94L747.56,295.74L748.58,299.19L748.7,299.39L752.81,301.84L752.93,301.58L754.18,302.14L754.3,302.02L755.55,302.52L755.67,302.59L758.87,302.91L758.98,302.92L761.04,303.05L761.15,303.07L761.61,303.09L761.72,302.12L761.95,302.2L762.52,300.95L762.64,301.78L763.55,302.88L763.67,302.93L765.04,303.15L765.15,302.34L765.27,301.38L765.72,302.83L765.84,302.92L766.75,303.28L766.87,301.69L766.98,301.02L767.32,302.73L767.44,302.86L768.47,303.01L768.58,303.1L769.61,303.5L769.72,302.94L771.55,303.66L771.67,303.67L781.27,303.92L781.38,302.89L782.41,303.76L782.52,303.78L784.81,303.9L784.92,285.16L785.84,302.73L785.95,302.92L788.24,303.47L788.35,303.35L788.46,298.76L789.04,302.72L789.15,302.81L789.61,303.05L789.72,296.47L789.84,220.1L790.41,295.65L790.52,297.18L791.44,300.58L791.55,299.4L791.66,299.43L792.92,301.61L793.03,301.71L793.83,302.38L793.95,301.12L794.98,302.59L795.09,302.28L795.21,174.85L795.32,16L795.78,274.21L795.89,281.9L797.03,295.48L797.15,295.81L798.98,299.91L799.09,300L801.38,301.01L801.49,299.88L801.61,296.39L802.18,300.2L802.29,300.26L803.32,300.45L803.43,296.57L804.46,300.15L804.58,300.27L805.49,277.31L805.6,232.4L805.72,137.88L806.18,284.93L806.29,288.2L807.32,296.96L807.43,297.54L807.78,298L807.89,295.73L808.12,297.31L808.35,295.16L808.69,297L808.8,297.19L810.52,300.21L810.63,300L811.43,296.86L811.55,297.42L812.69,299.68L812.8,299.83L813.83,300.39L813.95,295.91L814.97,300.4L815.09,300.49L815.32,300.61L815.43,288.31L816.23,303.25L816.35,303.19L817.37,303.42" style="vector-effect: non-scaling-stroke; fill: none; stroke: rgb(255, 0, 0); stroke-opacity: 1; stroke-width: 2px; opacity: 1;"/><path class="js-line" d="M817.6,302.65L818.52,303.46L818.63,303.47L820.46,303.35L820.57,302.55L820.69,300.33L821.26,303.25L821.37,303.26L821.83,302.13L822.06,303.02L822.17,303.2L823.09,303.26L823.2,301.85L824.12,303.27L824.23,303.27L825.26,302.91L825.37,300.43L826.17,302.99L826.29,303.03L828.46,302.75L828.57,302.23L829.26,303.08L829.37,303.05L829.49,303.1L830.52,303.14L830.63,299.03L830.74,296.81L830.86,271.17L831.77,300.83L831.89,301.12L833.03,302.33L833.14,301.84L833.26,299.09L834.17,302.02L834.29,302.03L835.54,302.61L835.66,301.38L835.77,300.75L836.23,302.31L836.34,302.36L838.06,302.44L838.17,302.34L838.86,302.68L838.97,300.28L839.66,302.36L840,302.21" style="vector-effect: non-scaling-stroke; fill: none; stroke: rgb(255, 0, 0); stroke-opacity: 1; stroke-width: 2px; opacity: 1;"/></g><g class="points"/><g class="text"/></g><g class="trace scatter trace8f90e1" style="stroke-miterlimit: 2; opacity: 1;"><g class="fills"/><g class="errorbars"/><g class="lines"><path class="js-line" d="M0,289.19L1.26,296.37L1.37,295.99L1.6,283.85L1.71,227.98L2.63,286L2.74,286.42L4.8,298.46L4.91,302.01L5.14,297.9L5.71,300.98L5.83,300.92L6.17,300.91L6.28,298.78L7.31,301.05L7.43,301.13L7.54,300.84L8.11,301.22L8.23,301.73L9.14,302.47L9.26,302.57L9.6,302.68L9.71,301.97L9.83,302.33L9.94,302.13L10.06,301.72L10.51,302.62L10.63,302.69L13.71,303.17L13.83,302.75L14.06,302.83L14.17,302.33L14.28,302.07L15.31,303.17L15.43,303.28L16.91,303.22L17.03,303.35L19.31,303.85L19.43,303.87L23.31,304L23.43,304L30.17,303.95L30.28,303.03L30.4,302.86L30.62,303.55L30.74,303.8L32.91,303.72L33.02,303.72L34.05,303.54L34.17,303.55L36.22,303.46L36.34,303.15L36.57,298.7L37.02,302.01L37.14,302.28L38.74,303.3L38.85,303.33L41.94,303.38L42.05,302.96L42.17,302.39L42.74,302.86L42.85,302.89L44.34,303.09L44.45,303.05L46.74,303.16L46.85,302.38L47.65,302.77L47.76,302.82L48.79,302.83L48.91,300.42L49.02,298.35L49.48,301.72L49.59,301.92L51.08,303.05L51.19,303.05L52.11,303.05L52.22,301.95L52.68,281.56L53.02,290.76L53.14,279.8L53.25,271.48L53.71,290.15L53.82,292.05L55.08,301.46L55.19,301.57L55.42,301.87L55.76,301.24L55.88,300.9L55.99,301.19L56.11,300.54L56.22,208.52L57.59,295.68L57.71,296.71L58.05,296.08L58.96,301.47L59.08,301.62L59.31,301.97L59.42,298L59.53,290.41L60.11,296.93L60.22,298.53L61.36,302.93L61.48,303.06L63.19,303.53L63.31,303.57L65.71,303.98L65.82,302.26L65.93,296.11L66.51,303.16L66.62,303.26L67.08,302.08L67.19,302.64L67.31,303L68.56,303.74L68.68,302.85L68.9,298.35L69.48,301.74L69.59,301.83L70.73,303.08L70.85,302.96L71.76,303.31L71.88,303.13L71.99,302L73.02,303.39L73.13,303.34L73.25,303.4L73.7,303.48L73.82,295.79L73.93,289.68L74.39,299.9L74.5,300.82L75.53,302.7L75.65,302.75L77.7,303.15L77.82,303.14L78.05,301.91L78.73,302.04L78.85,302.23L78.96,302.35L79.07,301.71L79.19,297.24L80.22,302.28L80.33,302.34L80.79,302.44L80.9,293.57L81.02,270.43L81.59,297.72L81.7,298.8L82.85,301.8L82.96,301.86L83.87,302.34L83.99,297.01L84.1,295.62L84.45,299.27L84.56,300.23L85.47,301.82L85.59,301.22L86.62,302.36L86.73,302.34L88.33,302.6L88.45,302.6L89.02,302.34L89.13,290.47L89.25,285.72L89.7,293.25L89.82,216.27L89.93,203.6L90.04,262.49L90.16,278.68L91.19,296.69L91.3,297.58L93.02,301.21L93.13,301.3L93.36,295.18L93.93,296.5L94.04,298.13L94.62,300.01L94.73,295.72L95.76,300.76L95.87,300.8L97.7,302.55L97.82,301.28L97.93,300.96L98.27,302.26L98.39,302.38L99.76,303.1L99.87,302.41L99.99,302.17L100.33,302.81L100.44,303.02L102.84,303.99L102.96,303.99L111.64,303.99L111.76,303.52L112.67,303.93L112.78,303.96L114.96,303.54L115.07,303.14L115.18,303.02L115.64,303.59L115.76,303.64L116.21,303.38L116.33,301.79L116.56,229.4L116.78,257.3L116.9,283.25L117.93,296.61L118.04,293.68L118.16,288.14L118.61,297.3L118.73,298.05L119.76,301.24L119.87,300.75L119.98,300.35L120.33,301.17L120.67,300.93L120.78,292.89L121.01,295.53L121.13,296.78L121.47,299.31L121.81,296.19L121.93,253.75L122.95,293.78L123.07,295.02L124.44,300.25L124.55,300.34L124.78,300.1L125.01,300.65L125.13,300.85L127.87,302.04L127.98,302.04L128.21,301.58L128.67,302.21L128.78,302.23L130.38,302.2L130.5,300.64L130.73,301.65L130.84,300.24L130.95,264.72L131.41,293.54L131.75,285.58L131.87,289.25L133.12,298.79L133.24,299.28L134.27,300.93L134.38,300.61L134.5,300.3L134.61,300.79L135.07,300.13L135.18,299.33L135.3,207.52L135.87,291.93L135.98,293.07L136.21,295.13L136.44,290.97L136.55,291.21L136.67,290.88L136.78,292.45L136.9,293.41L137.12,293.74" style="vector-effect: non-scaling-stroke; fill: none; stroke: rgb(0, 0, 255); stroke-opacity: 1; stroke-width: 2px; opacity: 1;"/><path class="js-line" d="M238.71,302.48L239.05,302.06L240.31,303.5L240.42,303.52L241,303.62L241.11,302L241.68,303.17L241.8,300.11L241.91,298.19L242.37,302.08L242.48,302.43L243.74,303.27L243.85,303.31L255.74,303.32L255.85,302L256.88,303.17L256.99,303.25L259.96,303.57L260.08,303.52L260.76,303.29L260.88,286.15L261.79,300.95L261.91,301.14L262.14,294.49L262.59,300.14L262.71,300.77L263.74,302.53L263.96,302.15L264.08,301.27L264.19,300.45L264.65,301.81L264.76,301.9L264.88,301.52L265.34,302.4L265.45,302.59L265.68,301.71L266.02,303.02L266.14,303.19L266.94,303.57L267.05,303.01L268.88,303.24L268.99,303.24L274.48,303.12L274.59,301.9L275.16,301.57L276.08,303.44L276.19,303.35L277.68,303.39L277.79,303.42L279.5,303.25L279.62,303.25L283.39,303.27L283.5,303.48L284.99,303.8L285.1,303.81L292.3,303.42L292.42,301.31L293.22,303.49L293.33,303.48L293.45,303.49L295.85,303.69L295.96,302.04L297.56,303.57L297.67,303.51L298.59,303.56L298.7,303.57L301.33,303.48L301.44,301.75L302.24,303.39L302.36,301.48L303.96,303.21L304.07,303.06L304.3,303.06L304.42,302.21L304.99,301.61L305.1,301.65L305.22,302.44L306.13,303.52L306.24,303.59L306.82,303.56L306.93,302.41L307.04,288.46L307.62,300L307.73,300.52L308.53,302.07L308.64,300.29L308.76,295.91L309.33,301.26L309.44,300.49L309.79,299.52L309.9,299.79L310.01,293.62L311.16,301.14L311.27,287.27L312.41,302.18L312.53,302.38L313.56,303.61L313.67,303.61L326.81,303.14L326.93,301.93L327.04,289.97L327.61,301.93L327.73,302.28L328.87,303.27L328.98,303.29L331.27,303.41L331.38,302.65L332.41,303.16L332.53,303.23L333.1,303.29L333.21,302.48L333.44,256L333.9,294.79L334.01,296.59L334.81,300.47L334.93,289.9L335.95,300.66L336.07,300.4L336.18,300.46L337.21,301.53L337.33,300.46L337.67,266.93L338.13,286.37L338.24,289.66L339.27,297.96L339.38,298.2L340.75,300.95L340.87,300.96L341.1,300.77L341.44,301.38L341.55,301.44L343.72,302.14L343.84,300.73L343.95,301.06L344.07,299.98L344.18,295.51L344.75,299.91L345.1,298.48L345.21,298.65L345.55,296.79L345.9,298.72L346.01,298.68L346.12,298.23L346.58,299.4L346.7,299.77L347.15,299.02L347.5,300.3L347.61,299.23L348.64,301.41L348.75,301.45L348.98,301.77L349.1,300.93L349.21,296.71L350.24,302.79L350.35,302.85L352.64,303.61L352.75,303.64L353.21,303.72L353.32,303.07L353.44,302.5L354.35,303.72L354.47,303.75L359.84,303.76L359.95,303.76L367.15,303.76L367.26,302.38L367.49,300.24L367.61,299.06L368.52,303.34L368.64,303.37L371.84,303.5L371.95,303.17L373.21,303.51L373.32,303.51L374.46,303.3L374.58,302.59L374.81,300.69L375.15,302.58L375.26,302.79L375.95,303.22L376.18,302.93L376.29,302.64L376.41,300.41L376.86,302.76L376.98,302.72L377.09,302.05L377.21,301.42L377.78,302.34L377.89,302.32L379.03,303.02L379.15,302.94L379.95,302.76L380.06,291.71L380.75,300.68L381.09,299.65L381.21,293.6L381.32,283.54L381.89,298.36L382.01,298.73L382.46,300.12L382.58,299.31L382.69,296.8L383.03,299.6L383.15,293.06L383.26,283.86L383.83,295.46L383.95,296.06L385.32,299.79L385.43,300.1L386.12,300.67L386.23,299.14L388.18,301.72L388.29,301.87L389.32,302.66L389.43,301.28L389.55,296.81L389.66,264.09L390.46,295.99L390.69,292.18L390.8,277.05L391.83,299.08L391.95,299.6L393.32,302.22L393.43,302.35L394.12,302.11L394.23,302.52L394.35,302.5L395.03,300.63L395.15,301.74L395.26,302.3L396.52,303.49L396.63,303.55L401.66,303.06L401.77,302.64L403.6,303.71L403.72,303.71L405.09,303.71L405.2,302.13L405.32,295.68L405.89,302.69L406,297.73L406.12,296.13L407.03,303.08L407.14,303.14L407.72,303.35L407.83,297.96L407.94,296.06L408.06,265.6L409.43,301.15L409.54,301.42L410.69,302.33L410.8,302.44L413.54,302.96L413.66,302.25L413.77,302.05L414.12,302.85L414.23,302.91L416.17,302.57L416.29,297.99L416.4,297.88L416.51,299.65L417.66,302.06L417.77,302.16L419.49,302.73L419.6,302.78L420.4,302.62L420.51,297.64L421.66,302.12L421.77,302.17L422.69,302.23L422.8,301.77L423.71,302.71L423.83,302.75L424.17,302.79L424.29,301.39L425.2,302.57L425.31,272.36L425.66,202.4L426,278.46L426.11,286.46L427.14,298.45L427.26,298.67L429.08,300.96L429.2,300.96L430.11,301.06L430.23,296.1L431.14,301.01L431.26,301.08L432.4,301.96L432.51,301.8L432.63,298.83L433.43,302.44L433.54,302.26L433.66,302.65L434.34,303.12L434.46,301.39L434.8,302.24L434.91,299.31L435.03,292.61L435.26,299.9L435.83,298.44L435.94,299.27L437.54,303.19L437.65,303.2L439.48,303.51L439.6,302.59L440.51,303.36L440.63,303.42L440.85,302.73L440.97,295.2L441.88,303.04L442,303.16L444.51,303.78L444.63,303.78L451.14,303.15L451.25,298.27L451.37,302.31L451.6,289.81L452.05,300.66L452.17,301.41L452.28,300.98L452.4,293.64L452.62,271.61L453.08,296.64L453.2,298.49L453.31,299.42L453.54,298.49L453.65,267.39L453.77,193.9L454.11,282.6L454.45,214.6L454.57,253.5L455.48,296.05L455.6,296.8L457.42,300.32L457.54,300.43L460.85,301.49L460.97,301.38L462.11,302.05L462.22,301.44L463.02,302.23L463.14,302.2L463.25,302.32L468.05,302.92L468.16,302.55L468.28,299.89L468.85,302.45L468.96,302.38L469.54,302.83L469.65,302.06L469.76,299.06L470.34,301.91L470.45,301.95L470.68,302.21L470.79,301.79L470.91,301.04L471.02,300.46L471.48,301.84L471.59,301.84L472.51,302.7L472.62,302.09L472.85,301.47L473.08,302.13L473.19,302.38L473.42,302.5L473.54,301.71L474.22,302.85L474.45,302.74L474.56,302.83L474.91,302.99L475.02,300.67L475.14,299.41L475.48,302.33L475.59,302.62L475.82,302.78L475.94,302.34L476.05,301.62L476.62,302.97L476.85,302.4L476.96,302.81L478.68,303.06L478.79,303.06L479.93,303.81L480.05,303.86L492.5,303.86L492.62,300.95L493.08,303.05L493.19,298.56L493.42,302.09L493.53,302.57L493.65,302.85L493.76,285.49L494.56,302.28L494.68,302.2L494.79,302.64L496.73,303.06L496.85,301.17L496.96,300.54L497.3,302.64L497.42,302.74L498.9,303.27L499.02,303.27L502.79,303.27L502.9,302.64L503.36,302.11L503.7,302.64L503.82,302.64L503.93,302.32L504.5,302.64L504.62,302.95L505.99,303.4L506.1,303.4L507.47,302.91L507.59,300.62L507.93,302.85L508.05,275.43L508.16,240.05L508.73,296.96L508.85,298.22L510.1,301.71L510.22,301.6L510.33,301.71L511.02,302.28L511.13,300.91L511.47,301.88L511.59,301.08L511.7,299.65L512.73,302.17L512.84,302.28L513.76,302.8L513.87,301.37L513.99,301.48L514.1,297.7L514.44,294.04L514.79,298.39L514.9,299.08L515.93,301.82L516.04,301.42L516.16,300.74L516.73,298.89L516.96,300.09L517.07,300.32L517.76,300.14L517.99,300.66L518.1,300.69L518.56,300.76L518.67,302L518.79,302.8L519.02,300.82L519.47,302.65L519.59,302.82L529.3,303.06L529.41,302.96L529.76,301.37L529.87,302.55L529.99,302.57L530.67,303.22L530.78,303.59L532.38,303.68L532.5,303.26L532.61,301.9L533.07,303.36L533.18,303.33L533.3,303.34L535.13,303.6L535.24,303.58L537.3,303.58L537.41,302.21L537.53,283.66L538.1,301.37L538.21,301.79L539.47,302.98L539.58,303.02L541.07,303.15L541.18,302.32L542.1,303.19L542.21,303.24L544.5,303.24L544.61,301.65L545.41,303.08L545.53,303.06L545.64,303.04L546.1,303.06L546.21,301.81L547.01,303L547.13,302.01L548.15,302.87L548.27,302.96L552.61,303.18L552.72,302.72L552.95,303.08L553.07,302.99L553.18,300.62L554.55,303.27L554.67,303.33L555.7,302.8L555.81,302.6L556.84,303.46L556.95,303.48L559.12,303.42L559.24,302.17L560.15,303.3L560.27,303.42L561.3,303.64L561.41,301.46L561.87,301.15L562.44,303.43L562.55,303.48L563.12,302.2L563.24,303.01L563.35,303.28L563.81,303.61L564.15,303.25L564.27,303.01L565.29,303.72L565.41,303.76L566.67,303.66L566.78,303.72L568.61,303.85L568.72,303.85L569.18,303.58L569.29,300.6L570.21,303.75L570.32,303.75L570.78,303.81L570.89,303.04L571.01,302.68L571.47,303.55L571.58,303.63L572.04,303.6L572.15,297.42L572.26,297.21L572.38,298.64L573.29,303.28L573.41,301.16L573.52,252.89L574.09,300.39L574.21,292.98L575.12,302.49L575.24,302.63L576.95,303.31L577.06,303.33L577.52,303.35L577.64,302.34L578.78,303.25L578.89,303.27L580.15,303.18L580.26,302.93L580.38,303.04L580.49,299.83L580.72,255.13L581.18,295.47L581.29,297.26L582.21,300.75L582.32,294.28L582.44,293.21L582.66,297.52L582.78,298.63L583.81,300.77L583.92,301.02L584.95,301.91L585.06,301.95L586.21,302.55L586.32,301.49L586.43,301.11L586.78,302.29L586.89,302.43L587.92,302.7L588.03,302.42L588.26,301.77L588.72,302.68L588.83,302.67L590.32,302.83L590.43,301.36L591.23,302.89L591.35,302.44L591.46,301.9L591.81,302.81L591.92,302.83L592.03,302.86L592.38,302.95L592.49,301.56L593.18,302.54L593.29,292.64L593.4,290.3L593.52,295.55L593.86,294.95L593.98,296.81L595,300.84L595.12,301.1L596.49,302.43L596.6,301.85L596.72,301.56L597.06,302.51L597.18,302.58L597.86,302.63L597.98,300.19L599.69,302.33L599.8,302.27L600.15,301.56L601.75,303.71L601.86,303.74L603.23,303.44L603.35,303.18L604.37,303.9L604.49,303.91L607.23,303.84L607.35,302.72L607.46,301.66L608.03,303.31L608.15,303.48L608.37,303.69L608.49,300.48L608.6,300.29L608.72,301.33L608.83,301.81L609.86,303.8L609.97,286.45L610.09,276.75L610.55,297.34L610.66,298.32L611.92,303.26L612.03,303.26L612.37,302.76L612.49,303.13L612.6,303.56L614.09,303.9L614.2,303.91L615.23,303.91L615.34,303.16L615.46,302.19L616.03,303.6L616.14,303.65L619,303.69L619.12,302.84L619.23,289.82L619.8,302.58L619.92,302.77L623.46,303.55L623.57,303.55L632.49,303.06L632.6,301.56L633.51,303.36L633.63,303.24L634.54,303.49L634.66,303.17L634.77,303.05L635.8,303.36L635.91,303.4L636.71,303.48L636.83,301.26L636.94,299.41L637.51,302.04L637.63,302.33L638.54,303.33L638.66,302.11L638.77,300.86L639.34,302.57L639.46,302.42L640.6,303.22L640.71,302.72L641.28,300.22L641.51,301.82L641.63,302.16L641.86,301.98L643,303.31L643.11,303.03L643.23,302.42L643.68,303.38L643.8,303.35L643.91,303.44L645.28,303.69L645.4,303.24L646.43,303.87L646.54,303.87L655.11,304L655.23,303.76L658.42,303.89L658.54,301.13L658.77,295.71L659.22,302.08L659.34,302.69L660.25,303.47L660.37,303.49L663.11,303.54L663.22,301.96L663.45,298.66L663.68,301.31L663.8,300.89L664.94,302.89L665.05,302.98L665.85,303.26L665.97,302.86L666.08,301.69L666.99,302.73L667.11,302.83L669.17,303.29L669.28,303.34L669.97,303.11L670.08,299.55L670.31,293.41L670.42,294.91L670.54,297.67L670.77,299.6L670.88,292.36L670.99,292.61L672.02,300.39L672.14,300.2L672.59,301.2L672.71,300.87L672.82,290.86L673.85,300.42L674.08,299.97L674.19,300.54L674.77,301.42L674.88,297.9L675.79,301.36L675.91,301.43L677.05,302.5L677.17,302.2L677.28,285.07L678.19,299.79L678.31,300.14L679.91,302.51L680.02,302.6L680.82,303.02L680.94,302.84L681.05,301.3L682.31,303.08L682.42,303.11L682.76,302.47L682.99,303.23L683.11,303.27L685.39,303.73L685.51,303.63L693.28,304L693.39,304L696.13,303.6L696.25,301.83L697.05,303.87L697.16,303.83L699.1,303.86L699.22,303.84L700.93,303.89L701.05,300.49L701.16,297.43L701.62,303.02L701.73,303.19L703.45,303.55L703.56,303.55L709.73,303.61L709.85,303.6L710.19,303.35L710.3,302.44L710.87,303.48L711.22,303.38L711.33,303.41L712.25,303.5L712.36,302.77L712.47,302.3L712.93,303.24L713.05,303.21L713.16,302.86L713.39,303.17L713.5,296.65L713.62,291.3L714.07,300.77L714.19,301.31L714.42,301.07L715.9,302.66L716.02,302.37L716.25,300.48L716.36,298.92L717.96,302.35L718.07,302.41L718.76,302.74L718.87,301.17L718.99,298.91L719.56,301.17L719.67,301.35L720.47,302.58L720.59,302.21L720.7,300.88L720.82,301.45L720.93,271.36L721.96,298.11L722.07,298.8L723.44,301.48L723.56,301.68L723.9,301.72L724.02,301.54L724.13,300.65L724.47,301.43L724.59,288.3L725.62,300.2L725.73,300.17L725.84,300.62L726.87,302.62L726.99,302.54L727.1,301.47L727.56,300.32L727.9,302.28L728.02,302.06L729.04,303.37L729.16,303.42L731.1,303.63L731.21,303.17L731.79,303.76L732.13,303.54L732.24,303.64L732.59,303.48L732.7,302.8L733.61,303.81L733.73,303.83L735.56,303.46L735.67,303.31L736.7,303.82L736.81,303.82L737.04,303.81L737.16,302.94L737.73,303.59L737.84,303.38L737.96,301.82L739.1,303.67L739.21,303.66L741.61,303.6L741.73,296.37L742.07,302.81L742.18,292.02L742.3,234.2L743.21,299.69L743.33,300.19L743.56,300.9L743.67,298.63L743.78,297.06L744.01,299.06L744.13,286.45L744.24,271.4L744.7,295.04L744.81,291.88L744.93,294.7L745.04,296.24L745.16,284.94L745.73,296.93L745.84,251.59L746.07,267.96L746.3,219.5L746.41,255.17L746.53,269.52L747.44,294.94L747.56,295.74L748.58,299.19L748.7,299.39L752.81,301.84L752.93,301.58L754.18,302.14L754.3,302.02L755.55,302.52L755.67,302.59L758.87,302.91L758.98,302.92L761.04,303.05L761.15,303.07L761.61,303.09L761.72,302.12L761.95,302.2L762.52,300.95L762.64,301.78L763.55,302.88L763.67,302.93L765.04,303.15L765.15,302.34L765.27,301.38L765.72,302.83L765.84,302.92L766.75,303.28L766.87,301.69L766.98,301.02L767.32,302.73L767.44,302.86L768.47,303.01L768.58,303.1L769.61,303.5L769.72,302.94L771.55,303.66L771.67,303.67L781.27,303.92L781.38,302.89L782.41,303.76L782.52,303.78L784.81,303.9L784.92,285.16L785.84,302.73L785.95,302.92L788.24,303.47L788.35,303.35L788.46,298.76L789.04,302.72L789.15,302.81L789.61,303.05L789.72,296.47L789.84,220.1L790.41,295.65L790.52,297.18L791.44,300.58L791.55,299.4L791.66,299.43L792.92,301.61L793.03,301.71L793.83,302.38L793.95,301.12L794.98,302.59L795.09,302.28L795.21,174.85L795.32,16L795.78,274.21L795.89,281.9L797.03,295.48L797.15,295.81L798.98,299.91L799.09,300L801.38,301.01L801.49,299.88L801.61,296.39L802.18,300.2L802.29,300.26L803.32,300.45L803.43,296.57L804.46,300.15L804.58,300.27L805.49,277.31L805.6,232.4L805.72,137.88L806.18,284.93L806.29,288.2L807.32,296.96L807.43,297.54L807.78,298L807.89,295.73L808.12,297.31L808.35,295.16L808.69,297L808.8,297.19L810.52,300.21L810.63,300L811.43,296.86L811.55,297.42L812.69,299.68L812.8,299.83L813.83,300.39L813.95,295.91L814.97,300.4L815.09,300.49L815.32,300.61L815.43,288.31L816.23,303.25L816.35,303.19L817.37,303.42" style="vector-effect: non-scaling-stroke; fill: none; stroke: rgb(0, 0, 255); stroke-opacity: 1; stroke-width: 2px; opacity: 1;"/><path class="js-line" d="M817.6,302.65L818.52,303.46L818.63,303.47L820.46,303.35L820.57,302.55L820.69,300.33L821.26,303.25L821.37,303.26L821.83,302.13L822.06,303.02L822.17,303.2L823.09,303.26L823.2,301.85L824.12,303.27L824.23,303.27L825.26,302.91L825.37,300.43L826.17,302.99L826.29,303.03L828.46,302.75L828.57,302.23L829.26,303.08L829.37,303.05L829.49,303.1L830.52,303.14L830.63,299.03L830.74,296.81L830.86,271.17L831.77,300.83L831.89,301.12L833.03,302.33L833.14,301.84L833.26,299.09L834.17,302.02L834.29,302.03L835.54,302.61L835.66,301.38L835.77,300.75L836.23,302.31L836.34,302.36L838.06,302.44L838.17,302.34L838.86,302.68L838.97,300.28L839.66,302.36L840,302.21" style="vector-effect: non-scaling-stroke; fill: none; stroke: rgb(0, 0, 255); stroke-opacity: 1; stroke-width: 2px; opacity: 1;"/></g><g class="points"/><g class="text"/></g></g></g><g class="overplot"/><path class="xlines-above crisp" d="M0,0" style="fill: none;"/><path class="ylines-above crisp" d="M0,0" style="fill: none;"/><g class="overlines-above"/><g class="xaxislayer-above"><g class="xtick"><text text-anchor="middle" x="0" y="433" transform="translate(246.95,0)" style="font-family: 'Open Sans', verdana, arial, sans-serif; font-size: 12px; fill: rgb(42, 63, 95); fill-opacity: 1; white-space: pre; opacity: 1;">2005</text></g><g class="xtick"><text text-anchor="middle" x="0" y="433" style="font-family: 'Open Sans', verdana, arial, sans-serif; font-size: 12px; fill: rgb(42, 63, 95); fill-opacity: 1; white-space: pre; opacity: 1;" transform="translate(455.61,0)">2010</text></g><g class="xtick"><text text-anchor="middle" x="0" y="433" style="font-family: 'Open Sans', verdana, arial, sans-serif; font-size: 12px; fill: rgb(42, 63, 95); fill-opacity: 1; white-space: pre; opacity: 1;" transform="translate(664.26,0)">2015</text></g><g class="xtick"><text text-anchor="middle" x="0" y="433" style="font-family: 'Open Sans', verdana, arial, sans-serif; font-size: 12px; fill: rgb(42, 63, 95); fill-opacity: 1; white-space: pre; opacity: 1;" transform="translate(872.92,0)">2020</text></g></g><g class="yaxislayer-above"><g class="ytick"><text text-anchor="end" x="79" y="4.199999999999999" transform="translate(0,404)" style="font-family: 'Open Sans', verdana, arial, sans-serif; font-size: 12px; fill: rgb(42, 63, 95); fill-opacity: 1; white-space: pre; opacity: 1;">0</text></g><g class="ytick"><text text-anchor="end" x="79" y="4.199999999999999" style="font-family: 'Open Sans', verdana, arial, sans-serif; font-size: 12px; fill: rgb(42, 63, 95); fill-opacity: 1; white-space: pre; opacity: 1;" transform="translate(0,356.29)">50</text></g><g class="ytick"><text text-anchor="end" x="79" y="4.199999999999999" style="font-family: 'Open Sans', verdana, arial, sans-serif; font-size: 12px; fill: rgb(42, 63, 95); fill-opacity: 1; white-space: pre; opacity: 1;" transform="translate(0,308.58000000000004)">100</text></g><g class="ytick"><text text-anchor="end" x="79" y="4.199999999999999" style="font-family: 'Open Sans', verdana, arial, sans-serif; font-size: 12px; fill: rgb(42, 63, 95); fill-opacity: 1; white-space: pre; opacity: 1;" transform="translate(0,260.87)">150</text></g><g class="ytick"><text text-anchor="end" x="79" y="4.199999999999999" style="font-family: 'Open Sans', verdana, arial, sans-serif; font-size: 12px; fill: rgb(42, 63, 95); fill-opacity: 1; white-space: pre; opacity: 1;" transform="translate(0,213.15)">200</text></g><g class="ytick"><text text-anchor="end" x="79" y="4.199999999999999" style="font-family: 'Open Sans', verdana, arial, sans-serif; font-size: 12px; fill: rgb(42, 63, 95); fill-opacity: 1; white-space: pre; opacity: 1;" transform="translate(0,165.44)">250</text></g><g class="ytick"><text text-anchor="end" x="79" y="4.199999999999999" style="font-family: 'Open Sans', verdana, arial, sans-serif; font-size: 12px; fill: rgb(42, 63, 95); fill-opacity: 1; white-space: pre; opacity: 1;" transform="translate(0,117.73)">300</text></g></g><g class="overaxes-above"/></g></g><g class="polarlayer"/><g class="smithlayer"/><g class="ternarylayer"/><g class="geolayer"/><g class="funnelarealayer"/><g class="pielayer"/><g class="iciclelayer"/><g class="treemaplayer"/><g class="sunburstlayer"/><g class="glimages"/><defs id="topdefs-edf1c1"><g class="clips"/></defs><g class="layer-above"><g class="imagelayer"/><g class="shapelayer"/></g><g class="infolayer"><g class="g-gtitle"><text class="gtitle" x="50" y="50" text-anchor="start" dy="0em" style="font-family: 'Open Sans', verdana, arial, sans-serif; font-size: 17px; fill: rgb(42, 63, 95); opacity: 1; font-weight: normal; white-space: pre;">Aforament - Fogars de la Selva (Can Simó)--a19</text></g><g class="g-xtitle"><text class="xtitle" x="500" y="460.8" text-anchor="middle" style="font-family: 'Open Sans', verdana, arial, sans-serif; font-size: 14px; fill: rgb(42, 63, 95); opacity: 1; font-weight: normal; white-space: pre;">Data</text></g><g class="g-ytitle"><text class="ytitle" transform="rotate(-90,31.309375000000003,260)" x="31.309375000000003" y="260" text-anchor="middle" style="font-family: 'Open Sans', verdana, arial, sans-serif; font-size: 14px; fill: rgb(42, 63, 95); opacity: 1; font-weight: normal; white-space: pre;">Cabal (m3/s)</text></g></g></svg>