<svg class="main-svg" xmlns="http://www.w3.org/2000/svg" xmlns:xlink="http://www.w3.org/1999/xlink" width="1000" height="500" style="" viewBox="0 0 1000 500"><rect x="0" y="0" width="1000" height="500" style="fill: rgb(255, 255, 255); fill-opacity: 1;"/><defs id="defs-5e1dc7"><g class="clips"><clipPath id="clip5e1dc7xyplot" class="plotclip"><rect width="840" height="320"/></clipPath><clipPath class="axesclip" id="clip5e1dc7x"><rect x="80" y="0" width="840" height="500"/></clipPath><clipPath class="axesclip" id="clip5e1dc7y"><rect x="0" y="100" width="1000" height="320"/></clipPath><clipPath class="axesclip" id="clip5e1dc7xy"><rect x="80" y="100" width="840" height="320"/></clipPath></g><g class="gradients"/><g class="patterns"/></defs><g class="bglayer"><rect class="bg" x="80" y="100" width="840" height="320" style="fill: rgb(229, 236, 246); fill-opacity: 1; stroke-width: 0;"/></g><g class="layer-below"><g class="imagelayer"/><g class="shapelayer"/></g><g class="cartesianlayer"><g class="subplot xy"><g class="layer-subplot"><g class="shapelayer"/><g class="imagelayer"/></g><g class="minor-gridlayer"><g class="x"/><g class="y"/></g><g class="gridlayer"><g class="x"><path class="xgrid crisp" transform="translate(246.95,0)" d="M0,100v320" style="stroke: rgb(255, 255, 255); stroke-opacity: 1; stroke-width: 1px;"/><path class="xgrid crisp" transform="translate(455.61,0)" d="M0,100v320" style="stroke: rgb(255, 255, 255); stroke-opacity: 1; stroke-width: 1px;"/><path class="xgrid crisp" transform="translate(664.26,0)" d="M0,100v320" style="stroke: rgb(255, 255, 255); stroke-opacity: 1; stroke-width: 1px;"/><path class="xgrid crisp" transform="translate(872.92,0)" d="M0,100v320" style="stroke: rgb(255, 255, 255); stroke-opacity: 1; stroke-width: 1px;"/></g><g class="y"><path class="ygrid crisp" transform="translate(0,338.94)" d="M80,0h840" style="stroke: rgb(255, 255, 255); stroke-opacity: 1; stroke-width: 1px;"/><path class="ygrid crisp" transform="translate(0,277.6)" d="M80,0h840" style="stroke: rgb(255, 255, 255); stroke-opacity: 1; stroke-width: 1px;"/><path class="ygrid crisp" transform="translate(0,216.26)" d="M80,0h840" style="stroke: rgb(255, 255, 255); stroke-opacity: 1; stroke-width: 1px;"/><path class="ygrid crisp" transform="translate(0,154.91)" d="M80,0h840" style="stroke: rgb(255, 255, 255); stroke-opacity: 1; stroke-width: 1px;"/></g></g><g class="zerolinelayer"><path class="yzl zl crisp" transform="translate(0,400.29)" d="M80,0h840" style="stroke: rgb(255, 255, 255); stroke-opacity: 1; stroke-width: 2px;"/></g><path class="xlines-below"/><path class="ylines-below"/><g class="overlines-below"/><g class="xaxislayer-below"/><g class="yaxislayer-below"/><g class="overaxes-below"/><g class="plot" transform="translate(80,100)" clip-path="url(#clip5e1dc7xyplot)"><g class="scatterlayer mlayer"><g class="trace scatter trace6e53c6" style="stroke-miterlimit: 2; opacity: 1;"><g class="fills"/><g class="errorbars"/><g class="lines"><path class="js-line" d="M281.68,300.25L282.48,300.25" style="vector-effect: non-scaling-stroke; fill: none; stroke: rgb(255, 0, 0); stroke-opacity: 1; stroke-width: 2px; opacity: 1;"/><path class="js-line" d="M285.45,300.25L285.68,300.24" style="vector-effect: non-scaling-stroke; fill: none; stroke: rgb(255, 0, 0); stroke-opacity: 1; stroke-width: 2px; opacity: 1;"/><path class="js-line" d="M286.48,300.24L286.7,300.25" style="vector-effect: non-scaling-stroke; fill: none; stroke: rgb(255, 0, 0); stroke-opacity: 1; stroke-width: 2px; opacity: 1;"/><path class="js-line" d="M287.39,300.24L288.19,300.25" style="vector-effect: non-scaling-stroke; fill: none; stroke: rgb(255, 0, 0); stroke-opacity: 1; stroke-width: 2px; opacity: 1;"/><path class="js-line" d="M288.42,300.24L301.22,300.25" style="vector-effect: non-scaling-stroke; fill: none; stroke: rgb(255, 0, 0); stroke-opacity: 1; stroke-width: 2px; opacity: 1;"/><path class="js-line" d="M304.19,300.23L308.53,300.24L308.64,299.44L309.1,300.04L309.56,299.64L309.67,299.53L310.59,300.17L310.7,300.19L313.33,300.26" style="vector-effect: non-scaling-stroke; fill: none; stroke: rgb(255, 0, 0); stroke-opacity: 1; stroke-width: 2px; opacity: 1;"/><path class="js-line" d="M317.1,300.27L317.67,300.27" style="vector-effect: non-scaling-stroke; fill: none; stroke: rgb(255, 0, 0); stroke-opacity: 1; stroke-width: 2px; opacity: 1;"/><path class="js-line" d="M320.19,300.27L333.21,300L333.33,296.42L333.55,298.66L333.67,299.56L337.21,300.18L337.33,300.15L337.67,298.78L338.01,299.68L338.13,299.83L339.15,300.16L339.27,300.16L344.87,300.16L344.98,298.57L345.9,299.81L346.01,299.86L348.3,300.16L348.41,300.16L359.04,300.29L359.15,259.53L359.84,16L359.95,162.5L360.07,300.03L360.41,300.03L360.52,293.78L360.64,293.64L360.75,295.56L360.98,299.8L361.32,299.25" style="vector-effect: non-scaling-stroke; fill: none; stroke: rgb(255, 0, 0); stroke-opacity: 1; stroke-width: 2px; opacity: 1;"/><path class="js-line" d="M361.55,300.28L367.26,300.28L367.38,300.28L389.55,299.99L389.66,298.18L389.78,296.81L390.23,299.75L390.35,299.97L390.69,299.77L390.8,299.27L391.72,300.17L391.83,300.18L400.97,300.27L401.09,299.84L402,300.26L402.12,300.26L407.72,300.25L407.83,298.44L407.94,291.69L408.52,299.87L408.63,299.99L410.8,300.23L410.92,300.23L414.46,300.19L414.57,300.18L420.4,300.21L420.51,300.04L422.34,300.23L422.46,300.23L425.2,300.2L425.31,296.34L425.43,295.54L425.54,295.65L425.66,275.31L426.46,298.93L426.57,299.17L427.94,299.65L428.06,299.67L430.11,299.81L430.23,298.7L431.14,300.02L431.26,300.03L434.68,300.16" style="vector-effect: non-scaling-stroke; fill: none; stroke: rgb(255, 0, 0); stroke-opacity: 1; stroke-width: 2px; opacity: 1;"/><path class="js-line" d="M495.48,300.16L507.93,300.14L508.05,295.01L508.16,257.27L508.73,299.03L508.85,299.09L508.96,298.88L509.3,299.45L509.42,299.51L509.53,299.54L511.7,299.86L511.82,299.89L532.16,300.2L532.27,300.15L532.38,299.58L532.96,300.15L533.07,300.16L537.41,300.06L537.53,296.8L537.64,293.91L538.1,299.82L538.21,299.9L541.07,300.16L541.18,300.13L547.35,300.18L547.47,300.18L553.07,299.99L553.18,297.55L553.98,300.01L554.1,300.04L558.9,300.16L559.01,300.17L563.12,300.18L563.24,300.21L573.41,300.21L573.52,298.86L573.64,298.56L573.86,299.85L573.98,299.97L576.15,300.21L576.26,300.21L580.38,300.19L580.49,299.36L580.72,295.63L581.18,299.68L581.29,299.77L583.23,300.09L583.35,300.09L593.18,300.09L593.29,297.71L593.4,294.44L593.98,299.39L594.09,299.58L595.23,300.03L595.35,300.04L601.98,300.19L602.09,300.19L615.23,300.21L615.34,300.01L616.83,300.17L616.94,300.15L619.12,299.91L619.23,296.5L620.03,300.02L620.14,300.04L621.06,300.11" style="vector-effect: non-scaling-stroke; fill: none; stroke: rgb(255, 0, 0); stroke-opacity: 1; stroke-width: 2px; opacity: 1;"/><path class="js-line" d="M699.68,300.2L700.36,300.24" style="vector-effect: non-scaling-stroke; fill: none; stroke: rgb(255, 0, 0); stroke-opacity: 1; stroke-width: 2px; opacity: 1;"/><path class="js-line" d="M700.7,300.23L700.93,300.24" style="vector-effect: non-scaling-stroke; fill: none; stroke: rgb(255, 0, 0); stroke-opacity: 1; stroke-width: 2px; opacity: 1;"/><path class="js-line" d="M702.99,300.18L703.33,300.23" style="vector-effect: non-scaling-stroke; fill: none; stroke: rgb(255, 0, 0); stroke-opacity: 1; stroke-width: 2px; opacity: 1;"/><path class="js-line" d="M703.68,300.23L704.7,300.23" style="vector-effect: non-scaling-stroke; fill: none; stroke: rgb(255, 0, 0); stroke-opacity: 1; stroke-width: 2px; opacity: 1;"/><path class="js-line" d="M706.19,300.25L707.1,300.24" style="vector-effect: non-scaling-stroke; fill: none; stroke: rgb(255, 0, 0); stroke-opacity: 1; stroke-width: 2px; opacity: 1;"/><path class="js-line" d="M707.9,300.24L718.87,299.81L718.99,298.9L719.9,300.16L720.02,300.17L720.82,299.77L720.93,296.07L721.96,299.89L722.07,299.99L726.87,299.89L726.99,299.9L727.33,299.9L727.44,298.92L728.47,299.99L728.59,300L733.04,300.23L733.16,300.23L742.18,300L742.3,296.88L743.1,300.02L743.21,300.06L744.13,300.04L744.24,299.37L745.04,299.82L745.16,299.53L745.73,299.95L745.84,298.4L745.96,297.34L746.07,299.61L746.18,291.23L747.1,299.02L747.21,299.2L749.04,299.75L749.16,299.42L750.18,299.79L750.3,299.8L763.67,300.23L763.78,300.22L765.15,300.2L765.27,300.2L774.64,300.27L774.75,300.27L777.72,300.27L777.84,300.27L784.81,300.21L784.92,298.86L785.72,300.22L785.84,300.22L789.72,300.17L789.84,299.33L790.75,300.18L790.86,300.19L795.09,300.23L795.21,298.52L795.32,293.14L795.89,299.23L796.01,299.45L797.26,300.03L797.38,300.04L805.38,300.11L805.49,299.8L805.72,295.7L806.18,299.13L806.29,299.33L809.95,299.84L810.06,299.77L810.52,299.52L810.63,298.64L810.98,297.11L811.09,297.55L811.2,298.61L813.15,300L813.26,300.02L817.6,300.22L817.72,300.22L830.63,300.13L830.74,299.35L830.97,297.86L831.43,300.03L831.54,300.05L836.57,300.17L836.69,300.17L839.89,300.16" style="vector-effect: non-scaling-stroke; fill: none; stroke: rgb(255, 0, 0); stroke-opacity: 1; stroke-width: 2px; opacity: 1;"/></g><g class="points"/><g class="text"/></g><g class="trace scatter trace92b96c" style="stroke-miterlimit: 2; opacity: 1;"><g class="fills"/><g class="errorbars"/><g class="lines"><path class="js-line" d="M281.68,300.25L282.48,300.25" style="vector-effect: non-scaling-stroke; fill: none; stroke: rgb(0, 0, 255); stroke-opacity: 1; stroke-width: 2px; opacity: 1;"/><path class="js-line" d="M285.45,300.25L285.68,300.24" style="vector-effect: non-scaling-stroke; fill: none; stroke: rgb(0, 0, 255); stroke-opacity: 1; stroke-width: 2px; opacity: 1;"/><path class="js-line" d="M286.48,300.24L286.7,300.25" style="vector-effect: non-scaling-stroke; fill: none; stroke: rgb(0, 0, 255); stroke-opacity: 1; stroke-width: 2px; opacity: 1;"/><path class="js-line" d="M287.39,300.24L288.19,300.25" style="vector-effect: non-scaling-stroke; fill: none; stroke: rgb(0, 0, 255); stroke-opacity: 1; stroke-width: 2px; opacity: 1;"/><path class="js-line" d="M288.42,300.24L301.22,300.25" style="vector-effect: non-scaling-stroke; fill: none; stroke: rgb(0, 0, 255); stroke-opacity: 1; stroke-width: 2px; opacity: 1;"/><path class="js-line" d="M304.19,300.23L308.53,300.24L308.64,299.44L309.1,300.04L309.56,299.64L309.67,299.53L310.59,300.17L310.7,300.19L313.33,300.26" style="vector-effect: non-scaling-stroke; fill: none; stroke: rgb(0, 0, 255); stroke-opacity: 1; stroke-width: 2px; opacity: 1;"/><path class="js-line" d="M317.1,300.27L317.67,300.27" style="vector-effect: non-scaling-stroke; fill: none; stroke: rgb(0, 0, 255); stroke-opacity: 1; stroke-width: 2px; opacity: 1;"/><path class="js-line" d="M320.19,300.27L333.21,300L333.33,296.42L333.55,298.66L333.67,299.56L337.21,300.18L337.33,300.15L337.67,298.78L338.01,299.68L338.13,299.83L339.15,300.16L339.27,300.16L344.87,300.16L344.98,298.57L345.9,299.81L346.01,299.86L348.3,300.16L348.41,300.16L359.04,300.29" style="vector-effect: non-scaling-stroke; fill: none; stroke: rgb(0, 0, 255); stroke-opacity: 1; stroke-width: 2px; opacity: 1;"/><path class="js-line" d="M360.07,300.03L360.41,300.03L360.52,293.78L360.64,293.64L360.75,295.56L360.98,299.8L361.32,299.25" style="vector-effect: non-scaling-stroke; fill: none; stroke: rgb(0, 0, 255); stroke-opacity: 1; stroke-width: 2px; opacity: 1;"/><path class="js-line" d="M361.55,300.28L367.26,300.28L367.38,300.28L389.55,299.99L389.66,298.18L389.78,296.81L390.23,299.75L390.35,299.97L390.69,299.77L390.8,299.27L391.72,300.17L391.83,300.18L400.97,300.27L401.09,299.84L402,300.26L402.12,300.26L407.72,300.25L407.83,298.44L407.94,291.69L408.52,299.87L408.63,299.99L410.8,300.23L410.92,300.23L414.46,300.19L414.57,300.18L420.4,300.21L420.51,300.04L422.34,300.23L422.46,300.23L425.2,300.2L425.31,296.34L425.43,295.54L425.54,295.65L425.66,275.31L426.46,298.93L426.57,299.17L427.94,299.65L428.06,299.67L430.11,299.81L430.23,298.7L431.14,300.02L431.26,300.03L434.68,300.16" style="vector-effect: non-scaling-stroke; fill: none; stroke: rgb(0, 0, 255); stroke-opacity: 1; stroke-width: 2px; opacity: 1;"/><path class="js-line" d="M495.48,300.16L507.93,300.14L508.05,295.01L508.16,257.27L508.73,299.03L508.85,299.09L508.96,298.88L509.3,299.45L509.42,299.51L509.53,299.54L511.7,299.86L511.82,299.89L532.16,300.2L532.27,300.15L532.38,299.58L532.96,300.15L533.07,300.16L537.41,300.06L537.53,296.8L537.64,293.91L538.1,299.82L538.21,299.9L541.07,300.16L541.18,300.13L547.35,300.18L547.47,300.18L553.07,299.99L553.18,297.55L553.98,300.01L554.1,300.04L558.9,300.16L559.01,300.17L563.12,300.18L563.24,300.21L573.41,300.21L573.52,298.86L573.64,298.56L573.86,299.85L573.98,299.97L576.15,300.21L576.26,300.21L580.38,300.19L580.49,299.36L580.72,295.63L581.18,299.68L581.29,299.77L583.23,300.09L583.35,300.09L593.18,300.09L593.29,297.71L593.4,294.44L593.98,299.39L594.09,299.58L595.23,300.03L595.35,300.04L601.98,300.19L602.09,300.19L615.23,300.21L615.34,300.01L616.83,300.17L616.94,300.15L619.12,299.91L619.23,296.5L620.03,300.02L620.14,300.04L621.06,300.11" style="vector-effect: non-scaling-stroke; fill: none; stroke: rgb(0, 0, 255); stroke-opacity: 1; stroke-width: 2px; opacity: 1;"/><path class="js-line" d="M699.68,300.2L700.36,300.24" style="vector-effect: non-scaling-stroke; fill: none; stroke: rgb(0, 0, 255); stroke-opacity: 1; stroke-width: 2px; opacity: 1;"/><path class="js-line" d="M700.7,300.23L700.93,300.24" style="vector-effect: non-scaling-stroke; fill: none; stroke: rgb(0, 0, 255); stroke-opacity: 1; stroke-width: 2px; opacity: 1;"/><path class="js-line" d="M702.99,300.18L703.33,300.23" style="vector-effect: non-scaling-stroke; fill: none; stroke: rgb(0, 0, 255); stroke-opacity: 1; stroke-width: 2px; opacity: 1;"/><path class="js-line" d="M703.68,300.23L704.7,300.23" style="vector-effect: non-scaling-stroke; fill: none; stroke: rgb(0, 0, 255); stroke-opacity: 1; stroke-width: 2px; opacity: 1;"/><path class="js-line" d="M706.19,300.25L707.1,300.24" style="vector-effect: non-scaling-stroke; fill: none; stroke: rgb(0, 0, 255); stroke-opacity: 1; stroke-width: 2px; opacity: 1;"/><path class="js-line" d="M707.9,300.24L718.87,299.81L718.99,298.9L719.9,300.16L720.02,300.17L720.82,299.77L720.93,296.07L721.96,299.89L722.07,299.99L726.87,299.89L726.99,299.9L727.33,299.9L727.44,298.92L728.47,299.99L728.59,300L733.04,300.23L733.16,300.23L742.18,300L742.3,296.88L743.1,300.02L743.21,300.06L744.13,300.04L744.24,299.37L745.04,299.82L745.16,299.53L745.73,299.95L745.84,298.4L745.96,297.34L746.07,299.61L746.18,291.23L747.1,299.02L747.21,299.2L749.04,299.75L749.16,299.42L750.18,299.79L750.3,299.8L763.67,300.23L763.78,300.22L765.15,300.2L765.27,300.2L774.64,300.27L774.75,300.27L777.72,300.27L777.84,300.27L784.81,300.21L784.92,298.86L785.72,300.22L785.84,300.22L789.72,300.17L789.84,299.33L790.75,300.18L790.86,300.19L795.09,300.23L795.21,298.52L795.32,293.14L795.89,299.23L796.01,299.45L797.26,300.03L797.38,300.04L805.38,300.11L805.49,299.8L805.72,295.7L806.18,299.13L806.29,299.33L809.95,299.84L810.06,299.77L810.52,299.52L810.63,298.64L810.98,297.11L811.09,297.55L811.2,298.61L813.15,300L813.26,300.02L817.6,300.22L817.72,300.22L830.63,300.13L830.74,299.35L830.97,297.86L831.43,300.03L831.54,300.05L836.57,300.17L836.69,300.17L839.89,300.16" style="vector-effect: non-scaling-stroke; fill: none; stroke: rgb(0, 0, 255); stroke-opacity: 1; stroke-width: 2px; opacity: 1;"/></g><g class="points"/><g class="text"/></g><g class="trace scatter trace77c21b" style="stroke-miterlimit: 2; opacity: 1;"><g class="fills"/><g class="errorbars"/><g class="lines"/><g class="points"><path class="point" transform="translate(280.88,300.25)" d="M3,0A3,3 0 1,1 0,-3A3,3 0 0,1 3,0Z" style="opacity: 1; stroke-width: 0px; fill: rgb(255, 0, 0); fill-opacity: 1;"/><path class="point" transform="translate(701.16,300.19)" d="M3,0A3,3 0 1,1 0,-3A3,3 0 0,1 3,0Z" style="opacity: 1; stroke-width: 0px; fill: rgb(255, 0, 0); fill-opacity: 1;"/><path class="point" transform="translate(701.96,300.23)" d="M3,0A3,3 0 1,1 0,-3A3,3 0 0,1 3,0Z" style="opacity: 1; stroke-width: 0px; fill: rgb(255, 0, 0); fill-opacity: 1;"/><path class="point" transform="translate(702.65,300.23)" d="M3,0A3,3 0 1,1 0,-3A3,3 0 0,1 3,0Z" style="opacity: 1; stroke-width: 0px; fill: rgb(255, 0, 0); fill-opacity: 1;"/></g><g class="text"/></g><g class="trace scatter trace81aec4" style="stroke-miterlimit: 2; opacity: 1;"><g class="fills"/><g class="errorbars"/><g class="lines"/><g class="points"><path class="point" transform="translate(280.88,300.25)" d="M3,0A3,3 0 1,1 0,-3A3,3 0 0,1 3,0Z" style="opacity: 1; stroke-width: 0px; fill: rgb(0, 0, 255); fill-opacity: 1;"/><path class="point" transform="translate(701.16,300.19)" d="M3,0A3,3 0 1,1 0,-3A3,3 0 0,1 3,0Z" style="opacity: 1; stroke-width: 0px; fill: rgb(0, 0, 255); fill-opacity: 1;"/><path class="point" transform="translate(701.96,300.23)" d="M3,0A3,3 0 1,1 0,-3A3,3 0 0,1 3,0Z" style="opacity: 1; stroke-width: 0px; fill: rgb(0, 0, 255); fill-opacity: 1;"/><path class="point" transform="translate(702.65,300.23)" d="M3,0A3,3 0 1,1 0,-3A3,3 0 0,1 3,0Z" style="opacity: 1; stroke-width: 0px; fill: rgb(0, 0, 255); fill-opacity: 1;"/></g><g class="text"/></g></g></g><g class="overplot"/><path class="xlines-above crisp" d="M0,0" style="fill: none;"/><path class="ylines-above crisp" d="M0,0" style="fill: none;"/><g class="overlines-above"/><g class="xaxislayer-above"><g class="xtick"><text text-anchor="middle" x="0" y="433" transform="translate(246.95,0)" style="font-family: 'Open Sans', verdana, arial, sans-serif; font-size: 12px; fill: rgb(42, 63, 95); fill-opacity: 1; white-space: pre; opacity: 1;">2005</text></g><g class="xtick"><text text-anchor="middle" x="0" y="433" style="font-family: 'Open Sans', verdana, arial, sans-serif; font-size: 12px; fill: rgb(42, 63, 95); fill-opacity: 1; white-space: pre; opacity: 1;" transform="translate(455.61,0)">2010</text></g><g class="xtick"><text text-anchor="middle" x="0" y="433" style="font-family: 'Open Sans', verdana, arial, sans-serif; font-size: 12px; fill: rgb(42, 63, 95); fill-opacity: 1; white-space: pre; opacity: 1;" transform="translate(664.26,0)">2015</text></g><g class="xtick"><text text-anchor="middle" x="0" y="433" style="font-family: 'Open Sans', verdana, arial, sans-serif; font-size: 12px; fill: rgb(42, 63, 95); fill-opacity: 1; white-space: pre; opacity: 1;" transform="translate(872.92,0)">2020</text></g></g><g class="yaxislayer-above"><g class="ytick"><text text-anchor="end" x="79" y="4.199999999999999" transform="translate(0,400.29)" style="font-family: 'Open Sans', verdana, arial, sans-serif; font-size: 12px; fill: rgb(42, 63, 95); fill-opacity: 1; white-space: pre; opacity: 1;">0</text></g><g class="ytick"><text text-anchor="end" x="79" y="4.199999999999999" style="font-family: 'Open Sans', verdana, arial, sans-serif; font-size: 12px; fill: rgb(42, 63, 95); fill-opacity: 1; white-space: pre; opacity: 1;" transform="translate(0,338.94)">100</text></g><g class="ytick"><text text-anchor="end" x="79" y="4.199999999999999" style="font-family: 'Open Sans', verdana, arial, sans-serif; font-size: 12px; fill: rgb(42, 63, 95); fill-opacity: 1; white-space: pre; opacity: 1;" transform="translate(0,277.6)">200</text></g><g class="ytick"><text text-anchor="end" x="79" y="4.199999999999999" style="font-family: 'Open Sans', verdana, arial, sans-serif; font-size: 12px; fill: rgb(42, 63, 95); fill-opacity: 1; white-space: pre; opacity: 1;" transform="translate(0,216.26)">300</text></g><g class="ytick"><text text-anchor="end" x="79" y="4.199999999999999" style="font-family: 'Open Sans', verdana, arial, sans-serif; font-size: 12px; fill: rgb(42, 63, 95); fill-opacity: 1; white-space: pre; opacity: 1;" transform="translate(0,154.91)">400</text></g></g><g class="overaxes-above"/></g></g><g class="polarlayer"/><g class="smithlayer"/><g class="ternarylayer"/><g class="geolayer"/><g class="funnelarealayer"/><g class="pielayer"/><g class="iciclelayer"/><g class="treemaplayer"/><g class="sunburstlayer"/><g class="glimages"/><defs id="topdefs-5e1dc7"><g class="clips"/></defs><g class="layer-above"><g class="imagelayer"/><g class="shapelayer"/></g><g class="infolayer"><g class="g-gtitle"><text class="gtitle" x="50" y="50" text-anchor="start" dy="0em" style="font-family: 'Open Sans', verdana, arial, sans-serif; font-size: 17px; fill: rgb(42, 63, 95); opacity: 1; font-weight: normal; white-space: pre;">Aforament - Maçanet de Cabrenys (Arnera)--a36</text></g><g class="g-xtitle"><text class="xtitle" x="500" y="460.8" text-anchor="middle" style="font-family: 'Open Sans', verdana, arial, sans-serif; font-size: 14px; fill: rgb(42, 63, 95); opacity: 1; font-weight: normal; white-space: pre;">Data</text></g><g class="g-ytitle"><text class="ytitle" transform="rotate(-90,31.309375000000003,260)" x="31.309375000000003" y="260" text-anchor="middle" style="font-family: 'Open Sans', verdana, arial, sans-serif; font-size: 14px; fill: rgb(42, 63, 95); opacity: 1; font-weight: normal; white-space: pre;">Cabal (m3/s)</text></g></g></svg>