<svg class="main-svg" xmlns="http://www.w3.org/2000/svg" xmlns:xlink="http://www.w3.org/1999/xlink" width="1000" height="500" style="" viewBox="0 0 1000 500"><rect x="0" y="0" width="1000" height="500" style="fill: rgb(255, 255, 255); fill-opacity: 1;"/><defs id="defs-78a5ab"><g class="clips"><clipPath id="clip78a5abxyplot" class="plotclip"><rect width="840" height="320"/></clipPath><clipPath class="axesclip" id="clip78a5abx"><rect x="80" y="0" width="840" height="500"/></clipPath><clipPath class="axesclip" id="clip78a5aby"><rect x="0" y="100" width="1000" height="320"/></clipPath><clipPath class="axesclip" id="clip78a5abxy"><rect x="80" y="100" width="840" height="320"/></clipPath></g><g class="gradients"/><g class="patterns"/></defs><g class="bglayer"><rect class="bg" x="80" y="100" width="840" height="320" style="fill: rgb(229, 236, 246); fill-opacity: 1; stroke-width: 0;"/></g><g class="layer-below"><g class="imagelayer"/><g class="shapelayer"/></g><g class="cartesianlayer"><g class="subplot xy"><g class="layer-subplot"><g class="shapelayer"/><g class="imagelayer"/></g><g class="minor-gridlayer"><g class="x"/><g class="y"/></g><g class="gridlayer"><g class="x"><path class="xgrid crisp" transform="translate(246.95,0)" d="M0,100v320" style="stroke: rgb(255, 255, 255); stroke-opacity: 1; stroke-width: 1px;"/><path class="xgrid crisp" transform="translate(455.61,0)" d="M0,100v320" style="stroke: rgb(255, 255, 255); stroke-opacity: 1; stroke-width: 1px;"/><path class="xgrid crisp" transform="translate(664.26,0)" d="M0,100v320" style="stroke: rgb(255, 255, 255); stroke-opacity: 1; stroke-width: 1px;"/><path class="xgrid crisp" transform="translate(872.92,0)" d="M0,100v320" style="stroke: rgb(255, 255, 255); stroke-opacity: 1; stroke-width: 1px;"/></g><g class="y"><path class="ygrid crisp" transform="translate(0,340.58000000000004)" d="M80,0h840" style="stroke: rgb(255, 255, 255); stroke-opacity: 1; stroke-width: 1px;"/><path class="ygrid crisp" transform="translate(0,277.14)" d="M80,0h840" style="stroke: rgb(255, 255, 255); stroke-opacity: 1; stroke-width: 1px;"/><path class="ygrid crisp" transform="translate(0,213.70999999999998)" d="M80,0h840" style="stroke: rgb(255, 255, 255); stroke-opacity: 1; stroke-width: 1px;"/><path class="ygrid crisp" transform="translate(0,150.27)" d="M80,0h840" style="stroke: rgb(255, 255, 255); stroke-opacity: 1; stroke-width: 1px;"/></g></g><g class="zerolinelayer"><path class="yzl zl crisp" transform="translate(0,404.02)" d="M80,0h840" style="stroke: rgb(255, 255, 255); stroke-opacity: 1; stroke-width: 2px;"/></g><path class="xlines-below"/><path class="ylines-below"/><g class="overlines-below"/><g class="xaxislayer-below"/><g class="yaxislayer-below"/><g class="overaxes-below"/><g class="plot" transform="translate(80,100)" clip-path="url(#clip78a5abxyplot)"><g class="scatterlayer mlayer"><g class="trace scatter trace7ea033" style="stroke-miterlimit: 2; opacity: 1;"><g class="fills"/><g class="errorbars"/><g class="lines"><path class="js-line" d="M420.17,301.38L420.4,299.98L420.51,292.43L421.31,301.47L421.43,301.66L422.57,301.66L422.69,299.15L422.8,298.98L422.91,300.99L423.03,300.73L423.26,301.63L423.37,301.68L423.49,301.69L423.83,301.97L424.06,301.42L424.17,301.28L424.4,298.18L424.86,301.08L424.97,301.43L425.2,301.89L425.31,284.28L425.54,292.55L425.66,273.2L425.88,290.53L426,292.66L426.11,291.97L426.34,295.1L426.46,296.28L426.68,292.47L426.91,293.21L427.03,294.56L428.17,299.13L428.28,299.19L430,299.99L430.11,296.58L430.23,291.59L430.68,298.57L430.8,295.91L430.91,297.37L431.14,299.54L431.37,295.07L431.71,299.15L431.83,288.83L432.4,299.79L432.63,298.11L432.74,299.79L434.34,300.94L434.46,275.26L435.14,299.27L435.26,286.68L435.37,275.35L435.83,295.91L435.94,297.38L437.77,300.6L437.88,300.6L439.14,302.16L439.25,301.89L439.37,300.49L440.05,302.33L440.17,302.22L440.28,302.09L440.51,301.76L441.08,302.11L441.2,302.4L441.31,290.48L441.77,302.41L441.88,302.37L442,302.48L443.14,303.11" style="vector-effect: non-scaling-stroke; fill: none; stroke: rgb(255, 0, 0); stroke-opacity: 1; stroke-width: 2px; opacity: 1;"/><path class="js-line" d="M458.79,300.09L461.54,300.51L461.65,300.38L462.34,300.77L462.45,301.09L462.57,300.78L462.68,298.19L463.25,301.23L463.48,301.21L463.59,301.24L465.88,301.53L465.99,301.71L468.05,302.04L468.16,293.84L468.28,285L468.74,300.58L468.85,300.86L469.54,300.99L469.65,299.64L469.76,289.43L470.34,299.13L470.45,298.12L470.68,299.21L470.79,295.37L471.59,300.05L471.71,300.11L472.39,300.63L472.51,300.15L472.62,294.49L472.74,290.12L473.08,299.85L473.19,299.33L473.31,298.52L474.11,301.67L474.22,301.42L474.34,301.34L474.56,301.49L474.91,301.1L475.02,292.94L475.94,301.99L476.05,301.98L476.51,302.51L476.62,286.07L477.42,302.44L477.54,302.08L477.65,302.12L478.68,302.58L478.79,302.41L478.91,302.36L479.71,302.38L479.82,300.54L479.93,300.18L480.05,302.58L480.51,302.59L480.73,302.32L480.85,302.37L482.33,302.22L482.45,302.27L483.82,302.39L483.93,290.71L484.28,302.8L484.73,302.77L484.85,302.77L486.56,302.79L486.68,301.53L486.79,295.61L487.36,302.83L487.48,302.83L489.99,302.75L490.1,286.22L491.02,302.71L491.13,302.77L491.48,301.23L491.59,292L492.16,302.75L492.39,301.54L492.5,301.83L493.19,281.58L493.3,297.17L493.42,300.27L493.53,301.2L493.65,301.18L493.76,284.79L494.56,301.87L494.68,302.18L494.9,301.2L495.25,301.94L495.36,302.3L495.82,300.83L495.93,301.92L496.85,302.18L496.96,301.02L497.53,302.32L497.76,302.26L497.88,302.28L499.47,302.45L499.59,302.47L500.62,302.74L500.73,302.7L502.1,302.66L502.22,302.25L502.33,302.46L502.56,301.75L502.79,301.78L502.9,300.23L503.02,297.15L503.47,301.56L503.59,301.5L503.7,301.57L505.53,302.31L505.65,302.29L506.22,302.46L506.33,302.12L506.45,301.95L506.79,302.54L506.9,299.31L507.25,302.33L507.47,301.51L507.59,293.7L507.93,301.32L508.05,277.23L508.16,246.03L508.85,297.63L508.96,296.24L509.07,297.33L509.99,299.14L510.1,299.1L510.67,299.13L510.79,299.5L510.9,298.93L511.36,299.77L511.47,299.67L511.59,299.59L513.76,301.31L513.87,299.73L514.33,286.32L514.44,275.21L515.36,298.45L515.47,298.63L515.93,299.41L516.04,299.24L516.16,282.66L516.39,293.39L516.5,280.33L516.62,289.06L516.73,283.85L517.19,296.29L517.3,296.5L518.79,298.55L518.9,290.81L519.93,299.94L520.04,300.03L520.39,298.91L520.5,299.36L520.61,300.16L522.1,301.43L522.21,301.41L522.44,301.61L522.56,301.43L522.67,292.68L523.36,301.22L523.47,291.45L524.27,301.78L524.39,301.93L524.61,302.29L524.73,300.63L525.53,302.58L525.64,302.32L525.76,302.55L525.87,301.95L526.21,302.83L526.44,302.73L526.56,302.57L526.9,302.56L527.01,301.82L527.7,302.51L527.81,302.32L527.93,302.15L528.16,299.09L528.5,301.23L528.61,301.86L529.19,302.58L529.3,296L530.44,302.57L530.56,302.46L531.81,302.69L531.93,302.59L532.27,302.7L532.38,297.11L533.53,302.63L533.64,302.6L536.38,302.6L536.5,302.46L537.07,302.73L537.18,302.47L537.3,288.21L537.41,281.91L537.53,223.99L538.33,299.9L538.44,300.08L539.24,300.68L539.36,300.95L540.95,300.9L541.07,300.54L541.18,299.53L541.64,300.93L541.75,300.61L541.87,300.76L542.78,301.38L542.9,301.38L543.01,300.94L543.58,301.38L543.7,301.38L543.93,301.51L544.61,297.13L544.73,299.86L544.84,300.78L545.75,301.22L545.87,300.02L546.78,301.45L546.9,301.45L547.01,301.26L547.13,295.96L547.7,301.26L547.93,300.21L548.04,301L550.67,301.48L550.78,301.48L552.5,302.46L552.61,299.16L552.72,298.85L552.84,300.97L552.95,301.41L553.07,296.62L553.18,293.1L553.64,301.54L553.75,301.6L554.1,301.19L554.9,302.24L555.01,300.84L555.12,301.16L555.24,296.24L556.04,302.14L556.15,302.08L556.27,302.11L556.61,302.56L556.84,301.7L556.95,301.67L558.1,302.59L558.21,302.59L558.9,302.59L559.01,302.71L559.12,298.46L559.7,300.15L559.81,301.57L560.61,302.78L560.72,302.71L560.84,302.56L561.52,302.59L561.64,298.69L561.75,297.39L561.98,302.37L562.09,302.68L562.44,302.81L562.55,296.78L563.35,302.81L563.47,302.71L563.58,302.52L563.81,302.81L563.92,295.01L564.84,302.81L564.95,302.81L566.21,302.81L566.32,297.48L566.44,297.2L566.55,302.65L566.78,302.81L566.89,300.94L567.81,302.81L567.92,302.84L569.07,302.81L569.18,299.38L569.29,293.26L569.64,302.84L569.75,302.81L569.87,302.84L571.69,303L571.81,301.83L571.92,286.63L572.15,303.32L572.49,302.81L572.61,302.81L573.06,294.91L573.29,302.84L573.41,255.2L574.09,301.67L574.21,294.12L574.32,301.54L575.12,302.81L575.24,302.81L577.52,302.59L577.64,295.29L578.32,303.16L578.44,302.94L578.55,302.68L578.89,301.89L579.24,303.25L579.35,302.87L579.46,302.81L580.04,302.71L580.15,299.16L580.26,299.76L580.38,289.62L580.61,201.15L580.72,268.17L580.84,293.36L581.75,299.38L581.86,299.29L582.21,299.67L582.32,289.87L583.12,299.57L583.23,299.48L583.35,299.61L584.38,300.28L584.49,300.25L586.09,301.21L586.21,301.56L586.43,298.39L587.01,300.15L587.12,300.13L588.03,300.13L588.15,296.23L588.95,301.61L589.06,301.56L589.18,301.88L589.41,302.26L589.52,301.01L589.63,300.3L590.21,300.42L590.32,301.54L590.43,302.28L590.66,301.19L591.01,301.42L591.12,301.54L591.58,301.03L591.92,301.61L592.03,301.59L592.26,302.5L592.61,301.05L592.83,301.92L592.95,302.01L593.18,302.11L593.29,293.11L594.2,301.21L594.32,301.36L596.03,302.22L596.15,302.15L596.6,301.9L596.83,302.26L596.95,302.4L597.4,301.88L597.52,298.07L598.2,302.81L598.32,302.78L598.43,302.74L599.92,302.66L600.03,301.88L600.15,301.01L600.38,302.81L600.6,302.68L600.72,302.68L603,302.56L603.12,298.01L603.23,297.25L603.35,298.39L603.46,301.07L604.6,302.83L604.72,302.82L608.37,302.78L608.49,298.44L609.29,302.86L609.4,302.17L609.63,302.86L610.09,302.03L610.2,294.64L611,302.82L611.12,302.81L612.03,302.81L612.15,297.01L612.72,303.07L612.95,302.81L613.06,300.33L613.97,302.82L614.09,302.82L615.23,302.77L615.34,301.29L615.46,300.91L615.57,294.01L616.37,302.79L616.49,302.73L618.43,302.83L618.54,302.44L619,302.82L619.12,297.67L619.23,252.76L619.8,300.81L619.92,301.03L621.74,302.59L621.86,301.78L622.54,300.03L622.89,300.18L623,300.25L624.26,300.39L624.37,300.33L625.86,300.61L625.97,303.06L626.89,303.06L627,303.06L630.89,303.04L631,301.7L631.8,303.1L631.91,303.2L632.37,302.98L632.49,298.13L632.6,297.1L632.83,301.99L632.94,301.96L634.31,303.76L634.43,303.59L635,299.96L635.11,301.95L635.23,302.65L636.14,303.57L636.26,303.47L636.37,301.56L636.6,303.13L636.71,303.11L636.83,289.94L637.74,303.02L637.86,303.06L638.54,303.42L638.66,297.56L639.34,303.28L639.57,301.85L639.68,302.27L640.26,303.54L640.6,303.43L640.71,303.23L640.83,299.43L641.4,303.41L641.51,303.67L642.2,303.34L642.31,302.72L643.23,303.78L643.34,303.77L649.05,303.73L649.17,297.1L650.08,303.6L650.2,303.57L650.31,303.67L651.23,303.82L651.34,302.4L652.03,303.92L652.14,303.89L652.25,303.79L652.83,303.51L652.94,303.86L653.05,303.95L653.97,303.76L654.08,303.79L655.23,303.32L655.34,295.96L656.14,303.26L656.25,303.29L656.37,290.01L656.94,302.27L657.05,302.83L657.28,303.2L657.4,302.86L657.51,301.09L657.74,303.71L658.31,303.55L658.42,303.51L658.65,298.86L658.77,291.21L659.57,303.31L659.68,303L660.94,303.88L661.05,303.81L661.4,302.96L661.85,303.56L661.97,303.58L662.65,303.17L662.77,303.15L663,303.25L663.11,302.72L663.22,295.08L663.34,294.81L663.45,286.41L663.8,276.43L664.25,300.4L664.37,301.04L664.71,300.55L664.82,301.25L664.94,301.45L665.85,301.83L665.97,300.76L666.2,301.15L666.54,296.77L666.65,299.99L666.77,300.88L667.22,301.69L667.68,301.54L667.79,301.51L668.94,301.75L669.05,301.82L670.19,301.9L670.31,300.62L670.54,301.45L670.65,301.11L670.77,298.66L670.88,282.12L671.45,300.47L671.57,300.51L672.59,302.46L672.71,301.16L672.82,289.26L673.39,301.28L673.51,300.97L673.85,301.33L673.97,299.3L674.08,300.87L674.19,301.43L674.65,301.59L674.77,301.32L674.88,290.16L675.79,300.84L675.91,301.1L677.05,301.42L677.17,298.7L677.28,251.95L677.85,297.63L677.96,298.02L678.08,297.55L678.76,297.74L678.88,297.74L679.11,297.73L679.22,299.47L679.91,301.42L680.02,301.37L680.14,301.42L680.82,301.79L680.94,301.04L681.05,294.1L681.62,301.67L681.74,301.33L681.85,301.19L682.08,301.93L682.19,302.27L682.54,302.43L682.65,299.07L683.56,302.7L683.68,302.72L685.16,303L685.28,302.85L685.39,302.57L685.51,298.24L686.31,303.72L686.42,303.69L686.54,303.72L687.34,303.53L687.45,303.56L689.51,303.56L689.62,303.64L690.88,303.37L690.99,302.71L691.11,302.39L691.33,303.67L691.45,303.61L691.56,303.62L692.93,303.61L693.05,301.82L693.85,303.88L693.96,303.91L695.33,303.76L695.45,302.32L695.91,304L696.36,303.66L696.48,303.41L697.05,303.58L697.16,302.1L697.28,301.91L697.39,303.08L697.51,303.28L697.62,302.98L698.19,303.39L698.3,303.52L698.99,303.36L699.1,303.46L699.22,303.59L700.82,303.79L700.93,302.55L701.05,273.64L701.62,302.49L701.73,302.56L702.42,303.1L702.53,303.03L702.65,303.01L702.99,298.66L703.33,302.36L703.45,302.48L704.25,303.38L704.36,303.33L707.9,303.02L708.02,302.73L708.36,303.16L708.48,303.52L710.07,303.27L710.19,297.94L710.76,303.14L711.1,303.04L711.22,303.14L712.25,303.43L712.36,290.9L713.05,303.1L713.27,303.04L713.39,298.71L713.5,258.23L714.07,299.95L714.19,300.32L714.42,299.09L714.65,300.71L714.76,300.93L715.9,302.11L716.02,301.87L716.25,296.76L716.7,299.01L716.82,300.49L717.62,302.03L717.73,301.8L717.85,301.64L718.3,301.88L718.42,297.55L718.76,301.79L718.99,293.86L719.22,299.9L719.33,300.38L720.24,301.51L720.36,301.46L720.47,301.37L720.59,298.66L720.82,300.67L720.93,252.88L721.84,295.38L721.96,296.44L722.76,299.48L722.87,299.23L722.99,295.45L723.9,299.67L724.02,297.07L724.13,290.29L724.47,299.13L724.7,297.96L724.82,298.97L725.16,300.03L725.27,299.59L725.39,285.67L726.19,299.76L726.3,298.36L726.53,291.61L726.87,300.35L726.99,298.1L727.1,298.95L727.33,260.82L727.79,295.06L727.9,296.42L729.04,300.08L729.16,300.34L729.84,299.08L729.96,300.2L730.07,300.99L731.33,302.11L731.44,301.83L731.79,302.29L731.9,301.2L732.01,302.28L732.13,302.49L732.59,302.04L732.81,302.8L732.93,302.62L733.04,302.27L734.07,303.3L734.19,303.42L734.53,303.43L734.64,302.01L735.1,303.12L735.21,294.17L735.33,301.34L735.44,301.91L735.56,298.7L736.13,303.28L736.24,303.31L736.36,300.28L736.93,303.28L737.04,302.81L737.16,302.37L737.5,303.24L737.61,303.24L737.73,303.31L737.84,283.25L738.53,292.31L738.64,290.69L739.1,301.97L739.21,288.95L739.44,301.26L739.56,302.08L740.47,302.71L740.58,302.86L741.73,302.07L741.84,302.39L742.07,302.8L742.18,288.73L742.3,131.64L742.53,294.01L742.87,286.47L742.98,296.61L743.56,300.07L743.67,298.56L743.78,287.82L744.01,298.21L744.13,265.5L744.24,264.22L744.58,294.72L745.04,294.56L745.16,268.64L745.73,295.29L745.84,266.67L745.96,288.67L746.07,291.29L746.3,291.84L746.41,290.99L746.53,289.8L747.44,293.8L747.56,294.29L748.58,296.43L748.7,296.54L749.5,297.12L749.61,297.21L749.73,297.04L750.18,297.48L750.3,297.55L751.21,298.14L751.33,298L751.44,297.89L752.58,298.5L752.7,298.45L753.15,297.98L753.27,298.64L753.38,295.37L754.3,299.22L754.41,299.31L756.01,300L756.13,299.95L757.27,300.36L757.38,300.48L758.98,300.8L759.1,300.81L761.15,301.57L761.27,301.92L761.84,301.58L761.95,300.61L762.07,297.62L762.64,300.2L762.75,301.17L763.67,301.86L763.78,299.58L764.7,302.19L764.81,302.14L765.04,302.36L765.15,299.32L765.27,298.36L765.61,301.61L765.72,301.63L766.41,302.61L766.64,302.13L766.75,299.09L767.44,301.93L767.55,298.44L767.67,297.28L767.9,301.41L768.01,301.96L768.58,303.63L768.92,303.29L769.04,303.05L769.5,302.95L769.61,299.7L769.72,299.9L769.84,302.41L770.64,303.15L770.75,302.74L770.87,301.57L771.44,303.22L771.55,303.12L772.58,303.48L772.69,302.68L772.81,298.37L773.38,303.31L773.49,303.27L774.41,303.86L774.52,303.54L774.64,303.01L774.87,289.99L775.32,302.92L775.44,303.23L776.35,303.49L776.47,303.54L776.69,295.75L777.15,303.02L777.27,303.1L778.41,303.23L778.52,300.97L778.64,300.75L778.75,302.61L780.01,303.24L780.12,302.5L780.24,299.4L780.69,303.16L780.81,302.93L780.92,302.98L781.15,302.8L781.27,301.36L781.38,298.87L781.95,302.9L782.07,302.9L783.32,302.89L783.44,302.79L783.89,303.11L784.01,301.55L784.35,302.96L784.69,302.61L784.81,291.12L784.92,242.34L785.49,302.01L785.61,301.98L786.29,301.9L786.41,302.1L786.52,302.44L787.78,302.21L787.89,302.46L788.35,300.36L788.46,295.98L789.26,302.16L789.38,302.22L789.61,302.18L789.72,271.9L789.84,253.08L790.29,299.55L790.41,299.9L791.32,302.17L791.44,302.05L791.55,299.54L792.69,301.82L792.81,301.73L793.83,301.96L793.95,298.95L794.86,301.97L794.98,301.97L795.09,302.12L795.21,266.36L795.43,16L795.78,289.76L795.89,290.91L797.26,296.53L797.38,296.68L797.72,295.17L797.83,294.08L798.75,298.08L798.86,298.3L799.78,298.93L799.89,298.87L800.01,299.09L801.38,299.75L801.49,279.74L801.61,281.19L801.72,295.11L802.18,297.89L802.29,293.48L802.52,296.41L802.63,296.24L802.98,297.77L803.32,296.31L803.43,296.24L804.23,299.06L804.35,298.68L804.46,298.78L804.58,298.9L804.69,292.87L805.15,298.49L805.26,298.36L805.38,280.53L805.49,287.03L805.6,207.28L805.72,211.19L805.83,274.9L806.75,291.86L806.86,291.9L807.55,294.93L807.66,294.87L807.78,291.96L808.12,294.84L808.23,291.05L808.35,291.62L808.46,283.47L809.38,296.67L809.49,296.66L809.95,294.82L810.18,296.23L810.29,296.65L810.86,296.93L811.2,292.23L811.32,293.03L811.89,297.59L812.12,295.1L812.23,292.45L813.15,298.69L813.26,298.79L815.09,300.26L815.2,297.6L816.12,300.88L816.23,301.01L818.06,301.89L818.17,302.03L818.63,301.42L818.75,300.05L819.43,302.03L819.55,302.01L819.66,301.95L820.23,302.08L820.35,301.8L820.46,295.02L821.26,301.48L821.37,301.49L821.6,297.07L821.72,298.82L821.83,292.32L822.63,301.64L822.75,298.99L822.86,297.83L823.32,300.65L823.43,301.1L824.23,301.7L824.34,301.14L825.14,301.73L825.26,300.79L826.17,301.88L826.29,301.95L826.74,301.39L827.2,301.94L827.32,301.91L828,301.81L828.12,296.4L828.92,301.43L829.03,301.9L829.72,302.79L829.83,302.66L829.94,302.71L830.52,301.85L830.63,301.62L830.86,292.4L831.09,300.18L831.2,300.45L832.12,301.25L832.23,301.29L833.14,300.34L833.26,300.88L834.06,301.64L834.17,301.57L834.29,301.3L835.31,301.57L835.43,301.45L835.54,301.27L835.66,297.6L835.77,297.34L835.89,299.27L836.8,301.73L836.91,301.65L837.14,300.97L837.71,301.48L837.83,301.62L838.29,302.31L838.4,302.68L840,302.39" style="vector-effect: non-scaling-stroke; fill: none; stroke: rgb(255, 0, 0); stroke-opacity: 1; stroke-width: 2px; opacity: 1;"/></g><g class="points"/><g class="text"/></g><g class="trace scatter traceb83f14" style="stroke-miterlimit: 2; opacity: 1;"><g class="fills"/><g class="errorbars"/><g class="lines"><path class="js-line" d="M420.17,301.38L420.4,299.98L420.51,292.43L421.31,301.47L421.43,301.66L422.57,301.66L422.69,299.15L422.8,298.98L422.91,300.99L423.03,300.73L423.26,301.63L423.37,301.68L423.49,301.69L423.83,301.97L424.06,301.42L424.17,301.28L424.4,298.18L424.86,301.08L424.97,301.43L425.2,301.89L425.31,284.28L425.54,292.55L425.66,273.2L425.88,290.53L426,292.66L426.11,291.97L426.34,295.1L426.46,296.28L426.68,292.47L426.91,293.21L427.03,294.56L428.17,299.13L428.28,299.19L430,299.99L430.11,296.58L430.23,291.59L430.68,298.57L430.8,295.91L430.91,297.37L431.14,299.54L431.37,295.07L431.71,299.15L431.83,288.83L432.4,299.79L432.63,298.11L432.74,299.79L434.34,300.94L434.46,275.26L435.14,299.27L435.26,286.68L435.37,275.35L435.83,295.91L435.94,297.38L437.77,300.6L437.88,300.6L439.14,302.16L439.25,301.89L439.37,300.49L440.05,302.33L440.17,302.22L440.28,302.09L440.51,301.76L441.08,302.11L441.2,302.4L441.31,290.48L441.77,302.41L441.88,302.37L442,302.48L443.14,303.11" style="vector-effect: non-scaling-stroke; fill: none; stroke: rgb(0, 0, 255); stroke-opacity: 1; stroke-width: 2px; opacity: 1;"/><path class="js-line" d="M458.79,300.09L461.54,300.51L461.65,300.38L462.34,300.77L462.45,301.09L462.57,300.78L462.68,298.19L463.25,301.23L463.48,301.21L463.59,301.24L465.88,301.53L465.99,301.71L468.05,302.04L468.16,293.84L468.28,285L468.74,300.58L468.85,300.86L469.54,300.99L469.65,299.64L469.76,289.43L470.34,299.13L470.45,298.12L470.68,299.21L470.79,295.37L471.59,300.05L471.71,300.11L472.39,300.63L472.51,300.15L472.62,294.49L472.74,290.12L473.08,299.85L473.19,299.33L473.31,298.52L474.11,301.67L474.22,301.42L474.34,301.34L474.56,301.49L474.91,301.1L475.02,292.94L475.94,301.99L476.05,301.98L476.51,302.51L476.62,286.07L477.42,302.44L477.54,302.08L477.65,302.12L478.68,302.58L478.79,302.41L478.91,302.36L479.71,302.38L479.82,300.54L479.93,300.18L480.05,302.58L480.51,302.59L480.73,302.32L480.85,302.37L482.33,302.22L482.45,302.27L483.82,302.39L483.93,290.71L484.28,302.8L484.73,302.77L484.85,302.77L486.56,302.79L486.68,301.53L486.79,295.61L487.36,302.83L487.48,302.83L489.99,302.75L490.1,286.22L491.02,302.71L491.13,302.77L491.48,301.23L491.59,292L492.16,302.75L492.39,301.54L492.5,301.83L493.19,281.58L493.3,297.17L493.42,300.27L493.53,301.2L493.65,301.18L493.76,284.79L494.56,301.87L494.68,302.18L494.9,301.2L495.25,301.94L495.36,302.3L495.82,300.83L495.93,301.92L496.85,302.18L496.96,301.02L497.53,302.32L497.76,302.26L497.88,302.28L499.47,302.45L499.59,302.47L500.62,302.74L500.73,302.7L502.1,302.66L502.22,302.25L502.33,302.46L502.56,301.75L502.79,301.78L502.9,300.23L503.02,297.15L503.47,301.56L503.59,301.5L503.7,301.57L505.53,302.31L505.65,302.29L506.22,302.46L506.33,302.12L506.45,301.95L506.79,302.54L506.9,299.31L507.25,302.33L507.47,301.51L507.59,293.7L507.93,301.32L508.05,277.23L508.16,246.03L508.85,297.63L508.96,296.24L509.07,297.33L509.99,299.14L510.1,299.1L510.67,299.13L510.79,299.5L510.9,298.93L511.36,299.77L511.47,299.67L511.59,299.59L513.76,301.31L513.87,299.73L514.33,286.32L514.44,275.21L515.36,298.45L515.47,298.63L515.93,299.41L516.04,299.24L516.16,282.66L516.39,293.39L516.5,280.33L516.62,289.06L516.73,283.85L517.19,296.29L517.3,296.5L518.79,298.55L518.9,290.81L519.93,299.94L520.04,300.03L520.39,298.91L520.5,299.36L520.61,300.16L522.1,301.43L522.21,301.41L522.44,301.61L522.56,301.43L522.67,292.68L523.36,301.22L523.47,291.45L524.27,301.78L524.39,301.93L524.61,302.29L524.73,300.63L525.53,302.58L525.64,302.32L525.76,302.55L525.87,301.95L526.21,302.83L526.44,302.73L526.56,302.57L526.9,302.56L527.01,301.82L527.7,302.51L527.81,302.32L527.93,302.15L528.16,299.09L528.5,301.23L528.61,301.86L529.19,302.58L529.3,296L530.44,302.57L530.56,302.46L531.81,302.69L531.93,302.59L532.27,302.7L532.38,297.11L533.53,302.63L533.64,302.6L536.38,302.6L536.5,302.46L537.07,302.73L537.18,302.47L537.3,288.21L537.41,281.91L537.53,223.99L538.33,299.9L538.44,300.08L539.24,300.68L539.36,300.95L540.95,300.9L541.07,300.54L541.18,299.53L541.64,300.93L541.75,300.61L541.87,300.76L542.78,301.38L542.9,301.38L543.01,300.94L543.58,301.38L543.7,301.38L543.93,301.51L544.61,297.13L544.73,299.86L544.84,300.78L545.75,301.22L545.87,300.02L546.78,301.45L546.9,301.45L547.01,301.26L547.13,295.96L547.7,301.26L547.93,300.21L548.04,301L550.67,301.48L550.78,301.48L552.5,302.46L552.61,299.16L552.72,298.85L552.84,300.97L552.95,301.41L553.07,296.62L553.18,293.1L553.64,301.54L553.75,301.6L554.1,301.19L554.9,302.24L555.01,300.84L555.12,301.16L555.24,296.24L556.04,302.14L556.15,302.08L556.27,302.11L556.61,302.56L556.84,301.7L556.95,301.67L558.1,302.59L558.21,302.59L558.9,302.59L559.01,302.71L559.12,298.46L559.7,300.15L559.81,301.57L560.61,302.78L560.72,302.71L560.84,302.56L561.52,302.59L561.64,298.69L561.75,297.39L561.98,302.37L562.09,302.68L562.44,302.81L562.55,296.78L563.35,302.81L563.47,302.71L563.58,302.52L563.81,302.81L563.92,295.01L564.84,302.81L564.95,302.81L566.21,302.81L566.32,297.48L566.44,297.2L566.55,302.65L566.78,302.81L566.89,300.94L567.81,302.81L567.92,302.84L569.07,302.81L569.18,299.38L569.29,293.26L569.64,302.84L569.75,302.81L569.87,302.84L571.69,303L571.81,301.83L571.92,286.63L572.15,303.32L572.49,302.81L572.61,302.81L573.06,294.91L573.29,302.84L573.41,255.2L574.09,301.67L574.21,294.12L574.32,301.54L575.12,302.81L575.24,302.81L577.52,302.59L577.64,295.29L578.32,303.16L578.44,302.94L578.55,302.68L578.89,301.89L579.24,303.25L579.35,302.87L579.46,302.81L580.04,302.71L580.15,299.16L580.26,299.76L580.38,289.62L580.61,201.15L580.72,268.17L580.84,293.36L581.75,299.38L581.86,299.29L582.21,299.67L582.32,289.87L583.12,299.57L583.23,299.48L583.35,299.61L584.38,300.28L584.49,300.25L586.09,301.21L586.21,301.56L586.43,298.39L587.01,300.15L587.12,300.13L588.03,300.13L588.15,296.23L588.95,301.61L589.06,301.56L589.18,301.88L589.41,302.26L589.52,301.01L589.63,300.3L590.21,300.42L590.32,301.54L590.43,302.28L590.66,301.19L591.01,301.42L591.12,301.54L591.58,301.03L591.92,301.61L592.03,301.59L592.26,302.5L592.61,301.05L592.83,301.92L592.95,302.01L593.18,302.11L593.29,293.11L594.2,301.21L594.32,301.36L596.03,302.22L596.15,302.15L596.6,301.9L596.83,302.26L596.95,302.4L597.4,301.88L597.52,298.07L598.2,302.81L598.32,302.78L598.43,302.74L599.92,302.66L600.03,301.88L600.15,301.01L600.38,302.81L600.6,302.68L600.72,302.68L603,302.56L603.12,298.01L603.23,297.25L603.35,298.39L603.46,301.07L604.6,302.83L604.72,302.82L608.37,302.78L608.49,298.44L609.29,302.86L609.4,302.17L609.63,302.86L610.09,302.03L610.2,294.64L611,302.82L611.12,302.81L612.03,302.81L612.15,297.01L612.72,303.07L612.95,302.81L613.06,300.33L613.97,302.82L614.09,302.82L615.23,302.77L615.34,301.29L615.46,300.91L615.57,294.01L616.37,302.79L616.49,302.73L618.43,302.83L618.54,302.44L619,302.82L619.12,297.67L619.23,252.76L619.8,300.81L619.92,301.03L621.74,302.59L621.86,301.78L622.2,301.13L622.43,301.23" style="vector-effect: non-scaling-stroke; fill: none; stroke: rgb(0, 0, 255); stroke-opacity: 1; stroke-width: 2px; opacity: 1;"/><path class="js-line" d="M625.97,303.06L626.89,303.06L627,303.06L630.89,303.04L631,301.7L631.8,303.1L631.91,303.2L632.37,302.98L632.49,298.13L632.6,297.1L632.83,301.99L632.94,301.96L634.31,303.76L634.43,303.59L635,299.96L635.11,301.95L635.23,302.65L636.14,303.57L636.26,303.47L636.37,301.56L636.6,303.13L636.71,303.11L636.83,289.94L637.74,303.02L637.86,303.06L638.54,303.42L638.66,297.56L639.34,303.28L639.57,301.85L639.68,302.27L640.26,303.54L640.6,303.43L640.71,303.23L640.83,299.43L641.4,303.41L641.51,303.67L642.2,303.34L642.31,302.72L643.23,303.78L643.34,303.77L649.05,303.73L649.17,297.1L650.08,303.6L650.2,303.57L650.31,303.67L651.23,303.82L651.34,302.4L652.03,303.92L652.14,303.89L652.25,303.79L652.83,303.51L652.94,303.86L653.05,303.95L653.97,303.76L654.08,303.79L655.23,303.32L655.34,295.96L656.14,303.26L656.25,303.29L656.37,290.01L656.94,302.27L657.05,302.83L657.28,303.2L657.4,302.86L657.51,301.09L657.74,303.71L658.31,303.55L658.42,303.51L658.65,298.86L658.77,291.21L659.57,303.31L659.68,303L660.94,303.88L661.05,303.81L661.4,302.96L661.85,303.56L661.97,303.58L662.65,303.17L662.77,303.15L663,303.25L663.11,302.72L663.22,295.08L663.34,294.81L663.45,286.41L663.8,276.43L664.25,300.4L664.37,301.04L664.71,300.55L664.82,301.25L664.94,301.45L665.85,301.83L665.97,300.76L666.2,301.15L666.54,296.77L666.65,299.99L666.77,300.88L667.22,301.69L667.68,301.54L667.79,301.51L668.94,301.75L669.05,301.82L670.19,301.9L670.31,300.62L670.54,301.45L670.65,301.11L670.77,298.66L670.88,282.12L671.45,300.47L671.57,300.51L672.59,302.46L672.71,301.16L672.82,289.26L673.39,301.28L673.51,300.97L673.85,301.33L673.97,299.3L674.08,300.87L674.19,301.43L674.65,301.59L674.77,301.32L674.88,290.16L675.79,300.84L675.91,301.1L677.05,301.42L677.17,298.7L677.28,251.95L677.85,297.63" style="vector-effect: non-scaling-stroke; fill: none; stroke: rgb(0, 0, 255); stroke-opacity: 1; stroke-width: 2px; opacity: 1;"/><path class="js-line" d="M679.34,300.94L680.82,301.79L680.94,301.04L681.05,294.1L681.62,301.67L681.74,301.33L681.85,301.19L682.08,301.93L682.19,302.27L682.54,302.43L682.65,299.07L683.56,302.7L683.68,302.72L685.16,303L685.28,302.85L685.39,302.57L685.51,298.24L686.31,303.72L686.42,303.69L686.54,303.72L687.34,303.53L687.45,303.56L689.51,303.56L689.62,303.64L690.88,303.37L690.99,302.71L691.11,302.39L691.33,303.67L691.45,303.61L691.56,303.62L692.93,303.61L693.05,301.82L693.85,303.88L693.96,303.91L695.33,303.76L695.45,302.32L695.91,304L696.36,303.66L696.48,303.41L697.05,303.58L697.16,302.1L697.28,301.91L697.39,303.08L697.51,303.28L697.62,302.98L698.19,303.39L698.3,303.52L698.99,303.36L699.1,303.46L699.22,303.59L700.82,303.79L700.93,302.55L701.05,273.64L701.62,302.49L701.73,302.56L702.42,303.1L702.53,303.03L702.65,303.01L702.99,298.66L703.33,302.36L703.45,302.48L704.25,303.38L704.36,303.33L707.9,303.02L708.02,302.73L708.36,303.16L708.48,303.52L710.07,303.27L710.19,297.94L710.76,303.14L711.1,303.04L711.22,303.14L712.25,303.43L712.36,290.9L713.05,303.1L713.27,303.04L713.39,298.71L713.5,258.23L714.07,299.95L714.19,300.32L714.42,299.09L714.65,300.71L714.76,300.93L715.9,302.11L716.02,301.87L716.25,296.76L716.7,299.01L716.82,300.49L717.62,302.03L717.73,301.8L717.85,301.64L718.3,301.88L718.42,297.55L718.76,301.79L718.99,293.86L719.22,299.9L719.33,300.38L720.24,301.51L720.36,301.46L720.47,301.37L720.59,298.66L720.82,300.67L720.93,252.88L721.84,295.38L721.96,296.44L722.76,299.48L722.87,299.23L722.99,295.45L723.9,299.67L724.02,297.07L724.13,290.29L724.47,299.13L724.7,297.96L724.82,298.97L725.16,300.03L725.27,299.59L725.39,285.67L726.19,299.76L726.3,298.36L726.53,291.61L726.87,300.35L726.99,298.1L727.1,298.95L727.33,260.82L727.79,295.06L727.9,296.42L729.04,300.08L729.16,300.34L729.84,299.08L729.96,300.2L730.07,300.99L731.33,302.11L731.44,301.83L731.79,302.29L731.9,301.2L732.01,302.28L732.13,302.49L732.59,302.04L732.81,302.8L732.93,302.62L733.04,302.27L734.07,303.3L734.19,303.42L734.53,303.43L734.64,302.01L735.1,303.12L735.21,294.17L735.33,301.34L735.44,301.91L735.56,298.7L736.13,303.28L736.24,303.31L736.36,300.28L736.93,303.28L737.04,302.81L737.16,302.37L737.5,303.24L737.61,303.24L737.73,303.31L737.84,283.25L738.53,292.31L738.64,290.69L739.1,301.97L739.21,288.95L739.44,301.26L739.56,302.08L740.47,302.71L740.58,302.86L741.73,302.07L741.84,302.39L742.07,302.8L742.18,288.73L742.3,131.64L742.53,294.01L742.87,286.47L742.98,296.61L743.56,300.07L743.67,298.56L743.78,287.82L744.01,298.21L744.13,265.5L744.24,264.22L744.58,294.72L745.04,294.56L745.16,268.64L745.73,295.29L745.84,266.67L745.96,288.67L746.07,291.29L746.3,291.84L746.41,290.99L746.53,289.8L747.44,293.8L747.56,294.29L748.58,296.43L748.7,296.54L749.5,297.12L749.61,297.21L749.73,297.04L750.18,297.48L750.3,297.55L751.21,298.14L751.33,298L751.44,297.89L752.58,298.5L752.7,298.45L753.15,297.98L753.27,298.64L753.38,295.37L754.3,299.22L754.41,299.31L756.01,300L756.13,299.95L757.27,300.36L757.38,300.48L758.98,300.8L759.1,300.81L761.15,301.57L761.27,301.92L761.84,301.58L761.95,300.61L762.07,297.62L762.64,300.2L762.75,301.17L763.67,301.86L763.78,299.58L764.7,302.19L764.81,302.14L765.04,302.36L765.15,299.32L765.27,298.36L765.61,301.61L765.72,301.63L766.41,302.61L766.64,302.13L766.75,299.09L767.44,301.93L767.55,298.44L767.67,297.28L767.9,301.41L768.01,301.96L768.58,303.63L768.92,303.29L769.04,303.05L769.5,302.95L769.61,299.7L769.72,299.9L769.84,302.41L770.64,303.15L770.75,302.74L770.87,301.57L771.44,303.22L771.55,303.12L772.58,303.48L772.69,302.68L772.81,298.37L773.38,303.31L773.49,303.27L774.41,303.86L774.52,303.54L774.64,303.01L774.87,289.99L775.32,302.92L775.44,303.23L776.35,303.49L776.47,303.54L776.69,295.75L777.15,303.02L777.27,303.1L778.41,303.23L778.52,300.97L778.64,300.75L778.75,302.61L780.01,303.24L780.12,302.5L780.24,299.4L780.69,303.16L780.81,302.93L780.92,302.98L781.15,302.8L781.27,301.36L781.38,298.87L781.95,302.9L782.07,302.9L783.32,302.89L783.44,302.79L783.89,303.11L784.01,301.55L784.35,302.96L784.69,302.61L784.81,291.12L784.92,242.34L785.49,302.01L785.61,301.98L786.29,301.9L786.41,302.1L786.52,302.44L787.78,302.21L787.89,302.46L788.35,300.36L788.46,295.98L789.26,302.16L789.38,302.22L789.61,302.18L789.72,271.9L789.84,253.08L790.29,299.55L790.41,299.9L791.32,302.17L791.44,302.05L791.55,299.54L792.69,301.82L792.81,301.73L793.83,301.96L793.95,298.95L794.86,301.97L794.98,301.97L795.09,302.12L795.21,266.36L795.43,16L795.78,289.76L795.89,290.91L797.26,296.53L797.38,296.68L797.72,295.17L797.83,294.08L798.75,298.08L798.86,298.3L799.78,298.93L799.89,298.87L800.01,299.09L801.38,299.75L801.49,279.74L801.61,281.19L801.72,295.11L802.18,297.89L802.29,293.48L802.52,296.41L802.63,296.24L802.98,297.77L803.32,296.31L803.43,296.24L804.23,299.06L804.35,298.68L804.46,298.78L804.58,298.9L804.69,292.87L805.15,298.49L805.26,298.36L805.38,280.53L805.49,287.03L805.6,207.28L805.72,211.19L805.83,274.9L806.75,291.86L806.86,291.9L807.55,294.93L807.66,294.87L807.78,291.96L808.12,294.84L808.23,291.05L808.35,291.62L808.46,283.47L809.38,296.67L809.49,296.66L809.95,294.82L810.18,296.23L810.29,296.65L810.86,296.93L811.2,292.23L811.32,293.03L811.89,297.59L812.12,295.1L812.23,292.45L813.15,298.69L813.26,298.79L815.09,300.26L815.2,297.6L816.12,300.88L816.23,301.01L818.06,301.89L818.17,302.03L818.63,301.42L818.75,300.05L819.43,302.03L819.55,302.01L819.66,301.95L820.23,302.08L820.35,301.8L820.46,295.02L821.26,301.48L821.37,301.49L821.6,297.07L821.72,298.82L821.83,292.32L822.63,301.64L822.75,298.99L822.86,297.83L823.32,300.65L823.43,301.1L824.23,301.7L824.34,301.14L825.14,301.73L825.26,300.79L826.17,301.88L826.29,301.95L826.74,301.39L827.2,301.94L827.32,301.91L828,301.81L828.12,296.4L828.92,301.43L829.03,301.9L829.72,302.79L829.83,302.66L829.94,302.71L830.52,301.85L830.63,301.62L830.86,292.4L831.09,300.18L831.2,300.45L832.12,301.25L832.23,301.29L833.14,300.34L833.26,300.88L834.06,301.64L834.17,301.57L834.29,301.3L835.31,301.57L835.43,301.45L835.54,301.27L835.66,297.6L835.77,297.34L835.89,299.27L836.8,301.73L836.91,301.65L837.14,300.97L837.71,301.48L837.83,301.62L838.29,302.31L838.4,302.68L840,302.39" style="vector-effect: non-scaling-stroke; fill: none; stroke: rgb(0, 0, 255); stroke-opacity: 1; stroke-width: 2px; opacity: 1;"/></g><g class="points"/><g class="text"/></g></g></g><g class="overplot"/><path class="xlines-above crisp" d="M0,0" style="fill: none;"/><path class="ylines-above crisp" d="M0,0" style="fill: none;"/><g class="overlines-above"/><g class="xaxislayer-above"><g class="xtick"><text text-anchor="middle" x="0" y="433" transform="translate(246.95,0)" style="font-family: 'Open Sans', verdana, arial, sans-serif; font-size: 12px; fill: rgb(42, 63, 95); fill-opacity: 1; white-space: pre; opacity: 1;">2005</text></g><g class="xtick"><text text-anchor="middle" x="0" y="433" style="font-family: 'Open Sans', verdana, arial, sans-serif; font-size: 12px; fill: rgb(42, 63, 95); fill-opacity: 1; white-space: pre; opacity: 1;" transform="translate(455.61,0)">2010</text></g><g class="xtick"><text text-anchor="middle" x="0" y="433" style="font-family: 'Open Sans', verdana, arial, sans-serif; font-size: 12px; fill: rgb(42, 63, 95); fill-opacity: 1; white-space: pre; opacity: 1;" transform="translate(664.26,0)">2015</text></g><g class="xtick"><text text-anchor="middle" x="0" y="433" style="font-family: 'Open Sans', verdana, arial, sans-serif; font-size: 12px; fill: rgb(42, 63, 95); fill-opacity: 1; white-space: pre; opacity: 1;" transform="translate(872.92,0)">2020</text></g></g><g class="yaxislayer-above"><g class="ytick"><text text-anchor="end" x="79" y="4.199999999999999" transform="translate(0,404.02)" style="font-family: 'Open Sans', verdana, arial, sans-serif; font-size: 12px; fill: rgb(42, 63, 95); fill-opacity: 1; white-space: pre; opacity: 1;">0</text></g><g class="ytick"><text text-anchor="end" x="79" y="4.199999999999999" style="font-family: 'Open Sans', verdana, arial, sans-serif; font-size: 12px; fill: rgb(42, 63, 95); fill-opacity: 1; white-space: pre; opacity: 1;" transform="translate(0,340.58000000000004)">20</text></g><g class="ytick"><text text-anchor="end" x="79" y="4.199999999999999" style="font-family: 'Open Sans', verdana, arial, sans-serif; font-size: 12px; fill: rgb(42, 63, 95); fill-opacity: 1; white-space: pre; opacity: 1;" transform="translate(0,277.14)">40</text></g><g class="ytick"><text text-anchor="end" x="79" y="4.199999999999999" style="font-family: 'Open Sans', verdana, arial, sans-serif; font-size: 12px; fill: rgb(42, 63, 95); fill-opacity: 1; white-space: pre; opacity: 1;" transform="translate(0,213.70999999999998)">60</text></g><g class="ytick"><text text-anchor="end" x="79" y="4.199999999999999" style="font-family: 'Open Sans', verdana, arial, sans-serif; font-size: 12px; fill: rgb(42, 63, 95); fill-opacity: 1; white-space: pre; opacity: 1;" transform="translate(0,150.27)">80</text></g></g><g class="overaxes-above"/></g></g><g class="polarlayer"/><g class="smithlayer"/><g class="ternarylayer"/><g class="geolayer"/><g class="funnelarealayer"/><g class="pielayer"/><g class="iciclelayer"/><g class="treemaplayer"/><g class="sunburstlayer"/><g class="glimages"/><defs id="topdefs-78a5ab"><g class="clips"/></defs><g class="layer-above"><g class="imagelayer"/><g class="shapelayer"/></g><g class="infolayer"><g class="g-gtitle"><text class="gtitle" x="50" y="50" text-anchor="start" dy="0em" style="font-family: 'Open Sans', verdana, arial, sans-serif; font-size: 17px; fill: rgb(42, 63, 95); opacity: 1; font-weight: normal; white-space: pre;">Aforament - QLSup(A) - Martorell (Anoia)--a46</text></g><g class="g-xtitle"><text class="xtitle" x="500" y="460.8" text-anchor="middle" style="font-family: 'Open Sans', verdana, arial, sans-serif; font-size: 14px; fill: rgb(42, 63, 95); opacity: 1; font-weight: normal; white-space: pre;">Data</text></g><g class="g-ytitle"><text class="ytitle" transform="rotate(-90,38.934375,260)" x="38.934375" y="260" text-anchor="middle" style="font-family: 'Open Sans', verdana, arial, sans-serif; font-size: 14px; fill: rgb(42, 63, 95); opacity: 1; font-weight: normal; white-space: pre;">Cabal (m3/s)</text></g></g></svg>