<svg class="main-svg" xmlns="http://www.w3.org/2000/svg" xmlns:xlink="http://www.w3.org/1999/xlink" width="1000" height="500" style="" viewBox="0 0 1000 500"><rect x="0" y="0" width="1000" height="500" style="fill: rgb(255, 255, 255); fill-opacity: 1;"/><defs id="defs-712d81"><g class="clips"><clipPath id="clip712d81xyplot" class="plotclip"><rect width="840" height="320"/></clipPath><clipPath class="axesclip" id="clip712d81x"><rect x="80" y="0" width="840" height="500"/></clipPath><clipPath class="axesclip" id="clip712d81y"><rect x="0" y="100" width="1000" height="320"/></clipPath><clipPath class="axesclip" id="clip712d81xy"><rect x="80" y="100" width="840" height="320"/></clipPath></g><g class="gradients"/><g class="patterns"/></defs><g class="bglayer"><rect class="bg" x="80" y="100" width="840" height="320" style="fill: rgb(229, 236, 246); fill-opacity: 1; stroke-width: 0;"/></g><g class="layer-below"><g class="imagelayer"/><g class="shapelayer"/></g><g class="cartesianlayer"><g class="subplot xy"><g class="layer-subplot"><g class="shapelayer"/><g class="imagelayer"/></g><g class="minor-gridlayer"><g class="x"/><g class="y"/></g><g class="gridlayer"><g class="x"><path class="xgrid crisp" transform="translate(246.95,0)" d="M0,100v320" style="stroke: rgb(255, 255, 255); stroke-opacity: 1; stroke-width: 1px;"/><path class="xgrid crisp" transform="translate(455.61,0)" d="M0,100v320" style="stroke: rgb(255, 255, 255); stroke-opacity: 1; stroke-width: 1px;"/><path class="xgrid crisp" transform="translate(664.26,0)" d="M0,100v320" style="stroke: rgb(255, 255, 255); stroke-opacity: 1; stroke-width: 1px;"/><path class="xgrid crisp" transform="translate(872.92,0)" d="M0,100v320" style="stroke: rgb(255, 255, 255); stroke-opacity: 1; stroke-width: 1px;"/></g><g class="y"><path class="ygrid crisp" transform="translate(0,336.49)" d="M80,0h840" style="stroke: rgb(255, 255, 255); stroke-opacity: 1; stroke-width: 1px;"/><path class="ygrid crisp" transform="translate(0,272.72)" d="M80,0h840" style="stroke: rgb(255, 255, 255); stroke-opacity: 1; stroke-width: 1px;"/><path class="ygrid crisp" transform="translate(0,208.95999999999998)" d="M80,0h840" style="stroke: rgb(255, 255, 255); stroke-opacity: 1; stroke-width: 1px;"/><path class="ygrid crisp" transform="translate(0,145.2)" d="M80,0h840" style="stroke: rgb(255, 255, 255); stroke-opacity: 1; stroke-width: 1px;"/></g></g><g class="zerolinelayer"><path class="yzl zl crisp" transform="translate(0,400.25)" d="M80,0h840" style="stroke: rgb(255, 255, 255); stroke-opacity: 1; stroke-width: 2px;"/></g><path class="xlines-below"/><path class="ylines-below"/><g class="overlines-below"/><g class="xaxislayer-below"/><g class="yaxislayer-below"/><g class="overaxes-below"/><g class="plot" transform="translate(80,100)" clip-path="url(#clip712d81xyplot)"><g class="scatterlayer mlayer"><g class="trace scatter tracee7f5c1" style="stroke-miterlimit: 2; opacity: 1;"><g class="fills"/><g class="errorbars"/><g class="lines"><path class="js-line" d="M0,300.25L1.49,300.25L1.6,272.29L1.71,133.49L2.06,300.25L2.29,300.25L2.4,300.25L4.91,300.25L5.03,297.06L5.14,295.87L5.26,300.25L5.48,300.25L5.6,300.25L14.06,299.99L14.17,298.25L14.28,299.25L14.4,296.46L14.51,292.15L16.23,213.28L16.34,223.03L16.45,246.47L17.14,241.4L17.25,235.66L17.48,231.95L17.6,226.2L18.51,284.46L18.63,275.75L18.85,269.88L20.23,300.25L20.34,300.25L29.71,300.17L29.82,297.96L30.17,295.86L30.4,300.25L30.51,297.41L30.97,297.08L31.2,299.21L31.42,299.05L31.54,298.44L31.65,297.7L32,299.95L32.11,293.21L32.57,300.25L32.91,296.89L33.02,300.23L33.14,298.9L33.71,299.76L33.82,300.25L34.05,300.11L34.17,296.61L34.62,296.23L34.97,300.25L35.08,300.25L43.99,300.25L44.11,299.41L44.91,300.25L45.02,300.25L45.82,300.25L45.94,296.68L46.74,300.25L46.85,300.25L47.99,300.25L48.11,299.22L48.91,300.25L49.02,300.25L52.11,300.25L52.22,289.1L52.34,241.97L52.45,300.25L52.91,300.25L53.02,299.85L53.14,140.84L53.59,300.25L53.71,300.25L53.82,300.25L56.11,300.04L56.22,119.7L57.14,300.25L57.25,300.25L57.82,300.25L57.93,292.94L58.73,300.25L58.85,300.25L59.31,300.25L59.42,125.71L60.33,300.25L60.45,300.25L67.19,300.25L67.31,299.35L67.42,300.25L67.76,298.62L67.88,294.81L68.45,292.89L68.68,299.46L68.79,297.93L69.25,288.68L69.48,291.99L69.59,296.03L70.39,300.25L70.5,300.25L73.7,300.25L73.82,279.72L74.73,300.25L74.85,300.25L75.3,300.25L75.42,297.64L76.22,300.25L76.33,300.25L80.79,300.13L80.9,284.03L81.02,261.11L81.25,300.25L81.47,300.25L81.59,300.25L83.87,300.25L83.99,238.65L84.67,300.25L84.79,300.24L84.9,300.24L89.02,300.19L89.13,245.11L89.59,295.19L89.7,285.01L89.82,132.78L89.93,139.08L90.04,266.45L90.96,300.15L91.07,300.25L93.7,299.51L93.82,297.85L94.04,300.01L94.39,295.1L94.5,290.3L95.53,300.25L95.64,300.24L97.13,295.3L97.24,292.19L97.47,293.86L97.59,288.3L98.73,250.92L98.84,248.73L99.99,219.59L100.1,219.95L100.21,255.24L101.01,300.25L101.13,300.25L104.67,300.16L104.79,298.96L105.59,300.25L105.7,300.25L107.87,300.23L107.99,298.09L108.9,300.25L109.01,300.2L109.13,299.76L109.7,300.25L109.81,300.22L110.27,300.18L110.38,294.63L111.18,300.25L111.3,299.58L111.64,297.35L111.76,291.55L112.56,273.6L112.67,289.15L112.9,285.74L113.47,299.89L113.58,298.73L113.7,292.4L114.04,281.65L114.16,292.1L114.5,291.05L114.73,300.25L114.96,297.17L115.07,297.26L115.3,296.62L115.87,300.24L115.98,300.06L116.1,300.25L116.21,299.43L116.33,298.09L116.56,210.43L117.01,297.59L117.13,299.97L117.36,300.25L117.47,292.17L117.58,292.48L117.7,297.88L118.04,296.6L118.5,300.24L118.73,300.2L118.84,299.84L118.96,295.92L119.41,300.21L119.53,299.78L119.64,300.25L120.33,295.23L120.56,296.69L120.67,299.74L120.78,297.99L121.35,300.24L121.47,300.16L121.81,292.35L121.93,152.72L122.73,298.99L122.84,300.25L130.73,300.25L130.84,295.75L130.95,176.1L131.18,300.25L131.52,216.62L131.64,275.43L132.44,300.25L132.55,300.25L135.07,300.25L135.18,299.39L135.3,137.83L135.64,300.25L135.87,300.25L135.98,300.25L137.12,300.25L137.24,16L138.04,300.25L138.15,300.25L138.61,300.25L138.72,276.16L139.07,300.25L139.3,291.68L139.41,230.91L139.98,300.25L140.21,280.2L140.32,300.25L157.01,300.25" style="vector-effect: non-scaling-stroke; fill: none; stroke: rgb(255, 0, 0); stroke-opacity: 1; stroke-width: 2px; opacity: 1;"/><path class="js-line" d="M157.24,300.25L158.95,300.25" style="vector-effect: non-scaling-stroke; fill: none; stroke: rgb(255, 0, 0); stroke-opacity: 1; stroke-width: 2px; opacity: 1;"/><path class="js-line" d="M159.18,300.25L164.21,300.25L164.32,297.54L165.12,300.25L165.23,300.25L171.18,300.24L171.29,286.74L171.41,273.76L171.52,300.25L171.86,300.25L171.98,300.25L174.83,300.25L174.95,286.05L175.75,300.25L175.86,300.25L182.83,299.65L182.95,297.89L183.06,298.85L183.18,294.46L183.63,297.77L183.75,297.3L184.43,285.42L184.77,285.58L184.89,291.56L185.8,264.86L185.92,270.1L186.15,273.66L186.26,267.31L186.37,260.78L186.49,252.44L186.83,267.97L186.95,275.18L187.06,273.8L187.17,260.87L188.43,300.25L188.55,300.25L193.23,300.25" style="vector-effect: non-scaling-stroke; fill: none; stroke: rgb(255, 0, 0); stroke-opacity: 1; stroke-width: 2px; opacity: 1;"/><path class="js-line" d="M193.69,300.25L195.4,300.25L195.52,290.06L196.32,300.25L196.43,300.25L199.4,300.25L199.52,211.99L200.32,300.25L200.43,300.25L202.94,300.25L203.06,293.22L203.29,184.31L203.63,300.25L203.74,300.25L203.86,300.25L211.06,300.25L211.17,298.53L211.63,298.29L211.74,277.6L211.86,245.15L212.31,297.21L212.43,297.41L213.46,298.18L213.57,298.11L214.94,298.33L215.06,298.16L216.43,298.4L216.54,298.39L217.68,298.35L217.8,298.28L217.91,298.1L218.48,298.5L218.6,298.58L223.28,298.83L223.4,298.31L224.08,298.82L224.2,298.74L224.31,298.47L225.34,299.02L225.46,298.94L226.48,299.16L226.6,298.68L227.4,299.25L227.51,298.94L228.77,299.03L228.88,298.99L233.23,298.61L233.34,298.6L234.03,298.97L234.25,298.75L234.37,298.58L234.48,295.62L235.05,298.43L235.17,298.33L237.68,297.6L237.8,296.16L238.37,298.33L238.6,298.25L238.71,297.86L239.51,298.03L239.62,297.92L240.65,297.76L240.77,296.55L241,296.6L241.11,297.52L241.68,296.2L241.8,288.89L242.14,297.83L242.6,297.73L242.71,297.78L244.42,297.74L244.54,297.65L246.02,297.49L246.14,297.34L246.25,296.96L246.6,297.92L246.94,297.25L247.05,297.62L247.97,297.8L248.08,297.83L255.51,297.96L255.62,298.13L255.85,297.23L256.31,297.85L256.42,297.93L257.45,297.79L257.56,297.85L258.82,297.6L258.94,297.86L260.54,296.4L260.65,295.68L260.88,294.98L261.11,297.23L261.22,297.65L261.45,297.66L261.56,296.59L261.91,296.06L262.02,293.93L262.14,292.45L262.36,297.42L262.48,297.27L262.59,297.67L263.05,296.97L263.16,296.44L264.42,288.31L264.54,289.28L264.65,291.39L265.45,285.72L265.56,287.2L265.68,286.92L266.25,284.53L266.36,287.11L266.48,287.91L266.71,287.65L266.82,289.23L266.94,287.39L267.16,294.56L267.39,291.55L267.51,292.72L267.85,290.46L267.96,291.99L268.08,296.02L269.11,293.11L269.22,295.05L269.33,291.85L269.91,295.68L270.02,294.8L270.71,297.4L270.93,297.08L271.05,296.96L271.85,297.55L271.96,297.46L272.08,297.49L273.11,297.66L273.22,297.47L275.05,297.76L275.16,296.31L275.39,295.92L275.96,297.52L276.19,297.37L276.31,297.39L277.22,297.43L277.33,297.45L278.36,297.49" style="vector-effect: non-scaling-stroke; fill: none; stroke: rgb(255, 0, 0); stroke-opacity: 1; stroke-width: 2px; opacity: 1;"/><path class="js-line" d="M278.59,297.79L280.08,297.57L280.19,297.64L281.33,297.22L281.45,297.4L282.93,297.56L283.05,297.52L283.96,297.53L284.08,297.52L286.13,297.43L286.25,297.57L288.42,297.73L288.53,297.75L289.33,297.54L289.45,297.63L289.56,297.75L290.82,296.78L290.93,297.26L291.05,297.38L292.07,297.73L292.19,297.46L293.1,297.44" style="vector-effect: non-scaling-stroke; fill: none; stroke: rgb(255, 0, 0); stroke-opacity: 1; stroke-width: 2px; opacity: 1;"/><path class="js-line" d="M293.33,297.79L293.9,297.48L294.13,297.6L294.25,297.66L295.85,297.33L295.96,297.55L296.87,297.51L296.99,297.5L298.47,297.64" style="vector-effect: non-scaling-stroke; fill: none; stroke: rgb(255, 0, 0); stroke-opacity: 1; stroke-width: 2px; opacity: 1;"/><path class="js-line" d="M298.7,300.25L300.53,300.25L300.64,300.25L303.84,300.25" style="vector-effect: non-scaling-stroke; fill: none; stroke: rgb(255, 0, 0); stroke-opacity: 1; stroke-width: 2px; opacity: 1;"/><path class="js-line" d="M304.07,300.25L305.22,300.25" style="vector-effect: non-scaling-stroke; fill: none; stroke: rgb(255, 0, 0); stroke-opacity: 1; stroke-width: 2px; opacity: 1;"/><path class="js-line" d="M305.9,300.23L306.93,300.25L307.04,299.07L307.96,300.25L308.07,300.25L308.64,300.25" style="vector-effect: non-scaling-stroke; fill: none; stroke: rgb(255, 0, 0); stroke-opacity: 1; stroke-width: 2px; opacity: 1;"/><path class="js-line" d="M309.44,300.24L310.81,300.24L310.93,299.4L311.04,300.24L311.16,300.14L311.27,275.23L312.07,300.25L312.19,300.25" style="vector-effect: non-scaling-stroke; fill: none; stroke: rgb(255, 0, 0); stroke-opacity: 1; stroke-width: 2px; opacity: 1;"/><path class="js-line" d="M314.7,300.25L319.73,300.25" style="vector-effect: non-scaling-stroke; fill: none; stroke: rgb(255, 0, 0); stroke-opacity: 1; stroke-width: 2px; opacity: 1;"/><path class="js-line" d="M320.98,296.24L321.1,295.88" style="vector-effect: non-scaling-stroke; fill: none; stroke: rgb(255, 0, 0); stroke-opacity: 1; stroke-width: 2px; opacity: 1;"/><path class="js-line" d="M322.01,300.25L333.21,299.73L333.33,294.04L333.44,290.83L333.67,297.96L333.78,297.94" style="vector-effect: non-scaling-stroke; fill: none; stroke: rgb(255, 0, 0); stroke-opacity: 1; stroke-width: 2px; opacity: 1;"/><path class="js-line" d="M342.92,298.78L344.07,298.49L344.18,297.7L344.87,298.6L344.98,297.2L345.78,298.41L345.9,298.21L346.01,297.86L346.47,298.48L346.58,298.55L347.04,298.56L347.15,297.72L347.61,296.92L348.07,298.58L348.18,298.62L348.98,298.6L349.1,297.82L349.21,294.75L349.78,298.63L349.9,298.62L352.41,299.24L352.52,299.27L353.89,299.89L354.01,299.81L359.38,300.23" style="vector-effect: non-scaling-stroke; fill: none; stroke: rgb(255, 0, 0); stroke-opacity: 1; stroke-width: 2px; opacity: 1;"/><path class="js-line" d="M359.61,300.16L360.07,300.24" style="vector-effect: non-scaling-stroke; fill: none; stroke: rgb(255, 0, 0); stroke-opacity: 1; stroke-width: 2px; opacity: 1;"/><path class="js-line" d="M360.29,300.23L360.41,300.07" style="vector-effect: non-scaling-stroke; fill: none; stroke: rgb(255, 0, 0); stroke-opacity: 1; stroke-width: 2px; opacity: 1;"/><path class="js-line" d="M360.64,300.16L363.49,300.16L363.61,300L367.84,300.03L367.95,299.99L368.98,300.14L369.09,299.9L369.89,299.8L370.01,299.68L371.15,300.25" style="vector-effect: non-scaling-stroke; fill: none; stroke: rgb(255, 0, 0); stroke-opacity: 1; stroke-width: 2px; opacity: 1;"/><path class="js-line" d="M371.38,300.25L379.95,300.15L380.06,298.74L380.86,300.23L380.98,300.17L381.09,299.75L381.21,298.76L381.78,299.83L381.89,299.94L383.03,299.77L383.15,299.09L383.26,297.7L383.83,299.85" style="vector-effect: non-scaling-stroke; fill: none; stroke: rgb(255, 0, 0); stroke-opacity: 1; stroke-width: 2px; opacity: 1;"/><path class="js-line" d="M384.06,299.87L385.32,299.94" style="vector-effect: non-scaling-stroke; fill: none; stroke: rgb(255, 0, 0); stroke-opacity: 1; stroke-width: 2px; opacity: 1;"/><path class="js-line" d="M385.55,299.96L388.86,300.21L388.98,300.21L389.55,299.68L389.66,296.48L389.78,294.41L390.12,299.55L390.23,299.84L390.46,300.16L390.58,299.61L390.69,298.63L390.8,298.11L391.03,299.95L391.15,300.21L395.49,300.23L395.6,300.09L396.52,299.99L396.63,299.84L396.97,299.12L397.32,299.34L397.43,300.12L398.12,299.82L398.23,300.09L398.35,300.22L400.17,300.04L400.29,299.36L400.52,298.57L400.86,300.05L400.97,299.18L401.09,298.94L401.2,296.66L401.43,299.31L401.77,297.27L401.89,298.07L402.12,293.41L402.57,294.51L402.69,296.97L403.03,297.99L403.15,295.8L403.26,299.77L403.72,299.62L403.83,298.51L404.52,300.25L404.63,299.99L404.74,300.18L405.32,299.99L405.43,299.47L405.54,298.88L405.66,300.25L406,300.24L406.12,300.16L406.46,300.11" style="vector-effect: non-scaling-stroke; fill: none; stroke: rgb(255, 0, 0); stroke-opacity: 1; stroke-width: 2px; opacity: 1;"/><path class="js-line" d="M407.6,300.25L407.94,300.08L408.06,296.22L408.97,300.25L409.09,300.25L410,300.25" style="vector-effect: non-scaling-stroke; fill: none; stroke: rgb(255, 0, 0); stroke-opacity: 1; stroke-width: 2px; opacity: 1;"/><path class="js-line" d="M417.77,300.25L425.2,300.25L425.31,287.05L425.54,297.01L425.66,274.61L426.46,300.25L426.57,300.25L429.77,300.21L429.88,298.2L430.11,297.86" style="vector-effect: non-scaling-stroke; fill: none; stroke: rgb(255, 0, 0); stroke-opacity: 1; stroke-width: 2px; opacity: 1;"/><path class="js-line" d="M430.57,298.42L430.68,297.92" style="vector-effect: non-scaling-stroke; fill: none; stroke: rgb(255, 0, 0); stroke-opacity: 1; stroke-width: 2px; opacity: 1;"/><path class="js-line" d="M431.03,298.02L431.26,298.25" style="vector-effect: non-scaling-stroke; fill: none; stroke: rgb(255, 0, 0); stroke-opacity: 1; stroke-width: 2px; opacity: 1;"/><path class="js-line" d="M431.94,299.58L432.51,299.8" style="vector-effect: non-scaling-stroke; fill: none; stroke: rgb(255, 0, 0); stroke-opacity: 1; stroke-width: 2px; opacity: 1;"/><path class="js-line" d="M432.74,300.22L433.66,298.04L433.77,298.92L434.46,298.09L434.57,299.62L434.91,298.59L435.37,299.45L435.48,300.09" style="vector-effect: non-scaling-stroke; fill: none; stroke: rgb(255, 0, 0); stroke-opacity: 1; stroke-width: 2px; opacity: 1;"/><path class="js-line" d="M446.57,298.22L446.91,298.16L447.02,299.73L448.05,299.28L448.17,299.24L448.4,299.65L448.62,298.79L448.97,299.39L449.08,298.77L449.2,298.66L449.31,299.57L449.42,299.72L450,298.54L450.22,299.39L450.34,299.48L450.68,297.8L451.14,298.65L451.25,275.72L451.37,297.39L451.6,297.2" style="vector-effect: non-scaling-stroke; fill: none; stroke: rgb(255, 0, 0); stroke-opacity: 1; stroke-width: 2px; opacity: 1;"/><path class="js-line" d="M452.28,297.28L452.51,298.71L452.62,279.85L452.74,299.31" style="vector-effect: non-scaling-stroke; fill: none; stroke: rgb(255, 0, 0); stroke-opacity: 1; stroke-width: 2px; opacity: 1;"/><path class="js-line" d="M452.97,289.6L453.2,292.39" style="vector-effect: non-scaling-stroke; fill: none; stroke: rgb(255, 0, 0); stroke-opacity: 1; stroke-width: 2px; opacity: 1;"/><path class="js-line" d="M453.65,198.98L454,299.63L454.57,298.48L454.68,299.72L454.8,299.15L454.91,294.46L455.02,293.17L455.25,297.83L455.48,294.99L455.6,299.86L455.94,296.14L456.4,297.01L456.51,296.99L457.42,298.21L457.54,300.02L458.11,297.67L458.22,299.45L458.34,299.77L459.14,297.62L459.25,297.74L459.37,299.21L459.59,298.76L459.71,299.73L459.82,299.74L459.94,299.75L460.74,299.66L460.85,297.35L461.88,298.99L461.99,298.14L462.11,297.59L462.34,299.61L462.45,299.47L462.57,300.23L463.25,299.51L463.59,299.85L463.71,300.08L464.39,299.92L464.51,298.9L464.74,298.63L465.08,299.85L465.19,298.68L465.31,298.7L465.42,298.34L465.54,299.87L465.77,299.6L465.88,299.57L465.99,300.05L466.11,298.52L466.57,299.6L466.68,299.58" style="vector-effect: non-scaling-stroke; fill: none; stroke: rgb(255, 0, 0); stroke-opacity: 1; stroke-width: 2px; opacity: 1;"/><path class="js-line" d="M466.91,297.89L467.71,299.66L467.82,299.31L467.94,299.15L468.05,299.72L468.16,298.11L468.28,295.17L468.62,299.64L468.85,297.89L468.96,298.47L469.08,298.63L469.31,298.09L469.42,298.07L469.54,297.77L469.76,296.1L469.88,297.7" style="vector-effect: non-scaling-stroke; fill: none; stroke: rgb(255, 0, 0); stroke-opacity: 1; stroke-width: 2px; opacity: 1;"/><path class="js-line" d="M470.11,298.73L470.56,297.67L470.79,297.73L470.91,299.62L471.71,299.37" style="vector-effect: non-scaling-stroke; fill: none; stroke: rgb(255, 0, 0); stroke-opacity: 1; stroke-width: 2px; opacity: 1;"/><path class="js-line" d="M472.85,298.15L472.96,297.83" style="vector-effect: non-scaling-stroke; fill: none; stroke: rgb(255, 0, 0); stroke-opacity: 1; stroke-width: 2px; opacity: 1;"/><path class="js-line" d="M473.88,300.16L474.11,299.3L474.34,300.19" style="vector-effect: non-scaling-stroke; fill: none; stroke: rgb(255, 0, 0); stroke-opacity: 1; stroke-width: 2px; opacity: 1;"/><path class="js-line" d="M474.91,297.87L475.14,299.99" style="vector-effect: non-scaling-stroke; fill: none; stroke: rgb(255, 0, 0); stroke-opacity: 1; stroke-width: 2px; opacity: 1;"/><path class="js-line" d="M475.48,299.77L475.94,300.07L476.05,299.58L476.16,299.93L476.28,300.01" style="vector-effect: non-scaling-stroke; fill: none; stroke: rgb(255, 0, 0); stroke-opacity: 1; stroke-width: 2px; opacity: 1;"/><path class="js-line" d="M476.62,297.87L476.74,299.97L476.85,299.7" style="vector-effect: non-scaling-stroke; fill: none; stroke: rgb(255, 0, 0); stroke-opacity: 1; stroke-width: 2px; opacity: 1;"/><path class="js-line" d="M477.42,299.91L478.11,299.47L478.22,299.62L478.33,299.87L479.13,299.22L479.36,299.58L479.48,299.65L480.39,299.9L480.51,299.71L481.31,299.04L481.42,299.16L481.53,300.23L490.33,300.25L490.45,300.25L493.65,300.25L493.76,281.14L494.56,300.25L494.68,300.25L507.93,300.25L508.05,297.87L508.16,262.15L508.39,300.25L508.73,300.25L508.85,300.25L529.64,299.73L529.76,299.49L530.44,299.58L530.56,299.3L530.67,299.13L530.78,299.32L530.9,298.67L531.24,298.9L531.36,298.73L531.58,298.48L531.93,299L532.16,298.56L532.27,298.03L532.5,299.22L533.18,298.88L533.3,298.09L534.1,299.68L534.21,299.63L534.33,299.58L534.44,298.9L534.67,300.07L535.01,299.77L535.13,299.98L535.81,299.2L536.16,299.81L536.27,300.05L537.07,299.03L537.18,300.16L538.33,300.25L538.44,300.25L554.32,299.75L554.44,299.21L554.55,299.8L555.01,298.77L555.12,299.47" style="vector-effect: non-scaling-stroke; fill: none; stroke: rgb(255, 0, 0); stroke-opacity: 1; stroke-width: 2px; opacity: 1;"/><path class="js-line" d="M557.07,298.77L557.75,298.58L557.87,298.68L557.98,299.11L558.32,299.27L558.44,298.88L558.67,299.16L558.78,299.54L559.35,299.35L559.58,300.25L559.7,300.24L561.18,300.06L561.3,300.02L562.44,300.22L562.55,300.14L563.81,300.25L563.92,300.24L570.67,299.99L570.78,299.73L571.69,300.06L571.81,299.97L572.04,299.97L572.15,294.51L572.95,300.25L573.06,300.25L573.29,300.25L573.41,288.68L573.52,185.89L573.75,300.25L574.09,300.25L574.21,300.25L580.38,300.25L580.49,298.18L580.61,248.97L580.95,300.25L581.18,300.25L581.29,300.25L582.21,300.25L582.32,297.14L583.12,300.25L583.23,300.25L593.18,300.25L593.29,299.4L594.09,300.25L594.2,300.25L610.66,300.01L610.77,299.46L611.92,298.73L612.03,298.99L612.72,298.84L612.83,298.89L612.95,298.92L613.52,298.33L613.63,299.02L613.75,299.24L614.32,298.91L614.43,299.22L614.54,299.55L614.77,298.88L615.23,299.68L615.34,300.03L616.37,299.42L616.49,299.75L617.63,300.24L617.74,300.24L635.23,300.25L635.34,300.25L658.65,300.06L658.77,299.42L659.57,300.25L659.68,300.25L715.9,300.25L716.02,298.83L716.82,300.13L716.93,300.23L717.96,299.61L718.07,299.51L718.42,300.25L718.87,300.04L718.99,299.95L719.22,300.21L719.9,299.71L720.02,299.94L720.59,299.92L720.7,300.02L720.82,300.25L720.93,284.5L721.5,298.68L721.62,298.99L722.87,299.6L722.99,299.53L723.22,299.68L723.33,298.31L723.79,300.25L724.13,299.28L724.24,299.49L724.47,299.63L724.59,290.52L725.27,299.21L725.39,299.19L725.5,299.32L726.64,299.65L726.76,284.73L726.99,299.83L727.56,298.61L727.67,299.04L728.59,299.85L728.7,285.61L729.5,299.67L729.62,299.34L729.73,299.41L730.53,298.84L730.64,298.98L730.76,298.79L731.9,299.1L732.01,298.69L732.93,299.02L733.04,298.99L734.19,299.21L734.3,299.22L734.64,298.9L735.21,299.46L735.33,299.35L736.13,298.46L736.36,298.71L736.47,298.96L736.7,299.64L736.93,298.66L737.16,299.31L737.27,299.11L738.3,298.06L738.41,298.44L738.53,298.8L738.64,298.26L738.99,298.91L739.21,298.58L739.33,299.01L740.36,299.73L740.47,299.55L740.58,298.58L740.93,299.14L741.04,298.68L741.16,294.85L741.96,299.18L742.07,298.38L742.18,298.96L742.3,281.51L743.1,299.03L743.21,299.21L743.67,299.23L743.78,298.35L744.01,298.68L744.13,289.03L745.04,299.68L745.16,299.81L746.41,300.06L746.53,300.06L747.56,300.06L747.67,298.33L751.9,298.68L752.01,298.67L768.81,298.91L768.92,298.72L769.04,299.11L769.27,298.6L769.38,298.96L769.5,297.99L769.72,299.06L769.95,297.49L770.18,298.24L770.3,297.37L770.64,298.18L770.98,297.47L771.1,297.53L771.21,297.84L771.55,296.89L771.67,297L771.78,296.77L772.47,298.03L772.69,297.76L772.81,294.17L773.38,298.49L773.61,298.13L773.72,298.41L773.84,298.76L773.95,293.12L774.07,298.13L774.75,297.74L774.87,297.75L774.98,297.4L775.09,297.92L775.55,297.89L775.67,297.89L776.92,297.85L777.04,297.7L777.61,294.27L777.72,297.43L777.84,297.42L777.95,297.57L778.18,297.26L778.29,295.87L778.75,297.14L779.21,290.94L779.32,293.36L779.78,297.77L780.01,294.51L780.12,291.5L780.35,291.38L780.69,296.9L781.15,296.77L781.27,288.89L781.49,296.13L781.72,293.74L781.84,285.27L782.41,295.21L782.75,294.53L782.86,294.09L782.98,293.38L783.09,295.64L783.21,297.82L783.66,294.68L783.89,297.79L784.01,297.68L784.35,298.27L784.69,297.69L784.81,297.8L784.92,288.96L785.38,299.24L785.49,298.29L785.61,298.08L786.41,298.23L786.52,298.17L787.09,298.47L787.32,298L787.44,298.29L789.26,297.91L789.38,297.67L789.72,298L789.84,283.46L789.95,297.88L790.64,297.72L790.75,297.59L793.72,297.87L793.83,297.76L794.41,298.08L794.63,297.9L794.75,297.82L794.98,297.59L795.09,297.82L795.21,196.95L795.32,131.02L795.78,296.61L795.89,297.25L797.72,296.84L797.83,297.44L798.86,296.7L798.98,297.07L799.66,297.61L799.78,297.69L801.49,297.47L801.61,297.12L802.18,297.74L802.41,297.62L802.52,297.68L803.78,297.59L803.89,297.64L804.58,297.74L804.69,296.34L805.26,297.64L805.38,294.82L805.49,289.83L805.6,194.96L805.72,156.52L805.95,293.13L806.06,297.31L807.2,298.21L807.32,298.21L808.12,298.35L808.23,296.85L809.26,298.07L809.38,298.1L810.52,297.92L810.63,293.73L810.86,298.05L811.09,290.31L811.43,297.39L811.55,297.9L812.58,298.21L812.69,298.22L813.72,298.33L813.83,291.81L814.52,298.45L814.63,298.42L814.75,298.44L816.92,298.67L817.03,298.57L817.26,298.23L817.37,298.84L817.72,298.79L817.83,298.77L818.52,298.51L818.63,298.08L819.2,299.08L819.55,298.57L819.66,298.63L820.8,298.37L820.92,298.2L821.6,299.11L821.72,298.99L821.83,298.83L822.86,299.08L822.97,299L823.89,299.19L824,299.31L825.49,299.02L825.6,299.03L826.4,298.98L826.52,298.95L830.52,298.89L830.63,298.27L830.74,297.09L830.86,265.89L831.2,297.94L831.66,297.77L831.77,297.8L834.63,298.01L834.74,298.01L840,298.19" style="vector-effect: non-scaling-stroke; fill: none; stroke: rgb(255, 0, 0); stroke-opacity: 1; stroke-width: 2px; opacity: 1;"/></g><g class="points"/><g class="text"/></g><g class="trace scatter tracedad12e" style="stroke-miterlimit: 2; opacity: 1;"><g class="fills"/><g class="errorbars"/><g class="lines"><path class="js-line" d="M0,300.25L1.49,300.25L1.6,272.29L1.71,133.49L2.06,300.25L2.29,300.25L2.4,300.25L4.91,300.25L5.03,297.06L5.14,295.87L5.26,300.25L5.48,300.25L5.6,300.25L14.06,299.99L14.17,298.25L14.28,299.25L14.4,296.46L14.51,292.15L16.23,213.28L16.34,223.03L16.45,246.47L17.14,241.4L17.25,235.66L17.48,231.95L17.6,226.2L18.51,284.46L18.63,275.75L18.85,269.88L20.23,300.25L20.34,300.25L29.71,300.17L29.82,297.96L30.17,295.86L30.4,300.25L30.51,297.41L30.97,297.08L31.2,299.21L31.42,299.05L31.54,298.44L31.65,297.7L32,299.95L32.11,293.21L32.57,300.25L32.91,296.89L33.02,300.23L33.14,298.9L33.71,299.76L33.82,300.25L34.05,300.11L34.17,296.61L34.62,296.23L34.97,300.25L35.08,300.25L43.99,300.25L44.11,299.41L44.91,300.25L45.02,300.25L45.82,300.25L45.94,296.68L46.74,300.25L46.85,300.25L47.99,300.25L48.11,299.22L48.91,300.25L49.02,300.25L52.11,300.25L52.22,289.1L52.34,241.97L52.45,300.25L52.91,300.25L53.02,299.85L53.14,140.84L53.59,300.25L53.71,300.25L53.82,300.25L56.11,300.04L56.22,119.7L57.14,300.25L57.25,300.25L57.82,300.25L57.93,292.94L58.73,300.25L58.85,300.25L59.31,300.25L59.42,125.71L60.33,300.25L60.45,300.25L67.19,300.25L67.31,299.35L67.42,300.25L67.76,298.62L67.88,294.81L68.45,292.89L68.68,299.46L68.79,297.93L69.25,288.68L69.48,291.99L69.59,296.03L70.39,300.25L70.5,300.25L73.7,300.25L73.82,279.72L74.73,300.25L74.85,300.25L75.3,300.25L75.42,297.64L76.22,300.25L76.33,300.25L80.79,300.13L80.9,284.03L81.02,261.11L81.25,300.25L81.47,300.25L81.59,300.25L83.87,300.25L83.99,238.65L84.67,300.25L84.79,300.24L84.9,300.24L89.02,300.19L89.13,245.11L89.59,295.19L89.7,285.01L89.82,132.78L89.93,139.08L90.04,266.45L90.96,300.15L91.07,300.25L93.7,299.51L93.82,297.85L94.04,300.01L94.39,295.1L94.5,290.3L95.53,300.25L95.64,300.24L97.13,295.3L97.24,292.19L97.47,293.86L97.59,288.3L98.73,250.92L98.84,248.73L99.99,219.59L100.1,219.95L100.21,255.24L101.01,300.25L101.13,300.25L104.67,300.16L104.79,298.96L105.59,300.25L105.7,300.25L107.87,300.23L107.99,298.09L108.9,300.25L109.01,300.2L109.13,299.76L109.7,300.25L109.81,300.22L110.27,300.18L110.38,294.63L111.18,300.25L111.3,299.58L111.64,297.35L111.76,291.55L112.56,273.6L112.67,289.15L112.9,285.74L113.47,299.89L113.58,298.73L113.7,292.4L114.04,281.65L114.16,292.1L114.5,291.05L114.73,300.25L114.96,297.17L115.07,297.26L115.3,296.62L115.87,300.24L115.98,300.06L116.1,300.25L116.21,299.43L116.33,298.09L116.56,210.43L117.01,297.59L117.13,299.97L117.36,300.25L117.47,292.17L117.58,292.48L117.7,297.88L118.04,296.6L118.5,300.24L118.73,300.2L118.84,299.84L118.96,295.92L119.41,300.21L119.53,299.78L119.64,300.25L120.33,295.23L120.56,296.69L120.67,299.74L120.78,297.99L121.35,300.24L121.47,300.16L121.81,292.35L121.93,152.72L122.73,298.99L122.84,300.25L130.73,300.25L130.84,295.75L130.95,176.1L131.18,300.25L131.52,216.62L131.64,275.43L132.44,300.25L132.55,300.25L135.07,300.25L135.18,299.39L135.3,137.83L135.64,300.25L135.87,300.25L135.98,300.25L137.12,300.25L137.24,16L138.04,300.25L138.15,300.25L138.61,300.25L138.72,276.16L139.07,300.25L139.3,291.68L139.41,230.91L139.98,300.25L140.21,280.2L140.32,300.25L157.01,300.25" style="vector-effect: non-scaling-stroke; fill: none; stroke: rgb(0, 0, 255); stroke-opacity: 1; stroke-width: 2px; opacity: 1;"/><path class="js-line" d="M157.24,300.25L158.95,300.25" style="vector-effect: non-scaling-stroke; fill: none; stroke: rgb(0, 0, 255); stroke-opacity: 1; stroke-width: 2px; opacity: 1;"/><path class="js-line" d="M159.18,300.25L164.21,300.25L164.32,297.54L165.12,300.25L165.23,300.25L171.18,300.24L171.29,286.74L171.41,273.76L171.52,300.25L171.86,300.25L171.98,300.25L174.83,300.25L174.95,286.05L175.75,300.25L175.86,300.25L182.83,299.65L182.95,297.89L183.06,298.85L183.18,294.46L183.63,297.77L183.75,297.3L184.43,285.42L184.77,285.58L184.89,291.56L185.8,264.86L185.92,270.1L186.15,273.66L186.26,267.31L186.37,260.78L186.49,252.44L186.83,267.97L186.95,275.18L187.06,273.8L187.17,260.87L188.43,300.25L188.55,300.25L193.23,300.25" style="vector-effect: non-scaling-stroke; fill: none; stroke: rgb(0, 0, 255); stroke-opacity: 1; stroke-width: 2px; opacity: 1;"/><path class="js-line" d="M193.69,300.25L195.4,300.25L195.52,290.06L196.32,300.25L196.43,300.25L199.4,300.25L199.52,211.99L200.32,300.25L200.43,300.25L202.94,300.25L203.06,293.22L203.29,184.31L203.63,300.25L203.74,300.25L203.86,300.25L211.06,300.25" style="vector-effect: non-scaling-stroke; fill: none; stroke: rgb(0, 0, 255); stroke-opacity: 1; stroke-width: 2px; opacity: 1;"/><path class="js-line" d="M298.7,300.25L300.53,300.25L300.64,300.25L303.84,300.25" style="vector-effect: non-scaling-stroke; fill: none; stroke: rgb(0, 0, 255); stroke-opacity: 1; stroke-width: 2px; opacity: 1;"/><path class="js-line" d="M304.07,300.25L305.22,300.25" style="vector-effect: non-scaling-stroke; fill: none; stroke: rgb(0, 0, 255); stroke-opacity: 1; stroke-width: 2px; opacity: 1;"/><path class="js-line" d="M305.9,300.23L306.93,300.25L307.04,299.07L307.96,300.25L308.07,300.25L308.64,300.25" style="vector-effect: non-scaling-stroke; fill: none; stroke: rgb(0, 0, 255); stroke-opacity: 1; stroke-width: 2px; opacity: 1;"/><path class="js-line" d="M309.44,300.24L310.81,300.24L310.93,299.4L311.04,300.24L311.16,300.14L311.27,275.23L312.07,300.25L312.19,300.25" style="vector-effect: non-scaling-stroke; fill: none; stroke: rgb(0, 0, 255); stroke-opacity: 1; stroke-width: 2px; opacity: 1;"/><path class="js-line" d="M314.7,300.25L319.73,300.25" style="vector-effect: non-scaling-stroke; fill: none; stroke: rgb(0, 0, 255); stroke-opacity: 1; stroke-width: 2px; opacity: 1;"/><path class="js-line" d="M320.98,296.24L321.1,295.88" style="vector-effect: non-scaling-stroke; fill: none; stroke: rgb(0, 0, 255); stroke-opacity: 1; stroke-width: 2px; opacity: 1;"/><path class="js-line" d="M322.01,300.25L333.21,299.73L333.33,294.04L333.44,290.83L333.67,297.96L333.78,297.94" style="vector-effect: non-scaling-stroke; fill: none; stroke: rgb(0, 0, 255); stroke-opacity: 1; stroke-width: 2px; opacity: 1;"/><path class="js-line" d="M342.92,298.78L344.07,298.49L344.18,297.7L344.87,298.6L344.98,297.2L345.78,298.41L345.9,298.21L346.01,297.86L346.47,298.48L346.58,298.55L347.04,298.56L347.15,297.72L347.61,296.92L348.07,298.58L348.18,298.62L348.98,298.6L349.1,297.82L349.21,294.75L349.78,298.63L349.9,298.62L352.41,299.24L352.52,299.27L353.89,299.89L354.01,299.81L359.38,300.23" style="vector-effect: non-scaling-stroke; fill: none; stroke: rgb(0, 0, 255); stroke-opacity: 1; stroke-width: 2px; opacity: 1;"/><path class="js-line" d="M359.61,300.16L360.07,300.24" style="vector-effect: non-scaling-stroke; fill: none; stroke: rgb(0, 0, 255); stroke-opacity: 1; stroke-width: 2px; opacity: 1;"/><path class="js-line" d="M360.29,300.23L360.41,300.07" style="vector-effect: non-scaling-stroke; fill: none; stroke: rgb(0, 0, 255); stroke-opacity: 1; stroke-width: 2px; opacity: 1;"/><path class="js-line" d="M360.64,300.16L363.49,300.16L363.61,300L367.84,300.03L367.95,299.99L368.98,300.14L369.09,299.9L369.89,299.8L370.01,299.68L371.15,300.25" style="vector-effect: non-scaling-stroke; fill: none; stroke: rgb(0, 0, 255); stroke-opacity: 1; stroke-width: 2px; opacity: 1;"/><path class="js-line" d="M371.38,300.25L379.95,300.15L380.06,298.74L380.86,300.23L380.98,300.17L381.09,299.75L381.21,298.76L381.78,299.83L381.89,299.94L383.03,299.77L383.15,299.09L383.26,297.7L383.83,299.85" style="vector-effect: non-scaling-stroke; fill: none; stroke: rgb(0, 0, 255); stroke-opacity: 1; stroke-width: 2px; opacity: 1;"/><path class="js-line" d="M384.06,299.87L385.32,299.94" style="vector-effect: non-scaling-stroke; fill: none; stroke: rgb(0, 0, 255); stroke-opacity: 1; stroke-width: 2px; opacity: 1;"/><path class="js-line" d="M385.55,299.96L388.86,300.21L388.98,300.21L389.55,299.68L389.66,296.48L389.78,294.41L390.12,299.55L390.23,299.84L390.46,300.16L390.58,299.61L390.69,298.63L390.8,298.11L391.03,299.95L391.15,300.21L395.49,300.23L395.6,300.09L396.52,299.99L396.63,299.84L396.97,299.12L397.32,299.34L397.43,300.12L398.12,299.82L398.23,300.09L398.35,300.22L400.17,300.04L400.29,299.36L400.52,298.57L400.86,300.05L400.97,299.18L401.09,298.94L401.2,296.66L401.43,299.31L401.77,297.27L401.89,298.07L402.12,293.41L402.57,294.51L402.69,296.97L403.03,297.99L403.15,295.8L403.26,299.77L403.72,299.62L403.83,298.51L404.52,300.25L404.63,299.99L404.74,300.18L405.32,299.99L405.43,299.47L405.54,298.88L405.66,300.25L406,300.24L406.12,300.16L406.46,300.11" style="vector-effect: non-scaling-stroke; fill: none; stroke: rgb(0, 0, 255); stroke-opacity: 1; stroke-width: 2px; opacity: 1;"/><path class="js-line" d="M407.6,300.25L407.94,300.08L408.06,296.22L408.97,300.25L409.09,300.25L410,300.25" style="vector-effect: non-scaling-stroke; fill: none; stroke: rgb(0, 0, 255); stroke-opacity: 1; stroke-width: 2px; opacity: 1;"/><path class="js-line" d="M417.77,300.25L425.2,300.25L425.31,287.05L425.54,297.01L425.66,274.61L426.46,300.25L426.57,300.25L429.77,300.21L429.88,298.2L430.11,297.86" style="vector-effect: non-scaling-stroke; fill: none; stroke: rgb(0, 0, 255); stroke-opacity: 1; stroke-width: 2px; opacity: 1;"/><path class="js-line" d="M430.57,298.42L430.68,297.92" style="vector-effect: non-scaling-stroke; fill: none; stroke: rgb(0, 0, 255); stroke-opacity: 1; stroke-width: 2px; opacity: 1;"/><path class="js-line" d="M431.03,298.02L431.26,298.25" style="vector-effect: non-scaling-stroke; fill: none; stroke: rgb(0, 0, 255); stroke-opacity: 1; stroke-width: 2px; opacity: 1;"/><path class="js-line" d="M431.94,299.58L432.51,299.8" style="vector-effect: non-scaling-stroke; fill: none; stroke: rgb(0, 0, 255); stroke-opacity: 1; stroke-width: 2px; opacity: 1;"/><path class="js-line" d="M432.74,300.22L433.66,298.04L433.77,298.92L434.46,298.09L434.57,299.62L434.91,298.59L435.37,299.45L435.48,300.09" style="vector-effect: non-scaling-stroke; fill: none; stroke: rgb(0, 0, 255); stroke-opacity: 1; stroke-width: 2px; opacity: 1;"/><path class="js-line" d="M446.57,298.22L446.91,298.16L447.02,299.73L448.05,299.28L448.17,299.24L448.4,299.65L448.62,298.79L448.97,299.39L449.08,298.77L449.2,298.66L449.31,299.57L449.42,299.72L450,298.54L450.22,299.39L450.34,299.48L450.68,297.8L451.14,298.65L451.25,275.72L451.37,297.39L451.6,297.2" style="vector-effect: non-scaling-stroke; fill: none; stroke: rgb(0, 0, 255); stroke-opacity: 1; stroke-width: 2px; opacity: 1;"/><path class="js-line" d="M452.28,297.28L452.51,298.71L452.62,279.85L452.74,299.31" style="vector-effect: non-scaling-stroke; fill: none; stroke: rgb(0, 0, 255); stroke-opacity: 1; stroke-width: 2px; opacity: 1;"/><path class="js-line" d="M452.97,289.6L453.2,292.39" style="vector-effect: non-scaling-stroke; fill: none; stroke: rgb(0, 0, 255); stroke-opacity: 1; stroke-width: 2px; opacity: 1;"/><path class="js-line" d="M453.65,198.98L454,299.63L454.57,298.48L454.68,299.72L454.8,299.15L454.91,294.46L455.02,293.17L455.25,297.83L455.48,294.99L455.6,299.86L455.94,296.14L456.4,297.01L456.51,296.99L457.42,298.21L457.54,300.02L458.11,297.67L458.22,299.45L458.34,299.77L459.14,297.62L459.25,297.74L459.37,299.21L459.59,298.76L459.71,299.73L459.82,299.74L459.94,299.75L460.74,299.66L460.85,297.35L461.88,298.99L461.99,298.14L462.11,297.59L462.34,299.61L462.45,299.47L462.57,300.23L463.25,299.51L463.59,299.85L463.71,300.08L464.39,299.92L464.51,298.9L464.74,298.63L465.08,299.85L465.19,298.68L465.31,298.7L465.42,298.34L465.54,299.87L465.77,299.6L465.88,299.57L465.99,300.05L466.11,298.52L466.57,299.6L466.68,299.58" style="vector-effect: non-scaling-stroke; fill: none; stroke: rgb(0, 0, 255); stroke-opacity: 1; stroke-width: 2px; opacity: 1;"/><path class="js-line" d="M466.91,297.89L467.71,299.66L467.82,299.31L467.94,299.15L468.05,299.72L468.16,298.11L468.28,295.17L468.62,299.64L468.85,297.89L468.96,298.47L469.08,298.63L469.31,298.09L469.42,298.07L469.54,297.77L469.76,296.1L469.88,297.7" style="vector-effect: non-scaling-stroke; fill: none; stroke: rgb(0, 0, 255); stroke-opacity: 1; stroke-width: 2px; opacity: 1;"/><path class="js-line" d="M470.11,298.73L470.56,297.67L470.79,297.73L470.91,299.62L471.71,299.37" style="vector-effect: non-scaling-stroke; fill: none; stroke: rgb(0, 0, 255); stroke-opacity: 1; stroke-width: 2px; opacity: 1;"/><path class="js-line" d="M472.85,298.15L472.96,297.83" style="vector-effect: non-scaling-stroke; fill: none; stroke: rgb(0, 0, 255); stroke-opacity: 1; stroke-width: 2px; opacity: 1;"/><path class="js-line" d="M473.88,300.16L474.11,299.3L474.34,300.19" style="vector-effect: non-scaling-stroke; fill: none; stroke: rgb(0, 0, 255); stroke-opacity: 1; stroke-width: 2px; opacity: 1;"/><path class="js-line" d="M474.91,297.87L475.14,299.99" style="vector-effect: non-scaling-stroke; fill: none; stroke: rgb(0, 0, 255); stroke-opacity: 1; stroke-width: 2px; opacity: 1;"/><path class="js-line" d="M475.48,299.77L475.94,300.07L476.05,299.58L476.16,299.93L476.28,300.01" style="vector-effect: non-scaling-stroke; fill: none; stroke: rgb(0, 0, 255); stroke-opacity: 1; stroke-width: 2px; opacity: 1;"/><path class="js-line" d="M476.62,297.87L476.74,299.97L476.85,299.7" style="vector-effect: non-scaling-stroke; fill: none; stroke: rgb(0, 0, 255); stroke-opacity: 1; stroke-width: 2px; opacity: 1;"/><path class="js-line" d="M477.42,299.91L478.11,299.47L478.22,299.62L478.33,299.87L479.13,299.22L479.36,299.58L479.48,299.65L480.39,299.9L480.51,299.71L481.31,299.04L481.42,299.16L481.53,300.23L490.33,300.25L490.45,300.25L493.65,300.25L493.76,281.14L494.56,300.25L494.68,300.25L507.93,300.25L508.05,297.87L508.16,262.15L508.39,300.25L508.73,300.25L508.85,300.25L529.64,299.73L529.76,299.49L530.44,299.58L530.56,299.3L530.67,299.13L530.78,299.32L530.9,298.67L531.24,298.9L531.36,298.73L531.58,298.48L531.93,299L532.16,298.56L532.27,298.03L532.5,299.22L533.18,298.88L533.3,298.09L534.1,299.68L534.21,299.63L534.33,299.58L534.44,298.9L534.67,300.07L535.01,299.77L535.13,299.98L535.81,299.2L536.16,299.81L536.27,300.05L537.07,299.03L537.18,300.16L538.33,300.25L538.44,300.25L554.32,299.75L554.44,299.21L554.55,299.8L555.01,298.77L555.12,299.47" style="vector-effect: non-scaling-stroke; fill: none; stroke: rgb(0, 0, 255); stroke-opacity: 1; stroke-width: 2px; opacity: 1;"/><path class="js-line" d="M557.07,298.77L557.75,298.58L557.87,298.68L557.98,299.11L558.32,299.27L558.44,298.88L558.67,299.16L558.78,299.54L559.35,299.35L559.58,300.25L559.7,300.24L561.18,300.06L561.3,300.02L562.44,300.22L562.55,300.14L563.81,300.25L563.92,300.24L570.67,299.99L570.78,299.73L571.69,300.06L571.81,299.97L572.04,299.97L572.15,294.51L572.95,300.25L573.06,300.25L573.29,300.25L573.41,288.68L573.52,185.89L573.75,300.25L574.09,300.25L574.21,300.25L580.38,300.25L580.49,298.18L580.61,248.97L580.95,300.25L581.18,300.25L581.29,300.25L582.21,300.25L582.32,297.14L583.12,300.25L583.23,300.25L593.18,300.25L593.29,299.4L594.09,300.25L594.2,300.25L610.66,300.01L610.77,299.46L611.92,298.73L612.03,298.99L612.72,298.84L612.83,298.89L612.95,298.92L613.52,298.33L613.63,299.02L613.75,299.24L614.32,298.91L614.43,299.22L614.54,299.55L614.77,298.88L615.23,299.68L615.34,300.03L616.37,299.42L616.49,299.75L617.63,300.24L617.74,300.24L635.23,300.25L635.34,300.25L658.65,300.06L658.77,299.42L659.57,300.25L659.68,300.25L715.9,300.25L716.02,298.83L716.82,300.13L716.93,300.23L717.96,299.61L718.07,299.51L718.42,300.25L718.87,300.04L718.99,299.95L719.22,300.21L719.9,299.71L720.02,299.94L720.59,299.92L720.7,300.02L720.82,300.25L720.93,284.5L721.5,298.68L721.62,298.99L722.87,299.6L722.99,299.53L723.22,299.68L723.33,298.31L723.79,300.25L724.13,299.28L724.24,299.49L724.47,299.63L724.59,290.52L725.27,299.21L725.39,299.19L725.5,299.32L726.64,299.65L726.76,284.73L726.99,299.83L727.56,298.61L727.67,299.04L728.59,299.85L728.7,285.61L729.5,299.67L729.62,299.34L729.73,299.41L730.53,298.84L730.64,298.98L730.76,298.79L731.9,299.1L732.01,298.69L732.93,299.02L733.04,298.99L734.19,299.21L734.3,299.22L734.64,298.9L735.21,299.46L735.33,299.35L736.13,298.46L736.36,298.71L736.47,298.96L736.7,299.64L736.93,298.66L737.16,299.31L737.27,299.11L738.3,298.06L738.41,298.44L738.53,298.8L738.64,298.26L738.99,298.91L739.21,298.58L739.33,299.01L740.36,299.73L740.47,299.55L740.58,298.58L740.93,299.14L741.04,298.68L741.16,294.85L741.96,299.18L742.07,298.38L742.18,298.96L742.3,281.51L743.1,299.03L743.21,299.21L743.67,299.23L743.78,298.35L744.01,298.68L744.13,289.03L745.04,299.68L745.16,299.81L746.41,300.06L746.53,300.06L747.56,300.06" style="vector-effect: non-scaling-stroke; fill: none; stroke: rgb(0, 0, 255); stroke-opacity: 1; stroke-width: 2px; opacity: 1;"/></g><g class="points"/><g class="text"/></g><g class="trace scatter trace4a900d" style="stroke-miterlimit: 2; opacity: 1;"><g class="fills"/><g class="errorbars"/><g class="lines"/><g class="points"><path class="point" transform="translate(313.79,299.97)" d="M3,0A3,3 0 1,1 0,-3A3,3 0 0,1 3,0Z" style="opacity: 1; stroke-width: 0px; fill: rgb(255, 0, 0); fill-opacity: 1;"/><path class="point" transform="translate(320.19,296.7)" d="M3,0A3,3 0 1,1 0,-3A3,3 0 0,1 3,0Z" style="opacity: 1; stroke-width: 0px; fill: rgb(255, 0, 0); fill-opacity: 1;"/><path class="point" transform="translate(321.78,297.46)" d="M3,0A3,3 0 1,1 0,-3A3,3 0 0,1 3,0Z" style="opacity: 1; stroke-width: 0px; fill: rgb(255, 0, 0); fill-opacity: 1;"/><path class="point" transform="translate(414.69,300.25)" d="M3,0A3,3 0 1,1 0,-3A3,3 0 0,1 3,0Z" style="opacity: 1; stroke-width: 0px; fill: rgb(255, 0, 0); fill-opacity: 1;"/><path class="point" transform="translate(431.6,298.06)" d="M3,0A3,3 0 1,1 0,-3A3,3 0 0,1 3,0Z" style="opacity: 1; stroke-width: 0px; fill: rgb(255, 0, 0); fill-opacity: 1;"/><path class="point" transform="translate(452.05,296.76)" d="M3,0A3,3 0 1,1 0,-3A3,3 0 0,1 3,0Z" style="opacity: 1; stroke-width: 0px; fill: rgb(255, 0, 0); fill-opacity: 1;"/><path class="point" transform="translate(471.94,298.57)" d="M3,0A3,3 0 1,1 0,-3A3,3 0 0,1 3,0Z" style="opacity: 1; stroke-width: 0px; fill: rgb(255, 0, 0); fill-opacity: 1;"/><path class="point" transform="translate(472.16,298.02)" d="M3,0A3,3 0 1,1 0,-3A3,3 0 0,1 3,0Z" style="opacity: 1; stroke-width: 0px; fill: rgb(255, 0, 0); fill-opacity: 1;"/><path class="point" transform="translate(472.51,297.77)" d="M3,0A3,3 0 1,1 0,-3A3,3 0 0,1 3,0Z" style="opacity: 1; stroke-width: 0px; fill: rgb(255, 0, 0); fill-opacity: 1;"/><path class="point" transform="translate(473.19,297.81)" d="M3,0A3,3 0 1,1 0,-3A3,3 0 0,1 3,0Z" style="opacity: 1; stroke-width: 0px; fill: rgb(255, 0, 0); fill-opacity: 1;"/><path class="point" transform="translate(473.54,297.81)" d="M3,0A3,3 0 1,1 0,-3A3,3 0 0,1 3,0Z" style="opacity: 1; stroke-width: 0px; fill: rgb(255, 0, 0); fill-opacity: 1;"/><path class="point" transform="translate(474.56,300.25)" d="M3,0A3,3 0 1,1 0,-3A3,3 0 0,1 3,0Z" style="opacity: 1; stroke-width: 0px; fill: rgb(255, 0, 0); fill-opacity: 1;"/></g><g class="text"/></g><g class="trace scatter tracedc7848" style="stroke-miterlimit: 2; opacity: 1;"><g class="fills"/><g class="errorbars"/><g class="lines"/><g class="points"><path class="point" transform="translate(313.79,299.97)" d="M3,0A3,3 0 1,1 0,-3A3,3 0 0,1 3,0Z" style="opacity: 1; stroke-width: 0px; fill: rgb(0, 0, 255); fill-opacity: 1;"/><path class="point" transform="translate(320.19,296.7)" d="M3,0A3,3 0 1,1 0,-3A3,3 0 0,1 3,0Z" style="opacity: 1; stroke-width: 0px; fill: rgb(0, 0, 255); fill-opacity: 1;"/><path class="point" transform="translate(321.78,297.46)" d="M3,0A3,3 0 1,1 0,-3A3,3 0 0,1 3,0Z" style="opacity: 1; stroke-width: 0px; fill: rgb(0, 0, 255); fill-opacity: 1;"/><path class="point" transform="translate(414.69,300.25)" d="M3,0A3,3 0 1,1 0,-3A3,3 0 0,1 3,0Z" style="opacity: 1; stroke-width: 0px; fill: rgb(0, 0, 255); fill-opacity: 1;"/><path class="point" transform="translate(431.6,298.06)" d="M3,0A3,3 0 1,1 0,-3A3,3 0 0,1 3,0Z" style="opacity: 1; stroke-width: 0px; fill: rgb(0, 0, 255); fill-opacity: 1;"/><path class="point" transform="translate(452.05,296.76)" d="M3,0A3,3 0 1,1 0,-3A3,3 0 0,1 3,0Z" style="opacity: 1; stroke-width: 0px; fill: rgb(0, 0, 255); fill-opacity: 1;"/><path class="point" transform="translate(471.94,298.57)" d="M3,0A3,3 0 1,1 0,-3A3,3 0 0,1 3,0Z" style="opacity: 1; stroke-width: 0px; fill: rgb(0, 0, 255); fill-opacity: 1;"/><path class="point" transform="translate(472.16,298.02)" d="M3,0A3,3 0 1,1 0,-3A3,3 0 0,1 3,0Z" style="opacity: 1; stroke-width: 0px; fill: rgb(0, 0, 255); fill-opacity: 1;"/><path class="point" transform="translate(472.51,297.77)" d="M3,0A3,3 0 1,1 0,-3A3,3 0 0,1 3,0Z" style="opacity: 1; stroke-width: 0px; fill: rgb(0, 0, 255); fill-opacity: 1;"/><path class="point" transform="translate(473.19,297.81)" d="M3,0A3,3 0 1,1 0,-3A3,3 0 0,1 3,0Z" style="opacity: 1; stroke-width: 0px; fill: rgb(0, 0, 255); fill-opacity: 1;"/><path class="point" transform="translate(473.54,297.81)" d="M3,0A3,3 0 1,1 0,-3A3,3 0 0,1 3,0Z" style="opacity: 1; stroke-width: 0px; fill: rgb(0, 0, 255); fill-opacity: 1;"/><path class="point" transform="translate(474.56,300.25)" d="M3,0A3,3 0 1,1 0,-3A3,3 0 0,1 3,0Z" style="opacity: 1; stroke-width: 0px; fill: rgb(0, 0, 255); fill-opacity: 1;"/></g><g class="text"/></g></g></g><g class="overplot"/><path class="xlines-above crisp" d="M0,0" style="fill: none;"/><path class="ylines-above crisp" d="M0,0" style="fill: none;"/><g class="overlines-above"/><g class="xaxislayer-above"><g class="xtick"><text text-anchor="middle" x="0" y="433" transform="translate(246.95,0)" style="font-family: 'Open Sans', verdana, arial, sans-serif; font-size: 12px; fill: rgb(42, 63, 95); fill-opacity: 1; white-space: pre; opacity: 1;">2005</text></g><g class="xtick"><text text-anchor="middle" x="0" y="433" style="font-family: 'Open Sans', verdana, arial, sans-serif; font-size: 12px; fill: rgb(42, 63, 95); fill-opacity: 1; white-space: pre; opacity: 1;" transform="translate(455.61,0)">2010</text></g><g class="xtick"><text text-anchor="middle" x="0" y="433" style="font-family: 'Open Sans', verdana, arial, sans-serif; font-size: 12px; fill: rgb(42, 63, 95); fill-opacity: 1; white-space: pre; opacity: 1;" transform="translate(664.26,0)">2015</text></g><g class="xtick"><text text-anchor="middle" x="0" y="433" style="font-family: 'Open Sans', verdana, arial, sans-serif; font-size: 12px; fill: rgb(42, 63, 95); fill-opacity: 1; white-space: pre; opacity: 1;" transform="translate(872.92,0)">2020</text></g></g><g class="yaxislayer-above"><g class="ytick"><text text-anchor="end" x="79" y="4.199999999999999" transform="translate(0,400.25)" style="font-family: 'Open Sans', verdana, arial, sans-serif; font-size: 12px; fill: rgb(42, 63, 95); fill-opacity: 1; white-space: pre; opacity: 1;">0</text></g><g class="ytick"><text text-anchor="end" x="79" y="4.199999999999999" style="font-family: 'Open Sans', verdana, arial, sans-serif; font-size: 12px; fill: rgb(42, 63, 95); fill-opacity: 1; white-space: pre; opacity: 1;" transform="translate(0,336.49)">20</text></g><g class="ytick"><text text-anchor="end" x="79" y="4.199999999999999" style="font-family: 'Open Sans', verdana, arial, sans-serif; font-size: 12px; fill: rgb(42, 63, 95); fill-opacity: 1; white-space: pre; opacity: 1;" transform="translate(0,272.72)">40</text></g><g class="ytick"><text text-anchor="end" x="79" y="4.199999999999999" style="font-family: 'Open Sans', verdana, arial, sans-serif; font-size: 12px; fill: rgb(42, 63, 95); fill-opacity: 1; white-space: pre; opacity: 1;" transform="translate(0,208.95999999999998)">60</text></g><g class="ytick"><text text-anchor="end" x="79" y="4.199999999999999" style="font-family: 'Open Sans', verdana, arial, sans-serif; font-size: 12px; fill: rgb(42, 63, 95); fill-opacity: 1; white-space: pre; opacity: 1;" transform="translate(0,145.2)">80</text></g></g><g class="overaxes-above"/></g></g><g class="polarlayer"/><g class="smithlayer"/><g class="ternarylayer"/><g class="geolayer"/><g class="funnelarealayer"/><g class="pielayer"/><g class="iciclelayer"/><g class="treemaplayer"/><g class="sunburstlayer"/><g class="glimages"/><defs id="topdefs-712d81"><g class="clips"/></defs><g class="layer-above"><g class="imagelayer"/><g class="shapelayer"/></g><g class="infolayer"><g class="g-gtitle"><text class="gtitle" x="50" y="50" text-anchor="start" dy="0em" style="font-family: 'Open Sans', verdana, arial, sans-serif; font-size: 17px; fill: rgb(42, 63, 95); opacity: 1; font-weight: normal; white-space: pre;">Aforament - Riudellots de la Selva (Onyar)--a48</text></g><g class="g-xtitle"><text class="xtitle" x="500" y="460.8" text-anchor="middle" style="font-family: 'Open Sans', verdana, arial, sans-serif; font-size: 14px; fill: rgb(42, 63, 95); opacity: 1; font-weight: normal; white-space: pre;">Data</text></g><g class="g-ytitle"><text class="ytitle" transform="rotate(-90,38.934375,260)" x="38.934375" y="260" text-anchor="middle" style="font-family: 'Open Sans', verdana, arial, sans-serif; font-size: 14px; fill: rgb(42, 63, 95); opacity: 1; font-weight: normal; white-space: pre;">Cabal (m3/s)</text></g></g></svg>