<svg class="main-svg" xmlns="http://www.w3.org/2000/svg" xmlns:xlink="http://www.w3.org/1999/xlink" width="1000" height="500" style="" viewBox="0 0 1000 500"><rect x="0" y="0" width="1000" height="500" style="fill: rgb(255, 255, 255); fill-opacity: 1;"/><defs id="defs-00ba36"><g class="clips"><clipPath id="clip00ba36xyplot" class="plotclip"><rect width="840" height="320"/></clipPath><clipPath class="axesclip" id="clip00ba36x"><rect x="80" y="0" width="840" height="500"/></clipPath><clipPath class="axesclip" id="clip00ba36y"><rect x="0" y="100" width="1000" height="320"/></clipPath><clipPath class="axesclip" id="clip00ba36xy"><rect x="80" y="100" width="840" height="320"/></clipPath></g><g class="gradients"/><g class="patterns"/></defs><g class="bglayer"><rect class="bg" x="80" y="100" width="840" height="320" style="fill: rgb(229, 236, 246); fill-opacity: 1; stroke-width: 0;"/></g><g class="layer-below"><g class="imagelayer"/><g class="shapelayer"/></g><g class="cartesianlayer"><g class="subplot xy"><g class="layer-subplot"><g class="shapelayer"/><g class="imagelayer"/></g><g class="minor-gridlayer"><g class="x"/><g class="y"/></g><g class="gridlayer"><g class="x"><path class="xgrid crisp" transform="translate(246.95,0)" d="M0,100v320" style="stroke: rgb(255, 255, 255); stroke-opacity: 1; stroke-width: 1px;"/><path class="xgrid crisp" transform="translate(455.61,0)" d="M0,100v320" style="stroke: rgb(255, 255, 255); stroke-opacity: 1; stroke-width: 1px;"/><path class="xgrid crisp" transform="translate(664.26,0)" d="M0,100v320" style="stroke: rgb(255, 255, 255); stroke-opacity: 1; stroke-width: 1px;"/><path class="xgrid crisp" transform="translate(872.92,0)" d="M0,100v320" style="stroke: rgb(255, 255, 255); stroke-opacity: 1; stroke-width: 1px;"/></g><g class="y"><path class="ygrid crisp" transform="translate(0,365.89)" d="M80,0h840" style="stroke: rgb(255, 255, 255); stroke-opacity: 1; stroke-width: 1px;"/><path class="ygrid crisp" transform="translate(0,327.78999999999996)" d="M80,0h840" style="stroke: rgb(255, 255, 255); stroke-opacity: 1; stroke-width: 1px;"/><path class="ygrid crisp" transform="translate(0,289.68)" d="M80,0h840" style="stroke: rgb(255, 255, 255); stroke-opacity: 1; stroke-width: 1px;"/><path class="ygrid crisp" transform="translate(0,251.58)" d="M80,0h840" style="stroke: rgb(255, 255, 255); stroke-opacity: 1; stroke-width: 1px;"/><path class="ygrid crisp" transform="translate(0,213.47)" d="M80,0h840" style="stroke: rgb(255, 255, 255); stroke-opacity: 1; stroke-width: 1px;"/><path class="ygrid crisp" transform="translate(0,175.37)" d="M80,0h840" style="stroke: rgb(255, 255, 255); stroke-opacity: 1; stroke-width: 1px;"/><path class="ygrid crisp" transform="translate(0,137.26)" d="M80,0h840" style="stroke: rgb(255, 255, 255); stroke-opacity: 1; stroke-width: 1px;"/></g></g><g class="zerolinelayer"><path class="yzl zl crisp" transform="translate(0,404)" d="M80,0h840" style="stroke: rgb(255, 255, 255); stroke-opacity: 1; stroke-width: 2px;"/></g><path class="xlines-below"/><path class="ylines-below"/><g class="overlines-below"/><g class="xaxislayer-below"/><g class="yaxislayer-below"/><g class="overaxes-below"/><g class="plot" transform="translate(80,100)" clip-path="url(#clip00ba36xyplot)"><g class="scatterlayer mlayer"><g class="trace scatter tracee5b44a" style="stroke-miterlimit: 2; opacity: 1;"><g class="fills"/><g class="errorbars"/><g class="lines"><path class="js-line" d="M0,304L1.6,304L1.71,296.57L2.51,304L2.63,304L36.22,304L36.34,303.14L37.14,304L37.25,304L43.99,304L44.11,282.28L44.91,304L45.02,304L52.11,304L52.22,298.87L52.34,286.43L52.56,304L52.91,304L53.02,303.98L53.25,300.78L53.48,304L53.71,304L53.82,304L56.11,304L56.22,250.39L57.02,303.64L57.14,303.79L58.28,304L58.39,303.24L59.31,304L59.42,303.89L59.88,303.01L60.22,303.71L60.33,303.83L61.36,304L61.48,304L80.1,303.33L80.22,302.86L80.79,302.95L80.9,299.41L81.02,287.9L81.59,299.79L81.7,300.21L83.53,302.84L83.65,302.93L83.87,302.91L83.99,269.5L84.9,298.11L85.02,298.86L86.39,302.29L86.5,302.32L87.65,303.58L87.76,303.58L89.02,303.39L89.13,295.37L89.25,293.81L89.59,298.44L89.7,298.91L89.93,284.66L90.39,297.14L90.5,297.83L92.56,303.16L92.67,303.26L93.36,302.82L93.47,292.34L93.59,281.56L94.04,298.91L94.16,299.22L94.5,299.87L94.62,299.77L94.73,293.6L95.64,300.28L95.76,300.38L97.47,303.45L97.59,302.95L98.39,302.49L98.5,302.8L99.87,303.31L99.99,302.93L101.36,303.92L101.47,303.98L110.27,304L110.38,304L116.33,303.98L116.44,198.93L117.36,298.78L117.47,298.47L117.58,297.92L117.93,299.1L118.04,292.87L118.16,290.57L118.5,297.16L118.61,297.83L119.98,302.36L120.1,302.48L120.67,302.69L120.78,301.96L121.35,302.84L121.58,302.13L121.7,300.74L121.93,278.76L122.15,289.18L122.27,292.97L122.38,290.4L122.84,296.66L122.95,297.08L125.01,303.35L125.13,303.37L128.78,303.62L128.9,303.62L130.84,303.24L130.95,302.57L131.3,303.62L131.52,302.23L131.75,303.2L131.87,303.22L132.32,302.51L132.44,301.45L132.67,300.4L133.01,301.83L133.12,302.19L134.95,303.2L135.07,303.22L135.18,302.06L135.3,250.67L136.1,303.31L136.21,303.31L137.12,303.35L137.24,74.36L138.04,299.92L138.15,300.42L138.38,299.18L138.61,299.69L138.72,240.71L139.07,297.01L139.52,293.44L139.64,294.51L139.75,295.12L139.87,300.99L140.44,302.7L140.67,301.71L140.78,301.47L141.24,300.74L141.47,301.01L141.58,301.92L142.49,303.16L142.61,303.18L143.75,303.05L143.87,303.07L151.18,303.98L151.29,303.98L170.72,303.87" style="vector-effect: non-scaling-stroke; fill: none; stroke: rgb(255, 0, 0); stroke-opacity: 1; stroke-width: 2px; opacity: 1;"/><path class="js-line" d="M250.71,301.96L255.62,302.21L255.74,295.73L255.85,290.78L256.31,299.07L256.42,299.75L257.56,301.54L257.68,301.26L257.79,300.76L258.14,302.02L258.25,302L258.36,302L259.16,301.2L259.28,301.68L259.39,302.27L260.08,302.4L260.19,302.23L260.31,302.34L260.42,302.59L260.76,302.4L260.88,298.87L260.99,298.47L261.22,300.02L261.34,300.63L261.79,301.1L261.91,300.63L262.02,287.21L262.14,275.5L262.59,297.83L262.71,298.72L263.96,301.45L264.08,300.72L265.45,302.65L265.56,302.44L265.68,302.11L266.82,303.05L266.94,302.89L267.05,302.49L267.62,302.97L267.74,302.93L272.19,304L272.31,301.66L272.42,301.5L272.53,303.47L273.22,290.8L273.33,300.67L273.45,299.27L273.91,296.42L274.48,304L274.59,304L279.28,304L279.39,256.67L280.19,304L280.3,304L301.56,304L301.67,303.01L302.02,304L302.13,293.54L302.59,304L303.04,303.85L303.16,304L303.96,300.99L304.07,303.85L304.19,304L304.3,303.2L304.42,302.48L305.33,303.22L305.44,303.33L305.56,303.05L306.02,303.62L306.13,303.64L306.82,303.56L306.93,302.27L307.16,297.56L307.62,301.58L307.73,302.27L308.53,303.2L308.64,302.3L308.87,301.89L309.33,302.51L309.44,300.88L309.56,300.61L309.9,301.64L310.01,301.73L310.7,302.97L310.81,302.59L310.93,302.17L311.27,302.04L311.96,303.45L312.07,303.5L314.01,304L314.13,303.98L322.93,304L323.04,304L326.93,304L327.04,298.76L327.96,304L328.07,304L333.1,303.79L333.21,300.44L333.44,293.67L333.9,298.34L334.01,299.29L334.81,301.37L334.93,299.68L335.04,297.06L335.61,300.27L335.73,300.55L337.21,302.32L337.33,299.08L337.67,242.06L338.01,290.59L338.13,294.13L339.04,299.01L339.15,299.12L340.53,300.53L340.64,300.63L342.24,301.66L342.35,301.5L342.47,301.37L343.61,302.08L343.72,302L343.84,301.94L344.18,300.13L344.52,301.35L344.64,301.47L346.12,300.95L346.24,301.29L347.61,302.32L347.72,302.4L350.47,302.91L350.58,303.09L351.04,303.75L351.15,303.85L352.41,303.75L352.52,303.96L353.44,303.31L353.55,303.64L353.67,303.75L354.81,303.16L354.92,303.24L356.75,304L356.87,303.22L357.78,304L357.89,303.31L358.12,302.97L358.24,303.71L358.35,303.62L358.47,303.98L359.27,303.52L359.38,303.6L359.49,303.62L361.55,303.92L361.67,303.52L361.78,303.26L362.12,303.98L362.24,304L362.35,304L373.55,303.89L373.66,303.12L374.35,304L374.46,303.89L374.58,303.56L375.49,304L375.61,304L379.49,303.89L379.61,303.96L379.95,303.85L380.06,293.14L380.75,301.96L380.86,298.21L380.98,292.63L381.32,281.84L381.89,299.54L382.01,300.25L382.46,301.31L382.58,298.49L383.03,298.72L383.49,285.46L383.83,286.59L383.95,289.1L385.2,299.5L385.32,299.9L386.12,300.93L386.35,300.51L386.46,300.46L389.2,302.36L389.32,302.15L389.43,302.34L389.55,300.65L389.66,241.11L390.23,293.62L390.35,295.73L391.38,299.62L391.49,300.06L393.66,302.74L393.77,302.67L395.6,303.43L395.72,303.54L396.86,304L396.97,304L401.66,303.71L401.77,303.24L402.8,304L402.92,304L404.17,303.68L404.29,302.88L404.52,303.26L404.63,301.22L404.86,302.02L404.97,302.91L405.89,303.96L406,294.57L406.12,284.57L406.57,300.34L406.69,300.84L407.6,302.55L407.72,302.44L407.83,300.21L407.94,299.16L408.06,268.94L408.17,216L408.74,298.02L408.86,299.05L410,301.96L410.12,301.94L410.8,302.44L411.03,302.25L411.14,302.08L412.06,302.48L412.17,302.38L413.2,302.74L413.32,302.59L415.49,302.74L415.6,302.59L415.94,302.97L416.17,302.06L416.29,301.89L417.09,302.34L417.2,302.36L418.91,302.67L419.03,302.7L419.94,302.95L420.06,301.81L420.29,302.82L420.4,302.59L420.51,275.59L421.54,300.53L421.66,300.74L423.14,302.15L423.26,302.19L424.17,302.53L424.29,302.4L424.4,301.89L424.97,302.36L425.09,302.44L425.43,219.83L425.77,235.09L425.88,265.48L426.8,298.72L426.91,299.26L428.4,300.99L428.51,301.2L429.88,302.23L430,301.85L430.57,302.34L430.68,302.02L430.8,301.6L431.83,302.36L431.94,302.51L433.31,303.18L433.43,303.26L434.8,303.75L434.91,303.75L435.14,303.75L435.26,302.84L435.6,303.24" style="vector-effect: non-scaling-stroke; fill: none; stroke: rgb(255, 0, 0); stroke-opacity: 1; stroke-width: 2px; opacity: 1;"/><path class="js-line" d="M444.63,304L447.02,303.41L447.14,303.18L447.37,303.52L447.71,303.47L447.82,304L451.02,303.85L451.14,278.18L451.37,295.81L451.6,200.09L451.82,292.28L451.94,296.26L452.28,299.43L452.4,280.2L452.51,269.21L452.62,150.46L453.54,298.36L453.65,276.93L453.77,182.48L454.22,291.73L454.45,210.72L454.57,265.86L455.48,298.36L455.6,298.74L456.62,300.4L456.74,300.51L459.02,302.09L459.14,301.92L460.05,302.34L460.17,302.4L461.54,302.34L461.65,302.42L464.85,302.78L464.97,302.89L465.99,303.28L466.11,303.16L468.16,302.86L468.28,301.03L469.42,303.26L469.54,303.24L470.45,302.88L470.56,303.07L471.71,303.09L471.82,303.12L473.76,303.62L473.88,303.62L474.91,303.7L475.02,301.87L475.14,300.82L475.59,302.69L475.71,302.88L479.25,304L479.36,303.96L483.82,304L483.93,303.98L484.73,303.98L484.85,303.18L484.96,302.8L485.08,304L485.31,303.98L485.42,304L486.33,304L486.45,304L486.68,303.89L486.79,302.53L487.59,304L487.71,304L489.65,303.94L489.76,303.1L490.56,304L490.68,304L493.65,303.94L493.76,291.29L494.33,303.03L494.56,302.76L494.68,302.55L495.7,302.4L495.82,301.58L496.28,302.38L496.62,302.17L496.73,302.17L497.08,297.54L497.3,300.06L497.42,300.72L498.45,302.4L498.56,302.32L502.22,302.69L502.33,302.78L504.16,303.03L504.27,303.07L505.65,303.33L505.76,303.6L506.67,303.85L506.79,303.31L507.36,303.98L507.47,303.28L507.59,299.79L507.93,302.38L508.05,260.92L508.16,209.9L508.62,298.67L508.73,299.81L510.79,302.84L510.9,302.8L511.13,302.15L511.7,302.4L511.82,302.49L513.76,303.33L513.87,302.97L514.22,301.35L514.56,302.11L514.67,302.25L515.59,302.78L515.7,302.42L516.73,302.95L516.84,303.03L517.64,302.93L517.76,301.66L517.87,301.16L518.22,302.53L518.33,302.74L519.7,303.37L519.81,303.35L520.61,303.3L520.73,303.07L521.76,303.58L521.87,303.33L522.9,303.89L523.01,303.98L525.99,303.56L526.1,303.09L526.21,304L526.79,303.12L526.9,303.43L527.13,303.92L527.24,302.51L527.36,303.03L527.47,302.82L527.59,302.4L527.81,304L527.93,304L528.73,302.84L528.84,303.75L529.64,303.71L529.76,303.28L530.78,304L530.9,304L532.27,303.96L532.38,302.86L532.73,303.71L533.07,303.18L533.18,302.91L533.41,303.98L533.98,303.66L534.1,303.58L534.56,303.5L534.67,303.09L534.78,302.7L535.93,303.43L536.04,303.26L536.61,302.76L536.73,303.3L536.84,303.68L537.41,303.68L537.53,303.16L537.64,302.86L537.98,303.73L538.1,303.71L538.21,303.75L538.9,303.28L539.01,303.05L539.93,303.6L540.04,302.99L540.38,301.9L540.73,302.29L540.84,303.43L541.07,303.7L541.3,302.32L541.41,303.24L541.53,303.98L542.9,303.45L543.01,303.87L543.81,304L543.93,303.87L544.04,303.68L546.78,303.83L546.9,303.64L548.15,303.58L548.27,303.5L552.04,303.47L552.15,303.41L552.38,302.86L552.72,303.89L552.84,303.89L554.44,303.16L554.55,303.3L554.67,303.43L555.81,303.16L555.92,303.14L557.3,303.9L557.41,303.7L557.52,303.7L557.64,303.5L557.87,303.96L558.21,303.96L558.32,303.98L559.58,303.16L559.7,303.56L559.81,303.94L560.04,303.6L560.5,304L560.61,303.96L561.87,303.26L561.98,303.98L562.09,304L569.41,303.65L569.52,302.95L570.21,303.88L570.44,303.58L570.55,303.48L571.24,303.83L571.35,302.8L572.04,303.97L572.15,302.65L572.95,304L573.06,304L580.38,304L580.49,303.18L580.72,273.28L581.18,297.93L581.29,298.46L582.21,300.46L582.32,284.34L583.46,299.8L583.58,299.88L584.15,300.55L584.26,300.95L584.95,301.33L585.06,301.9L585.98,301.33L586.09,301.9L586.55,300.57L586.89,301.33L587.01,301.33L587.81,301.33L587.92,301.9L588.03,300.95L588.61,301.9L588.72,301.9L589.52,301.9L589.63,302.29L591.92,302.48L592.03,302.86L593.18,302.48L593.29,300.95L593.75,287.04L594.09,295.43L594.2,296.38L596.26,301.33L596.38,301.33L597.4,301.9L597.52,302.29L600.38,302.86L600.49,303.05L611.57,303.24L611.69,302.48L611.92,292.57L612.37,300.19L612.49,300.57L613.86,302.86L613.97,302.86L615.8,303.43L615.92,303.43L625.86,304L625.97,301.33L626.66,297.33L626.89,299.81L627,299.81L627.46,298.86L627.57,300.38L627.8,302.09L628.26,301.71L628.37,300.76L628.6,301.33L629.4,297.14L629.51,297.9L629.63,298.47L629.74,298.28L629.86,299.43L629.97,300.19L630.89,298.28L631,298.67L631.11,299.81L631.69,298.09L631.8,298.28L632.49,298.58L632.6,299.91L632.83,299.2L632.94,299.98L633.06,300.95L633.17,301.2L633.29,300.11L633.51,300.41L633.63,300.19L633.97,301.93L634.31,301.23L634.43,299.59L634.66,298.53L634.77,299.36L634.89,300.15L635.23,300.75L635.8,299.04L636.03,299.71L636.14,300.11L636.37,298.88L636.83,299.31L636.94,300.33L637.4,299.24L637.63,299.99L637.74,300.33L638.66,300.7L638.77,299.89L638.88,296.78L639.46,300.46L639.57,300.39L640.03,301.17L640.14,300.48L640.26,299.89L640.37,300.67L640.6,299.22L640.83,299.22L640.94,299.18L641.28,299.75L641.4,299.5L641.51,296.55L641.97,297.88L642.08,301.64L642.31,298.08L642.77,301.41L642.88,301.23L643.23,295.62L643.46,299.15L643.57,299.68L643.68,291.54L644.26,300.69L644.37,296.68L645.17,300.84L645.28,299.59L645.74,302.06L646.2,301.53L646.31,301.39L646.65,301.47L647.11,300.52L647.23,300.94L647.68,300.46L647.8,302.66L648.03,302.25L648.14,298.38L648.71,300.84L648.83,300.11L648.94,298.54L649.4,298.43L649.74,302.01L649.85,301.14L650.43,299.74L650.65,300.54L650.77,300.91L650.88,301.81L651.23,300.68L651.34,299.07L651.8,298.14L652.14,300.65L652.25,299.43L652.48,300.03L652.6,301.77L653.17,303.83L653.51,303.35L653.63,301.61L653.85,299.44L654.08,302.27L654.2,302.36L654.43,302.66L654.54,298.58L654.77,293.29L655.11,300.46L655.23,300.66L655.8,297.4L656.14,298.32L656.25,300.28L656.37,300.98L656.71,298.77L656.82,298.69L657.4,300.88L657.62,299.64L657.74,299.9L658.08,296.96L658.2,299.45L658.31,299.7L658.42,298.98L658.54,300.07L658.65,278.73L658.77,265.29L659.11,301.53L659.22,302.72L660.25,304L660.37,304L669.97,303.53L670.08,303.06L670.31,225.93L670.77,298.22L670.88,297.11L672.02,302.28L672.14,302.21L672.25,302.38L672.59,302.67L672.71,302.11L672.82,300.96L673.05,299.21L673.51,300.34L673.62,300.7L675.68,302L675.79,301.57L677.05,302.37L677.17,302.12L677.28,301.29L677.85,302.29L677.96,302.26L678.65,302.5L678.76,302.67L679.91,303.37L680.02,303.27L680.25,303.07L680.59,303.63L680.71,303.79L681.28,301.83L681.51,303.08L681.62,303.28L681.74,303.4L681.85,302.82L681.96,302.89L682.08,302.58L682.42,301.76L682.54,303.1L682.76,302.33L682.88,302.49L682.99,303.51L683.22,302.22L683.56,302.95L683.68,301.81L683.91,303.03L684.59,302.76L684.71,303.09L685.16,302.13L685.39,303.19L685.51,303.56L686.76,303.13L686.88,302.6L686.99,301.85L687.45,303.69L687.56,302.33L687.68,302.74L687.79,303.24L688.25,302.33L688.36,302.65L688.48,302.66L688.71,303.43L689.28,303.03L689.39,303.03L690.19,302.08L690.31,300.92L690.88,303.93L691.22,303.58L691.33,301.66L691.68,303.11L692.13,302.63L692.25,301.7L692.71,302.63L692.82,301.49L693.05,301.96L693.16,302.48L693.85,302.95L693.96,302.69L694.08,302.53L694.99,300.61L695.22,300.79L695.33,302.34L695.56,302.9L695.79,301.72L695.91,298.03L696.36,302.94L696.48,298.89L696.59,291.33L696.71,285.12L697.05,302.77L697.16,301.99L697.28,301.68L697.39,303.08L697.62,302.36L697.73,302.73L698.53,303.67L698.65,303.37L698.76,302.13L699.22,300.78L699.56,303.57L699.68,302.76L699.9,301.27L700.48,302.12L700.59,303.11L700.7,303.82L700.93,301.67L701.05,301.89L701.16,301.51L701.85,302.93L701.96,302.48L702.08,301.4L702.99,302.6L703.1,302.55L703.79,303.9L703.9,302.26L704.02,302.63L704.25,301.85L704.36,300.7L704.93,300.26L705.5,302.74L705.62,302.47L705.73,302.3L706.08,303.7L706.53,303.4L706.65,303.46L706.88,303.14L706.99,301.61L707.9,303.12L708.02,301.55L708.7,303.35L708.82,303.18L708.93,302.28L709.16,300.85L709.5,303.24L709.62,303.68L710.3,301.25L710.76,301.97L710.87,302.14L711.1,301.28L711.56,302.25L711.67,302.54L711.9,302.46L712.13,302.94L712.25,303.1L712.47,301.8L712.82,302.97L712.93,303.55L713.27,301.92L713.62,302.86L713.73,303.31L714.07,303.75L714.53,301.38L714.87,301.93L714.99,302.38L715.22,302.54L715.45,302.12L715.56,303.46L715.79,303.65L716.7,302.52L716.82,302.89L717.5,303.32L717.62,303.02L717.73,303.05L718.53,303.57L718.65,303.44L718.76,303.07L719.33,301.35L719.56,301.96L719.67,302.2L719.9,301.58L720.13,302.7L720.36,302.41L720.47,302.56L720.82,302.22L720.93,273.8L721.73,302.5L721.84,302.82L723.1,303.38L723.22,303.36L724.36,303.41L724.47,303.8L724.59,302.47L725.27,303.13L725.39,303.19L727.33,303.82L727.44,303.42L728.47,303.93L728.59,303.64L729.39,304L729.5,303.35L729.84,304L730.19,303.58L730.3,303.21L730.76,304L731.1,303.61L731.21,303.41L731.44,303.62L731.79,303.26L731.9,303.55L732.01,303.95L733.5,303.09L733.61,303.24L734.3,304L734.41,303.81L734.53,303.14L734.76,303.92L734.99,303.06L735.1,302.99L735.56,303.06L735.67,303.97L736.47,303.06L736.59,303.82L736.7,303.87L737.04,302.91L737.27,303.62L737.39,303.84L737.73,303.5L738.3,304L738.41,303.99L738.76,304L738.87,302.47L739.56,303.65L739.67,303.59L739.79,302.57L740.47,303.68L740.58,302.96L740.7,302.68L741.38,303.87L741.5,303.81L741.61,302.72L742.18,303.91L742.41,303.07L742.53,303.12L743.21,303.81L743.33,303.78L743.44,303.76L744.01,301.9L744.24,302.69L744.36,303.64L744.93,303.97L745.16,303.72L745.27,303.58L745.61,303.99L745.73,303.17L745.84,297.23L746.07,289L746.18,16L746.98,303.04L747.1,303.26L748.01,303.61L748.13,303.62L784.81,303.98L784.92,227.42L785.72,303.96L785.84,303.96L786.98,303.93L787.09,303.97L788.35,303.46L788.46,302.29L789.61,303.55L789.72,303.29L789.84,236.53L790.41,301.92L790.52,302.06L792.35,303.73L792.46,303.71L794.98,303.91L795.09,294.3L795.21,92.29L795.78,294.6L795.89,296.84L797.03,302.54L797.15,302.59L798.98,303.2L799.09,303.15L802.18,303.79L802.29,302.05L802.98,303.6L803.09,303.58L803.21,303.49L803.43,300.21L803.66,302.58L803.78,302.78L804.58,303.55L804.69,302.12L804.8,298.08L805.26,302.35L805.49,298.33L805.6,51.11L805.72,75.4L805.83,256.25L806.75,300.78L806.86,301.22L807.89,302.13L808,302.34L810.52,303.05L810.63,302.77L811.32,303.08L811.43,302.16L811.55,301.52L811.66,302.39L812.12,302.25L812.23,302.26L812.92,303.49L813.26,302.79L813.38,302.74L813.49,301.74L814.06,302.47L814.17,302.42L814.4,302.35L814.52,303.26L815.43,303.13L815.55,303.27L818.63,303.33L818.75,303.02L818.97,302.62L819.2,302.86L819.32,303.71L820,303.91L820.12,303.52L820.8,301.81L821.03,302.98L821.15,303.01L821.83,303.25L821.95,302.94L822.06,302.84L822.4,302.22L822.63,302.97L822.75,303.11L823.43,302.46L823.55,302.7L823.66,303.54L824,301.87L824.12,302.46L824.23,303.46L825.03,303.13L825.14,303.32L825.83,301.32L825.94,302.6L826.06,303.13L826.86,303L826.97,303.1L827.89,303.19L828,303.18L828.8,303.49L828.92,303.44L829.6,303.35L829.72,303.47L829.83,303.46L830.52,303.77L830.74,303.55L830.86,301.71L832,302.87L832.12,302.79L833.14,303.72L833.26,303.11L833.37,302.87L834.29,303.5L834.4,303.62L836.11,302.92L836.23,302.4L836.34,301.32L836.8,302.92L836.91,302.48L837.03,302.79L837.49,303.07L837.6,301.96L837.71,303.34L837.83,302.32L838.4,303.01L838.51,303.16L838.86,302.79L839.09,303.59L839.2,303.54L839.77,302.3L840,303.44" style="vector-effect: non-scaling-stroke; fill: none; stroke: rgb(255, 0, 0); stroke-opacity: 1; stroke-width: 2px; opacity: 1;"/></g><g class="points"/><g class="text"/></g><g class="trace scatter trace1b89c0" style="stroke-miterlimit: 2; opacity: 1;"><g class="fills"/><g class="errorbars"/><g class="lines"><path class="js-line" d="M0,304L1.6,304L1.71,296.57L2.51,304L2.63,304L36.22,304L36.34,303.14L37.14,304L37.25,304L43.99,304L44.11,282.28L44.91,304L45.02,304L52.11,304L52.22,298.87L52.34,286.43L52.56,304L52.91,304L53.02,303.98L53.25,300.78L53.48,304L53.71,304L53.82,304L56.11,304L56.22,250.39L57.02,303.64L57.14,303.79L58.28,304L58.39,303.24L59.31,304L59.42,303.89L59.88,303.01L60.22,303.71L60.33,303.83L61.36,304L61.48,304L80.1,303.33L80.22,302.86L80.79,302.95L80.9,299.41L81.02,287.9L81.59,299.79L81.7,300.21L83.53,302.84L83.65,302.93L83.87,302.91L83.99,269.5L84.9,298.11L85.02,298.86L86.39,302.29L86.5,302.32L87.65,303.58L87.76,303.58L89.02,303.39L89.13,295.37L89.25,293.81L89.59,298.44L89.7,298.91L89.93,284.66L90.39,297.14L90.5,297.83L92.56,303.16L92.67,303.26L93.36,302.82L93.47,292.34L93.59,281.56L94.04,298.91L94.16,299.22L94.5,299.87L94.62,299.77L94.73,293.6L95.64,300.28L95.76,300.38L97.47,303.45L97.59,302.95L98.39,302.49L98.5,302.8L99.87,303.31L99.99,302.93L101.36,303.92L101.47,303.98L110.27,304L110.38,304L116.33,303.98L116.44,198.93L117.36,298.78L117.47,298.47L117.58,297.92L117.93,299.1L118.04,292.87L118.16,290.57L118.5,297.16L118.61,297.83L119.98,302.36L120.1,302.48L120.67,302.69L120.78,301.96L121.35,302.84L121.58,302.13L121.7,300.74L121.93,278.76L122.15,289.18L122.27,292.97L122.38,290.4L122.84,296.66L122.95,297.08L125.01,303.35L125.13,303.37L128.78,303.62L128.9,303.62L130.84,303.24L130.95,302.57L131.3,303.62L131.52,302.23L131.75,303.2L131.87,303.22L132.32,302.51L132.44,301.45L132.67,300.4L133.01,301.83L133.12,302.19L134.95,303.2L135.07,303.22L135.18,302.06L135.3,250.67L136.1,303.31L136.21,303.31L137.12,303.35L137.24,74.36L138.04,299.92L138.15,300.42L138.38,299.18L138.61,299.69L138.72,240.71L139.07,297.01L139.52,293.44L139.64,294.51L139.75,295.12L139.87,300.99L140.44,302.7L140.67,301.71L140.78,301.47L141.24,300.74L141.47,301.01L141.58,301.92L142.49,303.16L142.61,303.18L143.75,303.05L143.87,303.07L151.18,303.98L151.29,303.98L170.72,303.87" style="vector-effect: non-scaling-stroke; fill: none; stroke: rgb(0, 0, 255); stroke-opacity: 1; stroke-width: 2px; opacity: 1;"/><path class="js-line" d="M250.71,301.96L255.62,302.21L255.74,295.73L255.85,290.78L256.31,299.07L256.42,299.75L257.56,301.54L257.68,301.26L257.79,300.76L258.14,302.02L258.25,302L258.36,302L259.16,301.2L259.28,301.68L259.39,302.27L260.08,302.4L260.19,302.23L260.31,302.34L260.42,302.59L260.76,302.4L260.88,298.87L260.99,298.47L261.22,300.02L261.34,300.63L261.79,301.1L261.91,300.63L262.02,287.21L262.14,275.5L262.59,297.83L262.71,298.72L263.96,301.45L264.08,300.72L265.45,302.65L265.56,302.44L265.68,302.11L266.82,303.05L266.94,302.89L267.05,302.49L267.62,302.97L267.74,302.93L272.19,304L272.31,301.66L272.42,301.5L272.53,303.47L273.22,290.8L273.33,300.67L273.45,299.27L273.91,296.42L274.48,304L274.59,304L279.28,304L279.39,256.67L280.19,304L280.3,304L301.56,304L301.67,303.01L302.02,304L302.13,293.54L302.59,304L303.04,303.85L303.16,304L303.96,300.99L304.07,303.85L304.19,304L304.3,303.2L304.42,302.48L305.33,303.22L305.44,303.33L305.56,303.05L306.02,303.62L306.13,303.64L306.82,303.56L306.93,302.27L307.16,297.56L307.62,301.58L307.73,302.27L308.53,303.2L308.64,302.3L308.87,301.89L309.33,302.51L309.44,300.88L309.56,300.61L309.9,301.64L310.01,301.73L310.7,302.97L310.81,302.59L310.93,302.17L311.27,302.04L311.96,303.45L312.07,303.5L314.01,304L314.13,303.98L322.93,304L323.04,304L326.93,304L327.04,298.76L327.96,304L328.07,304L333.1,303.79L333.21,300.44L333.44,293.67L333.9,298.34L334.01,299.29L334.81,301.37L334.93,299.68L335.04,297.06L335.61,300.27L335.73,300.55L337.21,302.32L337.33,299.08L337.67,242.06L338.01,290.59L338.13,294.13L339.04,299.01L339.15,299.12L340.53,300.53L340.64,300.63L342.24,301.66L342.35,301.5L342.47,301.37L343.61,302.08L343.72,302L343.84,301.94L344.18,300.13L344.52,301.35L344.64,301.47L346.12,300.95L346.24,301.29L347.61,302.32L347.72,302.4L350.47,302.91L350.58,303.09L351.04,303.75L351.15,303.85L352.41,303.75L352.52,303.96L353.44,303.31L353.55,303.64L353.67,303.75L354.81,303.16L354.92,303.24L356.75,304L356.87,303.22L357.78,304L357.89,303.31L358.12,302.97L358.24,303.71L358.35,303.62L358.47,303.98L359.27,303.52L359.38,303.6L359.49,303.62L361.55,303.92L361.67,303.52L361.78,303.26L362.12,303.98L362.24,304L362.35,304L373.55,303.89L373.66,303.12L374.35,304L374.46,303.89L374.58,303.56L375.49,304L375.61,304L379.49,303.89L379.61,303.96L379.95,303.85L380.06,293.14L380.75,301.96L380.86,298.21L380.98,292.63L381.32,281.84L381.89,299.54L382.01,300.25L382.46,301.31L382.58,298.49L383.03,298.72L383.49,285.46L383.83,286.59L383.95,289.1L385.2,299.5L385.32,299.9L386.12,300.93L386.35,300.51L386.46,300.46L389.2,302.36L389.32,302.15L389.43,302.34L389.55,300.65L389.66,241.11L390.23,293.62L390.35,295.73L391.38,299.62L391.49,300.06L393.66,302.74L393.77,302.67L395.6,303.43L395.72,303.54L396.86,304L396.97,304L401.66,303.71L401.77,303.24L402.8,304L402.92,304L404.17,303.68L404.29,302.88L404.52,303.26L404.63,301.22L404.86,302.02L404.97,302.91L405.89,303.96L406,294.57L406.12,284.57L406.57,300.34L406.69,300.84L407.6,302.55L407.72,302.44L407.83,300.21L407.94,299.16L408.06,268.94L408.17,216L408.74,298.02L408.86,299.05L410,301.96L410.12,301.94L410.8,302.44L411.03,302.25L411.14,302.08L412.06,302.48L412.17,302.38L413.2,302.74L413.32,302.59L415.49,302.74L415.6,302.59L415.94,302.97L416.17,302.06L416.29,301.89L417.09,302.34L417.2,302.36L418.91,302.67L419.03,302.7L419.94,302.95L420.06,301.81L420.29,302.82L420.4,302.59L420.51,275.59L421.54,300.53L421.66,300.74L423.14,302.15L423.26,302.19L424.17,302.53L424.29,302.4L424.4,301.89L424.97,302.36L425.09,302.44L425.43,219.83L425.77,235.09L425.88,265.48L426.8,298.72L426.91,299.26L428.4,300.99L428.51,301.2L429.88,302.23L430,301.85L430.57,302.34L430.68,302.02L430.8,301.6L431.83,302.36L431.94,302.51L433.31,303.18L433.43,303.26L434.8,303.75L434.91,303.75L435.14,303.75L435.26,302.84L435.6,303.24" style="vector-effect: non-scaling-stroke; fill: none; stroke: rgb(0, 0, 255); stroke-opacity: 1; stroke-width: 2px; opacity: 1;"/><path class="js-line" d="M444.63,304L447.02,303.41L447.14,303.18L447.37,303.52L447.71,303.47L447.82,304L451.02,303.85L451.14,278.18L451.37,295.81L451.6,200.09L451.82,292.28L451.94,296.26L452.28,299.43L452.4,280.2L452.51,269.21L452.62,150.46L453.54,298.36L453.65,276.93L453.77,182.48L454.22,291.73L454.45,210.72L454.57,265.86L455.48,298.36L455.6,298.74L456.62,300.4L456.74,300.51L459.02,302.09L459.14,301.92L460.05,302.34L460.17,302.4L461.54,302.34L461.65,302.42L464.85,302.78L464.97,302.89L465.99,303.28L466.11,303.16L468.16,302.86L468.28,301.03L469.42,303.26L469.54,303.24L470.45,302.88L470.56,303.07L471.71,303.09L471.82,303.12L473.76,303.62L473.88,303.62L474.91,303.7L475.02,301.87L475.14,300.82L475.59,302.69L475.71,302.88L479.25,304L479.36,303.96L483.82,304L483.93,303.98L484.73,303.98L484.85,303.18L484.96,302.8L485.08,304L485.31,303.98L485.42,304L486.33,304L486.45,304L486.68,303.89L486.79,302.53L487.59,304L487.71,304L489.65,303.94L489.76,303.1L490.56,304L490.68,304L493.65,303.94L493.76,291.29L494.33,303.03L494.56,302.76L494.68,302.55L495.7,302.4L495.82,301.58L496.28,302.38L496.62,302.17L496.73,302.17L497.08,297.54L497.3,300.06L497.42,300.72L498.45,302.4L498.56,302.32L502.22,302.69L502.33,302.78L504.16,303.03L504.27,303.07L505.65,303.33L505.76,303.6L506.67,303.85L506.79,303.31L507.36,303.98L507.47,303.28L507.59,299.79L507.93,302.38L508.05,260.92L508.16,209.9L508.62,298.67L508.73,299.81L510.79,302.84L510.9,302.8L511.13,302.15L511.7,302.4L511.82,302.49L513.76,303.33L513.87,302.97L514.22,301.35L514.56,302.11L514.67,302.25L515.59,302.78L515.7,302.42L516.73,302.95L516.84,303.03L517.64,302.93L517.76,301.66L517.87,301.16L518.22,302.53L518.33,302.74L519.7,303.37L519.81,303.35L520.61,303.3L520.73,303.07L521.76,303.58L521.87,303.33L522.9,303.89L523.01,303.98L525.99,303.56L526.1,303.09L526.21,304L526.79,303.12L526.9,303.43L527.13,303.92L527.24,302.51L527.36,303.03L527.47,302.82L527.59,302.4L527.81,304L527.93,304L528.73,302.84L528.84,303.75L529.64,303.71L529.76,303.28L530.78,304L530.9,304L532.27,303.96L532.38,302.86L532.73,303.71L533.07,303.18L533.18,302.91L533.41,303.98L533.98,303.66L534.1,303.58L534.56,303.5L534.67,303.09L534.78,302.7L535.93,303.43L536.04,303.26L536.61,302.76L536.73,303.3L536.84,303.68L537.41,303.68L537.53,303.16L537.64,302.86L537.98,303.73L538.1,303.71L538.21,303.75L538.9,303.28L539.01,303.05L539.93,303.6L540.04,302.99L540.38,301.9L540.73,302.29L540.84,303.43L541.07,303.7L541.3,302.32L541.41,303.24L541.53,303.98L542.9,303.45L543.01,303.87L543.81,304L543.93,303.87L544.04,303.68L546.78,303.83L546.9,303.64L548.15,303.58L548.27,303.5L552.04,303.47L552.15,303.41L552.38,302.86L552.72,303.89L552.84,303.89L554.44,303.16L554.55,303.3L554.67,303.43L555.81,303.16L555.92,303.14L557.3,303.9L557.41,303.7L557.52,303.7L557.64,303.5L557.87,303.96L558.21,303.96L558.32,303.98L559.58,303.16L559.7,303.56L559.81,303.94L560.04,303.6L560.5,304L560.61,303.96L561.87,303.26L561.98,303.98L562.09,304L569.41,303.65L569.52,302.95L570.21,303.88L570.44,303.58L570.55,303.48L571.24,303.83L571.35,302.8L572.04,303.97L572.15,302.65L572.95,304L573.06,304L580.38,304L580.49,303.18L580.72,273.28L581.18,297.93L581.29,298.46L582.21,300.46L582.32,284.34L583.46,299.8L583.58,299.88L584.15,300.55L584.26,300.95L584.95,301.33L585.06,301.9L585.98,301.33L586.09,301.9L586.55,300.57L586.89,301.33L587.01,301.33L587.81,301.33L587.92,301.9L588.03,300.95L588.61,301.9L588.72,301.9L589.52,301.9L589.63,302.29L591.92,302.48L592.03,302.86L593.18,302.48L593.29,300.95L593.75,287.04L594.09,295.43L594.2,296.38L596.26,301.33L596.38,301.33L597.4,301.9L597.52,302.29L600.38,302.86L600.49,303.05L611.57,303.24L611.69,302.48L611.92,292.57L612.37,300.19L612.49,300.57L613.86,302.86L613.97,302.86L615.8,303.43L615.92,303.43L625.86,304" style="vector-effect: non-scaling-stroke; fill: none; stroke: rgb(0, 0, 255); stroke-opacity: 1; stroke-width: 2px; opacity: 1;"/><path class="js-line" d="M784.81,303.98L784.92,227.42L785.49,303.72L785.61,303.88L787.66,303.93L787.78,303.72L788.24,303.88L788.35,303.46L788.46,302.29L789.61,303.55L789.72,303.29L789.84,236.53L790.41,301.92L790.52,302.06L792.35,303.73L792.46,303.71L794.98,303.91L795.09,294.3L795.21,92.29L795.78,294.6L795.89,296.84L797.03,302.54L797.15,302.59L798.98,303.2L799.09,303.15L802.18,303.79L802.29,302.05L802.98,303.6L803.09,303.58L803.21,303.49L803.43,300.21L803.66,302.58L803.78,302.78L804.58,303.55L804.69,302.12L804.8,298.08L805.26,302.35L805.49,298.33L805.6,51.11L805.72,75.4L805.83,256.25L806.75,300.78L806.86,301.22L807.89,302.13L808,302.34L810.52,303.05L810.63,302.77L811.32,303.08L811.43,302.16L811.55,301.52L811.66,302.39L812.12,302.25L812.23,302.26L812.92,303.49L813.26,302.79L813.38,302.74L813.49,301.74L814.06,302.47L814.17,302.42L814.4,302.35L814.52,303.26L815.43,303.13L815.55,303.27L818.63,303.33L818.75,303.02L818.97,302.62L819.2,302.86L819.32,303.71L820,303.91L820.12,303.52L820.8,301.81L821.03,302.98L821.15,303.01L821.83,303.25L821.95,302.94L822.06,302.84L822.4,302.22L822.63,302.97L822.75,303.11L823.43,302.46L823.55,302.7L823.66,303.54L824,301.87L824.12,302.46L824.23,303.46L825.03,303.13L825.14,303.32L825.83,301.32L825.94,302.6L826.06,303.13L826.86,303L826.97,303.1L827.89,303.19L828,303.18L828.8,303.49L828.92,303.44L829.6,303.35L829.72,303.47L829.83,303.46L830.52,303.77L830.74,303.55L830.86,301.71L832,302.87L832.12,302.79L833.14,303.72L833.26,303.11L833.37,302.87L834.29,303.5L834.4,303.62L836.11,302.92L836.23,302.4L836.34,301.32L836.8,302.92L836.91,302.48L837.03,302.79L837.49,303.07L837.6,301.96L837.71,303.34L837.83,302.32L838.4,303.01L838.51,303.16L838.86,302.79L839.09,303.59L839.2,303.54L839.77,302.3L840,303.44" style="vector-effect: non-scaling-stroke; fill: none; stroke: rgb(0, 0, 255); stroke-opacity: 1; stroke-width: 2px; opacity: 1;"/></g><g class="points"/><g class="text"/></g></g></g><g class="overplot"/><path class="xlines-above crisp" d="M0,0" style="fill: none;"/><path class="ylines-above crisp" d="M0,0" style="fill: none;"/><g class="overlines-above"/><g class="xaxislayer-above"><g class="xtick"><text text-anchor="middle" x="0" y="433" transform="translate(246.95,0)" style="font-family: 'Open Sans', verdana, arial, sans-serif; font-size: 12px; fill: rgb(42, 63, 95); fill-opacity: 1; white-space: pre; opacity: 1;">2005</text></g><g class="xtick"><text text-anchor="middle" x="0" y="433" style="font-family: 'Open Sans', verdana, arial, sans-serif; font-size: 12px; fill: rgb(42, 63, 95); fill-opacity: 1; white-space: pre; opacity: 1;" transform="translate(455.61,0)">2010</text></g><g class="xtick"><text text-anchor="middle" x="0" y="433" style="font-family: 'Open Sans', verdana, arial, sans-serif; font-size: 12px; fill: rgb(42, 63, 95); fill-opacity: 1; white-space: pre; opacity: 1;" transform="translate(664.26,0)">2015</text></g><g class="xtick"><text text-anchor="middle" x="0" y="433" style="font-family: 'Open Sans', verdana, arial, sans-serif; font-size: 12px; fill: rgb(42, 63, 95); fill-opacity: 1; white-space: pre; opacity: 1;" transform="translate(872.92,0)">2020</text></g></g><g class="yaxislayer-above"><g class="ytick"><text text-anchor="end" x="79" y="4.199999999999999" transform="translate(0,404)" style="font-family: 'Open Sans', verdana, arial, sans-serif; font-size: 12px; fill: rgb(42, 63, 95); fill-opacity: 1; white-space: pre; opacity: 1;">0</text></g><g class="ytick"><text text-anchor="end" x="79" y="4.199999999999999" style="font-family: 'Open Sans', verdana, arial, sans-serif; font-size: 12px; fill: rgb(42, 63, 95); fill-opacity: 1; white-space: pre; opacity: 1;" transform="translate(0,365.89)">2</text></g><g class="ytick"><text text-anchor="end" x="79" y="4.199999999999999" style="font-family: 'Open Sans', verdana, arial, sans-serif; font-size: 12px; fill: rgb(42, 63, 95); fill-opacity: 1; white-space: pre; opacity: 1;" transform="translate(0,327.78999999999996)">4</text></g><g class="ytick"><text text-anchor="end" x="79" y="4.199999999999999" style="font-family: 'Open Sans', verdana, arial, sans-serif; font-size: 12px; fill: rgb(42, 63, 95); fill-opacity: 1; white-space: pre; opacity: 1;" transform="translate(0,289.68)">6</text></g><g class="ytick"><text text-anchor="end" x="79" y="4.199999999999999" style="font-family: 'Open Sans', verdana, arial, sans-serif; font-size: 12px; fill: rgb(42, 63, 95); fill-opacity: 1; white-space: pre; opacity: 1;" transform="translate(0,251.58)">8</text></g><g class="ytick"><text text-anchor="end" x="79" y="4.199999999999999" style="font-family: 'Open Sans', verdana, arial, sans-serif; font-size: 12px; fill: rgb(42, 63, 95); fill-opacity: 1; white-space: pre; opacity: 1;" transform="translate(0,213.47)">10</text></g><g class="ytick"><text text-anchor="end" x="79" y="4.199999999999999" style="font-family: 'Open Sans', verdana, arial, sans-serif; font-size: 12px; fill: rgb(42, 63, 95); fill-opacity: 1; white-space: pre; opacity: 1;" transform="translate(0,175.37)">12</text></g><g class="ytick"><text text-anchor="end" x="79" y="4.199999999999999" style="font-family: 'Open Sans', verdana, arial, sans-serif; font-size: 12px; fill: rgb(42, 63, 95); fill-opacity: 1; white-space: pre; opacity: 1;" transform="translate(0,137.26)">14</text></g></g><g class="overaxes-above"/></g></g><g class="polarlayer"/><g class="smithlayer"/><g class="ternarylayer"/><g class="geolayer"/><g class="funnelarealayer"/><g class="pielayer"/><g class="iciclelayer"/><g class="treemaplayer"/><g class="sunburstlayer"/><g class="glimages"/><defs id="topdefs-00ba36"><g class="clips"/></defs><g class="layer-above"><g class="imagelayer"/><g class="shapelayer"/></g><g class="infolayer"><g class="g-gtitle"><text class="gtitle" x="50" y="50" text-anchor="start" dy="0em" style="font-family: 'Open Sans', verdana, arial, sans-serif; font-size: 17px; fill: rgb(42, 63, 95); opacity: 1; font-weight: normal; white-space: pre;">Aforament - Santa Cristina d'Aro--a60</text></g><g class="g-xtitle"><text class="xtitle" x="500" y="460.8" text-anchor="middle" style="font-family: 'Open Sans', verdana, arial, sans-serif; font-size: 14px; fill: rgb(42, 63, 95); opacity: 1; font-weight: normal; white-space: pre;">Data</text></g><g class="g-ytitle"><text class="ytitle" transform="rotate(-90,38.934375,260)" x="38.934375" y="260" text-anchor="middle" style="font-family: 'Open Sans', verdana, arial, sans-serif; font-size: 14px; fill: rgb(42, 63, 95); opacity: 1; font-weight: normal; white-space: pre;">Cabal (m3/s)</text></g></g></svg>