<svg class="main-svg" xmlns="http://www.w3.org/2000/svg" xmlns:xlink="http://www.w3.org/1999/xlink" width="1000" height="500" style="" viewBox="0 0 1000 500"><rect x="0" y="0" width="1000" height="500" style="fill: rgb(255, 255, 255); fill-opacity: 1;"/><defs id="defs-7f5c0e"><g class="clips"><clipPath id="clip7f5c0exyplot" class="plotclip"><rect width="840" height="320"/></clipPath><clipPath class="axesclip" id="clip7f5c0ex"><rect x="80" y="0" width="840" height="500"/></clipPath><clipPath class="axesclip" id="clip7f5c0ey"><rect x="0" y="100" width="1000" height="320"/></clipPath><clipPath class="axesclip" id="clip7f5c0exy"><rect x="80" y="100" width="840" height="320"/></clipPath></g><g class="gradients"/><g class="patterns"/></defs><g class="bglayer"><rect class="bg" x="80" y="100" width="840" height="320" style="fill: rgb(229, 236, 246); fill-opacity: 1; stroke-width: 0;"/></g><g class="layer-below"><g class="imagelayer"/><g class="shapelayer"/></g><g class="cartesianlayer"><g class="subplot xy"><g class="layer-subplot"><g class="shapelayer"/><g class="imagelayer"/></g><g class="minor-gridlayer"><g class="x"/><g class="y"/></g><g class="gridlayer"><g class="x"><path class="xgrid crisp" transform="translate(246.95,0)" d="M0,100v320" style="stroke: rgb(255, 255, 255); stroke-opacity: 1; stroke-width: 1px;"/><path class="xgrid crisp" transform="translate(455.61,0)" d="M0,100v320" style="stroke: rgb(255, 255, 255); stroke-opacity: 1; stroke-width: 1px;"/><path class="xgrid crisp" transform="translate(664.26,0)" d="M0,100v320" style="stroke: rgb(255, 255, 255); stroke-opacity: 1; stroke-width: 1px;"/><path class="xgrid crisp" transform="translate(872.92,0)" d="M0,100v320" style="stroke: rgb(255, 255, 255); stroke-opacity: 1; stroke-width: 1px;"/></g><g class="y"><path class="ygrid crisp" transform="translate(0,326.99)" d="M80,0h840" style="stroke: rgb(255, 255, 255); stroke-opacity: 1; stroke-width: 1px;"/><path class="ygrid crisp" transform="translate(0,253.73)" d="M80,0h840" style="stroke: rgb(255, 255, 255); stroke-opacity: 1; stroke-width: 1px;"/><path class="ygrid crisp" transform="translate(0,180.47)" d="M80,0h840" style="stroke: rgb(255, 255, 255); stroke-opacity: 1; stroke-width: 1px;"/><path class="ygrid crisp" transform="translate(0,107.21)" d="M80,0h840" style="stroke: rgb(255, 255, 255); stroke-opacity: 1; stroke-width: 1px;"/></g></g><g class="zerolinelayer"><path class="yzl zl crisp" transform="translate(0,400.25)" d="M80,0h840" style="stroke: rgb(255, 255, 255); stroke-opacity: 1; stroke-width: 2px;"/></g><path class="xlines-below"/><path class="ylines-below"/><g class="overlines-below"/><g class="xaxislayer-below"/><g class="yaxislayer-below"/><g class="overaxes-below"/><g class="plot" transform="translate(80,100)" clip-path="url(#clip7f5c0exyplot)"><g class="scatterlayer mlayer"><g class="trace scatter trace3be4e8" style="stroke-miterlimit: 2; opacity: 1;"><g class="fills"/><g class="errorbars"/><g class="lines"><path class="js-line" d="M0,300.25L1.6,300.25L1.71,261.49L2.63,300.25L2.74,300.25L23.2,300.25L23.31,299.33L24.11,300.25L24.23,300.25L26.62,300L26.74,280.85L26.85,297.89L27.54,293.2L27.65,290.73L27.77,290.47L27.88,294.05L28.11,293L28.22,294.04L28.34,296.61L28.8,291.82L29.02,295.97L29.14,294.83L29.6,290.94L29.71,295.48L29.94,292.29L30.05,293.92L30.17,289.89L30.62,294.35L30.85,291.9L30.97,291.28L31.54,294.01L31.77,292.5L31.88,292.99L32,294.88L32.11,292.12L32.45,293.62L32.57,291.16L32.91,295.58L33.14,289.22L33.25,288.42L34.17,298.6L34.28,298.58L34.62,297.37L34.97,299.09L35.08,299.15L35.77,293.55L35.88,296.29L36,300.25L36.22,299.58L36.34,294.92L36.68,300.12L37.14,289.4L37.25,293.63L37.37,292.31L37.71,294.48L37.82,280.07L38.62,300.25L38.74,300.25L38.97,300.25L39.08,297.35L39.42,37.03L39.65,82.63L39.77,300.25L39.99,172.21L40.11,300.25L40.22,300.25L40.45,89.02L40.79,300.25L40.91,300.25L42.28,300.21L42.39,57.53L42.62,179.19L42.74,300.25L42.85,299.26L42.97,97.6L43.77,300.25L43.88,300.18L43.99,296.71L44.11,300.25L44.57,300.25L44.68,300.25L47.31,300.25L47.42,298.52L48.22,300.25L48.34,300.25L52.11,300.25L52.22,292.31L52.34,282.34L52.45,300.25L52.79,300.25L52.91,300.25L53.25,294.71L53.59,300.25L53.71,300.25L56.11,300.25L56.22,202.96L57.02,300.25L57.14,300.25L83.87,300.25L83.99,289.42L84.79,300.25L84.9,300.25L89.7,300.25L89.82,297.01L89.93,291.69L90.04,300.25L90.5,300.25L90.62,300.25L93.36,300.25L93.47,294.41L94.39,300.25L94.5,300.25L116.33,300.25L116.44,268.29L117.24,300.25L117.36,300.25L121.81,300.25L121.93,279.46L122.73,300.25L122.84,300.25L130.84,299.85L130.95,289.74L131.41,298.19L131.87,296.95L131.98,297.79L132.9,299.76L133.01,299.49L134.15,300.1L134.27,300.08L135.18,299.83L135.3,276.41L135.98,299.56L136.21,299.39L136.32,299.48L136.9,300.11L137.12,299.81L137.24,203.82L138.15,298.92L138.27,299.02L138.5,299.47L138.61,299.41L138.72,256.41L139.07,295.21L139.52,283.94L139.64,290.13L139.98,294.91L140.1,294.45L140.21,288.73L141.12,299.36L141.24,299.31L142.72,299.69L142.84,299.64L144.55,299.95L144.67,299.08L145.47,300.24L145.58,300.24L147.75,300.05L147.87,298.75L148.09,299.98L148.44,297.2L148.67,299.54L148.78,299.45L149.47,299.31L149.58,297.62L150.27,300.22L150.38,299.95L150.49,300.21L155.86,300.19L155.98,300.21L157.01,300.2" style="vector-effect: non-scaling-stroke; fill: none; stroke: rgb(255, 0, 0); stroke-opacity: 1; stroke-width: 2px; opacity: 1;"/><path class="js-line" d="M157.24,300.2L159.41,299.81L159.52,299.66L163.63,299.66L163.75,298.55L164.21,299.22L164.32,283.08L165.12,299.54L165.23,299.59L167.63,299.37L167.75,299.28L168.66,299.24L168.78,299.2L170.26,299.27L170.38,299.41L171.18,298.61L171.29,282.85L171.41,277.21L171.63,296.06L171.75,297.81L172.66,298.7L172.78,298.74L175.06,299.25L175.18,299.16L177.35,299.1L177.46,298.86L178.49,299.49L178.6,299.5L179.4,299.4L179.52,299.51L179.86,299.2L180.2,299.66L180.32,299.83L182.38,299.55L182.49,297.93L182.6,299.61L182.72,293.78L182.83,296.82L182.95,293.28L184.09,253.95L184.2,254.27L184.32,253.2L185.69,297.61L185.8,297.42L185.92,296.9L186.26,298.18L186.49,297.6L186.6,298.45L186.83,297.3L187.06,299.25L187.29,297.79L187.4,298.63L187.75,300.24L188.2,300.14L188.32,300.11L190.37,300.14L190.49,300.05L191.4,300.16L191.52,300.16L193.12,299.98L193.23,299.86L195.4,299.99L195.52,298.35L195.86,300.14L196.32,300.06L196.43,299.94L197.34,299.89L197.46,299.95L198.26,299.86L198.37,299.87L199.29,299.75L199.4,297.1L199.52,121.69L200.09,290.38L200.2,292.17L201,296.75L201.12,296.59L201.23,296.85L202.49,297.97L202.6,296.36L202.94,297.23L203.06,293.87L203.29,264.18L203.74,295.01L203.86,295.59L205,297.81L205.11,297.59L206.14,298.45L206.26,298.36L206.37,298.08L207.29,298.38L207.4,298.4L208.09,297.83L208.43,298.09L208.54,298.32L208.66,300.16L209.23,298.05L209.34,295.74L210.03,298.03L210.26,297.94L210.37,296.85L211.06,298.47L211.4,298.17L211.51,297.75L211.63,297.18L211.74,287.79L211.86,246.75L212.43,293.22L212.54,294.53L213.69,297.84L213.8,297.78L213.91,297.76L214.37,298.29L214.71,298.06L214.83,298.14L215.4,298.13L215.51,298.34L215.63,298.51L215.86,298.13L216.43,298.58L216.54,298.55L217.11,298.82L217.23,298.66L217.34,298.5L217.46,298.1L217.68,299.97L217.8,299.79L219.4,300.03L219.51,299.94L223.06,299.95L223.17,299.61L224.08,300.06" style="vector-effect: non-scaling-stroke; fill: none; stroke: rgb(255, 0, 0); stroke-opacity: 1; stroke-width: 2px; opacity: 1;"/><path class="js-line" d="M224.43,300.09L224.77,300.15" style="vector-effect: non-scaling-stroke; fill: none; stroke: rgb(255, 0, 0); stroke-opacity: 1; stroke-width: 2px; opacity: 1;"/><path class="js-line" d="M225.57,300.14L230.37,300.23L230.48,300.22L237.91,300.21L238.02,297.45L238.6,300.24L238.82,300.03L238.94,299.87L239.05,294.56L239.4,300.25L239.62,300.23L239.74,300.21L240.54,299.76L240.65,299.77L241,300.16L241.11,299.42L241.22,296.74L241.68,300.15L241.8,277.8L242.82,299.89L242.94,299.96L243.85,299.95L243.97,300L245.22,299.89L245.34,300.06L248.31,299.75L248.42,298.93L248.88,299.78L249.22,299.49L249.34,299.18L250.25,299.72L250.37,299.61L251.97,299.88L252.08,299.72L252.99,300.02L253.11,299.88L255.62,300.05L255.74,298.82L255.97,290.02L256.42,299.55L256.54,299.59L257.45,299.93L257.56,300L258.59,300.03L258.71,300.09L260.76,299.95L260.88,297.24L260.99,297.83L261.11,292.02L261.45,299.04L261.91,295.58L262.02,268.65L262.14,263.17L262.25,278.89L262.36,287.91L263.28,299.45L263.39,299.56L265.68,299.67" style="vector-effect: non-scaling-stroke; fill: none; stroke: rgb(255, 0, 0); stroke-opacity: 1; stroke-width: 2px; opacity: 1;"/><path class="js-line" d="M270.25,299.89L271.96,300.2L272.08,300.18L273.56,300.13" style="vector-effect: non-scaling-stroke; fill: none; stroke: rgb(255, 0, 0); stroke-opacity: 1; stroke-width: 2px; opacity: 1;"/><path class="js-line" d="M273.79,300.17L279.28,300.14" style="vector-effect: non-scaling-stroke; fill: none; stroke: rgb(255, 0, 0); stroke-opacity: 1; stroke-width: 2px; opacity: 1;"/><path class="js-line" d="M279.62,300L281.22,300.07L281.33,299.78L281.68,300.05L281.79,299.9" style="vector-effect: non-scaling-stroke; fill: none; stroke: rgb(255, 0, 0); stroke-opacity: 1; stroke-width: 2px; opacity: 1;"/><path class="js-line" d="M282.02,300.25L297.56,300.24" style="vector-effect: non-scaling-stroke; fill: none; stroke: rgb(255, 0, 0); stroke-opacity: 1; stroke-width: 2px; opacity: 1;"/><path class="js-line" d="M297.79,300.25L305.79,300.18" style="vector-effect: non-scaling-stroke; fill: none; stroke: rgb(255, 0, 0); stroke-opacity: 1; stroke-width: 2px; opacity: 1;"/><path class="js-line" d="M306.47,300.24L306.7,300.23" style="vector-effect: non-scaling-stroke; fill: none; stroke: rgb(255, 0, 0); stroke-opacity: 1; stroke-width: 2px; opacity: 1;"/><path class="js-line" d="M307.27,299.93L307.39,300.21" style="vector-effect: non-scaling-stroke; fill: none; stroke: rgb(255, 0, 0); stroke-opacity: 1; stroke-width: 2px; opacity: 1;"/><path class="js-line" d="M309.22,300.23L310.81,300.19L310.93,297.76L311.73,300.13L311.84,300.16L320.98,300.25L321.1,300.25L331.95,300.25" style="vector-effect: non-scaling-stroke; fill: none; stroke: rgb(255, 0, 0); stroke-opacity: 1; stroke-width: 2px; opacity: 1;"/><path class="js-line" d="M332.41,300.25L333.21,300.19L333.33,289.14L334.24,300.25L334.35,300.25L335.04,300.09L335.15,299.07L335.5,299.95" style="vector-effect: non-scaling-stroke; fill: none; stroke: rgb(255, 0, 0); stroke-opacity: 1; stroke-width: 2px; opacity: 1;"/><path class="js-line" d="M337.9,300.24L343.61,300.25" style="vector-effect: non-scaling-stroke; fill: none; stroke: rgb(255, 0, 0); stroke-opacity: 1; stroke-width: 2px; opacity: 1;"/><path class="js-line" d="M343.84,300.25L356.52,300L356.64,299.25" style="vector-effect: non-scaling-stroke; fill: none; stroke: rgb(255, 0, 0); stroke-opacity: 1; stroke-width: 2px; opacity: 1;"/><path class="js-line" d="M356.98,300.25L357.89,300.25" style="vector-effect: non-scaling-stroke; fill: none; stroke: rgb(255, 0, 0); stroke-opacity: 1; stroke-width: 2px; opacity: 1;"/><path class="js-line" d="M358.12,300.25L358.92,300.25" style="vector-effect: non-scaling-stroke; fill: none; stroke: rgb(255, 0, 0); stroke-opacity: 1; stroke-width: 2px; opacity: 1;"/><path class="js-line" d="M359.38,300.25L360.64,300.24" style="vector-effect: non-scaling-stroke; fill: none; stroke: rgb(255, 0, 0); stroke-opacity: 1; stroke-width: 2px; opacity: 1;"/><path class="js-line" d="M360.87,300.25L363.04,300.25" style="vector-effect: non-scaling-stroke; fill: none; stroke: rgb(255, 0, 0); stroke-opacity: 1; stroke-width: 2px; opacity: 1;"/><path class="js-line" d="M364.06,300.25L366.01,300.25" style="vector-effect: non-scaling-stroke; fill: none; stroke: rgb(255, 0, 0); stroke-opacity: 1; stroke-width: 2px; opacity: 1;"/><path class="js-line" d="M369.89,300.25L379.95,300.25L380.06,286.1L380.63,300.2L380.75,299.23L380.86,282.68L380.98,283.28L381.09,299.47L381.21,283.56L381.78,300.19L381.89,300.21L382.46,300.23L382.58,297.66L382.69,277.42L383.03,297.94L383.26,294L383.38,290.71L383.49,291.86L383.6,289.28L383.72,291.14L383.83,281.55L383.95,278.92L384.18,285.27L384.29,288.73L385.2,299.13L385.32,299.4" style="vector-effect: non-scaling-stroke; fill: none; stroke: rgb(255, 0, 0); stroke-opacity: 1; stroke-width: 2px; opacity: 1;"/><path class="js-line" d="M385.55,299.61L387.03,300.16L387.15,298.6L387.26,298.06L387.83,298.48L387.95,298.53L388.63,299.29L388.75,299.51L389.43,299.77L389.55,298.49L389.78,262.32L390.23,295.35L390.35,297.05L390.46,297.95L390.58,295.88L390.69,291.37L390.8,282.57L391.26,297.88L391.38,298.54L391.95,299.58L392.18,298.67L392.29,298.74L393.32,299.1L393.43,299.07L394.57,299.49L394.69,299.65L395.03,299.17L395.49,299.49L395.6,299.35L397.2,300.09L397.32,300.14L399.95,300.2" style="vector-effect: non-scaling-stroke; fill: none; stroke: rgb(255, 0, 0); stroke-opacity: 1; stroke-width: 2px; opacity: 1;"/><path class="js-line" d="M400.29,300.21L401.55,300.21" style="vector-effect: non-scaling-stroke; fill: none; stroke: rgb(255, 0, 0); stroke-opacity: 1; stroke-width: 2px; opacity: 1;"/><path class="js-line" d="M401.89,300.21L407.94,299.48L408.06,295.4L408.17,250.44L408.74,298.66L408.86,298.98L410,299.53L410.12,299.49L413.54,299.56L413.66,299.31L414.69,299.57L414.8,299.6L417.89,299.51L418,299.55L420.4,299.14L420.51,288.76L421.43,299.19L421.54,299.24L424.97,299.46L425.09,300.11L425.43,274.64L425.54,296.55L425.77,269.74L426.11,299.72L426.23,294.96L426.34,295.46L427.26,298.21L427.37,298.53L427.71,298.41L427.94,298.75L428.06,298.88L430,299.27L430.11,298.41L430.57,299.17L430.91,298.91L431.03,298.92L432.4,298.01L432.51,297.47L432.74,298.47L433.31,297.92L433.43,297.82L433.88,298.3L434,298.61L435.26,299.65L435.37,299.24L436.28,299.82L436.4,300.01L439.48,300.17L439.6,300.17L445.2,300.17" style="vector-effect: non-scaling-stroke; fill: none; stroke: rgb(255, 0, 0); stroke-opacity: 1; stroke-width: 2px; opacity: 1;"/><path class="js-line" d="M445.88,300.17L451.37,299.94L451.48,299.11L451.6,267.57L452.17,299.78L452.28,299.78L452.4,299.55L452.51,289.41L452.62,195.48L453.2,299.98L453.31,299.99L453.42,299.28L453.65,299.6L453.77,270.46L454.11,299.58L454.34,255.74L454.45,249.8L455.02,299.75L455.37,298.33L455.48,298.44L455.94,299.45" style="vector-effect: non-scaling-stroke; fill: none; stroke: rgb(255, 0, 0); stroke-opacity: 1; stroke-width: 2px; opacity: 1;"/><path class="js-line" d="M456.74,299.64L461.99,300.03" style="vector-effect: non-scaling-stroke; fill: none; stroke: rgb(255, 0, 0); stroke-opacity: 1; stroke-width: 2px; opacity: 1;"/><path class="js-line" d="M581.64,298.9L582.21,299.46L582.32,285.37L582.44,284.68L582.55,294.86L583.12,298.74" style="vector-effect: non-scaling-stroke; fill: none; stroke: rgb(255, 0, 0); stroke-opacity: 1; stroke-width: 2px; opacity: 1;"/><path class="js-line" d="M587.92,299.91L593.29,299.44L593.4,296.12L593.52,296.94L593.63,294.61L593.75,288.17L594.66,299.33L594.78,299.33L599.12,300.14L599.23,300.16L614.32,300.25L614.43,300.25L655.23,300.25L655.34,289.19L656.14,300.25L656.25,300.25L658.54,300.25L658.65,282.21L658.77,278.77L658.88,292L659,299.62L659.8,300.25L659.91,300.25L670.08,300.25L670.19,238.44L670.77,296.28L671.22,296.02L671.34,296.57L672.48,298.39L672.59,298.39L673.05,291.43L673.17,294.38L673.28,295.41L674.42,297.87L674.54,298.21L674.77,298.21L674.88,297.07L675.91,299.87L676.02,299.89L677.17,299.89L677.28,298.05L677.96,299.89L678.08,299.84L678.19,299.87L683.45,299.8L683.56,297.76L683.68,297.24L683.79,299.71L683.91,299.86L684.59,300.08L684.71,300.09L685.16,283.87L685.51,286.18L685.62,287.07L686.19,286.15L686.31,287.4L686.42,291.33L686.99,299.72L687.56,297.94L687.68,297.49L687.91,300.23L688.36,298.84L688.48,298.34L689.28,300.24L689.39,300.24L720.82,300.25L720.93,275.32L721.84,299.97L721.96,300L724.47,299.94L724.59,299.51L725.84,299.87L725.96,299.9L745.16,300.25L745.27,299.15L745.73,300.24L745.84,276.26L746.07,292.94L746.18,16L746.98,296.51L747.1,296.51L748.13,297.69L748.24,297.74L752.01,298.32L752.13,298.29L755.33,298.46L755.44,298.4L757.84,298.46L757.95,296.81L759.21,296.21L759.33,295.65L759.9,296.75L760.13,296.42L760.24,296.4L761.38,295.55L761.5,295.55L761.84,293.4L761.95,295.47" style="vector-effect: non-scaling-stroke; fill: none; stroke: rgb(255, 0, 0); stroke-opacity: 1; stroke-width: 2px; opacity: 1;"/><path class="js-line" d="M762.52,295L763.1,295.57L763.32,295.24L763.44,295.21" style="vector-effect: non-scaling-stroke; fill: none; stroke: rgb(255, 0, 0); stroke-opacity: 1; stroke-width: 2px; opacity: 1;"/><path class="js-line" d="M764.01,288.57L764.47,293.89L764.81,293.33L764.92,293.06L765.04,293.16L765.15,292.37L765.27,291.99L765.5,293.51L766.07,292.51L766.18,292.24L766.3,293.01L766.75,292.21L766.87,291.37L766.98,289.14L767.44,292.37L767.55,292.13L767.67,291.11L768.35,293.23L768.47,300.25L773.04,299.61L773.15,297.56L773.27,299.37L773.61,297.25L773.95,299.19L774.07,299.4L774.29,297.43L774.52,300.06L774.64,300.04L776.47,300.21L776.58,300.19L779.78,300.18L779.89,300.19L784.81,299.96L784.92,234.41L785.72,299.45L785.84,299.54L787.44,298.94L787.55,297.52L787.89,298.18L788.24,297.47L788.35,296.86L788.46,293.95L789.04,295.99L789.15,296.15L789.72,295.54L789.84,224.38L790.64,292.67L790.75,292.88L791.78,294.84L791.89,295.16L794.52,295.68L794.63,295.78L794.98,295.73L795.09,292.35L795.21,169.9L795.78,286.75L795.89,288.88L796.92,293.61L797.15,293.52L797.26,293.61L798.75,295.2L798.86,295.01L798.98,294.88L799.89,293.76L800.01,295.08L800.58,295.97L800.81,295.84L800.92,295.69L801.49,295.55L801.61,295.98L801.72,296.26L802.18,296.06L802.29,290.66L803.21,294.98L803.32,294.21L803.43,289.39L804,294.02L804.12,294.21L804.58,294.34L804.69,290.46L805.26,291.18L805.72,154.04L805.83,260.42L806.75,289.68L806.86,290.1L807.32,291.11L807.43,292.69L808.69,294.63L808.8,294.61L809.83,293.97L809.95,293.76L810.52,293.46L810.63,290.19L811.2,291.88L811.43,284.5L811.55,288.2L812,293.34L812.46,292.71L812.58,293.03L814.86,299.02L814.97,298.86L815.09,299.15L815.32,298.86L815.66,299.61L815.77,299.44L815.89,299.57L817.03,299.85L817.15,299.9L819.09,300.09L819.2,295.42L819.55,295.03L820.12,300.24L820.23,300.24L824.34,299.75L824.46,299.44L825.26,299.79L825.37,299.66L825.6,299.77L825.72,298.83L826.63,299.73L826.74,299.75L830.52,299.78L830.63,298.51L830.74,298.93L830.86,295.99L831.2,299.73L831.77,299.7L831.89,299.71L835.54,299.76L835.66,298.61L835.77,297.23L836.11,299.75L836.23,299.73L836.34,299.71L838.86,299.8L838.97,298.99L839.89,299.86L840,299.83" style="vector-effect: non-scaling-stroke; fill: none; stroke: rgb(255, 0, 0); stroke-opacity: 1; stroke-width: 2px; opacity: 1;"/></g><g class="points"/><g class="text"/></g><g class="trace scatter tracecd303c" style="stroke-miterlimit: 2; opacity: 1;"><g class="fills"/><g class="errorbars"/><g class="lines"><path class="js-line" d="M0,300.25L1.6,300.25L1.71,261.49L2.63,300.25L2.74,300.25L23.2,300.25L23.31,299.33L24.11,300.25L24.23,300.25L26.62,300L26.74,280.85L26.85,297.89L27.54,293.2L27.65,290.73L27.77,290.47L27.88,294.05L28.11,293L28.22,294.04L28.34,296.61L28.8,291.82L29.02,295.97L29.14,294.83L29.6,290.94L29.71,295.48L29.94,292.29L30.05,293.92L30.17,289.89L30.62,294.35L30.85,291.9L30.97,291.28L31.54,294.01L31.77,292.5L31.88,292.99L32,294.88L32.11,292.12L32.45,293.62L32.57,291.16L32.91,295.58L33.14,289.22L33.25,288.42L34.17,298.6L34.28,298.58L34.62,297.37L34.97,299.09L35.08,299.15L35.77,293.55L35.88,296.29L36,300.25L36.22,299.58L36.34,294.92L36.68,300.12L37.14,289.4L37.25,293.63L37.37,292.31L37.71,294.48L37.82,280.07L38.62,300.25L38.74,300.25L38.97,300.25L39.08,297.35L39.42,37.03L39.65,82.63L39.77,300.25L39.99,172.21L40.11,300.25L40.22,300.25L40.45,89.02L40.79,300.25L40.91,300.25L42.28,300.21L42.39,57.53L42.62,179.19L42.74,300.25L42.85,299.26L42.97,97.6L43.77,300.25L43.88,300.18L43.99,296.71L44.11,300.25L44.57,300.25L44.68,300.25L47.31,300.25L47.42,298.52L48.22,300.25L48.34,300.25L52.11,300.25L52.22,292.31L52.34,282.34L52.45,300.25L52.79,300.25L52.91,300.25L53.25,294.71L53.59,300.25L53.71,300.25L56.11,300.25L56.22,202.96L57.02,300.25L57.14,300.25L83.87,300.25L83.99,289.42L84.79,300.25L84.9,300.25L89.7,300.25L89.82,297.01L89.93,291.69L90.04,300.25L90.5,300.25L90.62,300.25L93.36,300.25L93.47,294.41L94.39,300.25L94.5,300.25L116.33,300.25L116.44,268.29L117.24,300.25L117.36,300.25L121.81,300.25L121.93,279.46L122.73,300.25L122.84,300.25L130.84,299.85L130.95,289.74L131.41,298.19L131.87,296.95L131.98,297.79L132.9,299.76L133.01,299.49L134.15,300.1L134.27,300.08L135.18,299.83L135.3,276.41L135.98,299.56L136.21,299.39L136.32,299.48L136.9,300.11L137.12,299.81L137.24,203.82L138.15,298.92L138.27,299.02L138.5,299.47L138.61,299.41L138.72,256.41L139.07,295.21L139.52,283.94L139.64,290.13L139.98,294.91L140.1,294.45L140.21,288.73L141.12,299.36L141.24,299.31L142.72,299.69L142.84,299.64L144.55,299.95L144.67,299.08L145.47,300.24L145.58,300.24L147.75,300.05L147.87,298.75L148.09,299.98L148.44,297.2L148.67,299.54L148.78,299.45L149.47,299.31L149.58,297.62L150.27,300.22L150.38,299.95L150.49,300.21L155.86,300.19L155.98,300.21L157.01,300.2" style="vector-effect: non-scaling-stroke; fill: none; stroke: rgb(0, 0, 255); stroke-opacity: 1; stroke-width: 2px; opacity: 1;"/><path class="js-line" d="M157.24,300.2L159.41,299.81L159.52,299.66L163.63,299.66L163.75,298.55L164.21,299.22L164.32,283.08L165.12,299.54L165.23,299.59L167.63,299.37L167.75,299.28L168.66,299.24L168.78,299.2L170.26,299.27L170.38,299.41L171.18,298.61L171.29,282.85L171.41,277.21L171.63,296.06L171.75,297.81L172.66,298.7L172.78,298.74L175.06,299.25L175.18,299.16L177.35,299.1L177.46,298.86L178.49,299.49L178.6,299.5L179.4,299.4L179.52,299.51L179.86,299.2L180.2,299.66L180.32,299.83L182.38,299.55L182.49,297.93L182.6,299.61L182.72,293.78L182.83,296.82L182.95,293.28L184.09,253.95L184.2,254.27L184.32,253.2L185.69,297.61L185.8,297.42L185.92,296.9L186.26,298.18L186.49,297.6L186.6,298.45L186.83,297.3L187.06,299.25L187.29,297.79L187.4,298.63L187.75,300.24L188.2,300.14L188.32,300.11L190.37,300.14L190.49,300.05L191.4,300.16L191.52,300.16L193.12,299.98L193.23,299.86L195.4,299.99L195.52,298.35L195.86,300.14L196.32,300.06L196.43,299.94L197.34,299.89L197.46,299.95L198.26,299.86L198.37,299.87L199.29,299.75L199.4,297.1L199.52,121.69L200.09,290.38L200.2,292.17L201,296.75L201.12,296.59L201.23,296.85L202.49,297.97L202.6,296.36L202.94,297.23L203.06,293.87L203.29,264.18L203.74,295.01L203.86,295.59L205,297.81L205.11,297.59L206.14,298.45L206.26,298.36L206.37,298.08L207.29,298.38L207.4,298.4L208.09,297.83L208.43,298.09L208.54,298.32L208.66,300.16L209.23,298.05L209.34,295.74L210.03,298.03L210.26,297.94L210.37,296.85L211.06,298.47L211.4,298.17L211.51,297.75L211.63,297.18L211.74,287.79L211.86,246.75L212.43,293.22L212.54,294.53L213.69,297.84L213.8,297.78L213.91,297.76L214.37,298.29L214.71,298.06L214.83,298.14L215.4,298.13L215.51,298.34L215.63,298.51L215.86,298.13L216.43,298.58L216.54,298.55L217.11,298.82L217.23,298.66L217.34,298.5L217.46,298.1L217.68,299.97L217.8,299.79L219.4,300.03L219.51,299.94L223.06,299.95L223.17,299.61L224.08,300.06" style="vector-effect: non-scaling-stroke; fill: none; stroke: rgb(0, 0, 255); stroke-opacity: 1; stroke-width: 2px; opacity: 1;"/><path class="js-line" d="M224.43,300.09L224.77,300.15" style="vector-effect: non-scaling-stroke; fill: none; stroke: rgb(0, 0, 255); stroke-opacity: 1; stroke-width: 2px; opacity: 1;"/><path class="js-line" d="M225.57,300.14L230.37,300.23L230.48,300.22L237.91,300.21L238.02,297.45L238.6,300.24L238.82,300.03L238.94,299.87L239.05,294.56L239.4,300.25L239.62,300.23L239.74,300.21L240.54,299.76L240.65,299.77L241,300.16L241.11,299.42L241.22,296.74L241.68,300.15L241.8,277.8L242.82,299.89L242.94,299.96L243.85,299.95L243.97,300L245.22,299.89L245.34,300.06L248.31,299.75L248.42,298.93L248.88,299.78L249.22,299.49L249.34,299.18L250.25,299.72L250.37,299.61L251.97,299.88L252.08,299.72L252.99,300.02L253.11,299.88L255.62,300.05L255.74,298.82L255.97,290.02L256.42,299.55L256.54,299.59L257.45,299.93L257.56,300L258.59,300.03L258.71,300.09L260.76,299.95L260.88,297.24L260.99,297.83L261.11,292.02L261.45,299.04L261.91,295.58L262.02,268.65L262.14,263.17L262.25,278.89L262.36,287.91L263.28,299.45L263.39,299.56L265.68,299.67" style="vector-effect: non-scaling-stroke; fill: none; stroke: rgb(0, 0, 255); stroke-opacity: 1; stroke-width: 2px; opacity: 1;"/><path class="js-line" d="M270.25,299.89L271.96,300.2L272.08,300.18L273.56,300.13" style="vector-effect: non-scaling-stroke; fill: none; stroke: rgb(0, 0, 255); stroke-opacity: 1; stroke-width: 2px; opacity: 1;"/><path class="js-line" d="M273.79,300.17L279.28,300.14" style="vector-effect: non-scaling-stroke; fill: none; stroke: rgb(0, 0, 255); stroke-opacity: 1; stroke-width: 2px; opacity: 1;"/><path class="js-line" d="M279.62,300L281.22,300.07L281.33,299.78L281.68,300.05L281.79,299.9" style="vector-effect: non-scaling-stroke; fill: none; stroke: rgb(0, 0, 255); stroke-opacity: 1; stroke-width: 2px; opacity: 1;"/><path class="js-line" d="M282.02,300.25L297.56,300.24" style="vector-effect: non-scaling-stroke; fill: none; stroke: rgb(0, 0, 255); stroke-opacity: 1; stroke-width: 2px; opacity: 1;"/><path class="js-line" d="M297.79,300.25L305.79,300.18" style="vector-effect: non-scaling-stroke; fill: none; stroke: rgb(0, 0, 255); stroke-opacity: 1; stroke-width: 2px; opacity: 1;"/><path class="js-line" d="M306.47,300.24L306.7,300.23" style="vector-effect: non-scaling-stroke; fill: none; stroke: rgb(0, 0, 255); stroke-opacity: 1; stroke-width: 2px; opacity: 1;"/><path class="js-line" d="M307.27,299.93L307.39,300.21" style="vector-effect: non-scaling-stroke; fill: none; stroke: rgb(0, 0, 255); stroke-opacity: 1; stroke-width: 2px; opacity: 1;"/><path class="js-line" d="M309.22,300.23L310.81,300.19L310.93,297.76L311.73,300.13L311.84,300.16L320.98,300.25L321.1,300.25L331.95,300.25" style="vector-effect: non-scaling-stroke; fill: none; stroke: rgb(0, 0, 255); stroke-opacity: 1; stroke-width: 2px; opacity: 1;"/><path class="js-line" d="M332.41,300.25L333.21,300.19L333.33,289.14L334.24,300.25L334.35,300.25L335.04,300.09L335.15,299.07L335.5,299.95" style="vector-effect: non-scaling-stroke; fill: none; stroke: rgb(0, 0, 255); stroke-opacity: 1; stroke-width: 2px; opacity: 1;"/><path class="js-line" d="M337.9,300.24L343.61,300.25" style="vector-effect: non-scaling-stroke; fill: none; stroke: rgb(0, 0, 255); stroke-opacity: 1; stroke-width: 2px; opacity: 1;"/><path class="js-line" d="M343.84,300.25L356.52,300L356.64,299.25" style="vector-effect: non-scaling-stroke; fill: none; stroke: rgb(0, 0, 255); stroke-opacity: 1; stroke-width: 2px; opacity: 1;"/><path class="js-line" d="M356.98,300.25L357.89,300.25" style="vector-effect: non-scaling-stroke; fill: none; stroke: rgb(0, 0, 255); stroke-opacity: 1; stroke-width: 2px; opacity: 1;"/><path class="js-line" d="M358.12,300.25L358.92,300.25" style="vector-effect: non-scaling-stroke; fill: none; stroke: rgb(0, 0, 255); stroke-opacity: 1; stroke-width: 2px; opacity: 1;"/><path class="js-line" d="M359.38,300.25L360.64,300.24" style="vector-effect: non-scaling-stroke; fill: none; stroke: rgb(0, 0, 255); stroke-opacity: 1; stroke-width: 2px; opacity: 1;"/><path class="js-line" d="M360.87,300.25L363.04,300.25" style="vector-effect: non-scaling-stroke; fill: none; stroke: rgb(0, 0, 255); stroke-opacity: 1; stroke-width: 2px; opacity: 1;"/><path class="js-line" d="M364.06,300.25L366.01,300.25" style="vector-effect: non-scaling-stroke; fill: none; stroke: rgb(0, 0, 255); stroke-opacity: 1; stroke-width: 2px; opacity: 1;"/><path class="js-line" d="M369.89,300.25L379.95,300.25L380.06,286.1L380.63,300.2L380.75,299.23L380.86,282.68L380.98,283.28L381.09,299.47L381.21,283.56L381.78,300.19L381.89,300.21L382.46,300.23L382.58,297.66L382.69,277.42L383.03,297.94L383.26,294L383.38,290.71L383.49,291.86L383.6,289.28L383.72,291.14L383.83,281.55L383.95,278.92L384.18,285.27L384.29,288.73L385.2,299.13L385.32,299.4" style="vector-effect: non-scaling-stroke; fill: none; stroke: rgb(0, 0, 255); stroke-opacity: 1; stroke-width: 2px; opacity: 1;"/><path class="js-line" d="M385.55,299.61L387.03,300.16L387.15,298.6L387.26,298.06L387.83,298.48L387.95,298.53L388.63,299.29L388.75,299.51L389.43,299.77L389.55,298.49L389.78,262.32L390.23,295.35L390.35,297.05L390.46,297.95L390.58,295.88L390.69,291.37L390.8,282.57L391.26,297.88L391.38,298.54L391.95,299.58L392.18,298.67L392.29,298.74L393.32,299.1L393.43,299.07L394.57,299.49L394.69,299.65L395.03,299.17L395.49,299.49L395.6,299.35L397.2,300.09L397.32,300.14L399.95,300.2" style="vector-effect: non-scaling-stroke; fill: none; stroke: rgb(0, 0, 255); stroke-opacity: 1; stroke-width: 2px; opacity: 1;"/><path class="js-line" d="M400.29,300.21L401.55,300.21" style="vector-effect: non-scaling-stroke; fill: none; stroke: rgb(0, 0, 255); stroke-opacity: 1; stroke-width: 2px; opacity: 1;"/><path class="js-line" d="M401.89,300.21L407.94,299.48L408.06,295.4L408.17,250.44L408.74,298.66L408.86,298.98L410,299.53L410.12,299.49L413.54,299.56L413.66,299.31L414.69,299.57L414.8,299.6L417.89,299.51L418,299.55L420.4,299.14L420.51,288.76L421.43,299.19L421.54,299.24L424.97,299.46L425.09,300.11L425.43,274.64L425.54,296.55L425.77,269.74L426.11,299.72L426.23,294.96L426.34,295.46L427.26,298.21L427.37,298.53L427.71,298.41L427.94,298.75L428.06,298.88L430,299.27L430.11,298.41L430.57,299.17L430.91,298.91L431.03,298.92L432.4,298.01L432.51,297.47L432.74,298.47L433.31,297.92L433.43,297.82L433.88,298.3L434,298.61L435.26,299.65L435.37,299.24L436.28,299.82L436.4,300.01L439.48,300.17L439.6,300.17L445.2,300.17" style="vector-effect: non-scaling-stroke; fill: none; stroke: rgb(0, 0, 255); stroke-opacity: 1; stroke-width: 2px; opacity: 1;"/><path class="js-line" d="M445.88,300.17L451.37,299.94L451.48,299.11L451.6,267.57L452.17,299.78L452.28,299.78L452.4,299.55L452.51,289.41L452.62,195.48L453.2,299.98L453.31,299.99L453.42,299.28L453.65,299.6L453.77,270.46L454.11,299.58L454.34,255.74L454.45,249.8L455.02,299.75L455.37,298.33L455.48,298.44L455.94,299.45" style="vector-effect: non-scaling-stroke; fill: none; stroke: rgb(0, 0, 255); stroke-opacity: 1; stroke-width: 2px; opacity: 1;"/><path class="js-line" d="M456.74,299.64L461.99,300.03" style="vector-effect: non-scaling-stroke; fill: none; stroke: rgb(0, 0, 255); stroke-opacity: 1; stroke-width: 2px; opacity: 1;"/><path class="js-line" d="M581.64,298.9L582.21,299.46L582.32,285.37L582.44,284.68L582.55,294.86L583.12,298.74" style="vector-effect: non-scaling-stroke; fill: none; stroke: rgb(0, 0, 255); stroke-opacity: 1; stroke-width: 2px; opacity: 1;"/><path class="js-line" d="M587.92,299.91L593.29,299.44L593.4,296.12L593.52,296.94L593.63,294.61L593.75,288.17L594.66,299.33L594.78,299.33L599.12,300.14L599.23,300.16L614.32,300.25L614.43,300.25L655.23,300.25L655.34,289.19L656.14,300.25L656.25,300.25L658.54,300.25L658.65,282.21L658.77,278.77L658.88,292L659,299.62L659.8,300.25L659.91,300.25L670.08,300.25L670.19,238.44L670.77,296.28L671.22,296.02L671.34,296.57L672.48,298.39L672.59,298.39L673.05,291.43L673.17,294.38L673.28,295.41L674.42,297.87L674.54,298.21L674.77,298.21L674.88,297.07L675.91,299.87L676.02,299.89L677.17,299.89L677.28,298.05L677.96,299.89L678.08,299.84L678.19,299.87L683.11,299.92" style="vector-effect: non-scaling-stroke; fill: none; stroke: rgb(0, 0, 255); stroke-opacity: 1; stroke-width: 2px; opacity: 1;"/><path class="js-line" d="M688.93,300.24L720.82,300.25L720.93,275.32L721.84,299.97L721.96,300L724.47,299.94L724.59,299.51L725.84,299.87L725.96,299.9L745.16,300.25L745.27,299.15L745.73,300.24L745.84,276.26L746.07,292.94L746.18,16L746.98,296.51L747.1,296.51L747.56,297.38" style="vector-effect: non-scaling-stroke; fill: none; stroke: rgb(0, 0, 255); stroke-opacity: 1; stroke-width: 2px; opacity: 1;"/><path class="js-line" d="M771.89,300.2L773.04,299.61L773.15,297.56L773.27,299.37L773.61,297.25L773.95,299.19L774.07,299.4L774.29,297.43L774.52,300.06L774.64,300.04L776.47,300.21L776.58,300.19L779.78,300.18L779.89,300.19L784.81,299.96L784.92,234.41L785.72,299.45L785.84,299.54L787.44,298.94L787.55,297.52L787.89,298.18L788.24,297.47L788.35,296.86L788.46,293.95L789.04,295.99L789.15,296.15L789.72,295.54L789.84,224.38L790.64,292.67L790.75,292.88L791.78,294.84L791.89,295.16L794.52,295.68L794.63,295.78L794.98,295.73L795.09,292.35L795.21,169.9L795.78,286.75L795.89,288.88L796.92,293.61L797.15,293.52L797.26,293.61L798.75,295.2L798.86,295.01L798.98,294.88L799.89,293.76L800.01,295.08L800.58,295.97L800.81,295.84L800.92,295.69L801.49,295.55L801.61,295.98L801.72,296.26L802.18,296.06L802.29,290.66L803.21,294.98L803.32,294.21L803.43,289.39L804,294.02L804.12,294.21L804.58,294.34L804.69,290.46L805.26,291.18L805.72,154.04L805.83,260.42L806.75,289.68L806.86,290.1L807.32,291.11L807.43,292.69L808.69,294.63L808.8,294.61L809.83,293.97L809.95,293.76L810.52,293.46L810.63,290.19L811.2,291.88L811.43,284.5L811.55,288.2L812,293.34L812.46,292.71L812.58,293.03L814.86,299.02L814.97,298.86L815.09,299.15L815.32,298.86L815.66,299.61L815.77,299.44L815.89,299.57L817.03,299.85L817.15,299.9L819.09,300.09L819.2,295.42L819.55,295.03L820.12,300.24L820.23,300.24L824.34,299.75L824.46,299.44L825.26,299.79L825.37,299.66L825.6,299.77L825.72,298.83L826.63,299.73L826.74,299.75L830.52,299.78L830.63,298.51L830.74,298.93L830.86,295.99L831.2,299.73L831.77,299.7L831.89,299.71L835.54,299.76L835.66,298.61L835.77,297.23L836.11,299.75L836.23,299.73L836.34,299.71L838.86,299.8L838.97,298.99L839.89,299.86L840,299.83" style="vector-effect: non-scaling-stroke; fill: none; stroke: rgb(0, 0, 255); stroke-opacity: 1; stroke-width: 2px; opacity: 1;"/></g><g class="points"/><g class="text"/></g><g class="trace scatter tracecad994" style="stroke-miterlimit: 2; opacity: 1;"><g class="fills"/><g class="errorbars"/><g class="lines"/><g class="points"><path class="point" transform="translate(225.23,300.12)" d="M3,0A3,3 0 1,1 0,-3A3,3 0 0,1 3,0Z" style="opacity: 1; stroke-width: 0px; fill: rgb(255, 0, 0); fill-opacity: 1;"/><path class="point" transform="translate(266.14,299.56)" d="M3,0A3,3 0 1,1 0,-3A3,3 0 0,1 3,0Z" style="opacity: 1; stroke-width: 0px; fill: rgb(255, 0, 0); fill-opacity: 1;"/><path class="point" transform="translate(332.18,300.22)" d="M3,0A3,3 0 1,1 0,-3A3,3 0 0,1 3,0Z" style="opacity: 1; stroke-width: 0px; fill: rgb(255, 0, 0); fill-opacity: 1;"/><path class="point" transform="translate(359.15,300.25)" d="M3,0A3,3 0 1,1 0,-3A3,3 0 0,1 3,0Z" style="opacity: 1; stroke-width: 0px; fill: rgb(255, 0, 0); fill-opacity: 1;"/><path class="point" transform="translate(511.47,300.25)" d="M3,0A3,3 0 1,1 0,-3A3,3 0 0,1 3,0Z" style="opacity: 1; stroke-width: 0px; fill: rgb(255, 0, 0); fill-opacity: 1;"/><path class="point" transform="translate(528.84,300.25)" d="M3,0A3,3 0 1,1 0,-3A3,3 0 0,1 3,0Z" style="opacity: 1; stroke-width: 0px; fill: rgb(255, 0, 0); fill-opacity: 1;"/><path class="point" transform="translate(538.67,300.25)" d="M3,0A3,3 0 1,1 0,-3A3,3 0 0,1 3,0Z" style="opacity: 1; stroke-width: 0px; fill: rgb(255, 0, 0); fill-opacity: 1;"/><path class="point" transform="translate(577.86,229.87)" d="M3,0A3,3 0 1,1 0,-3A3,3 0 0,1 3,0Z" style="opacity: 1; stroke-width: 0px; fill: rgb(255, 0, 0); fill-opacity: 1;"/><path class="point" transform="translate(581.18,271.88)" d="M3,0A3,3 0 1,1 0,-3A3,3 0 0,1 3,0Z" style="opacity: 1; stroke-width: 0px; fill: rgb(255, 0, 0); fill-opacity: 1;"/></g><g class="text"/></g><g class="trace scatter trace1138dc" style="stroke-miterlimit: 2; opacity: 1;"><g class="fills"/><g class="errorbars"/><g class="lines"/><g class="points"><path class="point" transform="translate(225.23,300.12)" d="M3,0A3,3 0 1,1 0,-3A3,3 0 0,1 3,0Z" style="opacity: 1; stroke-width: 0px; fill: rgb(0, 0, 255); fill-opacity: 1;"/><path class="point" transform="translate(266.14,299.56)" d="M3,0A3,3 0 1,1 0,-3A3,3 0 0,1 3,0Z" style="opacity: 1; stroke-width: 0px; fill: rgb(0, 0, 255); fill-opacity: 1;"/><path class="point" transform="translate(332.18,300.22)" d="M3,0A3,3 0 1,1 0,-3A3,3 0 0,1 3,0Z" style="opacity: 1; stroke-width: 0px; fill: rgb(0, 0, 255); fill-opacity: 1;"/><path class="point" transform="translate(359.15,300.25)" d="M3,0A3,3 0 1,1 0,-3A3,3 0 0,1 3,0Z" style="opacity: 1; stroke-width: 0px; fill: rgb(0, 0, 255); fill-opacity: 1;"/><path class="point" transform="translate(511.47,300.25)" d="M3,0A3,3 0 1,1 0,-3A3,3 0 0,1 3,0Z" style="opacity: 1; stroke-width: 0px; fill: rgb(0, 0, 255); fill-opacity: 1;"/><path class="point" transform="translate(528.84,300.25)" d="M3,0A3,3 0 1,1 0,-3A3,3 0 0,1 3,0Z" style="opacity: 1; stroke-width: 0px; fill: rgb(0, 0, 255); fill-opacity: 1;"/><path class="point" transform="translate(538.67,300.25)" d="M3,0A3,3 0 1,1 0,-3A3,3 0 0,1 3,0Z" style="opacity: 1; stroke-width: 0px; fill: rgb(0, 0, 255); fill-opacity: 1;"/><path class="point" transform="translate(577.86,229.87)" d="M3,0A3,3 0 1,1 0,-3A3,3 0 0,1 3,0Z" style="opacity: 1; stroke-width: 0px; fill: rgb(0, 0, 255); fill-opacity: 1;"/><path class="point" transform="translate(581.18,271.88)" d="M3,0A3,3 0 1,1 0,-3A3,3 0 0,1 3,0Z" style="opacity: 1; stroke-width: 0px; fill: rgb(0, 0, 255); fill-opacity: 1;"/></g><g class="text"/></g></g></g><g class="overplot"/><path class="xlines-above crisp" d="M0,0" style="fill: none;"/><path class="ylines-above crisp" d="M0,0" style="fill: none;"/><g class="overlines-above"/><g class="xaxislayer-above"><g class="xtick"><text text-anchor="middle" x="0" y="433" transform="translate(246.95,0)" style="font-family: 'Open Sans', verdana, arial, sans-serif; font-size: 12px; fill: rgb(42, 63, 95); fill-opacity: 1; white-space: pre; opacity: 1;">2005</text></g><g class="xtick"><text text-anchor="middle" x="0" y="433" style="font-family: 'Open Sans', verdana, arial, sans-serif; font-size: 12px; fill: rgb(42, 63, 95); fill-opacity: 1; white-space: pre; opacity: 1;" transform="translate(455.61,0)">2010</text></g><g class="xtick"><text text-anchor="middle" x="0" y="433" style="font-family: 'Open Sans', verdana, arial, sans-serif; font-size: 12px; fill: rgb(42, 63, 95); fill-opacity: 1; white-space: pre; opacity: 1;" transform="translate(664.26,0)">2015</text></g><g class="xtick"><text text-anchor="middle" x="0" y="433" style="font-family: 'Open Sans', verdana, arial, sans-serif; font-size: 12px; fill: rgb(42, 63, 95); fill-opacity: 1; white-space: pre; opacity: 1;" transform="translate(872.92,0)">2020</text></g></g><g class="yaxislayer-above"><g class="ytick"><text text-anchor="end" x="79" y="4.199999999999999" transform="translate(0,400.25)" style="font-family: 'Open Sans', verdana, arial, sans-serif; font-size: 12px; fill: rgb(42, 63, 95); fill-opacity: 1; white-space: pre; opacity: 1;">0</text></g><g class="ytick"><text text-anchor="end" x="79" y="4.199999999999999" style="font-family: 'Open Sans', verdana, arial, sans-serif; font-size: 12px; fill: rgb(42, 63, 95); fill-opacity: 1; white-space: pre; opacity: 1;" transform="translate(0,326.99)">50</text></g><g class="ytick"><text text-anchor="end" x="79" y="4.199999999999999" style="font-family: 'Open Sans', verdana, arial, sans-serif; font-size: 12px; fill: rgb(42, 63, 95); fill-opacity: 1; white-space: pre; opacity: 1;" transform="translate(0,253.73)">100</text></g><g class="ytick"><text text-anchor="end" x="79" y="4.199999999999999" style="font-family: 'Open Sans', verdana, arial, sans-serif; font-size: 12px; fill: rgb(42, 63, 95); fill-opacity: 1; white-space: pre; opacity: 1;" transform="translate(0,180.47)">150</text></g><g class="ytick"><text text-anchor="end" x="79" y="4.199999999999999" style="font-family: 'Open Sans', verdana, arial, sans-serif; font-size: 12px; fill: rgb(42, 63, 95); fill-opacity: 1; white-space: pre; opacity: 1;" transform="translate(0,107.21)">200</text></g></g><g class="overaxes-above"/></g></g><g class="polarlayer"/><g class="smithlayer"/><g class="ternarylayer"/><g class="geolayer"/><g class="funnelarealayer"/><g class="pielayer"/><g class="iciclelayer"/><g class="treemaplayer"/><g class="sunburstlayer"/><g class="glimages"/><defs id="topdefs-7f5c0e"><g class="clips"/></defs><g class="layer-above"><g class="imagelayer"/><g class="shapelayer"/></g><g class="infolayer"><g class="g-gtitle"><text class="gtitle" x="50" y="50" text-anchor="start" dy="0em" style="font-family: 'Open Sans', verdana, arial, sans-serif; font-size: 17px; fill: rgb(42, 63, 95); opacity: 1; font-weight: normal; white-space: pre;">Aforament - Serra de Daró (riu Daró)--a65</text></g><g class="g-xtitle"><text class="xtitle" x="500" y="460.8" text-anchor="middle" style="font-family: 'Open Sans', verdana, arial, sans-serif; font-size: 14px; fill: rgb(42, 63, 95); opacity: 1; font-weight: normal; white-space: pre;">Data</text></g><g class="g-ytitle"><text class="ytitle" transform="rotate(-90,31.309375000000003,260)" x="31.309375000000003" y="260" text-anchor="middle" style="font-family: 'Open Sans', verdana, arial, sans-serif; font-size: 14px; fill: rgb(42, 63, 95); opacity: 1; font-weight: normal; white-space: pre;">Cabal (m3/s)</text></g></g></svg>