<svg class="main-svg" xmlns="http://www.w3.org/2000/svg" xmlns:xlink="http://www.w3.org/1999/xlink" width="1000" height="500" style="" viewBox="0 0 1000 500"><rect x="0" y="0" width="1000" height="500" style="fill: rgb(255, 255, 255); fill-opacity: 1;"/><defs id="defs-e13b5c"><g class="clips"><clipPath id="clipe13b5cxyplot" class="plotclip"><rect width="840" height="320"/></clipPath><clipPath class="axesclip" id="clipe13b5cx"><rect x="80" y="0" width="840" height="500"/></clipPath><clipPath class="axesclip" id="clipe13b5cy"><rect x="0" y="100" width="1000" height="320"/></clipPath><clipPath class="axesclip" id="clipe13b5cxy"><rect x="80" y="100" width="840" height="320"/></clipPath></g><g class="gradients"/><g class="patterns"/></defs><g class="bglayer"><rect class="bg" x="80" y="100" width="840" height="320" style="fill: rgb(229, 236, 246); fill-opacity: 1; stroke-width: 0;"/></g><g class="layer-below"><g class="imagelayer"/><g class="shapelayer"/></g><g class="cartesianlayer"><g class="subplot xy"><g class="layer-subplot"><g class="shapelayer"/><g class="imagelayer"/></g><g class="minor-gridlayer"><g class="x"/><g class="y"/></g><g class="gridlayer"><g class="x"><path class="xgrid crisp" transform="translate(246.95,0)" d="M0,100v320" style="stroke: rgb(255, 255, 255); stroke-opacity: 1; stroke-width: 1px;"/><path class="xgrid crisp" transform="translate(455.61,0)" d="M0,100v320" style="stroke: rgb(255, 255, 255); stroke-opacity: 1; stroke-width: 1px;"/><path class="xgrid crisp" transform="translate(664.26,0)" d="M0,100v320" style="stroke: rgb(255, 255, 255); stroke-opacity: 1; stroke-width: 1px;"/><path class="xgrid crisp" transform="translate(872.92,0)" d="M0,100v320" style="stroke: rgb(255, 255, 255); stroke-opacity: 1; stroke-width: 1px;"/></g><g class="y"><path class="ygrid crisp" transform="translate(0,363.37)" d="M80,0h840" style="stroke: rgb(255, 255, 255); stroke-opacity: 1; stroke-width: 1px;"/><path class="ygrid crisp" transform="translate(0,322.74)" d="M80,0h840" style="stroke: rgb(255, 255, 255); stroke-opacity: 1; stroke-width: 1px;"/><path class="ygrid crisp" transform="translate(0,282.12)" d="M80,0h840" style="stroke: rgb(255, 255, 255); stroke-opacity: 1; stroke-width: 1px;"/><path class="ygrid crisp" transform="translate(0,241.49)" d="M80,0h840" style="stroke: rgb(255, 255, 255); stroke-opacity: 1; stroke-width: 1px;"/><path class="ygrid crisp" transform="translate(0,200.86)" d="M80,0h840" style="stroke: rgb(255, 255, 255); stroke-opacity: 1; stroke-width: 1px;"/><path class="ygrid crisp" transform="translate(0,160.23)" d="M80,0h840" style="stroke: rgb(255, 255, 255); stroke-opacity: 1; stroke-width: 1px;"/><path class="ygrid crisp" transform="translate(0,119.6)" d="M80,0h840" style="stroke: rgb(255, 255, 255); stroke-opacity: 1; stroke-width: 1px;"/></g></g><g class="zerolinelayer"><path class="yzl zl crisp" transform="translate(0,404)" d="M80,0h840" style="stroke: rgb(255, 255, 255); stroke-opacity: 1; stroke-width: 2px;"/></g><path class="xlines-below"/><path class="ylines-below"/><g class="overlines-below"/><g class="xaxislayer-below"/><g class="yaxislayer-below"/><g class="overaxes-below"/><g class="plot" transform="translate(80,100)" clip-path="url(#clipe13b5cxyplot)"><g class="scatterlayer mlayer"><g class="trace scatter trace2c6906" style="stroke-miterlimit: 2; opacity: 1;"><g class="fills"/><g class="errorbars"/><g class="lines"><path class="js-line" d="M387.6,303.21L389.32,303.53L389.43,302.94L389.78,296L390.12,300.18L390.23,301.1L390.8,300.65L391.26,302.17L391.38,302.44L392.75,303.49L392.86,303.51L394.8,303.74L394.92,303.35L395.03,302.64L395.6,303.78L395.72,303.84L405.2,303.82L405.32,302.54L405.89,303.76L406.12,303.39L406.23,303.65L407.72,303.8L407.83,301.83L408.06,293.78L408.17,298.13L408.29,300.32L409.2,303.31L409.32,303.33L413.54,303.63L413.66,303.31L413.77,303.15L413.89,303.55L414.23,303.63L414.34,303.65L416.17,303.61L416.29,302.54L417.2,303.53L417.31,303.49L417.43,303.55L420.4,303.49L420.51,302.19L421.43,303.51L421.54,303.49L424.4,303.53L424.51,303.47L425.2,303.63L425.31,293.03L425.54,293.9L425.66,279.01L425.77,285.31L425.88,296.44L426.8,301.95L426.91,302.09L429.43,303.31L429.54,303.37L429.77,303.39L429.88,300.91L430,299.77L430.46,302.5L430.57,302.74L430.8,300.55L431.26,302.31L431.37,302.35L432.28,303.29L432.4,302.88L432.63,296.54L433.08,301.46L433.2,301.79L434.34,303.33L434.46,302.19L434.8,303.11L434.91,298.6L435.03,296.16L435.6,299.19L435.71,299.69L436.85,302.98L436.97,303.15L440.85,303.07L440.97,300.47L441.88,303.45L442,303.53L443.14,303.61L443.25,302.48L443.48,302.74L443.83,301.97L443.94,302.68L444.05,302.72L444.51,302.42L444.97,303.78L445.08,303.76L446.57,303.39L446.68,303.23L447.6,303.47L447.71,303.39L447.82,303.19L448.4,303.65L448.51,303.63L449.77,303.84L449.88,303.88L451.37,303.7L451.48,301.95L451.6,301.38L451.82,303.39L451.94,303.51L452.17,303.59L452.28,302.9L452.4,299.9L452.62,297.52L452.97,301.83L453.08,302.42L453.31,302.94L453.54,302.72L453.65,293.27L453.77,283.52L454.11,299.33L454.34,297.44L454.45,291.79L455.48,301.87L455.6,301.99L456.97,302.9L457.08,302.94L472.39,303.59L472.51,303.61L473.42,303.65" style="vector-effect: non-scaling-stroke; fill: none; stroke: rgb(255, 0, 0); stroke-opacity: 1; stroke-width: 2px; opacity: 1;"/><path class="js-line" d="M477.08,303.37L478.11,303.72L478.22,302.46L478.56,299.91L478.91,301.43L479.02,302.14L479.93,299.06L480.05,300.46L480.16,303.63L480.39,303.63" style="vector-effect: non-scaling-stroke; fill: none; stroke: rgb(255, 0, 0); stroke-opacity: 1; stroke-width: 2px; opacity: 1;"/><path class="js-line" d="M481.88,303.98L489.99,303.96L490.1,302.86L491.02,303.84L491.13,303.8L491.25,303.8L493.65,303.53L493.76,299L494.79,303.41L494.9,303.41L496.62,303.47L496.73,303.47L496.96,302.7L497.53,303.35L497.65,303.35L507.47,303.65L507.59,302.46L507.93,303.29L508.05,284.14L508.16,108.2L508.73,298.28" style="vector-effect: non-scaling-stroke; fill: none; stroke: rgb(255, 0, 0); stroke-opacity: 1; stroke-width: 2px; opacity: 1;"/><path class="js-line" d="M508.96,299.45L509.19,300.36L509.76,300.21L509.87,300.13L511.02,299.5L511.13,299.4L511.82,294.09L511.93,296L512.04,296.96L512.39,299.02L512.96,298.5L513.07,298.51L513.3,298.96L513.64,298.31L513.76,298.06L513.99,300.34L514.33,299.09L514.44,295.34L514.67,293.22L515.36,299.28L515.82,298.52L515.93,298.41L516.39,300.19L516.5,298.34L516.73,291L516.96,296.42L517.07,297.55L517.99,300.16L518.22,299.89L518.33,299.62L518.79,298.68L518.9,299.4L519.02,300.66L520.04,298.33L520.16,298.77L520.39,298.63L520.5,300.8L520.84,299.21L521.41,299.41L521.53,299.19L522.1,300.13L522.21,300.96L522.56,300.72L522.79,301L522.9,300.81L523.01,300.77L523.36,300.84L523.47,302.63L523.59,303.21L524.16,302.34L524.27,301.6L525.64,300.08L525.76,300.15L526.44,300.39L526.56,302.33L527.13,300.66L527.47,300.74L527.59,300.51L527.81,301.32L528.27,300.89L528.39,300.14L529.07,299.42L529.19,299.55L529.3,299.85L529.41,302.65L529.99,300.45L530.1,300.11L531.24,299.03L531.36,299.16L532.27,299.13L532.38,300.89L532.5,302.29L533.07,300.21L533.18,300.32L533.3,300.49" style="vector-effect: non-scaling-stroke; fill: none; stroke: rgb(255, 0, 0); stroke-opacity: 1; stroke-width: 2px; opacity: 1;"/><path class="js-line" d="M533.53,299.35L534.67,297.9L534.78,297.97L534.9,298.18L535.36,298.7L535.58,297.97L535.7,297.98L535.93,297.82L536.38,298.19L536.5,298.21L536.84,298.46L536.96,297.8L537.07,297.58L537.3,297.43L537.41,300.15L537.53,281.53L538.1,297.26L538.21,296.38L538.56,294.96L539.13,295.28L539.24,295.4L540.16,294.13L540.27,294.84L541.07,291.76L541.18,297.5L541.75,289.69L542.1,290.15L542.21,291.17L542.9,286.44L543.01,293.5L543.47,287.04L543.81,287.85L543.93,287.53L544.15,288.72L544.38,285.72L544.5,286.32L544.61,297.57L545.75,283.07L545.87,287.85L546.1,286.84L546.21,288.64L546.33,283.13L546.44,283.37L546.55,280.29L547.01,276.64L547.13,285.02L547.7,273.9L547.81,278.83L547.93,290.32L548.95,270.04L549.07,282.02L549.64,276.38L549.87,276.86L549.98,275.51L550.21,268.64L550.67,273.52L550.78,274.66L551.01,266.5L551.13,267.57L551.24,303.8L552.61,303.13L552.72,302.37L552.95,303.11L553.07,302.84L553.18,298.58L554.21,302.9L554.32,302.98L555.58,302.96L555.7,302.86L557.18,303.41L557.3,303.33L559.01,303.43L559.12,303.02L559.47,302.03L559.81,302.92L559.92,303.07L561.3,303.39L561.41,301.38L562.21,303.23L562.32,303.29L562.67,303.35L562.78,302.52L563.69,303.47L563.81,303.53L564.04,302.56L564.49,303.35L564.61,303.33L567.24,303.41L567.35,303.49L568.15,303.55L568.27,303.61L568.84,303.9L569.07,303.45L569.18,303.05L569.29,298.54L569.87,303.31L569.98,303.35L570.78,302.96L570.89,301.22L571.81,303.31L571.92,301.48L572.72,303.8L572.84,303.23L572.95,303.13L573.41,303.09L573.52,290.33L574.09,302.25L574.32,300.42L574.44,301.4L575.24,303.35L575.35,303.47L576.61,303.76L576.72,303.72L580.38,303.68L580.49,298.52L580.72,267.86L581.18,300.26L581.29,301.3L582.21,302.7L582.32,301.07L582.44,299.61L582.89,302.78L583.01,302.94L585.18,303.57L585.29,303.57L593.18,303.47L593.29,289.19L593.4,287.12L593.52,296.71L593.63,297.8L593.75,297.64L593.86,297.95L593.98,298.88L595.23,303.17L595.35,303.23L600.03,303.84L600.15,302.96L601.29,303.88L601.4,303.92L607.35,304L607.46,304L615.34,303.78L615.46,303.02L616.26,303.96L616.37,303.96L619.12,303.65L619.23,298.01L620.14,303.78L620.26,303.8L625.51,303.96L625.63,303.94L626.89,303.76L627,303.76L631,303.71L631.11,302.99L632.26,303.8L632.37,303.8L632.6,302.76L633.17,303.4L633.29,303.45L636.03,303.57L636.14,303.71L636.71,303.51L636.83,301.72L636.94,301.42L637.28,302.52L637.4,302.76L638.54,303.57L638.66,302.84L639,302.26L639.68,303.27L639.8,302.99L640.48,303.51L640.6,303.34L640.71,303.13L641.28,302.44L641.51,302.92L641.63,303.06L642.31,303.4L642.43,303.51L643.68,303.57L643.8,302.92L644.71,303.84L644.83,303.84L649.97,303.99L650.08,303.99L652.14,303.36L652.25,303.02L653.17,303.99L653.28,303.99L658.54,303.92L658.65,302.81L658.77,302.25L659.11,303.78L659.22,303.8L663.34,303.72L663.45,303.15L663.68,303.72L663.8,301.52L664.25,303.55L664.37,303.63L665.85,303.72L665.97,303.46L666.08,302.22L666.65,303.25L666.77,303.36L669.17,303.64L669.28,303.64L696.48,303.5L696.59,303.2L697.05,303.95L697.39,303.78L697.51,303.82L700.93,303.98L701.05,302.09L702.08,303.89L702.19,303.85L711.1,303.71L711.22,303.84L713.5,303.53L713.62,298.41L714.53,303.46L714.65,303.48L716.25,302.88L716.36,301.1L717.39,303.54L717.5,303.48L718.76,303.69L718.87,303.32L718.99,302.17L719.56,303.46L719.67,303.43L720.47,303.69L720.59,303.26L720.7,302.45L720.82,303.03L720.93,277.55L721.73,301.1L721.84,301.74L722.87,303.31L722.99,303.07L723.1,302.96L723.56,303.46L723.67,303.47L724.02,303.24L724.13,302.4L724.24,301.89L724.47,302.48L724.59,296.81L725.96,302.74L726.07,302.83L726.87,303.24L726.99,300.42L727.44,298.57L727.67,300.76L727.79,301.62L728.93,303.48L729.04,303.52L732.59,303.81L732.7,303.74L732.93,303.22L733.39,303.84L733.5,303.85L734.64,303.86L734.76,303.38L735.44,303.93L735.56,303.21L736.59,303.84L736.7,303.85L737.04,302.95L737.16,299.8L737.84,303.63L737.96,302.82L738.07,303.42L739.33,303.81L739.44,303.84L741.61,303.84L741.73,300.42L742.07,303.53L742.18,302.27L742.3,285.04L742.53,295.33L742.64,279.04L743.56,301.86L743.67,301.03L744.01,301.39L744.13,298.54L744.24,292L744.7,299.86L745.04,299.07L745.16,292.88L745.73,300.03L745.84,265.79L745.96,264.96L746.07,294.49L746.3,278.03L746.76,298.77L746.87,299.49L747.1,300.49L747.21,301.36L749.04,303.05L749.16,302.6L750.07,303.15L750.18,303.22L754.07,303.38L754.18,303.46L755.1,303.21L755.21,303.44L756.93,303.48L757.04,303.33L757.95,303.44L758.07,303.44L760.47,303.6L760.58,303.61L762.41,303.27L762.52,302.95L763.55,303.56L763.67,303.58L764.58,303.57L764.7,303.59L765.04,303.66L765.15,302.98L765.27,302.86L766.18,303.58L766.3,303.61L769.61,303.62L769.72,303.29L770.64,303.86L770.75,303.86L779.89,303.91L780.01,303.11L780.92,303.92L781.04,303.73L781.15,303.53L781.27,302.53L781.72,303.75L781.84,303.75L781.95,303.78L784.46,303.89L784.58,302.95L784.69,303.37L784.81,303.06L784.92,295.68L785.72,303.55L785.84,303.57L787.89,303.69L788.01,303.67L789.61,303.7L789.72,299.84L789.84,283.75L790.41,302.26L790.52,302.57L791.44,303.38L791.55,303.27L791.66,303.34L795.09,303.57L795.21,268.6L795.32,16L795.89,299.26L796.01,299.46L796.12,298.85L796.46,301.06L796.58,301.24L797.72,302.67L797.83,302.61" style="vector-effect: non-scaling-stroke; fill: none; stroke: rgb(255, 0, 0); stroke-opacity: 1; stroke-width: 2px; opacity: 1;"/><path class="js-line" d="M813.6,304L815.09,303.3L815.2,303.09L817.26,303.68L817.37,303.69L817.49,292.44L818.06,303.69L818.17,303.63L820.35,303.75L820.46,303.37L820.92,303.34L821.15,303.62L821.26,303.66L822.86,303.65L822.97,303.67L823.2,303.2L823.77,303.57L823.89,303.54L825.6,303.58L825.72,303.49L825.83,303.27L826.4,303.58L826.52,303.57L830.63,302.82L830.74,301.62L830.86,295.42L831.43,302.72L831.54,302.83L833.03,303.58L833.14,302.88L834.63,303.46L834.74,303.46L840,303.24" style="vector-effect: non-scaling-stroke; fill: none; stroke: rgb(255, 0, 0); stroke-opacity: 1; stroke-width: 2px; opacity: 1;"/></g><g class="points"/><g class="text"/></g></g></g><g class="overplot"/><path class="xlines-above crisp" d="M0,0" style="fill: none;"/><path class="ylines-above crisp" d="M0,0" style="fill: none;"/><g class="overlines-above"/><g class="xaxislayer-above"><g class="xtick"><text text-anchor="middle" x="0" y="433" transform="translate(246.95,0)" style="font-family: 'Open Sans', verdana, arial, sans-serif; font-size: 12px; fill: rgb(42, 63, 95); fill-opacity: 1; white-space: pre; opacity: 1;">2005</text></g><g class="xtick"><text text-anchor="middle" x="0" y="433" style="font-family: 'Open Sans', verdana, arial, sans-serif; font-size: 12px; fill: rgb(42, 63, 95); fill-opacity: 1; white-space: pre; opacity: 1;" transform="translate(455.61,0)">2010</text></g><g class="xtick"><text text-anchor="middle" x="0" y="433" style="font-family: 'Open Sans', verdana, arial, sans-serif; font-size: 12px; fill: rgb(42, 63, 95); fill-opacity: 1; white-space: pre; opacity: 1;" transform="translate(664.26,0)">2015</text></g><g class="xtick"><text text-anchor="middle" x="0" y="433" style="font-family: 'Open Sans', verdana, arial, sans-serif; font-size: 12px; fill: rgb(42, 63, 95); fill-opacity: 1; white-space: pre; opacity: 1;" transform="translate(872.92,0)">2020</text></g></g><g class="yaxislayer-above"><g class="ytick"><text text-anchor="end" x="79" y="4.199999999999999" transform="translate(0,404)" style="font-family: 'Open Sans', verdana, arial, sans-serif; font-size: 12px; fill: rgb(42, 63, 95); fill-opacity: 1; white-space: pre; opacity: 1;">0</text></g><g class="ytick"><text text-anchor="end" x="79" y="4.199999999999999" style="font-family: 'Open Sans', verdana, arial, sans-serif; font-size: 12px; fill: rgb(42, 63, 95); fill-opacity: 1; white-space: pre; opacity: 1;" transform="translate(0,363.37)">20</text></g><g class="ytick"><text text-anchor="end" x="79" y="4.199999999999999" style="font-family: 'Open Sans', verdana, arial, sans-serif; font-size: 12px; fill: rgb(42, 63, 95); fill-opacity: 1; white-space: pre; opacity: 1;" transform="translate(0,322.74)">40</text></g><g class="ytick"><text text-anchor="end" x="79" y="4.199999999999999" style="font-family: 'Open Sans', verdana, arial, sans-serif; font-size: 12px; fill: rgb(42, 63, 95); fill-opacity: 1; white-space: pre; opacity: 1;" transform="translate(0,282.12)">60</text></g><g class="ytick"><text text-anchor="end" x="79" y="4.199999999999999" style="font-family: 'Open Sans', verdana, arial, sans-serif; font-size: 12px; fill: rgb(42, 63, 95); fill-opacity: 1; white-space: pre; opacity: 1;" transform="translate(0,241.49)">80</text></g><g class="ytick"><text text-anchor="end" x="79" y="4.199999999999999" style="font-family: 'Open Sans', verdana, arial, sans-serif; font-size: 12px; fill: rgb(42, 63, 95); fill-opacity: 1; white-space: pre; opacity: 1;" transform="translate(0,200.86)">100</text></g><g class="ytick"><text text-anchor="end" x="79" y="4.199999999999999" style="font-family: 'Open Sans', verdana, arial, sans-serif; font-size: 12px; fill: rgb(42, 63, 95); fill-opacity: 1; white-space: pre; opacity: 1;" transform="translate(0,160.23)">120</text></g><g class="ytick"><text text-anchor="end" x="79" y="4.199999999999999" style="font-family: 'Open Sans', verdana, arial, sans-serif; font-size: 12px; fill: rgb(42, 63, 95); fill-opacity: 1; white-space: pre; opacity: 1;" transform="translate(0,119.6)">140</text></g></g><g class="overaxes-above"/></g></g><g class="polarlayer"/><g class="smithlayer"/><g class="ternarylayer"/><g class="geolayer"/><g class="funnelarealayer"/><g class="pielayer"/><g class="iciclelayer"/><g class="treemaplayer"/><g class="sunburstlayer"/><g class="glimages"/><defs id="topdefs-e13b5c"><g class="clips"/></defs><g class="layer-above"><g class="imagelayer"/><g class="shapelayer"/></g><g class="infolayer"><g class="g-gtitle"><text class="gtitle" x="50" y="50" text-anchor="start" dy="0em" style="font-family: 'Open Sans', verdana, arial, sans-serif; font-size: 17px; fill: rgb(42, 63, 95); opacity: 1; font-weight: normal; white-space: pre;">Aforament - Anglès (riera d'Osor)--a02.csv</text></g><g class="g-xtitle"><text class="xtitle" x="500" y="460.8" text-anchor="middle" style="font-family: 'Open Sans', verdana, arial, sans-serif; font-size: 14px; fill: rgb(42, 63, 95); opacity: 1; font-weight: normal; white-space: pre;">Data</text></g><g class="g-ytitle"><text class="ytitle" transform="rotate(-90,31.309375000000003,260)" x="31.309375000000003" y="260" text-anchor="middle" style="font-family: 'Open Sans', verdana, arial, sans-serif; font-size: 14px; fill: rgb(42, 63, 95); opacity: 1; font-weight: normal; white-space: pre;">Cabal (m3/s)</text></g></g></svg>