<svg class="main-svg" xmlns="http://www.w3.org/2000/svg" xmlns:xlink="http://www.w3.org/1999/xlink" width="1000" height="500" style="" viewBox="0 0 1000 500"><rect x="0" y="0" width="1000" height="500" style="fill: rgb(255, 255, 255); fill-opacity: 1;"/><defs id="defs-8a8ff5"><g class="clips"><clipPath id="clip8a8ff5xyplot" class="plotclip"><rect width="840" height="320"/></clipPath><clipPath class="axesclip" id="clip8a8ff5x"><rect x="80" y="0" width="840" height="500"/></clipPath><clipPath class="axesclip" id="clip8a8ff5y"><rect x="0" y="100" width="1000" height="320"/></clipPath><clipPath class="axesclip" id="clip8a8ff5xy"><rect x="80" y="100" width="840" height="320"/></clipPath></g><g class="gradients"/><g class="patterns"/></defs><g class="bglayer"><rect class="bg" x="80" y="100" width="840" height="320" style="fill: rgb(229, 236, 246); fill-opacity: 1; stroke-width: 0;"/></g><g class="layer-below"><g class="imagelayer"/><g class="shapelayer"/></g><g class="cartesianlayer"><g class="subplot xy"><g class="layer-subplot"><g class="shapelayer"/><g class="imagelayer"/></g><g class="minor-gridlayer"><g class="x"/><g class="y"/></g><g class="gridlayer"><g class="x"><path class="xgrid crisp" transform="translate(246.95,0)" d="M0,100v320" style="stroke: rgb(255, 255, 255); stroke-opacity: 1; stroke-width: 1px;"/><path class="xgrid crisp" transform="translate(455.61,0)" d="M0,100v320" style="stroke: rgb(255, 255, 255); stroke-opacity: 1; stroke-width: 1px;"/><path class="xgrid crisp" transform="translate(664.26,0)" d="M0,100v320" style="stroke: rgb(255, 255, 255); stroke-opacity: 1; stroke-width: 1px;"/><path class="xgrid crisp" transform="translate(872.92,0)" d="M0,100v320" style="stroke: rgb(255, 255, 255); stroke-opacity: 1; stroke-width: 1px;"/></g><g class="y"><path class="ygrid crisp" transform="translate(0,346.63)" d="M80,0h840" style="stroke: rgb(255, 255, 255); stroke-opacity: 1; stroke-width: 1px;"/><path class="ygrid crisp" transform="translate(0,289.27)" d="M80,0h840" style="stroke: rgb(255, 255, 255); stroke-opacity: 1; stroke-width: 1px;"/><path class="ygrid crisp" transform="translate(0,231.9)" d="M80,0h840" style="stroke: rgb(255, 255, 255); stroke-opacity: 1; stroke-width: 1px;"/><path class="ygrid crisp" transform="translate(0,174.53)" d="M80,0h840" style="stroke: rgb(255, 255, 255); stroke-opacity: 1; stroke-width: 1px;"/><path class="ygrid crisp" transform="translate(0,117.17)" d="M80,0h840" style="stroke: rgb(255, 255, 255); stroke-opacity: 1; stroke-width: 1px;"/></g></g><g class="zerolinelayer"><path class="yzl zl crisp" transform="translate(0,404)" d="M80,0h840" style="stroke: rgb(255, 255, 255); stroke-opacity: 1; stroke-width: 2px;"/></g><path class="xlines-below"/><path class="ylines-below"/><g class="overlines-below"/><g class="xaxislayer-below"/><g class="yaxislayer-below"/><g class="overaxes-below"/><g class="plot" transform="translate(80,100)" clip-path="url(#clip8a8ff5xyplot)"><g class="scatterlayer mlayer"><g class="trace scatter trace8d1f66" style="stroke-miterlimit: 2; opacity: 1;"><g class="fills"/><g class="errorbars"/><g class="lines"><path class="js-line" d="M0,304L1.49,304L1.6,296.06L1.71,217.67L1.94,304L2.29,304L2.4,304L28.68,303.27L28.8,302.7L29.37,301.74L29.48,303.98L29.6,303.52L29.71,304L30.17,304L30.28,297.66L31.08,304L31.2,304L33.48,303.63L33.6,303.16L33.94,302.58L34.05,303.25L34.17,302.76L34.28,302.42L35.31,304L35.42,304L36.22,304L36.34,264.84L36.45,250.7L36.68,304L36.79,304L45.82,304L45.94,299.63L46.74,304L46.85,304L52.11,304L52.22,288.61L52.34,190.91L52.56,301.33L52.91,286.78L53.02,255.85L53.14,178.87L53.59,294.31L53.71,301.26L54.51,304L54.62,304L55.99,304L56.11,296.45L56.22,69.45L56.79,288.99L56.91,301.97L57.71,304L57.82,304L57.93,300.19L58.51,304L58.62,304L59.31,304L59.42,288.99L60.22,304L60.33,304L73.7,304L73.82,236.36L74.73,304L74.85,304L77.93,304L78.05,303.11L78.85,304L78.96,304L79.19,296.09L79.65,304L79.76,304L80.79,304L80.9,273.1L81.02,210.86L81.36,304L81.59,304L81.7,304L83.87,304L83.99,208.89L84.9,304L85.02,304L89.02,303.94L89.13,244L89.59,300.64L89.7,299.09L89.82,187.91L90.96,304L91.07,304L93.36,304L93.47,295.25L93.59,281.68L93.82,304L94.04,304L94.16,304L94.62,304L94.73,274.06L95.53,304L95.64,304L105.59,303.99L105.7,302.8L106.5,303.94L106.61,303.67L106.84,302.53L107.3,303.87L107.41,302.7L107.53,301.08L107.87,302.82L108.21,301.97L108.33,300.7L109.01,303.63L109.13,298.77L109.24,297.31L109.36,302.62L109.7,300.25L109.81,301.02L110.04,298.16L110.16,302.99L110.5,300.67L110.61,301.02L110.73,300.49L110.84,302.56L110.96,298.08L111.07,299.73L111.53,296.98L111.64,289.86L111.98,294.43L112.33,291.03L112.44,288.82L112.56,290.07L113.01,288.05L113.13,284.82L113.47,282.48L113.58,280.59L113.93,277.16L114.38,299.6L114.5,289.06L114.96,279.75L115.07,301.75L115.87,304L115.98,300.42L116.33,304L116.44,157.24L117.36,304L117.58,303.79L117.7,304L117.93,304L118.04,292.36L118.96,304L119.07,304L121.7,304L121.81,285.9L121.93,190.2L122.5,294.13L122.61,296.33L123.53,304L123.64,304" style="vector-effect: non-scaling-stroke; fill: none; stroke: rgb(255, 0, 0); stroke-opacity: 1; stroke-width: 2px; opacity: 1;"/><path class="js-line" d="M123.98,304L130.73,304L130.84,299.66L131.18,304L131.52,251.62L131.64,277.48L131.75,301.15L132.55,304L132.67,304L135.07,304L135.18,302.32L135.3,173.72L135.75,304L135.87,304L135.98,304L137.12,304L137.24,115.25L138.27,304L138.38,304L138.61,303.98L138.72,236.25L139.07,299.92L139.18,281.32L139.3,225.99L139.98,301.56L140.1,287.68L140.21,255.41L141.12,304L141.24,304L157.01,304" style="vector-effect: non-scaling-stroke; fill: none; stroke: rgb(255, 0, 0); stroke-opacity: 1; stroke-width: 2px; opacity: 1;"/><path class="js-line" d="M157.24,304L164.09,303.6L164.21,302.64L164.32,289.21L164.55,304L164.89,304L165.01,304L171.06,304L171.18,302.47L171.29,241.55L171.75,304L171.86,304L171.98,303.99L174.15,304L174.26,234.63L175.06,304L175.18,304L184.2,303.76L184.32,303.17L184.43,303.47L184.55,303.08L184.66,303.27L184.77,300.07L184.89,302.53L185.12,299.5L185.23,299.52L185.35,294.12L187.52,237.97L187.63,275.97L188.43,304L188.55,304L193.23,303.99L193.35,302.37L193.46,297.86L193.57,304L194.03,304L194.15,303.8L194.6,303.44L194.72,303.01L195.06,301.45L195.17,302.47L195.29,303.71L195.4,300.91L195.52,250.04L195.86,303.97L196.32,294.98L196.43,302.82L196.77,297.39L197.23,299.58L197.34,300.85L197.57,279.43L197.8,304L198.03,303.88L198.14,303.33L198.26,302.69L198.6,303.99L198.72,303.98L198.83,303.88L198.94,301.48L199.29,304L199.4,237.32L199.52,16L200.09,285.49L200.2,295.92L201,304L201.12,304L202.49,304L202.6,294.18L202.94,304L203.06,298.25L203.17,260.59L203.29,193.37L203.74,304L203.86,304L211.51,303.43L211.63,302.41L211.86,211.5L212.31,287.82L212.43,291.15L213.46,299.68L213.57,299.62L214.83,302.1L214.94,302.35L215.06,301.01L215.63,302.76L215.74,302.36L215.86,299.09L216.43,302.66L216.54,303.09L217.11,303.48L217.23,303.15L217.34,302.79L217.68,303.02L217.91,300.1L218.03,302.3L218.14,303.35L218.26,303.19L218.71,303.68L218.83,303.75L220.88,303.86L221,303.87L222.14,303.91L222.26,304L223.97,303.96L224.08,303.99L230.03,303.68L230.14,302.92L230.48,303.4L231.05,301.88L231.17,302.58L231.28,300.22L231.74,300.67L232.08,297.22L232.31,298.23L232.43,299.55L232.88,295.57L233.11,297.14L233.23,300.57L234.03,295.47L234.14,296.25L234.25,296.32L234.48,285.66L234.71,298.77L234.83,301.2L235.74,296.53L235.85,297.76L237,289.33L237.11,291.27L237.34,303.55L237.91,298.41L238.02,295.62L238.82,301.09L238.94,298.76L239.05,296.48L239.28,299.99L239.51,299.04L239.62,300.77L239.74,297.94L240.2,301.9L240.31,301.27L240.42,300.41L240.54,301.46L240.77,297.22L241,299.13L241.11,297.84L241.45,301.74L241.68,300.9L241.8,281.82L241.91,279.36L242.02,296.94L242.82,304L242.94,304L247.28,303.99L247.39,303.03L248.19,304L248.31,304L248.42,303.56L248.99,304L249.11,304L255.62,304L255.74,299.33L255.97,295.09L256.31,303.36L256.42,303.79L256.54,303.89L256.65,302.26L257.56,304L257.68,304L257.91,303L258.36,304L258.48,304L259.05,304L259.16,302.64L260.08,304L260.19,304L260.76,303.96L260.88,291.63L261.56,303.41L261.91,300.03L262.02,279.72L262.14,269.86L262.48,296.74L262.59,299.52L263.62,304L263.74,304L263.85,300.75L264.42,303.93L264.54,303.99L266.82,304L266.94,302.45L267.05,299.5L267.28,304L267.62,304L267.74,304L267.96,302.48L268.42,304L268.53,304L272.53,304" style="vector-effect: non-scaling-stroke; fill: none; stroke: rgb(255, 0, 0); stroke-opacity: 1; stroke-width: 2px; opacity: 1;"/><path class="js-line" d="M276.99,303.69L277.91,304L278.02,304L280.42,303.99L280.53,302.43L281.45,303.97L281.56,304L282.59,303.87L282.7,301.55L283.16,304L283.5,303.97L283.62,304L287.96,304L288.08,304" style="vector-effect: non-scaling-stroke; fill: none; stroke: rgb(255, 0, 0); stroke-opacity: 1; stroke-width: 2px; opacity: 1;"/><path class="js-line" d="M288.76,304L290.82,304L290.93,302.15L291.05,301.71L291.16,304L291.27,304L292.3,303.49L292.42,302.88L293.1,304" style="vector-effect: non-scaling-stroke; fill: none; stroke: rgb(255, 0, 0); stroke-opacity: 1; stroke-width: 2px; opacity: 1;"/><path class="js-line" d="M293.33,303.81L294.25,304L294.36,304L295.85,303.82L295.96,299.11L296.76,304L296.87,304L297.67,303.96L297.79,302.59" style="vector-effect: non-scaling-stroke; fill: none; stroke: rgb(255, 0, 0); stroke-opacity: 1; stroke-width: 2px; opacity: 1;"/><path class="js-line" d="M298.02,304L298.47,304" style="vector-effect: non-scaling-stroke; fill: none; stroke: rgb(255, 0, 0); stroke-opacity: 1; stroke-width: 2px; opacity: 1;"/><path class="js-line" d="M298.7,303.49L299.16,303.44L299.27,302.29L299.62,303.3L299.73,303.11L299.84,301.56L299.96,300.56L300.19,303.37L300.3,303.29L300.42,303.33L300.87,303.2L300.99,302.54L301.22,302.04L301.33,297.8L301.44,296.27L301.67,302.42L301.79,301.5L301.9,301.28L302.13,302.54L302.24,302.18L302.36,294.65L303.16,301.91L303.27,303.04L303.73,302.33L303.84,303.22L304.42,297.85L304.53,299.96L304.64,302.19L304.76,301.09L304.99,304L305.1,304L305.22,304L306.82,303.65L306.93,300.41L307.04,289.45L307.62,303.78L307.73,303.93L308.53,304L308.64,300.86L308.87,297.88L309.33,304L309.44,296.09L310.36,304L310.47,304L310.7,304L310.81,299.97L311.16,304L311.27,280.24L311.39,292.75L311.5,302.02L312.3,304L312.41,303.43L313.21,304L313.33,304L314.13,303.84L314.24,302.15L315.04,304L315.16,304L326.47,303.27L326.58,301.81L326.81,303.88L326.93,296.63L327.04,283.28L328.07,304L328.18,303.48L329.21,304L329.33,303.99L330.13,303.58L330.36,303.95L330.47,303.99L331.15,304L331.27,302.42L331.73,303.89L331.84,301.39L333.1,303.87L333.21,293.81L333.33,277.69L333.9,294.26L334.01,296.39L334.7,301.48L334.81,301.3L334.93,291.99L335.04,288.96L335.38,296.78L335.5,297.96L336.64,301.91L336.75,300.75L336.87,301.85L337.21,301.71L337.33,298.03L337.67,259.39L338.01,289.43L338.13,291.21L339.61,297.39L339.73,297.51L340.87,298.48L340.98,298.1L341.1,297.16L341.55,299.24L341.67,299.24L343.61,299.83L343.72,299.07L343.95,299.4L344.18,292.74L344.3,296.41L344.41,297.74L344.75,298.99L344.87,298.46L344.98,294.4L345.78,297.81L345.9,296.92L346.12,294.12L346.58,297.8L346.7,298.35L347.5,299.6L347.61,297.2L348.41,300.67L348.52,300.66L348.64,300.69L348.98,300.44L349.1,293.9L349.21,292.12L349.44,298.86L349.55,299.19L350.35,300.32L350.47,299.12L351.38,300.25L351.5,300.24L351.72,297.87L351.84,300.39L353.09,301.44L353.21,301.29L353.32,300.22L353.78,301.9L353.89,301.67L354.01,301.95L354.92,302.92L355.04,302.96L355.27,301.22L355.72,302L355.84,302.66L356.29,301.24L356.75,302L356.87,301.64L357.09,301.25L357.21,301.54L357.32,302.86L357.44,303.13L357.55,302.02L357.67,302.15L357.78,301.82L358.12,302.4L358.24,300.25L359.04,303.35L359.15,302.14L359.27,301.83L359.38,302.96" style="vector-effect: non-scaling-stroke; fill: none; stroke: rgb(255, 0, 0); stroke-opacity: 1; stroke-width: 2px; opacity: 1;"/><path class="js-line" d="M359.61,303.25L359.95,302.22L360.18,303.54L360.29,302.72L360.41,303.1L360.52,303.32L360.87,302.54L360.98,302.87L361.09,302.65L362.01,301.9L362.12,301.95L363.15,301.22L363.26,299.08L363.49,301.29L363.61,298.2L364.06,300.65L364.18,300.97L366.92,300.88L367.04,301.12L367.15,300.94L367.26,298.75L367.49,294.05L367.72,299.67L367.84,300.27L368.98,299.8L369.09,298.43L369.55,301.07L370.01,300.07L370.12,300.05L370.58,299.77L371.04,300.13L371.15,300.11" style="vector-effect: non-scaling-stroke; fill: none; stroke: rgb(255, 0, 0); stroke-opacity: 1; stroke-width: 2px; opacity: 1;"/><path class="js-line" d="M371.38,299.95L371.84,299.7L371.95,298.47L372.64,300.06L372.75,299.89L372.86,299.9L374.35,299.5L374.46,298.62L374.58,297.95L374.92,299.72L375.03,299.11L375.15,299.6L375.49,299.11L375.61,299.52L375.72,299.96L375.95,299.68L376.06,296.41L376.41,294.04L376.63,299.12L376.86,298.9L376.98,297.96L377.09,297.4L377.43,298.88L377.55,299.07L377.89,298.47L378.35,298.94L378.46,299.19L379.49,298.6L379.61,297.23L379.83,299.01L379.95,295.03L380.06,252.22L380.75,296.55L380.98,287.97L381.09,292.81L381.21,273.7L381.78,296.02L381.89,296L382.01,295.47L382.46,296.82L382.58,290.42L383.03,292.99L383.38,272.14L383.49,273.47L383.6,274.86L383.72,278.81L383.83,276.62" style="vector-effect: non-scaling-stroke; fill: none; stroke: rgb(255, 0, 0); stroke-opacity: 1; stroke-width: 2px; opacity: 1;"/><path class="js-line" d="M384.06,281.89L385.2,292.37L385.32,293.02" style="vector-effect: non-scaling-stroke; fill: none; stroke: rgb(255, 0, 0); stroke-opacity: 1; stroke-width: 2px; opacity: 1;"/><path class="js-line" d="M385.55,293.6L386.12,294.74L386.23,291.52L386.92,295.38L387.26,294.75L387.38,295.41L388.98,296.89L389.09,296.91L389.32,296.79L389.43,295.31L389.55,289.11L389.66,240.85L389.78,241.33L389.89,268.08L390.46,289.74L390.69,279.93L390.8,265.7L391.72,294.91L391.83,295.42L392.18,296.47L392.4,294.97L392.52,295.16L392.98,294.94L393.55,295.91L393.66,295.84L394.12,296.23L394.23,296.68L394.69,297L395.03,294.35L395.15,296.73L396.17,298.87L396.29,298.82L396.63,298.5L396.86,299.29L396.97,299.4L398,300.59L398.12,300.18L398.92,301.08L399.15,300.95L399.26,301.05L399.37,301.37L399.49,295.11L399.83,299.61L400.4,298.41L400.52,299.37L400.63,299.95L400.75,296.51L400.86,290.51L401.09,298.55L401.43,298.03L401.55,298.5L402,297.6L402.12,300.12L402.23,300.96L402.46,299.76L402.8,300.44L402.92,299.71L403.26,300.68L403.6,299.46L403.72,299.38L403.95,300.34L404.06,298.76L404.17,297.55L404.63,299.2L404.97,298.51L405.09,298.5L405.32,261.78L405.77,292.7L405.89,294.9L406.12,266.12L406.46,292.67" style="vector-effect: non-scaling-stroke; fill: none; stroke: rgb(255, 0, 0); stroke-opacity: 1; stroke-width: 2px; opacity: 1;"/><path class="js-line" d="M407.6,297.67L407.94,285.69L408.06,259.79L408.17,206.51L408.74,286.6L408.86,287.51L410,291.06" style="vector-effect: non-scaling-stroke; fill: none; stroke: rgb(255, 0, 0); stroke-opacity: 1; stroke-width: 2px; opacity: 1;"/><path class="js-line" d="M417.77,304L420.4,303.41L420.51,285.65L421.54,303.25L421.66,303.39L422.91,304L423.03,303.59L423.83,304L423.94,304L424.29,303.56L424.4,303.09L425.2,304L425.31,284.89L425.66,234.06L426,288.56L426.11,292.02L427.14,298.25L427.26,298.44L429.31,300.62L429.43,300.74L430,300.73L430.11,300.01L430.23,299.76L430.46,300.82L430.57,300.94L430.8,299.54L431.37,300.36L431.48,300.8L432.4,300.88L432.51,300.03L432.63,299.01L432.86,300.73L433.08,300.66L433.2,300.74L433.77,300.93L433.88,301.04L434.8,301.26L434.91,301.05L435.14,301.23L435.37,300.21L435.6,301.16" style="vector-effect: non-scaling-stroke; fill: none; stroke: rgb(255, 0, 0); stroke-opacity: 1; stroke-width: 2px; opacity: 1;"/><path class="js-line" d="M446.34,301.28L446.91,301.23L447.02,300.31L447.82,301.96L447.94,301.9L448.05,301.63L449.08,300.99L449.2,300.87L450.34,301.27L450.45,300.97L450.57,300.64L450.68,299.36L451.02,300.96L451.14,284.83L451.37,296.36L451.6,230.61L451.82,290.2L451.94,293.49L452.28,296.22L452.4,282.26L452.62,186.5L452.74,254.92L452.85,278.93L453.31,289.86L453.54,289.61L453.65,277.19L453.77,197.74L454.11,284.15L454.45,202.91L454.57,264.02L455.48,292.5L455.6,292.79L456.85,295.61L456.97,295.69L458.22,296.86L458.34,296.94L459.59,297.09L459.71,297.54L460.62,297.83L460.74,297.5L460.85,296.23L461.65,298.05L461.77,298.12L462.11,298.15L462.22,296.93L463.02,298.46L463.14,298.36L464.17,298.58L464.28,298.58L468.05,299.39L468.16,298.29L468.28,293.47L468.85,299L468.96,299.1L469.54,299.22L469.65,297.23L469.76,296.41L470.11,298.97L470.22,299.06L470.79,299.03L470.91,297.94L471.02,297.62L471.25,299.02L471.36,298.71L471.48,298.74L472.51,299.37L472.62,299.04L473.42,299.69L473.54,299.37L474.56,300.11L474.68,300.15L474.91,300.13L475.02,295.71L475.82,299.99L476.05,299.9L476.16,299.97L477.65,300.17L477.76,300.16L479.02,301.57L479.13,301.41L479.25,301.04L480.16,301.12L480.28,300.75L481.42,302.81L481.53,303.29L481.76,300.74L482.22,303.43L482.33,303.29L482.79,301.41L483.02,303.75L483.13,303.98L483.48,302.37L483.82,303.87L483.93,304L485.19,304L485.31,304L486.68,303.71L486.79,300.14L488.28,298.2L488.39,299.19L488.62,299.37L488.85,298.94L488.96,297.25L489.53,299.29L489.76,299.21L489.88,299.14L490.1,295.37L490.56,298.94L490.68,298.98L491.36,299.03L491.48,297.75L491.59,297.25L491.82,299.26L491.93,298.83L492.05,299.07L492.5,298.97L492.62,293.31L493.08,298.9L493.42,297.76L493.53,298.64L493.65,298.3L493.76,259.86L494.68,298.32L494.79,298.35L495.59,298.5L495.7,298.25L495.82,297.88L496.62,298.73L496.73,298.18L496.96,288.42L497.42,297.08L497.53,297.48L499.25,298.38L499.36,298.37L501.19,298.74L501.3,298.82L501.99,298.74L502.1,298.54L502.22,298.29L502.79,298.49L502.9,298.33L503.02,298.27L503.82,298.78L503.93,298.08L504.5,297.29L504.62,298.73L504.73,298.66L504.85,298.59L506.67,298.75L506.79,297.72L507.02,298.9L507.36,298.63L507.47,296.77L508.16,230.79L508.27,276.71L508.39,284.63L509.3,294.22L509.42,294.08L509.53,294.28L509.76,294.24L510.44,296L510.56,295.38L510.9,295.9L511.02,295.51L511.13,293.92L511.24,293.39L511.59,295.23L511.7,295.2L512.73,297.31L512.84,297.17L513.3,296.48L513.76,297.64L513.87,295.89L514.1,289.68L514.56,293.56L514.67,294.58L515.93,297.36L516.04,296.92L516.16,295.97L516.39,295.99L516.5,294.58L517.07,297.17L517.19,294.3L517.3,293.25L517.53,296.06L517.64,291.97L517.76,288.48L518.22,295.58L518.33,296.1L518.79,296.92L518.9,291.51L519.81,298.04L519.93,297.85L520.04,297.65L521.53,298.82L521.64,298.65L522.56,297.93L522.67,293.77L523.36,298.87L523.47,298.58L523.59,295.44L524.5,299.41L524.61,299.36L524.73,298.87L525.3,299.62L525.41,300.1L525.99,298.19L526.33,299.45L526.44,299.15L527.13,301.63L527.24,300L527.59,299.64L527.7,299.82L527.81,301.06L528.16,296.78L528.73,298.31L528.84,299.2L529.3,298.12L529.41,297.13L529.64,297.7L529.76,296.76L529.87,297.5L529.99,297.7L531.36,297.59L531.47,297.61L532.27,297.58L532.38,296.43L532.5,296.34L532.61,296.87L532.73,297.4L533.18,296.58L533.3,297.09L533.41,297.5L534.56,297.52L534.67,297.57L537.3,297.59L537.41,292.67L537.53,273.63L538.1,296.35L538.21,296.65L541.07,296.29L541.18,294.57L541.98,296.9L542.1,296.75L542.9,296.95L543.01,295.91L543.24,297.15L543.81,297.07L543.93,296.95L544.61,295.88L544.73,296.43L544.84,296.79L545.07,295.87L545.3,296.75L545.41,296.98L546.21,294.17L546.33,296.29L547.01,296.82L547.13,293.89L547.81,296.75L548.04,296.54L548.15,296.56L549.07,295.92L549.18,296.32L549.3,296.44L549.41,296.68L549.53,295.48L549.64,296.38L549.75,295.57L550.55,296.94L550.67,296.8L551.58,296.85L551.7,296.55L551.92,297.51L552.15,295.77L552.38,296.51L552.5,296.68L552.72,296.19L552.95,296.54L553.07,293.4L553.18,287.93L553.75,296.71L553.87,296.67L554.21,296.67L554.32,297.32L554.9,297.24L555.01,296.61" style="vector-effect: non-scaling-stroke; fill: none; stroke: rgb(255, 0, 0); stroke-opacity: 1; stroke-width: 2px; opacity: 1;"/><path class="js-line" d="M557.07,297.44L557.41,296.77L557.52,296.96L557.64,295.78L558.44,297.09L558.55,296.32L559.01,297.46L559.12,283.88L560.5,297.3L560.61,297.78L561.41,297.27L561.52,297.92L561.87,294.96L562.09,296.58L562.21,297.43L562.89,297.64L563.01,297.33L563.12,296.11L563.58,298.03L563.69,297.95L563.81,298.26L564.27,294.91L564.61,296.34L564.72,296.12L565.41,298.19L565.52,296.83L565.64,297.46L566.21,298.9L566.32,298.57L566.44,288.38L567.24,296.63L567.35,297.74L568.72,301.54L568.84,300.11L568.95,300L569.07,297.85L569.29,285.51L569.64,296.16L569.75,296.32L570.21,296.77L570.32,297.22L570.67,298.31L570.78,297.64L570.89,296.23L571.35,297.84L571.69,296.63L571.81,296.78L571.92,295.51L572.04,295.64L572.15,196.18L572.95,288.99L573.06,289.39L573.29,289.79L573.41,283.03L573.52,174.83L574.09,286.44L574.21,284.12L575.12,288.78L575.24,288.92L576.84,290.13L576.95,290.14L577.52,290.17L577.64,289.2L578.21,290.49L578.44,290.01L578.55,290.04L579.46,290.51L579.58,290.49L580.04,290.51L580.15,290.19L580.26,289.82L580.49,285.7L580.61,247.28L580.72,248.55L580.84,279.88L581.75,289.36L581.86,289.51L582.21,290.05L582.32,265L583.35,290.47L583.46,290.72L585.18,292.91L585.29,292.88L586.21,293.29L586.32,291.26L587.01,293.71L587.35,293.48L587.46,293.34L588.15,293.52L588.26,293.72L589.86,294.25L589.98,294.13L590.32,294.07L590.43,291.51L591.23,294.41L591.35,294.18L592.38,294.62L592.49,293.97L592.72,293.14L593.18,294.65L593.29,289.83L593.75,282.58L593.98,290.84L594.09,292.01L595.23,294.9L595.35,295.1L596.49,296.72L596.6,295.89L597.4,297.78L597.52,297.33L597.63,297.52L597.86,296.93L598.09,297.74L598.2,297.91L599.58,299.45L599.69,298.96L600.03,298.28L600.15,296.41L600.95,298.98L601.18,298.55L601.29,298.4L602.2,298.85L602.32,296.91L602.89,300.71L603.23,300.51L603.35,300.56L604.26,301.94L604.37,301.67L604.72,303.58L604.83,301.71L604.95,301.88L605.4,303.67L605.52,303.95L605.75,301.88L606.2,303.84L606.32,304L606.66,302.34L606.89,303.57L607,304L607.23,303.97L607.35,302.73L608.26,303.92L608.37,303.69L608.49,301.32L608.6,302.68L609.17,302.02L609.29,300.14L609.86,299.39L609.97,289.91L610.32,299.45L610.89,299.24L611,299.57L611.8,300.13L612.03,299.72L612.15,299.33L612.26,296L612.6,299.87L612.83,299.67L612.95,299.66L613.4,299.95L613.75,299.3L613.86,299.26L614.89,299.21L615,299.71L615.23,298.53L615.34,274.15L615.8,293.29L616.14,292.97L616.26,292.86L616.83,293L616.94,291.85L617.74,293.33L617.86,293.27L617.97,293.25L618.32,292.5L619,294.07L619.12,291.26L619.23,284L619.8,293.67L619.92,293.69L622.09,293.87L622.2,293.62L622.89,295.8L623,295.28L623.12,294.29L624.37,293.95L624.49,294.03L625.97,294.81L626.09,295.05L626.2,295.19L626.43,294.43L626.54,294.38L627.11,295.14L627.34,294.86L627.46,294.76L629.4,295.14L629.51,295L630.2,294.47L630.31,294.71L630.43,295.09L631,294.67L631.11,295.33L631.23,295.33L632.37,295.05L632.49,293.05L632.6,292.28L632.83,295.43L632.94,295.67L633.63,295.28L633.86,295.47L633.97,295.57L634.43,295.52L634.54,295.33L634.66,294.14L635.68,295.76L635.8,295.76L636.71,294.51L636.83,290.23L637.51,294.73L637.74,294.69L637.86,294.71L638.54,295.7L638.66,289.7L639.34,294.87L639.68,294.71L639.8,294.8L640.48,295.48L640.6,294.29L640.83,293.58L640.94,294.05L641.06,295.03L641.17,293.31L641.63,295.68L641.74,294.04L641.86,294.38L642.2,292.08L642.77,295.77L642.88,295.8L643,295.93L643.11,295.64L643.23,292.26L644.14,296.62L644.26,296.63L644.71,296.74L644.83,297.57L645.4,296.45L645.74,298.84L645.85,299.18L646.2,302.3L646.31,302.12L646.43,299.96L646.77,299.47L646.88,299.86L647,302.04L647.11,302.98L647.34,299.74L647.45,299.73L647.57,299.75L647.68,299.91L647.8,302.46L647.91,303.59L648.14,299.95L648.25,299.94L648.37,299.82L648.71,302.72L648.94,300.51L649.05,300.55L649.17,299.81L649.28,300.75L649.4,303.32L649.51,303.93L649.74,301.82L649.85,301.5L650.08,301.9L650.2,303.91L650.54,303.37L650.65,303.17L651,304L651.34,302.13L651.57,302.61L651.68,303L652.25,304L652.37,303.79L652.48,303.26L653.17,304L653.28,303.9L653.4,301.97L653.63,298.51L654.31,299.25L654.43,298.91L655.23,298.13L655.34,283.59L655.91,297.41L656.14,290.11L656.25,296.27L656.94,297.9L657.05,297.46L657.17,297.32L657.51,297.46L657.74,297.2L657.85,296.02L658.2,297.56L658.42,297.34L658.54,290.21L658.77,254.42L659.22,293.83L659.34,294.4L660.25,295.24L660.37,295.26L661.28,295.44L661.4,295.15L662.31,295.79L662.42,295.49L663,295.8L663.11,294.04L663.22,291.4L663.8,294.89L663.91,294.89L664.82,294.42L664.94,294.76L665.85,295.02L665.97,294.57L666.42,294.1L666.88,295.82L667.11,295.7L667.22,295.61L668.82,295.23L668.94,295.28L669.85,295.14L669.97,292.84L670.08,287.71L670.19,228.39L671.22,288.54L671.34,289.62L672.59,293.22L672.71,291.54L672.94,282.84L673.28,289.65L673.39,290.64L674.54,292.99L674.65,293.12L674.88,289.15L675.34,293.38L675.45,293.47L677.05,294.63L677.17,293.3L677.28,287.53L677.85,294.52L677.96,294.6L678.08,294.16L678.42,294.95L678.54,294.98L678.65,295.07L680.82,295.52L680.94,294.83L681.05,294.52L681.28,295.31L681.51,294.95L681.62,295.33L681.74,294.74L682.19,295.91L682.31,295.8L682.65,295.23L682.88,295.89L682.99,296.04L684.02,295.95L684.14,296.28L684.59,297.53L684.82,296.25L684.94,296.37L685.51,295.67L685.62,296.67L685.74,296.72L685.85,296.52L686.08,297.24L686.19,299.38L686.31,299.62L686.42,297.84L686.76,297.13L686.88,298.02L686.99,301.6L687.11,303.68L687.34,297.64L687.45,297.85L687.56,297.97L687.79,303.6L688.02,297.51L688.13,297.6L688.36,292.76L688.59,295.78L688.71,295.88L689.39,298.54L689.73,297.62L689.85,297.55L690.08,297.96L690.19,301.16L690.76,297.65L690.88,298.75L690.99,302.07L691.33,296.24L691.68,298.58L691.79,302.18L691.91,303.41L692.13,299.48L692.25,298.87L692.48,300.39L692.59,303.07L692.71,304L692.93,301.8L693.05,295.52L693.16,295.07L693.28,296.19L693.39,298.78L694.08,297.77L694.31,302.96L694.42,301.62L695.22,296.16L695.33,296.32L696.25,294.34L696.36,295.71L696.71,295.96L697.16,292.83L697.28,294.36L698.08,295.65L698.19,295.96L698.42,294.95L698.53,295.67L698.65,296.65L700.02,295.45L700.13,295.56L700.59,295.77L700.82,295.41L700.93,295.24L701.05,285.23L701.62,295.12L701.73,295.2L702.88,295.12L702.99,294.28L703.1,295.31L703.79,295.11L703.9,295.08L704.93,294.55L705.05,294.57L705.73,294.16L705.85,293.92L706.19,294.96L706.76,294.56L706.88,294.61L708.02,293.45L708.13,294.18L708.25,294.26L710.07,294.24L710.19,292.01L711.1,293.98L711.22,293.94L711.33,293.92L712.25,293.9L712.36,292.61L712.59,294.1L713.16,293.24L713.27,293.35L713.62,283.25L713.96,293.1L714.07,293.42L714.3,293.08L714.76,293.55L714.87,293.41L714.99,293.14L715.79,294.39L715.9,292.23L716.02,293.2L716.25,291.6L716.59,292.49L716.7,291L717.5,293.14L717.62,292.78L717.73,292.92L718.76,292.9L718.87,289.11L718.99,288.91L719.1,292.37L719.9,293.15L720.02,293.01L720.13,293.02L720.24,293.23L720.47,292.98L720.59,288.35L720.82,292.09L720.93,251.29L721.73,289.01L721.84,287.77L721.96,286.83L722.07,289.71L722.19,292.2L723.1,293.18L723.22,293.2L724.02,292.87L724.13,281.2L724.59,260.46L724.82,275.32L724.93,281.78L725.04,276.49L725.5,288.57L725.62,292.44L726.3,293.15L726.42,293.03L726.53,292.93L727.22,293.02L727.33,290.95L728.47,295.61L728.59,296.45L728.93,288.85L729.16,296.19L729.27,296.68L729.96,295.46L730.07,296.95L730.3,300.94L730.64,296.26L730.76,296.81L730.87,295.99L730.99,295.73L731.21,296.67L731.33,296.87L731.56,296.87L731.67,297.69L731.79,298.87L732.01,294.68L732.24,296.57L732.36,296.69L732.59,297.98L732.7,296.09L732.81,295.04L733.04,296.84L733.16,296.85L733.27,297.97L734.19,303.63L734.3,304L734.53,303.4L734.64,299.89L735.1,295.75L735.33,298.65L735.44,302.18L735.56,275.63L736.13,293.52L736.24,293.88L736.36,293.66L736.47,291.28L736.7,293.75L737.27,292.81L737.39,293.43L738.07,291.63L738.19,292.92L738.64,292.6L738.99,293.02L739.1,292.87L739.33,292.37L739.79,293.09L739.9,292.91L741.27,292.89L741.38,291.63L741.73,289.28L742.07,292.76L742.18,282.39L742.3,262.87L742.87,288.36L742.98,290.06L743.56,290.47L743.67,285.76L743.78,281.5L744.01,288.72L744.13,254.27L745.04,286.55L745.16,276.11L745.61,286.84L745.73,283.34L745.84,205.8L746.07,256.6L746.18,22.28L746.98,293.74L747.1,293.78L748.13,299.48L748.24,299.72L748.93,300.88L749.04,300.43L749.16,299.05L750.07,301.88L750.18,302.01L753.27,303.2L753.38,301.43L754.07,303.58L754.3,303.23L754.41,303.3L755.44,303.85L755.55,303.94L758.75,304L758.87,304L761.61,303.31L761.72,299.74L762.64,304L762.75,304L763.9,303.94L764.01,302.65L764.7,304L764.81,303.85L764.92,303.68L765.15,301.55L765.72,302.41L765.84,302.41L766.41,303.22L766.64,302.67L766.75,300.89L766.87,297.72L767.32,302.86L767.44,303.04L767.55,301.97L768.12,302.87L768.24,303.33L769.15,304L769.27,303.7L769.5,303.68L769.61,300.6L769.72,300.15L769.95,302.35L770.07,303.16L770.98,304L771.1,304L771.89,304L772.01,304L772.81,303.64L772.92,303.03L773.61,304L773.72,303.46L773.84,302.39L774.64,303.99L774.75,304L774.87,302.36L775.44,304L775.55,304L779.89,304L780.01,301.44L780.58,303.94L780.92,303.81L781.04,303.81L781.27,301.15L781.72,303.61L781.84,303.67L783.89,303.32L784.01,302.36L784.35,303.36L784.69,302.53L784.81,297.44L784.92,224.47L785.49,297.85L785.61,298.24L786.52,299.42L786.64,299.32L786.75,299.42L786.98,299.26L788.24,300.43L788.35,299.66L788.46,296.63L789.04,300.64L789.15,300.84L789.49,301.08L789.61,300.96L789.72,295.3L789.84,229.57L790.41,296.21L790.52,296.7L792.35,299.83L792.46,299.88L793.83,300.19L793.95,298.88L794.98,301.53L795.09,282.21L795.21,74.18L795.78,289.75L795.89,293.11L797.03,300.97L797.15,301.01L798.41,301.97L798.52,302.04L801.38,303.33L801.49,302.02L802.18,303.31L802.29,289.38L803.21,302.19L803.32,297.98L803.43,293.84L803.89,301.45L804,301.72L804.58,302.56L804.69,297.09L804.8,295.3L805.15,300.7L805.26,300.87L805.49,285.69L805.6,195.81L805.72,126.74L806.18,292.34L806.29,294.28L807.43,300.22L807.55,300.33L807.78,299.75L808.12,300.85L808.23,300.08L808.35,300.41L809.38,302.06L809.49,302.25L810.52,301.58L810.63,291.85L810.86,302.02L811.32,289.83L811.43,295.59L811.55,299.27L812.46,303.07L812.58,303.23L813.72,304L813.83,300.21L813.95,300.53L814.06,303.47L814.86,304L814.97,304L820.46,303.84L820.57,294.37L820.69,293.04L820.8,302.23L821.83,303.99L821.95,304L825.6,303.97L825.72,298.28L826.74,303.81L826.86,303.9L830.17,303.57L830.29,303.74L830.52,303.75L830.63,302.68L830.74,302.2L830.86,280.14L831.77,301.4L831.89,301.59L833.03,302.43L833.14,302.28L833.26,300.19L834.06,302.48L834.17,302.39L834.29,302.18L834.86,302.64L834.97,302.68L835.54,302.77L835.66,300.08L835.89,302.09L836,302.48L837.94,303.33L838.06,302.87L838.17,302.72L838.74,303.38L838.86,303.32L838.97,297.92L839.31,302.02L839.77,301.12L839.89,300.95L840,301.18" style="vector-effect: non-scaling-stroke; fill: none; stroke: rgb(255, 0, 0); stroke-opacity: 1; stroke-width: 2px; opacity: 1;"/></g><g class="points"/><g class="text"/></g></g></g><g class="overplot"/><path class="xlines-above crisp" d="M0,0" style="fill: none;"/><path class="ylines-above crisp" d="M0,0" style="fill: none;"/><g class="overlines-above"/><g class="xaxislayer-above"><g class="xtick"><text text-anchor="middle" x="0" y="433" transform="translate(246.95,0)" style="font-family: 'Open Sans', verdana, arial, sans-serif; font-size: 12px; fill: rgb(42, 63, 95); fill-opacity: 1; white-space: pre; opacity: 1;">2005</text></g><g class="xtick"><text text-anchor="middle" x="0" y="433" style="font-family: 'Open Sans', verdana, arial, sans-serif; font-size: 12px; fill: rgb(42, 63, 95); fill-opacity: 1; white-space: pre; opacity: 1;" transform="translate(455.61,0)">2010</text></g><g class="xtick"><text text-anchor="middle" x="0" y="433" style="font-family: 'Open Sans', verdana, arial, sans-serif; font-size: 12px; fill: rgb(42, 63, 95); fill-opacity: 1; white-space: pre; opacity: 1;" transform="translate(664.26,0)">2015</text></g><g class="xtick"><text text-anchor="middle" x="0" y="433" style="font-family: 'Open Sans', verdana, arial, sans-serif; font-size: 12px; fill: rgb(42, 63, 95); fill-opacity: 1; white-space: pre; opacity: 1;" transform="translate(872.92,0)">2020</text></g></g><g class="yaxislayer-above"><g class="ytick"><text text-anchor="end" x="79" y="4.199999999999999" transform="translate(0,404)" style="font-family: 'Open Sans', verdana, arial, sans-serif; font-size: 12px; fill: rgb(42, 63, 95); fill-opacity: 1; white-space: pre; opacity: 1;">0</text></g><g class="ytick"><text text-anchor="end" x="79" y="4.199999999999999" style="font-family: 'Open Sans', verdana, arial, sans-serif; font-size: 12px; fill: rgb(42, 63, 95); fill-opacity: 1; white-space: pre; opacity: 1;" transform="translate(0,346.63)">20</text></g><g class="ytick"><text text-anchor="end" x="79" y="4.199999999999999" style="font-family: 'Open Sans', verdana, arial, sans-serif; font-size: 12px; fill: rgb(42, 63, 95); fill-opacity: 1; white-space: pre; opacity: 1;" transform="translate(0,289.27)">40</text></g><g class="ytick"><text text-anchor="end" x="79" y="4.199999999999999" style="font-family: 'Open Sans', verdana, arial, sans-serif; font-size: 12px; fill: rgb(42, 63, 95); fill-opacity: 1; white-space: pre; opacity: 1;" transform="translate(0,231.9)">60</text></g><g class="ytick"><text text-anchor="end" x="79" y="4.199999999999999" style="font-family: 'Open Sans', verdana, arial, sans-serif; font-size: 12px; fill: rgb(42, 63, 95); fill-opacity: 1; white-space: pre; opacity: 1;" transform="translate(0,174.53)">80</text></g><g class="ytick"><text text-anchor="end" x="79" y="4.199999999999999" style="font-family: 'Open Sans', verdana, arial, sans-serif; font-size: 12px; fill: rgb(42, 63, 95); fill-opacity: 1; white-space: pre; opacity: 1;" transform="translate(0,117.17)">100</text></g></g><g class="overaxes-above"/></g></g><g class="polarlayer"/><g class="smithlayer"/><g class="ternarylayer"/><g class="geolayer"/><g class="funnelarealayer"/><g class="pielayer"/><g class="iciclelayer"/><g class="treemaplayer"/><g class="sunburstlayer"/><g class="glimages"/><defs id="topdefs-8a8ff5"><g class="clips"/></defs><g class="layer-above"><g class="imagelayer"/><g class="shapelayer"/></g><g class="infolayer"><g class="g-gtitle"><text class="gtitle" x="50" y="50" text-anchor="start" dy="0em" style="font-family: 'Open Sans', verdana, arial, sans-serif; font-size: 17px; fill: rgb(42, 63, 95); opacity: 1; font-weight: normal; white-space: pre;">Aforament - Campllong (la Gotarra)--a06.csv</text></g><g class="g-xtitle"><text class="xtitle" x="500" y="460.8" text-anchor="middle" style="font-family: 'Open Sans', verdana, arial, sans-serif; font-size: 14px; fill: rgb(42, 63, 95); opacity: 1; font-weight: normal; white-space: pre;">Data</text></g><g class="g-ytitle"><text class="ytitle" transform="rotate(-90,31.309375000000003,260)" x="31.309375000000003" y="260" text-anchor="middle" style="font-family: 'Open Sans', verdana, arial, sans-serif; font-size: 14px; fill: rgb(42, 63, 95); opacity: 1; font-weight: normal; white-space: pre;">Cabal (m3/s)</text></g></g></svg>