<svg class="main-svg" xmlns="http://www.w3.org/2000/svg" xmlns:xlink="http://www.w3.org/1999/xlink" width="1000" height="500" style="" viewBox="0 0 1000 500"><rect x="0" y="0" width="1000" height="500" style="fill: rgb(255, 255, 255); fill-opacity: 1;"/><defs id="defs-e9155c"><g class="clips"><clipPath id="clipe9155cxyplot" class="plotclip"><rect width="840" height="320"/></clipPath><clipPath class="axesclip" id="clipe9155cx"><rect x="80" y="0" width="840" height="500"/></clipPath><clipPath class="axesclip" id="clipe9155cy"><rect x="0" y="100" width="1000" height="320"/></clipPath><clipPath class="axesclip" id="clipe9155cxy"><rect x="80" y="100" width="840" height="320"/></clipPath></g><g class="gradients"/><g class="patterns"/></defs><g class="bglayer"><rect class="bg" x="80" y="100" width="840" height="320" style="fill: rgb(229, 236, 246); fill-opacity: 1; stroke-width: 0;"/></g><g class="layer-below"><g class="imagelayer"/><g class="shapelayer"/></g><g class="cartesianlayer"><g class="subplot xy"><g class="layer-subplot"><g class="shapelayer"/><g class="imagelayer"/></g><g class="minor-gridlayer"><g class="x"/><g class="y"/></g><g class="gridlayer"><g class="x"><path class="xgrid crisp" transform="translate(246.95,0)" d="M0,100v320" style="stroke: rgb(255, 255, 255); stroke-opacity: 1; stroke-width: 1px;"/><path class="xgrid crisp" transform="translate(455.61,0)" d="M0,100v320" style="stroke: rgb(255, 255, 255); stroke-opacity: 1; stroke-width: 1px;"/><path class="xgrid crisp" transform="translate(664.26,0)" d="M0,100v320" style="stroke: rgb(255, 255, 255); stroke-opacity: 1; stroke-width: 1px;"/><path class="xgrid crisp" transform="translate(872.92,0)" d="M0,100v320" style="stroke: rgb(255, 255, 255); stroke-opacity: 1; stroke-width: 1px;"/></g><g class="y"><path class="ygrid crisp" transform="translate(0,360.52)" d="M80,0h840" style="stroke: rgb(255, 255, 255); stroke-opacity: 1; stroke-width: 1px;"/><path class="ygrid crisp" transform="translate(0,317.03999999999996)" d="M80,0h840" style="stroke: rgb(255, 255, 255); stroke-opacity: 1; stroke-width: 1px;"/><path class="ygrid crisp" transform="translate(0,273.56)" d="M80,0h840" style="stroke: rgb(255, 255, 255); stroke-opacity: 1; stroke-width: 1px;"/><path class="ygrid crisp" transform="translate(0,230.08)" d="M80,0h840" style="stroke: rgb(255, 255, 255); stroke-opacity: 1; stroke-width: 1px;"/><path class="ygrid crisp" transform="translate(0,186.59)" d="M80,0h840" style="stroke: rgb(255, 255, 255); stroke-opacity: 1; stroke-width: 1px;"/><path class="ygrid crisp" transform="translate(0,143.11)" d="M80,0h840" style="stroke: rgb(255, 255, 255); stroke-opacity: 1; stroke-width: 1px;"/></g></g><g class="zerolinelayer"><path class="yzl zl crisp" transform="translate(0,404)" d="M80,0h840" style="stroke: rgb(255, 255, 255); stroke-opacity: 1; stroke-width: 2px;"/></g><path class="xlines-below"/><path class="ylines-below"/><g class="overlines-below"/><g class="xaxislayer-below"/><g class="yaxislayer-below"/><g class="overaxes-below"/><g class="plot" transform="translate(80,100)" clip-path="url(#clipe9155cxyplot)"><g class="scatterlayer mlayer"><g class="trace scatter trace9d6451" style="stroke-miterlimit: 2; opacity: 1;"><g class="fills"/><g class="errorbars"/><g class="lines"><path class="js-line" d="M0,240.36L0.8,249.1L0.91,245.64L1.03,247.26L1.14,242.36L1.37,245.47L1.49,241.09L1.71,210.5L2.06,234.24L2.17,237.16L2.4,236.31L3.77,250.5L3.89,250.14L4.11,251.71L4.23,247.18L4.34,250.12L4.46,253.33L4.57,249.62L4.8,263.68L4.91,276.41L5.03,265.02L5.6,276.04L5.71,274.39L6.17,272.52L6.51,286.24L6.63,303.18L6.86,302.99L6.97,303.22L7.08,298.45L7.54,274.42L7.88,280.67L8,284.49L8.57,274.84L8.68,284.04L8.8,287.49L9.03,284.09L9.14,288.43L9.26,286.68L9.37,289.32L9.48,295.35L9.83,277.61L9.94,275.44L10.4,284.28L10.63,279.02L10.74,273.29L11.77,299.46L11.88,288.78L12,289.02L12.11,291.51L12.57,279.55L12.8,294.81L12.91,290.28L13.26,288.55L13.37,290.94L13.48,296.36L13.6,280.29L13.71,269.33L14.51,285.25L14.63,284.31L14.74,279.96L15.2,292.46L15.54,285.09L15.66,275.16L16,293.73L16.57,288.65L16.68,291.63L16.8,296.14L17.25,285.19L17.37,286.17L17.6,295.07L17.94,281.96L18.05,282.24L18.4,292.9L18.51,283.57L18.63,282.87L18.85,286.37L18.97,291.43L19.2,299.86L19.54,289.05L19.65,290.18L19.77,293.7L19.88,299.19L20.23,285.87L20.34,286.54L20.45,285.86L20.8,297.06L20.91,291.85L21.03,285.34L21.14,283.3L21.37,290.19L21.48,292.55L21.6,292.69L21.71,289.59L22.28,281.93L22.4,287.74L22.74,260.86L22.97,281.53L23.08,288.97L23.31,280.79L23.65,283.49L23.77,284.99L24,293.34L24.57,293.18L24.68,289.99L25.48,300.95L25.6,302.17L26.4,303.44L26.74,303.06L26.85,301.88L27.2,303.02L27.31,302.13L27.42,297.29L27.77,287.66L28,302.18L28.11,301.6L28.57,299.46L28.68,301.85L28.91,302.4L29.02,302.11L29.14,300.78L29.94,287.61L30.05,289.89L30.17,288.18L30.4,301.47L30.97,294.74L31.08,302.07L31.31,290.6L31.65,291.21L31.77,297.43L31.88,301.61L32.22,287.39L32.34,289.16L32.68,299.82L32.91,289.96L33.02,289.49L33.37,267.06L33.71,282.33L33.82,284.37L34.05,285.56L34.17,283.49L34.28,292.32L34.4,298.75L34.62,286.11L34.85,292.99L34.97,288.83L35.08,295.18L35.54,285.87L35.65,286.43L35.77,284.67L35.88,285.94L36.11,284.51L36.22,284.6L36.34,280.27L36.57,254.67L36.79,288.94L36.91,289.7L37.94,297.5L38.05,296.93L38.17,297.06L38.28,297.2L38.39,299.23L38.74,296.65L39.08,299.59L39.19,299.61L39.42,300.28L39.65,296.27L39.77,293.47L41.14,299.99L41.48,299.38L41.59,297.91L42.17,292.27L42.51,293.19L42.62,295L43.08,294.25L43.19,298.26L44.34,282.51L44.45,284.96L44.79,287.42L44.91,286.66L45.02,282.16L45.59,287.6L45.71,284.74L45.82,281.88L45.94,281.24L46.17,283.94L46.28,285.37L47.08,280.75L47.19,282.56L47.42,281.2L47.99,290.29L48.11,285.37L48.22,286.03L48.34,277.26L48.45,282.2L48.68,271.65L48.79,278.08L48.91,263.69L49.59,282.64L50.05,279.64L50.16,280.21L50.28,278.49L50.51,283.62L50.62,284.56L51.31,283.85L51.42,289.5L51.54,287.69L51.76,284.19L51.99,288.67L52.11,285.17L52.22,292.04L52.56,303.12L53.02,302.19L53.14,295.01L53.94,303.61L54.05,303.53L54.74,303.34L54.85,303.53L54.96,303.52L55.31,303.47L55.42,302.2L56.22,296.5L56.34,299.67L56.45,303.84L58.39,300.21L58.51,299.51L58.85,299.83L59.31,297.58L59.42,298.56L59.53,301.37L59.65,301.53L59.76,299.87L60.45,301.88L60.56,301.81L60.68,301.62L61.25,301.69L61.36,301.15L61.48,301.08L61.82,301.27L61.93,301L62.05,300.26L62.16,300.72L62.39,299.61L62.51,297.82L62.73,300.87L62.96,297.45L63.19,299.53L63.31,297.84L63.53,297.76L64.56,301.72L64.68,301.87L67.19,301.9L67.31,302.96L68.11,303.85L68.22,303.85L68.33,303.64L68.68,303.83L68.79,300.81L69.59,303.83L69.7,303.78L70.39,303.29L70.5,303.08L70.62,303.68L71.08,302.16L71.19,301.64L71.3,301.23L71.88,301.89L71.99,301.96L72.33,301.93L72.45,303.05L72.68,303.82L73.02,302.88L73.25,303.46L73.36,303.8L73.7,303.78L73.82,286.73L74.73,303.39L74.85,303.38L75.08,303.59L75.19,303.18L75.3,301.89L75.53,301.81L75.65,303.05L76.45,303.78L76.56,303.81L76.9,303.36L77.02,303.06L78.28,300.1L78.39,300.34L78.5,301.38L78.85,302.32L79.19,297.4L79.3,300.32L79.42,300.42L79.99,301.34L80.45,300.71L80.56,302.32L80.79,303.76L80.9,246.18L81.82,302.83L81.93,302.9L83.3,303.33L83.42,303.29L83.87,303.29L83.99,302.78L84.9,303.32L85.02,303.3L89.02,303.21L89.13,300.04L89.59,303.1L89.7,302.63L89.82,132.67L90.73,302.08L90.84,302.22L93.13,302.94L93.24,302.36L94.39,303.05L94.5,302.98L95.53,303.15L95.64,303.15L96.56,303.02L96.67,303.13L96.79,303.28L97.93,302.85L98.04,303.1L99.64,302.83L99.76,302.75L99.87,302.49L100.21,302.95L100.44,302.97L100.56,303.15L101.93,302.57L102.04,302.77L103.07,303.8L103.19,303.79L103.76,303.03L104.21,303.29L104.33,303.26L105.47,303.48L105.59,303.2L105.7,302.85L106.16,303.52L106.27,303.22L106.39,303.42L106.84,302.83L107.3,303.07L107.41,303.37L108.33,303.48L108.44,303.54L109.36,303.36L109.47,302.51L110.27,303.82L110.38,302.87L111.07,301.53L111.18,301.65L111.3,303.84L112.78,303.14L112.9,301.72L113.13,299.89L113.24,301.28L113.36,303.08L113.47,301.97L113.81,303.84L113.93,303.85L114.04,303.84L114.61,303.56L114.96,303.83L115.07,303.83L116.1,303.78L116.21,301.6" style="vector-effect: non-scaling-stroke; fill: none; stroke: rgb(255, 0, 0); stroke-opacity: 1; stroke-width: 2px; opacity: 1;"/><path class="js-line" d="M116.67,303.37L117.24,303.8L117.36,303.72L117.47,303.03L118.16,303.42L118.27,301.7L118.84,303.7L119.07,303.63L119.18,303.55L119.3,301.5L119.53,303.63L119.87,303.17L119.98,303.29L120.56,303.63L120.67,303.08L120.78,302.09L121.47,302.52L121.81,302.18L121.93,295.57L122.84,302.78L122.95,302.97L125.01,303.42L125.13,303.32L126.5,303.1L126.61,303.08L128.55,302.8L128.67,302.98L129.7,302.86L129.81,302.88L130.38,302.71L130.5,299.64L130.95,299.03L131.18,302.9L131.3,302.79L131.41,302.53L131.52,278.13L132.1,302.32L132.21,299.59L133.12,303.28L133.24,303.36L133.58,303.62L133.7,270.26L133.81,207.55" style="vector-effect: non-scaling-stroke; fill: none; stroke: rgb(255, 0, 0); stroke-opacity: 1; stroke-width: 2px; opacity: 1;"/><path class="js-line" d="M169.23,303.97L173.12,303.38L173.23,303.24L174.26,303.52L174.38,303.39L179.63,303.61L179.75,303.46L182.38,303.82L182.49,303.21L183.29,303.8L183.4,303.8L184.43,303.03L184.55,303.14L184.66,303.03L184.77,303.27L185.35,302.74L185.46,302.92L186.37,303.42L186.49,303.32L186.6,303.37L187.4,303.42L187.52,303.08L187.63,303.01L188.09,303.75L188.43,303.06L188.55,303L188.77,303.26L189.12,303.1L189.23,303.39L190.15,303.34L190.26,303.46L191.29,302.56L191.4,303.62L193,303.63L193.12,303.39L194.37,303.49L194.49,303.52L199.29,303.18L199.4,302.81L199.74,270.87" style="vector-effect: non-scaling-stroke; fill: none; stroke: rgb(255, 0, 0); stroke-opacity: 1; stroke-width: 2px; opacity: 1;"/><path class="js-line" d="M265.22,303.04L266.02,302.54L266.25,303.17L266.36,303.44L267.28,303.77L267.39,303.79L269.79,303.36L269.91,303.55L271.51,303.67L271.62,303.51L272.53,302.74L272.65,303.1L272.76,303.39L273.91,303.54" style="vector-effect: non-scaling-stroke; fill: none; stroke: rgb(255, 0, 0); stroke-opacity: 1; stroke-width: 2px; opacity: 1;"/><path class="js-line" d="M300.3,303.87L306.7,303.48L306.82,303.17L307.04,287.37L307.39,303.83L307.5,303.83L307.62,303.85L308.53,303.66L308.64,273.2L309.33,303.55L309.44,303.23L309.56,303.65L309.79,303.71L309.9,301.32L310.01,300.21L310.47,302.89L310.59,302.81L311.27,302.75L311.39,302.85L311.5,302.88L312.3,302.75L312.41,302.22L312.53,302.47L312.87,301.68L312.99,300.69L313.1,301.29L313.33,298.6L313.44,296.36L313.67,302.43L314.24,300.38L314.36,302.8L316.41,302.84L316.53,302.9L318.47,303.45L318.59,303.55L320.87,303.83L320.98,303.83L325.56,303.24L325.67,302.92L326.47,302.91L326.58,302.27L326.81,302.96L326.93,301.7L327.04,275.5L327.73,303.3L327.84,303.06L327.96,303.04L331.04,302.97L331.15,302.96L331.84,303.01L331.95,303.27L332.87,303.05L332.98,303.03L333.21,302.88L333.33,300.13L333.44,287.51L334.01,302.06L334.13,302.31L335.61,302.2L335.73,302.43L336.41,302.25L336.53,302.68L336.64,303.03L336.98,302.48L337.21,302.47L337.33,301.7L337.67,269.17L337.9,287.98L338.01,295.74L338.24,302.6L338.47,291.54L338.81,301.06L338.93,301.14L339.84,302.33L339.95,301.76L340.07,301.65L340.75,302.03L340.87,301.91L340.98,301.43L342.24,301.48L342.35,301.99L343.15,301.36L343.27,301.57L343.38,301.85L343.61,301.17L343.72,299.63L343.95,301.46L344.18,283.84L344.52,295.18L344.64,297.42L344.75,299.51L344.87,281.47L344.98,287.54L345.21,261.22L345.32,262.88L345.9,289.78L346.12,274.07L346.24,283.71L346.35,288.24L346.81,276.7L346.92,282.28L347.04,285.54L347.61,255.93L347.95,267.99L348.07,269.12L348.18,262.29L348.52,271.37L348.64,267.3L348.75,277.75L349.32,296.28L349.78,294.91L349.9,293.73L350.92,289.46L351.04,289.95L351.15,290.74L351.84,298.62L352.29,296.58L352.41,296.59L352.87,295.63L353.21,296.14L353.32,295.99L354.69,298.19L354.81,297.95L355.72,301.45L355.95,301.22L356.07,301.29L357.32,302.04L357.44,302.07L358.47,302.64L358.58,302.45L358.92,302.46L359.04,297.35L359.84,303.16L359.95,303.17L362.92,303.32L363.04,302.9L363.26,294.41L363.38,302.48L363.49,302.27L363.61,297.5L363.72,301.99L363.84,297.39L364.41,301.08L364.52,301.14L364.98,299.24L365.21,300.04L365.32,300.78L365.44,301.56L365.89,300.5L366.01,300.72L366.12,300.67L367.04,302.34L367.15,302.23L367.26,299.75L367.38,290.72L367.95,303.04L368.06,303.43L368.18,303.17L368.75,303.51L368.86,303.52L369.09,303.74" style="vector-effect: non-scaling-stroke; fill: none; stroke: rgb(255, 0, 0); stroke-opacity: 1; stroke-width: 2px; opacity: 1;"/><path class="js-line" d="M370.01,303.46L370.46,303.55" style="vector-effect: non-scaling-stroke; fill: none; stroke: rgb(255, 0, 0); stroke-opacity: 1; stroke-width: 2px; opacity: 1;"/><path class="js-line" d="M370.69,303.67L371.95,303.68L372.06,303.52L373.21,303.59L373.32,303.62L374.23,304L374.35,303.88L374.69,301.13L375.15,303.35L375.26,303.22L375.95,303.65L376.06,302.97L376.52,303.61" style="vector-effect: non-scaling-stroke; fill: none; stroke: rgb(255, 0, 0); stroke-opacity: 1; stroke-width: 2px; opacity: 1;"/><path class="js-line" d="M376.86,303.61L377.09,302.29L377.55,303.05L377.66,303.03L379.49,303.25L379.61,302.15L379.83,302.85L379.95,301.97L380.06,293.66L380.75,299.89L380.86,298.06L380.98,297.38L381.09,297.79L381.21,278.33L381.32,275.09L381.55,287.37L381.66,289.25L382.46,295.15L382.58,292.68L382.69,292.26L383.03,295.2" style="vector-effect: non-scaling-stroke; fill: none; stroke: rgb(255, 0, 0); stroke-opacity: 1; stroke-width: 2px; opacity: 1;"/><path class="js-line" d="M383.38,289.06L383.49,289.45L383.6,287.66L383.72,286.23L384.06,280.41L384.52,283.17L384.63,283.94L384.75,279.77L385.32,285.71L385.43,286.49L385.66,286.39L385.78,288.34L387.15,294.88L387.26,294.67L387.83,296.33L387.95,292.98L388.18,297.79" style="vector-effect: non-scaling-stroke; fill: none; stroke: rgb(255, 0, 0); stroke-opacity: 1; stroke-width: 2px; opacity: 1;"/><path class="js-line" d="M388.4,298.6L388.52,298.84L388.63,297.54L388.75,296.63L389.32,291.03L389.43,280.69L389.66,16L390.12,223.4L390.23,235.14L390.46,249.14L390.8,238.86L390.92,231.06L391.15,243.87" style="vector-effect: non-scaling-stroke; fill: none; stroke: rgb(255, 0, 0); stroke-opacity: 1; stroke-width: 2px; opacity: 1;"/><path class="js-line" d="M391.38,284.49L391.6,284.22L391.72,284.64L391.83,283.05L392.06,283.9L392.18,282.51L392.29,280.57L392.52,246.51L392.98,249.45" style="vector-effect: non-scaling-stroke; fill: none; stroke: rgb(255, 0, 0); stroke-opacity: 1; stroke-width: 2px; opacity: 1;"/><path class="js-line" d="M393.32,284.63L393.43,285.75" style="vector-effect: non-scaling-stroke; fill: none; stroke: rgb(255, 0, 0); stroke-opacity: 1; stroke-width: 2px; opacity: 1;"/><path class="js-line" d="M393.89,295.05L394.23,297.23L394.46,288.01L394.57,295.32L394.69,295.1L394.8,295.35L394.92,292.92L395.26,294.07L395.37,293.3L395.49,292.79L395.95,287.54L396.06,290.67L396.17,294.46L396.52,292.72L396.63,291.91L396.75,290.93L397.09,292.89L397.2,295.6L398.12,300.38L398.23,300.89L399.37,303.04L399.49,303L399.6,302.46L400.52,303.71L400.63,303.71L401.09,301.64L401.55,302.45L401.66,302.16L402,298.45L402.35,302.31L402.46,302.17L404.29,301.89L404.4,302.18L404.52,302.07L404.74,302.69L404.86,302.82L405.09,302.62L405.2,273.56L406.12,302.73L406.23,302.77L407.72,302.88L407.83,187.5L408.63,301.68L408.74,302.05L409.09,302.52L409.2,302.42L409.32,301.46L409.43,300.37L410,301.66L410.12,301.73L410.23,299.44L410.46,301.79L410.8,301.75L410.92,301.67L413.54,302.56L413.66,301.67L414.34,302.55L414.57,302.35L414.69,302.17L414.8,301.8L415.03,302.35L415.37,302.3L415.49,302.28L415.94,302.31L416.06,302.02L416.17,301.71L416.29,292.85L416.74,302.04L416.86,302.03L416.97,302.03L418.69,301.15L418.8,301.16L419.37,301.08L419.49,300.84L420.29,300.94L420.4,298.14L420.51,291.77L421.09,299.78L421.2,299.57L422.11,300.4L422.23,300.04L423.6,298.53L423.71,298.7L423.83,298.62L423.94,298.85L424.06,298.04L424.17,297.99L424.29,294.2L424.74,299.81L425.2,299.09L425.31,196.78L425.43,178.71L425.54,266.31L425.66,69.58L426.34,285" style="vector-effect: non-scaling-stroke; fill: none; stroke: rgb(255, 0, 0); stroke-opacity: 1; stroke-width: 2px; opacity: 1;"/></g><g class="points"/><g class="text"/></g></g></g><g class="overplot"/><path class="xlines-above crisp" d="M0,0" style="fill: none;"/><path class="ylines-above crisp" d="M0,0" style="fill: none;"/><g class="overlines-above"/><g class="xaxislayer-above"><g class="xtick"><text text-anchor="middle" x="0" y="433" transform="translate(246.95,0)" style="font-family: 'Open Sans', verdana, arial, sans-serif; font-size: 12px; fill: rgb(42, 63, 95); fill-opacity: 1; white-space: pre; opacity: 1;">2005</text></g><g class="xtick"><text text-anchor="middle" x="0" y="433" style="font-family: 'Open Sans', verdana, arial, sans-serif; font-size: 12px; fill: rgb(42, 63, 95); fill-opacity: 1; white-space: pre; opacity: 1;" transform="translate(455.61,0)">2010</text></g><g class="xtick"><text text-anchor="middle" x="0" y="433" style="font-family: 'Open Sans', verdana, arial, sans-serif; font-size: 12px; fill: rgb(42, 63, 95); fill-opacity: 1; white-space: pre; opacity: 1;" transform="translate(664.26,0)">2015</text></g><g class="xtick"><text text-anchor="middle" x="0" y="433" style="font-family: 'Open Sans', verdana, arial, sans-serif; font-size: 12px; fill: rgb(42, 63, 95); fill-opacity: 1; white-space: pre; opacity: 1;" transform="translate(872.92,0)">2020</text></g></g><g class="yaxislayer-above"><g class="ytick"><text text-anchor="end" x="79" y="4.199999999999999" transform="translate(0,404)" style="font-family: 'Open Sans', verdana, arial, sans-serif; font-size: 12px; fill: rgb(42, 63, 95); fill-opacity: 1; white-space: pre; opacity: 1;">0</text></g><g class="ytick"><text text-anchor="end" x="79" y="4.199999999999999" style="font-family: 'Open Sans', verdana, arial, sans-serif; font-size: 12px; fill: rgb(42, 63, 95); fill-opacity: 1; white-space: pre; opacity: 1;" transform="translate(0,360.52)">2</text></g><g class="ytick"><text text-anchor="end" x="79" y="4.199999999999999" style="font-family: 'Open Sans', verdana, arial, sans-serif; font-size: 12px; fill: rgb(42, 63, 95); fill-opacity: 1; white-space: pre; opacity: 1;" transform="translate(0,317.03999999999996)">4</text></g><g class="ytick"><text text-anchor="end" x="79" y="4.199999999999999" style="font-family: 'Open Sans', verdana, arial, sans-serif; font-size: 12px; fill: rgb(42, 63, 95); fill-opacity: 1; white-space: pre; opacity: 1;" transform="translate(0,273.56)">6</text></g><g class="ytick"><text text-anchor="end" x="79" y="4.199999999999999" style="font-family: 'Open Sans', verdana, arial, sans-serif; font-size: 12px; fill: rgb(42, 63, 95); fill-opacity: 1; white-space: pre; opacity: 1;" transform="translate(0,230.08)">8</text></g><g class="ytick"><text text-anchor="end" x="79" y="4.199999999999999" style="font-family: 'Open Sans', verdana, arial, sans-serif; font-size: 12px; fill: rgb(42, 63, 95); fill-opacity: 1; white-space: pre; opacity: 1;" transform="translate(0,186.59)">10</text></g><g class="ytick"><text text-anchor="end" x="79" y="4.199999999999999" style="font-family: 'Open Sans', verdana, arial, sans-serif; font-size: 12px; fill: rgb(42, 63, 95); fill-opacity: 1; white-space: pre; opacity: 1;" transform="translate(0,143.11)">12</text></g></g><g class="overaxes-above"/></g></g><g class="polarlayer"/><g class="smithlayer"/><g class="ternarylayer"/><g class="geolayer"/><g class="funnelarealayer"/><g class="pielayer"/><g class="iciclelayer"/><g class="treemaplayer"/><g class="sunburstlayer"/><g class="glimages"/><defs id="topdefs-e9155c"><g class="clips"/></defs><g class="layer-above"><g class="imagelayer"/><g class="shapelayer"/></g><g class="infolayer"><g class="g-gtitle"><text class="gtitle" x="50" y="50" text-anchor="start" dy="0em" style="font-family: 'Open Sans', verdana, arial, sans-serif; font-size: 17px; fill: rgb(42, 63, 95); opacity: 1; font-weight: normal; white-space: pre;">Aforament - Castellar del Vallès--a10.csv</text></g><g class="g-xtitle"><text class="xtitle" x="500" y="460.8" text-anchor="middle" style="font-family: 'Open Sans', verdana, arial, sans-serif; font-size: 14px; fill: rgb(42, 63, 95); opacity: 1; font-weight: normal; white-space: pre;">Data</text></g><g class="g-ytitle"><text class="ytitle" transform="rotate(-90,38.934375,260)" x="38.934375" y="260" text-anchor="middle" style="font-family: 'Open Sans', verdana, arial, sans-serif; font-size: 14px; fill: rgb(42, 63, 95); opacity: 1; font-weight: normal; white-space: pre;">Cabal (m3/s)</text></g></g></svg>