<svg class="main-svg" xmlns="http://www.w3.org/2000/svg" xmlns:xlink="http://www.w3.org/1999/xlink" width="1000" height="500" style="" viewBox="0 0 1000 500"><rect x="0" y="0" width="1000" height="500" style="fill: rgb(255, 255, 255); fill-opacity: 1;"/><defs id="defs-a57fdc"><g class="clips"><clipPath id="clipa57fdcxyplot" class="plotclip"><rect width="840" height="320"/></clipPath><clipPath class="axesclip" id="clipa57fdcx"><rect x="80" y="0" width="840" height="500"/></clipPath><clipPath class="axesclip" id="clipa57fdcy"><rect x="0" y="100" width="1000" height="320"/></clipPath><clipPath class="axesclip" id="clipa57fdcxy"><rect x="80" y="100" width="840" height="320"/></clipPath></g><g class="gradients"/><g class="patterns"/></defs><g class="bglayer"><rect class="bg" x="80" y="100" width="840" height="320" style="fill: rgb(229, 236, 246); fill-opacity: 1; stroke-width: 0;"/></g><g class="layer-below"><g class="imagelayer"/><g class="shapelayer"/></g><g class="cartesianlayer"><g class="subplot xy"><g class="layer-subplot"><g class="shapelayer"/><g class="imagelayer"/></g><g class="minor-gridlayer"><g class="x"/><g class="y"/></g><g class="gridlayer"><g class="x"><path class="xgrid crisp" transform="translate(246.95,0)" d="M0,100v320" style="stroke: rgb(255, 255, 255); stroke-opacity: 1; stroke-width: 1px;"/><path class="xgrid crisp" transform="translate(455.61,0)" d="M0,100v320" style="stroke: rgb(255, 255, 255); stroke-opacity: 1; stroke-width: 1px;"/><path class="xgrid crisp" transform="translate(664.26,0)" d="M0,100v320" style="stroke: rgb(255, 255, 255); stroke-opacity: 1; stroke-width: 1px;"/><path class="xgrid crisp" transform="translate(872.92,0)" d="M0,100v320" style="stroke: rgb(255, 255, 255); stroke-opacity: 1; stroke-width: 1px;"/></g><g class="y"><path class="ygrid crisp" transform="translate(0,351.75)" d="M80,0h840" style="stroke: rgb(255, 255, 255); stroke-opacity: 1; stroke-width: 1px;"/><path class="ygrid crisp" transform="translate(0,296.77)" d="M80,0h840" style="stroke: rgb(255, 255, 255); stroke-opacity: 1; stroke-width: 1px;"/><path class="ygrid crisp" transform="translate(0,241.8)" d="M80,0h840" style="stroke: rgb(255, 255, 255); stroke-opacity: 1; stroke-width: 1px;"/><path class="ygrid crisp" transform="translate(0,186.82)" d="M80,0h840" style="stroke: rgb(255, 255, 255); stroke-opacity: 1; stroke-width: 1px;"/><path class="ygrid crisp" transform="translate(0,131.85)" d="M80,0h840" style="stroke: rgb(255, 255, 255); stroke-opacity: 1; stroke-width: 1px;"/></g></g><g class="zerolinelayer"><path class="yzl zl crisp" transform="translate(0,406.72)" d="M80,0h840" style="stroke: rgb(255, 255, 255); stroke-opacity: 1; stroke-width: 2px;"/></g><path class="xlines-below"/><path class="ylines-below"/><g class="overlines-below"/><g class="xaxislayer-below"/><g class="yaxislayer-below"/><g class="overaxes-below"/><g class="plot" transform="translate(80,100)" clip-path="url(#clipa57fdcxyplot)"><g class="scatterlayer mlayer"><g class="trace scatter trace779e32" style="stroke-miterlimit: 2; opacity: 1;"><g class="fills"/><g class="errorbars"/><g class="lines"><path class="js-line" d="M324.18,299.79L325.1,300.24L325.21,298.87L325.33,299.06L325.44,301.25L326.36,302.29L326.47,298.56L326.7,300.09" style="vector-effect: non-scaling-stroke; fill: none; stroke: rgb(255, 0, 0); stroke-opacity: 1; stroke-width: 2px; opacity: 1;"/><path class="js-line" d="M326.93,299L327.04,286.66L327.5,301.5L327.61,301.48L327.73,301.48L328.07,301.31L328.18,298.13L328.76,300.47L328.98,300.37L329.1,300.38L330.13,300.33L330.24,300.67L330.58,301.17L331.04,300.73L331.15,300.78L331.27,296.73L331.73,300.82L331.84,299.76L331.95,300.44L333.1,300.69L333.21,154.16L333.33,58.03L333.78,278.22L333.9,275.03L334.7,287.21L334.81,278.13L334.93,276.27L335.04,280.75L335.15,289.5L335.27,293.65L335.61,288.24L335.84,290.06L335.95,288.11L336.3,296.87L336.64,296.51L336.75,283.16L337.1,294.48L337.44,233.26L337.55,276.09L337.67,262.82L338.13,294.73L338.24,295.19L338.47,283.93L338.93,296.97L339.04,296.41L339.27,286.8L339.5,296.94L339.84,293.55L339.95,292.88L340.18,290.8L340.3,282.13L340.75,278.03L340.87,286.74L340.98,291.38L341.1,296.65L341.55,294.27L341.67,287.6L341.78,283.57L342.12,296.4L342.24,295.25L342.81,293.15L343.04,294.05" style="vector-effect: non-scaling-stroke; fill: none; stroke: rgb(255, 0, 0); stroke-opacity: 1; stroke-width: 2px; opacity: 1;"/><path class="js-line" d="M343.38,297.55L343.5,297.17" style="vector-effect: non-scaling-stroke; fill: none; stroke: rgb(255, 0, 0); stroke-opacity: 1; stroke-width: 2px; opacity: 1;"/><path class="js-line" d="M344.07,266.77L344.41,293.04L344.87,288.55L344.98,282.53L345.44,276.63L345.78,295.01L345.9,292.54L346.01,290.03L346.12,290.71L346.35,288.02L346.58,289.11L346.7,287.51L347.04,267.24L347.15,284.45L347.61,258.92L347.84,274.28L347.95,290.08L348.18,300.16L348.64,293.02L348.75,292.78L348.87,292.01" style="vector-effect: non-scaling-stroke; fill: none; stroke: rgb(255, 0, 0); stroke-opacity: 1; stroke-width: 2px; opacity: 1;"/><path class="js-line" d="M349.1,273.73L350.01,298.74L350.12,298.09L350.24,297.95L350.35,295.92L350.7,272.15L350.81,283.85L350.92,299.77L351.5,300.49L351.61,297.34L351.72,295.2L352.52,298.97L352.64,298.06L352.75,298.07L352.87,299.11" style="vector-effect: non-scaling-stroke; fill: none; stroke: rgb(255, 0, 0); stroke-opacity: 1; stroke-width: 2px; opacity: 1;"/><path class="js-line" d="M353.09,298.49L353.21,293.32L353.32,297.17" style="vector-effect: non-scaling-stroke; fill: none; stroke: rgb(255, 0, 0); stroke-opacity: 1; stroke-width: 2px; opacity: 1;"/><path class="js-line" d="M353.55,298.91L353.78,295.41L353.89,297.01L354.01,265.89L354.58,299.47L354.81,298.25" style="vector-effect: non-scaling-stroke; fill: none; stroke: rgb(255, 0, 0); stroke-opacity: 1; stroke-width: 2px; opacity: 1;"/><path class="js-line" d="M355.04,284.95L355.15,298.23L355.38,293.52" style="vector-effect: non-scaling-stroke; fill: none; stroke: rgb(255, 0, 0); stroke-opacity: 1; stroke-width: 2px; opacity: 1;"/><path class="js-line" d="M355.61,298.75L355.72,299.44" style="vector-effect: non-scaling-stroke; fill: none; stroke: rgb(255, 0, 0); stroke-opacity: 1; stroke-width: 2px; opacity: 1;"/><path class="js-line" d="M356.18,301.34L356.41,299L356.64,299.28" style="vector-effect: non-scaling-stroke; fill: none; stroke: rgb(255, 0, 0); stroke-opacity: 1; stroke-width: 2px; opacity: 1;"/><path class="js-line" d="M356.98,299.77L357.21,299.62L357.32,300.05L357.44,300.44L357.78,300.78L358.01,300.57" style="vector-effect: non-scaling-stroke; fill: none; stroke: rgb(255, 0, 0); stroke-opacity: 1; stroke-width: 2px; opacity: 1;"/><path class="js-line" d="M358.24,298.91L358.35,300" style="vector-effect: non-scaling-stroke; fill: none; stroke: rgb(255, 0, 0); stroke-opacity: 1; stroke-width: 2px; opacity: 1;"/><path class="js-line" d="M359.38,301.18L359.49,301.96" style="vector-effect: non-scaling-stroke; fill: none; stroke: rgb(255, 0, 0); stroke-opacity: 1; stroke-width: 2px; opacity: 1;"/><path class="js-line" d="M359.72,301.78L359.84,301.29L360.18,302.55L360.29,302.51L360.41,302.51L360.64,301.51" style="vector-effect: non-scaling-stroke; fill: none; stroke: rgb(255, 0, 0); stroke-opacity: 1; stroke-width: 2px; opacity: 1;"/><path class="js-line" d="M360.87,299.8L360.98,301.47" style="vector-effect: non-scaling-stroke; fill: none; stroke: rgb(255, 0, 0); stroke-opacity: 1; stroke-width: 2px; opacity: 1;"/><path class="js-line" d="M361.67,302.44L361.78,300.37" style="vector-effect: non-scaling-stroke; fill: none; stroke: rgb(255, 0, 0); stroke-opacity: 1; stroke-width: 2px; opacity: 1;"/><path class="js-line" d="M362.12,301.86L362.24,302.15" style="vector-effect: non-scaling-stroke; fill: none; stroke: rgb(255, 0, 0); stroke-opacity: 1; stroke-width: 2px; opacity: 1;"/><path class="js-line" d="M362.58,302.46L362.81,302.56" style="vector-effect: non-scaling-stroke; fill: none; stroke: rgb(255, 0, 0); stroke-opacity: 1; stroke-width: 2px; opacity: 1;"/><path class="js-line" d="M363.04,300.9L363.15,298.8L363.26,302.23" style="vector-effect: non-scaling-stroke; fill: none; stroke: rgb(255, 0, 0); stroke-opacity: 1; stroke-width: 2px; opacity: 1;"/><path class="js-line" d="M363.49,302.5L363.61,298.11L363.72,302.68" style="vector-effect: non-scaling-stroke; fill: none; stroke: rgb(255, 0, 0); stroke-opacity: 1; stroke-width: 2px; opacity: 1;"/><path class="js-line" d="M364.18,302.73L365.32,302.84" style="vector-effect: non-scaling-stroke; fill: none; stroke: rgb(255, 0, 0); stroke-opacity: 1; stroke-width: 2px; opacity: 1;"/><path class="js-line" d="M366.24,302.84L366.58,302.83" style="vector-effect: non-scaling-stroke; fill: none; stroke: rgb(255, 0, 0); stroke-opacity: 1; stroke-width: 2px; opacity: 1;"/><path class="js-line" d="M367.38,224.68L367.61,300.39" style="vector-effect: non-scaling-stroke; fill: none; stroke: rgb(255, 0, 0); stroke-opacity: 1; stroke-width: 2px; opacity: 1;"/><path class="js-line" d="M367.84,300.58L368.18,302.77" style="vector-effect: non-scaling-stroke; fill: none; stroke: rgb(255, 0, 0); stroke-opacity: 1; stroke-width: 2px; opacity: 1;"/><path class="js-line" d="M368.52,301.51L368.75,301.47L368.86,300.66L369.09,291.57L369.21,300.96" style="vector-effect: non-scaling-stroke; fill: none; stroke: rgb(255, 0, 0); stroke-opacity: 1; stroke-width: 2px; opacity: 1;"/><path class="js-line" d="M369.44,301L370.69,302.31L370.81,302.31L371.38,302.28L371.49,301.72L371.61,302.23" style="vector-effect: non-scaling-stroke; fill: none; stroke: rgb(255, 0, 0); stroke-opacity: 1; stroke-width: 2px; opacity: 1;"/><path class="js-line" d="M371.84,302.26L371.95,299.29L372.18,302.3L372.29,302.28" style="vector-effect: non-scaling-stroke; fill: none; stroke: rgb(255, 0, 0); stroke-opacity: 1; stroke-width: 2px; opacity: 1;"/><path class="js-line" d="M372.52,302.31L373.09,302.35" style="vector-effect: non-scaling-stroke; fill: none; stroke: rgb(255, 0, 0); stroke-opacity: 1; stroke-width: 2px; opacity: 1;"/><path class="js-line" d="M373.32,302.33L374.35,302.35" style="vector-effect: non-scaling-stroke; fill: none; stroke: rgb(255, 0, 0); stroke-opacity: 1; stroke-width: 2px; opacity: 1;"/><path class="js-line" d="M374.58,302.31L374.69,301.8L375.26,302.5L375.38,302.49L375.95,302.41L376.06,300.93L376.29,298.18L376.86,302.6L376.98,302.49" style="vector-effect: non-scaling-stroke; fill: none; stroke: rgb(255, 0, 0); stroke-opacity: 1; stroke-width: 2px; opacity: 1;"/><path class="js-line" d="M377.32,302.35L378.12,302.58" style="vector-effect: non-scaling-stroke; fill: none; stroke: rgb(255, 0, 0); stroke-opacity: 1; stroke-width: 2px; opacity: 1;"/><path class="js-line" d="M378.58,302.59L379.03,302.15L379.15,301.66L379.38,302.33L379.49,299.67L379.83,301.71L379.95,295.94L380.06,292.2L380.52,300.71L380.63,300.77L381.21,290.66" style="vector-effect: non-scaling-stroke; fill: none; stroke: rgb(255, 0, 0); stroke-opacity: 1; stroke-width: 2px; opacity: 1;"/><path class="js-line" d="M381.78,300.03L382.23,300.57" style="vector-effect: non-scaling-stroke; fill: none; stroke: rgb(255, 0, 0); stroke-opacity: 1; stroke-width: 2px; opacity: 1;"/><path class="js-line" d="M382.46,301.01L383.26,285.22" style="vector-effect: non-scaling-stroke; fill: none; stroke: rgb(255, 0, 0); stroke-opacity: 1; stroke-width: 2px; opacity: 1;"/><path class="js-line" d="M383.49,294.57L383.72,294.06L384.18,297.79L384.29,298.31L384.4,297.56" style="vector-effect: non-scaling-stroke; fill: none; stroke: rgb(255, 0, 0); stroke-opacity: 1; stroke-width: 2px; opacity: 1;"/><path class="js-line" d="M384.63,296.62L384.75,295.01L385.09,298.78L385.2,299.26L386.12,300.1" style="vector-effect: non-scaling-stroke; fill: none; stroke: rgb(255, 0, 0); stroke-opacity: 1; stroke-width: 2px; opacity: 1;"/><path class="js-line" d="M386.35,299.54L386.58,299.36L386.69,298.29L387.15,296.99L387.38,298.85L387.49,298.9L387.6,298.14L388.06,299.71L388.18,299.99L388.52,299.64L388.86,300.11L388.98,300.15L389.2,299.9L389.32,297.33L389.66,272.46L389.78,281.1L389.89,288.04L390.46,294.81L390.58,291.77L390.69,276.55L391.6,296L391.72,296.06L392.06,296.83L392.29,296.62L392.4,293.1L393.32,300.05L393.43,299.51L393.55,299.63" style="vector-effect: non-scaling-stroke; fill: none; stroke: rgb(255, 0, 0); stroke-opacity: 1; stroke-width: 2px; opacity: 1;"/><path class="js-line" d="M393.77,300.16L393.89,300.07L394,300.64L394.12,300.71L394.23,298L394.69,299.81L394.8,297.34L394.92,295.1L395.26,299.77L395.37,300.84L395.72,301.5L395.83,301.2L395.95,262.47L396.52,297.74L396.75,296.79L396.86,297.54L398.46,301.71L398.57,301.74L399.83,301.97L399.95,297.79L400.63,301.69L400.75,296.82L400.97,300.75L401.09,295.44L401.55,299.61L401.66,300.05L401.89,299.17L402.69,301.11L402.8,301.05L402.92,300.98L403.49,300.86" style="vector-effect: non-scaling-stroke; fill: none; stroke: rgb(255, 0, 0); stroke-opacity: 1; stroke-width: 2px; opacity: 1;"/><path class="js-line" d="M403.72,300.97L403.95,300.91L404.06,290.97L404.86,300.59L404.97,300.75L405.2,284.87L405.66,298.19L405.77,300.01L406,289.33L406.46,299.56L406.57,299.65L407.6,300.5" style="vector-effect: non-scaling-stroke; fill: none; stroke: rgb(255, 0, 0); stroke-opacity: 1; stroke-width: 2px; opacity: 1;"/><path class="js-line" d="M407.83,288.67L407.94,257.29L408.52,281.83L408.63,284.91L408.86,294.76" style="vector-effect: non-scaling-stroke; fill: none; stroke: rgb(255, 0, 0); stroke-opacity: 1; stroke-width: 2px; opacity: 1;"/><path class="js-line" d="M409.09,293.86L409.43,293.95L409.54,295.41L410,297.26L410.23,295.01L410.34,293.48L410.46,294.57L410.8,292.68L410.92,294.24L411.03,291.62L411.49,294.35L411.83,293.58L411.94,293.15L412.06,293.52L412.17,288.06L412.29,283.57L412.52,294.96L412.74,294.74L412.86,294.51L413.54,294L413.66,287L414.46,294.53L414.57,294.41L414.69,294.25L415.03,294.83L415.14,294.81L415.26,294.85L415.49,294.84L415.6,293.8L416.17,288.56L416.29,282.1L416.86,292.84L417.09,292.2L417.2,292.26L418,292.95L418.11,293.07L418.8,293.45L418.91,293.72L419.14,293.53L419.6,293.99L419.71,294.16L420.06,294.25L420.17,295.08L420.4,294.5L420.51,277.17L421.09,292.81L421.31,292.47L421.43,292.7L422.57,293.46L422.69,291.42L423.6,293.97L423.71,293.98L424.17,295.64L424.4,294.4L424.51,294.43L425.2,296.17L425.31,209.61L425.43,242.2L425.54,183.1L425.66,16L426.57,282.43L426.68,287.53L427.14,272L427.26,274.9L427.37,285.94L427.94,282.29L428.28,283.59L428.4,283.76L428.63,283.63L428.74,284.25L428.86,284.67L429.54,285.98L429.66,285.47L429.77,284.63L429.88,285.05L430,282.79L430.11,276.48L430.57,286.41L430.68,248.5L431.37,288.42L431.6,284.66L431.71,283.79L432.06,285.81L432.17,284.72L432.28,281.81L432.4,281.99L432.51,240.93L433.2,287.2L433.54,287.09L433.66,287.21L434,285.71L434.11,287.02L434.23,287.95L434.46,286.72L434.57,287.77" style="vector-effect: non-scaling-stroke; fill: none; stroke: rgb(255, 0, 0); stroke-opacity: 1; stroke-width: 2px; opacity: 1;"/><path class="js-line" d="M755.21,299.1L756.93,299.79L757.04,300.09L757.15,299.95L757.27,298.51L758.75,300.96L758.87,300.98L760.58,303.17L760.7,303.18L761.5,303.24L761.61,302.69L761.72,301.9L762.18,303.25L762.3,302.67L762.41,303.25L763.9,303.31L764.01,300.34L764.81,303.34L764.92,303.34L765.15,302.66L765.72,303.05L765.84,303.29L766.07,301.86L766.52,303.3L766.64,303.32L766.87,298.94L766.98,303.34L767.32,303.26L767.44,303.26L767.67,301.06L767.9,302.15" style="vector-effect: non-scaling-stroke; fill: none; stroke: rgb(255, 0, 0); stroke-opacity: 1; stroke-width: 2px; opacity: 1;"/><path class="js-line" d="M768.35,303.64L768.81,303.51" style="vector-effect: non-scaling-stroke; fill: none; stroke: rgb(255, 0, 0); stroke-opacity: 1; stroke-width: 2px; opacity: 1;"/><path class="js-line" d="M769.84,303.86L770.18,303.52L770.64,303.69L770.75,303.6L773.27,303.8L773.38,303.81L774.75,303.91L774.87,289.37L775.55,303.78L775.67,303.74L775.78,303.75L778.87,303.73L778.98,302.82L779.78,303.67L779.89,303.69L780.01,302.73L780.24,303.89L780.58,303.92L780.69,303.9L781.15,303.9L781.27,301.11L782.07,303.8L782.18,303.81L782.52,302.67L782.64,303.76L784.46,303.89L784.58,296.91L784.69,303.53L784.81,298.95L784.92,233.76L785.61,303.87L785.72,303.84L785.84,303.84L788.24,303.67L788.35,302.49L789.26,303.78L789.38,303.76L789.61,303.73L789.72,287.73L790.18,303.54L790.52,302.06L790.64,301.94L790.86,303.5L791.44,302.29L791.55,302.83L792.24,303.49L792.35,303.03L792.46,302.95L792.69,302.88L793.15,303.4L793.26,303.36L793.38,303.37L793.83,303.37L793.95,302.42L794.63,303.4L794.75,303.03L794.86,303.4L795.09,288.45L795.21,231.4L795.32,97.48L795.89,293.55L796.01,298.67L796.23,296.11L796.58,297.14L796.69,299.2L797.15,300.43L797.38,296.88L797.49,299.33L797.72,301.36L798.18,297.38L798.29,298.56L798.41,298.88L798.63,299.95L799.09,295.76L799.21,299.1L799.55,296.35L799.78,300.74L800.01,300.14L800.12,300.26L800.46,300.58L800.69,288.96L800.81,294.51L800.92,300.54L801.38,300.67L801.49,285.77L802.18,300.91L802.29,288.87L802.52,299.39L803.09,295.17L803.21,301.8L803.32,293.67L803.55,301.98L803.89,300.65L804,300.55L804.12,300.85L804.23,297.39L804.58,300.73L804.69,291.54L804.8,299.12L805.49,297.97L805.6,163.03L806.63,299.34L806.75,296.6L806.86,296.45L806.98,296.01L807.09,299.22L807.66,300.65L807.78,292.46L807.89,298.15L808,298.96L808.23,285.31L808.46,297.18L808.58,297.86L808.8,297.11L809.15,299.93L809.26,299.88L809.38,297.83L809.49,299.88L809.83,297.12L810.06,298.25L810.18,298.24L810.98,291.32L811.09,293.72L811.78,298.62L811.89,296.95L812,294.08L812.12,292.87L812.46,297.04L812.58,297.89L812.69,292.06L813.26,299.22L813.38,297.31L813.49,298.75L813.83,294.65L813.95,293.61L814.86,299.84L814.97,300.08L816,300.66L816.12,301.04L816.35,297.49L816.8,301.51L816.92,301.58L817.15,300.14L817.26,301.69L817.6,301.48L817.72,301.63L818.17,301.69L818.29,299.13L818.4,301.94L818.75,296.71L819.09,301.86L819.2,302.04L820,301.75L820.12,298.4L820.23,297.88L820.35,302.64L820.46,300.16L821.03,301.53L821.15,301.53L821.37,290.92L821.83,300.98L821.95,301.56L822.17,301.69L822.29,300.04L822.4,298.78L822.86,301.72L822.97,301.86L823.09,300.17L823.32,302.73L823.66,302.58L823.77,302.79L823.89,301.3L824.46,302.59L824.57,302.63L824.92,302.72L825.14,301.73L825.26,292.67L826.06,301.8L826.17,301.87L826.63,299.19L827.09,299.97L827.2,301.18L827.32,301.77L827.43,300.85L827.54,301.66" style="vector-effect: non-scaling-stroke; fill: none; stroke: rgb(255, 0, 0); stroke-opacity: 1; stroke-width: 2px; opacity: 1;"/><path class="js-line" d="M828,296.84L828.92,302.12L829.03,301.67L829.26,301.8L829.94,299.89L830.06,300.94L830.29,301.52L830.4,300.6L830.52,300.83L830.63,289.56L830.86,264.4L830.97,298.75" style="vector-effect: non-scaling-stroke; fill: none; stroke: rgb(255, 0, 0); stroke-opacity: 1; stroke-width: 2px; opacity: 1;"/><path class="js-line" d="M831.2,296.01L831.32,301.57L831.77,299.23L831.89,285.91" style="vector-effect: non-scaling-stroke; fill: none; stroke: rgb(255, 0, 0); stroke-opacity: 1; stroke-width: 2px; opacity: 1;"/><path class="js-line" d="M832.12,296.62L832.23,284.59L832.46,303.26L832.69,303.08" style="vector-effect: non-scaling-stroke; fill: none; stroke: rgb(255, 0, 0); stroke-opacity: 1; stroke-width: 2px; opacity: 1;"/><path class="js-line" d="M832.92,303.09L833.14,299.47" style="vector-effect: non-scaling-stroke; fill: none; stroke: rgb(255, 0, 0); stroke-opacity: 1; stroke-width: 2px; opacity: 1;"/><path class="js-line" d="M833.49,294.94L833.6,301.02" style="vector-effect: non-scaling-stroke; fill: none; stroke: rgb(255, 0, 0); stroke-opacity: 1; stroke-width: 2px; opacity: 1;"/><path class="js-line" d="M833.94,300.89L834.17,301.01" style="vector-effect: non-scaling-stroke; fill: none; stroke: rgb(255, 0, 0); stroke-opacity: 1; stroke-width: 2px; opacity: 1;"/><path class="js-line" d="M834.4,301.57L834.63,301.52" style="vector-effect: non-scaling-stroke; fill: none; stroke: rgb(255, 0, 0); stroke-opacity: 1; stroke-width: 2px; opacity: 1;"/><path class="js-line" d="M835.09,297L835.43,301.34L835.66,300.62" style="vector-effect: non-scaling-stroke; fill: none; stroke: rgb(255, 0, 0); stroke-opacity: 1; stroke-width: 2px; opacity: 1;"/><path class="js-line" d="M835.89,301.69L837.94,301.25L838.06,296.78L838.51,300.72L838.86,300.35L838.97,299.27L839.43,300.62L839.54,299.08L839.89,300.35" style="vector-effect: non-scaling-stroke; fill: none; stroke: rgb(255, 0, 0); stroke-opacity: 1; stroke-width: 2px; opacity: 1;"/></g><g class="points"/><g class="text"/></g></g></g><g class="overplot"/><path class="xlines-above crisp" d="M0,0" style="fill: none;"/><path class="ylines-above crisp" d="M0,0" style="fill: none;"/><g class="overlines-above"/><g class="xaxislayer-above"><g class="xtick"><text text-anchor="middle" x="0" y="433" transform="translate(246.95,0)" style="font-family: 'Open Sans', verdana, arial, sans-serif; font-size: 12px; fill: rgb(42, 63, 95); fill-opacity: 1; white-space: pre; opacity: 1;">2005</text></g><g class="xtick"><text text-anchor="middle" x="0" y="433" style="font-family: 'Open Sans', verdana, arial, sans-serif; font-size: 12px; fill: rgb(42, 63, 95); fill-opacity: 1; white-space: pre; opacity: 1;" transform="translate(455.61,0)">2010</text></g><g class="xtick"><text text-anchor="middle" x="0" y="433" style="font-family: 'Open Sans', verdana, arial, sans-serif; font-size: 12px; fill: rgb(42, 63, 95); fill-opacity: 1; white-space: pre; opacity: 1;" transform="translate(664.26,0)">2015</text></g><g class="xtick"><text text-anchor="middle" x="0" y="433" style="font-family: 'Open Sans', verdana, arial, sans-serif; font-size: 12px; fill: rgb(42, 63, 95); fill-opacity: 1; white-space: pre; opacity: 1;" transform="translate(872.92,0)">2020</text></g></g><g class="yaxislayer-above"><g class="ytick"><text text-anchor="end" x="79" y="4.199999999999999" transform="translate(0,406.72)" style="font-family: 'Open Sans', verdana, arial, sans-serif; font-size: 12px; fill: rgb(42, 63, 95); fill-opacity: 1; white-space: pre; opacity: 1;">0</text></g><g class="ytick"><text text-anchor="end" x="79" y="4.199999999999999" style="font-family: 'Open Sans', verdana, arial, sans-serif; font-size: 12px; fill: rgb(42, 63, 95); fill-opacity: 1; white-space: pre; opacity: 1;" transform="translate(0,351.75)">2</text></g><g class="ytick"><text text-anchor="end" x="79" y="4.199999999999999" style="font-family: 'Open Sans', verdana, arial, sans-serif; font-size: 12px; fill: rgb(42, 63, 95); fill-opacity: 1; white-space: pre; opacity: 1;" transform="translate(0,296.77)">4</text></g><g class="ytick"><text text-anchor="end" x="79" y="4.199999999999999" style="font-family: 'Open Sans', verdana, arial, sans-serif; font-size: 12px; fill: rgb(42, 63, 95); fill-opacity: 1; white-space: pre; opacity: 1;" transform="translate(0,241.8)">6</text></g><g class="ytick"><text text-anchor="end" x="79" y="4.199999999999999" style="font-family: 'Open Sans', verdana, arial, sans-serif; font-size: 12px; fill: rgb(42, 63, 95); fill-opacity: 1; white-space: pre; opacity: 1;" transform="translate(0,186.82)">8</text></g><g class="ytick"><text text-anchor="end" x="79" y="4.199999999999999" style="font-family: 'Open Sans', verdana, arial, sans-serif; font-size: 12px; fill: rgb(42, 63, 95); fill-opacity: 1; white-space: pre; opacity: 1;" transform="translate(0,131.85)">10</text></g></g><g class="overaxes-above"/></g></g><g class="polarlayer"/><g class="smithlayer"/><g class="ternarylayer"/><g class="geolayer"/><g class="funnelarealayer"/><g class="pielayer"/><g class="iciclelayer"/><g class="treemaplayer"/><g class="sunburstlayer"/><g class="glimages"/><defs id="topdefs-a57fdc"><g class="clips"/></defs><g class="layer-above"><g class="imagelayer"/><g class="shapelayer"/></g><g class="infolayer"><g class="g-gtitle"><text class="gtitle" x="50" y="50" text-anchor="start" dy="0em" style="font-family: 'Open Sans', verdana, arial, sans-serif; font-size: 17px; fill: rgb(42, 63, 95); opacity: 1; font-weight: normal; white-space: pre;">Aforament - Cornellà del Terri--a15.csv</text></g><g class="g-xtitle"><text class="xtitle" x="500" y="460.8" text-anchor="middle" style="font-family: 'Open Sans', verdana, arial, sans-serif; font-size: 14px; fill: rgb(42, 63, 95); opacity: 1; font-weight: normal; white-space: pre;">Data</text></g><g class="g-ytitle"><text class="ytitle" transform="rotate(-90,38.934375,260)" x="38.934375" y="260" text-anchor="middle" style="font-family: 'Open Sans', verdana, arial, sans-serif; font-size: 14px; fill: rgb(42, 63, 95); opacity: 1; font-weight: normal; white-space: pre;">Cabal (m3/s)</text></g></g></svg>