<svg class="main-svg" xmlns="http://www.w3.org/2000/svg" xmlns:xlink="http://www.w3.org/1999/xlink" width="1000" height="500" style="" viewBox="0 0 1000 500"><rect x="0" y="0" width="1000" height="500" style="fill: rgb(255, 255, 255); fill-opacity: 1;"/><defs id="defs-5bb959"><g class="clips"><clipPath id="clip5bb959xyplot" class="plotclip"><rect width="840" height="320"/></clipPath><clipPath class="axesclip" id="clip5bb959x"><rect x="80" y="0" width="840" height="500"/></clipPath><clipPath class="axesclip" id="clip5bb959y"><rect x="0" y="100" width="1000" height="320"/></clipPath><clipPath class="axesclip" id="clip5bb959xy"><rect x="80" y="100" width="840" height="320"/></clipPath></g><g class="gradients"/><g class="patterns"/></defs><g class="bglayer"><rect class="bg" x="80" y="100" width="840" height="320" style="fill: rgb(229, 236, 246); fill-opacity: 1; stroke-width: 0;"/></g><g class="layer-below"><g class="imagelayer"/><g class="shapelayer"/></g><g class="cartesianlayer"><g class="subplot xy"><g class="layer-subplot"><g class="shapelayer"/><g class="imagelayer"/></g><g class="minor-gridlayer"><g class="x"/><g class="y"/></g><g class="gridlayer"><g class="x"><path class="xgrid crisp" transform="translate(246.95,0)" d="M0,100v320" style="stroke: rgb(255, 255, 255); stroke-opacity: 1; stroke-width: 1px;"/><path class="xgrid crisp" transform="translate(455.61,0)" d="M0,100v320" style="stroke: rgb(255, 255, 255); stroke-opacity: 1; stroke-width: 1px;"/><path class="xgrid crisp" transform="translate(664.26,0)" d="M0,100v320" style="stroke: rgb(255, 255, 255); stroke-opacity: 1; stroke-width: 1px;"/><path class="xgrid crisp" transform="translate(872.92,0)" d="M0,100v320" style="stroke: rgb(255, 255, 255); stroke-opacity: 1; stroke-width: 1px;"/></g><g class="y"><path class="ygrid crisp" transform="translate(0,365.68)" d="M80,0h840" style="stroke: rgb(255, 255, 255); stroke-opacity: 1; stroke-width: 1px;"/><path class="ygrid crisp" transform="translate(0,327.37)" d="M80,0h840" style="stroke: rgb(255, 255, 255); stroke-opacity: 1; stroke-width: 1px;"/><path class="ygrid crisp" transform="translate(0,289.05)" d="M80,0h840" style="stroke: rgb(255, 255, 255); stroke-opacity: 1; stroke-width: 1px;"/><path class="ygrid crisp" transform="translate(0,250.74)" d="M80,0h840" style="stroke: rgb(255, 255, 255); stroke-opacity: 1; stroke-width: 1px;"/><path class="ygrid crisp" transform="translate(0,212.42000000000002)" d="M80,0h840" style="stroke: rgb(255, 255, 255); stroke-opacity: 1; stroke-width: 1px;"/><path class="ygrid crisp" transform="translate(0,174.1)" d="M80,0h840" style="stroke: rgb(255, 255, 255); stroke-opacity: 1; stroke-width: 1px;"/><path class="ygrid crisp" transform="translate(0,135.79)" d="M80,0h840" style="stroke: rgb(255, 255, 255); stroke-opacity: 1; stroke-width: 1px;"/></g></g><g class="zerolinelayer"><path class="yzl zl crisp" transform="translate(0,404)" d="M80,0h840" style="stroke: rgb(255, 255, 255); stroke-opacity: 1; stroke-width: 2px;"/></g><path class="xlines-below"/><path class="ylines-below"/><g class="overlines-below"/><g class="xaxislayer-below"/><g class="yaxislayer-below"/><g class="overaxes-below"/><g class="plot" transform="translate(80,100)" clip-path="url(#clip5bb959xyplot)"><g class="scatterlayer mlayer"><g class="trace scatter tracefef10d" style="stroke-miterlimit: 2; opacity: 1;"><g class="fills"/><g class="errorbars"/><g class="lines"><path class="js-line" d="M46.85,304L141.7,304L141.81,303.09L142.38,302.47L142.61,302.63L142.72,302.69L144.44,302.88L144.55,302.56L144.67,302.38L145.24,302.84L145.35,302.91L147.98,303.46L148.09,303.45L150.84,303.82L150.95,303.88L151.29,303.93" style="vector-effect: non-scaling-stroke; fill: none; stroke: rgb(255, 0, 0); stroke-opacity: 1; stroke-width: 2px; opacity: 1;"/><path class="js-line" d="M151.52,303.95L155.18,303.91L155.29,303.96L156.78,303.97L156.89,303.92" style="vector-effect: non-scaling-stroke; fill: none; stroke: rgb(255, 0, 0); stroke-opacity: 1; stroke-width: 2px; opacity: 1;"/><path class="js-line" d="M157.24,303.94L159.75,303.87L159.86,303.02L160.32,303.77L160.66,303.67L160.78,303.71L162.61,303.6L162.72,303.7L163.63,303.85L163.75,302.97L163.98,303.64L164.09,301.79L164.21,292.32L164.32,262.61L164.89,301.32L165.01,301.46L166.03,302.29L166.15,302.07L168.09,303.64L168.21,303.62L171.06,303.43L171.18,302.6L171.41,260.01L171.86,301L171.98,301.21L173.01,302.52L173.12,302.47L173.23,302.53L179.75,303.67L179.86,303.74L182.38,303.93L182.49,303.08L183.29,303.91L183.4,303.92L191.4,303.32L191.52,302.17L192.09,303.93L192.32,303.7L192.43,303.57L193.12,303.32L193.23,303.09L193.35,302.74L193.8,303.65L193.92,303.73L195.4,303.76L195.52,302.09L196.32,303.91L196.43,303.87L197.46,303.46L197.57,303.75L199.06,303.09L199.17,302.67L199.29,302.54L199.4,281.2L199.52,16L200.09,296.21L200.2,297.94L201.23,301.36L201.34,301.46L202.49,302.08L202.6,301.42L202.94,301.55L203.06,300.17L203.29,246.73L203.74,300.16L203.86,300.41L205,301.36L205.11,301.32L205.23,300.97L205.91,301.27L206.03,301.29L209,301.67L209.11,301.4L209.46,299.69L209.69,300.66L209.8,301.08L210.26,301.41L210.37,300.53L211.51,301.66L211.63,301.24L211.74,290.72L211.86,193.85L212.43,299.21L212.54,299.99L213.69,301.73L213.8,301.73L215.28,302.7L215.4,303.53L223.06,303.82L223.17,303.71L227.74,303.8L227.85,303.8L233.45,303.81L233.57,303.82L237.11,303.83L237.22,303.84L237.68,303.73L237.8,302.51L238.02,298.68L238.6,303.79L238.71,303.82L238.94,303.72L239.05,292.59L239.85,303.56L239.97,303.6L241,303.52L241.11,302.51L241.22,301.11L241.68,303.35L241.8,265.06L242.71,303.35L242.82,303.32L245.45,303.52L245.57,303.44L250.25,303.14L250.37,303.03L251.85,303.18L251.97,302.9L252.88,303.34L252.99,303.32L255.17,303.17L255.28,303.28L255.62,303.26L255.74,301.44L255.97,292.06L256.31,303.13L256.42,303.35L258.36,303.45L258.48,303.49L260.88,303.12L260.99,302.15L261.11,300.47L261.56,303.28L261.68,303.3L261.91,303.05L262.02,250.34L263.05,303.44L263.16,303.37L264.76,303.16L264.88,303.1L265.79,303.08L265.91,302.41L266.02,302.8" style="vector-effect: non-scaling-stroke; fill: none; stroke: rgb(255, 0, 0); stroke-opacity: 1; stroke-width: 2px; opacity: 1;"/><path class="js-line" d="M273.79,303.38L275.28,303.34L275.39,303.29L276.19,303.53L276.31,303.44L276.42,303.49L277.79,303.46" style="vector-effect: non-scaling-stroke; fill: none; stroke: rgb(255, 0, 0); stroke-opacity: 1; stroke-width: 2px; opacity: 1;"/><path class="js-line" d="M278.02,303.52L279.28,303.38" style="vector-effect: non-scaling-stroke; fill: none; stroke: rgb(255, 0, 0); stroke-opacity: 1; stroke-width: 2px; opacity: 1;"/><path class="js-line" d="M279.5,303.25L280.53,303.22L280.65,303.3L281.56,303.33L281.68,303.31L284.08,303.06" style="vector-effect: non-scaling-stroke; fill: none; stroke: rgb(255, 0, 0); stroke-opacity: 1; stroke-width: 2px; opacity: 1;"/><path class="js-line" d="M284.3,302.73L285.22,303.22L285.33,303.16L289.56,303.05" style="vector-effect: non-scaling-stroke; fill: none; stroke: rgb(255, 0, 0); stroke-opacity: 1; stroke-width: 2px; opacity: 1;"/><path class="js-line" d="M289.79,303.06L290.59,303.19L290.7,302.98L291.5,303.17L291.62,303.24L293.22,303.04L293.33,303.14L295.16,303.26L295.27,303.23L296.87,303.19" style="vector-effect: non-scaling-stroke; fill: none; stroke: rgb(255, 0, 0); stroke-opacity: 1; stroke-width: 2px; opacity: 1;"/><path class="js-line" d="M297.1,303.15L297.67,303.03" style="vector-effect: non-scaling-stroke; fill: none; stroke: rgb(255, 0, 0); stroke-opacity: 1; stroke-width: 2px; opacity: 1;"/><path class="js-line" d="M297.9,303.91L305.9,303.96" style="vector-effect: non-scaling-stroke; fill: none; stroke: rgb(255, 0, 0); stroke-opacity: 1; stroke-width: 2px; opacity: 1;"/><path class="js-line" d="M306.13,303.91L306.7,304" style="vector-effect: non-scaling-stroke; fill: none; stroke: rgb(255, 0, 0); stroke-opacity: 1; stroke-width: 2px; opacity: 1;"/><path class="js-line" d="M309.44,303.9L314.01,304" style="vector-effect: non-scaling-stroke; fill: none; stroke: rgb(255, 0, 0); stroke-opacity: 1; stroke-width: 2px; opacity: 1;"/><path class="js-line" d="M316.3,304L333.67,303.57L333.78,303.15L334.93,303.68L335.04,302.84L336.3,303.69L336.41,303.63L337.33,303.5L337.44,282.72L337.67,251.49L338.35,303.3L338.47,303.37L339.95,303.72" style="vector-effect: non-scaling-stroke; fill: none; stroke: rgb(255, 0, 0); stroke-opacity: 1; stroke-width: 2px; opacity: 1;"/><path class="js-line" d="M356.29,303.91L357.44,303.91" style="vector-effect: non-scaling-stroke; fill: none; stroke: rgb(255, 0, 0); stroke-opacity: 1; stroke-width: 2px; opacity: 1;"/><path class="js-line" d="M357.89,303.91L358.12,304" style="vector-effect: non-scaling-stroke; fill: none; stroke: rgb(255, 0, 0); stroke-opacity: 1; stroke-width: 2px; opacity: 1;"/><path class="js-line" d="M358.35,303.91L360.64,303.89" style="vector-effect: non-scaling-stroke; fill: none; stroke: rgb(255, 0, 0); stroke-opacity: 1; stroke-width: 2px; opacity: 1;"/><path class="js-line" d="M360.87,303.95L364.06,303.91L364.18,303.91L372.75,303.91L372.86,303.91L376.29,303.91L376.41,303.91L379.95,303.9L380.06,293.45L380.75,303.5L380.86,286.49L381.21,279.14L381.78,303.1L381.89,303.25L382.46,303.65L382.58,299.17L382.69,288.13L383.03,302.67L383.26,300.67L383.38,300.04L383.49,299.89L383.6,298.36L383.95,281.38L384.06,286L384.18,291.45L385.09,302.29L385.2,302.53L386.58,303.54L386.69,303.58L389.55,303.78L389.66,288.04L389.78,269.95L390.23,300.94L390.35,301.69L390.46,302.18L390.58,300.89L390.69,298.86L390.8,286.26L391.38,302.33L391.49,302.58L392.86,303.54L392.98,303.49L395.37,303.47L395.49,303.27L395.72,302.87L395.95,303.42L396.06,303.29" style="vector-effect: non-scaling-stroke; fill: none; stroke: rgb(255, 0, 0); stroke-opacity: 1; stroke-width: 2px; opacity: 1;"/><path class="js-line" d="M396.75,294.37L397.09,303.5L397.55,299.24L397.66,301.36L397.89,302.37L398,299.65L398.57,287.23L398.92,293.27L399.03,296.87L399.26,300.03L399.37,295.04L399.49,299.66L399.6,299.94L399.72,299.41L399.83,296.02L400.06,301.42L400.17,295.07L400.29,295.07L400.4,287.62L401.43,255.04L401.55,279.92L401.89,303.9L402.35,303.88L402.46,303.86L407.94,303.67L408.06,296.39L408.17,249.3L408.74,302.92L408.86,303.2L410,303.61L410.12,303.51L411.03,303.5L411.14,303.02L412.52,303.57L412.63,303.06L412.97,303.44L413.32,303.03L413.43,302.84L414.34,303.34L414.46,303.48L415.37,303.29L415.49,303.37L417.09,303.39L417.2,303.32L418.69,303.58L418.8,303.5L419.6,303.02L419.71,302.99L420.4,303.9L420.51,301.82L420.63,303.52L421.31,303.22L421.43,303.29L423.26,303.64L423.37,303.55L424.86,303.55L424.97,303.5L425.09,302.87L425.2,302.92L425.31,291.26L425.54,295.9L425.77,277.11L425.88,293.83L426,298.05L427.14,303.1L427.26,303.1L428.63,303.61L428.74,303.33L429.66,303.43L429.77,303.34L431.94,303.28L432.06,303.11L432.28,302.46L432.51,303.22L432.63,303.48L433.31,301.91L433.43,302.77L433.54,303.11L433.88,303.28L434.46,300.97L434.57,301.45L435.48,292.06L435.6,297.12" style="vector-effect: non-scaling-stroke; fill: none; stroke: rgb(255, 0, 0); stroke-opacity: 1; stroke-width: 2px; opacity: 1;"/><path class="js-line" d="M444.63,282.51L444.74,271.06L445.31,284.12L445.43,281.76L445.65,286.44L445.77,280.49L445.88,268.24L446.68,295.51L446.8,289.12L446.91,288.43L447.25,296.18L447.71,291.88L447.82,285.86L448.85,296.85L448.97,293.54L449.08,295.29L449.88,301.85L450,301.11L450.22,302.01L450.45,299.1L450.57,299.55L450.68,302.08L450.8,299.04L451.37,303.48L451.48,302.68L451.6,274.56L451.94,303.51L452.17,303.48L452.28,303.52L452.51,296.82L452.62,211.84L452.97,303.13L453.42,302.08L453.54,302.69L453.65,301.76L453.77,286.22L454.11,301.92L454.34,269.55L454.57,297.69L454.68,302.36L455.48,303.88L455.6,303.85L455.71,303.85L478.11,303.34L478.22,303.08L478.56,302.73L479.82,303.79L479.93,303.64L481.42,303.72L481.53,303.46L482.45,302.62L482.68,303.12L482.79,303.36L483.48,303.4L483.59,303.12L485.08,301.53L485.19,301.63L485.42,302.57L485.88,301.62L485.99,301.04L486.91,301.6L487.02,301.52L488.05,300.09L488.16,301.36L488.73,302.09L489.08,301.77L489.19,301.47L489.3,301.63L489.42,301.13L489.53,300.2L489.88,301.92L490.22,301.55L490.33,300.62L490.79,301.18L490.9,299.36L491.02,299.93L491.13,301.23L491.48,301.59L491.59,300.64L491.82,300.83L491.93,301.39L492.39,301.86L492.5,300.81L492.62,302.18L493.08,300.58L493.19,302.57L493.42,303.08L493.65,302.49L493.76,288.88L494.33,303.77L494.56,303.76L494.68,303.72L494.79,302.13L495.36,303.76L495.48,303.44L496.85,303.77L496.96,303.67L497.76,303.91L497.88,303.74L499.59,303.84L499.7,303.96L500.85,303.47L500.96,303.75L507.47,303.88L507.59,302.72L507.82,303.77L507.93,303.74L508.05,292.17L508.16,277.64L508.39,300.9L508.62,300.16L508.73,301.55L509.53,301.91L509.64,301.55L510.33,302.45L510.56,302.16L510.67,302.29L511.36,303.36L511.47,303.03L511.59,303.18L512.5,303.55L512.62,303.54L513.42,302.29L513.53,303L513.64,303.42L513.99,302.31L514.22,303.45L514.33,303.66L514.56,303.61L514.67,303.77L514.79,302.32L515.02,303.13L515.13,299.55L515.7,303.65L515.82,287.39L516.27,303.37L516.62,303.34L516.73,300.84L517.19,303.33L517.53,302.75L517.64,302.73L517.87,303.31L518.33,302.65L518.44,302.61L521.19,295.98L521.3,294.63L521.41,294.99L521.53,293.05L521.64,292.63L522.67,281.7L522.79,289.94L523.47,275.09L523.7,277.01L523.81,284.55L523.93,279.2L524.5,287.23L524.61,287.56L525.64,273.33L525.76,279.89L525.87,282.33L526.44,277.06L526.67,279.4L526.79,283.38L527.7,266.95L527.81,269.9L527.93,267.52L528.04,272.9L528.16,279.73L528.39,273.36L528.5,279.86L528.61,279.68L528.73,279.47L528.96,279.85L529.19,276.56L529.3,282.69L530.1,296.25L530.21,296.19L530.33,296.49L530.44,291.87L531.01,297.22L531.24,295.29L531.36,294.37L531.93,298.31L532.16,297.11L532.27,298.2L532.5,300.45L533.07,299.37L533.18,299.86L533.53,298.68L534.1,299.04L534.21,300.13L534.67,300.34L534.9,298.69L535.01,300.54L535.36,300.85L535.58,300.03L535.7,301.24L535.93,301.97L536.04,300.8L536.16,300.34L536.84,302.88L537.07,301.94L537.18,301.92L537.41,303.06L537.53,293.29L537.64,291.36L537.76,303.17L538.21,302.13L538.33,303.16L539.13,303.55L539.24,302.52L539.7,303.61L540.04,302.97L540.16,303.28L542.21,303.35L542.33,303.05L543.13,302.79L543.24,303.24L545.64,303.22L545.75,303.51L546.67,303.08L546.78,303.33L549.87,303.21L549.98,302.77L551.24,303.4L551.35,302.72L552.27,303.05L552.38,302.78L552.95,301.54L553.07,301.62L553.18,303.12L554.1,301.21L554.21,302.06L554.44,301.72L554.55,302.42L554.78,302.28L554.9,302.59L555.24,301.09L555.7,301.52L555.81,301.81L556.27,300.17L556.38,302.24L556.72,300.72L556.84,301.67L556.95,301.8L557.07,301.42L557.18,300.33L557.3,300.65L557.41,299.47L557.52,298.77L557.98,302.68L558.44,301.87L558.55,300.95L558.9,300.56L559.24,302.13L559.47,301.61L559.58,301.29L560.38,302.27L560.5,301.43L560.95,301.17L561.41,302L561.52,301.53L561.64,301.38L561.87,302.03L562.09,301.78L562.21,302.73L563.12,301.03L563.24,301.15L565.07,300.46L565.18,299.95L565.29,299.81L565.52,300.54L565.64,300.75L566.32,299.27L566.44,300.53L566.55,300.13L566.78,299.14L566.89,300.25L567.35,299.47L567.47,299.35L567.69,299.52L568.04,298.34L568.15,299.11L568.27,299.46L568.49,299.62L568.61,298.87L568.95,299.53L569.07,299.39L569.18,300.22L569.64,299.1L569.75,298.53L569.98,298.07L570.09,299.1L570.21,297.55L571.01,303.66L571.12,303.66L573.41,303.68L573.52,297.47L573.98,302.67L574.32,302.03L574.44,301.33L574.78,301.96L575.24,301.52L575.35,301.39L575.69,301.86L575.92,301.04L576.04,300.85L576.38,301.98L576.72,301.04L576.84,300.36L577.64,302.09L577.75,302.18L578.44,302.65L578.55,302.17L578.66,301.67L578.78,302.18L579.01,300.94L579.12,300.22L579.81,302.33L579.92,301.95L580.04,301.88L580.15,301.46L580.49,301.71L580.61,270.17L581.18,302.44L581.52,301.95L581.64,302.31L581.86,300.96L582.21,302.04L582.32,289.87L583.12,303.07L583.23,303.05L583.35,303.09L586.55,303.07L586.66,303.27L587.35,302.1L587.69,302.8L587.81,302.88L588.61,302.63L588.72,302.77L588.95,301.99L589.41,302.86L589.52,302.76L590.55,303.27L590.66,303.07L590.78,302.64L590.89,302.32L591.23,303.06L591.35,302.99L591.46,303.18L592.83,302.46L592.95,302.97L593.63,301.36L593.75,298.78L593.98,302.91L594.55,300.73L594.66,299.41L594.78,300.65L595.23,298.94L595.35,298.23L596.6,285.52L596.72,290.51L597.75,263.25L597.86,277.42L598.55,237.53L598.66,251.25L598.78,244.23L599.35,223.5L599.46,229.03L599.58,239.67L599.69,256.11L600.15,216.18L600.38,251.18L600.49,241.53L600.95,216.73L601.06,246.36L601.18,234.69L601.29,243.71L601.75,217.02L601.98,235.29L602.09,239.43L602.55,256.79L603,256.69L603.12,249.23L603.8,210.22L603.92,211.29L604.03,215.3L604.6,230.77L604.72,209.1L604.83,219.3L605.06,212.53L605.86,269.03L605.97,238.68L606.77,289.43L606.89,283.88L607,290.99L607.46,294.35L607.57,285.96L608.37,269.36L608.49,275.18L608.6,276.57L609.63,242.9L609.75,252.82L609.86,247.94L610.09,269.98L610.2,268.7L611.23,234.54L611.35,240.12L611.46,242.42L611.8,237.03L611.92,240.1L612.03,304L643.68,303.25L643.8,302.86L643.91,303.48L644.14,302.21L644.48,302.87L644.6,302.5L644.83,303.23L645.28,302.66L645.4,302.7L646.54,287.39L646.77,289.8L646.88,293.07L647,293.35L647.11,288.48L647.34,287.51L648.37,298.96L648.48,290.2L648.94,298.82L649.05,290.04L649.51,297.01L649.63,298.24L650.31,302.51L650.54,302.38L650.65,302.63L651.8,302.66L651.91,302.1L652.94,302.96L653.05,302.55L654.2,302.62L654.31,301.82L654.65,301.1L655,302.57L655.23,302.27L655.34,294.8L656.14,303.63L656.25,303.75L657.05,303.24L657.28,303.62L657.4,303.55L657.62,303.03L658.2,303.47L658.31,303.41L658.42,303.27L658.54,297.51L658.77,294.89L658.88,302.78L659,303.28L659.22,302.8L659.8,303.63L659.91,302.99L660.14,303.78L660.48,302.73L660.6,302.48L660.82,302.21L661.28,303.56L661.4,302.53L661.85,301.87L662.08,303.51L662.2,303.19L662.31,302.52L662.42,302.23L662.65,302.32L662.77,303.45L662.88,302.08L663.45,303.6L663.57,303.41L666.42,303.62L666.54,303.7L669.05,303.45L669.17,303.58L669.74,303.4L669.85,304L670.08,304L670.19,226.07L671.11,300.99L671.22,300.95L671.91,300.03L672.14,300.62L672.25,300.77L672.48,300.21L673.05,300.64L673.17,301.66L674.08,303.56L674.19,303.62L674.65,303.73L674.77,299.5L675.57,304L675.68,304L691.79,303.35L691.91,303.16L692.48,302.77L692.59,302.07L692.71,302.62L693.05,301.45L693.16,300.94L693.51,301.85L693.62,300.35L693.73,299.74L694.53,297.66L694.76,298.83L694.88,300.25L695.68,291.9L695.91,292.68L696.02,293.69L696.36,295.64L696.59,287.12L696.71,290.29L696.82,294.19L696.93,286.33L697.16,304L697.39,304L697.51,304L720.82,304L720.93,265.24L721.73,304L721.84,304L733.04,303.96L733.16,303.1L733.39,301.16L733.73,303.94L733.84,302.36L733.96,303.79L734.19,300.93L734.53,303.18L734.64,302.85L734.87,301.96L735.21,303.37L735.33,303.37L735.56,301.88L736.01,303.12L736.13,303.05L736.24,302.86L736.47,303.38L736.81,303.32L736.93,303.42L738.87,303.13L738.99,302.65L739.9,303.53L740.01,303.14L740.24,302.77L740.47,303.45L740.58,303.02L740.7,303.73L741.04,303.28L741.5,303.87L741.61,303.76L742.18,303.97L742.3,303.24L743.1,303.99L743.21,303.99L744.01,304L744.13,298.88L744.24,296.8L744.58,303.9L744.7,304L745.04,304L745.16,302.96L745.61,304L745.73,300.73L746.18,136.26L746.3,292.94L746.41,300.46L746.76,303.43L747.33,303.2L747.44,303.25L748.47,303.77L748.58,303.76L759.33,303.86L759.44,303.86L764.92,303.64L765.04,303.83L765.95,303.44L766.07,303.78L766.18,303.83L774.64,303.34L774.75,303.11L775.55,303.46L775.67,303.05L775.89,303.37L776.12,302.69L776.35,302.94L776.47,302.95L776.81,303.39L777.15,302.6L777.27,301.01L777.38,301.91L777.49,300.48L777.72,301.74L777.84,299.15L777.95,301.8L778.41,296.45L778.52,294.2L778.75,303.9L779.32,303.2L779.44,303.13L780.12,303.81L780.24,303.71L780.35,303.86L783.78,303.81L783.89,303.67L784.69,303.87L784.81,303.35L784.92,225.64L785.15,303.81L785.49,303.72L785.61,303.73L789.61,303.57L789.72,303.02L789.84,249.35L790.18,303.42L790.41,303.29L790.52,303.36L794.63,303.36L794.75,303.35L794.86,303.48L794.98,303.32L795.09,299.8L795.21,189.68L795.78,301.18L795.89,302.65L797.15,303.6L797.26,303.62L803.32,303.73L803.43,302.88L804.58,303.78L804.69,303.25L805.26,303.42L805.49,292.18L805.6,203.96L806.63,304L806.75,304L840,304" style="vector-effect: non-scaling-stroke; fill: none; stroke: rgb(255, 0, 0); stroke-opacity: 1; stroke-width: 2px; opacity: 1;"/></g><g class="points"/><g class="text"/></g></g></g><g class="overplot"/><path class="xlines-above crisp" d="M0,0" style="fill: none;"/><path class="ylines-above crisp" d="M0,0" style="fill: none;"/><g class="overlines-above"/><g class="xaxislayer-above"><g class="xtick"><text text-anchor="middle" x="0" y="433" transform="translate(246.95,0)" style="font-family: 'Open Sans', verdana, arial, sans-serif; font-size: 12px; fill: rgb(42, 63, 95); fill-opacity: 1; white-space: pre; opacity: 1;">2005</text></g><g class="xtick"><text text-anchor="middle" x="0" y="433" style="font-family: 'Open Sans', verdana, arial, sans-serif; font-size: 12px; fill: rgb(42, 63, 95); fill-opacity: 1; white-space: pre; opacity: 1;" transform="translate(455.61,0)">2010</text></g><g class="xtick"><text text-anchor="middle" x="0" y="433" style="font-family: 'Open Sans', verdana, arial, sans-serif; font-size: 12px; fill: rgb(42, 63, 95); fill-opacity: 1; white-space: pre; opacity: 1;" transform="translate(664.26,0)">2015</text></g><g class="xtick"><text text-anchor="middle" x="0" y="433" style="font-family: 'Open Sans', verdana, arial, sans-serif; font-size: 12px; fill: rgb(42, 63, 95); fill-opacity: 1; white-space: pre; opacity: 1;" transform="translate(872.92,0)">2020</text></g></g><g class="yaxislayer-above"><g class="ytick"><text text-anchor="end" x="79" y="4.199999999999999" transform="translate(0,404)" style="font-family: 'Open Sans', verdana, arial, sans-serif; font-size: 12px; fill: rgb(42, 63, 95); fill-opacity: 1; white-space: pre; opacity: 1;">0</text></g><g class="ytick"><text text-anchor="end" x="79" y="4.199999999999999" style="font-family: 'Open Sans', verdana, arial, sans-serif; font-size: 12px; fill: rgb(42, 63, 95); fill-opacity: 1; white-space: pre; opacity: 1;" transform="translate(0,365.68)">20</text></g><g class="ytick"><text text-anchor="end" x="79" y="4.199999999999999" style="font-family: 'Open Sans', verdana, arial, sans-serif; font-size: 12px; fill: rgb(42, 63, 95); fill-opacity: 1; white-space: pre; opacity: 1;" transform="translate(0,327.37)">40</text></g><g class="ytick"><text text-anchor="end" x="79" y="4.199999999999999" style="font-family: 'Open Sans', verdana, arial, sans-serif; font-size: 12px; fill: rgb(42, 63, 95); fill-opacity: 1; white-space: pre; opacity: 1;" transform="translate(0,289.05)">60</text></g><g class="ytick"><text text-anchor="end" x="79" y="4.199999999999999" style="font-family: 'Open Sans', verdana, arial, sans-serif; font-size: 12px; fill: rgb(42, 63, 95); fill-opacity: 1; white-space: pre; opacity: 1;" transform="translate(0,250.74)">80</text></g><g class="ytick"><text text-anchor="end" x="79" y="4.199999999999999" style="font-family: 'Open Sans', verdana, arial, sans-serif; font-size: 12px; fill: rgb(42, 63, 95); fill-opacity: 1; white-space: pre; opacity: 1;" transform="translate(0,212.42000000000002)">100</text></g><g class="ytick"><text text-anchor="end" x="79" y="4.199999999999999" style="font-family: 'Open Sans', verdana, arial, sans-serif; font-size: 12px; fill: rgb(42, 63, 95); fill-opacity: 1; white-space: pre; opacity: 1;" transform="translate(0,174.1)">120</text></g><g class="ytick"><text text-anchor="end" x="79" y="4.199999999999999" style="font-family: 'Open Sans', verdana, arial, sans-serif; font-size: 12px; fill: rgb(42, 63, 95); fill-opacity: 1; white-space: pre; opacity: 1;" transform="translate(0,135.79)">140</text></g></g><g class="overaxes-above"/></g></g><g class="polarlayer"/><g class="smithlayer"/><g class="ternarylayer"/><g class="geolayer"/><g class="funnelarealayer"/><g class="pielayer"/><g class="iciclelayer"/><g class="treemaplayer"/><g class="sunburstlayer"/><g class="glimages"/><defs id="topdefs-5bb959"><g class="clips"/></defs><g class="layer-above"><g class="imagelayer"/><g class="shapelayer"/></g><g class="infolayer"><g class="g-gtitle"><text class="gtitle" x="50" y="50" text-anchor="start" dy="0em" style="font-family: 'Open Sans', verdana, arial, sans-serif; font-size: 17px; fill: rgb(42, 63, 95); opacity: 1; font-weight: normal; white-space: pre;">Aforament - la Bisbal d'Empordà (Daró)--a27.csv</text></g><g class="g-xtitle"><text class="xtitle" x="500" y="460.8" text-anchor="middle" style="font-family: 'Open Sans', verdana, arial, sans-serif; font-size: 14px; fill: rgb(42, 63, 95); opacity: 1; font-weight: normal; white-space: pre;">Data</text></g><g class="g-ytitle"><text class="ytitle" transform="rotate(-90,31.309375000000003,260)" x="31.309375000000003" y="260" text-anchor="middle" style="font-family: 'Open Sans', verdana, arial, sans-serif; font-size: 14px; fill: rgb(42, 63, 95); opacity: 1; font-weight: normal; white-space: pre;">Cabal (m3/s)</text></g></g></svg>