<svg class="main-svg" xmlns="http://www.w3.org/2000/svg" xmlns:xlink="http://www.w3.org/1999/xlink" width="1000" height="500" style="" viewBox="0 0 1000 500"><rect x="0" y="0" width="1000" height="500" style="fill: rgb(255, 255, 255); fill-opacity: 1;"/><defs id="defs-022229"><g class="clips"><clipPath id="clip022229xyplot" class="plotclip"><rect width="840" height="320"/></clipPath><clipPath class="axesclip" id="clip022229x"><rect x="80" y="0" width="840" height="500"/></clipPath><clipPath class="axesclip" id="clip022229y"><rect x="0" y="100" width="1000" height="320"/></clipPath><clipPath class="axesclip" id="clip022229xy"><rect x="80" y="100" width="840" height="320"/></clipPath></g><g class="gradients"/><g class="patterns"/></defs><g class="bglayer"><rect class="bg" x="80" y="100" width="840" height="320" style="fill: rgb(229, 236, 246); fill-opacity: 1; stroke-width: 0;"/></g><g class="layer-below"><g class="imagelayer"/><g class="shapelayer"/></g><g class="cartesianlayer"><g class="subplot xy"><g class="layer-subplot"><g class="shapelayer"/><g class="imagelayer"/></g><g class="minor-gridlayer"><g class="x"/><g class="y"/></g><g class="gridlayer"><g class="x"><path class="xgrid crisp" transform="translate(246.95,0)" d="M0,100v320" style="stroke: rgb(255, 255, 255); stroke-opacity: 1; stroke-width: 1px;"/><path class="xgrid crisp" transform="translate(455.61,0)" d="M0,100v320" style="stroke: rgb(255, 255, 255); stroke-opacity: 1; stroke-width: 1px;"/><path class="xgrid crisp" transform="translate(664.26,0)" d="M0,100v320" style="stroke: rgb(255, 255, 255); stroke-opacity: 1; stroke-width: 1px;"/><path class="xgrid crisp" transform="translate(872.92,0)" d="M0,100v320" style="stroke: rgb(255, 255, 255); stroke-opacity: 1; stroke-width: 1px;"/></g><g class="y"><path class="ygrid crisp" transform="translate(0,356.94)" d="M80,0h840" style="stroke: rgb(255, 255, 255); stroke-opacity: 1; stroke-width: 1px;"/><path class="ygrid crisp" transform="translate(0,309.85)" d="M80,0h840" style="stroke: rgb(255, 255, 255); stroke-opacity: 1; stroke-width: 1px;"/><path class="ygrid crisp" transform="translate(0,262.76)" d="M80,0h840" style="stroke: rgb(255, 255, 255); stroke-opacity: 1; stroke-width: 1px;"/><path class="ygrid crisp" transform="translate(0,215.67000000000002)" d="M80,0h840" style="stroke: rgb(255, 255, 255); stroke-opacity: 1; stroke-width: 1px;"/><path class="ygrid crisp" transform="translate(0,168.57999999999998)" d="M80,0h840" style="stroke: rgb(255, 255, 255); stroke-opacity: 1; stroke-width: 1px;"/><path class="ygrid crisp" transform="translate(0,121.49)" d="M80,0h840" style="stroke: rgb(255, 255, 255); stroke-opacity: 1; stroke-width: 1px;"/></g></g><g class="zerolinelayer"><path class="yzl zl crisp" transform="translate(0,404.03)" d="M80,0h840" style="stroke: rgb(255, 255, 255); stroke-opacity: 1; stroke-width: 2px;"/></g><path class="xlines-below"/><path class="ylines-below"/><g class="overlines-below"/><g class="xaxislayer-below"/><g class="yaxislayer-below"/><g class="overaxes-below"/><g class="plot" transform="translate(80,100)" clip-path="url(#clip022229xyplot)"><g class="scatterlayer mlayer"><g class="trace scatter trace51fb6b" style="stroke-miterlimit: 2; opacity: 1;"><g class="fills"/><g class="errorbars"/><g class="lines"><path class="js-line" d="M0,298.21L1.37,298.46L1.49,297.55L1.6,296.8L1.71,286.02L2.63,300.81L2.74,300.93L2.97,301.36L3.09,299.72L3.89,302.06L4,301.86L4.11,301.59L4.46,301.59L4.57,301.91L4.69,302.28L4.91,301.56L5.03,297.44L5.48,301.53L6.06,301.41L6.17,301.64L6.28,302.02L6.74,301.67L6.86,300.4L7.08,302.21L7.43,301.7L7.54,294.84L8.23,301.06L8.34,301.02L8.46,301.07L8.68,301.89L9.14,301.42L9.26,301.19L9.48,302.48L9.83,301.36L9.94,301.17L10.28,302.47L10.4,302.14L10.51,301.66L12,302.79L12.11,302.46L12.23,301.98L12.46,301.66L12.57,302.14L12.68,302.81L13.26,300.82L13.37,301.58L13.48,302.77L13.94,299.98L14.28,300.6L14.4,301.81L14.74,301.51L14.86,301.6L14.97,299.85L15.08,302.71L15.77,302.16L15.88,302.72L16,302.31L16.11,289.6L16.34,274.24L16.45,251.5L16.8,251.57L16.91,286.14L17.6,302.81L17.71,302.45L17.83,302.1L18.17,302.57L18.28,301.91L18.4,299.24L19.08,302.73L19.2,302.45L19.31,302.36L22.17,302.81L22.28,298.48L22.63,302.81L22.74,296.87L23.08,302.22L23.2,302.3L23.65,302.42L23.77,301.44L24.8,302.78L24.91,302.79L27.42,302.81L27.54,294.87L28.45,302.34L28.57,302.51L29.48,302.81L29.6,299.16L30.05,301.96L30.17,301.83L30.28,300.33L31.08,302.81L31.2,301.84L31.54,300.36L31.77,302.08L31.88,302.32L32.22,300.14L32.34,300.82L32.45,301.92L32.91,302.81L33.02,302.79L33.14,293.48L33.37,281.63L33.94,301.99L34.05,302.13L35.31,302.69L35.42,302.69L35.88,302.16L36,300.81L36.22,301.33L36.34,297.45L36.45,289.73L37.02,299.53L37.14,299.54L38.74,300.26L38.85,300.25L41.94,300.26L42.05,299.23L42.97,300.16L43.08,300.14L44.34,301.54L44.45,302.81L47.19,302.81L47.31,301.72L47.42,300.71L47.88,301.84L48.11,301.1L48.22,300.86L48.34,300.99L48.45,300.87L48.56,299.63L48.68,301.57L48.79,301.21L48.91,292.44L49.48,300.92L49.82,300.79L49.94,300.22L50.28,301.88L50.74,300.88L50.85,300.79L51.08,302.17L51.42,300.37L51.65,301.57L51.76,301.58L51.99,302.23L52.11,301.79L52.22,290.3L52.34,279.46L52.56,295.2L52.91,294.44L53.02,294.54L53.48,283.64L53.71,292.43L53.82,295.03L55.08,298.81L55.19,298.77L55.42,298.23L55.54,286.05L55.65,283.47L55.88,293L55.99,293.21L56.11,291.42L56.22,260.21L56.56,258.58L57.14,292.88L57.25,293.75L58.28,297.3L58.39,295.27L59.19,297.83L59.31,297.39L59.42,281.53L59.65,293.04L59.76,273.21L59.88,284.9L59.99,290.91L60.68,297.71L61.02,296.79L61.13,297.31L61.59,298.19L62.05,297.75L62.16,296.98L63.42,299.17L63.53,299.29L63.76,294.66L64.11,299.81L64.22,299.63L64.33,299.96L64.68,301.17L64.91,300.05L65.02,299.75L65.48,299.95L65.71,287.48L65.82,293.14L65.93,296.5L66.62,299.7L66.85,299L66.96,292.21L67.88,295.91L67.99,295.9L68.22,295.98L68.33,288.33L68.45,296.7L68.9,282.92L69.13,293.28L69.25,294.18L69.36,294.33L69.48,288.45L69.59,280.39L69.7,296.79L70.05,294.39L70.16,298.89L70.62,300.36L70.73,299.31L70.85,296.71L71.08,300.58L71.65,299.82L71.76,298.11L71.88,300.76L72.56,300.61L72.68,301L73.25,299.11L73.59,299.54L73.7,298.92L73.82,263.47L74.39,298.14L74.5,297.93L74.73,297.01L75.08,299.63L75.19,297.45L75.3,295.8L75.76,299.24L75.88,299.5L76.33,297.61L76.68,298.94L76.79,297.97L77.13,297.39L77.36,298.3L77.48,299.17L77.93,293.87L78.16,297.58L78.28,299.02L78.5,297.54L78.62,289.94L78.96,297.29L79.07,285.73L79.19,281.36L79.53,294.47L79.65,295.01L80.67,296.69L80.79,296.51L80.9,252.03L81.59,263.72L81.7,263.91L82.73,264.14L82.85,263.99L83.19,263.69L83.65,264.49L83.76,264.01L84.67,262.83L84.79,262.88L84.9,263.26L85.02,281.89L85.36,298.01L85.82,297.44L85.93,298.21L86.05,298.11L86.16,298.86L86.27,299.25L86.73,298.15L86.96,298.69L87.07,300.36L87.3,298.64L87.76,300.02L87.87,300.61L88.22,299.39L88.67,300.22L88.79,300.05L89.02,294.59L89.13,264.97L89.59,292.04L89.7,290.26L89.82,253.88L90.96,294.09L91.07,294.6L91.3,294.48L91.53,295.17L91.64,295.43L92.67,298.44L92.9,297.67L93.02,297.6L93.13,297.83L93.24,289.07L93.7,296.34L94.04,295.2L94.16,296L94.39,296.31L94.62,295.71L94.73,289.81L95.64,296.56L95.76,296.45L97.02,296.36L97.13,297.15L97.47,298.08L97.82,288.44L97.93,294.24L98.04,296.2L98.84,297.51L98.96,294.42L99.19,297.91L99.64,294.99L99.76,295.59L99.87,287.46L100.21,296.14L100.44,296.04L100.56,295.91L101.13,295.68L101.59,298.59L101.7,297.84L101.81,297.66L101.93,298.57L102.04,298.87L102.27,300.56L102.39,298.09L102.5,294.46L103.3,301.48L103.41,301.04L103.53,301.38L103.64,258.39L104.44,293.17L104.56,293.59L104.9,290.44L105.01,293.11L105.47,301.26L105.81,299.85L105.93,299.67L106.27,301.52L106.5,299.26L106.61,299.31L106.96,300.12L107.07,300.82L107.64,298.87L107.76,300.67L107.87,301.31L108.1,300L108.56,300.82L108.67,301.55L108.9,300.9L109.24,301.17L109.36,301.91L109.47,288.42L110.04,299.44L110.16,299.67L110.96,300.05L111.07,299.76L111.18,290.59L111.3,285.21L111.64,298.88L111.76,299.11L111.87,292.97L112.44,299.3L112.56,299.41L113.58,299.04L113.7,293.91L114.04,298.56L114.16,292.07L114.27,294.35L114.38,286.53L114.5,295L114.61,271.49L115.07,287.57L115.18,287.88L115.3,288.05L115.41,293.57L115.87,299.71L116.1,296.08L116.21,294.77L116.33,293.29L116.44,259.17L117.36,298.79L117.47,272.92L118.38,293.78L118.5,294.65L119.76,297.75L119.87,289.47L120.56,296.3L120.67,295.69L120.78,258.66L121.47,293.13L121.58,286.01L121.7,288.78L121.81,281.02L121.93,208.38L122.73,286.24L122.84,287.15L123.98,290.95L124.1,290.79L125.35,293.49L125.47,293.64L125.7,293.71L125.81,293.34L125.93,292.72L127.07,295.22L127.18,295.03L127.53,294.34L127.64,295L127.75,295.82L127.87,296.09L128.1,295.54L128.21,294.5L128.67,296.66L129.13,295.89L129.24,296.01L130.27,299.06L130.38,293.95L130.61,295.79L130.95,281.73L131.07,291.68L131.18,293.67L131.3,294.44L131.41,294L131.52,275.09L132.44,290.7L132.55,283.05L134.04,291.35L134.15,291.65L134.72,291.56L134.84,290.92L135.18,289.2L135.3,242.57L136.21,285.54L136.32,276.31L136.44,275.95L136.55,280.54L137.12,284.97L137.24,268.85L138.27,285.63L138.38,286.45L138.61,286.06L138.72,262.6L139.3,281.25L139.52,277.64L139.64,281.85L139.98,284.93L140.1,282.42L140.21,276.33L141.01,286.27L141.12,286.25L141.24,280.06L141.47,278.34L141.81,286.15L141.92,284.12L142.04,272.05L143.07,289.86L143.18,289.32L143.29,289.49L143.52,289.22L143.64,286.73L143.75,286.43L143.87,288.64L144.09,287.74L144.32,290.39L144.44,290.27L144.55,270.73L145.47,292.4L145.58,293.11L146.38,294.06L146.49,291.62L146.84,293.13L146.95,291.7L147.07,289.74L147.52,294.34L147.64,286.33L147.75,287.35L148.55,291.57L148.78,290.97L148.89,291.39L149.12,291.82L149.24,295.97L149.47,300.17L149.69,299.43L149.81,289.78L150.72,299.11L150.84,299.08L150.95,299.26L151.18,299.88L151.29,297.14L151.41,296.94L151.52,298.03L151.64,298.45L152.55,299.59L152.66,292.79L152.89,287.99L153.12,295.2L153.24,291.96L153.35,296.45L153.81,299.98L153.92,300.99L154.15,301.03L154.26,299.55L154.38,299.9L154.49,295.15L155.52,298.57L155.64,298.46L157.01,298.81L157.12,291.27L157.58,298.95L157.92,298.54L158.04,298.42L159.75,298.99L159.86,297.97L160.78,298.94L160.89,299.03L163.41,299.22L163.52,298.65L163.86,297.96L163.98,298.44L164.09,291.49L165.01,296.4L165.12,297.58L165.46,298.92L165.58,298.52L165.69,297.87L166.03,298.35L166.15,297.93L166.26,294.37L167.06,299.42L167.18,299.01L167.29,298.27L167.63,299.21L167.86,299.14L167.98,298.83L168.09,298.25L168.55,299.03L168.66,299.5L168.89,298.5L169.23,299.02L169.35,299.58L169.81,299.13L170.26,300.66L170.38,300.24L170.72,299.89L170.95,300.65L171.06,300.99L171.41,291.55L171.75,299.52L171.86,300.18L171.98,299.19L172.55,300.15L172.66,300.55L173.23,299.47L173.35,300.29L173.46,300.86L174.03,299.06L174.15,300.15L174.26,300.79L174.83,298.26L174.95,299.59L175.06,300.34L175.75,300.35L175.86,300.69L176.32,299.59L176.66,300.61L176.78,300.65L177,296.33L177.46,300.01L177.58,299.77L178.03,298.54L178.26,300.05L178.38,299.94L179.29,298.2L179.4,297.66L179.52,297.38L179.75,298.54L179.86,299.05L179.98,297.45L180.43,299.58L180.55,300.26L180.66,300.91L180.89,299.85L181,299.99L181.12,298.87L181.46,302.04L182.03,301.26L182.15,301.53L182.38,302.33L182.49,283.7L183.29,299.15L183.4,299.26L184.66,300.26L184.77,295.3L185.57,298.19L185.69,295.34L186.26,300.34L186.6,298.68L186.72,299.5L187.86,301.57L187.97,301.3L188.09,301.16L188.32,301.29L188.43,300.05L188.55,290.64L189.12,297.94L189.23,299.46L190.15,300.92L190.26,301.09L190.83,301.27L190.95,299.88L191.06,300.36L191.17,298.17L191.29,297.49L191.97,300.43L192.2,300.4L192.32,276.86L193,292.34L193.12,279L193.23,293.16L193.35,275.73L193.92,290.67L194.03,290.56L194.15,284.69L194.49,292.3L194.72,292.29L194.83,292.34L195.17,292.23L195.29,282.17L195.4,285.31L195.52,238.98L196.32,290.87L196.43,292.56L196.54,274.62L197.12,293.83L197.23,294.23L197.34,294.47L197.46,280.01L198.26,298.28L198.37,297.82L198.49,297.01L198.83,297.28L198.94,297.84L199.06,298.37L199.29,296.86L199.4,296.08L200.09,256.21L200.2,276.92L200.32,285.02L201.46,293.41L201.57,292.54L201.92,293.1L202.14,291.92L202.26,292.85L202.37,292.98L202.49,292.53L202.6,288.99L202.94,292.52L203.06,289.71L203.17,283.34L203.29,274.32L203.74,289.14L203.86,290.05L204.2,289.64L204.54,290.39L204.66,291.14L205,290.81L205.11,290.11L205.23,285.24L205.57,291.43L205.8,291.4L205.91,291.52L206.26,292.33L206.83,291.96L206.94,292.21L207.97,294.2L208.09,293.89L208.2,293.82L209.23,294.77L209.34,291.5L209.46,267.77L210.03,289.99L210.14,290.32L211.17,291.15L211.29,290.98L211.4,290.88L211.74,288.35L211.86,224.22L211.97,194.83L212.31,272.55L212.43,276.12L213.57,285.78L213.69,286.06L215.63,289.24L215.74,289.84L215.86,289.63L216.31,290.05L216.43,290.23L216.66,291.23L217.23,290.99L217.34,290.62L217.8,289.83L218.26,293.29L218.71,292.71L218.83,292.76L219.06,293.92L219.4,293.11L219.51,289.05L219.63,288.22L219.74,292.61L219.86,293.9L219.97,293.43L220.31,294.46L220.43,294.97L220.66,295.48L220.77,290.73L221.46,294.43L221.68,294.04L221.8,293.63L222.03,293.06L222.14,293.43L222.26,294.29L222.37,294.45L222.48,293.18L223.63,289.88L223.74,290.05L223.86,290.79L224.31,288.92L224.43,288.26L224.66,288.73L224.77,287.53L224.88,284.94L225.46,293.15L225.68,290.03L225.8,288.71L226.25,293.61L226.6,291.67L226.71,291.47L226.94,291.5L227.05,292.68L227.28,291.03L227.63,291.82L227.74,293.64L228.65,298.63L228.77,297.25L229,294.8L229.34,299.05L229.45,301.92L230.14,298.35L230.25,301.2L230.37,301.85L230.71,297.72L230.83,295.11L230.94,281.02L231.51,294.91L231.63,295.35L231.97,296.06L232.08,286.54L232.43,284.69L232.88,284.91L233,284.9L233.8,285.53L233.91,283.13L234.03,285.3L234.48,280.48L234.6,168.52L235.51,302.33L235.63,296.86L236.42,302.87L236.54,302.87L237.11,302.87L237.22,302L237.57,302.64L237.68,302.51L237.8,217.27L238.48,302.58L238.6,301.1L238.71,299.76L238.82,300.12L238.94,292.19L239.85,300.99L239.97,300.78L240.2,296.96L240.42,299.27L240.54,299.87L240.65,300.49L241,299.39L241.11,294.06L241.45,300.44L241.68,299.57L241.8,276.88L242.48,299.35L242.71,299.34L242.82,299.34L243.17,299.59L243.74,299.29L243.85,299.66L244.65,299.84L244.77,299.94L244.88,299.79L245.11,300.26L245.22,297.37L246.14,299.21L246.25,299.13L247.28,299.21L247.39,294.71L248.19,299.28L248.31,299.14L248.42,294.85L248.99,298.26L249.11,298.44L251.39,298.95L251.51,300.07L251.85,301.63L252.31,300.84L252.42,301.3L252.65,301.71L252.77,301.38L252.88,299.04L253.45,301.68L253.68,301.13L253.79,301.06L253.91,300.06L254.25,301.67L254.48,301.16L254.59,301.07L254.71,297.62L255.05,301.72L255.28,300.93L255.39,300.94L255.62,300.83L255.74,297.8L255.97,300.94L256.54,300.46L256.65,299.22L257.45,300.13L257.56,299.51L257.79,294.11L257.91,295.55L258.02,298.37L258.25,299.56L258.71,298.26L258.82,298.31L259.05,298.72L259.16,298.42L259.28,297.51L260.54,293.33L260.65,296.19L260.88,263.11L261.22,293.19L261.34,294.81L261.79,295.82L261.91,294.34L262.02,291.46L262.14,285.99L262.36,294.62L262.71,293.01L262.82,293.24L263.39,296.18L263.74,295.93L263.85,295.95L263.96,296.18L264.08,281.98L264.99,297.77L265.11,297.84L265.45,298.34L265.56,294.52L266.02,298.16L266.25,297.7L266.36,295.32L266.59,296.56L266.82,295.82L266.94,289.09L267.85,300.78L267.96,276.96L268.76,295.18L268.88,295.13L269.68,295.64L269.79,298.44L270.36,302.71L270.59,302.55L270.71,302.74L271.96,303.91L272.08,303.53L272.19,298.21L272.76,303.58L272.88,303.34L273.22,303.13L273.45,303.64L273.56,303.76L274.59,303.62L274.71,303.6L275.05,303.9L275.16,297.85L276.19,303.58L276.31,303.57L276.53,303.65L276.65,299.95L276.99,295.82L277.45,303.28L277.56,303.27L277.79,303.48L277.91,302.47L278.25,303.27L278.48,299.81L278.59,302.5L278.7,302.69L279.85,303.79L279.96,303.63L280.42,303.3L280.53,298.38L281.33,303.3L281.45,303.63L281.79,303.11L281.9,293.23L282.02,277.56L282.25,298L282.59,290.77L282.7,289.78L283.62,300.8L283.73,303.96L285.9,302.82L286.02,303.03L286.93,303.13L287.05,303.16L287.28,303.16L287.39,301.73L288.3,302.79L288.42,302.79L290.59,303L290.7,302.91L290.82,302.01L291.5,302.46L291.62,302.46L292.19,302.49L292.3,295.61L292.42,294.74L292.76,297.51L292.87,297.57L294.59,298.01L294.7,301.18L295.05,304L295.5,303.79L295.62,303.48L295.85,303.92L295.96,294.86L296.76,303.88L296.87,303.53L297.56,303.45L297.67,302.08L298.02,301.38L298.13,301.8L298.25,302.17L298.36,299.58L298.93,301.33L299.05,301.26L299.16,300.58L299.73,301.31L299.84,301.8L300.07,300.81L300.53,301.24L300.64,301.76L300.87,300.94L300.99,298.57L301.33,291.7L301.67,298.62L301.79,298.03L301.9,297.58L302.13,298.43L302.24,298.43L302.36,286.4L303.04,298.51L303.16,298.02L303.27,297.79L303.5,296.26L303.62,288.42L303.73,288.97L303.84,296.81L303.96,297.37L304.19,297.24L304.3,293.49L304.42,293.65L304.53,295.24L304.76,293.09L304.99,296.71L305.1,296.18L305.22,297.09L305.44,297.39L305.56,296.27L306.24,296.71L306.47,291.89L306.59,294.5L307.04,277.43L307.27,291.52L307.39,294.49L307.5,294.19L307.62,291.02L307.73,286.84L308.19,294.94L308.3,292.51L308.42,293.82L308.64,268.13L308.87,281.02L308.99,287.9L309.44,297.13L309.79,293.61L309.9,280.53L310.47,294.35L310.81,291.07L310.93,290L311.73,296.12L311.84,296.26L312.3,296.55L312.41,286.3L313.21,296.84L313.33,297.09L314.01,297.63L314.13,275.92L314.93,293.42L315.04,293.64L315.16,293.5L315.39,294.04L315.5,298.9L315.84,302.62L316.3,302.26L316.41,302.38L316.64,303L317.1,302.75L317.21,302.39L317.44,303.11L317.9,302.77L318.01,300.67L318.36,303.19L318.7,303.03L318.81,297.79L318.93,293.07L319.5,299.41L319.61,299.63L319.73,299.91L319.84,299.31L319.96,292.5L320.87,301.28L320.98,301.84L321.21,293.39L321.78,298.74L321.9,298.72L322.01,289.06L322.58,298.71L322.7,299.12L322.93,297.47L323.16,300.92L323.27,301.62L323.84,302.5L324.07,302.28L324.18,299.18L324.53,302.93L324.98,302.01L325.1,295.26L326.24,303.35L326.36,302.93L327.04,247.5L327.16,285.13L327.84,300.03L328.07,299.62L328.18,297.24L328.64,301L329.1,300.55L329.21,300.44L329.44,301.05L329.9,300.66L330.01,300.25L330.13,299.72L330.36,300.92L330.58,300.66L330.7,300.62L331.15,301.28L331.27,297.73L331.73,299.69L331.84,293.57L332.64,301.41L332.75,301.34L332.87,300.95L333.1,301.51L333.21,292.73L333.33,246.97L333.9,291.46L334.01,292.65L334.35,294.99L334.58,292.25L334.81,293.29L334.93,262.63L335.84,290.56L335.95,290.69L336.07,290.52L336.18,292.06L337.21,295.69L337.33,289.54L337.67,268.45L338.01,286.74L338.13,288.01L339.15,292.57L339.27,292.52L340.64,293.9L340.75,293.16L340.87,290.75L341.32,294.41L341.44,294.99L341.78,294.63L342.12,295.18L342.24,295.97L342.47,295.53L342.92,296.2L343.04,296.55L343.27,296.11L343.61,296.73L343.72,290.71L343.95,293.1L344.18,274.72L344.41,285.95L344.52,289.29L344.75,291.38L344.87,288.9L344.98,267.64L345.21,287.54L345.78,286.54L345.9,286.18L346.92,291.44L347.04,290.94L347.38,291.78L347.5,287.61L347.61,283.21L347.95,291.35L348.07,291.28L348.18,290.42L348.98,288.67L349.1,282.8L349.44,291.35L350.01,290.47L350.12,291.15L350.24,291.59L350.58,290.2L350.7,290.16L350.81,289.84L350.92,289.97L351.04,285.82L351.84,293.74L351.95,293.63L352.07,293.55L353.09,295.83L353.21,291.16L353.32,290.15L353.44,296.85L354.35,299.71L354.47,297.54L354.81,299.35L355.04,289.19L355.27,289.5L355.38,293.65L356.07,295.39L356.18,293.58L356.75,300.02L356.98,298.03L357.09,298.83L357.67,302.48L357.78,303.11L357.89,302.5L358.35,303.71L358.47,303.55L358.69,303.43L358.81,299.7L358.92,275.14L359.49,292.38L359.61,292.65L360.64,295.32L360.75,298.01L360.87,298.27L360.98,287.71L361.89,297.59L362.01,297.84L362.24,298.03L362.35,301.09L362.58,302.78L362.81,302.71L362.92,297.47L363.26,283.89L363.49,301.38L363.61,293.93L363.72,301.31L364.52,288.99L364.64,297.23L365.09,295.33L365.44,301.71L365.55,301.64L365.66,301.5L365.89,300.55L366.24,301.7L366.35,302.13L366.81,301.58L367.15,301.95L367.26,297.75L367.38,269.93L367.95,299.4L368.06,299.56L368.64,300.81L368.75,299.78L369.55,300.74L369.89,300.45L370.01,300.3L370.24,301.05L370.81,300.47L370.92,300.65L371.15,301.06L371.38,300.45L371.61,300.54L371.72,300.64L371.95,300.04L372.98,301.07L373.09,300.89L374.01,300.86L374.12,301.04L374.23,301.32L374.35,298.42L374.69,286.38L375.03,297L375.15,297.8L375.95,298.35L376.06,294.34L376.75,296.9L376.86,296.62L376.98,295.41L377.09,293.34L377.55,297.19L377.66,296.94L377.78,296.41L378.01,298.06L378.12,298.39L378.23,298.71L378.35,296.27L379.38,299.22L379.49,295.84L379.83,299.44L379.95,296.59L380.06,278.88L380.75,296.38L380.98,291.7L381.09,294.38L381.21,262.77L381.78,291.42L381.89,291.74L382.46,292.19L382.58,287.44L383.03,290.58L383.26,286.95L383.38,287.92L383.49,288.3L383.83,287L383.95,286.43L384.06,286.14L384.4,286.96L384.52,287.37L384.63,287.68L384.75,282.14L385.55,289.02L385.66,288.52L385.78,289.42L386.12,290.83L386.23,287.77L387.03,295.42L387.15,288.4L387.83,295.6L387.95,289.6L388.98,296.52L389.09,296.91L389.32,287.58L389.43,289.86L389.55,241.31L389.66,222.31" style="vector-effect: non-scaling-stroke; fill: none; stroke: rgb(255, 0, 0); stroke-opacity: 1; stroke-width: 2px; opacity: 1;"/><path class="js-line" d="M390.8,285.18L391.6,292.45L391.83,292.21L391.95,293.15L392.29,293.41L392.4,290.35L393.32,295.06L393.43,295.46L393.66,294.45L393.77,288.1L393.89,287.28L394,291.3L394.12,292.23L394.23,293.84L394.35,289.14L394.46,280.15L394.69,293.68L394.92,270.96L395.26,293.28L395.37,294.09L395.72,295.54L395.83,292.69L395.95,292.52L396.52,297.11L396.63,285.49L396.75,290.06L396.86,295.06L397.89,298.98L398,298.94L398.69,299.32L398.8,299.05L399.03,300.52L399.37,299.28L399.49,296.67L399.6,296.14L399.72,300.27L399.83,300.94L399.95,293.36L400.06,277.55" style="vector-effect: non-scaling-stroke; fill: none; stroke: rgb(255, 0, 0); stroke-opacity: 1; stroke-width: 2px; opacity: 1;"/><path class="js-line" d="M400.4,295.85L400.75,297.31L400.86,293.26L401.09,292.81L401.66,296.41L401.77,296.53L401.89,283.8L402.35,301.87L402.46,301.73L402.57,301.8L403.15,302.23L403.37,301.71L403.49,301.2L403.6,300.89L403.83,301.82L403.95,301.6L404.06,289.91L404.52,300.72L404.63,286.45L404.97,300.31L405.09,300.49L405.2,278.11L405.77,299.55L405.89,299.8L407.72,301.22L407.83,242.04L408.06,258.12L408.17,285.14L409.2,295.15L409.32,295.46L410.12,296.68L410.23,292.75L411.03,297.38L411.14,296.86L411.26,296.42L411.72,297.49L411.83,297.86L412.52,295.42L412.63,297.42L413.32,297.79L413.43,298.3L413.66,294.95L414.12,298.12L414.23,298.66L414.57,298.07L414.91,298.6L415.03,298.92L415.49,298.33L415.71,298.8L415.83,299.22L415.94,299.09L416.06,295.58L416.29,286.71L416.4,293.34L416.51,297.18L417.43,299.18L417.54,298.83L417.77,298.49L418,299.16L418.11,299.04L418.23,299.49L418.8,298.83L418.91,299.16L419.03,299.69L419.37,298.88L419.71,299.57L419.83,300.03L420.4,299.51L420.51,290.42L421.31,298.87L421.43,299.35L421.77,298.91L422.11,299.15L422.23,299.63L422.46,298.74L422.57,299L422.69,293.72L423.14,299.25L423.6,299.16L423.71,299.2L423.94,299.67L424.17,299.17L424.29,297.49L424.63,299.32L425.09,298.16L425.2,298.05L425.66,178.23L425.88,269.98L426,277.86L427.14,288.41L427.26,278.69L428.28,289.95L428.4,290.06L429.43,293.3L429.66,293.14L429.77,293.28L430,294.04L430.11,290.84L430.34,294.41L430.57,293.3L430.68,278.64L431.6,294.87L431.71,295.42L432.17,295.53L432.63,271.06L432.74,290.02L433.54,294.71L433.66,294.68L433.77,294.73L434.23,296.07L434.34,289.86L434.68,294.88L434.8,294.81L434.91,266.67L435.14,290.24L435.6,270.89L435.71,265.59L436.51,287.75L436.63,288.14L438.11,293.72L438.23,294.81L438.45,292.93L438.8,296L438.91,296.69L439.25,298.16L439.37,281.77L440.28,293.76L440.4,293.9L440.74,294.62L440.85,276.94L440.97,272.85L441.43,282.24L441.54,282.92L442.8,286.94L442.91,290.78L443.94,299.9L444.05,299.98L445.31,300.35L445.43,291.17L445.54,290.97L445.65,291.97L445.77,292.43L447.37,298.77L447.48,300.02L447.6,300.2L447.71,298.92L448.62,301L448.74,300.77L449.2,300.3L449.54,300.72L449.65,300.41L450.22,300.93L450.57,300.4L450.68,299.79L451.02,300.6L451.14,296.5L451.25,295.01L451.37,299.33L451.48,286.49L451.94,297.68L452.17,296.59L452.28,240.13L453.31,285.34L453.42,285.53L453.54,285.71L453.65,233.71L453.77,236.36L453.88,278.36L454.11,284.69L454.34,272.4L454.45,236.55L455.25,285.61L455.37,286.03L456.62,289.63L456.74,289.64L457.31,290.73L457.42,291.2L457.77,291.09L457.99,291.44L458.11,291.69L459.14,292.61L459.25,292.47L460.51,293.29L460.62,293.75L460.85,292.86L461.31,293.96L461.42,294.47L461.77,293.72L461.99,294.64L462.11,292.99L462.68,291.83L463.02,295.02L463.14,294.95L463.48,294.81L463.71,295.29L463.82,296.23L464.05,295.39L464.51,296.13L464.62,296.89L464.85,295.93L465.31,296.56L465.42,297.43L465.65,296.52L466.11,296.85L466.22,298.12L466.57,297.41L466.91,297.98L467.02,298.85L467.25,297.73L467.71,298.13L467.82,299.05L468.16,293.01L468.28,273.23L469.19,295.96L469.31,295.95L469.42,296.88L469.54,296.59L469.65,291.58L469.76,276.56L470.34,293.68L470.45,293.65L470.68,293.87L470.79,290.71L471.82,294.96L471.94,295.25L472.51,294.97L472.62,289.66L472.74,281.62L473.08,293.2L473.19,293.14L473.31,293.78L473.42,282.66L473.99,294.16L474.11,294.79L474.34,287.44L474.79,293.39L474.91,294.19L475.02,285.08L475.59,293.09L475.71,293.62L475.82,294.12L475.94,287.73L476.05,291.6" style="vector-effect: non-scaling-stroke; fill: none; stroke: rgb(255, 0, 0); stroke-opacity: 1; stroke-width: 2px; opacity: 1;"/><path class="js-line" d="M632.03,296.53L632.6,275.92L633.17,278.66L633.29,279.13L634.66,261.1L634.77,268.02L634.89,269.68L635,264.15L635.57,270.54L635.68,271.36L635.91,271.65L636.03,270.8L636.14,270.53L636.26,270.43L636.37,266.01L636.6,270.81L636.71,270.68L636.83,248.74L637.63,270.94L637.74,271.1L638.08,271.66L638.2,274.65L638.54,273.07L638.66,250.29L639.57,265.26L639.68,260.08L640.03,270.77L640.26,270.41" style="vector-effect: non-scaling-stroke; fill: none; stroke: rgb(255, 0, 0); stroke-opacity: 1; stroke-width: 2px; opacity: 1;"/><path class="js-line" d="M640.71,268.79L640.83,261.9L641.4,268.5L641.51,269.25L641.86,263.16L641.97,266.16L642.08,267.86L642.31,265.26L642.77,268.7L642.88,269.91L643,270.41L643.11,267.19L644.14,276.32L644.26,276.53L644.83,277.44L644.94,276.72L645.06,275.76L645.17,277.28L645.28,257.41L646.31,268.88L646.43,269.05L647.45,269.9L647.57,266.16L648.71,271.24L648.83,271.29L649.51,271.56" style="vector-effect: non-scaling-stroke; fill: none; stroke: rgb(255, 0, 0); stroke-opacity: 1; stroke-width: 2px; opacity: 1;"/><path class="js-line" d="M651.68,267.89L652.03,268.33L652.14,266.5L653.28,277.55L653.4,277.63L654.43,277.36L654.54,277.32L654.77,277.56L654.88,250.24L655.91,277.25L656.03,277.44L656.25,278.14L656.37,267.66L656.6,255.68L656.82,262.95" style="vector-effect: non-scaling-stroke; fill: none; stroke: rgb(255, 0, 0); stroke-opacity: 1; stroke-width: 2px; opacity: 1;"/><path class="js-line" d="M658.77,258.67L659,260.89" style="vector-effect: non-scaling-stroke; fill: none; stroke: rgb(255, 0, 0); stroke-opacity: 1; stroke-width: 2px; opacity: 1;"/><path class="js-line" d="M660.02,260.97L661.05,261.55L661.17,261.49L662.77,261.51" style="vector-effect: non-scaling-stroke; fill: none; stroke: rgb(255, 0, 0); stroke-opacity: 1; stroke-width: 2px; opacity: 1;"/><path class="js-line" d="M663.11,261.62L663.34,232.61L663.57,258.94L663.68,259.06L663.8,254.54L664.14,259.63L664.37,259.54L664.48,259.53L665.74,259.85L665.85,259.78L667.11,260.05L667.22,260L667.57,260.04L667.68,264.06L668.48,300.09L668.59,300.08L669.39,301.08L669.62,300.51L669.74,300.38L669.97,299.58L670.08,293.87L670.31,288.04L670.65,298.82L670.77,289.56L670.88,282.4L671.34,296.86L671.45,296.77L671.91,298.51L672.02,298.42L672.14,288.48L672.59,298.72L672.71,292.39L672.82,270.16L673.62,295.99L673.74,296.41L673.85,296.8L673.97,292.75L674.19,295.03L674.31,296.86L674.42,297.49L674.54,296.61L674.77,296.68L674.88,287.79L675.57,296.13L675.68,296.12L675.79,296.23L676.82,298.47L676.94,298.47L677.17,294.04L677.28,256.37L677.96,291.62L678.08,289.23L678.19,289.23L678.99,292.88L679.11,292.93L680.94,292.9L681.05,290.44L681.39,294.95L681.96,294.92L682.08,295.23L683.34,298.43L683.45,297.8L683.56,297.9L683.79,298.69L684.36,298.45L684.48,298.58L684.82,298.34L684.94,299.7L685.05,298.49L685.16,296.94L686.65,301.2L686.76,301.2L687.11,301.67L687.22,302.14L687.34,266.99L687.91,301.01L688.02,301.01L689.73,301.54L689.85,301.54L690.99,301.65L691.11,301.48L691.33,301.16L691.68,301.82L691.79,301.94L693.05,300.98L693.16,301.59L694.19,301.96L694.31,301.73L695.33,301.54L695.45,300.41L695.91,301.51L696.02,301.48L696.13,289.9L696.25,288.02L696.36,301.2L697.05,301.2L697.16,280.39L697.39,301.3L697.96,301.2L698.08,301.2L698.19,301.39L698.3,279.82L698.88,301.86L699.22,301.11L699.33,301.11L700.93,301.11L701.05,284.25L701.73,300.57L701.96,300.54L702.08,300.97L702.19,301.45L702.76,300.66L702.88,300.07L702.99,299.7L703.1,300.71L703.45,300.52L703.56,300.75L703.79,301.31L704.25,300.57L704.36,300.6L704.59,301.03L704.93,300.54L705.05,300.38L705.39,301.01L705.85,300.49L705.96,300.5L706.19,301.33L706.65,300.85L706.76,300.72L706.99,301.3L707.1,300.54L707.56,300.82L707.68,300.82L710.07,300.93L710.19,287.63L710.87,300.78L711.1,300.63L711.22,300.54L712.25,300.73L712.36,269.48L712.93,298.95L713.16,294.09L713.27,298.39L713.39,296.57L713.5,243.68L714.19,297.91L714.42,294.52L714.53,296.66L714.76,297.59L714.87,296.58L714.99,294.56L715.9,298.49L716.02,294.71L716.25,266.11L716.59,284.59L716.7,283.16L718.19,297.25L718.3,297.28L718.76,297.29L718.99,275.04L719.1,285.98L719.22,290.39L719.79,296.7L720.24,296.48L720.36,296.62L720.47,297.01L720.59,288.87L720.82,293.83L720.93,234.39L721.73,296L721.84,296.78L722.87,300.62L722.99,292.6L723.56,300.76L723.79,300.56L723.9,287.52L724.36,299.33L724.47,295.6L724.59,258.1L724.93,296.35L725.39,273.45L725.5,273.55L725.62,273.12L725.73,288.66L726.19,298.42L726.42,295.34L726.53,281.01L726.87,298.6L727.33,294.81L727.44,286.62L727.79,299.71L728.24,291.16L728.36,290.85L729.39,292.28L729.5,291.52L729.62,291.37L729.73,291.57L729.84,268.36L730.76,298.47L730.87,296.73L731.79,299.15L731.9,286.73L732.47,297.98L732.7,296.73L732.81,296.73L733.16,296.73L733.27,297.98L734.19,298.57L734.3,295.43L734.53,291.19L734.64,271.16L735.44,291.02L735.56,282.14L736.81,300.99L736.93,296.72L737.04,297.03L737.16,169.27L737.73,280.8L737.84,275.58L737.96,267.45L738.41,279.07L738.53,278.56L738.64,274.72L740.58,286.08L740.7,281.81L741.04,280.66L741.27,282.59L741.38,283.29L741.73,249.4L741.84,275.46L742.07,278.6L742.18,266.54L742.3,179.57L742.87,279.14L742.98,281.24L743.56,285.24L743.67,275.81L743.78,269.98L744.01,279.83L744.13,231.07L744.24,233.91L744.36,269.08L744.81,264.95L745.04,279.24L745.16,251.57L745.73,281.33L745.96,274.08L746.07,274.23L746.98,281.17L747.1,277.38L747.56,279.59L747.67,288.47L748.7,292.97L748.81,292.75L748.93,292.93L749.04,291.46L749.5,294.03L749.61,293.98L749.84,291.39L750.41,292.96L750.53,293.08L750.75,292.67L750.98,293.69L751.1,293.42L751.21,293.97L751.55,293.58L751.67,294.21L751.78,294.8L752.13,294.11L752.35,294.69L752.47,295.25L752.58,295.65L752.81,295.01L752.93,295.17L753.04,293.2L754.07,296.02L754.18,296.56L754.87,295.96L754.98,297.11L755.44,296.64L755.67,297.04L755.78,297.67L756.13,296.95L756.47,297.25L756.58,297.92L756.81,296.95L757.27,297.44L757.38,298.21L757.61,297.04L758.07,297.69L758.18,298.25L758.64,295.55L758.75,297.95L758.98,298.99L759.33,297.96L759.44,297.9L759.78,299.37L760.01,298.59L760.13,297.34L760.58,299.56L761.04,299.41L761.15,298.88L761.38,299.61L761.5,299.13L761.61,288.62L762.07,287.58L762.3,296.08L762.41,284.52L763.44,296.65L763.55,297.58L763.78,297.06L764.12,297.88L764.24,296.39L764.7,299.22L765.04,298.25L765.15,279.22L766.07,298.5L766.18,298.9L766.52,299.08L766.64,298.97L766.75,292.19L766.98,296.1L767.1,287.95L767.32,290.04L767.44,294.94L767.9,296.86L768.01,289.53L768.12,296.32L768.24,298.66L768.58,300.17L769.04,299.28L769.15,299.16L769.38,299.51L769.5,299.21L769.61,288.1L770.18,298.82L770.41,297.47L770.52,297.34L770.64,297.49L770.75,295.41L771.1,298.48L771.67,298.33L771.78,297.86L772.01,297.49L772.58,301.15L772.69,300.4L772.81,287.72L773.49,301.54L773.61,301.5L773.72,298L774.64,301.88L774.75,301.85L774.87,299.31L775.44,301.94L775.55,302L776.58,302.26L776.69,300.59L777.72,303.41L777.84,303.48L778.87,299.89L778.98,301.23L779.09,289.42L779.89,301.89L780.01,275.83L780.81,295.96L780.92,287.65L781.95,301.53L782.07,301.69L782.75,302.54L782.86,302.27L782.98,301.88L783.32,301.25L783.66,302.08L783.78,302.35L784.01,301.04L784.35,302.21L784.46,302.46L784.58,302.62L784.69,302.44L784.81,296.06L784.92,212.22L785.49,299.65L785.61,300L785.72,299.78L785.84,300.23L785.95,300.01L786.06,297.46L786.18,297.24L786.29,300.56L786.41,296.9L786.98,300.91L787.09,301.18L787.44,295.3L787.55,298.24L787.66,300.17L787.78,301.76L788.12,299.84L788.24,299.86L788.35,296.54L788.46,287.43L788.69,299.8L789.04,299.56L789.15,299.62L789.38,301.02L789.61,299.66L789.72,280.99L789.84,256.04L790.29,296.58L790.41,296.94L790.98,297.44L791.09,297.16L791.21,296.78L791.44,297.07L791.55,280.09L792.24,296.31L792.58,296.25L792.69,296.66L793.03,294.6L793.26,296.66L793.38,297.36L793.49,297.67L793.72,296.36L793.83,296.36L793.95,289.87L794.18,296.99L794.52,296.24L794.63,296.32L795.09,290.38L795.21,185.33L795.32,16L795.89,266.16L796.01,266.71L796.46,272.35L796.58,273.58L798.86,283.35L798.98,285.02L799.78,288.69L799.89,283.24L800.92,293.28L801.03,293.35L801.38,294.73L801.49,286.27L802.41,297.64L802.52,297.45L802.63,297.46L802.98,298.47L803.09,297.48L803.21,297.52L803.32,296.41L803.78,298.83L803.89,298.79L804,298.34L804.46,299.18L804.58,299.29L805.72,253.91L805.83,272.42L806.98,292.75L807.09,292.91L807.66,293.64L807.78,283.62L808.23,279.07L808.69,296.58L808.8,296.67L809.83,298.24L809.95,286.01L810.18,300.5L810.63,281.78L810.75,295.05L810.86,298.57L810.98,252.95L811.55,284.82L811.66,286.13L811.89,286.84L812,280.72L812.35,282.95L812.46,272.86L812.69,280.42L812.8,280.92L812.92,281.25L813.03,288.94L813.38,297.51L813.72,297.42L813.83,287.9L813.95,261.32L814.52,298.25L814.63,298.72L814.97,299.64L815.09,297.46L815.2,295.14L815.66,298.87L815.77,299.44L816.35,299.21L816.46,299.72L817.37,301.53L817.49,299.47L817.6,290.89L818.06,300.47L818.17,291.47L818.29,296.83L819.32,298.46L819.43,298.61L820.23,299.68L820.35,299.18L820.46,291.52L820.57,288.49L820.8,298.39L820.92,299.99L821.37,301.4L821.6,300.33L821.72,299.78L821.83,298.59L822.17,301.85L822.29,301.7L822.4,301.64L823.09,291.07L823.2,297.02L823.32,298.85L823.89,300.47L824.23,299.81L824.34,298.87L825.03,300.37L825.14,291.57L825.6,298.26L826.06,298.2L826.17,298.33L826.97,298.48L827.09,287.43L828,292.99L828.12,285.73L828.34,291.48L828.92,290.71L829.03,290.79L829.37,291.19L829.49,295.81L830.29,301.21L830.4,300.84L830.63,299.81L830.74,289.48L830.86,268.11L831.43,299.82L831.54,299.94L833.03,300.81L833.14,292.71L834.06,301.66L834.17,301.7L835.2,301.8L835.31,301.9L835.54,301.8L835.66,298.29L836.57,301.88L836.69,301.8L837.03,301.69L837.14,300.43L837.94,301.67L838.06,301.72L838.86,301.78L838.97,301.69L839.54,301.09L839.66,301.41L839.77,301.91L840,301.88" style="vector-effect: non-scaling-stroke; fill: none; stroke: rgb(255, 0, 0); stroke-opacity: 1; stroke-width: 2px; opacity: 1;"/></g><g class="points"/><g class="text"/></g></g></g><g class="overplot"/><path class="xlines-above crisp" d="M0,0" style="fill: none;"/><path class="ylines-above crisp" d="M0,0" style="fill: none;"/><g class="overlines-above"/><g class="xaxislayer-above"><g class="xtick"><text text-anchor="middle" x="0" y="433" transform="translate(246.95,0)" style="font-family: 'Open Sans', verdana, arial, sans-serif; font-size: 12px; fill: rgb(42, 63, 95); fill-opacity: 1; white-space: pre; opacity: 1;">2005</text></g><g class="xtick"><text text-anchor="middle" x="0" y="433" style="font-family: 'Open Sans', verdana, arial, sans-serif; font-size: 12px; fill: rgb(42, 63, 95); fill-opacity: 1; white-space: pre; opacity: 1;" transform="translate(455.61,0)">2010</text></g><g class="xtick"><text text-anchor="middle" x="0" y="433" style="font-family: 'Open Sans', verdana, arial, sans-serif; font-size: 12px; fill: rgb(42, 63, 95); fill-opacity: 1; white-space: pre; opacity: 1;" transform="translate(664.26,0)">2015</text></g><g class="xtick"><text text-anchor="middle" x="0" y="433" style="font-family: 'Open Sans', verdana, arial, sans-serif; font-size: 12px; fill: rgb(42, 63, 95); fill-opacity: 1; white-space: pre; opacity: 1;" transform="translate(872.92,0)">2020</text></g></g><g class="yaxislayer-above"><g class="ytick"><text text-anchor="end" x="79" y="4.199999999999999" transform="translate(0,404.03)" style="font-family: 'Open Sans', verdana, arial, sans-serif; font-size: 12px; fill: rgb(42, 63, 95); fill-opacity: 1; white-space: pre; opacity: 1;">0</text></g><g class="ytick"><text text-anchor="end" x="79" y="4.199999999999999" style="font-family: 'Open Sans', verdana, arial, sans-serif; font-size: 12px; fill: rgb(42, 63, 95); fill-opacity: 1; white-space: pre; opacity: 1;" transform="translate(0,356.94)">5</text></g><g class="ytick"><text text-anchor="end" x="79" y="4.199999999999999" style="font-family: 'Open Sans', verdana, arial, sans-serif; font-size: 12px; fill: rgb(42, 63, 95); fill-opacity: 1; white-space: pre; opacity: 1;" transform="translate(0,309.85)">10</text></g><g class="ytick"><text text-anchor="end" x="79" y="4.199999999999999" style="font-family: 'Open Sans', verdana, arial, sans-serif; font-size: 12px; fill: rgb(42, 63, 95); fill-opacity: 1; white-space: pre; opacity: 1;" transform="translate(0,262.76)">15</text></g><g class="ytick"><text text-anchor="end" x="79" y="4.199999999999999" style="font-family: 'Open Sans', verdana, arial, sans-serif; font-size: 12px; fill: rgb(42, 63, 95); fill-opacity: 1; white-space: pre; opacity: 1;" transform="translate(0,215.67000000000002)">20</text></g><g class="ytick"><text text-anchor="end" x="79" y="4.199999999999999" style="font-family: 'Open Sans', verdana, arial, sans-serif; font-size: 12px; fill: rgb(42, 63, 95); fill-opacity: 1; white-space: pre; opacity: 1;" transform="translate(0,168.57999999999998)">25</text></g><g class="ytick"><text text-anchor="end" x="79" y="4.199999999999999" style="font-family: 'Open Sans', verdana, arial, sans-serif; font-size: 12px; fill: rgb(42, 63, 95); fill-opacity: 1; white-space: pre; opacity: 1;" transform="translate(0,121.49)">30</text></g></g><g class="overaxes-above"/></g></g><g class="polarlayer"/><g class="smithlayer"/><g class="ternarylayer"/><g class="geolayer"/><g class="funnelarealayer"/><g class="pielayer"/><g class="iciclelayer"/><g class="treemaplayer"/><g class="sunburstlayer"/><g class="glimages"/><defs id="topdefs-022229"><g class="clips"/></defs><g class="layer-above"><g class="imagelayer"/><g class="shapelayer"/></g><g class="infolayer"><g class="g-gtitle"><text class="gtitle" x="50" y="50" text-anchor="start" dy="0em" style="font-family: 'Open Sans', verdana, arial, sans-serif; font-size: 17px; fill: rgb(42, 63, 95); opacity: 1; font-weight: normal; white-space: pre;">Aforament - les Masies de Roda (Gurri)--a32.csv</text></g><g class="g-xtitle"><text class="xtitle" x="500" y="460.8" text-anchor="middle" style="font-family: 'Open Sans', verdana, arial, sans-serif; font-size: 14px; fill: rgb(42, 63, 95); opacity: 1; font-weight: normal; white-space: pre;">Data</text></g><g class="g-ytitle"><text class="ytitle" transform="rotate(-90,38.934375,260)" x="38.934375" y="260" text-anchor="middle" style="font-family: 'Open Sans', verdana, arial, sans-serif; font-size: 14px; fill: rgb(42, 63, 95); opacity: 1; font-weight: normal; white-space: pre;">Cabal (m3/s)</text></g></g></svg>