<svg class="main-svg" xmlns="http://www.w3.org/2000/svg" xmlns:xlink="http://www.w3.org/1999/xlink" width="1000" height="500" style="" viewBox="0 0 1000 500"><rect x="0" y="0" width="1000" height="500" style="fill: rgb(255, 255, 255); fill-opacity: 1;"/><defs id="defs-3c9e48"><g class="clips"><clipPath id="clip3c9e48xyplot" class="plotclip"><rect width="840" height="320"/></clipPath><clipPath class="axesclip" id="clip3c9e48x"><rect x="80" y="0" width="840" height="500"/></clipPath><clipPath class="axesclip" id="clip3c9e48y"><rect x="0" y="100" width="1000" height="320"/></clipPath><clipPath class="axesclip" id="clip3c9e48xy"><rect x="80" y="100" width="840" height="320"/></clipPath></g><g class="gradients"/><g class="patterns"/></defs><g class="bglayer"><rect class="bg" x="80" y="100" width="840" height="320" style="fill: rgb(229, 236, 246); fill-opacity: 1; stroke-width: 0;"/></g><g class="layer-below"><g class="imagelayer"/><g class="shapelayer"/></g><g class="cartesianlayer"><g class="subplot xy"><g class="layer-subplot"><g class="shapelayer"/><g class="imagelayer"/></g><g class="minor-gridlayer"><g class="x"/><g class="y"/></g><g class="gridlayer"><g class="x"><path class="xgrid crisp" transform="translate(246.95,0)" d="M0,100v320" style="stroke: rgb(255, 255, 255); stroke-opacity: 1; stroke-width: 1px;"/><path class="xgrid crisp" transform="translate(455.61,0)" d="M0,100v320" style="stroke: rgb(255, 255, 255); stroke-opacity: 1; stroke-width: 1px;"/><path class="xgrid crisp" transform="translate(664.26,0)" d="M0,100v320" style="stroke: rgb(255, 255, 255); stroke-opacity: 1; stroke-width: 1px;"/><path class="xgrid crisp" transform="translate(872.92,0)" d="M0,100v320" style="stroke: rgb(255, 255, 255); stroke-opacity: 1; stroke-width: 1px;"/></g><g class="y"><path class="ygrid crisp" transform="translate(0,358.14)" d="M80,0h840" style="stroke: rgb(255, 255, 255); stroke-opacity: 1; stroke-width: 1px;"/><path class="ygrid crisp" transform="translate(0,312.28)" d="M80,0h840" style="stroke: rgb(255, 255, 255); stroke-opacity: 1; stroke-width: 1px;"/><path class="ygrid crisp" transform="translate(0,266.40999999999997)" d="M80,0h840" style="stroke: rgb(255, 255, 255); stroke-opacity: 1; stroke-width: 1px;"/><path class="ygrid crisp" transform="translate(0,220.55)" d="M80,0h840" style="stroke: rgb(255, 255, 255); stroke-opacity: 1; stroke-width: 1px;"/><path class="ygrid crisp" transform="translate(0,174.69)" d="M80,0h840" style="stroke: rgb(255, 255, 255); stroke-opacity: 1; stroke-width: 1px;"/><path class="ygrid crisp" transform="translate(0,128.82)" d="M80,0h840" style="stroke: rgb(255, 255, 255); stroke-opacity: 1; stroke-width: 1px;"/></g></g><g class="zerolinelayer"><path class="yzl zl crisp" transform="translate(0,404)" d="M80,0h840" style="stroke: rgb(255, 255, 255); stroke-opacity: 1; stroke-width: 2px;"/></g><path class="xlines-below"/><path class="ylines-below"/><g class="overlines-below"/><g class="xaxislayer-below"/><g class="yaxislayer-below"/><g class="overaxes-below"/><g class="plot" transform="translate(80,100)" clip-path="url(#clip3c9e48xyplot)"><g class="scatterlayer mlayer"><g class="trace scatter trace010431" style="stroke-miterlimit: 2; opacity: 1;"><g class="fills"/><g class="errorbars"/><g class="lines"><path class="js-line" d="M3.54,303.91L20.23,303.99" style="vector-effect: non-scaling-stroke; fill: none; stroke: rgb(255, 0, 0); stroke-opacity: 1; stroke-width: 2px; opacity: 1;"/><path class="js-line" d="M33.25,303.78L33.37,303.27" style="vector-effect: non-scaling-stroke; fill: none; stroke: rgb(255, 0, 0); stroke-opacity: 1; stroke-width: 2px; opacity: 1;"/><path class="js-line" d="M36.45,298.29L36.68,304" style="vector-effect: non-scaling-stroke; fill: none; stroke: rgb(255, 0, 0); stroke-opacity: 1; stroke-width: 2px; opacity: 1;"/><path class="js-line" d="M52.34,303.39L52.45,303.77" style="vector-effect: non-scaling-stroke; fill: none; stroke: rgb(255, 0, 0); stroke-opacity: 1; stroke-width: 2px; opacity: 1;"/><path class="js-line" d="M73.13,303.09L73.82,298.91L74.05,301L74.16,300.89L75.42,301.06L75.53,300.78L76.45,300.86L76.56,300.78L76.9,300.47L77.48,301.12L77.59,300.74L78.05,300.15L78.39,300.46L78.5,300.41L79.07,300.53L79.19,300.02L79.42,299.82L79.53,300.52L79.65,300.62L79.87,301.67L80.45,301.25L80.56,301.13L80.67,301.4L80.79,301.15L80.9,292.43L81.7,300.28L81.82,300.62L82.05,300.42L82.27,301.18L82.39,301.96L83.07,302.47L83.19,302.18L83.3,302.5L84.1,300.76L84.22,300.81L84.33,300.45L84.45,300.81L84.67,299.76L84.9,300.37L85.02,300.01L85.82,301.34L86.16,301.09L86.27,301.21L86.5,301.51L86.73,300.91L86.85,300.31L87.19,301.28L87.53,300.45L87.65,300.15L87.99,300.96L88.45,300.51L88.56,300.41L88.79,299.93L89.02,300.54L89.13,295.01L89.59,299.66L89.7,289.61L89.82,129.42L90.39,297.18L90.5,297.8L91.64,298.54L91.76,298.43L93.13,298.55L93.24,297.14L93.36,296.73L93.59,298.49L93.7,299.07L94.5,298.29L94.62,298.33L94.73,298.32L97.7,298.29L97.82,297.52L99.53,298.32L99.64,298.33L101.7,298.36L101.81,298.37L102.27,298.78L102.39,299.4L103.41,299.6L103.53,299.61L104.33,299.36L104.44,299.67L104.56,299.74L106.73,299.21L106.84,298.81L108.67,300.47L108.79,300.45L109.36,300.36L109.47,298.16L111.07,298.85L111.18,292.45L111.64,300.33L111.98,299.59L112.1,299.42L112.21,300.39L112.9,299.87L113.01,299.91L114.04,299.83L114.16,298.12L114.5,298.26L114.61,292.82L115.41,299.08L115.53,299.17L116.33,299.04L116.44,253.44L116.56,244.7L116.67,288.59L116.78,295.32L117.24,297.75L117.36,297.71L117.47,290.92L117.93,297.53L118.27,297.03L118.38,297.07L119.18,297.59L119.3,297.35L119.76,297.45L119.87,290.13L120.67,297.21L120.78,291.39L121.47,297.04L121.58,296.85L121.7,296.73L121.93,295.26L122.04,284.44L122.84,295.53L122.95,295.77L123.18,295.44L123.64,296.04L123.75,296.08L124.33,295.82L124.44,295.96L124.55,296.37L124.9,296.99L125.01,194.97L125.24,296.98L125.81,296.64L125.93,296.65L126.5,297.5L126.73,297.05L126.84,296.94L127.75,297.29L127.87,297.18L128.9,297.69L129.01,297.51L130.04,297.69L130.15,297.49L130.84,297.34L130.95,289.3L131.18,297.11L131.41,296.66L131.52,232.45L132.32,296.69L132.44,297.21L133.12,296.88L133.24,297.23L133.35,297.38L134.5,297.48L134.61,297.42L135.07,296.93L135.18,296.42L135.3,248.11L135.87,294.73L135.98,294.82L136.21,295.04L136.32,294.07L136.44,292.59L137.12,294.84L137.24,247.67L137.81,293.32L138.15,292.4L138.27,292.67L138.61,293.23L138.72,289.55L139.07,293.11L139.18,287.2L139.52,293.07L139.64,293.14L139.87,293.31L139.98,292.48L140.1,290.47L140.21,289.26L140.55,293.29L140.67,293.61L142.15,294.32L142.27,284.86L143.07,294.87L143.18,295.26L143.64,295.45L143.75,295.33L143.87,294.87L146.95,296.47L147.07,295.38L147.98,296.48L148.09,296.52L149.69,297.58L149.81,295.61L151.18,297.29L151.29,297.29L151.41,298.65L151.75,297.22L151.98,297.29L152.09,297.3L156.89,297.21L157.01,297.23" style="vector-effect: non-scaling-stroke; fill: none; stroke: rgb(255, 0, 0); stroke-opacity: 1; stroke-width: 2px; opacity: 1;"/><path class="js-line" d="M157.24,297.27L159.06,297.17L159.18,297.22L160.09,296.68L160.21,296.81L161.01,296.79L161.12,296.46L162.72,297.31L162.83,297.15L164.89,297.21L165.01,297.4L166.15,296.51L166.26,296.68L166.72,296.6L166.83,296.89L166.95,298.43L168.21,297.63L168.32,297.98L169.12,298.27L169.23,298.71L169.92,297.07L170.38,297.64L170.49,297.98L171.41,298.42L171.52,298.15L171.86,298.8L172.21,298.01L172.32,297.71L172.66,298.44L172.78,298.04L172.89,297.51L173.92,297.91L174.03,297.6L174.26,298.08L174.72,297.85L174.83,297.55L176.09,298.96L176.2,298.83L176.32,298.8L178.15,298.55L178.26,298.62L182.83,299.34L182.95,299.76L184.43,299.62L184.55,299.62L188.32,299.76L188.43,299.73L190.72,300.29L190.83,300.41L191.29,299.66L191.63,299.84L191.75,299.85L192.43,299.96L192.55,300.4L193.92,300.02L194.03,300.08L194.83,300.05L194.94,300.05L195.17,299.84L195.29,291.58L195.4,271.48L195.86,299.51L195.97,299.42L196.09,299.42L196.54,299.13L196.89,299.51L197,299.51L198.6,300.18L198.72,300.43L199.4,300.56L199.52,300.2L199.63,299.95L199.74,298.78L200.32,299.88L200.43,300.11L200.66,291.91L201.12,300.71L201.23,301.02L202.49,300.86L202.6,298.99L202.94,299.74L203.06,294.67L203.29,253.97L203.74,299.03L203.86,299.23L205,299.68L205.11,299.71L205.91,299.83L206.03,300.13L206.49,300.36L206.83,299.97L206.94,299.9L208.66,299.88L208.77,299.71L209.23,300.09L209.34,297.19L209.46,255.63L209.91,299.08L210.03,299.07L210.14,299.05L211.63,299.33L211.74,299.09L211.86,298.42L211.97,283.12L212.09,273.51L212.54,296.31L212.66,296.81L213.8,298.01L213.91,298.12L215.74,298.36L215.86,298.5L216.88,298.86L217,298.83L217.11,300.45L217.23,292.39L217.57,297L217.68,296.26L217.8,295.66L218.03,296.52L218.37,296.44L218.48,296.45L219.28,296.94L219.4,296.88L219.51,296.9L220.66,296.98L220.77,295.29L221.11,298.74L221.34,292.6L221.46,292.58L221.57,292.82" style="vector-effect: non-scaling-stroke; fill: none; stroke: rgb(255, 0, 0); stroke-opacity: 1; stroke-width: 2px; opacity: 1;"/><path class="js-line" d="M233.8,302.47L234.48,301.03L234.6,299.23L235.17,302.88L235.4,302.84L235.51,302.85L237.11,302.54L237.22,302.54L237.68,302.51L237.8,297.62L238.82,301.94L238.94,301.28L239.85,302.1L239.97,302.1L241,301.52L241.11,299.76L241.45,300.51L241.57,299.61L241.68,299.22L241.8,249.71L242.37,298.25L242.48,298.59L243.28,298.95L243.4,298.95L246.94,299.37L247.05,299.38L255.62,299.42L255.74,299.34L260.65,298.81L260.76,290.71L260.88,262.55L261.45,298.45L261.56,298.46L262.02,298.49L262.14,293.37L262.94,298.62L263.05,298.63L272.31,299.41L272.42,299.42L285.56,299.25" style="vector-effect: non-scaling-stroke; fill: none; stroke: rgb(255, 0, 0); stroke-opacity: 1; stroke-width: 2px; opacity: 1;"/><path class="js-line" d="M286.59,299.38L288.08,299.29L288.19,299.29L290.59,299.43L290.7,299.52L292.76,299.46L292.87,299.45L306.82,299.24L306.93,215L307.62,298.98L307.73,298.94L307.84,298.99L307.96,270.97L308.53,298.02L308.64,293.13L309.22,298.68L309.56,298.42L309.67,297.8L310.47,297.85L310.59,290.66L311.39,298.42L311.5,298.42L312.87,298.5L312.99,299.47L313.79,300.33L313.9,300.33L314.81,300.55L314.93,300.61L315.84,300.87L315.96,300.88L316.76,301.56L316.87,302.3L318.7,302.35L318.81,301.39L318.93,299.53L319.5,301.59L319.61,301.63L321.67,302.37L321.78,302.31L325.67,302.74L325.78,302.61L326.7,302.5L326.81,294.74L326.93,295.39L327.04,293.96L327.16,298.96L328.18,299.36L328.3,299.41L331.15,300.57L331.27,300.81L332.41,302.15L332.53,302.15L333.21,302.17L333.33,291.3L333.44,285.48L333.9,299.4L334.01,299.42L334.81,299.51L334.93,282.62L335.73,299.03L335.84,299.09L337.21,300.44L337.33,299.7L337.55,290.56L337.78,298.88L337.9,298.97L341.21,299.19L341.32,298.95L342.7,299.02L342.81,299.02L344.07,298.67L344.18,297.22L344.75,299.07L344.87,289.29L344.98,244.88L345.21,298.42L345.55,296.86L345.67,298.2L346.58,298.57L346.7,298.58L346.92,298.48L347.04,297.02L347.38,298.55L347.84,298.23L347.95,298.24L355.38,298.91L355.49,298.5L356.64,298.86L356.75,298.78L358.92,298.72" style="vector-effect: non-scaling-stroke; fill: none; stroke: rgb(255, 0, 0); stroke-opacity: 1; stroke-width: 2px; opacity: 1;"/><path class="js-line" d="M359.27,298.74L360.52,299.31L360.64,299.3L363.38,299.47L363.49,299.52L367.15,299.48L367.26,292.14L367.38,292.83L367.49,288.7L368.18,298.82L368.29,298.79L368.41,298.83L381.09,299.03L381.21,297.77L382.01,298.95L382.12,298.94" style="vector-effect: non-scaling-stroke; fill: none; stroke: rgb(255, 0, 0); stroke-opacity: 1; stroke-width: 2px; opacity: 1;"/><path class="js-line" d="M382.58,298.68L383.15,298.33" style="vector-effect: non-scaling-stroke; fill: none; stroke: rgb(255, 0, 0); stroke-opacity: 1; stroke-width: 2px; opacity: 1;"/><path class="js-line" d="M383.38,297.94L383.72,298.09L383.83,297.61L383.95,296.92L385.43,298.39L385.55,298.36L389.43,298.35L389.55,296.14L389.66,261.1L390.23,298.03L390.35,298.13L390.69,297.51L391.03,298.19L391.15,298.23L396.06,298.58L396.17,298.57L400.97,298.68L401.09,294.6L401.77,298.7L401.89,298.49L402,298.38L403.03,298.72L403.15,298.71L405.09,298.48L405.2,246.04L406,298.01L406.12,298.04L407.6,298.72L407.72,298.27L407.83,16L408.4,297.83L408.52,298.51L410.57,298.3L410.69,298.32L419.6,298.87L419.71,299.01L420.86,298.54L420.97,298.55L425.2,299.13L425.31,110.4L426.11,296.1L426.23,296.83L427.26,298.69L427.37,298.69L430,298.76L430.11,298.53L430.68,298.5L430.8,297.15L431.14,298.22L431.6,298.14L431.71,297.76L431.83,292.81L432.28,298.28L432.4,298.28L432.51,298.26L435.03,298.61L435.14,298.64L435.26,260.93L435.83,298.24L435.94,298.27L444.97,298.29L445.08,301.42L449.65,301.57L449.77,301.57L452.17,301.73L452.28,17.16L453.2,294.7L453.31,294.92L453.54,295.05L453.65,289.52L454.8,294.64L454.91,294.61L459.37,295.9L459.48,295.95L461.88,296.77L461.99,296.81L462.57,296.85L462.68,296.04L463.59,297.22L463.71,297.22L465.77,297.81L465.88,297.2L468.85,297.76L468.96,300.47L469.19,302.43L469.65,301.89L469.76,300.66L470.56,301.28L470.68,301.22L471.59,300.99L471.71,300.99L472.96,301.25L473.08,301.58L474.34,302L474.45,302.05L475.82,301.91L475.94,302.09L479.71,301.81L479.82,301.38L482.91,302.04L483.02,302.04L489.42,302.17L489.53,302.17L491.36,302.08L491.48,302.08L491.59,298.07L492.16,302.06L492.28,302.08L492.5,302.08L492.62,301.01L493.08,302.07L493.19,296.59L493.3,301.5L493.42,301.88L493.65,301.97L493.76,296.74L494.56,301.94L494.68,302L507.93,302.1L508.05,261.51L508.16,185.35L508.73,300.41L508.85,300.48L514.1,301L514.22,300.83L514.44,279.1L514.9,301.07L515.02,301.05L516.04,301.25L516.16,297.14L516.27,295.5L516.39,300.9L516.73,296.64L516.84,299.78L517.64,300.94L517.76,300.93L518.79,300.95L518.9,292.23L519.7,299.53L519.81,299.58L521.41,299.89L521.53,301.49L522.56,301.63L522.67,293.25L523.47,300.86L523.59,300.92L524.96,301.53L525.07,300.03L537.3,300.9L537.41,299.65L537.64,299.4L537.76,300.04L537.87,300.95L538.78,301.72L538.9,301.73L546.55,301.77L546.67,301.76L547.01,301.73L547.13,301.01L552.95,301.51L553.07,299.71L554.1,301.11L554.21,301.13L561.52,302.24L561.64,302.03L562.55,302.09L562.67,302.12L563.81,302.11L563.92,291.68L564.72,301.9L564.84,301.91L566.78,301.92L566.89,294.31L567.69,301.04L567.81,301.05L569.18,300.96L569.29,300.5L570.09,301.15L570.21,301.17L570.78,301.24" style="vector-effect: non-scaling-stroke; fill: none; stroke: rgb(255, 0, 0); stroke-opacity: 1; stroke-width: 2px; opacity: 1;"/><path class="js-line" d="M600.03,303.16L603,303.13L603.12,301.23L603.23,296.86L603.8,299.59L603.92,299.67L607.8,303.02L607.92,303.02L619.12,302.89L619.23,301.02L620.26,303.29L620.37,303.3L625.86,303.31L625.97,302.08L626.77,302.96L626.89,302.96L635.91,303.39L636.03,302.96L636.71,302.33L636.83,293.65L637.63,302.3L637.74,302.33L645.4,303.57L645.51,303.58L652.48,303.74L652.6,303.74L658.54,303.61L658.65,301.87L658.77,299.39L659.22,303.45L659.34,303.48L662.88,303.66L663,303.66L663.22,302.99L663.34,298.86L664.37,303.28L664.48,303.34L666.42,303.15L666.54,302.61L667.45,303.28L667.57,303.29L670.65,303.02L670.77,301.41L670.88,280.72L671.45,302.89L671.57,302.96L672.71,303.21L672.82,281.77L673.62,302.83L673.74,302.88L674.65,303.26L674.77,302.13L674.88,292.74L675.45,302.4L675.57,302.48L677.17,302.89L677.28,280.92L678.08,303.14L678.19,303.16L695.33,303.16L695.45,303.14L713.39,303.27L713.5,279.23L714.19,302.99L714.42,302.96L714.53,302.98L716.93,303.03L717.05,303.03L718.76,303.04L718.87,301.73L718.99,299.24L719.33,303.04L719.56,302.99L719.67,302.98L720.82,303.25L720.93,235.39L721.73,303.22L721.84,303.24L723.9,303.01L724.02,293.91L724.93,302.51L725.04,302.52L725.5,302.57L725.62,300.89L725.73,299.82L726.19,302.46L726.3,302.5L726.42,299.88L726.87,302.63L726.99,302.56L727.1,302.68L727.33,298.53L727.79,302.11L727.9,302.32L729.04,302.71L729.16,302.72L730.64,302.73L730.76,302.74L734.19,302.86L734.3,302.84L735.44,302.84L735.56,302.35L736.36,302.84L736.47,302.8L742.07,302.84L742.18,297.51L742.3,274.97L742.41,301.63L742.87,296.25L742.98,300.42L743.67,300.79L743.78,298.33L744.01,301.72L744.13,270.63L744.24,273.63L744.36,298.2L744.7,293.3L745.04,300.77L745.16,295L745.73,301.63L745.96,299.39L746.07,299.94L746.87,300.25L746.98,300.36L750.07,301.86L750.18,301.87L752.01,302.52L752.13,302.84L757.5,302.67L757.61,302.68L766.64,302.66L766.75,302.06L767.67,301.83L767.78,302.12L768.7,302.75L768.81,302.74L773.15,303.07L773.27,303.27L784.81,302.85L784.92,299.49L785.61,302.78L785.72,302.76L785.84,302.85L786.86,303.03L786.98,302.99L789.61,303.27L789.72,289.67L789.84,280.06L790.29,303.07L790.41,303.07L795.09,303.13L795.21,272.28L795.43,235.26L795.78,299.44L795.89,300.05L796.81,301.07L796.92,301.17L800.12,301.78L800.23,301.77L801.38,301.82L801.49,269.76L802.29,300.14L802.41,300.14L805.26,300.74L805.38,292.87L805.49,290.6L805.6,156.36L806.52,295.54L806.63,295.69L807.43,296.8L807.55,298.78L807.66,299.81L807.78,298.54L808.35,299.44L808.46,299.73L815.43,300.87L815.55,300.86L820.35,300.94L820.46,298.97L821.37,300.43L821.49,300.49L821.72,300.55L821.83,299.57L822.75,300.5L822.86,300.2L823.55,302.12L823.66,302.95L828.92,302.79L829.03,302.46L840,303.28" style="vector-effect: non-scaling-stroke; fill: none; stroke: rgb(255, 0, 0); stroke-opacity: 1; stroke-width: 2px; opacity: 1;"/></g><g class="points"/><g class="text"/></g></g></g><g class="overplot"/><path class="xlines-above crisp" d="M0,0" style="fill: none;"/><path class="ylines-above crisp" d="M0,0" style="fill: none;"/><g class="overlines-above"/><g class="xaxislayer-above"><g class="xtick"><text text-anchor="middle" x="0" y="433" transform="translate(246.95,0)" style="font-family: 'Open Sans', verdana, arial, sans-serif; font-size: 12px; fill: rgb(42, 63, 95); fill-opacity: 1; white-space: pre; opacity: 1;">2005</text></g><g class="xtick"><text text-anchor="middle" x="0" y="433" style="font-family: 'Open Sans', verdana, arial, sans-serif; font-size: 12px; fill: rgb(42, 63, 95); fill-opacity: 1; white-space: pre; opacity: 1;" transform="translate(455.61,0)">2010</text></g><g class="xtick"><text text-anchor="middle" x="0" y="433" style="font-family: 'Open Sans', verdana, arial, sans-serif; font-size: 12px; fill: rgb(42, 63, 95); fill-opacity: 1; white-space: pre; opacity: 1;" transform="translate(664.26,0)">2015</text></g><g class="xtick"><text text-anchor="middle" x="0" y="433" style="font-family: 'Open Sans', verdana, arial, sans-serif; font-size: 12px; fill: rgb(42, 63, 95); fill-opacity: 1; white-space: pre; opacity: 1;" transform="translate(872.92,0)">2020</text></g></g><g class="yaxislayer-above"><g class="ytick"><text text-anchor="end" x="79" y="4.199999999999999" transform="translate(0,404)" style="font-family: 'Open Sans', verdana, arial, sans-serif; font-size: 12px; fill: rgb(42, 63, 95); fill-opacity: 1; white-space: pre; opacity: 1;">0</text></g><g class="ytick"><text text-anchor="end" x="79" y="4.199999999999999" style="font-family: 'Open Sans', verdana, arial, sans-serif; font-size: 12px; fill: rgb(42, 63, 95); fill-opacity: 1; white-space: pre; opacity: 1;" transform="translate(0,358.14)">1</text></g><g class="ytick"><text text-anchor="end" x="79" y="4.199999999999999" style="font-family: 'Open Sans', verdana, arial, sans-serif; font-size: 12px; fill: rgb(42, 63, 95); fill-opacity: 1; white-space: pre; opacity: 1;" transform="translate(0,312.28)">2</text></g><g class="ytick"><text text-anchor="end" x="79" y="4.199999999999999" style="font-family: 'Open Sans', verdana, arial, sans-serif; font-size: 12px; fill: rgb(42, 63, 95); fill-opacity: 1; white-space: pre; opacity: 1;" transform="translate(0,266.40999999999997)">3</text></g><g class="ytick"><text text-anchor="end" x="79" y="4.199999999999999" style="font-family: 'Open Sans', verdana, arial, sans-serif; font-size: 12px; fill: rgb(42, 63, 95); fill-opacity: 1; white-space: pre; opacity: 1;" transform="translate(0,220.55)">4</text></g><g class="ytick"><text text-anchor="end" x="79" y="4.199999999999999" style="font-family: 'Open Sans', verdana, arial, sans-serif; font-size: 12px; fill: rgb(42, 63, 95); fill-opacity: 1; white-space: pre; opacity: 1;" transform="translate(0,174.69)">5</text></g><g class="ytick"><text text-anchor="end" x="79" y="4.199999999999999" style="font-family: 'Open Sans', verdana, arial, sans-serif; font-size: 12px; fill: rgb(42, 63, 95); fill-opacity: 1; white-space: pre; opacity: 1;" transform="translate(0,128.82)">6</text></g></g><g class="overaxes-above"/></g></g><g class="polarlayer"/><g class="smithlayer"/><g class="ternarylayer"/><g class="geolayer"/><g class="funnelarealayer"/><g class="pielayer"/><g class="iciclelayer"/><g class="treemaplayer"/><g class="sunburstlayer"/><g class="glimages"/><defs id="topdefs-3c9e48"><g class="clips"/></defs><g class="layer-above"><g class="imagelayer"/><g class="shapelayer"/></g><g class="infolayer"><g class="g-gtitle"><text class="gtitle" x="50" y="50" text-anchor="start" dy="0em" style="font-family: 'Open Sans', verdana, arial, sans-serif; font-size: 17px; fill: rgb(42, 63, 95); opacity: 1; font-weight: normal; white-space: pre;">Aforament - Sant Quintí de Mediona--a56.csv</text></g><g class="g-xtitle"><text class="xtitle" x="500" y="460.8" text-anchor="middle" style="font-family: 'Open Sans', verdana, arial, sans-serif; font-size: 14px; fill: rgb(42, 63, 95); opacity: 1; font-weight: normal; white-space: pre;">Data</text></g><g class="g-ytitle"><text class="ytitle" transform="rotate(-90,46.559375,260)" x="46.559375" y="260" text-anchor="middle" style="font-family: 'Open Sans', verdana, arial, sans-serif; font-size: 14px; fill: rgb(42, 63, 95); opacity: 1; font-weight: normal; white-space: pre;">Cabal (m3/s)</text></g></g></svg>