<svg class="main-svg" xmlns="http://www.w3.org/2000/svg" xmlns:xlink="http://www.w3.org/1999/xlink" width="1000" height="500" style="" viewBox="0 0 1000 500"><rect x="0" y="0" width="1000" height="500" style="fill: rgb(255, 255, 255); fill-opacity: 1;"/><defs id="defs-a6cef1"><g class="clips"><clipPath id="clipa6cef1xyplot" class="plotclip"><rect width="840" height="320"/></clipPath><clipPath class="axesclip" id="clipa6cef1x"><rect x="80" y="0" width="840" height="500"/></clipPath><clipPath class="axesclip" id="clipa6cef1y"><rect x="0" y="100" width="1000" height="320"/></clipPath><clipPath class="axesclip" id="clipa6cef1xy"><rect x="80" y="100" width="840" height="320"/></clipPath></g><g class="gradients"/><g class="patterns"/></defs><g class="bglayer"><rect class="bg" x="80" y="100" width="840" height="320" style="fill: rgb(229, 236, 246); fill-opacity: 1; stroke-width: 0;"/></g><g class="layer-below"><g class="imagelayer"/><g class="shapelayer"/></g><g class="cartesianlayer"><g class="subplot xy"><g class="layer-subplot"><g class="shapelayer"/><g class="imagelayer"/></g><g class="minor-gridlayer"><g class="x"/><g class="y"/></g><g class="gridlayer"><g class="x"><path class="xgrid crisp" transform="translate(246.95,0)" d="M0,100v320" style="stroke: rgb(255, 255, 255); stroke-opacity: 1; stroke-width: 1px;"/><path class="xgrid crisp" transform="translate(455.61,0)" d="M0,100v320" style="stroke: rgb(255, 255, 255); stroke-opacity: 1; stroke-width: 1px;"/><path class="xgrid crisp" transform="translate(664.26,0)" d="M0,100v320" style="stroke: rgb(255, 255, 255); stroke-opacity: 1; stroke-width: 1px;"/><path class="xgrid crisp" transform="translate(872.92,0)" d="M0,100v320" style="stroke: rgb(255, 255, 255); stroke-opacity: 1; stroke-width: 1px;"/></g><g class="y"><path class="ygrid crisp" transform="translate(0,363.62)" d="M80,0h840" style="stroke: rgb(255, 255, 255); stroke-opacity: 1; stroke-width: 1px;"/><path class="ygrid crisp" transform="translate(0,323.24)" d="M80,0h840" style="stroke: rgb(255, 255, 255); stroke-opacity: 1; stroke-width: 1px;"/><path class="ygrid crisp" transform="translate(0,282.86)" d="M80,0h840" style="stroke: rgb(255, 255, 255); stroke-opacity: 1; stroke-width: 1px;"/><path class="ygrid crisp" transform="translate(0,242.48)" d="M80,0h840" style="stroke: rgb(255, 255, 255); stroke-opacity: 1; stroke-width: 1px;"/><path class="ygrid crisp" transform="translate(0,202.1)" d="M80,0h840" style="stroke: rgb(255, 255, 255); stroke-opacity: 1; stroke-width: 1px;"/><path class="ygrid crisp" transform="translate(0,161.72)" d="M80,0h840" style="stroke: rgb(255, 255, 255); stroke-opacity: 1; stroke-width: 1px;"/><path class="ygrid crisp" transform="translate(0,121.33)" d="M80,0h840" style="stroke: rgb(255, 255, 255); stroke-opacity: 1; stroke-width: 1px;"/></g></g><g class="zerolinelayer"><path class="yzl zl crisp" transform="translate(0,404)" d="M80,0h840" style="stroke: rgb(255, 255, 255); stroke-opacity: 1; stroke-width: 2px;"/></g><path class="xlines-below"/><path class="ylines-below"/><g class="overlines-below"/><g class="xaxislayer-below"/><g class="yaxislayer-below"/><g class="overaxes-below"/><g class="plot" transform="translate(80,100)" clip-path="url(#clipa6cef1xyplot)"><g class="scatterlayer mlayer"><g class="trace scatter traceb8e928" style="stroke-miterlimit: 2; opacity: 1;"><g class="fills"/><g class="errorbars"/><g class="lines"><path class="js-line" d="M0,294.93L1.37,299.82L1.49,299.32L1.83,296.25L2.29,297.84L2.4,297.98L2.86,299.07L3.09,297.94L3.2,297.14L3.77,299.3L4,298.16L4.11,298.51L4.91,300.65L5.03,298.93L5.14,298.73L5.37,299.66L5.48,299.7L6.74,300.67L6.86,300.14L7.66,291.4L7.77,294.03L7.88,295.34L9.26,299.98L9.48,299.52L9.6,299.72L10.63,301.21L10.74,300.95L11.31,300.91L11.43,301.46L12.23,301.4L12.34,301.8L12.46,301.03L13.03,301.78L13.14,301.68L13.6,300.02L13.71,296.45L14.51,300.59L14.63,300.49L15.54,300.85L15.66,300.77L16.11,300.73L16.23,299.58L16.45,290.9L16.57,297.09L16.68,298.59L16.8,299.96L17.25,297.62L17.37,296.04L18.28,291.38L18.63,291.97L18.74,292.23L19.08,289.85L19.65,290.29L19.77,290.43L20.11,291.1L20.23,292.43L21.37,293.93L21.48,294.03L22.4,293.18L22.51,294.03L22.74,292.92L23.2,294.13L23.31,294.03L24.34,294.31L24.45,294.03L25.6,294.29L25.71,294.15L26.17,294.05L26.28,292.51L26.97,294.25L27.08,294.03L27.2,293.95L27.54,294.15L27.65,291.93L28.22,291.66L28.34,291.97L28.45,292.29L28.57,292.65L28.68,292.01L29.14,292.41L29.25,292.31L30.05,293.24L30.17,293.14L30.28,292.61L31.31,293.5L31.42,293.62L31.65,294.43L31.77,298.33L32.68,297.74L32.8,297.84L33.14,296.93L33.25,297.94L33.37,296.21L33.71,298L34.4,297.86L34.51,297.86L35.08,298.16L35.2,297.62L36.11,300.28L36.22,303.45L36.68,292.9L37.14,296.91L37.25,297.54L37.59,298.14L37.71,297.84L37.82,299.05L38.62,297.44L38.74,297.48L38.85,297.56L39.65,298.53L39.77,297.48L41.48,300.45L41.59,300.57L42.05,298.49L42.62,299.09L42.74,300.31L43.19,301.25L43.42,300.24L43.54,300.14L43.65,300.28L43.77,299.24L43.88,299.15L44.11,299.86L44.57,299.01L44.68,299.09L45.59,299.64L45.71,299.56L46.17,299.4L46.39,299.6L46.51,299.74L47.42,295.24L47.54,295.9L47.76,295.66L48.45,297.76L48.56,297.62L48.79,297.26L48.91,299.11L49.02,299.66L49.14,297.96L49.25,296.35L49.82,297.64L49.94,296.17L50.62,297.3L50.74,296.81L50.85,295.98L51.08,297.14L51.42,295.58L51.54,295.98L51.65,296.33L51.76,296.55L52.11,296.27L52.22,293.76L52.56,299.54L52.79,285.89L52.91,293.34L53.02,295.58L53.25,284.4L53.59,294.85L53.71,297.7L54.74,301.6L54.85,299.78L55.42,301.15L55.54,300.57L55.65,299.4L56.22,296.87L56.34,292.9L56.68,287.2L57.02,293.97L57.14,295.06L58.05,301.94L58.62,300.99L58.73,301.27L58.96,301.15L59.19,301.82L59.31,301.36L59.42,300.35L59.88,295.54L60.11,300.06L60.22,301.27L60.68,302.28L60.91,301.86L61.02,301.33L61.25,300.45L61.82,300.67L61.93,300.77L62.05,301.29L62.28,299.24L62.39,299.38L63.42,299.82L63.53,299.72L63.76,298.23L64.22,299.7L64.33,299.76L65.48,299.88L65.59,299.62L65.71,300.12L65.82,299.52L66.39,299.82L66.51,299.94L67.88,299.68L67.99,299.68L68.22,299.94L68.68,299.42L68.79,299.44L68.9,298.45L69.25,299.54L69.48,299.42L69.59,299.4L69.93,297.74L70.05,299.09L70.5,298.81L70.73,299.28L70.85,297.72L71.65,300.24L71.88,299.78L71.99,298.47L72.56,300.33L72.79,300.24L72.9,300.35L73.7,300.31L73.82,297.58L74.05,292.63L74.5,299.3L74.62,299.6L74.85,299.4L75.19,300L75.3,299.21L76.45,300.31L76.56,300.08L77.59,300.37L77.7,300.24L78.05,299.05L78.39,299.82L78.5,299.96L78.85,296.67L79.07,297.68L79.19,292.92L79.3,292.27L79.42,295.56L79.53,296.63L80.33,299.26L80.45,299.24L80.56,299.32L80.9,298.69L81.02,295.92L82.16,298.99L82.27,298.97L82.85,299.09L82.96,299.32L83.3,299.38L83.53,299.7L83.65,299.86L84.1,298.93L84.56,299.54L84.67,299.72L84.79,300.18L84.9,299.48L85.47,299.82L85.59,299.82L86.62,299.86L86.73,299.94L89.02,299.46L89.13,296.91L89.47,299.07L89.7,298.23L89.82,294.45L89.93,264.14L90.27,296.25L90.5,291.64L90.62,293.46L91.64,297.66L91.76,297.76L93.13,299.34L93.24,298.67L93.47,296.15L93.93,298.06L94.04,298.33L94.62,299.13L94.73,297.8L96.44,299.78L96.56,299.7L97.47,300.37L97.59,300.24L97.7,300.35L97.93,299.62L98.5,300.26L98.62,300.39L101.01,301.01L101.13,300.53L102.04,301.29L102.27,301.07L102.39,301.01L102.5,300.81L102.61,297.7L103.53,301.21L103.64,298.43L104.56,299.15L104.67,298.89L104.79,298.27L105.24,299.19L105.59,298.79L105.7,299.19L106.5,299.15L106.61,299.3L107.53,299.09L107.64,299.28L108.1,299.48L108.21,299.13L108.33,299.36L108.44,299.3L109.59,298.79L109.7,299.19L110.04,298.79L110.5,299.28L110.61,299.15L110.73,299.11L111.07,299.17L111.18,297.48L111.41,293.97L111.64,298.04L111.87,297.68L111.98,297.8L112.9,299.03L113.01,298.79L113.47,299.01L113.58,296.71L113.93,298.91L114.5,298.33L114.61,290.43L115.64,299.38L115.76,299.48L115.98,299.46L116.1,297.32L116.33,299.03L116.44,297.32L116.56,286.37L117.36,296.49L117.47,295.3L117.58,292.29L117.7,293.3L117.93,289.54L118.04,291.95L118.16,284.94L119.07,296.77L119.18,296.73L119.76,297.82L119.87,296.49L119.98,291.93L120.67,296.59L120.78,293.28L120.9,290.33L121.47,295.34L121.81,294.19L121.93,262L122.04,255.22L122.38,280.24L122.5,283.14L123.75,294.25L123.87,294.57L124.9,296.11L125.01,296.43L126.61,297.74L126.73,297.74L128.78,298.55L128.9,298.12L129.01,294.41L129.81,294.21L129.93,292.15L130.38,292.21L130.5,291.16L130.61,291.6L130.73,296.65L130.84,298L131.07,294.93L131.41,295.84L131.52,292.73L131.64,290.47L132.1,293.97L132.21,294.49L133.47,295.86L133.58,295.96L134.84,297.3L134.95,296.99L135.07,296.35L135.18,296.83L135.3,291.36L135.41,263.54L135.98,284.86L136.1,286.52L136.44,285.38L137.12,289.5L137.24,289.46L137.58,290.57L137.7,291.4L137.81,292.21L138.04,288.66L138.5,292.05L138.61,291.95L139.3,289.85L139.41,290.65L139.52,290.61L141.01,294.93L141.12,294.49L141.24,294.95L141.35,292.88L141.47,290.13L141.58,290.33L141.7,292.15L142.04,289.66L142.72,295.9L142.84,296.09L143.52,297.48L143.64,297.36L143.75,288.05L143.87,285.71L144.09,293.56L144.21,295.24L144.55,296.87L144.67,292.53L145.69,298.27L145.81,298.45L146.95,298.97L147.07,297.76L147.64,299.26L147.75,297.42L147.98,298.97L148.09,299.15L149.01,299.64L149.12,299.46L149.24,296.91L149.69,299.66L149.81,298.81L149.92,291.1L150.72,299.19L150.84,299.52L151.41,299.8L151.52,299.44L151.64,294.69L151.75,294.81L151.87,293.82L152.32,298.81L152.55,296.91L152.66,295.98L152.89,257.87L153.12,278.66L153.24,285.99L154.38,293.08L154.49,292.69L154.61,291.93L155.06,293.4L155.18,293.4L155.41,294.49L155.52,296.99L156.78,297.46L156.89,294.31L157.81,293.8L157.92,293.97L158.95,293.68L159.06,294.03L159.64,293.18L159.98,293.48L160.09,294.17L160.32,293.48L160.55,294.85L160.66,294.81L160.78,294.95L162.26,295.2L162.38,295.04L162.72,294.79L163.06,294.95L163.18,294.53L163.41,294.83L163.52,293.99L163.75,294.29L163.86,293.8L164.09,294.83L164.21,298.51L164.66,298.79L164.89,296.67L165.23,296.97L165.35,296.99L165.92,297.52L166.03,297.84L170.26,298.21L170.38,298.27L171.29,299.24L171.41,299.03L171.52,299.09L172.78,299.3L172.89,299.24L174.38,299.36L174.49,298.47L175.06,298.39L175.29,298.61L175.4,298.61L180.43,298.85L180.55,298.95L182.03,298.73L182.15,298.06L182.49,297.78L183.18,299.98L183.29,299.11L184.55,299.24L184.66,298.89L185.23,300.2L185.69,300.02L185.8,299.88L187.06,301.25L187.17,301.21L189,301.09L189.12,301.92L190.03,301.94L190.15,301.29L190.72,301.38L190.83,299.5L190.95,297.38L191.52,300.33L191.63,300.35L194.03,300.39L194.15,300.95L194.37,301.74L194.94,301.03L195.06,301.17L195.17,301.01L195.29,297.4L195.97,300.81L196.09,299.34L196.2,298.39L196.89,302.16L197,301.9L197.12,301.62L197.23,301.76L197.34,300.77L197.46,299.58L197.57,293.06L198.03,301.78L198.14,301.7L198.26,301.66L198.37,301.8L198.49,301.6L198.6,300.83L199.4,300.77L199.52,299.58L199.63,293.7L200.2,297.4L200.32,299.34L200.54,300.85L200.66,298.97L200.77,294.31L201.46,301.72L201.57,301.68L201.69,301.66L202.83,302.16L202.94,301.78L203.06,301.64L203.17,298.73L203.29,287.42L203.86,299.34L203.97,300.28L205.11,301.58L205.23,301.19L205.34,298.55L206.03,300.71L206.14,300.91L208.09,301.86L208.2,301.82L209.23,302.04L209.34,301.7L209.57,300.59L210.14,301.42L210.26,301.38L210.71,301.64L210.83,300.65L211.74,301.23L211.86,294.71L211.97,267.11L212.54,289.79L212.66,291.99L213.8,298.65L213.91,298.69L216.08,300.79L216.2,300.85L217.23,300.93L217.34,300.67L217.8,299.72L218.14,299.88L218.26,300.06L219.51,301.27L219.63,298.79L219.74,297.88L220.08,300.81L220.2,300.97L221,301.58L221.11,300.79L221.23,300.22L221.68,301.68L221.8,301.84L222.03,299.9L222.37,301.58L222.48,301.74L227.17,302.93L227.28,302.67L227.97,302.93L228.08,301.03L229.23,301.58L229.34,301.01L230.48,301.19L230.6,301.07L231.05,296.31L231.28,298.73L231.4,300.28L231.85,301.19L232.2,300.53L232.31,300.47L233,301.11L233.11,300.67L233.23,298.97L234.03,301.19L234.14,301.01L234.37,300.97L234.48,296.39L234.6,290.76L235.05,301.72L235.17,301.9L235.51,300.75L235.97,300.93L236.08,300.97L236.88,301.07L237,301.17L237.45,300.49L237.57,301.7L238.14,298.89L238.37,299.5L238.48,299.68L238.82,299.76L238.94,300.71L239.28,299.19L239.85,299.62L239.97,299.42L241,299.64L241.11,301.01L241.91,300.41L242.02,300.43L243.05,300.71L243.17,300.75L245.11,300.67L245.22,300.39L247.28,300.47L247.39,300.16L248.31,300.39L248.42,300.57L249.34,300.41L249.45,300.53L251.17,300.47L251.28,300.53L252.42,300.55L252.54,296.43L252.77,295.72L252.99,297.05L253.11,296.87L253.22,297.9L253.57,297.07L254.02,297.3L254.14,297.07L254.82,297.03L254.94,298.25L255.62,298.31L255.74,298.19L255.85,298.21L257.45,298.59L257.56,299.44L257.91,298.79L258.36,299.5L258.48,299.62L259.16,299.32L259.28,299.46L259.39,299.48L260.76,298.25L260.88,290.53L261.91,301.33L262.02,298.95L262.14,298L262.25,297.82L262.36,298.85L262.48,299.48L263.16,301.07L263.28,301.58L264.19,296.23L264.42,299.01L264.54,299.68L265.11,301.46L265.56,300.85L265.68,300.99L266.59,301.33L266.71,301.44L266.94,302.14L267.16,301.23L267.51,301.52L267.62,301.62L267.85,301.78L268.08,301.36L268.19,300.2L268.65,302.65L268.99,301.21L269.11,300.49L270.36,301.88L270.48,300.97L271.96,301.05L272.08,301.13L273.91,301.19L274.02,301.27L275.85,300.83L275.96,298.67L276.31,301.78L276.76,300.89L276.88,300.77L276.99,300.59L277.56,301.03L277.68,301.17L278.7,300.91L278.82,301.01L281.79,300.99L281.9,301.58L282.48,300.08L282.59,299.58L283.05,301.6L283.39,300.67L283.5,300.61L284.76,299.42L284.88,299.62L285.56,298.41L285.68,297.7L287.28,299.9L287.39,299.32L288.19,300.14L288.3,299.28L289.33,300.02L289.45,299.96L289.79,300.57L289.9,300.14L290.02,298.1L290.36,297.92L290.47,299.32L291.39,299.26L291.5,299.32L292.87,299.17L292.99,300.22L294.02,300.45L294.13,300.35L294.7,301.56L294.82,300.73L294.93,300.39L295.39,300.69L295.5,298.02L295.62,298.37L295.73,301.44L295.85,300.08L296.07,302.32L296.42,301.68L296.53,301.27L296.99,301.44L297.22,300.99L297.33,300.41L298.36,300.26L298.47,301.25L299.39,301.56L299.5,301.6L300.19,300.69L300.3,299.66L300.99,300.65L301.1,301.68L302.24,300.79L302.36,300.81L302.59,301.86L303.04,300.93L303.16,300.89L304.07,302.16L304.19,301.42L304.53,301.62L304.64,300.89L304.76,297.44L305.22,301.82L305.67,301.21L305.79,301.36L306.36,301.74L306.47,300.87L306.59,300.97L306.7,302.53L306.93,301.11L307.04,294.07L307.39,300.35L307.73,296.59L307.84,295.32L307.96,294.53L308.07,296L308.19,298.37L308.3,299.42L308.53,297.92L308.64,283.51L308.76,260.49L309.22,292.94L309.33,295.68L309.56,297.46L309.67,286.45L310.81,298.16L310.93,298.95L312.07,301.82L312.19,301.72L312.41,300.26L312.64,302.02L312.99,300.55L313.1,300.91L313.9,302.2L314.01,302.04L314.13,298.95L314.24,294.29L314.81,301.82L314.93,301.94L317.44,302.02L317.56,301.8L318.47,301.92L318.59,301.92L319.39,301.58L319.5,296.19L319.73,301.86L320.3,301.82L320.41,301.8L321.33,301.8L321.44,301.92L322.13,300.73L322.24,301.76L322.93,300.89L323.04,301.56L323.16,301.7L325.33,301.25L325.44,300.79L326.13,301.66L326.24,301.6L326.36,301.46L326.47,301.21L326.58,299.05L326.81,299.94L326.93,277.45L327.04,199.9L327.61,294.27L327.73,295.52L329.1,299.62L329.21,299.68L329.56,299.6L329.78,299.9L329.9,300.06L330.7,300.14L330.81,300.35L331.73,300.43L331.84,300.06L331.95,299.62L332.75,300.1L332.87,300.04L332.98,300.08L334.93,299.21L335.04,298.83L335.38,298.85L335.5,299.46L335.61,300.06L336.07,300.08L336.18,299.4L337.33,300.26L337.44,299.4L337.78,289.66L338.24,295.38L338.35,296.15L339.84,299.48L339.95,299.6L340.87,300.08L340.98,299.94L341.1,299.86L341.44,300.55L341.55,300.49L341.67,299.17L342.47,297.42L342.58,298.06L342.81,296.57L343.38,296.87L343.5,297.07L343.72,296.71L343.84,293.24L344.75,297.42L344.87,296.83L345.44,275.21L345.67,279.61L345.78,279.77L345.9,277.89L346.12,282.78L346.24,288.09L346.81,291.83L346.92,285.28L347.04,284.48L347.15,285.55L347.27,292.19L348.75,296.39L348.87,296.61L349.21,296.41L349.44,296.89L349.55,297.16L350.58,298.14L350.7,298.31L351.27,298.45L351.38,299.46L351.72,298.83L351.95,299.28L352.07,300.18L352.75,301.13L352.98,300.83L353.09,300.93L353.89,300.93L354.01,298.89L354.35,301.03L354.81,300.99L354.92,301.01L355.15,300.81L355.27,296.53L356.07,301.56L356.18,301.44L356.29,301.84L357.55,302.22L357.67,301.07L359.15,297.26L359.27,297.98L360.18,298.23L360.29,298.29L360.75,298.59L360.98,297.98L361.09,296.45L361.32,296.02L361.89,296.27L362.01,296.57L362.92,294.61L363.04,296.02L363.15,295.46L363.38,297.74L363.49,299.76L363.72,297.7L364.29,298.27L364.41,298.33L365.21,296.73L365.32,296.89L365.44,296.99L365.66,297.4L366.12,297.03L366.24,297.05L367.15,297.12L367.26,300.28L367.95,298.57L368.06,300.12L368.29,300.67L368.52,299.98L368.64,298.91L368.75,298.55L368.98,300.22L369.09,300.75L370.24,300.63L370.35,300.73L370.58,300.65L370.69,298.08L371.38,297.2L371.49,297.42L371.61,297.4L371.84,297.2L371.95,298L372.06,298.39L372.64,297.28L372.75,297.4L372.86,298.55L373.78,296.39L373.89,298.25L374.58,300.18L374.69,297.9L374.81,292.96L375.38,300.31L375.49,300.14L375.95,300.55L376.41,299.86L376.52,300.1L376.98,300.75L377.09,300.43L377.21,298.29L378.35,300.57L378.46,300.43L379.38,301.23L379.49,301.05L379.61,301.01L379.83,301.21L380.06,300.45L380.18,300.33L380.98,300.95L381.09,300.41L381.32,299.15L381.89,299.9L382.01,300.1L383.26,297.88L383.49,298.29L383.6,298.37L384.75,294.29L384.86,292.29L386,297.84L386.12,298.06L386.92,299.38L387.03,298.53L387.15,298.27L387.26,297.7L387.72,298.83L387.83,298.83L388.98,299.48L389.09,299.15L389.2,297.48L389.43,295.44L389.55,291.28L389.66,275.9L390.23,286.64L390.35,287.16L392.06,296.35L392.18,296.37L392.52,295.3L392.63,296.13L392.75,296.57L393.32,299.32L393.66,299.24L393.77,297.18L394.35,260.03L394.46,205.31L395.49,289.71L395.6,290.37L395.83,289.95L395.95,293.26L396.06,292.94L396.17,286.41L396.29,286.27L396.4,288.51L397.77,296.65L397.89,296.75L398.35,297.12L398.46,294.39L398.92,294.11L399.37,297.16L399.49,296.57L399.83,297.2L399.95,296.59L400.06,294.11L400.97,297.54L401.09,296.67L401.2,296.25L401.55,297.32L401.66,297.5L401.77,297.64L401.89,297.16L402,296.59L402.46,297.94L402.92,297.74L403.03,296.73L403.26,296.99L403.83,296.83L403.95,296.81L404.06,295.82L404.52,297.72L404.63,297.74L404.86,297.9L405.09,297.48L405.2,296.21L405.32,295.24L405.54,296.91L405.77,296.67L405.89,297.09L406.69,299.64L406.8,299.62L407.72,297.54L407.83,277.63L409.09,298.02L409.2,298.27L410.23,298.67L410.34,298.61L411.83,299.15L411.94,299.09L414.12,298.97L414.23,299.01L415.6,299.17L415.71,298.99L415.94,299.09L416.06,298.65L416.17,298.16L416.4,297.28L416.63,297.98L416.74,298.25L417.66,298.81L417.77,298.91L420.29,299.13L420.4,298.77L420.74,298.97L421.09,297.54L421.2,297.6L421.31,297.92L422.46,297.98L422.57,297.92L424.63,299.3L424.74,299.36L425.2,299.44L425.31,297.64L425.77,262.59L425.88,283.22L426,289.44L427.03,297.66L427.14,298.16L427.48,297.12L427.6,297.48L427.71,297.88L429.54,299.58L429.66,299.56L430.57,299.72L430.68,298.89L430.8,297.7L431.26,299.34L431.37,299.26L431.48,299.13L431.83,298.45L432.17,299.8L432.28,298.59L432.63,277.55L432.74,290.39L432.86,294.49L433.88,299.56L434,299.6L434.34,300.06L434.46,297.8L434.57,296.73L434.8,299.17L434.91,297.66L435.03,289.56L435.48,294.75L435.6,288.61L435.71,283.12L436.74,293.8L436.85,294.77L439.14,299.54L439.25,299.42L439.37,298.89L440.63,299.64L440.74,299.72L440.85,299.86L440.97,298.75L442,301.94L442.45,301.66L442.57,300.81L444.05,300.73L444.17,300.39L445.08,298.99L445.31,299.82L445.43,299.9L447.48,300.14L447.6,300.1L447.71,297.8L448.4,298.93L448.51,298.89L449.77,298.91L449.88,297.96L451.6,297.62L451.71,299.24L452.05,299.64L452.17,299.54L452.28,297.28L452.51,296.02L452.85,301.17L453.2,300.45L453.31,299.42L453.54,299.66L453.65,299.48L453.77,296.17L454.34,297.64L454.45,296.09L454.57,295.84L455.71,299.46L455.82,299.5L456.85,299.88L456.97,300.93L459.14,301.07L459.25,300.04L460.85,300L460.97,299.94L462.68,299.68L462.79,299.68L463.71,300.16L463.82,300.18L467.36,299.84L467.48,299.38L468.05,299.3L468.16,297.46L468.28,291.7L468.85,299.76L468.96,300.06L469.54,300.73L469.65,300.65L469.76,298.79L469.99,297.74L470.45,299.11L470.56,299.36L470.79,298.1L471.25,299.44L471.36,299.54L472.39,300.57L472.51,300.51L472.62,299.54L472.85,290.17L473.31,297.64L473.42,298.16L473.65,297.18L473.99,298.91L474.11,298.89L474.34,295.76L474.56,297.74L474.68,298.27L474.91,299.07L475.02,298.79L475.14,297.01L475.94,299.66L476.05,295.86L477.42,300.69L477.54,300.81L477.99,301.23L478.11,300.79L478.22,300.41L480.28,300.37L480.39,299.11L480.85,300.89L481.19,300.18L481.31,300.12L482.56,300.35L482.68,299.42L482.91,299.7L483.02,299.42L483.13,297.98L483.93,297.26L484.05,297.96L484.96,298.45L485.08,298.49L486.22,298.33L486.33,298.45L487.25,298.16L487.36,298.21L487.48,298.41L487.82,297.64L487.93,296.79L488.62,298.19L488.73,298.08L488.85,297.82L489.65,298.16L489.76,297.9L489.99,297.74L490.1,295.72L490.22,296.04L490.33,299.42L490.56,298.29L491.13,298.67L491.25,299.13L491.7,297.82L492.16,298.39L492.28,298.35L492.5,299.13L492.62,298.41L492.73,298.02L493.53,300.33L493.65,300.24L493.76,300.2L493.88,299.44L494.45,299.8L494.56,299.98L495.82,299.42L495.93,298.99L496.85,298.77L496.96,298.95L497.76,299.64L497.88,299.68L498.45,299.78L498.56,298.93L498.79,299.92L499.36,299.32L499.47,298.83L500.73,298.87L500.85,297.94L501.99,298.25L502.1,297.05L502.79,297.14L502.9,296.59L503.02,287.59L503.59,297.32L503.7,297.46L504.16,297.68L504.27,297.52" style="vector-effect: non-scaling-stroke; fill: none; stroke: rgb(255, 0, 0); stroke-opacity: 1; stroke-width: 2px; opacity: 1;"/><path class="js-line" d="M579.35,301.07L580.15,300.79L580.26,299.86L580.38,296.27L580.49,250.25L580.61,84.63L581.06,281.79L581.18,279.83L581.29,281.59L582.66,292.83L582.78,293.18L584.26,295.43L584.38,295.54L584.72,295.78L584.83,298.77L586.21,299.34L586.32,299.09L586.43,298.3L586.89,299.48L587.01,299.63L590.78,300.07L590.89,300.06L593.18,300.27L593.29,300.05L593.52,299.31L593.98,299.98L594.09,300.05L595.35,300.77L595.46,299.22L596.26,300.02L596.38,298.78L597.18,300.28L597.29,300.3L597.4,298.94L597.98,300.09L598.09,300.27L599.92,300.98L600.03,300.01L600.95,299.08L601.06,299.2L601.86,299.22L601.98,299.5L602.32,297.89L602.66,298.12L602.78,299.81L603,300.55L603.12,299.92L603.23,296.46L603.46,301.23L604.03,300.12L604.15,298.9L604.83,300.49L604.95,299.66L605.06,299.32L605.29,298.58L605.86,298.75L605.97,298.79L607,298.77L607.12,295.72L608.03,300.51L608.15,299.38L608.49,297.88L608.83,299.45L608.95,299.83L609.86,298.48L609.97,299.27L610.32,299.35L610.43,297.88L610.55,297.7L610.66,299.64L612.03,299.38L612.15,298.78L612.26,292.18L612.83,298.41L612.95,298.63L613.06,298.42L613.52,298.9L613.63,299.03L614.89,299.16L615,297.53L615.46,300.76L615.92,299.99L616.03,300L616.83,298.91L616.94,299L617.29,300L617.74,299.89L617.86,299.94L618.66,298.96L618.77,300.03L619,300.99L619.12,297.96L619.23,208.87L620.03,299.3L620.14,299.64L620.49,300.74L620.6,300.96L620.94,300.95L621.06,300.23L621.29,300.17L621.4,301.08L621.63,301.49L621.97,300.63L622.09,300.46L622.66,301.41L623,300.69L623.12,300.51L624.14,300.73L624.26,300.71L625.29,299.65L625.4,299.78L626.43,300.62L626.54,300.55L627.8,300.86L627.91,300.7L628.03,299.61L629.74,299.86L629.86,299.63L630.89,299.67L631,299.28L632.14,299.81L632.26,299.83L632.37,300.78L632.6,299.48L633.06,300.59L633.17,299.73L634.43,299.59L634.54,298.68L634.89,299.47L635,298.09L635.23,298.35L635.34,299.06L636.14,300.33L636.26,299.46L636.71,300.3L636.83,293.83L636.94,287.25L637.4,299.08L637.51,299.43L637.97,300.49L638.31,300L638.43,299.91L638.54,300.07L638.66,297.87L639.34,299.63L639.57,299.13L639.68,299.23L640.48,300.11L640.6,300.03L640.71,299.39L640.94,295.25L641.4,298.28L641.51,298.96L642.43,300.92L642.66,300.2L642.77,300.23L643,298.81L643.34,300.37L643.46,300.37L643.57,300.79L643.8,300.28L644.26,300.86L644.37,300.86L645.4,300.49L645.51,300.71L645.63,301L646.43,301.23L646.54,301.28L646.88,299.01L647.45,299.74L647.57,299.48L648.48,299.42L648.6,299.48L648.71,299.6L648.83,299.11L648.94,298.06L649.17,296.39L649.63,297.54L649.74,297.66L650.31,299.54L650.54,298.69L650.65,298.69L652.83,298.59L652.94,298.59L653.74,298.63L653.85,298.55L654.54,298.65L654.65,298.23L654.88,295.18L655.23,297.03L655.34,297.2L655.45,295.77L655.91,299.15L656.03,298.86L656.14,299.28L656.37,299.1L656.48,297.22L656.71,296.06L657.05,296.79L657.17,297.77L657.74,298.21L657.85,297.31L658.31,300.82L658.65,298.95L658.77,295L659.34,299.67L659.68,298.25L659.8,298.54L660.37,298.84L660.48,297.89L661.85,298.62L661.97,297.89L663.11,297.6L663.22,293.93L663.34,292.36L663.45,273.08L664.37,296.41L664.48,296.83L665.85,299.92L665.97,299.88L666.08,299.94L668.25,301.35L668.37,301.22L669.05,300.94L669.17,300.5L670.19,301.48L670.31,301.26L670.65,301.43L670.77,300.88L670.88,298.99L670.99,298.23L671.45,300.03L671.57,300.04L671.91,299.31L672.25,299.94L672.37,300.18L672.59,300.61L672.71,300.39L672.82,287.14L674.42,298.9L674.54,299.03L674.77,299.14L674.88,296.4L676.25,298.87L676.37,298.79L677.05,300.4L677.17,299.74L677.28,262.1L678.31,291.48L678.42,292.26L679.68,298.62L679.79,298.71L680.71,299.81L680.82,299.52L680.94,298.8L681.05,298.15L681.39,299.43L681.51,299.22L681.62,299.39L683.34,300.45L683.45,300.33L685.16,300.83L685.28,299.31L686.19,301.07L686.31,301.08L686.42,301.39L686.65,300.31L686.76,299.39L688.02,300.3L688.13,300.19L688.25,300.09L689.16,298.53L689.28,298.36L690.65,298.51L690.76,298.18L690.88,297.29L691.22,298.63L691.45,298.53L691.56,298.55L692.59,296.62L692.71,296.76L692.82,296.69L693.62,296.44L693.73,296.62L693.96,296.8L694.08,300.04L694.19,300.3L694.31,299.43L694.53,299.64L694.65,299.19L695.45,295.11L695.56,295.39L696.93,295.53L697.05,296.43L697.16,295.27L697.39,300.12L697.51,299.92L698.3,298.49L698.42,298.53L699.1,298.95L699.22,298.9L699.33,298.82L699.9,296.91L700.02,297.35L700.13,298.61L701.05,294.47L701.16,299.76L701.28,300.6L701.5,299.03L701.73,299.07L701.85,299.12L702.76,298.15L702.88,298.03L702.99,297.66L703.33,299.03L703.56,298.07L703.68,298.01L704.93,298.06L705.05,298.96L705.96,299.07L706.08,299.82L707.1,300.23L707.22,299.88L708.25,300.05L708.36,300.02L708.93,300.03L709.05,300.93L710.07,300.94L710.19,300.04L711.1,301.73L711.22,301.67L711.33,301.67L711.9,301.93L712.02,301.18L712.13,301.06L712.25,301.26L712.36,296.89L713.27,302.31L713.39,302.07L713.5,297.96L713.62,294.62L714.07,301.22L714.19,301.33L714.76,301.86L714.87,301.41L714.99,300.57L715.1,300.3L715.45,301.29L715.56,301.39L716.02,301.61L716.13,301.04L716.25,294.83L716.36,260.7L716.93,292.8L717.05,295.11L718.07,298.59L718.19,298.86L718.53,298.66L718.76,299.08L718.87,297.6L719.22,289.21L719.67,295.05L719.79,296.7L720.47,299.18L720.59,298.39L720.7,295.23L720.82,295.85L720.93,244.54L721.04,221.23L721.5,270.7L721.62,274.33L722.87,294.58L722.99,294.27L724.02,298.21L724.13,296.49L724.24,297.71L724.47,296.08L724.59,263.3L725.16,289.6L725.5,289.06L725.62,288.54L726.19,289.56L726.53,260.79L726.64,242.3L727.9,281.52L728.02,283.89L728.93,290.74L729.04,290.31L729.16,289.03L729.27,288.59L729.39,291.08L729.5,292.44L729.84,293.42L729.96,281.37L730.87,294.62L730.99,294.42L731.79,297.76L731.9,295.49L732.81,299.7L732.93,297.78L733.61,300.58L733.73,300.45L733.84,300.28L734.64,294.7L734.76,287.25L735.56,297.38L735.79,294.95L735.9,294.96L736.24,294.57L736.93,297.18L737.04,295.67L737.5,296.96L737.61,296.44L737.73,294.06L738.19,290.7L738.53,292.55L738.64,293.23L739.67,300.28L739.79,300.33L740.81,300.83L740.93,300.7L741.73,297.84L741.84,298.41L741.96,299.35L742.07,300.29L742.18,298.27L742.3,16L743.21,285.83L743.33,286.7L743.56,289.32L743.67,288.95L743.78,284.71L743.9,283.98L744.01,285.05L744.13,265.43L744.24,215.1L744.93,242.48L745.04,244.62L745.16,245.11L745.27,258.84L745.38,255.37L745.73,265.45L745.96,259.74L746.07,264.4L746.41,251.86L746.76,259.69L746.87,261.56L748.93,289.52L749.04,289.24L749.16,290.28L749.38,289.75L750.18,292.51L750.3,292.83L751.21,294.95L751.33,295.34L752.24,297.39L752.35,297.02L753.27,297.85L753.38,297.69L754.07,299.42L754.41,299.28L754.53,299.46L754.75,299.24L754.87,297.22L755.78,300.21L756.01,300.15L756.13,300.19L759.21,300.78L759.33,301.45L759.55,301.59L759.67,300.47L760.24,300.95L760.47,300.87L760.58,300.85L761.61,300.91L761.72,300.64L761.84,300.91L761.95,300.55L762.07,298.87L762.41,300.46L762.98,300.27L763.1,300.38L763.55,300.78L763.67,300.6L763.78,299.9L763.9,300.21L764.24,300.07L764.35,298.26L764.47,294.21L765.04,299.23L765.15,296.43L765.27,293.93L765.5,290.22L765.95,293.98L766.07,295.24L766.64,300.25L766.75,297.25L767.1,296.9L767.32,297.74L767.44,297.77L767.67,296.2L767.9,297.45L768.01,299.62L768.92,301.44L769.04,301.32L770.75,301.45L770.87,298.38L771.55,300.2L771.67,297.56L772.01,300.09L772.12,298.99L772.24,297.89L772.58,298.24L772.69,298L772.81,297L773.84,299.09L773.95,299.15L774.64,299.14L774.75,296.93L774.98,297.1L775.09,296.67L775.44,296.9L775.55,297.15L776.01,295.66L776.35,295.73L776.47,295.95L777.72,293.82L777.84,294.24L777.95,295.73L779.09,294.81L779.21,295.13L779.32,295.37L780.47,301.05L780.58,301.02L780.69,301.04L781.15,295.01L781.38,298.82L781.49,298.91L782.41,299.16L782.52,299.4L782.64,300.28L783.32,300.11L783.44,300.14L783.89,299.78L784.01,299.09L784.46,299.98L784.69,299.3L784.81,299.12L784.92,271.67L785.38,301.33L785.49,299.76L785.61,299.07L786.64,299.15L786.75,300.2L788.35,300.16L788.46,294.81L788.58,294.43L788.69,297.32L789.61,302.01L789.72,301.87L789.84,301.53L790.29,302.12L790.41,302.14L790.52,302.13L791.44,302.19L791.55,295.41L791.78,284.25L792.24,299.09L792.35,299.8L793.61,301.6L793.72,301.62L794.86,302.02L794.98,300.64L795.09,300.36L795.21,297.84L795.43,221.21L795.89,285.04L796.01,288.54L796.69,296.85L796.92,293.97L797.03,294.79L797.15,294.66L797.26,295.29L797.38,295.61L798.41,300.98L798.52,300.52L798.63,300.13L798.86,298.3L799.55,298.6L799.66,298.73L799.89,297.48L800.01,290.07L801.03,297.93L801.26,297.88L801.38,297.92L801.61,290.95L802.06,297.1L802.18,297.07L802.29,296.7L802.75,297.61L802.86,297.58L802.98,297.05L803.09,292.12L803.21,291.83L803.32,295.85L804.46,298.53L804.58,296.16L805.49,288.76L805.6,276.43L805.72,269.26L806.18,282.38L806.29,282.02L807.43,292.73L807.55,292.33L807.66,288.75L807.89,271.06L808.58,274.02L808.69,276.17L810.18,293.72L810.29,292.69L810.4,272.21L810.86,275.06L810.98,260.88L811.09,229.72L811.66,277.9L811.78,280.41L813.72,297.12L813.83,297.1L813.95,275.45L814.86,296.57L814.97,297.07L815.09,297.23L815.2,293.45L816.12,298.43L816.23,298.6L817.15,300.5L817.26,300.78L818.4,296.74L818.52,296.75L818.63,296.03L818.86,299.2L818.97,299.12L819.2,299.72L819.43,298.83L819.55,298.84L819.66,297.2L820,297.52L820.12,295.88L820.46,279.21L820.57,295.18L820.69,298.5L821.49,300.73L821.6,300.79L821.83,299.49L822.4,300.29L822.52,300.31L823.2,299.62L823.32,300.36L824.12,301.05L824.23,300.95L824.34,300.66L824.46,300.42L824.8,300.93L824.92,300.94L825.03,300.97L826.06,300.11L826.17,299.93L826.52,299.1L826.63,298.79L826.74,298.51L827.2,299.28L827.32,300.26L828,300.27L828.12,299.46L828.23,299.26L828.34,299.8L828.46,295.15L828.57,290.36L829.03,299.94L829.14,300.08L830.63,300.67L830.74,300.56L830.97,298.39L831.43,300.04L831.54,300.11L833.83,300.65L833.94,300.67L835.66,300.46L835.77,299.97L836.46,300.73L836.57,299.67L837.03,299.79L837.26,298.77L837.49,298.98L837.6,299.13L838.17,299.99L838.29,300.08L838.51,300.31L838.63,299.42L838.74,299.32L839.09,299.89L839.2,300.32L840,300.53" style="vector-effect: non-scaling-stroke; fill: none; stroke: rgb(255, 0, 0); stroke-opacity: 1; stroke-width: 2px; opacity: 1;"/></g><g class="points"/><g class="text"/></g></g></g><g class="overplot"/><path class="xlines-above crisp" d="M0,0" style="fill: none;"/><path class="ylines-above crisp" d="M0,0" style="fill: none;"/><g class="overlines-above"/><g class="xaxislayer-above"><g class="xtick"><text text-anchor="middle" x="0" y="433" transform="translate(246.95,0)" style="font-family: 'Open Sans', verdana, arial, sans-serif; font-size: 12px; fill: rgb(42, 63, 95); fill-opacity: 1; white-space: pre; opacity: 1;">2005</text></g><g class="xtick"><text text-anchor="middle" x="0" y="433" style="font-family: 'Open Sans', verdana, arial, sans-serif; font-size: 12px; fill: rgb(42, 63, 95); fill-opacity: 1; white-space: pre; opacity: 1;" transform="translate(455.61,0)">2010</text></g><g class="xtick"><text text-anchor="middle" x="0" y="433" style="font-family: 'Open Sans', verdana, arial, sans-serif; font-size: 12px; fill: rgb(42, 63, 95); fill-opacity: 1; white-space: pre; opacity: 1;" transform="translate(664.26,0)">2015</text></g><g class="xtick"><text text-anchor="middle" x="0" y="433" style="font-family: 'Open Sans', verdana, arial, sans-serif; font-size: 12px; fill: rgb(42, 63, 95); fill-opacity: 1; white-space: pre; opacity: 1;" transform="translate(872.92,0)">2020</text></g></g><g class="yaxislayer-above"><g class="ytick"><text text-anchor="end" x="79" y="4.199999999999999" transform="translate(0,404)" style="font-family: 'Open Sans', verdana, arial, sans-serif; font-size: 12px; fill: rgb(42, 63, 95); fill-opacity: 1; white-space: pre; opacity: 1;">0</text></g><g class="ytick"><text text-anchor="end" x="79" y="4.199999999999999" style="font-family: 'Open Sans', verdana, arial, sans-serif; font-size: 12px; fill: rgb(42, 63, 95); fill-opacity: 1; white-space: pre; opacity: 1;" transform="translate(0,363.62)">20</text></g><g class="ytick"><text text-anchor="end" x="79" y="4.199999999999999" style="font-family: 'Open Sans', verdana, arial, sans-serif; font-size: 12px; fill: rgb(42, 63, 95); fill-opacity: 1; white-space: pre; opacity: 1;" transform="translate(0,323.24)">40</text></g><g class="ytick"><text text-anchor="end" x="79" y="4.199999999999999" style="font-family: 'Open Sans', verdana, arial, sans-serif; font-size: 12px; fill: rgb(42, 63, 95); fill-opacity: 1; white-space: pre; opacity: 1;" transform="translate(0,282.86)">60</text></g><g class="ytick"><text text-anchor="end" x="79" y="4.199999999999999" style="font-family: 'Open Sans', verdana, arial, sans-serif; font-size: 12px; fill: rgb(42, 63, 95); fill-opacity: 1; white-space: pre; opacity: 1;" transform="translate(0,242.48)">80</text></g><g class="ytick"><text text-anchor="end" x="79" y="4.199999999999999" style="font-family: 'Open Sans', verdana, arial, sans-serif; font-size: 12px; fill: rgb(42, 63, 95); fill-opacity: 1; white-space: pre; opacity: 1;" transform="translate(0,202.1)">100</text></g><g class="ytick"><text text-anchor="end" x="79" y="4.199999999999999" style="font-family: 'Open Sans', verdana, arial, sans-serif; font-size: 12px; fill: rgb(42, 63, 95); fill-opacity: 1; white-space: pre; opacity: 1;" transform="translate(0,161.72)">120</text></g><g class="ytick"><text text-anchor="end" x="79" y="4.199999999999999" style="font-family: 'Open Sans', verdana, arial, sans-serif; font-size: 12px; fill: rgb(42, 63, 95); fill-opacity: 1; white-space: pre; opacity: 1;" transform="translate(0,121.33)">140</text></g></g><g class="overaxes-above"/></g></g><g class="polarlayer"/><g class="smithlayer"/><g class="ternarylayer"/><g class="geolayer"/><g class="funnelarealayer"/><g class="pielayer"/><g class="iciclelayer"/><g class="treemaplayer"/><g class="sunburstlayer"/><g class="glimages"/><defs id="topdefs-a6cef1"><g class="clips"/></defs><g class="layer-above"><g class="imagelayer"/><g class="shapelayer"/></g><g class="infolayer"><g class="g-gtitle"><text class="gtitle" x="50" y="50" text-anchor="start" dy="0em" style="font-family: 'Open Sans', verdana, arial, sans-serif; font-size: 17px; fill: rgb(42, 63, 95); opacity: 1; font-weight: normal; white-space: pre;">Aforament - Súria--a63.csv</text></g><g class="g-xtitle"><text class="xtitle" x="500" y="460.8" text-anchor="middle" style="font-family: 'Open Sans', verdana, arial, sans-serif; font-size: 14px; fill: rgb(42, 63, 95); opacity: 1; font-weight: normal; white-space: pre;">Data</text></g><g class="g-ytitle"><text class="ytitle" transform="rotate(-90,31.309375000000003,260)" x="31.309375000000003" y="260" text-anchor="middle" style="font-family: 'Open Sans', verdana, arial, sans-serif; font-size: 14px; fill: rgb(42, 63, 95); opacity: 1; font-weight: normal; white-space: pre;">Cabal (m3/s)</text></g></g></svg>