<svg class="main-svg" xmlns="http://www.w3.org/2000/svg" xmlns:xlink="http://www.w3.org/1999/xlink" width="700" height="500" style="" viewBox="0 0 700 500"><rect x="0" y="0" width="700" height="500" style="fill: rgb(255, 255, 255); fill-opacity: 1;"/><defs id="defs-ed56d0"><g class="clips"><clipPath id="cliped56d0xyplot" class="plotclip"><rect width="540" height="320"/></clipPath><clipPath class="axesclip" id="cliped56d0x"><rect x="80" y="0" width="540" height="500"/></clipPath><clipPath class="axesclip" id="cliped56d0y"><rect x="0" y="100" width="700" height="320"/></clipPath><clipPath class="axesclip" id="cliped56d0xy"><rect x="80" y="100" width="540" height="320"/></clipPath></g><g class="gradients"/><g class="patterns"/></defs><g class="bglayer"><rect class="bg" x="80" y="100" width="540" height="320" style="fill: rgb(229, 236, 246); fill-opacity: 1; stroke-width: 0;"/></g><g class="layer-below"><g class="imagelayer"/><g class="shapelayer"/></g><g class="cartesianlayer"><g class="subplot xy"><g class="layer-subplot"><g class="shapelayer"/><g class="imagelayer"/></g><g class="minor-gridlayer"><g class="x"/><g class="y"/></g><g class="gridlayer"><g class="x"><path class="xgrid crisp" transform="translate(177.51,0)" d="M0,100v320" style="stroke: rgb(255, 255, 255); stroke-opacity: 1; stroke-width: 1px;"/><path class="xgrid crisp" transform="translate(314.69,0)" d="M0,100v320" style="stroke: rgb(255, 255, 255); stroke-opacity: 1; stroke-width: 1px;"/><path class="xgrid crisp" transform="translate(451.87,0)" d="M0,100v320" style="stroke: rgb(255, 255, 255); stroke-opacity: 1; stroke-width: 1px;"/><path class="xgrid crisp" transform="translate(589.05,0)" d="M0,100v320" style="stroke: rgb(255, 255, 255); stroke-opacity: 1; stroke-width: 1px;"/></g><g class="y"><path class="ygrid crisp" transform="translate(0,346.63)" d="M80,0h540" style="stroke: rgb(255, 255, 255); stroke-opacity: 1; stroke-width: 1px;"/><path class="ygrid crisp" transform="translate(0,289.27)" d="M80,0h540" style="stroke: rgb(255, 255, 255); stroke-opacity: 1; stroke-width: 1px;"/><path class="ygrid crisp" transform="translate(0,231.9)" d="M80,0h540" style="stroke: rgb(255, 255, 255); stroke-opacity: 1; stroke-width: 1px;"/><path class="ygrid crisp" transform="translate(0,174.53)" d="M80,0h540" style="stroke: rgb(255, 255, 255); stroke-opacity: 1; stroke-width: 1px;"/><path class="ygrid crisp" transform="translate(0,117.17)" d="M80,0h540" style="stroke: rgb(255, 255, 255); stroke-opacity: 1; stroke-width: 1px;"/></g></g><g class="zerolinelayer"><path class="yzl zl crisp" transform="translate(0,404)" d="M80,0h540" style="stroke: rgb(255, 255, 255); stroke-opacity: 1; stroke-width: 2px;"/></g><path class="xlines-below"/><path class="ylines-below"/><g class="overlines-below"/><g class="xaxislayer-below"/><g class="yaxislayer-below"/><g class="overaxes-below"/><g class="plot" transform="translate(80,100)" clip-path="url(#cliped56d0xyplot)"><g class="scatterlayer mlayer"><g class="trace scatter traced25d79" style="stroke-miterlimit: 2; opacity: 1;"><g class="fills"/><g class="errorbars"/><g class="lines"><path class="js-line" d="M0,304L6.61,303.27L6.69,302.7L7.06,301.74L7.51,304L7.59,304L7.66,297.66L8.34,304L8.41,304L8.79,303.46L9.17,304L9.24,304L9.77,303.63L9.84,303.16L10.07,302.58L10.14,303.25L10.22,302.76L10.29,302.42L11.19,304L11.27,304L11.57,304L11.64,264.84L11.72,250.7L11.87,304L12.1,304L12.17,304L17.88,304L17.95,299.63L18.78,304L18.86,304L22.01,304L22.09,288.61L22.31,301.33L22.69,178.87L22.84,258.71L22.91,282.37L23.74,304L23.81,304L24.57,304L24.64,296.45L24.72,69.45L25.24,304L25.32,304L25.39,304L25.77,304L25.84,300.19L26.67,304L26.74,304L26.82,288.99L27.42,304L27.5,304L36.21,304L36.29,236.36L37.19,304L37.26,304L38.99,304L39.07,303.11L39.67,304L39.74,300.86L39.82,296.09L39.89,304L40.42,304L40.49,304L40.87,304L40.94,273.1L41.02,210.86L41.24,304L41.62,304L41.69,304L42.9,304L42.97,208.89L43.8,304L43.87,304L46.28,303.94L46.35,244L46.8,187.91L47.25,304L47.33,304L49.13,304L49.21,295.25L49.28,281.68L49.43,304L49.88,304L49.96,304L50.03,274.06L50.71,304L50.78,304L57.17,303.99L57.25,302.8L57.92,304L58,302.53L58.3,303.87L58.45,301.08L58.75,302.81L58.82,302.24L58.97,300.7L59.12,300.98L59.2,303.09L59.35,303.03L59.42,303.63L59.5,298.77L59.57,297.31L59.65,302.62L60.1,298.16L60.18,302.99L60.55,300.49L60.63,302.56L61.15,289.86L61.53,292.49L61.6,291.03L62.43,280.59L62.5,287.86L62.65,277.16L62.95,299.6L63.33,279.75L63.41,301.75L64.01,300.42L64.23,304L64.31,157.24L65.28,304L65.36,292.36L66.19,304L66.26,304L67.76,304L67.84,285.9L67.91,190.2L68.51,303.01L68.59,303.95L69.04,304" style="vector-effect: non-scaling-stroke; fill: none; stroke: rgb(255, 165, 0); stroke-opacity: 1; stroke-width: 2px; opacity: 1;"/><path class="js-line" d="M69.27,304L73.7,304L73.77,299.66L74,304L74.22,251.62L74.45,304L74.52,304L76.55,304L76.63,302.32L76.7,173.72L77,304L77.3,304L77.38,304L77.9,304L77.98,115.25L78.81,304L78.88,303.98L78.96,236.25L79.33,225.99L79.78,301.56L79.86,287.68L79.93,255.41L80.23,304L80.53,304L80.61,304L90.98,304" style="vector-effect: non-scaling-stroke; fill: none; stroke: rgb(255, 165, 0); stroke-opacity: 1; stroke-width: 2px; opacity: 1;"/><path class="js-line" d="M91.13,304L95.63,303.6L95.71,302.64L95.78,289.21L95.93,304L96.39,304L96.46,304L100.22,304L100.29,302.47L100.37,241.55L100.67,304L100.97,304L101.04,304L102.25,304L102.32,234.63L103.15,304L103.22,304L108.86,303.76L108.93,303.17L109.01,303.47L109.08,303.08L109.16,303.27L109.23,300.07L109.31,302.53L109.68,291.13L109.76,289.13L109.83,292.63L110.13,278.46L110.21,268.64L111.04,237.97L111.11,275.97L111.94,304L112.01,304L114.79,303.99L114.87,302.37L114.94,297.86L115.02,304L115.54,303.9L115.62,303.52L115.99,301.45L116.07,302.47L116.14,303.71L116.22,300.91L116.29,250.04L116.52,303.97L117.05,298.82L117.12,297.39L117.2,301.41L117.5,300.85L117.57,282.16L117.65,279.43L117.72,303.96L118.1,302.69L118.32,303.99L118.4,303.98L118.55,301.48L118.77,304L118.85,237.32L118.92,16L119.52,304L119.6,304L120.88,304L120.95,294.18L121.18,304L121.33,260.59L121.4,193.37L122.23,304L122.3,304L126.81,303.43L126.89,302.41L127.04,211.5L127.56,296.16L127.64,296.94L128.69,302.09L128.76,301.79L128.84,302.01L129.07,302.35L129.14,301.01L129.22,301.82L129.29,302.67L129.59,302.36L129.67,299.09L130.34,303.55L130.49,303.48L130.57,303.15L131.02,300.1L131.09,302.3L131.17,303.35L131.24,303.19L131.69,303.83L131.77,303.85L137.63,303.88L137.7,303.81L138.38,303.99L138.61,303.69L138.68,303.61L138.98,303.68L139.06,302.92L139.13,302.74L139.28,303.4L139.66,301.88L139.73,302.58L139.81,300.22L140.11,300.67L140.86,295.57L140.93,295.84L141.01,297.14L141.09,300.57L141.61,295.47L141.69,296.25L141.76,296.32L141.91,285.66L142.14,301.2L142.21,299.4L142.29,300.89L143.19,294.51L143.26,294.46L143.34,295.4L143.56,289.33L143.64,291.27L143.71,300.05L143.79,303.55L143.94,293.5L144.39,299.97L144.47,298.6L144.77,301.09L144.92,296.48L144.99,297.3L145.07,299.99L145.37,297.94L145.67,301.9L145.74,301.27L145.89,301.46L146.04,297.22L146.42,299.93L146.49,301.74L146.79,279.36L146.87,296.94L146.94,302.36L147.77,304L147.85,304L150.33,303.99L150.4,303.03L151.23,304L151.3,304L155.81,304L155.88,299.33L156.04,295.09L156.41,303.89L156.49,302.26L156.56,302.92L157.39,304L157.46,303.99L158.06,304L158.14,302.64L158.96,304L159.04,304L159.19,303.96L159.27,291.63L159.72,303.41L159.94,300.03L160.02,279.72L160.09,269.86L160.54,302.3L160.62,303.04L161.14,304L161.22,300.75L161.97,304L162.05,304L163.17,304L163.25,302.45L163.32,299.5L163.47,304L163.92,302.48L164,303.47L164.82,304L164.9,304L166.93,304" style="vector-effect: non-scaling-stroke; fill: none; stroke: rgb(255, 165, 0); stroke-opacity: 1; stroke-width: 2px; opacity: 1;"/><path class="js-line" d="M169.86,303.69L170.68,304L170.76,304L172.11,303.99L172.19,302.43L173.01,304L173.09,303.94L173.54,303.87L173.61,301.55L174.44,304L174.52,303.42L175.34,304L175.42,303.78L176.32,304L176.39,304L177.15,304" style="vector-effect: non-scaling-stroke; fill: none; stroke: rgb(255, 165, 0); stroke-opacity: 1; stroke-width: 2px; opacity: 1;"/><path class="js-line" d="M177.6,304L178.95,304L179.02,302.15L179.1,301.71L179.17,304L179.4,304L179.47,304L179.92,303.49L180,302.88L180.45,304" style="vector-effect: non-scaling-stroke; fill: none; stroke: rgb(255, 165, 0); stroke-opacity: 1; stroke-width: 2px; opacity: 1;"/><path class="js-line" d="M180.6,303.81L181.43,304L181.5,304L182.25,303.82L182.33,299.11L183.08,304L183.16,304L183.46,303.96L183.53,302.59" style="vector-effect: non-scaling-stroke; fill: none; stroke: rgb(255, 165, 0); stroke-opacity: 1; stroke-width: 2px; opacity: 1;"/><path class="js-line" d="M183.68,304L183.98,304" style="vector-effect: non-scaling-stroke; fill: none; stroke: rgb(255, 165, 0); stroke-opacity: 1; stroke-width: 2px; opacity: 1;"/><path class="js-line" d="M184.13,303.49L184.43,303.44L184.51,302.29L184.73,303.3L184.81,303.11L184.88,301.56L184.96,300.56L185.11,303.37L185.48,303.38L185.56,303.2L185.93,296.27L186.01,301.58L186.09,302.42L186.39,302.54L186.54,294.65L186.91,294.89L186.99,299L187.51,303.22L187.74,302.37L187.81,299.36L187.89,297.85L188.26,304L188.34,304L189.47,303.65L189.54,300.41L189.62,289.45L190.14,303.95L190.22,303.64L190.29,304L190.59,304L190.67,300.86L190.82,297.88L191.12,304L191.19,296.09L192.02,304L192.1,299.97L192.32,304L192.4,280.24L192.77,304L192.85,304L194.27,303.84L194.35,302.15L195.1,304L195.18,304L202.39,303.27L202.46,301.81L202.61,303.88L202.69,296.63L202.76,283.28L203.44,304L203.66,303.97L203.74,303.99L205.47,304L205.54,302.42L205.92,301.39L206.44,303.9L206.52,303.92L206.74,303.87L206.82,293.81L206.89,277.69L207.5,299.26L207.57,300.19L207.8,301.48L207.87,301.3L207.95,291.99L208.02,288.96L208.47,299.73L208.55,300.19L208.7,300.07L209.22,301.85L209.45,301.71L209.52,298.03L209.75,259.39L210.28,293.72L210.35,294.05L211.48,298.05L211.55,297.97L211.85,298.48L211.93,298.1L212,297.16L212.83,299.58L212.9,299.53L212.98,299.56L213.73,299.07L213.81,298.03L213.88,299.4L214.03,292.74L214.48,298.46L214.56,294.4L215.08,297.81L215.23,294.54L215.31,294.12L216.21,299.6L216.29,297.2L216.96,300.69L217.11,300.56L217.19,300.44L217.34,292.12L217.94,300.09L218.01,300.32L218.16,299.12L218.76,300.25L218.84,300.24L218.99,297.87L219.07,300.39L219.14,300.64L219.82,301.17L219.89,301.44L220.04,300.22L220.12,301.33L220.19,301.61L221.17,302.96L221.24,302.65L221.32,301.22L222.15,302.65L222.22,302.06L222.52,301.25L222.67,302.86L222.75,303.13L223.27,300.25L223.57,301.83L223.65,301.96L223.8,303.35L223.95,301.83L224.02,302.96" style="vector-effect: non-scaling-stroke; fill: none; stroke: rgb(255, 165, 0); stroke-opacity: 1; stroke-width: 2px; opacity: 1;"/><path class="js-line" d="M224.17,303.25L224.4,302.22L224.55,303.54L225,302.54L225.08,302.87L225.98,301.7L226.05,301.73L226.13,302.19L226.8,298.2L227.03,299.14L227.1,300.65L227.48,301.27L227.93,300.92L228.01,301.09L228.53,300.67L228.83,301L228.91,301.08L229.21,298.75L229.28,297.16L229.36,294.05L229.88,300.3L229.96,300.29L230.11,300.44L230.33,299.8L230.41,298.43L230.71,301.07L231.31,299.99L231.39,299.77L231.76,300.11" style="vector-effect: non-scaling-stroke; fill: none; stroke: rgb(255, 165, 0); stroke-opacity: 1; stroke-width: 2px; opacity: 1;"/><path class="js-line" d="M231.91,299.95L232.21,299.7L232.29,298.47L232.74,300.06L233.11,299.76L233.19,299.78L233.26,299.96L233.56,299.6L233.86,299.5L233.94,298.62L234.02,297.95L234.24,299.72L234.62,299.11L234.69,299.52L234.77,299.96L234.92,299.68L234.99,296.41L235.22,294.04L235.37,299.12L235.74,297.75L235.82,298.83L236.19,298.47L236.94,299.34L237.02,299.11L237.25,298.6L237.32,297.23L237.47,299.01L237.55,295.03L237.62,252.22L238.07,296.55L238.45,278.81L238.52,289.95L239.2,296.82L239.27,290.42L239.35,280.19L239.57,292.99L239.8,272.14L240.03,278.81L240.1,276.62" style="vector-effect: non-scaling-stroke; fill: none; stroke: rgb(255, 165, 0); stroke-opacity: 1; stroke-width: 2px; opacity: 1;"/><path class="js-line" d="M240.25,281.89L241.08,293.02" style="vector-effect: non-scaling-stroke; fill: none; stroke: rgb(255, 165, 0); stroke-opacity: 1; stroke-width: 2px; opacity: 1;"/><path class="js-line" d="M241.23,293.6L241.6,294.74L241.68,291.52L242.65,295.99L242.73,296.15L243.56,296.91L243.71,296.79L243.78,295.31L243.93,240.85L244.16,277.31L244.23,283.6L244.46,289.74L244.61,279.93L244.68,265.7L245.51,296.24L245.58,296.47L246.11,294.94L246.34,295.67L246.41,295.92L246.79,295.77L246.86,296.23L246.94,296.68L247.24,297L247.46,294.35L247.54,296.73L247.61,297.47L249.42,300.59L249.49,300.18L249.72,300.11L250.32,301.37L250.39,295.11L251.14,299.95L251.22,296.51L251.29,290.51L251.44,298.55L251.89,298.28L251.97,298.25L252.05,297.6L252.2,300.96L252.42,300.44L252.5,300.62L253.17,299.38L253.25,299.69L253.32,300.34L254.15,282.2L254.22,261.78L254.6,294.9L254.97,292.67" style="vector-effect: non-scaling-stroke; fill: none; stroke: rgb(255, 165, 0); stroke-opacity: 1; stroke-width: 2px; opacity: 1;"/><path class="js-line" d="M255.73,297.67L255.95,285.69L256.03,259.79L256.1,206.51L256.7,288.95L256.78,289.3L257.3,291.06" style="vector-effect: non-scaling-stroke; fill: none; stroke: rgb(255, 165, 0); stroke-opacity: 1; stroke-width: 2px; opacity: 1;"/><path class="js-line" d="M262.41,304L264.14,303.41L264.22,285.65L265.12,303.68L265.19,303.92L266.62,304L266.69,303.56L266.77,303.09L266.92,304L267.3,304L267.37,284.89L267.6,234.06L268.05,295.4L268.12,296.08L269.32,299.84L269.4,299.88L270.38,300.82L270.45,300.73L270.53,300.01L270.83,300.94L270.98,299.54L271.05,300.53L271.13,300.79L271.28,299.71L271.5,300.89L271.88,300.73L271.95,300.73L272.03,300.88L272.1,300.03L272.18,299.01L273.01,301.04L273.08,301.19L273.91,301.07L273.98,300.21L274.13,301.16" style="vector-effect: non-scaling-stroke; fill: none; stroke: rgb(255, 165, 0); stroke-opacity: 1; stroke-width: 2px; opacity: 1;"/><path class="js-line" d="M281.19,301.28L281.64,300.31L281.79,301.14L281.87,301.24L282.17,301.96L282.7,301.56L282.77,301.33L283.67,301.01L283.75,301.4L284.05,299.36L284.27,300.96L284.35,284.83L284.5,296.36L284.65,230.61L285.03,296.16L285.1,296.22L285.33,186.5L285.48,278.93L285.55,284.73L285.78,289.86L286,277.19L286.08,197.74L286.9,289.74L286.98,290.68L288.26,295.94L288.33,295.79L288.93,296.65L289.01,296.86L290.58,297.83L290.66,297.5L290.73,296.23L291.49,298.27L291.56,298.15L291.64,296.93L292.46,298.56L292.54,298.47L295.47,299.39L295.54,298.29L295.62,293.47L296.07,299.1L296.22,299.06L296.29,299.09L296.44,299.22L296.52,297.23L296.59,296.41L296.97,299.17L297.12,298.87L297.2,299.09L297.42,297.62L297.87,299.07L297.95,299.17L299.37,299.92L299.45,300.1L299.6,299.93L299.97,300.13L300.05,295.71L300.95,300.14L301.03,300.13L301.18,299.47L301.63,300.3L301.78,300.17L301.85,300.16L302.68,301.57L302.98,301.25L303.06,301.03L303.58,300.7L303.81,301.62L303.88,301.18L303.96,301.22L304.18,301.32L304.26,302.81L304.48,300.74L304.78,303.43L304.86,303.29L304.93,301.62L305.16,301.41L305.23,301.72L305.31,303.75L305.38,303.98L305.61,302.37L305.68,302.53L305.76,302.62L306.51,304L306.59,304L307.71,303.71L307.79,300.14L308.76,298.2L308.91,299.22L308.99,299.37L309.22,297.25L309.29,298.73L309.37,299.05L309.89,299.14L309.97,295.37L310.57,299.22L310.79,299.03L310.87,297.75L310.94,297.25L311.09,299.26L311.47,298.75L311.54,298.97L311.62,293.31L312.22,298.64L312.3,298.3L312.37,259.86L312.97,298.32L313.05,298.35L313.57,298.5L313.65,298.25L313.72,297.88L314.25,298.73L314.32,298.18L314.4,293.47L314.47,288.42L315.08,297.95L315.15,298.09L316.13,298.35L316.2,298.33L317.4,298.91L317.48,298.9L318.91,298.66L318.98,298.78L319.43,297.29L319.73,298.51L319.81,298.54L320.86,298.75L320.93,297.72L321.09,298.9L321.39,296.77L321.46,282.46L321.69,295.19L321.76,262.63L321.84,230.79L322.59,294.22L322.66,294.08L322.74,294.28L322.89,294.24L323.34,296L323.64,295.9L323.71,295.51L323.86,293.39L324.39,296.18L324.47,296.6L325.07,297.63L325.14,296.81L325.22,296.48L325.52,297.64L325.67,292.79L325.74,289.68L326.94,297.36L327.02,296.92L327.7,297.17L327.85,293.25L327.92,293.72L328,296.06L328.15,288.48L328.67,296.56L328.75,296.76L328.82,296.92L328.9,291.51L329.8,298.26L329.87,298.14L329.95,297.66L330.48,298.67L330.55,298.73L331.3,297.93L331.38,293.77L332.2,299.01L332.28,298.96L333.18,300.1L333.41,299.46L333.48,299.18L333.56,298.19L334.08,300.35L334.16,299.77L334.23,301.33L334.31,301.63L334.46,299.8L334.53,299.8L334.61,299.64L334.76,301.06L334.83,299.73L334.91,298.31L334.98,296.78L335.43,299.2L335.58,298.97L335.66,298.37L336.04,296.76L336.41,297.53L336.49,297.68L337.69,297.58L337.76,296.43L338.74,297.51L338.81,297.45L339.57,297.73L339.72,297.58L339.79,297.63L340.62,297.85L340.69,297.66L340.92,297.43L340.99,297.59L341.07,292.67L341.14,273.63L341.74,296.68L341.82,296.66L343.47,296.29L343.55,294.57L344.07,296.9L344.37,296.77L344.45,296.85L344.75,295.91L345.28,297.07L345.35,296.95L346.1,295.87L346.18,296.61L346.25,296.75L346.33,296.98L346.4,295.2L346.78,296.54L346.85,294.17L347.38,296.82L347.45,293.89L347.68,296.52L347.75,296.54L347.9,296.75L347.98,295.56L348.13,296.56L348.73,295.92L348.81,296.32L349.03,295.48L349.71,296.94L349.78,296.8L349.86,296.87L350.61,297.51L350.68,296.56L350.98,296.68L351.44,287.93L351.51,295.78L352.34,297.46L352.41,297.37L352.49,297.28L352.64,296.61L352.71,296.63" style="vector-effect: non-scaling-stroke; fill: none; stroke: rgb(255, 165, 0); stroke-opacity: 1; stroke-width: 2px; opacity: 1;"/><path class="js-line" d="M353.99,297.44L354.37,295.78L354.52,296.67L354.59,296.79L354.97,296.32L355.27,297.46L355.34,283.88L356.54,298L356.62,297.71L356.84,297.27L356.92,297.92L356.99,297.43L357.07,295.72L357.15,294.96L357.52,297.66L357.6,297.62L357.67,297.69L357.97,296.11L358.27,298.03L358.35,297.95L358.42,298.26L358.72,294.91L359.17,297.48L359.25,297.94L359.47,298.19L359.55,296.83L359.92,297.84L360,298.9L360.08,298.57L360.15,288.38L360.98,298.35L361.05,298.62L361.43,299.63L361.5,300.62L361.65,301.54L361.88,297.85L361.95,293.9L362.03,285.51L362.63,296.77L362.7,297.22L362.93,298.31L363.08,296.23L363.38,297.84L363.46,296.47L363.68,296.78L363.76,295.51L363.91,196.18L364.51,289.39L364.58,289.7L364.73,283.03L364.81,174.83L365.63,288.02L365.71,288.35L366.84,290.25L366.99,290.13L367.06,290.14L367.44,290.17L367.51,289.2L367.89,290.49L368.34,290.4L368.41,290.54L369.32,289.83L369.39,285.7L369.47,247.28L370.07,288.42L370.14,289.03L370.52,290.05L370.59,265L371.49,291.08L371.57,291.18L372.47,292.91L372.55,292.88L373.15,293.29L373.22,291.26L373.67,293.71L374.12,293.17L374.2,293.4L375.1,293.96L375.18,293.96L375.85,294.07L375.93,291.51L376.75,294.6L376.83,294.57L377.28,293.97L377.35,294.47L377.43,293.14L377.73,294.65L377.8,289.83L377.88,287.49L378.11,282.58L378.71,294.08L378.78,294.17L380.51,297.78L380.73,297.36L380.81,296.93L381.56,299.03L381.71,298.99L381.79,299.12L381.94,299.45L382.16,298.85L382.24,298.28L382.31,296.41L382.84,298.98L382.91,298.91L382.99,298.55L383.14,298.71L383.74,296.91L383.81,298.6L385.17,302.05L385.24,303.43L385.32,303.58L385.39,301.71L385.84,303.95L385.92,302.65L385.99,301.88L386.37,304L386.52,302.57L386.59,302.34L387.5,304L387.57,304L387.72,303.69L387.8,301.32L387.87,302.68L388.32,300.14L388.4,300.19L388.47,299.4L388.62,300.16L388.7,299.39L388.77,289.91L389.6,299.83L389.67,299.74L389.75,299.86L389.97,300.13L390.2,299.33L390.28,296L391.03,299.95L391.1,299.49L391.18,299.28L392,299.21L392.08,299.71L392.23,298.53L392.3,274.15L392.6,293.29L393.13,292.99L393.21,293.1L393.36,291.85L393.88,293.33L393.96,293.27L394.18,293.83L394.26,292.5L394.71,294.07L394.78,291.26L394.86,284L395.68,293.94L395.76,294.11L396.74,293.87L396.81,293.62L397.26,295.8L397.56,294.19L397.64,294.15L398.76,294L398.84,294.14L398.91,294.21L399.22,294.06L399.29,294.81L399.37,295.05L399.67,294.38L400.04,295.14L400.12,294.95L400.19,294.86L400.87,294.81L400.94,294.95L401.02,295.14L401.99,294.95L402.07,294.47L403.05,295.24L403.12,295.33L403.35,294.95L403.5,295.05L403.57,293.05L403.65,292.28L403.87,295.67L404.02,295.62L404.1,295.62L404.32,295.28L404.7,295.71L404.85,295.52L404.92,295.33L405,294.14L405.6,295.67L405.68,295.76L405.83,295.86L405.98,295.19L406.05,295.28L406.13,294.37L406.35,294.51L406.43,290.23L407.25,294.79L407.33,295.03L407.55,295.7L407.63,289.7L408.61,295.19L408.68,295.27L408.83,295.48L408.91,294.29L409.21,295.03L409.36,293.32L409.43,295.21L409.58,295.68L409.66,294.04L409.88,295.6L409.96,292.08L410.86,296.33L410.93,296.05L411.01,296.25L411.91,298.71L411.99,298.03L412.06,296.45L413.19,302.98L413.26,300.16L413.41,299.73L413.56,299.91L413.64,302.46L413.71,303.59L414.02,299.82L414.24,302.72L414.32,300.77L414.54,299.81L414.62,300.75L414.69,303.32L414.99,301.5L415.29,304L415.44,303.37L415.52,303.17L415.74,304L415.97,302.13L416.19,303L416.27,304L417.25,303.9L417.32,301.97L417.47,298.51L418.15,298.8L418.22,298.78L418.45,298.81L418.52,298.13L418.6,283.59L419.35,297.76L419.42,296.59L419.5,296.68L419.65,297.9L420.18,297.2L420.25,296.02L420.48,297.56L420.63,297.34L420.7,290.21L420.85,254.42L421.38,294.98L421.45,294.34L422.28,295.58L422.35,295.44L423.03,295.47L423.11,295.61L423.18,295.79L423.71,294.04L423.78,291.4L424.23,294.89L424.61,294.76L424.68,294.61L424.83,294.42L425.21,295.08L425.28,295.02L425.36,295.02L425.88,294.1L425.96,295.29L426.04,295.74L427.01,295.47L427.09,295.39L428.14,295.14L428.21,292.84L428.29,287.71L428.36,228.39L429.27,290.93L429.34,291.57L429.87,293.24L430.02,291.54L430.09,289.52L430.17,282.84L430.77,292.25L430.84,291.17L431.29,293.12L431.37,293.07L431.44,289.15L432.27,294.28L432.35,294.29L432.87,294.63L432.95,293.3L433.02,287.53L433.62,294.66L433.7,294.8L434.75,295.38L434.82,295.41L434.97,295.87L435.43,294.83L435.5,294.52L436.25,295.91L436.4,295.68L436.48,295.77L436.55,295.23L436.78,296.04L437.23,295.65L437.3,295.79L437.6,296.83L437.75,296.52L437.83,297.53L438.43,295.67L438.66,296.52L438.73,296.77L438.96,299.62L439.18,297.49L439.26,297.13L439.48,303.68L439.93,303.6L440.01,300.13L440.31,292.76L440.83,297.51L440.91,298.32L440.98,298.54L441.06,296.91L441.44,297.96L441.51,301.16L442.04,302.07L442.26,296.24L442.41,297.41L442.49,298.58L443.16,304L443.24,303.09L443.31,301.8L443.46,295.07L443.84,301.97L444.07,297.77L444.14,299.98L444.22,302.96L444.74,296.25L444.82,296.16L444.89,296.32L445.12,295.63L445.34,295.89L445.42,295.37L445.79,295.96L446.09,292.83L446.17,294.36L446.24,295.7L446.39,294.41L446.77,295.96L446.99,295.67L447.07,296.65L447.97,295.45L448.12,295.68L448.2,295.68L448.35,295.77L448.57,295.24L448.65,285.23L449.4,295.47L449.47,295.36L449.55,295.41L449.85,295.12L449.92,294.28L450,295.31L450.68,294.73L450.75,294.64L451.65,294.41L451.73,294.16L451.88,293.89L452.03,294.96L452.33,294.33L452.4,294.56L453.16,294.29L453.23,293.45L453.76,294.53L454.06,294.15L454.13,294.51L454.58,294.24L454.66,292.01L455.26,293.98L455.56,293.84L455.63,293.99L455.71,294.19L456.01,293.9L456.09,292.61L456.24,294.1L456.76,293.36L456.84,284.84L456.91,283.25L457.21,293.42L457.29,293.6L457.81,293.14L458.04,293.51L458.11,293.54L458.34,294.39L458.64,291.6L458.79,293.1L458.86,292.49L458.94,291L459.47,293.14L459.54,292.78L459.62,292.92L460.29,292.9L460.37,289.11L460.44,288.91L460.52,292.37L461.27,293.23L461.34,292.96L461.42,292.98L461.72,251.29L461.94,280.26L462.02,284.21L462.1,280.65L462.55,292.2L462.62,292.84L463.67,293.58L463.75,292.87L464.12,260.46L464.57,281.17L464.65,283.08L465.25,293.15L465.48,292.89L465.55,292.94L465.93,290.95L466.08,292.82L466.15,293.11L466.75,296.45L466.9,295.6L466.98,288.85L467.8,298.92L467.88,300.94L468.33,295.73L468.71,296.87L468.78,297.69L468.86,298.87L469.01,294.68L469.38,297.98L469.46,296.09L469.53,295.04L469.83,297.97L469.91,301.46L470.13,299.02L470.51,304L470.66,303.4L470.73,299.89L471.04,295.75L471.26,302.18L471.34,275.63L471.79,293.88L472.16,293.57L472.24,293.41L472.99,291.63L473.06,292.92L473.81,292.37L473.96,292.69L474.04,292.78L474.79,293.18L474.87,293.12L474.94,293.03L475.09,292.89L475.17,291.63L475.39,289.28L475.62,292.76L475.69,282.39L475.77,262.87L476.37,290.28L476.44,290.44L476.59,290.47L476.67,285.76L476.89,288.72L476.97,254.27L477.2,284.11L477.27,285.73L477.35,286.05L477.42,279L477.65,276.11L477.95,286.84L478.02,283.34L478.1,205.8L478.25,256.6L478.32,22.28L479.15,297.31L479.22,297.21L480.13,300.88L480.2,300.43L480.28,299.05L481.1,302.12L481.18,302.27L482.98,303.2L483.06,301.43L483.51,303.58L483.88,303.29L483.96,303.21L484.93,303.99L485.01,303.98L488.39,304L488.46,303.31L488.54,299.74L489.14,304L489.22,304L489.97,303.94L490.04,302.65L490.49,304L490.72,303.62L490.79,301.55L490.94,303.45L491.62,303.22L491.69,302.95L491.84,300.89L491.92,297.72L492.3,303.04L492.75,302.87L492.82,303.33L493.42,304L493.65,303.68L493.72,300.6L493.8,300.15L494.02,303.16L494.1,303.78L495.15,304L495.23,304L495.83,303.64L495.9,303.03L496.5,302.39L496.73,303.99L496.8,303.98L497.1,304L497.18,302.36L498.08,304L498.16,304L500.48,304L500.56,301.44L500.93,303.94L501.31,303.83L501.39,301.15L501.99,303.68L502.21,303.51L502.29,303.49L503.11,303.32L503.19,302.36L503.41,303.36L503.64,302.53L503.71,297.44L503.79,224.47L504.32,298.65L504.39,298.61L504.47,298.48L505.97,300.43L506.04,299.66L506.12,296.63L506.72,301.1L506.87,300.96L506.94,295.3L507.02,229.57L507.62,297.28L507.7,297.8L508.82,299.98L508.9,300.06L509.65,300.19L509.72,298.88L510.4,301.53L510.48,282.21L510.55,74.18L511.15,296.61L511.23,297.59L512.05,301.47L512.28,301.25L512.35,301.5L514.08,303.18L514.16,303L514.61,303.33L514.68,302.02L515.13,303.31L515.21,289.38L515.81,302.19L515.96,293.84L516.04,297.94L516.71,302.56L516.79,297.09L517.16,300.87L517.31,285.69L517.39,195.81L517.46,126.74L517.99,296.7L518.06,297.4L519.27,301.04L519.34,301.27L520.39,302.28L520.47,302.21L520.62,301.58L520.69,291.85L521.14,289.83L521.44,302.16L521.52,302.03L521.59,302.47L521.74,301.2L522.12,303.66L522.2,303.8L522.72,304L522.8,300.21L523.7,304L523.77,303.4L524.6,304L524.67,304L527.15,303.84L527.23,294.37L527.3,293.04L527.45,302.48L527.53,303.94L529.63,304L529.71,303.9L530.53,303.97L530.61,298.28L531.36,303.9L531.51,303.84L531.59,303.81L533.76,303.75L533.84,302.68L533.91,302.2L533.99,280.14L534.82,301.79L534.89,301.77L535.42,302.43L535.49,302.28L535.57,300.19L536.39,302.57L536.47,302.56L537.07,302.77L537.15,300.08L538.2,302.62L538.27,302.67L539.17,303.38L539.25,303.32L539.32,297.92L539.55,302.02L540,301.18" style="vector-effect: non-scaling-stroke; fill: none; stroke: rgb(255, 165, 0); stroke-opacity: 1; stroke-width: 2px; opacity: 1;"/></g><g class="points"/><g class="text"/></g><g class="trace scatter trace2af252" style="stroke-miterlimit: 2; opacity: 1;"><g class="fills"/><g class="errorbars"/><g class="lines"><path class="js-line" d="M0,295.87L0.08,296.04L0.15,293.68L0.68,302.41L0.9,300.61L0.98,298.08L1.8,303.97L1.88,303.84L1.95,303.72L2.18,303.23L2.4,304L2.63,303.99L2.7,303.97L4.66,304L4.73,304L5.93,304L6.01,303.13L6.16,303.48L6.76,303.18L6.84,303.23L7.66,302.33L7.74,303.42L8.11,302.6L8.34,303.73L8.41,304L11.19,303.62L11.27,303.72L11.64,303.79L11.72,296.64L12.55,304L12.62,304L15.33,303.5L15.4,301.92L15.48,301.51L15.85,303.48L15.93,303.54L16.68,303.86L16.75,303.74L16.83,303.5L17.58,303.62L17.73,303.48L17.8,303.5L18.48,303.32L18.56,298.67L19.38,304L19.46,304L19.91,304L19.98,303.02L20.81,304L20.88,304L21.56,303.27L21.64,303.22L21.79,302.55L22.01,303.75L22.09,302.77L22.16,249.92L22.99,299.96L23.06,302.41L23.96,304L24.04,304L24.27,304L24.34,303.01L24.42,303.38L24.49,301.83L24.64,301.9L24.72,256.48L24.79,228.92L25.32,303.37L25.39,303.87L25.84,304L25.92,295.1L26.74,303.78L26.82,302.72L26.89,270.07L27.35,304L27.5,304L27.57,304L29,303.71L29.07,303.79L29.9,304L29.97,304L32.98,303.98L33.06,303.15L33.88,304L33.96,304L36.29,303.26L36.36,285.36L37.19,304L37.26,304L37.41,303.46L38.01,303.82L38.09,303.85L38.99,303.58L39.07,300.41L39.67,303.42L39.74,303.4L39.82,295.65L40.49,303.46L40.64,303.35L40.72,303.26L40.87,303.05L40.94,303.14L41.02,279.36L41.84,304L41.92,304L42.52,303.31L42.6,303.21L42.9,303.63L42.97,303.12L43.05,263.41L43.87,303.76L43.95,303.86L44.02,302.14L44.25,304L44.7,303.74L44.77,303.71L46.28,303.23L46.35,298.04L46.88,253.41L47.1,294.68L47.18,298.7L48.08,303.53L48.16,303.45L48.98,304L49.06,303.91L49.13,300.58L49.28,292.37L49.88,302.8L49.96,301.6L50.03,291.56L50.56,303.1L50.63,303.07L50.71,303.07L51.61,301.22L51.69,300.79L52.14,294.62L52.74,295.96L52.81,296.16L52.89,295.97L52.96,296.83L53.04,296.85L53.11,297.73L54.69,303.55L54.77,303.6L56.64,304L56.72,304L62.88,303.45L62.95,303.06L63.33,303.5L63.41,301.98L63.63,303.02L63.71,303.38L64.01,303.87L64.08,302.15L64.16,303.36L64.23,300.42L64.38,263.38L64.68,302.24L64.76,301.62L64.83,301.7L64.98,301.31L65.06,295.04L65.96,303.37L66.04,303.51L66.26,303.89L66.64,303.21L66.79,303.6L66.86,303.61L67.16,299.66L67.24,300.92L67.31,302.64L67.46,302.32L67.69,302.73L67.76,299.31L67.84,298.49L67.91,259.41L67.99,254.57L68.14,289.18L68.21,288.04L68.81,304L69.12,303.55L69.19,303.82L69.72,304L69.79,302.91L69.94,303.69L70.54,303.59L70.62,303.58L71.97,303.26L72.05,301.52L72.42,303.37L72.87,303.28L72.95,303.29L73.47,303.12L73.55,300.17L73.77,302.98L73.85,271.74L74.75,303.74L74.82,304L74.97,300.07L75.5,303.9L75.58,304L76.1,303.89L76.18,302.88L76.33,303.78L76.55,302.77L76.63,303.49L76.7,261.14L76.78,253.28L77,299.88L77.08,302.16L77.3,304L77.45,302L77.83,303.53L77.9,300.47L77.98,302.43L78.06,243.62L78.88,304L78.96,301.07L79.03,273.45L79.26,302.21L79.63,300.78L79.71,304L79.86,303.44L79.93,291.98L80.61,303.91L80.83,303.84L80.91,303.71L82.34,303.45L82.41,303.57L88.5,303.98L88.57,303.25L89.25,303.99L89.4,303.38L89.47,303.14L90.23,303.66L90.3,303.64L90.38,303.59L92.63,303.48L92.7,303.35L92.93,301.54L93.08,302.62L93.16,302.9L94.13,304L94.21,304L95.41,304L95.48,302.45L95.63,304L95.71,297.11L95.78,285.91L96.61,304L96.69,303.9L96.76,303.83L97.59,303.93L97.66,303.94L99.39,303.39L99.47,303.29L100.22,302.98L100.29,301.42L100.44,245.79L100.97,301.31L101.04,301.84L101.87,303.46L101.94,303.1L102.02,303.57L102.17,303L102.32,304L102.7,303.88L102.77,303.74L103.97,303.03L104.05,303.15L104.12,301.58L104.5,300.37L104.8,303.46L105.03,303.4L105.1,303.44L107.65,302.27L107.73,301.91L107.8,293.69L108.03,301.93L108.48,300.67L108.56,300.51L109.16,296.54L109.23,295.84L109.91,292.21L110.06,294.81L110.13,295.52L111.79,304L111.86,303.71L111.94,303.8L113.44,304L113.51,304L116.22,303.46L116.29,302L117.12,304L117.2,303.93L117.57,304L117.65,300.53L118.1,304L118.47,303.64L118.55,303.58L118.77,303.5L118.85,301.11L119,273.88L119.3,298.97L119.37,297.24L120.05,303.17L120.2,303.04L120.28,302.97L120.65,302.5L120.95,302.83L121.03,299.65L121.18,302.99L121.33,282.58L121.4,250.39L122.15,303.33L122.23,302.78L122.3,303.09L123.43,303.57L123.51,303.6L125.38,303.07L125.46,298.61L126.29,303.79L126.36,303.79L126.89,303.34L126.96,302.11L127.11,255.71L127.64,302.03L127.71,302.61L128.61,303.86L128.69,304L129.14,303.95L129.22,302.62L129.37,303.61L129.74,300.94L129.97,303.21L130.04,302.96L130.64,303.32L130.72,302.22L131.02,300.17L131.17,303.53L131.39,303.36L131.47,303.22L134.7,300.31L134.77,300.45L135.6,301.68L135.68,301.92L137.4,302.98L137.48,302.86L138.31,303.35L138.38,302.57L139.21,304L139.28,304L141.91,303.61L141.99,300.21L142.51,304L142.74,303.74L142.81,303.79L144.09,303.43L144.17,298.79L145.07,304L145.14,304L146.12,303.9L146.19,304L146.27,302.1L146.72,303.68L146.79,274.1L146.94,302.53L147.02,303.32L147.55,304L147.77,303.65L147.85,303.59L149.42,303.33L149.5,303.4L150.4,303.34L150.48,302.34L151,303.59L151.08,303.56L151.15,301.19L151.6,303.71L151.98,303.39L152.05,303.33L153.11,303.15L153.18,303.25L153.93,303.5L154.01,303.3L154.83,303.54L154.91,303.51L155.88,303.97L155.96,292.35L156.86,303.99L156.94,304L158.14,303.83L158.21,302.84L158.44,303.77L158.89,302.73L158.96,303.22L159.04,303.46L159.12,303.26L159.19,303.29L159.27,300.89L159.34,277.82L159.72,302.9L160.02,295.12L160.09,283.49L160.54,303.45L160.92,302.9L160.99,302.78L162.05,302.69L162.12,302.72L163.92,303.74L164,299.4L164.82,304L164.9,304L169.11,303.59L169.18,303.14L170.61,303.65L170.68,303.54L171.51,303.23L171.66,303.43L171.74,303.58L172.79,303.51L172.86,303.55L173.01,303.72L173.16,302.95L173.24,302.33L173.61,301.98L173.99,303.4L174.07,303.24L174.14,302.98L174.59,303.87L174.67,303.94L175.57,303.66L175.64,303.7L176.77,303.4L176.84,302.91L177.75,303.35L177.82,303.37L179.02,303.22L179.1,296.69L179.92,303.99L180,303.6L180.08,303.35L180.23,304L180.6,304L180.68,304L182.33,303.61L182.4,302.99L183.23,304L183.31,304L184.28,303.31L184.36,303.16L185.33,304L185.41,303.89L185.86,303.94L185.93,303.12L186.91,304L186.99,304L189.47,303.46L189.54,301.69L189.62,293.44L190.14,303.54L190.22,303L190.29,303.53L190.67,303.47L190.74,302.12L191.12,303.67L191.27,301.91L191.49,303.06L191.57,302.09L192.1,303.84L192.17,298.18L192.47,282.91L193,304L193.07,304L193.22,303.21L193.82,303.61L193.9,303.69L194.35,303.33L194.87,304L194.95,304L202.61,303.51L202.69,303.08L202.84,295.03L203.06,303.24L203.14,303.71L203.96,304L204.04,304L205.54,303.93L205.62,302.84L205.84,303.82L205.99,302.27L206.07,303.46L206.14,301.21L206.59,304L206.82,303.89L206.89,277.02L206.97,274.93L207.05,288.46L207.12,294.19L207.95,304L208.02,298.55L208.85,304L208.92,303.99L209.52,303.57L209.6,283.71L209.82,275.92L209.9,293.7L209.97,299.88L210.8,304L210.88,304L212.98,303.25L213.06,303.2L213.73,303.14L213.81,301.11L213.96,302.44L214.03,280.39L214.71,302.83L214.86,302.04L214.93,300.21L215.31,300.03L215.76,303.07L215.83,303.14L216.36,302.28L216.66,302.67L216.74,302.67L217.26,301.25L217.34,295.2L217.79,301.22L218.16,300.8L218.24,299.42L219.07,303.22L219.14,303.39L221.17,304L221.24,304L229.21,303.55L229.28,303.2L229.43,301.92L229.81,303.97L229.88,303.99L232.21,303.43L232.29,303.34L233.94,303.65L234.02,303.34L234.17,303.02L234.62,303.81L234.69,303.82L235.14,303.53L235.22,300.94L236.04,304L236.12,304L237.55,303.81L237.62,281.55L238.3,303.59L238.37,297.57L238.45,291.5L239.27,304L239.35,284.8L239.8,268.67L240.18,303.25L240.25,303.47L240.63,304L240.7,302.3L240.78,300.25L241.15,303.4L241.38,303.35L241.45,303.38L241.53,303.15L241.68,303.38L241.75,299.87L242.5,303.34L242.58,303.33L242.65,303.44L243.78,303.55L243.86,302.62L244.01,254.63L244.53,303.6L244.61,286.8L244.68,288.43L245.51,304L245.58,304L247.46,303.14L247.54,303.59L248.51,304L248.59,304L254.15,304L254.22,298.32L254.75,296.45L255.05,304L255.13,304L255.88,303.86L255.95,300.93L256.1,264.14L256.55,302.95L256.63,303.05L257.08,303.99L257.45,303.56L257.53,302.85L257.98,303.59L258.28,303.18L258.36,303.33L258.96,303.23L259.03,303.25L259.71,303.42L259.78,301.93L260.46,303.48L260.61,303.39L260.68,303.4L261.36,303.21L261.44,302.06L261.51,300.31L262.11,303.6L262.19,303.66L264.14,302.78L264.22,293.91L264.29,290.15L264.74,302.88L264.82,302.94L266.17,303.76L266.24,303.72L266.69,303.23L266.77,302.28L266.84,299.5L267.37,303.96L267.45,267L267.67,262.25L268.27,304L268.35,304L270.45,303.58L270.53,303.03L270.83,303.39L270.98,298.8L271.13,303.2L271.2,303.18L271.35,302.47L271.95,302.82L272.03,302.91L272.93,303.36L273.01,303.35L274.21,303.51L274.28,304L277.59,304L277.66,295.85L278.49,304L278.56,304L284.35,303.61L284.42,298.92L284.72,289.88L284.87,304L285.18,301.89L285.25,282.6L285.33,285.17L285.4,268.15L285.48,299.05L285.55,301.9L285.93,298.7L286,300.91L286.08,264.13L286.53,253.85L286.9,302.2L286.98,302.5L287.88,303.81L287.95,303.86L289.53,304L289.61,304L290.73,303.27L290.81,302.43L291.04,303.5L291.56,303.36L291.64,302.24L292.24,303.3L292.46,303.27L292.54,303.25L295.54,302.75L295.62,301.63L295.69,290.6L296.07,303.49L296.29,303.38L296.37,303.35L296.52,303.32L296.59,301.85L296.67,300.33L296.97,303.52L297.27,303.16L297.35,303.36L297.42,301.96L297.65,304L298.02,304L298.1,304L299.6,303.54L299.67,303.11L300.13,302.93L300.2,301.93L300.65,302.59L301.03,302.39L301.1,302.32L301.93,300.08L302,300.47L302.08,301.47L302.83,301.63L302.9,302.73L304.03,304L304.11,304L309.14,303.55L309.22,303.05L309.29,302.56L309.67,303.64L309.89,303.28L309.97,303.15L310.04,301.7L310.19,303.7L310.64,303.71L310.72,303.79L310.87,303.71L310.94,302.46L311.32,303.64L311.62,303.02L311.69,298.42L311.92,303.43L312.37,298.82L312.45,278.45L313.27,304L313.35,304L313.72,303.86L313.8,302.61L314.32,303.73L314.4,300.65L314.47,297.88L315.45,303.53L315.53,303.55L320.26,303.21L320.33,303.29L321.01,302.4L321.39,302.95L321.46,298.99L321.69,300.4L321.84,247.9L322.14,298.76L322.21,300.63L322.36,298.09L323.26,304L323.34,304L323.86,297.98L324.24,302.03L324.32,302.65L324.99,303.34L325.22,302.93L325.29,302.74L325.52,302.51L325.59,302.58L325.67,299.8L325.82,296.86L326.49,302.69L326.57,302.65L327.4,299.53L327.62,300.57L327.7,300.74L327.92,298.97L328,301.18L328.15,298.59L328.75,303.39L328.9,303.26L328.97,301.53L329.8,303.32L329.87,303.37L329.95,303.01L330.33,303.67L330.55,303.55L330.63,303.53L334.16,303.99L334.23,304L341.07,303.65L341.14,300.25L341.22,292.08L341.29,304L341.82,304L341.89,304L343.47,304L343.55,302.41L343.77,303.96L344.37,303.76L344.45,303.75L344.75,302.92L344.97,303.63L345.05,303.61L346.1,302.8L346.18,303.48L346.25,303.55L346.4,303.59L346.48,301.73L346.85,301.37L347,303.83L347.3,303.59L347.38,303.66L347.53,302.63L347.9,304L348.06,304L348.13,304L350.23,303.27L350.31,303.23L350.76,302.6L350.98,303.3L351.06,303.23L351.14,302.39L351.36,303.43L351.44,283.73L351.66,303.31L352.26,301.77L352.34,301.52L352.41,301.25L352.56,303.42L352.64,303.43L352.71,303.59L352.94,303.09L353.24,303.07L353.31,303.09L354.67,303.08L354.74,301.35L354.89,303.64L355.34,303.6L355.42,295.83L356.32,304L356.39,304L356.99,303.5L357.07,303.16L357.15,296.36L357.75,303.51L357.82,303.27L357.97,301.83L358.12,303.9L358.2,304L358.5,304L358.57,302.48L359.4,304L359.47,304L360.08,304L360.15,302.83L360.23,301.9L360.38,304L360.75,304L360.83,304L361.95,304L362.03,294.31L362.78,304L362.85,303.86L362.93,303.7L363.76,303.1L363.83,303.47L363.91,284.82L364.66,304L364.73,303.92L364.81,271.81L365.63,304L365.71,304L367.06,303.32L367.14,303.36L368.86,303.21L368.94,303.38L369.39,303.57L369.47,284.51L369.54,251.99L370.14,302.75L370.22,303.35L370.52,303.58L370.59,302.11L370.67,280.11L371.27,303.79L371.34,304L373.22,303.49L373.3,300.45L373.9,303.34L374.12,303.28L374.2,302.8L374.57,302.6L374.95,303.42L375.03,303.4L375.1,303.42L375.85,303.22L375.93,300.63L376.75,303.77L376.83,303.76L377.28,303.46L377.35,302.55L377.5,301.77L377.8,303.84L377.88,286.76L378.03,303.19L378.71,302.54L378.78,302.47L379.76,301.01L379.83,300.67L379.98,300.55L380.06,299.27L380.81,303.34L381.11,303.17L381.19,303.1L381.49,302.27L381.56,301.38L381.71,300.46L381.94,303.57L382.09,303.57L382.16,303.58L382.39,302.96L383.44,303.94L383.51,303.86L384.27,302.62L384.34,301.74L385.02,303.84L385.24,303.67L385.32,303.64L386.97,304L387.05,303.91L388.02,303.42L388.1,303.42L388.4,303.07L388.7,303.4L388.77,303L389.6,304L389.67,304L390.35,302.64L390.58,303.67L390.65,303.68L390.88,303.16L391.33,303.62L391.4,303.87L392.3,302.96L392.38,296.12L393.21,304L393.28,304L393.43,303.17L394.03,303.65L394.11,303.65L394.78,303.6L394.86,294.82L394.93,294.49L395.01,300.57L395.68,303.49L395.83,303.45L395.91,303.44L400.42,303.27L400.49,303.31L401.32,303.3L401.47,302.99L401.54,303.01L402.22,303.42L402.37,303.38L402.45,303.33L403.65,303.26L403.72,302.26L404.32,303.97L404.62,303.86L404.7,303.88L406.43,303.78L406.5,302.1L407.33,303.81L407.4,303.79L407.48,303.8L407.63,303.9L407.7,303.6L407.78,302.83L407.85,302.51L408.16,303.76L408.31,303.71L408.38,303.89L408.98,304L409.06,303.24L409.13,303.06L409.66,303.7L409.73,303.55L409.81,303.43L410.03,303.29L410.63,304L410.71,303.83L413.04,303.96L413.11,304L419.05,303.41L419.12,303.12L419.5,302.92L420.18,303.63L420.25,303.61L420.7,303.48L420.78,298.88L420.85,297.39L421,304L421.23,304L421.3,304L423.71,303.73L423.78,302.79L423.93,299.07L424.01,302.64L424.68,303.49L424.91,303.23L424.98,303.21L425.88,302.79L425.96,302.97L426.04,303.26L426.79,303.48L426.86,303.39L428.21,303.23L428.29,294.09L428.36,291.97L428.44,244.36L429.34,304L429.42,304L430.02,304L430.09,297.34L430.24,294.99L430.84,304L430.99,303.65L431.07,303.76L431.37,303.75L431.44,302.33L431.52,301.57L432.05,303.48L432.12,303.53L432.95,303.38L433.02,299.77L433.1,297.95L433.55,303.59L433.62,303.28L433.85,303.66L434.37,303.27L434.45,303.24L435.58,302.66L435.65,303.03L435.73,303.34L435.8,302.7L436.25,303.68L436.4,303.64L436.48,303.6L438.36,299.9L438.66,300.3L438.73,300.37L440.31,302.89L440.38,301.51L441.36,303.7L441.44,303.68L441.51,303.94L443.39,304L443.46,303.84L447.45,303.63L447.52,303.67L448.65,303.77L448.72,302.59L449.55,303.94L449.62,304L456.84,303.91L456.91,300.21L457.81,304L457.89,304L460.37,304L460.44,299.56L461.27,304L461.34,304L461.49,303.93L461.57,298.43L461.79,265.28L462.4,304L462.47,304L464.05,303.49L464.12,297.8L464.2,286.99L464.5,303.27L464.8,303.12L464.87,303.04L466,302.95L466.08,303.09L466.98,303.97L467.05,303.97L471.41,303.83L471.49,303.59L474.87,303.77L474.94,303.69L475.32,303.63L475.39,302.91L475.62,303.37L475.77,301.42L475.84,300.9L476.67,304L476.74,302.57L476.82,302.44L476.89,303.57L476.97,303.81L477.05,279.91L477.72,298.15L477.8,301.8L478.02,303.19L478.1,269.55L478.17,237.63L478.77,300.89L478.85,301.72L479,300.85L480.2,304L480.28,302.19L481.18,304L481.25,304L483.06,303.36L483.13,302.16L483.96,303.29L484.03,303.21L486.44,303.15L486.51,302.91L487.04,302.61L487.34,303.15L487.41,303.15L488.46,303.03L488.54,301.46L488.61,296.24L489.22,303.12L489.29,303.33L489.89,303.83L490.12,303.41L490.19,303.14L491.92,303.43L491.99,302.62L493.12,302.99L493.2,302.97L494.85,302.02L495.08,302.54L495.15,302.64L496.35,303.68L496.43,303.77L498.01,304L498.08,303.93L503.19,303.39L503.26,303.47L503.71,303.31L503.79,294.54L503.86,294.74L503.94,304L506.04,304L506.12,298.33L506.94,303.93L507.02,269.28L507.1,250.29L507.62,303.71L507.7,304L509.72,303.62L509.8,302.01L510.25,303.45L510.48,303.33L510.55,250.24L510.63,223.53L511.15,299.26L511.23,300.51L512.2,304L512.28,303.54L512.35,304L514.68,303.62L514.76,299.08L514.91,303.4L515.21,302.68L515.28,280.41L515.66,302.87L516.11,302.76L516.19,302.8L516.79,303.11L516.86,289.77L517.16,304L517.39,292.99L517.46,246.5L518.44,304L518.51,304L519.12,303.55L519.19,301.82L519.42,303.54L520.02,303.37L520.09,303.38L520.62,303.52L520.69,301.22L520.77,281.85L521.37,302.82L521.44,302.29L521.82,301.69L521.89,303.47L521.97,303.51L522.05,303.67L522.5,303.1L522.57,303.11L522.65,303.08L522.8,303.23L522.87,290.51L523.77,303.03L523.85,302.8L524.82,304L524.9,304L527.38,303.74L527.45,302.99L527.75,303.96L528.06,302.8L528.28,303.89L528.36,304L530.61,303.13L530.68,302.38L531.51,304L531.59,304L533.84,304L533.91,302.95L534.07,292.21L534.44,304L534.52,304L537.15,303.82L537.22,293.16L537.82,303.69L538.05,303.61L538.12,303.52L538.8,302.58L538.95,303.31L539.02,303.35L539.32,303.27L539.4,296.49L540,303.63" style="vector-effect: non-scaling-stroke; fill: none; stroke: rgb(31, 119, 180); stroke-opacity: 1; stroke-width: 2px; opacity: 1;"/></g><g class="points"/><g class="text"/></g></g></g><g class="overplot"/><path class="xlines-above crisp" d="M0,0" style="fill: none;"/><path class="ylines-above crisp" d="M0,0" style="fill: none;"/><g class="overlines-above"/><g class="xaxislayer-above"><g class="xtick"><text text-anchor="middle" x="0" y="433" transform="translate(177.51,0)" style="font-family: 'Open Sans', verdana, arial, sans-serif; font-size: 12px; fill: rgb(42, 63, 95); fill-opacity: 1; white-space: pre; opacity: 1;">2005</text></g><g class="xtick"><text text-anchor="middle" x="0" y="433" style="font-family: 'Open Sans', verdana, arial, sans-serif; font-size: 12px; fill: rgb(42, 63, 95); fill-opacity: 1; white-space: pre; opacity: 1;" transform="translate(314.69,0)">2010</text></g><g class="xtick"><text text-anchor="middle" x="0" y="433" style="font-family: 'Open Sans', verdana, arial, sans-serif; font-size: 12px; fill: rgb(42, 63, 95); fill-opacity: 1; white-space: pre; opacity: 1;" transform="translate(451.87,0)">2015</text></g><g class="xtick"><text text-anchor="middle" x="0" y="433" style="font-family: 'Open Sans', verdana, arial, sans-serif; font-size: 12px; fill: rgb(42, 63, 95); fill-opacity: 1; white-space: pre; opacity: 1;" transform="translate(589.05,0)">2020</text></g></g><g class="yaxislayer-above"><g class="ytick"><text text-anchor="end" x="79" y="4.199999999999999" transform="translate(0,404)" style="font-family: 'Open Sans', verdana, arial, sans-serif; font-size: 12px; fill: rgb(42, 63, 95); fill-opacity: 1; white-space: pre; opacity: 1;">0</text></g><g class="ytick"><text text-anchor="end" x="79" y="4.199999999999999" style="font-family: 'Open Sans', verdana, arial, sans-serif; font-size: 12px; fill: rgb(42, 63, 95); fill-opacity: 1; white-space: pre; opacity: 1;" transform="translate(0,346.63)">20</text></g><g class="ytick"><text text-anchor="end" x="79" y="4.199999999999999" style="font-family: 'Open Sans', verdana, arial, sans-serif; font-size: 12px; fill: rgb(42, 63, 95); fill-opacity: 1; white-space: pre; opacity: 1;" transform="translate(0,289.27)">40</text></g><g class="ytick"><text text-anchor="end" x="79" y="4.199999999999999" style="font-family: 'Open Sans', verdana, arial, sans-serif; font-size: 12px; fill: rgb(42, 63, 95); fill-opacity: 1; white-space: pre; opacity: 1;" transform="translate(0,231.9)">60</text></g><g class="ytick"><text text-anchor="end" x="79" y="4.199999999999999" style="font-family: 'Open Sans', verdana, arial, sans-serif; font-size: 12px; fill: rgb(42, 63, 95); fill-opacity: 1; white-space: pre; opacity: 1;" transform="translate(0,174.53)">80</text></g><g class="ytick"><text text-anchor="end" x="79" y="4.199999999999999" style="font-family: 'Open Sans', verdana, arial, sans-serif; font-size: 12px; fill: rgb(42, 63, 95); fill-opacity: 1; white-space: pre; opacity: 1;" transform="translate(0,117.17)">100</text></g></g><g class="overaxes-above"/></g></g><g class="polarlayer"/><g class="smithlayer"/><g class="ternarylayer"/><g class="geolayer"/><g class="funnelarealayer"/><g class="pielayer"/><g class="iciclelayer"/><g class="treemaplayer"/><g class="sunburstlayer"/><g class="glimages"/><defs id="topdefs-ed56d0"><g class="clips"/></defs><g class="layer-above"><g class="imagelayer"/><g class="shapelayer"/></g><g class="infolayer"><g class="g-gtitle"/><g class="g-xtitle"/><g class="g-ytitle"/></g></svg>