<svg class="main-svg" xmlns="http://www.w3.org/2000/svg" xmlns:xlink="http://www.w3.org/1999/xlink" width="700" height="500" style="" viewBox="0 0 700 500"><rect x="0" y="0" width="700" height="500" style="fill: rgb(255, 255, 255); fill-opacity: 1;"/><defs id="defs-eb7258"><g class="clips"><clipPath id="clipeb7258xyplot" class="plotclip"><rect width="540" height="320"/></clipPath><clipPath class="axesclip" id="clipeb7258x"><rect x="80" y="0" width="540" height="500"/></clipPath><clipPath class="axesclip" id="clipeb7258y"><rect x="0" y="100" width="700" height="320"/></clipPath><clipPath class="axesclip" id="clipeb7258xy"><rect x="80" y="100" width="540" height="320"/></clipPath></g><g class="gradients"/><g class="patterns"/></defs><g class="bglayer"><rect class="bg" x="80" y="100" width="540" height="320" style="fill: rgb(229, 236, 246); fill-opacity: 1; stroke-width: 0;"/></g><g class="layer-below"><g class="imagelayer"/><g class="shapelayer"/></g><g class="cartesianlayer"><g class="subplot xy"><g class="layer-subplot"><g class="shapelayer"/><g class="imagelayer"/></g><g class="minor-gridlayer"><g class="x"/><g class="y"/></g><g class="gridlayer"><g class="x"><path class="xgrid crisp" transform="translate(177.51,0)" d="M0,100v320" style="stroke: rgb(255, 255, 255); stroke-opacity: 1; stroke-width: 1px;"/><path class="xgrid crisp" transform="translate(314.69,0)" d="M0,100v320" style="stroke: rgb(255, 255, 255); stroke-opacity: 1; stroke-width: 1px;"/><path class="xgrid crisp" transform="translate(451.87,0)" d="M0,100v320" style="stroke: rgb(255, 255, 255); stroke-opacity: 1; stroke-width: 1px;"/><path class="xgrid crisp" transform="translate(589.05,0)" d="M0,100v320" style="stroke: rgb(255, 255, 255); stroke-opacity: 1; stroke-width: 1px;"/></g><g class="y"><path class="ygrid crisp" transform="translate(0,360.52)" d="M80,0h540" style="stroke: rgb(255, 255, 255); stroke-opacity: 1; stroke-width: 1px;"/><path class="ygrid crisp" transform="translate(0,317.03999999999996)" d="M80,0h540" style="stroke: rgb(255, 255, 255); stroke-opacity: 1; stroke-width: 1px;"/><path class="ygrid crisp" transform="translate(0,273.56)" d="M80,0h540" style="stroke: rgb(255, 255, 255); stroke-opacity: 1; stroke-width: 1px;"/><path class="ygrid crisp" transform="translate(0,230.08)" d="M80,0h540" style="stroke: rgb(255, 255, 255); stroke-opacity: 1; stroke-width: 1px;"/><path class="ygrid crisp" transform="translate(0,186.59)" d="M80,0h540" style="stroke: rgb(255, 255, 255); stroke-opacity: 1; stroke-width: 1px;"/><path class="ygrid crisp" transform="translate(0,143.11)" d="M80,0h540" style="stroke: rgb(255, 255, 255); stroke-opacity: 1; stroke-width: 1px;"/></g></g><g class="zerolinelayer"><path class="yzl zl crisp" transform="translate(0,404)" d="M80,0h540" style="stroke: rgb(255, 255, 255); stroke-opacity: 1; stroke-width: 2px;"/></g><path class="xlines-below"/><path class="ylines-below"/><g class="overlines-below"/><g class="xaxislayer-below"/><g class="yaxislayer-below"/><g class="overaxes-below"/><g class="plot" transform="translate(80,100)" clip-path="url(#clipeb7258xyplot)"><g class="scatterlayer mlayer"><g class="trace scatter trace9d46b7" style="stroke-miterlimit: 2; opacity: 1;"><g class="fills"/><g class="errorbars"/><g class="lines"><path class="js-line" d="M0,282.87L0.23,291.43L0.3,297.48L0.38,299.86L0.6,289.05L0.9,297.74L0.98,290.44L1.43,297.06L1.65,283.3L1.73,285.96L1.8,290.19L1.95,292.69L2.18,282.91L2.33,285.27L2.4,281.93L2.7,260.86L2.93,288.97L3.08,280.79L3.16,281.22L3.23,280.83L3.31,283.49L3.38,284.99L4.13,299.72L4.21,291.51L4.28,290.03L4.51,300.95L4.58,302.17L5.11,303.44L5.33,303.06L5.41,301.88L5.63,303.02L5.71,302.13L5.78,297.29L6.01,287.66L6.16,302.18L6.46,299.49L6.54,299.46L6.76,302.4L7.06,292.66L7.14,295.85L7.21,295.58L7.44,287.61L7.74,301.47L7.96,292.71L8.04,291.41L8.19,302.07L8.34,290.6L8.79,300.5L8.86,288.44L8.94,287.39L9.17,294L9.24,299.82L9.47,289.49L9.54,275.67L9.69,267.06L10.07,284.82L10.14,285.56L10.22,283.49L10.37,298.75L10.59,291.93L10.67,292.99L10.82,295.18L11.49,284.51L11.57,284.6L11.79,254.67L11.94,288.94L12.02,289.7L13,299.23L13.07,297.64L13.15,298.54L13.67,300.28L13.9,293.47L14.05,294.14L14.12,294.89L14.8,299.99L15.03,299.38L15.1,297.91L15.48,292.27L15.85,294.51L15.93,294.82L16,295.05L16.08,294.25L16.15,298.26L16.9,282.51L17.13,285.65L17.2,287.42L17.35,282.16L17.65,285.06L17.73,287.6L18.56,280.86L18.63,280.87L18.71,280.75L19.31,290.29L19.46,286.03L19.53,277.26L19.91,263.69L20.36,282.64L20.43,281.61L20.81,278.49L20.88,280.71L20.96,283.62L21.34,289.14L21.41,287.06L21.49,283.85L22.31,303.12L22.46,302.09L22.54,302.6L22.61,302.19L22.69,295.01L23.21,303.61L23.51,303.51L23.59,303.42L24.12,303.47L24.19,302.2L24.72,296.5L24.79,299.67L24.87,303.84L26.52,298.5L26.67,299.61L26.74,297.58L27.5,301.88L27.65,301.62L27.72,301.63L28.7,300.07L28.77,299.61L29,300.87L29.15,297.45L29.52,297.76L29.6,299.69L30.35,301.96L30.5,301.8L30.58,301.56L31.63,301.78L31.7,301.75L31.93,301.9L32,302.96L32.75,303.84L32.83,303.83L32.9,303.83L32.98,300.81L33.58,303.78L33.66,303.78L34.03,303.29L34.11,303.08L34.18,303.68L34.63,301.23L34.71,301.62L35.31,301.93L35.38,303.05L35.76,302.88L36.14,303.82L36.21,303.78L36.29,286.73L36.96,303.38L37.04,303.4L37.11,303.59L37.26,301.89L37.34,301.84L38.24,303.83L38.31,303.36L39.44,299.88L39.52,301.71L39.59,302.32L39.74,300.74L39.82,297.4L40.34,301.34L40.64,300.71L40.72,302.32L40.87,303.76L40.94,246.18L41.84,303.07L41.92,303.09L42.75,303.51L42.9,303.29L42.97,302.78L43.8,303.32L43.87,303.21L45.23,303.6L45.3,303.52L46.28,303.21L46.35,300.04L46.65,303.1L46.73,302.63L46.8,132.67L47.63,302.32L47.7,302.45L48.98,302.94L49.06,302.36L49.73,303.08L49.96,302.91L50.03,302.82L50.93,303.05L51.01,303L51.84,303.28L51.99,302.95L52.06,302.76L52.44,303.22L52.96,302.95L53.04,302.87L53.79,302.97L53.86,303.15L54.77,302.57L54.84,302.77L54.92,303.23L55.59,303.79L55.67,303.53L55.74,303.43L55.89,303L56.49,303.42L56.57,303.28L58,302.83L58.07,303.23L58.75,303.41L58.82,303.51L58.9,303.45L59.5,303.7L59.65,303.36L59.72,302.51L60.25,303.82L60.4,302.22L60.48,302.55L60.78,301.53L61,303.85L61.08,303.84L61.15,303.83L62.13,299.89L62.2,301.28L62.28,303.08L62.35,301.97L62.65,303.85L62.95,303.78L63.03,303.69L63.18,303.81L63.78,303.75L63.86,303.78L64.08,303.78L64.16,301.6" style="vector-effect: non-scaling-stroke; fill: none; stroke: rgb(255, 165, 0); stroke-opacity: 1; stroke-width: 2px; opacity: 1;"/><path class="js-line" d="M64.46,303.37L64.83,303.8L64.98,303.03L65.21,303.31L65.28,303.52L65.51,301.7L65.58,303.64L65.66,303.62L65.73,303.65L66.19,301.5L66.26,303.56L67.09,303.08L67.16,302.09L67.61,302.52L67.84,302.18L67.91,295.57L68.81,303.19L68.89,303.13L70.39,303.4L70.47,303.28L71.37,302.93L71.44,302.83L73.47,302.71L73.55,299.64L73.85,299.03L74,302.9L74.15,302.53L74.22,278.13L75.05,302.97L75.13,302.98L75.58,303.62L75.65,270.26L75.73,207.55" style="vector-effect: non-scaling-stroke; fill: none; stroke: rgb(255, 165, 0); stroke-opacity: 1; stroke-width: 2px; opacity: 1;"/><path class="js-line" d="M99.02,303.97L101.57,303.38L101.64,303.24L102.32,303.52L102.47,303.38L102.55,303.42L103,303.2L103.3,303.63L103.37,303.71L103.6,303.41L104.12,303.66L104.2,303.66L107.88,303.78L107.95,303.82L108.71,303.07L108.78,302.88L109.23,303.27L109.53,302.91L109.61,302.74L110.66,303.52L110.73,303.44L111.11,303.01L111.41,303.75L111.49,303.64L111.56,303.17L112.31,303.21L112.39,303.39L112.54,303.1L113.06,303.52L113.14,303.66L113.51,302.56L113.89,303.68L113.96,303.78L114.79,303.33L114.87,303.58L115.99,303.44L116.07,303.33L116.22,303.01L116.89,303.59L116.97,303.28L117.72,303.51L117.8,303.46L117.87,303.41L118.77,303.18L118.85,302.81L119.07,270.87" style="vector-effect: non-scaling-stroke; fill: none; stroke: rgb(255, 165, 0); stroke-opacity: 1; stroke-width: 2px; opacity: 1;"/><path class="js-line" d="M162.12,303.04L162.65,302.54L162.8,303.17L162.87,303.44L163.32,303.24L163.55,303.79L163.7,303.69L163.77,303.81L164.6,303.49L164.67,303.12L165.73,303.65L165.8,303.5L166.55,303.57L166.63,303.14L166.93,302.74L167.3,303.49L167.38,303.4L167.53,303.8L167.83,303.54" style="vector-effect: non-scaling-stroke; fill: none; stroke: rgb(255, 165, 0); stroke-opacity: 1; stroke-width: 2px; opacity: 1;"/><path class="js-line" d="M185.18,303.87L189.39,303.48L189.47,303.17L189.62,287.37L190.07,303.86L190.14,303.82L190.22,303.85L190.59,303.66L190.67,273.2L191.34,303.76L191.42,303.71L191.49,301.32L191.57,300.21L191.87,302.89L192.1,302.52L192.17,302.68L193.07,302.75L193.15,302.22L193.22,302.47L193.45,301.68L193.52,300.69L193.6,301.29L193.75,298.6L193.82,296.36L194.5,302.82L194.65,302.68L194.72,302.6L195.03,302.36L195.48,302.68L195.55,302.76L198.48,303.83L198.56,303.83L201.79,303.24L201.86,302.92L202.39,302.91L202.46,302.27L202.61,302.96L202.69,301.7L202.76,275.5L203.21,303.3L203.59,302.97L203.66,303.14L206.82,302.88L206.89,300.13L206.97,287.51L207.5,302.37L207.57,302.19L207.65,302.2L208.55,302.5L208.62,302.2L209.45,302.47L209.52,301.7L209.75,269.17L209.97,295.74L210.05,301.29L210.13,302.6L210.2,295.26L210.28,291.54L211.1,302.13L211.18,302.33L212,301.36L212.08,301.37L213.28,301.57L213.36,301.36L213.51,301.85L213.66,301.17L213.73,299.63L213.88,301.46L214.71,261.22L214.78,262.88L215.16,289.78L215.61,283.53L215.68,288.19L216.29,255.93L216.51,267.99L216.59,269.12L216.66,262.29L217.11,281.45L217.19,281.24L217.26,285.02L217.41,296.28L218.01,291.69L218.09,291.46L218.46,289.46L218.69,292.14L218.76,292.04L218.84,292.25L219.07,298.62L219.44,296.59L219.52,296.1L219.74,295.63L220.12,296.38L220.19,296.23L220.27,296.25L221.62,301.45L221.99,301.29L222.07,301.44L222.82,302.31L222.97,302.04L223.05,302.2L223.42,302.64L223.72,302.46L223.8,297.35L224.62,303.26L224.7,303.31L226.43,302.9L226.5,301.9L226.58,294.41L226.65,302.48L227.25,301.07L227.33,301.08L227.7,299.24L227.85,300.04L227.93,300.78L228.01,301.56L228.31,300.5L228.68,300.92L228.76,301.04L229.06,302.34L229.13,302.23L229.21,299.75L229.28,290.72L229.73,303.43L229.88,303.4L229.96,303.38L230.41,303.74" style="vector-effect: non-scaling-stroke; fill: none; stroke: rgb(255, 165, 0); stroke-opacity: 1; stroke-width: 2px; opacity: 1;"/><path class="js-line" d="M231.01,303.46L231.24,303.62L231.31,303.55" style="vector-effect: non-scaling-stroke; fill: none; stroke: rgb(255, 165, 0); stroke-opacity: 1; stroke-width: 2px; opacity: 1;"/><path class="js-line" d="M231.46,303.67L232.66,303.68L232.74,303.7L233.71,303.92L233.79,304L234.09,301.13L234.54,303.22L234.62,303.41L234.99,302.97L235.29,303.61" style="vector-effect: non-scaling-stroke; fill: none; stroke: rgb(255, 165, 0); stroke-opacity: 1; stroke-width: 2px; opacity: 1;"/><path class="js-line" d="M235.52,303.61L235.67,302.29L236.19,303.14L236.27,303.26L236.94,303.37L237.02,303.46L237.25,303.25L237.32,302.15L237.47,302.85L237.55,301.97L237.62,293.66L238.07,299.89L238.3,297.79L238.37,278.33L238.45,275.09L238.75,290.51L238.82,292.01L239.57,295.2" style="vector-effect: non-scaling-stroke; fill: none; stroke: rgb(255, 165, 0); stroke-opacity: 1; stroke-width: 2px; opacity: 1;"/><path class="js-line" d="M239.8,289.06L239.87,289.45L240.03,286.23L240.1,283.24L240.63,283.94L240.7,279.77L240.78,282.84L240.85,284.2L241.08,285.71L241.15,286.49L241.3,286.39L241.38,288.34L242.43,295.16L242.5,294.84L242.58,294.78L242.8,292.98L242.95,297.79" style="vector-effect: non-scaling-stroke; fill: none; stroke: rgb(255, 165, 0); stroke-opacity: 1; stroke-width: 2px; opacity: 1;"/><path class="js-line" d="M243.11,298.6L243.18,298.84L243.26,297.54L243.33,296.63L243.71,291.03L243.78,280.69L243.93,16L244.46,249.14L244.53,239.4L244.61,244.6L244.76,231.06L244.91,243.87" style="vector-effect: non-scaling-stroke; fill: none; stroke: rgb(255, 165, 0); stroke-opacity: 1; stroke-width: 2px; opacity: 1;"/><path class="js-line" d="M245.06,284.49L245.28,284.64L245.36,283.05L245.51,283.9L245.58,282.51L245.73,263.16L245.81,246.51L245.88,251.39L246.11,249.45" style="vector-effect: non-scaling-stroke; fill: none; stroke: rgb(255, 165, 0); stroke-opacity: 1; stroke-width: 2px; opacity: 1;"/><path class="js-line" d="M246.34,284.63L246.41,285.75" style="vector-effect: non-scaling-stroke; fill: none; stroke: rgb(255, 165, 0); stroke-opacity: 1; stroke-width: 2px; opacity: 1;"/><path class="js-line" d="M246.71,295.05L246.94,297.23L247.09,288.01L247.46,293.14L247.54,294.11L248.06,287.54L248.14,290.67L248.21,294.46L248.51,291.91L248.59,290.93L249.94,302.48L250.02,302.31L251.14,303.71L251.22,303L252.05,298.45L252.12,302.09L252.8,302.08L252.87,302L252.95,301.74L253.32,301.93L253.47,301.53L253.55,301.89L253.62,302.18L254.07,302.62L254.15,273.56L255.05,302.89L255.13,302.93L255.8,302.88L255.88,187.5L256.7,302.52L256.78,302.42L257.45,299.44L257.53,301.31L257.6,301.79L259.03,302.01L259.11,302.24L259.56,302.55L259.71,301.67L259.78,301.99L259.86,302.36L260.31,302.35L260.38,302.17L260.46,301.8L261.06,302.39L261.21,302.31L261.29,302.02L261.36,301.71L261.44,292.85L261.74,302.04L262.26,301.42L262.34,301.54L263.54,300.84L263.61,300.74L263.91,301.11L264.07,300.94L264.14,298.14L264.22,291.77L264.82,300.04L264.89,300.15L265.27,300.4L265.57,299.75L265.64,299.25L265.94,299.33L266.24,298.53L266.39,298.62L266.47,298.85L266.69,294.2L266.92,299.28L266.99,299.81L267.15,298.91L267.3,299.09L267.37,196.78L267.45,178.71L267.52,266.31L267.6,69.58L268.05,285" style="vector-effect: non-scaling-stroke; fill: none; stroke: rgb(255, 165, 0); stroke-opacity: 1; stroke-width: 2px; opacity: 1;"/></g><g class="points"/><g class="text"/></g><g class="trace scatter trace42ba33" style="stroke-miterlimit: 2; opacity: 1;"><g class="fills"/><g class="errorbars"/><g class="lines"><path class="js-line" d="M0,304L7.81,304L7.89,291.7L8.71,304L8.79,304L12.02,303.81L12.1,302.99L12.4,303.99L12.77,302.57L12.85,302.73L13.3,301.85L13.6,302.6L13.67,302.64L14.8,302.15L14.87,302.08L15.25,301.34L15.4,301.99L15.48,302.89L15.55,303.15L15.93,301.72L16,302.02L16.08,302L16.68,301.71L16.75,300.93L17.05,302.29L17.43,301.27L17.5,300.67L17.8,300.22L17.95,301.19L18.03,301.76L18.48,300.31L18.78,301.43L18.86,301.83L19.01,301.6L19.23,301.82L19.31,302.59L19.53,302.71L19.98,300.72L20.21,300.8L20.28,301.06L20.51,301.4L20.66,300.45L20.81,301.29L20.88,301.78L21.11,302.35L21.49,301.34L21.56,300.94L21.79,298.94L22.09,300.23L22.16,290.89L22.31,299.47L22.69,277.79L22.84,293.55L22.91,255.48L23.81,294.21L23.89,294.4L24.27,293.66L24.34,289.41L24.49,289.69L24.64,287.66L24.72,273.48L25.02,207.83L25.39,263.21L25.47,265.45L26.82,285.4L26.89,281.02L27.12,270.99L27.8,289.55L27.87,289.65L28.32,290.13L28.4,290.73L28.47,300.5L29.15,293.74L29.22,295.03L29.6,298.94L29.67,303.28L29.75,297.86L30.05,304L30.35,304L30.43,304L33.06,304L33.13,300.59L33.96,295.43L34.03,296L34.11,295.44L34.18,296.36L34.26,303.94L34.41,304L34.48,300.12L34.56,299.91L34.63,304L35.31,304L35.38,302.45L35.83,303.21L35.91,301.5L36.06,302.93L36.14,304L36.36,226.39L36.89,301.9L36.96,301.34L37.26,302.15L38.24,294.78L38.31,293.1L38.39,292.94L38.46,294.02L38.54,293.07L38.61,291.44L39.74,298.58L39.82,272.81L40.42,293.71L40.64,293.26L40.72,293.34L40.79,293.68L40.94,292.93L41.02,106.46L41.84,297.4L41.92,297.87L42.82,302.79L42.9,301.71L42.97,299.06L43.5,277.03L43.72,280.16L43.8,282.14L44.32,280.79L45.15,287.36L45.23,287.37L45.45,287.59L45.75,286.76L45.83,286.2L45.98,285.42L46.05,286.63L46.2,286.51L46.28,287.38L46.5,290.92L46.8,230.54L46.88,77.33L47.55,272.85L47.7,271.93L47.78,272.74L49.28,284.6L49.51,284.21L49.58,283.54L49.66,284.64L50.18,282.09L50.26,280.58L50.71,285.42L51.09,284.36L51.16,285.15L51.99,288.59L52.06,291.1L52.81,295.44L53.04,294.27L53.11,293.54L53.86,287.88L53.94,292.17L54.02,297.2L55.14,278.27L55.22,280.04L55.29,284.94L55.52,287.11L56.04,272.49L56.42,274.03L56.49,273.68L56.64,274.46L56.87,273.42L56.94,280.6L57.92,304L58,304L61.38,304L61.45,301.92L62.28,304L62.35,304L64.38,304L64.46,298.98L64.53,298.73L64.61,300.34L64.68,302.84L64.76,303L64.83,302.57L64.98,302.86L65.06,295.88L66.11,303.2L66.19,301.33L66.64,304L66.71,300.8L66.86,300.9L66.94,301.04L67.16,302.89L67.24,299.39L67.46,299.54L67.54,298.64L67.69,299.29L67.84,296.76L67.91,287.59L67.99,267.76L68.51,288.64L68.59,288.61L68.66,289.37L68.74,289.95L69.19,288.18L69.42,289.58L69.49,288.48L69.72,288.37L70.39,290.67L70.47,290.78L70.62,290.67L70.69,292.43L70.92,294.27L71.22,291.76L71.29,292.11L71.37,291.27L71.44,291.5L71.67,290.34L71.74,289.8L72.05,285.86L72.5,287.08L72.57,287.41L72.87,287.79L73.55,279.33L73.62,273.2L73.77,287.38L73.85,181.78L74.07,272.59L74.3,156.13L74.6,257.06L74.67,257.42L74.97,255.29L75.05,257.47L75.13,258.33L75.2,258.53L75.43,257.15L75.5,255.94L75.58,256.88L75.65,275.72L75.73,265.61L75.8,286.68L76.25,266.68L76.33,286.25L76.4,285.25L76.63,288.15L76.7,191.57L76.78,123.87L77.3,272.49L77.38,274.53L78.06,142.76L78.13,221.34L78.21,232.94L78.28,236.16L78.36,198.36L78.66,267.28L79.18,265.93L79.26,277.65L79.33,274.57L79.78,285L79.86,280.45L79.93,241.29L80.68,269.31L80.76,264.68L80.83,267.35L82.11,282.17L82.19,282.76L83.76,296.87L83.84,297.8L84.29,303.09L84.37,293.46L84.44,276.07L85.12,276.41L85.19,280.4L85.27,277.73L85.34,277.77L85.42,299.57L85.49,303.49L85.57,278.38L85.79,278.61L85.87,279.21L85.94,279.5L86.09,277.87L86.17,278.25L86.24,304L86.99,277.09L87.3,277.34L87.37,277.28L87.75,278.58L87.82,277.2L87.9,276.67L87.97,277.53L88.05,277.01L88.12,304L88.2,278.45L88.87,304L88.95,304L89.1,282.71L89.7,304L89.77,304L92.25,304L92.33,294.66L92.4,241.47L93.08,283.2L93.16,286.24L93.91,298.88L94.13,297.19L94.21,297.01L94.66,295.21L94.73,295.29L94.81,285.34L95.03,165.59L95.48,218.72L95.56,236.17L95.71,227.95L96.39,251.92L96.46,252.01L98.34,268.93L98.41,269.45L100.67,280.59L100.82,280.43L100.89,280.2L101.19,280.31L101.42,278.5L101.49,280.3L101.57,280.65L102.17,276.93L102.25,276.23L102.62,276.37L103.37,268.99L103.6,269.35L103.67,282.86L103.82,290L104.5,288.14L104.57,280.08L105.4,274.88L105.48,274.41L105.93,270.06L106,273.13L106.08,286.55L106.9,303.97L107.28,303.27L107.35,303.29L107.5,302L107.65,302.94L107.73,300.1L108.63,304L108.71,304L118.92,304L119,282.94L119.07,296.6L119.15,262.44L119.75,287.37L119.82,285.88L121.03,304L121.1,295.61L121.33,304L121.93,299.4L122,299.25L122.75,287.77L123.06,290.55L123.13,291.41L123.58,290.6L123.88,290.93L123.96,291.62L124.78,292.3L124.86,291.26L124.93,292.23L125.31,289.1L125.38,289.46L125.46,287.07L125.53,285.43L126.14,288.2L126.21,287.71L126.96,291.52L127.04,291L127.11,208.54L127.94,286.2L128.01,287.08L128.61,292.24L128.84,290.11L128.91,289.46L129.14,289.31L129.22,286.04L129.29,285.4L129.67,287.78L129.74,287.58L129.82,288.36L129.97,289.86L130.12,287.37L130.34,288.25L130.42,299.56L130.57,298.56L130.87,300.19L131.24,298.89L131.32,299.44L131.47,299.68L131.54,298.01L131.62,295.33L132.6,286.36L132.67,296.89L133.5,302.59L133.57,302.5L133.8,303.09L133.87,301.35L133.95,296.48L134.02,303.5L134.7,302.91L134.77,302.8L135.6,304L135.68,302.28L136.5,286L136.65,288.2L136.73,296.96L137.55,303.05L137.63,302.87L139.58,304L139.66,304L144.09,304L144.17,261.12L144.32,303.18L144.99,297.58L145.07,300.09L146.04,304L146.12,304L146.72,304L146.79,297.12L146.87,295.7L147.17,303.58L147.25,303.6L148.07,304L148.15,304L150.4,304L150.48,302.25L150.7,302.13L150.78,303.21L150.85,303.09L150.93,303.22L151.68,302.65L151.75,303L152.58,301.71L152.65,301.61L153.18,298.64L153.48,301.05L153.56,301.63L153.78,301.78L154.38,298.19L154.46,297.25L155.36,293.53L155.43,300.89L155.58,301.26L155.96,299.78L156.04,301.33L156.11,302.36L156.71,301.23L156.86,301.67L156.94,302.27L157.01,302.46L157.24,302L157.31,300.91L157.46,299.28L157.54,302L158.44,301.36L158.51,300.68L158.74,300.14L159.27,301.29L159.34,299.59L159.42,292.02L159.87,303.08L160.09,293.93L160.17,295.92L161.14,304L161.22,303.98L161.37,303.89L161.44,292.8L161.59,290.89L162.8,304L162.87,304L163.02,303.68L163.62,304L163.7,304L170.46,304L170.53,274.87L171.36,304L171.44,304L175.79,303.41L175.87,302.94L176.24,301.71L176.62,302.02L176.69,302.47L176.92,303.19L177.15,301.34L177.22,301.22L177.3,301.06L177.45,301.94L177.82,301.65L177.9,301.9L178.05,301.58L178.12,302.39L178.57,301.49L178.65,301.43L179.1,301.52L179.17,301.12L179.25,300.9L179.55,301.25L179.7,300.96L179.77,299.94L179.92,295.87L180.45,301.67L180.53,302.11L180.68,301.93L181.2,303.36L181.35,302.99L181.43,302.51L182.4,298.03L182.48,300.2L182.55,300.9L182.63,300.55L182.93,302.15L183.01,302.36L183.16,302.66L183.38,301.85L183.46,301.88L183.53,301.24L184.43,304L184.51,304L185.56,303.26L185.63,302.85L186.01,300.86L186.61,301.27L186.69,302.48L187.44,302.9L187.51,299.7L188.41,303.91L188.49,304L189.92,304L189.99,297.95L190.59,304L190.67,303.85L190.74,222.36L191.27,303.72L191.57,301.93L191.64,301.22L192.1,299.64L192.32,300.76L192.4,301.51L192.62,304L192.85,303.3L192.92,301.29L193.82,304L193.9,304L200.88,303.39L200.96,303.2L202.46,304L202.54,302.74L202.61,302.22L202.69,278.63L202.84,248.52L203.51,304L203.59,304L204.42,298.72L204.49,299.05L204.57,298.75L204.64,298.59L204.72,299.53L204.79,298.78L204.87,297.26L205.84,289.52L205.92,279.29L206.74,285.84L206.82,286.52L206.97,233.36L207.42,270.44L207.5,271.57L207.87,275.09L207.95,267.13L208.02,263.46L208.47,274.37L208.55,275.25L208.7,274.21L209.52,283.71L209.6,251.21L209.67,238.84L210.2,266.89L210.28,267.62L211.93,281.65L212,278.1L212.75,284.56L213.06,283.53L213.13,283.4L213.36,280.17L213.51,288.2L213.73,287.2L213.81,278.61L213.96,287.89L214.03,276.26L214.11,299.84L214.48,301.75L214.56,295.6L214.71,300.66L214.78,262.89L215.53,297.67L215.61,296.19L215.68,297.66L215.83,278.99L216.44,289.2L216.51,290.47L216.81,281.43L217.34,299.26L217.49,296.65L217.56,296.58L217.86,291.24L218.16,296.75L218.24,301.77L218.99,304L219.07,302.8L219.89,304L219.97,304L224.92,304L225,299.57L225.83,304L225.9,304L229.21,304L229.28,302.55L229.36,290.08L229.73,304L229.96,304L230.03,304L232.14,303.53L232.21,303.01L232.44,302.27L232.81,302.89L232.89,303.52L234.02,297.71L234.09,300.03L234.99,304L235.07,304L237.47,304L237.55,300.93L237.7,297.32L237.92,304L238.15,304L238.22,304L238.37,304L238.45,302.86L238.52,302.44L238.75,304L238.97,304L239.05,304L239.72,304L239.8,303.11L240.48,284.78L240.55,286.52L240.63,304L241.45,304L241.53,304L242.58,304L242.65,302.03L242.8,294.93L243.48,296.73L243.56,296.66L243.78,296.76L243.86,296.12L243.93,253.94L244.23,298.84L244.68,291.57L244.76,282.98L244.83,282.1L245.21,286.03L245.28,289.33L245.81,304L246.11,297.7L246.19,293.47L247.09,304L247.16,303.36L247.99,304L248.06,304L248.36,304L248.44,299.61L248.66,298.11L248.81,304L248.89,302.9L248.96,304L254.15,304L254.22,302.72L255.05,304L255.13,303.84L255.88,304L255.95,258.11L256.78,302.99L256.85,302.43L256.93,302.58L257.08,301.28L257.15,299.94L257.38,298.97L257.45,300.03L257.53,303.66L257.6,297.77L258.28,299L258.36,298.63L258.66,299.97L259.03,298.47L259.11,297.58L259.18,297.73L259.26,297.1L259.33,297.21L259.41,296.41L259.78,296.05L260.46,298.82L260.53,298.8L260.61,298.01L261.44,296.6L261.51,298.74L262.34,299.94L262.41,299.99L262.71,299.8L262.79,301.2L262.86,300.65L262.94,299.96L263.24,298.02L263.84,298.32L263.91,298.15L264.22,295.49L264.29,297.68L264.82,302.86L265.04,299.22L265.12,298.06L265.42,290.17L265.57,301.74L265.72,301.25L265.79,300.71L265.87,301.82L266.24,297.77L266.32,297.44L266.69,292.98L266.77,297.88L267.15,295.63L267.22,300.64L267.37,300.32L267.45,166.01L267.67,130.5L268.05,299.66L268.27,296.25L268.35,296.74L268.65,299.24L268.72,293.32L269.7,304L269.77,304L270.08,303.37L270.15,302.42L270.75,295.36L270.9,295.58L270.98,274.24L271.58,285.68L271.73,281.3L271.8,282.94L273.46,299.76L273.53,292.89L273.98,301.9L274.43,301.26L274.51,301.91L275.11,303.39L275.26,302.15L275.33,301.44L275.41,301.04L275.56,303.83L275.63,303.65L275.71,304L284.35,304L284.42,302.53L284.57,304L284.65,297.02L284.72,296L284.95,303.37L285.03,304L285.18,300.74L285.25,277.63L285.93,304L286,299L286.08,230.12L286.45,298.31L286.9,293.82L286.98,293.8L287.5,296.71L287.73,295.98L287.8,294.58L288.93,288.93L289.31,289.52L289.38,289.77L289.68,289.87L290.21,288.4L290.28,288.28L290.81,286.04L291.04,287.04L291.11,287.14L291.19,287.47L291.41,285.47L291.71,286.47L291.79,286.38L291.94,286.99L293.29,282.21L293.44,283.5L293.51,284.05L294.49,280.34L294.79,281.7L294.87,282.1L295.02,283.12L295.24,279.73L295.32,277.22L295.47,274.67L295.54,281.78L295.62,217L295.84,301.36L296.44,281.18L296.52,284.04L296.59,286.12L296.67,265.37L297.42,295.17L297.57,284.58L297.65,281.26L297.72,282.03L297.8,295.4L298.17,295.02L298.25,296.74L298.32,297.85L298.47,301.06L298.55,296.89L298.62,286.34L299.45,296.04L299.52,297.32L299.67,297.26L299.75,297.65L299.82,298.26L300.2,297.14L301.18,304L301.25,301.99L302.08,304L302.15,304L309.97,304L310.04,272.73L310.87,304L310.94,304L311.69,304L311.77,301.03L311.99,304L312.07,297.88L312.37,301.2L312.45,284.63L313.12,302.99L313.27,301.49L313.35,301.82L313.72,302.53L314.1,301.3L314.17,301.41L314.25,301.58L314.47,304L314.55,300.9L314.62,301.52L315.15,299.84L315.23,298.95L315.3,299.09L315.38,298.27L315.53,298.49L315.6,297.79L315.98,300.16L316.43,299.31L316.5,298.97L316.95,298.65L317.4,299.7L317.48,299.62L317.93,299.33L318.01,300.85L318.08,301.75L318.38,300.66L318.46,294.87L319.28,303.92L319.36,303.99L320.63,297.12L320.71,294.07L321.09,286.73L321.24,288.93L321.31,300.54L321.69,300.74L321.76,298.8L321.84,241.82L322.29,302.07L322.51,293.71L322.59,295.78L323.56,288.38L323.64,289.35L323.86,294.85L324.39,292.48L324.47,292.89L325.07,295.44L325.29,293.98L325.37,293.64L325.44,293.83L325.59,293.28L325.67,297.06L325.97,246L326.12,278.06L326.19,278.49L326.27,278.06L326.34,263.89L327.1,283.37L327.17,234.04L328,273.77L328.07,274.8L329.42,288.03L329.57,285.37L329.65,282.96L329.72,289.81L330.4,288.01L330.48,287.84L332.28,304L332.35,304L336.56,304L336.64,276.12L337.16,263.7L337.24,304L341.07,304L341.14,282.79L341.22,273.96L341.67,303.25L341.74,302.22L341.89,303.91L342.35,299.82L342.42,299.81L343.62,295.93L343.7,296.31L344.37,295.68L344.52,296.15L344.6,296.56L344.9,298.5L345.5,297.99L345.58,297.81L345.65,298.54L345.8,294.79L346.03,298.32L346.1,291.99L346.18,289.96L346.48,300.37L346.55,300.42L346.7,297.43L346.78,291.32L346.85,289.78L347.08,300.59L347.23,296.57L347.3,301.63L347.53,300.34L347.68,301.21L347.75,302.22L348.06,301.34L348.28,302.32L348.43,301.93L348.51,301.21L349.26,295.63L349.41,295.65L349.48,295.1L349.86,288.33L350.38,289.95L350.46,289.84L350.53,290.7L350.91,288.47L351.14,289.14L351.21,288.9L351.74,298.41L352.19,295.39L352.26,293.88L353.24,304L353.31,304L354.89,304L354.97,303.19L355.34,304L355.42,295.84L356.24,304L356.32,304L364.73,304L364.81,236.64L365.18,304L365.63,303.84L365.71,304L367.59,304L367.66,302.02L368.34,304L368.41,302.03L368.49,303.39L369.17,304L369.24,303.26L369.32,302.02L369.47,203.19L370.07,291.11L370.14,292.21L370.52,293.86L370.59,292.97L370.67,284.35L370.97,290.5L371.49,289.88L371.57,289.14L372.17,287.62L372.4,288.33L372.47,288.41L372.85,288.96L373,288.16L373.07,287.22L373.15,286.86L373.22,287.98L373.3,283.51L374.12,290.46L374.2,289.56L374.27,288.74L374.5,288.71L375.25,293.15L375.33,291.16L375.4,291.62L375.7,289.33L375.78,288.46L376,285.41L376.6,287.43L376.68,286.91L376.9,287.51L377.28,286.08L377.35,286.35L377.43,285.11L377.8,288.78L377.88,261.62L378.03,290.64L378.63,285.8L378.71,287.88L379.23,288.72L379.53,285.14L379.61,284.37L379.76,283.49L379.83,285.44L379.98,287.44L380.06,289.07L380.13,288.87L380.36,290.14L380.43,289.98L380.51,290.74L381.56,304L381.64,304L382.24,304L382.31,302.19L383.21,304L383.29,304L383.74,304L383.81,301.9L384.64,304L384.72,304L394.78,304L394.86,236.3L395.68,304L395.76,303.95L397.11,300.23L397.19,300.42L397.86,299.93L397.94,299.42L398.54,301.14L398.76,300.46L398.84,300.21L399.07,299.72L399.52,300.57L399.59,301.25L399.74,300.9L400.04,302.25L400.12,302.2L400.72,300.17L401.09,300.76L401.17,300.98L401.32,300.55L401.62,301.32L401.69,301.84L402.07,300.65L402.22,301.65L402.3,302.21L402.52,302.15L402.6,299.85L402.75,302.67L403.42,301.74L403.5,301.52L403.57,301.3L403.65,296.8L404.77,302.26L404.85,301.86L405.23,304L405.53,298.72L405.6,302.66L406.05,297.81L406.13,304L406.28,303.21L406.35,304L406.43,303.85L406.5,257.61L407.33,303.68L407.4,303.77L407.7,302.48L407.78,299.65L408.53,303.53L408.61,303.51L408.68,303.64L408.91,304L408.98,303.56L409.06,301.93L409.13,301.42L409.28,304L409.51,304L409.58,304L420.78,304L420.85,297.91L421.75,304L421.83,304L423.26,303.76L423.33,303.12L423.41,302.65L423.71,303.62L423.78,292.65L423.93,284.79L424.08,299.59L424.16,282.56L424.83,304L424.98,302.28L425.06,301.92L425.96,289.76L426.41,292.43L426.49,292.46L427.46,296.7L427.54,296.79L427.99,295.8L428.06,295.4L428.59,292.58L428.74,292.71L428.81,276.26L429.64,291.75L429.72,290.06L430.02,292.95L430.09,252.3L430.84,287.45L430.99,284.07L431.07,285.69L431.37,289.2L431.44,282.06L431.52,275.46L432.35,289.37L432.42,289.59L432.87,291.21L432.95,290.33L433.02,234.53L433.1,223.75L433.4,284.1L433.47,285.84L433.55,286.61L433.62,276.88L434.15,283.73L434.22,283.13L434.3,267.92L435.2,284.09L435.28,284.13L435.43,296.86L436.1,293.24L436.18,294.44L436.48,295.47L436.55,284.73L436.63,270.58L437.15,289.48L437.23,297.35L437.38,296.8L437.68,298.48L437.75,298.86L439.26,304L439.33,304L448.65,304L448.72,298.39L449.62,304L449.7,304L450.9,303.4L450.98,302.91L451.35,301.47L451.73,302.83L451.8,302.89L452.55,300.88L452.7,301.46L452.78,301.91L453.08,301.65L453.53,302.37L453.61,302.1L453.68,301.41L454.51,303.07L454.58,302.44L454.66,301.91L454.81,299.52L455.33,301.18L455.41,301.74L455.93,303.97L456.09,303.53L456.16,268.96L456.54,300.93L456.84,296.63L456.91,263.74L457.36,295.95L457.74,293.57L457.81,293.67L458.56,291.62L458.64,265.36L459.54,283.22L459.62,283.7L459.92,285.24L460.07,282.5L460.14,277.63L460.29,281.4L460.37,281.39L460.44,162.97L461.27,279.3L461.34,280.31L461.49,281.69L461.57,266.69L461.64,268.98L461.72,257.36L461.79,112.93L462.62,266.24L462.7,267.89L463.07,274.16L463.15,267.76L463.22,269.97L463.3,261.98L463.6,273.84L463.9,249.93L464.05,272.14L464.12,243.74L464.57,272.72L464.95,270.06L465.03,271.68L465.33,264.05L465.55,276.8L465.85,275.66L465.93,266.47L466,257.37L466.45,283.6L466.53,283.3L466.6,283.03L466.98,282.05L467.2,283.08L467.28,283.82L467.65,297.06L467.73,288.42L469.23,304L469.31,304L475.69,304L475.77,245.03L476.59,304L476.67,304L476.89,301.57L476.97,302.8L477.05,234.66L477.35,301.51L477.87,296.46L477.95,297.81L478.1,300.04L478.17,186.76L478.32,287.25L479,280.76L479.07,283.72L479.9,290.12L480.05,288.36L480.13,287.43L480.8,282.05L481.25,282.65L481.33,283.31L482.98,286.25L483.06,286.24L483.21,286L483.66,288.09L483.96,287.94L484.03,289.35L484.86,286.7L484.93,287.7L485.31,287.11L485.38,286.01L485.61,287.78L485.76,285.14L485.83,283.47L486.29,275.2L486.51,278.33L486.59,285.8L487.34,270.23L487.41,270.41L487.49,270.11L487.71,272.43L487.86,271.25L487.94,277.22L488.69,289.98L488.76,285.26L488.84,289.22L489.82,303.67L489.89,304L490.87,304L490.94,302.82L491.77,304L491.84,304L491.99,303.24L492.6,304L492.67,304L503.71,304L503.79,217.26L504.62,304L504.69,304L505.07,303.36L505.14,303.07L505.22,303.44L505.44,301.26L505.52,301.19L506.12,297.35L506.34,299.87L506.42,300.24L506.79,302.6L506.94,302.29L507.02,224.66L507.77,301.71L507.92,299.84L508,300.21L508.82,292.06L509.12,292.47L509.2,292.51L509.57,292.44L509.65,291.53L509.8,291.33L509.87,289.54L510.48,292.04L510.55,291.48L510.63,164.59L511.68,297.88L511.75,297.27L511.83,297.23L511.9,296.98L512.13,298.55L512.2,300.48L512.28,301L512.73,299.28L512.8,298.16L512.95,297.59L513.26,298.16L513.33,297.25L513.56,296.48L513.63,297.29L513.71,295.08L514.53,290.32L514.61,290.5L514.68,291.4L514.76,244.66L515.43,279.56L515.51,279.11L515.96,274.47L516.64,285.84L516.71,286.04L516.86,283.55L517.16,288.27L517.24,286.92L517.31,244.43L517.46,193.98L518.14,272.76L518.21,273.45L518.81,286.94L518.89,254.55L519.12,284.53L519.34,244.3L519.64,271.3L519.72,273.39L520.32,288.58L520.77,283.64L520.84,284.23L520.99,282.93L521.89,292.68L521.97,303.83L522.05,301.6L522.72,301.86L522.8,302L523.7,304L523.77,304L532.11,304L532.19,303.17L532.26,302.74L532.41,304L532.79,304L532.86,304L533.91,303.94L533.99,303.09L534.07,301.81L534.22,304L534.67,304L534.74,304L535.49,304L535.57,302.24L535.64,301.8L535.87,304L536.02,304L536.09,304L537.15,303.47L537.22,303L537.3,301.55L537.52,303.12L537.97,302.7L538.05,302.65L538.2,302.1L538.65,303.11L538.72,303.33L539.4,302.48L539.47,301.49L539.62,302.55L539.85,301.83L539.92,301.01L540,301.48" style="vector-effect: non-scaling-stroke; fill: none; stroke: rgb(31, 119, 180); stroke-opacity: 1; stroke-width: 2px; opacity: 1;"/></g><g class="points"/><g class="text"/></g></g></g><g class="overplot"/><path class="xlines-above crisp" d="M0,0" style="fill: none;"/><path class="ylines-above crisp" d="M0,0" style="fill: none;"/><g class="overlines-above"/><g class="xaxislayer-above"><g class="xtick"><text text-anchor="middle" x="0" y="433" transform="translate(177.51,0)" style="font-family: 'Open Sans', verdana, arial, sans-serif; font-size: 12px; fill: rgb(42, 63, 95); fill-opacity: 1; white-space: pre; opacity: 1;">2005</text></g><g class="xtick"><text text-anchor="middle" x="0" y="433" style="font-family: 'Open Sans', verdana, arial, sans-serif; font-size: 12px; fill: rgb(42, 63, 95); fill-opacity: 1; white-space: pre; opacity: 1;" transform="translate(314.69,0)">2010</text></g><g class="xtick"><text text-anchor="middle" x="0" y="433" style="font-family: 'Open Sans', verdana, arial, sans-serif; font-size: 12px; fill: rgb(42, 63, 95); fill-opacity: 1; white-space: pre; opacity: 1;" transform="translate(451.87,0)">2015</text></g><g class="xtick"><text text-anchor="middle" x="0" y="433" style="font-family: 'Open Sans', verdana, arial, sans-serif; font-size: 12px; fill: rgb(42, 63, 95); fill-opacity: 1; white-space: pre; opacity: 1;" transform="translate(589.05,0)">2020</text></g></g><g class="yaxislayer-above"><g class="ytick"><text text-anchor="end" x="79" y="4.199999999999999" transform="translate(0,404)" style="font-family: 'Open Sans', verdana, arial, sans-serif; font-size: 12px; fill: rgb(42, 63, 95); fill-opacity: 1; white-space: pre; opacity: 1;">0</text></g><g class="ytick"><text text-anchor="end" x="79" y="4.199999999999999" style="font-family: 'Open Sans', verdana, arial, sans-serif; font-size: 12px; fill: rgb(42, 63, 95); fill-opacity: 1; white-space: pre; opacity: 1;" transform="translate(0,360.52)">2</text></g><g class="ytick"><text text-anchor="end" x="79" y="4.199999999999999" style="font-family: 'Open Sans', verdana, arial, sans-serif; font-size: 12px; fill: rgb(42, 63, 95); fill-opacity: 1; white-space: pre; opacity: 1;" transform="translate(0,317.03999999999996)">4</text></g><g class="ytick"><text text-anchor="end" x="79" y="4.199999999999999" style="font-family: 'Open Sans', verdana, arial, sans-serif; font-size: 12px; fill: rgb(42, 63, 95); fill-opacity: 1; white-space: pre; opacity: 1;" transform="translate(0,273.56)">6</text></g><g class="ytick"><text text-anchor="end" x="79" y="4.199999999999999" style="font-family: 'Open Sans', verdana, arial, sans-serif; font-size: 12px; fill: rgb(42, 63, 95); fill-opacity: 1; white-space: pre; opacity: 1;" transform="translate(0,230.08)">8</text></g><g class="ytick"><text text-anchor="end" x="79" y="4.199999999999999" style="font-family: 'Open Sans', verdana, arial, sans-serif; font-size: 12px; fill: rgb(42, 63, 95); fill-opacity: 1; white-space: pre; opacity: 1;" transform="translate(0,186.59)">10</text></g><g class="ytick"><text text-anchor="end" x="79" y="4.199999999999999" style="font-family: 'Open Sans', verdana, arial, sans-serif; font-size: 12px; fill: rgb(42, 63, 95); fill-opacity: 1; white-space: pre; opacity: 1;" transform="translate(0,143.11)">12</text></g></g><g class="overaxes-above"/></g></g><g class="polarlayer"/><g class="smithlayer"/><g class="ternarylayer"/><g class="geolayer"/><g class="funnelarealayer"/><g class="pielayer"/><g class="iciclelayer"/><g class="treemaplayer"/><g class="sunburstlayer"/><g class="glimages"/><defs id="topdefs-eb7258"><g class="clips"/></defs><g class="layer-above"><g class="imagelayer"/><g class="shapelayer"/></g><g class="infolayer"><g class="g-gtitle"/><g class="g-xtitle"/><g class="g-ytitle"/></g></svg>