<svg class="main-svg" xmlns="http://www.w3.org/2000/svg" xmlns:xlink="http://www.w3.org/1999/xlink" width="700" height="500" style="" viewBox="0 0 700 500"><rect x="0" y="0" width="700" height="500" style="fill: rgb(255, 255, 255); fill-opacity: 1;"/><defs id="defs-3a7a16"><g class="clips"><clipPath id="clip3a7a16xyplot" class="plotclip"><rect width="540" height="320"/></clipPath><clipPath class="axesclip" id="clip3a7a16x"><rect x="80" y="0" width="540" height="500"/></clipPath><clipPath class="axesclip" id="clip3a7a16y"><rect x="0" y="100" width="700" height="320"/></clipPath><clipPath class="axesclip" id="clip3a7a16xy"><rect x="80" y="100" width="540" height="320"/></clipPath></g><g class="gradients"/><g class="patterns"/></defs><g class="bglayer"><rect class="bg" x="80" y="100" width="540" height="320" style="fill: rgb(229, 236, 246); fill-opacity: 1; stroke-width: 0;"/></g><g class="layer-below"><g class="imagelayer"/><g class="shapelayer"/></g><g class="cartesianlayer"><g class="subplot xy"><g class="layer-subplot"><g class="shapelayer"/><g class="imagelayer"/></g><g class="minor-gridlayer"><g class="x"/><g class="y"/></g><g class="gridlayer"><g class="x"><path class="xgrid crisp" transform="translate(173.16,0)" d="M0,100v320" style="stroke: rgb(255, 255, 255); stroke-opacity: 1; stroke-width: 1px;"/><path class="xgrid crisp" transform="translate(277.25,0)" d="M0,100v320" style="stroke: rgb(255, 255, 255); stroke-opacity: 1; stroke-width: 1px;"/><path class="xgrid crisp" transform="translate(383.07,0)" d="M0,100v320" style="stroke: rgb(255, 255, 255); stroke-opacity: 1; stroke-width: 1px;"/><path class="xgrid crisp" transform="translate(487.73,0)" d="M0,100v320" style="stroke: rgb(255, 255, 255); stroke-opacity: 1; stroke-width: 1px;"/><path class="xgrid crisp" transform="translate(593.55,0)" d="M0,100v320" style="stroke: rgb(255, 255, 255); stroke-opacity: 1; stroke-width: 1px;"/></g><g class="y"><path class="ygrid crisp" transform="translate(0,349.99)" d="M80,0h540" style="stroke: rgb(255, 255, 255); stroke-opacity: 1; stroke-width: 1px;"/><path class="ygrid crisp" transform="translate(0,295.98)" d="M80,0h540" style="stroke: rgb(255, 255, 255); stroke-opacity: 1; stroke-width: 1px;"/><path class="ygrid crisp" transform="translate(0,241.98)" d="M80,0h540" style="stroke: rgb(255, 255, 255); stroke-opacity: 1; stroke-width: 1px;"/><path class="ygrid crisp" transform="translate(0,187.97)" d="M80,0h540" style="stroke: rgb(255, 255, 255); stroke-opacity: 1; stroke-width: 1px;"/><path class="ygrid crisp" transform="translate(0,133.96)" d="M80,0h540" style="stroke: rgb(255, 255, 255); stroke-opacity: 1; stroke-width: 1px;"/></g></g><g class="zerolinelayer"><path class="yzl zl crisp" transform="translate(0,404)" d="M80,0h540" style="stroke: rgb(255, 255, 255); stroke-opacity: 1; stroke-width: 2px;"/></g><path class="xlines-below"/><path class="ylines-below"/><g class="overlines-below"/><g class="xaxislayer-below"/><g class="yaxislayer-below"/><g class="overaxes-below"/><g class="plot" transform="translate(80,100)" clip-path="url(#clip3a7a16xyplot)"><g class="scatterlayer mlayer"><g class="trace scatter tracecd3a43" style="stroke-miterlimit: 2; opacity: 1;"><g class="fills"/><g class="errorbars"/><g class="lines"><path class="js-line" d="M93.16,256.47L97.19,260.33L97.76,260.78L98.91,260.67L99.49,261.02L102.36,262.96L102.94,262.9L106.96,264.48L107.54,264.44L109.27,265.74L109.84,266.22L110.42,266.91L110.99,261.71L112.72,266.9L113.29,266.95L114.44,267.12L115.02,268.13L115.59,268.43L116.17,269.7L117.89,270.78L118.47,271L119.04,271.34L119.62,270.56L122.49,272.24L123.07,272.21L124.22,271.23L124.79,271.9L126.52,271.46L127.09,286.75L127.67,286.11L128.24,281.67L129.39,287L129.97,286.55L132.27,287.19L132.84,285.26L133.42,280.61L133.99,281.59L134.57,286.86L135.14,287.19L135.72,285.97L136.29,281.26L136.87,286.16L138.02,287.19L138.59,288.3L139.17,288.64L139.74,287.42L140.32,285.74L140.89,288.84L145.5,288.83L146.07,288.6L147.22,288.24L147.8,287.8L148.95,288.64L149.52,288.52L152.97,288.72L153.55,286.5L154.12,285.85L154.7,283.95L156.42,281.68L157,283.15L157.57,285.54L158.15,284.6L159.3,275.09L159.87,274.61L161.02,274.6L161.6,275.32L162.75,276.09L163.32,272.55L164.47,273.59L165.05,277.2L165.62,278.17L166.2,277.58L166.77,277.6L167.35,279.58L167.92,278.61L168.5,280.05L169.65,283.11L170.22,282.33L171.95,287.51L172.52,287.84L173.67,288L174.25,286.74L174.82,285.88L175.4,286.55L178.27,288.24L178.85,288.43L182.3,288.99L182.88,288.96L183.45,289.05L184.03,288.34L184.6,287.07L185.18,289.13L186.33,289L186.9,289.13L187.48,288.71L188.05,286.54L191.5,292.54L192.08,291.98L193.8,289.83L194.38,292.59L196.1,292.26L196.68,291.74L197.25,292.31L197.83,290.97L198.4,291.24L198.98,290.18L200.13,292.51L200.7,292.48L201.28,292.38L201.85,288.28L203,290.06L203.58,290.32L208.75,291.36L209.33,291.4L211.63,291.6L212.2,287.81L213.35,289.94L213.93,290.21L217.38,290.32L217.96,290.42L219.68,290.83L220.26,291.08L225.43,291.17L226.01,290.67L227.73,291.15L228.31,291.16L240.38,291.21L240.96,288.12L242.68,291.14L243.26,289.99L244.41,291.04L244.98,291.08L249.58,291.13L250.16,277.05L258.21,276.98L258.79,287.34L259.36,277.93L259.94,285.77L260.51,290.85L261.09,290.39L261.66,290.88L262.24,288.15L262.81,234.88L264.54,269.09L265.11,273.05L267.41,280.33L267.99,281.63L268.56,281.8L269.14,280.57L270.86,275.79L271.44,276.77L272.59,277.69L273.16,278.89L274.89,282.05L275.46,281.71L277.19,282.73L277.76,280.23L278.34,283.72L278.91,281.35L279.49,281.22L280.06,273.17L280.64,251.52L281.21,265.41L282.36,266.85L282.94,263.16L284.09,263.83L284.66,269.5L285.24,268.75L285.81,271.16L286.96,267.54L287.54,269.73L288.69,275.54L289.27,273.92L289.84,268.11L290.42,271.11L290.99,272.48L291.57,269.1L292.14,265.5L292.72,268.32L293.29,274.95L293.87,270.26L294.44,265.61L295.02,271.65L295.59,271.08L296.17,67.14L296.74,16L297.32,16.28L297.89,22.81L299.62,149.35L300.19,169.52L303.07,228.92L303.64,227.7L304.79,254.21L305.37,257.38L307.67,265.67L308.24,267.26L310.54,270.15L311.12,270.93L313.99,275.29L314.57,274.04L315.72,111.06L316.29,175.93L317.44,223.2L318.02,231.6L320.32,249.32L320.89,245.27L322.04,251.8L322.62,249.27L323.19,247.74L323.77,249.48L324.92,251.33L325.5,248.73L326.07,256.72L326.65,254.81L327.22,253.32L327.8,254.92L328.37,253L328.95,247.86L329.52,249.89L330.1,255.23L330.67,254.35L331.25,256.63L332.97,261.5L333.55,257.05L334.7,264.1L335.27,262.18L335.85,265.76L336.42,264.13L337.57,265.31L338.15,251.75L339.3,261.77L339.87,259.93L340.45,257.2L341.02,259.54L341.6,259.59L342.17,255.46L342.75,262.2L343.32,262.07L343.9,260.84L345.05,256.04L345.62,256.65L347.35,244.14L347.92,240.09L348.5,236.26L349.07,236.6L349.65,239.17L353.1,258.43L353.67,260.35L355.4,262.66L355.97,247.55L356.55,247.73L357.12,246.16L360,234.22L360.58,235.11L361.73,237.19L362.3,234.72L362.88,229.63L363.45,231.67L365.18,235.29L365.75,232.76L366.33,230.16L366.9,201.54L367.48,173.79L368.05,186.76L368.63,195.73L369.2,188.64L370.35,158.48L370.93,165.34L371.5,166.18L372.08,180.35L374.38,213.56L374.95,217.25L377.25,235.56L377.83,153.89L378.4,135.72L378.98,158L380.13,180.63L380.7,169.28L381.28,136.13L381.85,137.89L382.43,151.2L385.3,206.41L385.88,215.6L388.18,227.6L388.75,227.65L389.9,233.26L390.48,229.12L393.35,237.15L393.93,225.1L394.5,191.67L395.08,205.56L395.65,212.41L396.23,210.81L396.81,203.1L401.41,227.74L401.98,232.58L403.71,241.09L404.28,240.68L407.73,250.81L408.31,248.83L408.88,239.46L409.46,241.92L410.03,244.61L413.48,253.1L414.06,253.08L414.63,249.62L415.21,253.13L416.36,255.21L416.93,256.56L417.51,256.91L418.08,258.72L419.23,259.51L419.81,259.27L420.38,259.42L420.96,258.07L422.11,262.02L422.68,262.07L423.83,261.68L424.41,262.46L426.71,263.8L427.28,262.84L427.86,261.45L428.43,262.08L429.58,262.76L430.16,262.13L430.73,261.58L431.31,265.17L433.04,265.72L433.61,263.74L435.34,267.02L435.91,267.56L437.06,268.01L437.64,268.12L440.51,268.45L441.09,267.45L441.66,259.31L442.24,266.52L443.39,268.2L443.96,268.44L446.26,268.8L446.84,268.7L449.71,269.03L450.29,269.29L453.16,269.61L453.74,270.69L454.31,270.72L454.89,269.53L456.04,270.62L456.61,270.61L458.91,270.78L459.49,270.99L460.64,273.88L461.21,261.83L461.79,262.27L462.36,267.33L464.09,270.97L464.66,271.19L466.39,271.48L466.96,272.55L467.54,272.92L468.12,272.16L470.42,272.91L470.99,273.44L472.14,273.74L472.72,271.4L473.29,266.69L473.87,268.11L474.44,269.69L479.04,271.58L479.62,270.71L480.77,262.93L481.34,264.2L481.92,246.15L482.49,182.02L484.22,226.58L484.79,234.39L488.82,257.68L489.39,260.03L489.97,259.75L490.54,260.79L493.42,265.11L493.99,262.68L495.14,266.69L495.72,267.31L497.44,267.91L498.02,267.83L498.59,267.81L499.17,270.7L500.32,269.68L500.89,269.67L501.47,269.67L502.04,268.8L503.19,268.98L503.77,268.98L506.65,269.59L507.22,270.16L510.1,271.25L510.67,270.99L511.82,271.26L512.4,270.68L513.55,269.52L514.12,268.57L516.42,267.94L517,268.19L522.75,271.74L523.32,271.68L525.05,271.92L525.62,270.82L526.77,271.87L527.35,271.87L533.67,271.74L534.25,271.3L535.4,270.04L535.97,270.24L537.7,270.82L538.27,274.33L538.85,270.82" style="vector-effect: non-scaling-stroke; fill: none; stroke: rgb(255, 165, 0); stroke-opacity: 1; stroke-width: 2px; opacity: 1;"/></g><g class="points"/><g class="text"/></g><g class="trace scatter tracea96a6e" style="stroke-miterlimit: 2; opacity: 1;"><g class="fills"/><g class="errorbars"/><g class="lines"><path class="js-line" d="M0,297.16L0.58,297.2L1.15,298.12L2.88,296.36L3.45,298.38L4.6,299.03L5.18,298.91L6.9,299.11L7.48,299.66L8.05,298.27L8.63,299.85L9.2,302.86L9.78,301.4L11.5,293.3L12.08,284.89L12.65,281.5L13.23,284.21L14.38,287.88L14.95,284.34L16.1,287.04L16.68,285.42L17.83,289.34L18.4,290.12L20.13,289.83L20.7,291.27L21.28,291.07L21.85,289.08L23,292.42L23.58,292.27L24.73,292.35L25.3,294.89L26.45,291.58L27.03,292.25L29.33,294.09L29.9,290.11L31.05,294.55L31.63,294.07L34.5,296.46L35.08,296.55L36.81,297.15L37.38,297.32L39.11,298.27L39.68,298.2L41.41,298.06L41.98,298.91L43.71,300.06L44.28,299.15L44.86,299.65L45.43,302.03L46.01,302.29L46.58,300.98L47.73,299.62L48.31,273.44L48.88,295.44L49.46,286.43L50.03,282.31L50.61,285.5L52.33,284.56L52.91,284.02L54.63,283.94L55.21,288.87L55.78,292.65L56.36,285.92L58.08,285.4L58.66,276.32L59.81,282.37L60.38,280.81L60.96,284.52L61.53,278.85L62.68,284.39L63.26,291.48L63.83,283.28L64.41,287.67L64.98,287.4L65.56,284.36L66.13,281.97L66.71,284.99L67.28,282.9L67.86,285.48L68.43,283.35L69.01,283.71L69.58,291.31L70.16,282.59L70.73,283.22L71.31,288.15L71.88,281.45L72.46,282.72L73.04,281.53L74.76,277.89L75.34,278.6L77.64,278.84L78.21,279.91L79.94,284.71L80.51,286.22L83.96,292.24L84.54,288.48L85.69,293.37L86.26,292.32L92.59,296.79L93.16,296.78L94.31,297.42L94.89,296.86L96.61,298.1L97.19,298.23L102.36,299.99L102.94,300.32L105.81,301.53L106.39,292.48L107.54,298.03L108.12,296.43L108.69,296.64L109.27,291.74L110.42,297.73L110.99,296.34L111.57,295.25L112.14,298.95L114.44,295.17L115.02,295.53L117.32,295.94L117.89,296.24L118.47,296.26L119.04,297.09L128.82,303.12L129.39,303.22L129.97,303.26L130.54,300.41L131.12,300.26L131.69,302.76L133.99,296.63L134.57,301.86L137.44,303.61L138.02,303.86L141.47,304L142.04,304L146.07,304L146.65,300.85L147.8,297.74L148.37,298.86L149.52,299.69L150.1,299.21L150.67,298.9L151.25,297.51L152.97,296.13L153.55,297.32L154.12,297.61L154.7,296.35L155.85,296.02L156.42,297.02L158.15,297.41L158.72,295.76L159.3,304L159.87,298.13L162.17,293.22L162.75,292.62L163.32,298.63L163.9,295.35L165.62,290.33L166.2,289.28L167.35,291.23L167.92,290.16L169.07,289.73L169.65,289.9L170.22,289.82L170.8,291.75L173.1,295.44L173.67,295.71L175.4,295.53L175.97,300.73L177.12,295.93L177.7,294.84L178.85,295L179.42,294.81L182.88,298.84L183.45,299.2L185.75,299.27L186.33,296.28L186.9,295.03L187.48,297.88L188.63,297.01L189.2,297.53L190.93,298.97L191.5,297.63L192.08,297.86L192.65,299.51L193.23,300L193.8,299.17L196.1,297.8L196.68,298.65L198.4,304L198.98,303.4L200.7,302.09L201.28,301.99L202.43,304L203,298.89L203.58,300.74L204.15,299.49L204.73,298.96L205.3,299.49L205.88,298.94L206.45,299.65L207.03,300.65L207.6,299.71L208.75,300.05L209.33,299.68L211.63,299.44L212.2,301.09L212.78,304L213.35,297.08L213.93,299.69L214.5,298.98L215.08,298.87L216.23,299.65L216.81,298.92L217.38,299.38L217.96,298.88L218.53,298.82L219.11,300.32L219.68,299.55L220.26,300.45L221.41,300.46L221.98,301.55L222.56,300.76L223.13,301.61L225.43,301.68L226.01,302.17L226.58,304L227.16,298.04L228.88,299.11L229.46,298.72L231.18,299.16L231.76,300.25L232.91,298.7L233.48,299.62L234.63,299.89L235.21,299.48L236.36,298.29L236.93,298.47L238.08,298.5L238.66,296.55L239.81,300.69L240.38,299.23L241.53,294.54L242.11,297.16L243.26,297.76L243.83,294.65L244.98,296.66L245.56,296.5L246.13,295.79L246.71,296.92L247.86,296.76L248.43,297.26L249.01,297.23L249.58,298.02L251.88,298.59L252.46,299.27L257.06,300.8L257.64,301.19L258.21,304L258.79,294.11L259.36,296.94L259.94,296.01L261.66,297.65L262.24,294.95L262.81,256.47L263.39,286.11L263.96,285.91L264.54,284.54L265.11,285.79L265.69,284.79L266.84,283.96L267.41,284.22L267.99,284.62L268.56,290.84L269.14,287.2L269.71,293.74L270.86,284.38L271.44,287.25L272.01,289.55L272.59,286.85L275.46,281.82L276.04,297.97L276.61,278.33L277.19,280.18L277.76,281.47L279.49,280.27L280.06,280.99L280.64,286.49L281.21,278.86L282.94,285.16L283.51,287.24L284.66,284.31L285.24,284.87L285.81,285.42L286.39,284.35L288.12,284.41L288.69,285.05L289.84,286.78L290.42,288.16L291.57,290.03L292.14,288.31L293.29,293.69L293.87,292.89L295.59,295.74L296.17,294.78L296.74,247.78L297.32,289.7L297.89,304L298.47,290.39L299.62,276.45L300.19,277.95L301.34,283.01L301.92,282.44L303.64,281.49L304.22,281.92L308.24,286.57L308.82,288.38L309.97,288.91L310.54,289.31L312.27,289.92L312.84,292.66L315.14,294.47L315.72,297.98L316.29,283.84L316.87,285.82L317.44,287.76L318.59,285.71L319.17,285.59L320.89,285.61L321.47,286.36L328.95,294.05L329.52,294.29L334.7,296.12L335.27,296.8L338.15,298.32L338.72,297.47L339.3,290.5L339.87,294.27L340.45,290.49L341.02,293.09L341.6,294.94L342.17,293.75L343.9,289.88L344.47,293.54L346.2,293.78L346.77,291.16L347.92,296.78L348.5,293.65L349.07,297.44L349.65,297.14L350.22,297.2L353.1,300.67L353.67,299.81L354.25,298.47L354.82,300.19L356.55,302.74L357.12,301.75L358.27,299.49L358.85,298.4L359.42,300.58L360,300.04L360.58,299.86L361.73,298.08L362.3,298.79L362.88,300.86L363.45,299.52L364.03,300.12L364.6,299.46L365.18,299.46L365.75,300.23L366.33,301.31L366.9,304L369.78,304L370.35,295.84L371.5,297.04L372.08,294.27L373.8,281.08L374.38,280.18L375.53,275.97L376.1,273.87L377.83,272.34L378.4,304L379.55,275.54L380.13,277.63L381.28,292.66L381.85,290.95L382.43,286.49L384.73,273.31L385.3,271.87L387.03,276.46L387.6,278.77L389.33,286.78L389.9,285.83L390.48,289.08L391.05,286.36L391.63,285.15L392.2,286.13L392.78,283.25L393.35,284.8L393.93,284.21L394.5,265.25L395.08,263.64L395.65,274.26L396.81,270.63L397.38,271.15L397.96,272.01L399.68,274.47L400.26,271.48L400.83,273.77L401.41,272.5L403.71,278.97L404.28,284.37L404.86,282.65L405.43,284.48L407.16,287.51L407.73,289.29L408.31,290.66L408.88,304L409.46,284.19L410.03,289.18L410.61,290.69L412.33,290.14L412.91,291.13L413.48,292.4L414.06,291.83L415.21,294.31L415.78,293.61L418.66,296.59L419.23,296.8L420.38,297.05L420.96,303.22L421.53,295.02L422.11,298.05L424.41,295.58L424.98,295.9L426.13,296.1L426.71,297.11L428.43,298.99L429.01,298.64L430.16,297.88L430.73,298.51L431.31,296.5L431.88,299.35L433.61,298.76L434.19,298.83L434.76,298.66L435.34,299.3L438.79,300.83L439.36,301.4L441.09,301.64L441.66,303.84L442.24,304L442.81,302.3L444.54,300.2L445.11,300.34L447.41,300.05L447.99,301.51L449.14,302.18L449.71,303.25L451.44,301.62L452.01,301.74L453.16,302.36L453.74,304L454.31,301.9L454.89,303.57L455.46,303.82L456.04,301.25L456.61,302.85L457.19,301.28L458.34,302.05L458.91,301.9L460.06,301.75L460.64,301.92L461.21,301.37L461.79,304L462.36,294.36L462.94,296.4L463.51,297.75L464.09,296.12L464.66,297.12L466.39,297.28L466.96,297.96L468.69,297.82L469.27,299.25L469.84,299.49L470.42,298.84L472.14,298.38L472.72,298.43L473.29,294.47L473.87,294.95L474.44,296.24L475.02,293.04L475.59,295.52L477.32,294.23L477.89,295.41L479.04,295.71L479.62,296.11L480.19,293.68L480.77,294.29L481.34,295.86L481.92,293.75L482.49,287.54L484.22,292.69L484.79,291.88L487.67,287.01L488.24,286.83L489.39,287.42L489.97,288.55L495.14,295.69L495.72,295.73L498.02,297.15L498.59,297.6L499.17,298.02L499.74,296.79L500.89,298.45L501.47,297.65L502.04,296.59L502.62,297.88L503.19,298.75L503.77,298.08L506.65,297.53L507.22,297.64L509.52,298.01L510.1,298.46L511.82,299.75L512.4,299.78L513.55,299.99L514.12,299.92L516.42,300.6L517,300.98L518.72,301.21L519.3,300.86L520.45,302.85L521.02,301.64L522.75,300.78L523.32,301.08L524.47,301.16L525.05,301.75L525.62,301.56L526.2,302.97L526.77,302.75L527.35,304L529.07,302.29L529.65,303.04L530.22,301.19L530.8,302.86L531.95,304L532.52,300.87L533.67,299.34L534.25,298.62L535.97,300.34L536.55,304L537.12,303.32L537.7,299.52L538.27,302.78L538.85,300.07L540,298.34" style="vector-effect: non-scaling-stroke; fill: none; stroke: rgb(31, 119, 180); stroke-opacity: 1; stroke-width: 2px; opacity: 1;"/></g><g class="points"/><g class="text"/></g></g></g><g class="overplot"/><path class="xlines-above crisp" d="M0,0" style="fill: none;"/><path class="ylines-above crisp" d="M0,0" style="fill: none;"/><g class="overlines-above"/><g class="xaxislayer-above"><g class="xtick"><text text-anchor="middle" x="0" y="433" transform="translate(173.16,0)" style="font-family: 'Open Sans', verdana, arial, sans-serif; font-size: 12px; fill: rgb(42, 63, 95); fill-opacity: 1; white-space: pre; opacity: 1;">Jan 2019</text></g><g class="xtick"><text text-anchor="middle" x="0" y="433" style="font-family: 'Open Sans', verdana, arial, sans-serif; font-size: 12px; fill: rgb(42, 63, 95); fill-opacity: 1; white-space: pre; opacity: 1;" transform="translate(277.25,0)">Jul 2019</text></g><g class="xtick"><text text-anchor="middle" x="0" y="433" style="font-family: 'Open Sans', verdana, arial, sans-serif; font-size: 12px; fill: rgb(42, 63, 95); fill-opacity: 1; white-space: pre; opacity: 1;" transform="translate(383.07,0)">Jan 2020</text></g><g class="xtick"><text text-anchor="middle" x="0" y="433" style="font-family: 'Open Sans', verdana, arial, sans-serif; font-size: 12px; fill: rgb(42, 63, 95); fill-opacity: 1; white-space: pre; opacity: 1;" transform="translate(487.73,0)">Jul 2020</text></g><g class="xtick"><text text-anchor="middle" x="0" y="433" style="font-family: 'Open Sans', verdana, arial, sans-serif; font-size: 12px; fill: rgb(42, 63, 95); fill-opacity: 1; white-space: pre; opacity: 1;" transform="translate(593.55,0)">Jan 2021</text></g></g><g class="yaxislayer-above"><g class="ytick"><text text-anchor="end" x="79" y="4.199999999999999" transform="translate(0,404)" style="font-family: 'Open Sans', verdana, arial, sans-serif; font-size: 12px; fill: rgb(42, 63, 95); fill-opacity: 1; white-space: pre; opacity: 1;">0</text></g><g class="ytick"><text text-anchor="end" x="79" y="4.199999999999999" style="font-family: 'Open Sans', verdana, arial, sans-serif; font-size: 12px; fill: rgb(42, 63, 95); fill-opacity: 1; white-space: pre; opacity: 1;" transform="translate(0,349.99)">2</text></g><g class="ytick"><text text-anchor="end" x="79" y="4.199999999999999" style="font-family: 'Open Sans', verdana, arial, sans-serif; font-size: 12px; fill: rgb(42, 63, 95); fill-opacity: 1; white-space: pre; opacity: 1;" transform="translate(0,295.98)">4</text></g><g class="ytick"><text text-anchor="end" x="79" y="4.199999999999999" style="font-family: 'Open Sans', verdana, arial, sans-serif; font-size: 12px; fill: rgb(42, 63, 95); fill-opacity: 1; white-space: pre; opacity: 1;" transform="translate(0,241.98)">6</text></g><g class="ytick"><text text-anchor="end" x="79" y="4.199999999999999" style="font-family: 'Open Sans', verdana, arial, sans-serif; font-size: 12px; fill: rgb(42, 63, 95); fill-opacity: 1; white-space: pre; opacity: 1;" transform="translate(0,187.97)">8</text></g><g class="ytick"><text text-anchor="end" x="79" y="4.199999999999999" style="font-family: 'Open Sans', verdana, arial, sans-serif; font-size: 12px; fill: rgb(42, 63, 95); fill-opacity: 1; white-space: pre; opacity: 1;" transform="translate(0,133.96)">10</text></g></g><g class="overaxes-above"/></g></g><g class="polarlayer"/><g class="smithlayer"/><g class="ternarylayer"/><g class="geolayer"/><g class="funnelarealayer"/><g class="pielayer"/><g class="iciclelayer"/><g class="treemaplayer"/><g class="sunburstlayer"/><g class="glimages"/><defs id="topdefs-3a7a16"><g class="clips"/></defs><g class="layer-above"><g class="imagelayer"/><g class="shapelayer"/></g><g class="infolayer"><g class="g-gtitle"/><g class="g-xtitle"/><g class="g-ytitle"/></g></svg>