<svg class="main-svg" xmlns="http://www.w3.org/2000/svg" xmlns:xlink="http://www.w3.org/1999/xlink" width="700" height="500" style="" viewBox="0 0 700 500"><rect x="0" y="0" width="700" height="500" style="fill: rgb(255, 255, 255); fill-opacity: 1;"/><defs id="defs-99b184"><g class="clips"><clipPath id="clip99b184xyplot" class="plotclip"><rect width="540" height="320"/></clipPath><clipPath class="axesclip" id="clip99b184x"><rect x="80" y="0" width="540" height="500"/></clipPath><clipPath class="axesclip" id="clip99b184y"><rect x="0" y="100" width="700" height="320"/></clipPath><clipPath class="axesclip" id="clip99b184xy"><rect x="80" y="100" width="540" height="320"/></clipPath></g><g class="gradients"/><g class="patterns"/></defs><g class="bglayer"><rect class="bg" x="80" y="100" width="540" height="320" style="fill: rgb(229, 236, 246); fill-opacity: 1; stroke-width: 0;"/></g><g class="layer-below"><g class="imagelayer"/><g class="shapelayer"/></g><g class="cartesianlayer"><g class="subplot xy"><g class="layer-subplot"><g class="shapelayer"/><g class="imagelayer"/></g><g class="minor-gridlayer"><g class="x"/><g class="y"/></g><g class="gridlayer"><g class="x"><path class="xgrid crisp" transform="translate(173.16,0)" d="M0,100v320" style="stroke: rgb(255, 255, 255); stroke-opacity: 1; stroke-width: 1px;"/><path class="xgrid crisp" transform="translate(277.25,0)" d="M0,100v320" style="stroke: rgb(255, 255, 255); stroke-opacity: 1; stroke-width: 1px;"/><path class="xgrid crisp" transform="translate(383.07,0)" d="M0,100v320" style="stroke: rgb(255, 255, 255); stroke-opacity: 1; stroke-width: 1px;"/><path class="xgrid crisp" transform="translate(487.73,0)" d="M0,100v320" style="stroke: rgb(255, 255, 255); stroke-opacity: 1; stroke-width: 1px;"/><path class="xgrid crisp" transform="translate(593.55,0)" d="M0,100v320" style="stroke: rgb(255, 255, 255); stroke-opacity: 1; stroke-width: 1px;"/></g><g class="y"><path class="ygrid crisp" transform="translate(0,349.99)" d="M80,0h540" style="stroke: rgb(255, 255, 255); stroke-opacity: 1; stroke-width: 1px;"/><path class="ygrid crisp" transform="translate(0,295.98)" d="M80,0h540" style="stroke: rgb(255, 255, 255); stroke-opacity: 1; stroke-width: 1px;"/><path class="ygrid crisp" transform="translate(0,241.98)" d="M80,0h540" style="stroke: rgb(255, 255, 255); stroke-opacity: 1; stroke-width: 1px;"/><path class="ygrid crisp" transform="translate(0,187.97)" d="M80,0h540" style="stroke: rgb(255, 255, 255); stroke-opacity: 1; stroke-width: 1px;"/><path class="ygrid crisp" transform="translate(0,133.96)" d="M80,0h540" style="stroke: rgb(255, 255, 255); stroke-opacity: 1; stroke-width: 1px;"/></g></g><g class="zerolinelayer"><path class="yzl zl crisp" transform="translate(0,404)" d="M80,0h540" style="stroke: rgb(255, 255, 255); stroke-opacity: 1; stroke-width: 2px;"/></g><path class="xlines-below"/><path class="ylines-below"/><g class="overlines-below"/><g class="xaxislayer-below"/><g class="yaxislayer-below"/><g class="overaxes-below"/><g class="plot" transform="translate(80,100)" clip-path="url(#clip99b184xyplot)"><g class="scatterlayer mlayer"><g class="trace scatter trace95f1b6" style="stroke-miterlimit: 2; opacity: 1;"><g class="fills"/><g class="errorbars"/><g class="lines"><path class="js-line" d="M93.16,256.47L97.19,260.33L97.76,260.78L98.91,260.67L99.49,261.02L102.36,262.96L102.94,262.9L106.96,264.48L107.54,264.44L109.27,265.74L109.84,266.22L110.42,266.91L110.99,261.71L112.72,266.9L113.29,266.95L114.44,267.12L115.02,268.13L115.59,268.43L116.17,269.7L117.89,270.78L118.47,271L119.04,271.34L119.62,270.56L122.49,272.24L123.07,272.21L124.22,271.23L124.79,271.9L126.52,271.46L127.09,286.75L127.67,286.11L128.24,281.67L129.39,287L129.97,286.55L132.27,287.19L132.84,285.26L133.42,280.61L133.99,281.59L134.57,286.86L135.14,287.19L135.72,285.97L136.29,281.26L136.87,286.16L138.02,287.19L138.59,288.3L139.17,288.64L139.74,287.42L140.32,285.74L140.89,288.84L145.5,288.83L146.07,288.6L147.22,288.24L147.8,287.8L148.95,288.64L149.52,288.52L152.97,288.72L153.55,286.5L154.12,285.85L154.7,283.95L156.42,281.68L157,283.15L157.57,285.54L158.15,284.6L159.3,275.09L159.87,274.61L161.02,274.6L161.6,275.32L162.75,276.09L163.32,272.55L164.47,273.59L165.05,277.2L165.62,278.17L166.2,277.58L166.77,277.6L167.35,279.58L167.92,278.61L168.5,280.05L169.65,283.11L170.22,282.33L171.95,287.51L172.52,287.84L173.67,288L174.25,286.74L174.82,285.88L175.4,286.55L178.27,288.24L178.85,288.43L182.3,288.99L182.88,288.96L183.45,289.05L184.03,288.34L184.6,287.07L185.18,289.13L186.33,289L186.9,289.13L187.48,288.71L188.05,286.54L191.5,292.54L192.08,291.98L193.8,289.83L194.38,292.59L196.1,292.26L196.68,291.74L197.25,292.31L197.83,290.97L198.4,291.24L198.98,290.18L200.13,292.51L200.7,292.48L201.28,292.38L201.85,288.28L203,290.06L203.58,290.32L208.75,291.36L209.33,291.4L211.63,291.6L212.2,287.81L213.35,289.94L213.93,290.21L217.38,290.32L217.96,290.42L219.68,290.83L220.26,291.08L225.43,291.17L226.01,290.67L227.73,291.15L228.31,291.16L240.38,291.21L240.96,288.12L242.68,291.14L243.26,289.99L244.41,291.04L244.98,291.08L249.58,291.13L250.16,277.05L258.21,276.98L258.79,287.34L259.36,277.93L259.94,285.77L260.51,290.85L261.09,290.39L261.66,290.88L262.24,288.15L262.81,234.88L264.54,269.09L265.11,273.05L267.41,280.33L267.99,281.63L268.56,281.8L269.14,280.57L270.86,275.79L271.44,276.77L272.59,277.69L273.16,278.89L274.89,282.05L275.46,281.71L277.19,282.73L277.76,280.23L278.34,283.72L278.91,281.35L279.49,281.22L280.06,273.17L280.64,251.52L281.21,265.41L282.36,266.85L282.94,263.16L284.09,263.83L284.66,269.5L285.24,268.75L285.81,271.16L286.96,267.54L287.54,269.73L288.69,275.54L289.27,273.92L289.84,268.11L290.42,271.11L290.99,272.48L291.57,269.1L292.14,265.5L292.72,268.32L293.29,274.95L293.87,270.26L294.44,265.61L295.02,271.65L295.59,271.08L296.17,67.14L296.74,16L297.32,16.28L297.89,22.81L299.62,149.35L300.19,169.52L303.07,228.92L303.64,227.7L304.79,254.21L305.37,257.38L307.67,265.67L308.24,267.26L310.54,270.15L311.12,270.93L313.99,275.29L314.57,274.04L315.72,111.06L316.29,175.93L317.44,223.2L318.02,231.6L320.32,249.32L320.89,245.27L322.04,251.8L322.62,249.27L323.19,247.74L323.77,249.48L324.92,251.33L325.5,248.73L326.07,256.72L326.65,254.81L327.22,253.32L327.8,254.92L328.37,253L328.95,247.86L329.52,249.89L330.1,255.23L330.67,254.35L331.25,256.63L332.97,261.5L333.55,257.05L334.7,264.1L335.27,262.18L335.85,265.76L336.42,264.13L337.57,265.31L338.15,251.75L339.3,261.77L339.87,259.93L340.45,257.2L341.02,259.54L341.6,259.59L342.17,255.46L342.75,262.2L343.32,262.07L343.9,260.84L345.05,256.04L345.62,256.65L347.35,244.14L347.92,240.09L348.5,236.26L349.07,236.6L349.65,239.17L353.1,258.43L353.67,260.35L355.4,262.66L355.97,247.55L356.55,247.73L357.12,246.16L360,234.22L360.58,235.11L361.73,237.19L362.3,234.72L362.88,229.63L363.45,231.67L365.18,235.29L365.75,232.76L366.33,230.16L366.9,201.54L367.48,173.79L368.05,186.76L368.63,195.73L369.2,188.64L370.35,158.48L370.93,165.34L371.5,166.18L372.08,180.35L374.38,213.56L374.95,217.25L377.25,235.56L377.83,153.89L378.4,135.72L378.98,158L380.13,180.63L380.7,169.28L381.28,136.13L381.85,137.89L382.43,151.2L385.3,206.41L385.88,215.6L388.18,227.6L388.75,227.65L389.9,233.26L390.48,229.12L393.35,237.15L393.93,225.1L394.5,191.67L395.08,205.56L395.65,212.41L396.23,210.81L396.81,203.1L401.41,227.74L401.98,232.58L403.71,241.09L404.28,240.68L407.73,250.81L408.31,248.83L408.88,239.46L409.46,241.92L410.03,244.61L413.48,253.1L414.06,253.08L414.63,249.62L415.21,253.13L416.36,255.21L416.93,256.56L417.51,256.91L418.08,258.72L419.23,259.51L419.81,259.27L420.38,259.42L420.96,258.07L422.11,262.02L422.68,262.07L423.83,261.68L424.41,262.46L426.71,263.8L427.28,262.84L427.86,261.45L428.43,262.08L429.58,262.76L430.16,262.13L430.73,261.58L431.31,265.17L433.04,265.72L433.61,263.74L435.34,267.02L435.91,267.56L437.06,268.01L437.64,268.12L440.51,268.45L441.09,267.45L441.66,259.31L442.24,266.52L443.39,268.2L443.96,268.44L446.26,268.8L446.84,268.7L449.71,269.03L450.29,269.29L453.16,269.61L453.74,270.69L454.31,270.72L454.89,269.53L456.04,270.62L456.61,270.61L458.91,270.78L459.49,270.99L460.64,273.88L461.21,261.83L461.79,262.27L462.36,267.33L464.09,270.97L464.66,271.19L466.39,271.48L466.96,272.55L467.54,272.92L468.12,272.16L470.42,272.91L470.99,273.44L472.14,273.74L472.72,271.4L473.29,266.69L473.87,268.11L474.44,269.69L479.04,271.58L479.62,270.71L480.77,262.93L481.34,264.2L481.92,246.15L482.49,182.02L484.22,226.58L484.79,234.39L488.82,257.68L489.39,260.03L489.97,259.75L490.54,260.79L493.42,265.11L493.99,262.68L495.14,266.69L495.72,267.31L497.44,267.91L498.02,267.83L498.59,267.81L499.17,270.7L500.32,269.68L500.89,269.67L501.47,269.67L502.04,268.8L503.19,268.98L503.77,268.98L506.65,269.59L507.22,270.16L510.1,271.25L510.67,270.99L511.82,271.26L512.4,270.68L513.55,269.52L514.12,268.57L516.42,267.94L517,268.19L522.75,271.74L523.32,271.68L525.05,271.92L525.62,270.82L526.77,271.87L527.35,271.87L533.67,271.74L534.25,271.3L535.4,270.04L535.97,270.24L537.7,270.82L538.27,274.33L538.85,270.82" style="vector-effect: non-scaling-stroke; fill: none; stroke: rgb(255, 165, 0); stroke-opacity: 1; stroke-width: 2px; opacity: 1;"/></g><g class="points"/><g class="text"/></g><g class="trace scatter trace2d7e19" style="stroke-miterlimit: 2; opacity: 1;"><g class="fills"/><g class="errorbars"/><g class="lines"><path class="js-line" d="M0,297.2L6.9,301.8L7.48,302.47L8.05,301.18L8.63,302.38L9.2,304L9.78,302.79L10.35,297.41L10.93,299.07L12.08,287.8L12.65,289.13L13.23,290L13.8,290.87L14.38,290.02L14.95,287.98L15.53,289.78L16.1,290.64L16.68,288.56L17.83,291.18L18.4,291.49L21.28,293.18L21.85,290.35L23.58,294.63L24.15,294.94L25.88,289.16L26.45,291.84L27.6,293.85L28.18,293.69L29.33,293.91L29.9,289.91L31.63,294.27L32.2,293.43L36.81,296.48L37.38,296.63L40.26,297.8L40.83,297.93L41.98,298.39L42.56,298.5L44.28,298.55L44.86,297.68L46.01,297.1L46.58,297.94L47.73,298.59L48.31,275.42L48.88,304L49.46,291.16L50.03,287.75L50.61,289.1L51.18,289.44L51.76,288.86L53.48,288.82L54.06,289.31L54.63,290.12L55.21,289.3L55.78,286.38L56.36,289.07L56.93,291.23L57.51,289.25L58.08,286.64L58.66,287.82L59.81,289.01L60.38,288.67L60.96,284.95L61.53,286.73L62.11,287.7L62.68,285.01L63.83,286.33L64.41,286.01L66.71,283.82L67.28,284.6L67.86,283.57L68.43,284.67L69.01,284.81L69.58,280.88L70.73,284.62L71.31,280.52L72.46,283.88L73.04,283.95L74.76,284.72L75.34,283.1L76.49,285.35L77.06,285.78L79.36,288.59L79.94,289.33L83.96,293.45L84.54,288.76L85.69,293.32L86.26,293.31L89.71,294.92L90.29,295.34L92.01,296.04L92.59,296.43L94.89,297.32L95.46,297.64L100.64,300.09L101.21,300.38L103.51,300.85L104.09,301.19L105.81,301.24L106.39,304L106.96,299.04L107.54,300.66L108.69,300.7L109.27,302.55L109.84,298.23L110.42,299.74L110.99,300.01L111.57,301.28L112.14,296.91L112.72,297.97L113.29,297.98L115.59,297.97L116.17,298.29L122.49,300.68L123.07,300.64L124.79,301.05L125.37,301.11L129.97,301.42L130.54,303.35L131.12,299.99L131.69,301.53L139.17,301.46L139.74,301.48L142.62,301.55L143.19,301.58L146.07,301.84L146.65,304L147.22,299.3L147.8,301.46L148.37,302.12L148.95,297.4L149.52,297.8L150.1,297.16L150.67,295.97L151.25,296.45L151.82,296.26L153.55,296.11L154.12,294.74L155.27,295.86L155.85,295.96L158.15,296.9L158.72,296.69L159.3,304L159.87,292.5L162.75,292.4L163.32,289.13L165.05,292.35L165.62,292.15L166.2,291.83L166.77,290.47L169.65,291.85L170.22,291.97L171.37,292.58L171.95,291.42L173.67,293.52L174.25,293.67L175.4,294.24L175.97,291.83L177.7,293.82L178.27,293.89L180,294.54L180.58,294.87L182.3,296.2L182.88,296.1L185.75,297.62L186.33,296.91L186.9,295.95L187.48,297.45L188.63,297.65L189.2,297.78L191.5,298.67L192.08,296.96L193.8,299.24L194.38,299.25L196.68,300.64L197.25,301.12L198.98,301.99L199.55,302.13L201.28,304L201.85,304L202.43,304L203,299.71L204.15,301.89L204.73,302.05L205.3,302.15L205.88,301.03L207.03,302.09L207.6,300.77L211.05,304L211.63,304L212.78,304L213.35,300.63L214.5,301.79L215.08,301.6L216.23,301.98L216.81,301.31L219.11,304L219.68,303.12L220.83,304L221.41,304L226.58,304L227.16,300.75L228.31,301.05L228.88,300.88L231.18,299.66L231.76,300.43L232.33,299.14L232.91,299.73L233.48,297.47L234.06,298.31L235.21,299.07L235.78,298.42L238.66,297.74L239.23,296.62L240.96,302.14L241.53,294.58L242.68,296.96L243.26,296.76L244.41,294.78L244.98,295.8L247.86,296.31L248.43,296.66L257.64,300.05L258.21,303.94L258.79,296.43L259.36,298.23L259.94,298.31L261.09,298.27L261.66,300.7L262.24,293.99L262.81,253.73L263.96,287.08L264.54,287.64L265.69,288.31L266.26,288.25L267.99,289.5L268.56,285.05L269.14,287.27L269.71,284.01L271.44,288.54L272.01,287.53L275.46,287.81L276.04,286.28L276.61,286.25L277.19,287.12L280.06,289.35L280.64,278.57L281.79,286.64L282.36,287.57L282.94,287.04L283.51,285.4L284.66,287.49L285.24,286.97L285.81,286.5L286.39,287.45L290.42,290.8L290.99,291.41L291.57,291.76L292.14,287.38L293.87,292.45L294.44,291.95L295.02,291.01L295.59,291.78L296.17,287.38L296.74,214.84L297.89,276.85L298.47,280.5L300.19,281.72L300.77,281.83L301.92,281.84L302.49,282.49L304.22,285.51L304.79,286.73L308.24,292.49L308.82,292.57L311.69,295.3L312.27,295.62L313.42,295.81L313.99,296.47L314.57,296.66L315.14,295.91L315.72,294.42L316.29,289.64L317.44,292.02L318.02,291.72L321.47,292.19L322.04,292.7L327.8,296.73L328.37,297L338.15,301.43L338.72,304L339.3,296.48L339.87,297.33L340.45,296.42L341.6,296.21L342.17,296.2L343.9,296.01L344.47,296.24L346.2,297.01L346.77,296.11L347.35,295.61L347.92,296.87L354.25,298.66L354.82,297.81L355.97,297.97L356.55,297.2L358.27,297.58L358.85,297.14L359.42,297.26L360,296.4L362.88,297.75L363.45,297.05L364.6,298L365.18,298.14L366.9,298.51L367.48,296.01L368.63,296.28L369.2,294.57L370.93,289.46L371.5,289.27L375.53,288.53L376.1,288.76L377.83,290.22L378.4,292.98L378.98,287.79L379.55,287.91L380.13,288.14L381.28,285.43L381.85,285.62L383,287.22L383.58,287.13L385.3,286.9L385.88,287.2L389.9,291.78L390.48,290.28L391.05,287.17L391.63,290.76L392.78,287.82L393.35,289.41L394.5,282.57L395.08,284.05L395.65,284.46L396.23,282.55L396.81,281.68L397.38,283.12L398.53,283.66L399.11,283.39L399.68,282.06L400.26,282.73L401.41,282.3L401.98,282.83L403.71,283.95L404.28,281.58L406.01,285.45L406.58,285.97L408.88,288.51L409.46,285.81L411.18,287.64L411.76,287.99L414.06,291.14L414.63,292.36L420.96,299.28L421.53,296.99L422.68,299.12L423.26,299.31L425.56,300.78L426.13,301.14L429.01,301.75L429.58,302.27L430.73,304L431.31,299.93L432.46,301.95L433.04,301.69L434.76,301.76L435.34,301.87L437.06,302.3L437.64,302.71L441.09,304L441.66,304L442.24,304L442.81,300.42L443.39,299.77L443.96,300.55L445.11,300.15L445.69,300.41L447.41,300.01L447.99,300.69L448.56,300.76L449.14,299.55L450.29,300.96L450.86,301.16L453.16,301.59L453.74,303.45L454.31,300.48L454.89,300.93L455.46,302.21L456.04,299.72L456.61,300.93L458.91,300.43L459.49,300.85L461.21,300.74L461.79,304L462.36,295.75L462.94,296.03L463.51,296.28L464.66,296.06L465.24,296.2L469.27,296.82L469.84,297.82L472.72,298.67L473.29,301.83L473.87,295.22L474.44,296.36L475.02,294.58L475.59,294.57L476.17,295.54L479.62,296.01L480.19,295.55L480.77,294.09L481.34,294.71L481.92,293.95L482.49,291.42L483.64,289.11L484.22,289.5L486.52,290.23L487.09,290.78L493.42,296.1L493.99,296.18L498.02,298.42L498.59,298.21L499.74,299.24L500.32,298.44L502.04,299.94L502.62,299.5L503.77,300.01L504.35,300.23L505.5,300.03L506.07,300.1L508.37,300.46L508.95,300.28L510.1,301.49L510.67,300.14L511.82,301.61L512.4,300.53L513.55,301.1L514.12,301.05L518.15,301.24L518.72,302.73L519.87,300.64L520.45,301.52L524.47,301.06L525.05,302.18L525.62,300.55L526.2,302.5L526.77,300.44L527.35,301.28L527.92,301.01L528.5,302.71L529.07,299.25L529.65,300.51L530.22,300.26L530.8,301.57L531.95,298.4L532.52,299.22L535.4,298.74L535.97,299.81L536.55,299.68L537.12,297.47L538.27,299.11L538.85,297.74L540,298.15" style="vector-effect: non-scaling-stroke; fill: none; stroke: rgb(31, 119, 180); stroke-opacity: 1; stroke-width: 2px; opacity: 1;"/></g><g class="points"/><g class="text"/></g><g class="trace scatter trace291356" style="stroke-miterlimit: 2; opacity: 1;"><g class="fills"/><g class="errorbars"/><g class="lines"><path class="js-line" d="M0,304L1.15,265.61L1.73,261.92L2.3,262.78L2.88,257.74L4.03,304L4.6,304L10.93,304L11.5,249.87L12.08,277.19L12.65,258.75L13.23,304L13.8,273.23L14.95,304L15.53,304L16.1,304L16.68,294.49L17.83,304L18.4,304L24.73,304L25.3,294.27L25.88,304L26.45,281.88L27.6,304L28.18,304L53.48,304L54.06,265.49L55.21,304L55.78,304L296.17,304L296.74,228.35L297.89,304L298.47,154.51L299.62,304L300.19,304L311.12,304L311.69,286.72L312.27,273.35L312.84,304L316.29,304L316.87,221.59L317.44,205.45L318.02,239.17L318.59,230.16L319.17,256.05L320.32,304L320.89,304L322.62,279.22L323.19,279.26L324.35,273.21L324.92,292.18L325.5,292.34L326.07,286.19L326.65,272.99L327.22,304L338.72,304L339.3,231.82L339.87,226.15L340.45,290.91L341.6,253.71L342.17,265.9L343.32,271.99L343.9,264.67L345.05,294.32L345.62,282.22L346.77,304L347.35,245.39L349.07,304L349.65,304L540,304" style="vector-effect: non-scaling-stroke; fill: none; stroke: rgb(255, 0, 0); stroke-opacity: 1; stroke-width: 2px; opacity: 1;"/></g><g class="points"/><g class="text"/></g></g></g><g class="overplot"/><path class="xlines-above crisp" d="M0,0" style="fill: none;"/><path class="ylines-above crisp" d="M0,0" style="fill: none;"/><g class="overlines-above"/><g class="xaxislayer-above"><g class="xtick"><text text-anchor="middle" x="0" y="433" transform="translate(173.16,0)" style="font-family: 'Open Sans', verdana, arial, sans-serif; font-size: 12px; fill: rgb(42, 63, 95); fill-opacity: 1; white-space: pre; opacity: 1;">Jan 2019</text></g><g class="xtick"><text text-anchor="middle" x="0" y="433" style="font-family: 'Open Sans', verdana, arial, sans-serif; font-size: 12px; fill: rgb(42, 63, 95); fill-opacity: 1; white-space: pre; opacity: 1;" transform="translate(277.25,0)">Jul 2019</text></g><g class="xtick"><text text-anchor="middle" x="0" y="433" style="font-family: 'Open Sans', verdana, arial, sans-serif; font-size: 12px; fill: rgb(42, 63, 95); fill-opacity: 1; white-space: pre; opacity: 1;" transform="translate(383.07,0)">Jan 2020</text></g><g class="xtick"><text text-anchor="middle" x="0" y="433" style="font-family: 'Open Sans', verdana, arial, sans-serif; font-size: 12px; fill: rgb(42, 63, 95); fill-opacity: 1; white-space: pre; opacity: 1;" transform="translate(487.73,0)">Jul 2020</text></g><g class="xtick"><text text-anchor="middle" x="0" y="433" style="font-family: 'Open Sans', verdana, arial, sans-serif; font-size: 12px; fill: rgb(42, 63, 95); fill-opacity: 1; white-space: pre; opacity: 1;" transform="translate(593.55,0)">Jan 2021</text></g></g><g class="yaxislayer-above"><g class="ytick"><text text-anchor="end" x="79" y="4.199999999999999" transform="translate(0,404)" style="font-family: 'Open Sans', verdana, arial, sans-serif; font-size: 12px; fill: rgb(42, 63, 95); fill-opacity: 1; white-space: pre; opacity: 1;">0</text></g><g class="ytick"><text text-anchor="end" x="79" y="4.199999999999999" style="font-family: 'Open Sans', verdana, arial, sans-serif; font-size: 12px; fill: rgb(42, 63, 95); fill-opacity: 1; white-space: pre; opacity: 1;" transform="translate(0,349.99)">2</text></g><g class="ytick"><text text-anchor="end" x="79" y="4.199999999999999" style="font-family: 'Open Sans', verdana, arial, sans-serif; font-size: 12px; fill: rgb(42, 63, 95); fill-opacity: 1; white-space: pre; opacity: 1;" transform="translate(0,295.98)">4</text></g><g class="ytick"><text text-anchor="end" x="79" y="4.199999999999999" style="font-family: 'Open Sans', verdana, arial, sans-serif; font-size: 12px; fill: rgb(42, 63, 95); fill-opacity: 1; white-space: pre; opacity: 1;" transform="translate(0,241.98)">6</text></g><g class="ytick"><text text-anchor="end" x="79" y="4.199999999999999" style="font-family: 'Open Sans', verdana, arial, sans-serif; font-size: 12px; fill: rgb(42, 63, 95); fill-opacity: 1; white-space: pre; opacity: 1;" transform="translate(0,187.97)">8</text></g><g class="ytick"><text text-anchor="end" x="79" y="4.199999999999999" style="font-family: 'Open Sans', verdana, arial, sans-serif; font-size: 12px; fill: rgb(42, 63, 95); fill-opacity: 1; white-space: pre; opacity: 1;" transform="translate(0,133.96)">10</text></g></g><g class="overaxes-above"/></g></g><g class="polarlayer"/><g class="smithlayer"/><g class="ternarylayer"/><g class="geolayer"/><g class="funnelarealayer"/><g class="pielayer"/><g class="iciclelayer"/><g class="treemaplayer"/><g class="sunburstlayer"/><g class="glimages"/><defs id="topdefs-99b184"><g class="clips"/></defs><g class="layer-above"><g class="imagelayer"/><g class="shapelayer"/></g><g class="infolayer"><g class="g-gtitle"/><g class="g-xtitle"/><g class="g-ytitle"/></g></svg>