<svg class="main-svg" xmlns="http://www.w3.org/2000/svg" xmlns:xlink="http://www.w3.org/1999/xlink" width="700" height="500" style="" viewBox="0 0 700 500"><rect x="0" y="0" width="700" height="500" style="fill: rgb(255, 255, 255); fill-opacity: 1;"/><defs id="defs-85508e"><g class="clips"><clipPath id="clip85508exyplot" class="plotclip"><rect width="540" height="320"/></clipPath><clipPath class="axesclip" id="clip85508ex"><rect x="80" y="0" width="540" height="500"/></clipPath><clipPath class="axesclip" id="clip85508ey"><rect x="0" y="100" width="700" height="320"/></clipPath><clipPath class="axesclip" id="clip85508exy"><rect x="80" y="100" width="540" height="320"/></clipPath></g><g class="gradients"/><g class="patterns"/></defs><g class="bglayer"><rect class="bg" x="80" y="100" width="540" height="320" style="fill: rgb(229, 236, 246); fill-opacity: 1; stroke-width: 0;"/></g><g class="layer-below"><g class="imagelayer"/><g class="shapelayer"/></g><g class="cartesianlayer"><g class="subplot xy"><g class="layer-subplot"><g class="shapelayer"/><g class="imagelayer"/></g><g class="minor-gridlayer"><g class="x"/><g class="y"/></g><g class="gridlayer"><g class="x"><path class="xgrid crisp" transform="translate(177.51,0)" d="M0,100v320" style="stroke: rgb(255, 255, 255); stroke-opacity: 1; stroke-width: 1px;"/><path class="xgrid crisp" transform="translate(314.69,0)" d="M0,100v320" style="stroke: rgb(255, 255, 255); stroke-opacity: 1; stroke-width: 1px;"/><path class="xgrid crisp" transform="translate(451.87,0)" d="M0,100v320" style="stroke: rgb(255, 255, 255); stroke-opacity: 1; stroke-width: 1px;"/><path class="xgrid crisp" transform="translate(589.05,0)" d="M0,100v320" style="stroke: rgb(255, 255, 255); stroke-opacity: 1; stroke-width: 1px;"/></g><g class="y"><path class="ygrid crisp" transform="translate(0,368.31)" d="M80,0h540" style="stroke: rgb(255, 255, 255); stroke-opacity: 1; stroke-width: 1px;"/><path class="ygrid crisp" transform="translate(0,332.61)" d="M80,0h540" style="stroke: rgb(255, 255, 255); stroke-opacity: 1; stroke-width: 1px;"/><path class="ygrid crisp" transform="translate(0,296.9)" d="M80,0h540" style="stroke: rgb(255, 255, 255); stroke-opacity: 1; stroke-width: 1px;"/><path class="ygrid crisp" transform="translate(0,261.2)" d="M80,0h540" style="stroke: rgb(255, 255, 255); stroke-opacity: 1; stroke-width: 1px;"/><path class="ygrid crisp" transform="translate(0,225.49)" d="M80,0h540" style="stroke: rgb(255, 255, 255); stroke-opacity: 1; stroke-width: 1px;"/><path class="ygrid crisp" transform="translate(0,189.79000000000002)" d="M80,0h540" style="stroke: rgb(255, 255, 255); stroke-opacity: 1; stroke-width: 1px;"/><path class="ygrid crisp" transform="translate(0,154.07999999999998)" d="M80,0h540" style="stroke: rgb(255, 255, 255); stroke-opacity: 1; stroke-width: 1px;"/><path class="ygrid crisp" transform="translate(0,118.38)" d="M80,0h540" style="stroke: rgb(255, 255, 255); stroke-opacity: 1; stroke-width: 1px;"/></g></g><g class="zerolinelayer"><path class="yzl zl crisp" transform="translate(0,404.02)" d="M80,0h540" style="stroke: rgb(255, 255, 255); stroke-opacity: 1; stroke-width: 2px;"/></g><path class="xlines-below"/><path class="ylines-below"/><g class="overlines-below"/><g class="xaxislayer-below"/><g class="yaxislayer-below"/><g class="overaxes-below"/><g class="plot" transform="translate(80,100)" clip-path="url(#clip85508exyplot)"><g class="scatterlayer mlayer"><g class="trace scatter trace87dd12" style="stroke-miterlimit: 2; opacity: 1;"><g class="fills"/><g class="errorbars"/><g class="lines"><path class="js-line" d="M0,302.55L0.08,301.92L0.3,303.04L0.68,302.83L0.75,303L2.33,303.1L2.4,299.81L2.63,303.1L2.7,298.6L3.16,302.74L3.23,302.77L3.38,302.06L3.91,302.94L3.98,303.04L5.78,303.1L5.86,297.08L6.76,303.1L6.84,303.1L7.14,303.1L7.21,300.33L8.19,303.1L8.26,302.37L8.71,302.73L8.94,301.07L9.02,301.59L9.09,302.42L9.39,303.1L9.47,303.08L9.54,296.02L9.69,287.04L10.37,302.87L10.44,302.87L11.27,303.01L11.34,302.6L11.42,301.58L11.57,301.97L11.64,299.03L11.72,293.18L12.32,300.85L12.4,300.92L13.6,301.1L13.67,301.07L15.03,300.96L15.1,301.16L15.33,301.16L15.4,300.38L16.3,301.2L16.38,301.22L16.83,301.34L16.9,302.13L17.73,303.1L17.8,303.09L18.78,303.1L18.86,302.27L19.23,302.36L19.68,300.69L19.76,302.16L19.83,301.89L19.91,295.24L20.73,301.98L20.81,302.39L21.34,302.61L21.56,301.25L21.64,301.54L21.71,302.16L21.94,302.66L22.01,302.33L22.09,293.61L22.16,285.39L22.31,297.33L22.76,293.35L22.84,295.8L22.91,288.56L23.51,298.95L23.59,298.95L24.12,300.03L24.19,299.62L24.27,290.39L24.34,288.43L24.57,295.82L24.64,294.46L24.72,270.79L24.94,269.56L25.54,297.74L25.62,297.84L25.77,297.96L25.84,296.88L26.67,299.32L26.74,298.99L26.82,286.96L27.05,280.65L27.35,296.67L27.42,297.59L28.25,299.6L28.32,298.99L28.4,298.98L28.62,298.68L29.52,300.43L29.6,297.66L29.67,296.92L29.9,300.82L29.97,300.69L30.05,300.93L30.28,301.85L30.5,300.78L30.58,298.83L30.65,298.56L30.8,300.93L30.88,300.58L30.95,291.47L31.55,300.74L31.7,300.21L31.78,295.06L32.6,297.92L32.68,292.12L32.75,298.47L33.06,288.01L33.43,292.21L33.51,286.1L34.18,301.24L34.26,300.45L34.33,298.47L35.01,301.54L35.08,300.64L35.16,300.6L35.53,301.73L35.83,300.29L35.91,300.29L36.06,301.37L36.21,300.15L36.29,273.27L37.11,300.69L37.19,299.03L37.26,297.78L37.64,300.59L37.86,299.16L37.94,299.16L38.46,298.99L38.69,300.34L38.76,299.56L38.99,296.32L39.14,299.13L39.22,300.22L39.44,293.34L39.59,297.53L39.67,298.91L39.82,286.84L40.42,297.59L40.49,297.61L40.79,298.46L40.87,298.32L40.94,264.6L41.84,273.93L41.92,273.72L42.97,273.35L43.05,272.97L43.2,273.41L43.42,272.79L43.57,273.11L43.65,287.23L44.47,300.4L44.55,299.98L44.77,299.57L44.92,299.97L45,301.24L45.15,299.93L45.53,301.43L45.75,300.51L45.83,300.59L46.05,301.13L46.13,301.01L46.2,299.47L46.35,274.41L46.5,291.84L46.58,294.29L46.65,294.94L46.73,293.58L46.8,266L47.85,297.14L47.93,297.31L48.68,299.78L48.98,299.32L49.06,292.68L49.36,298.19L49.88,298.09L49.96,297.72L50.03,293.24L50.63,298.36L50.71,298.27L51.61,298.8L51.69,297.83L51.84,299.51L52.06,292.2L52.44,299.04L52.51,298.97L52.66,298.83L52.74,299.08L52.81,296.74L52.96,299.38L53.34,297.63L53.41,291.46L53.94,298.59L54.24,297.69L54.32,297.75L54.99,301.39L55.07,299.52L55.14,296.77L55.67,302.09L55.82,302.02L55.89,269.41L56.49,296.11L56.72,293.72L56.79,295.74L57.62,302.12L57.7,301.33L58.15,301.59L58.52,300.11L58.6,301.47L58.82,300.97L59.2,302.14L59.35,301.65L59.42,301.76L59.65,302.42L59.72,292.19L60.48,301.03L60.55,300.76L60.63,300.82L60.7,301L60.78,300.79L60.85,293.83L60.93,289.75L61.23,300.29L61.45,299.36L61.53,299.89L62.35,300.46L62.43,300.24L63.11,279.35L63.33,291.42L63.41,291.54L63.56,291.91L63.63,296.09L63.93,300.75L64.23,295.88L64.31,270.01L64.91,300.05L65.13,292.69L65.21,292.79L65.36,285.9L65.96,298.13L66.04,297.34L66.11,298.3L66.41,298.41L66.49,299.26L67.16,269.62L67.31,292.31L67.39,292.65L67.61,295.75L67.69,290.36L67.76,292.46L67.84,286.58L67.91,231.5L68.51,291.23L68.59,291.9L69.64,294.95L69.72,294.5L70.77,296.89L70.84,296.55L70.99,296.35L71.22,297.19L71.29,297.34L71.59,296.68L71.74,297.8L71.82,298L72.05,296.79L72.35,298.43L72.42,297.82L72.5,298.01L72.65,297.85L72.8,298.61L72.87,299.02L73.4,300.25L73.55,294.63L73.77,296.84L73.85,287.12L74.07,296.75L74.22,282.08L74.6,293.11L74.67,293.69L74.82,293.92L74.9,288.12L76.03,294.76L76.1,294.64L76.18,294.55L76.4,294.08L76.48,293.15L76.55,293.74L76.63,292.78L76.7,257.42L77.3,290L77.53,286.22L77.6,287.78L77.9,289.57L77.98,277.35L78.73,290.69L78.88,290.39L78.96,272.61L79.78,289.54L79.86,287.64L79.93,283.02L80.46,290.56L80.61,285.85L80.68,287.57L80.98,290.47L81.14,279.77L81.29,289.92L81.36,290.69L81.81,293.28L82.11,292.79L82.19,290.9L82.26,290.68L82.41,292.62L82.49,291.67L82.56,292.92L82.64,293.68L82.71,293.59L82.79,278.78L83.61,296.11L83.69,296.14L83.91,296.51L83.99,296.46L84.07,294.62L84.29,295.75L84.37,294.67L84.44,293.19L84.74,296.68L84.82,290.6L85.12,292.85L85.19,293.09L85.79,294.76L85.87,297.91L86.02,301.09L86.24,293.22L86.62,300.27L86.69,300.05L87.15,300.88L87.22,298.79L87.3,298.64L87.45,299.79L87.52,299.96L88.05,300.66L88.12,295.5L88.27,291.86L88.57,298.27L88.65,298.55L88.8,298.81L88.87,300.96L89.02,301.81L89.17,300.63L89.25,300.89L89.32,297.29L90,299.88L90.23,299.82L90.3,299.88L90.98,300.06L91.05,294.35L91.35,300.17L91.8,299.76L91.88,299.78L92.78,300.2L92.85,299.43L93.61,300.25L93.68,300.23L93.76,300.24L95.18,300.38L95.26,299.94L95.48,299.42L95.56,299.78L95.63,294.51L96.54,300.15L96.61,299.85L97.06,296.7L97.29,299.91L97.36,300.12L97.74,299.66L98.11,300.32L98.19,300.08L98.26,299.64L98.64,300.59L98.86,300.07L98.94,300.34L99.69,301.47L99.92,300.93L99.99,300.88L100.22,301.72L100.29,295.8L100.44,294.56L100.52,298.8L101.27,301.38L101.34,300.98L101.42,300.56L101.72,301.19L101.79,301.62L102.17,300.26L102.55,301L102.62,301.03L102.7,299.65L102.92,301.26L103.3,301.23L103.37,301.49L103.67,300.66L103.97,301.46L104.05,298.27L104.95,301L105.03,300.92L105.1,300.04L105.48,300.67L105.63,299.6L105.7,299.19L106,300.25L106.08,299.04L106.23,299.82L106.3,300.2L107.05,302.52L107.2,301.6L107.28,300.34L107.65,302.73L107.73,288.6L108.56,300.71L108.63,300.91L109.01,300.73L109.16,301.16L109.23,297.4L110.13,300.78L110.21,301.22L110.36,299.08L110.88,301.25L110.96,301.3L111.56,301.95L111.64,301.01L111.71,293.87L112.31,301.37L112.39,301.39L113.21,301.93L113.29,300.88L113.51,299.06L114.12,301.27L114.19,283.42L114.79,295.78L114.87,282.56L115.02,293.72L115.09,293.8L115.32,293.81L115.39,289.36L115.99,295.16L116.07,295.07L116.14,287.45L116.22,289.83L116.29,254.7L116.89,295.33L117.12,294.18L117.2,295.37L117.5,296.77L117.57,285.81L118.1,299.66L118.47,298.9L118.55,299.33L118.62,299.73L118.85,298L118.92,278.78L119.3,267.76L119.82,293.23L119.9,293.95L120.2,295.97L120.8,295.65L120.88,295.3L121.4,281.5L121.63,292.05L121.7,292.73L122.38,294.28L122.53,294L122.6,293.47L122.68,289.77L123.28,295.04L123.36,295.15L123.51,294.49L123.88,295.44L124.03,295.28L124.11,295.34L125.08,296.89L125.16,296.82L125.23,296.63L125.31,297L125.38,294.53L125.46,276.53L126.14,293.86L126.29,293.82L126.36,293.95L126.59,294.26L126.89,293.5L126.96,292.13L127.11,221.22L127.71,287.63L127.79,287.99L129.14,292.35L129.22,292.55L129.44,292.5L129.52,292.81L129.59,293.27L129.67,293.1L130.04,293.56L130.12,294.02L130.72,293.84L130.79,294.41L130.87,294.31L130.94,293.25L131.77,296.36L131.92,295.78L131.99,295.74L132.15,292.03L132.67,297.15L132.75,297.34L132.82,297.54L132.9,293.94L133.35,296.75L133.72,295.7L133.8,295.98L133.95,296.76L134.25,294.72L134.4,295.03L134.47,294.64L135.6,289.54L135.68,291.13L136.5,296.13L136.58,295.89L137.18,294.16L137.4,294.76L137.48,296.14L138.08,299.93L138.23,297.42L138.31,297.03L138.68,302.42L139.28,301.9L139.36,301.82L139.58,286.57L140.03,297.44L140.11,297.76L140.26,297.98L140.33,290.76L140.56,289.36L141.09,289.94L141.16,289.95L141.46,290L141.54,288.18L141.61,289.82L141.91,286.17L141.99,201.28L142.89,303.14L142.96,303.14L144.02,302.87L144.09,238.24L144.54,302.93L144.92,298.29L144.99,299.86L145.44,301.72L145.59,301.18L145.67,298.66L145.97,301.34L146.19,300.5L146.27,296.46L146.49,301.3L146.72,283.43L147.02,300.28L147.1,300.44L148,300.43L148.07,300.71L148.15,300.95L148.75,300.81L148.82,300.97L148.9,301.16L148.97,298.97L149.65,300.31L149.72,300.29L150.33,300.37L150.4,296.95L150.93,300.42L151.23,299.69L151.3,299.74L152.2,300L152.28,300.05L153.03,300.17L153.11,301.02L153.86,302.27L153.93,302.01L154.01,300.24L154.38,302.24L154.83,302.09L154.91,302.24L155.13,301.78L155.21,299.16L155.43,302.27L156.04,301.68L156.11,301.23L156.94,300.53L157.01,301.07L157.24,296.5L157.39,299.73L157.46,300.26L157.54,300.63L157.84,299.65L158.06,300L158.14,299.77L159.04,295.91L159.12,298.08L159.27,272.99L159.79,297.76L159.87,297.8L160.09,290.35L160.47,295.67L160.54,295.84L161.29,298.07L161.37,287.31L162.2,299.34L162.27,299.71L162.35,296.81L163.02,298.35L163.1,298.02L163.17,297.8L163.25,292.69L163.85,301.56L163.92,283.5L164.75,297.41L164.82,297.4L165.05,297.66L165.13,299.79L165.95,303.7L166.03,303.53L166.63,303.64L166.7,299.61L167.6,303.82L167.68,303.7L168.58,303.92L168.66,299.34L169.56,303.73L169.63,300.93L169.86,297.8L170.38,303.61L170.46,302.84L170.68,303.45L170.83,300.82L171.14,303.45L171.21,303.58L171.74,303.84L171.96,303.53L172.04,303.52L172.19,299.74L172.71,303.47L172.79,303.72L173.01,303.32L173.09,295.83L173.16,283.96L173.31,299.45L173.76,298.57L173.84,298.78L174.14,298.96L174.22,301.57L174.29,303.97L174.97,303.84L175.04,303.75L175.57,302.96L175.94,303.4L176.02,303.39L176.62,303.36L176.69,302.28L177.52,303.16L177.6,303.19L179.85,302.85L179.92,297.64L180,296.98L180.38,299.2L180.45,299.17L180.53,299.27L181.43,299.46L181.5,301.86L181.73,304L182.25,303.94L182.33,297.07L182.85,303.91L183.08,303.57L183.16,303.59L183.31,303.95L183.46,302.54L183.53,302.45L183.83,302.61L183.91,300.65L184.43,301.41L184.51,301.61L185.41,302.3L185.48,302.16L185.56,301.68L185.86,294.67L186.31,299.54L186.39,299.77L186.54,290.66L186.99,299.84L187.14,299.29L187.21,299.06L187.36,292.19L187.51,298.54L187.59,298.97L187.74,298.88L187.81,296.03L188.11,295.72L188.56,298.99L188.64,298.14L188.71,297.25L189.09,298.47L189.17,296.9L189.24,294.82L189.32,296.8L189.54,284.74L189.62,283.85L190.37,297.13L190.44,295.28L190.52,296.28L190.67,276.8L190.97,295.28L191.04,297.4L191.19,298.79L191.34,292.7L191.42,296.12L191.49,286.21L192.25,297.1L192.47,296.41L192.55,297.41L193.07,298.35L193.15,290.58L193.82,298.9L193.97,298.83L194.05,298.99L194.2,299.17L194.27,282.71L195.1,296.45L195.18,300.14L195.93,303.24L196,303.02L196.08,302.76L196.45,303.32L196.75,303.07L196.83,301.48L197.05,303.38L197.35,299.29L197.43,295.71L197.95,300.9L198.11,295.28L198.18,299.29L198.26,299.85L198.78,302.36L198.86,296.73L198.93,295.96L199.31,300.01L199.38,300L199.46,292.67L199.91,300.3L200.06,299.05L200.13,301.37L200.66,302.86L200.81,302.7L200.88,300.34L201.11,303.19L201.41,302.49L201.49,297.37L202.24,303.51L202.31,303.19L202.39,298.77L202.76,261.16L203.06,297.21L203.14,299.81L203.51,298.87L203.81,301.72L204.04,301.25L204.12,301.38L204.64,301.47L204.72,301.15L204.79,300.76L205.47,301.93L205.54,299.25L205.92,296.09L206.44,302.04L206.52,301.98L206.59,301.69L206.74,302.12L206.82,295.45L206.89,260.76L207.5,296.78L207.57,297.17L207.72,295.09L207.87,295.88L207.95,272.63L208.77,294.95L208.85,296.11L209.45,297.7L209.52,293.04L209.75,277.04L210.2,293.5L210.28,292.68L211.18,296.22L211.25,296.01L211.33,295.8L211.55,296.4L211.78,295.78L211.85,293.96L212.75,297.91L212.9,297.58L212.98,297.63L213.66,298.49L213.73,293.92L213.88,295.73L214.56,276.43L214.63,289.57L214.78,284.27L215.38,292.62L215.46,292.27L215.53,292.93L216.14,294.74L216.21,291.57L216.29,288.24L216.51,294.41L216.89,293.16L216.96,293.21L217.19,292.38L217.26,287.93L218.01,294.59L218.09,294.11L218.16,293.78L218.39,293.26L218.46,293.36L218.54,290.22L219.44,296.69L219.52,297.25L219.67,297.08L219.89,297.8L219.97,294.26L220.04,293.5L220.19,299.8L220.27,299.85L220.49,298.71L220.72,300.75L220.79,299.1L220.87,295.81L221.02,300.47L221.17,292.77L221.62,297.01L221.69,297.33L221.84,297.47L221.92,296.1L222.3,300.98L222.75,300.79L222.82,301.31L223.35,303.78L223.57,303.57L223.65,300.74L223.72,282.12L224.4,296.29L224.47,296.36L224.85,297.42L224.92,299.45L225,299.66L225.08,291.65L225.98,301.79L226.05,303.03L226.2,302.88L226.28,303.02L226.35,299.05L226.58,288.75L226.73,302.02L227.03,294.55L227.1,300.36L227.33,301.25L227.4,292.62L228.01,302.26L228.23,302.04L228.31,301.38L228.61,302.58L229.13,302.44L229.21,299.26L229.28,278.17L229.88,300.83L229.96,301.01L230.18,300.8L230.71,301.53L230.78,301.27L230.86,301.19L232.21,301.56L232.29,301L232.74,301.87L233.11,301.55L233.19,301.63L233.79,301.97L233.86,299.77L234.09,290.64L234.54,299.53L234.62,299.53L234.92,299.72L234.99,296.68L235.44,298.62L235.67,295.91L235.74,297.47L235.82,298.39L236.42,299.99L236.49,298.14L236.72,299.45L236.79,299.52L237.17,300.37L237.25,297.82L237.47,300.54L237.55,298.38L237.62,284.95L238.07,298.23L238.3,296.7L238.37,272.74L239.2,295.04L239.27,291.44L239.57,293.82L239.72,291.07L240.03,291.82L240.1,291.11L240.63,291.63L240.7,287.43L240.78,290.71L240.85,291.15L241.6,294.01L241.68,291.69L242.2,297.49L242.58,296.42L242.65,296.67L242.8,293.08L243.56,298.62L243.63,298.65L243.93,242.06" style="vector-effect: non-scaling-stroke; fill: none; stroke: rgb(255, 165, 0); stroke-opacity: 1; stroke-width: 2px; opacity: 1;"/><path class="js-line" d="M244.68,289.73L245.66,295.97L245.73,293.65L246.41,297.53L246.56,296.76L246.64,291.94L246.71,291.32L246.86,295.07L246.94,296.29L247.39,278.95L247.61,295.87L247.69,296.49L247.91,297.58L248.06,295.3L248.14,291.7L248.51,289.96L249.04,299.55L249.12,299.8L250.09,301.36L250.24,301.23L250.32,300.42L250.62,301.68L250.77,283.94" style="vector-effect: non-scaling-stroke; fill: none; stroke: rgb(255, 165, 0); stroke-opacity: 1; stroke-width: 2px; opacity: 1;"/><path class="js-line" d="M250.99,297.82L251.22,298.93L251.29,295.86L251.37,297.61L251.44,295.52L251.89,298.34L251.97,288.68L252.72,302.75L252.87,302.46L252.95,302.26L253.1,301.64L253.25,302.34L253.32,302.18L253.4,293.31L253.7,301.52L253.77,290.7L254.07,301.34L254.15,284.37L255.05,301.33L255.13,301.63L255.8,301.89L255.88,257.02L256.03,269.21L256.1,289.7L257,298.08L257.08,298.25L257.38,298.45L257.45,295.47L257.98,298.98L258.28,298.84L258.36,298.95L258.51,299.34L258.73,298.89L258.81,297.49L259.56,299.68L259.63,299.63L259.71,297.14L260.08,299.95L260.53,299.9L260.61,300.14L260.91,299.7L261.21,300.28L261.29,297.61L261.44,290.89L261.74,299.49L261.81,299.46L262.71,300.58L262.86,300.07L262.94,300.04L263.69,300.64L263.76,300.99L264.14,300.6L264.22,293.7L264.82,300.48L265.04,300.14L265.12,300.23L265.34,300.68L265.57,300.21L265.64,296.21L266.39,300.73L266.47,300.72L266.54,300.42L266.69,299.06L267.3,299.49L267.37,281.01L267.52,284.39L267.6,208.63L267.75,278.21L267.82,284.18L268.57,292.18L268.65,284.81L269.55,294.65L269.62,294.75L270.45,296.45L270.53,294.02L270.68,296.73L270.83,295.89L270.9,284.77L271.58,297.49L271.73,297.33L271.8,297.53L272.18,279.02L272.25,293.4L272.33,295.02L273.23,297.98L273.31,293.28L273.53,297.09L273.61,297.03L273.68,275.7L273.83,293.57L274.21,274.88L274.51,290.45L274.58,290.91L276.54,299.58L276.61,287.15L277.51,296.89L277.59,283.48L277.66,280.38L278.11,288.29L278.19,288.07L278.26,288.49L278.94,293.98L279.02,296.25L280.07,301.32L280.14,301.4L280.44,301.14L280.52,301.23L280.59,294.27L280.67,294.12L280.82,295.23L280.89,295.57L281.87,300.04L281.94,300.98L282.1,300.14L282.7,301.73L282.92,301.3L283,301.31L283.75,301.67L283.9,301.38L283.97,301.27L284.27,301.42L284.42,297.18L284.5,300.46L284.57,290.72L284.87,299.2L285.03,298.38L285.1,255.57L285.93,290.13L286,250.71L286.08,252.71L286.15,284.56L286.3,289.36L286.45,280.04L286.53,252.86L287.35,291.66L287.43,292L290.13,295.85L290.21,295.66L290.36,295.41L290.58,296.23L290.81,295.84L290.88,296.08L291.49,296.9L291.56,295.65L291.94,294.77L292.39,297.25L292.46,297.03L292.54,297.12L293.21,298.61L293.36,297.88L293.44,298.01L294.79,300.1L294.87,299.72L294.94,299.24L295.24,299.55L295.32,300.25L295.54,295.67L295.62,280.67L296.37,298.6L296.44,298.38L296.52,294.59L296.59,283.19L297.2,296.32L297.27,293.92L297.35,295.25L298.02,297.37L298.32,297.28L298.4,297.15L298.55,287.03L299.15,294.52L299.22,295.4L299.45,297.01L299.52,292.79L299.6,291.44L299.97,296.56L300.05,289.65L300.5,296.13L300.58,296.51L300.65,291.66L300.73,294.59" style="vector-effect: non-scaling-stroke; fill: none; stroke: rgb(255, 165, 0); stroke-opacity: 1; stroke-width: 2px; opacity: 1;"/><path class="js-line" d="M403.27,298.34L404.4,279.77L404.47,280.1L404.55,280.18L404.7,280.8L404.85,279.4L404.92,276.2L405,271.47L405.6,278.63L405.68,279.25L405.83,279.47L406.05,278.54L406.13,275.2L406.43,262.1L406.95,278.93L407.03,279.06L407.25,279.48L407.33,281.75L407.55,280.55L407.63,263.27L408.53,278.81L408.68,278.53" style="vector-effect: non-scaling-stroke; fill: none; stroke: rgb(255, 165, 0); stroke-opacity: 1; stroke-width: 2px; opacity: 1;"/><path class="js-line" d="M408.98,277.3L409.06,272.08L409.51,277.65L409.73,273.03L409.81,275.31L410.03,274.62L410.86,282.72L410.93,276.82L411.61,283.87L411.76,283.31L411.84,282.59L411.91,283.74L411.99,268.67L412.96,277.6L413.04,277.67L413.41,278.14L413.49,275.31L414.47,279.27L414.54,279.25L414.77,279.4" style="vector-effect: non-scaling-stroke; fill: none; stroke: rgb(255, 165, 0); stroke-opacity: 1; stroke-width: 2px; opacity: 1;"/><path class="js-line" d="M416.19,276.62L416.42,276.95L416.49,275.56L417.32,284L417.55,283.78L417.62,283.85L418.22,283.95L418.3,263.24L419.2,284.39L419.27,276.44L419.42,267.36L419.57,272.88" style="vector-effect: non-scaling-stroke; fill: none; stroke: rgb(255, 165, 0); stroke-opacity: 1; stroke-width: 2px; opacity: 1;"/><path class="js-line" d="M420.85,269.63L421,271.31" style="vector-effect: non-scaling-stroke; fill: none; stroke: rgb(255, 165, 0); stroke-opacity: 1; stroke-width: 2px; opacity: 1;"/><path class="js-line" d="M421.68,271.37L422.65,271.84L422.73,271.88L423.48,271.78" style="vector-effect: non-scaling-stroke; fill: none; stroke: rgb(255, 165, 0); stroke-opacity: 1; stroke-width: 2px; opacity: 1;"/><path class="js-line" d="M423.71,271.87L423.86,249.87L424.23,270.1L424.31,270.26L426.34,270.67L426.41,270.63L426.64,270.67L426.71,273.72L427.54,301.44L427.61,301.52L428.14,301.28L428.21,300.65L428.81,287.62L428.96,297.11L429.04,298.24L429.49,299.84L429.57,299.77L429.64,292.24L429.94,300L430.09,278.34L430.39,296.5L430.47,296.99L430.84,295.47L431.14,299.07L431.37,298.45L431.44,291.71L432.27,298.65L432.35,299.02L432.57,299.02L432.65,299.81L432.87,299.81L432.95,296.45L433.02,267.89L433.7,294.97L433.77,294.97L434.9,295.61L434.97,295.58L435.43,295.58L435.5,293.72L436.25,297.61L436.33,297.45L436.4,297.4L437.3,299.98L437.38,299.87L437.45,299.75L437.98,299.71L438.06,300.74L438.21,298.65L438.66,301.16L438.73,301.16L438.81,301.45L439.56,302.59L439.63,275.94L440.53,302.02L440.61,302.02L442.04,302.22L442.11,302.09L442.19,302.04L442.26,301.85L442.56,302.44L442.86,302.2L442.94,302.24L444.89,302.14L444.97,301.27L445.27,302.11L445.34,302.09L445.42,293.31L445.49,291.88L445.57,301.88L445.72,301.88L445.79,302.02L446.02,301.88L446.09,286.1L446.77,302.02L446.84,285.67L447.22,302.38L447.67,301.81L447.75,301.81L448.35,302.16L448.5,301.81L448.57,301.81L448.65,289.02L449.32,301.7L449.4,302.07L449.92,300.74L450.3,301.54L450.38,301.74L450.45,301.96L450.75,301.4L451.05,301.65L451.13,301.4L451.88,301.35L451.95,301.58L452.03,301.98L452.7,301.38L452.93,301.59L453.01,301.59L454.58,301.67L454.66,291.59L455.11,301.56L455.48,301.27L455.56,301.51L455.71,301.73L455.86,301.26L456.01,301.52L456.09,277.82L456.46,300.17L456.76,298.36L456.84,258.26L457.29,299.38L457.66,299.14L457.74,298.37L458.41,299.82L458.56,292.7L458.64,275.27L459.99,298.91L460.07,293.38L460.29,298.91L460.44,282.04L460.82,297.05L460.89,297.76L461.42,298.7L461.49,292.53L461.64,296.29L461.72,251.22L462.55,299.4L462.62,300.37L463,301.44L463.07,295.36L463.45,301.54L463.67,291.51L463.82,299.98L463.9,300.34L464.05,297.63L464.12,269.2L464.35,298.2L464.95,296.09L465.03,297.65L465.18,299.77L465.33,297.43L465.4,286.57L466.23,300.75L466.3,300.69L466.38,300.51L466.98,293.9L467.2,294.45L467.28,295.11L467.43,294.43L467.5,294.58L467.58,276.98L468.41,299.88L468.48,299.88L468.86,300.32L468.93,290.91L469.31,299.43L469.76,298.49L469.83,299.43L470.43,299.88L470.51,297.5L470.73,279.1L470.81,291.22L470.88,293.07L471.26,294.16L471.34,287.43L472.16,301.72L472.31,298.72L472.39,201.84L472.76,286.41L473.21,285.1L473.29,284.71L473.36,281.8L473.89,286.66L473.96,288.17L474.64,290.41L474.72,287.17L475.17,288.29L475.24,284.63L475.32,277.49L475.62,284.74L475.77,209.65L475.99,274.6L476.07,282.41L476.59,289.78L476.67,282.63L476.74,278.21L476.89,285.68L476.97,248.7L477.57,285.22L477.65,264.24L478.02,286.81L478.47,282.19L478.55,283.03L478.7,282.46L479.52,293.36L479.6,293.92L480.5,296.44L480.58,296.4L480.65,294.98L480.73,294.44L481.18,295.72L481.33,295.41L481.4,295.74L482.45,297.37L482.53,297.67L482.83,295.81L483.13,297.31L483.21,297.39L483.28,297.11L483.58,298.36L483.81,298L483.88,298.07L484.03,297.9L484.11,298.78L484.48,298.48L484.56,298.72L484.86,298.65L485.16,299.39L485.23,299.19L485.31,298.65L486.29,299.57L486.36,299.09L486.51,297.59L486.74,300.2L487.04,299.38L487.11,299.69L487.49,298.95L487.79,300.63L487.86,300.38L487.94,299.94L488.31,300.67L488.39,300.31L488.46,292.34L488.76,291.55L488.91,297.99L488.99,289.23L489.82,299.4L489.97,299.13L490.04,299.22L490.19,298.23L490.34,299.78L490.42,300.19L490.49,300.38L490.57,299.64L490.72,299.64L490.79,285.21L491.54,300.25L491.62,300.24L491.69,300.27L492.07,291.83L492.52,296.95L492.6,298.58L492.67,293.03L493.05,301.1L493.27,300.39L493.35,300.42L493.65,300.37L493.72,291.94L494.1,300.07L494.55,298.66L494.62,299.78L494.85,298.6L495.38,299.4L495.45,300.53L495.68,301.84L495.75,301.27L495.83,291.65L496.65,302.28L496.73,302.34L497.1,302.37L497.18,300.44L498.01,302.69L498.08,302.74L498.31,302.68L498.38,301.41L499.13,303.61L499.21,303.12L499.28,302.84L499.36,303.01L499.66,302.46L499.73,301.97L499.96,292.94L500.03,302.13L500.11,302.3L500.26,301.83L500.48,302.4L500.56,282.64L501.31,300.62L501.39,295.8L502.21,302.85L502.29,302.88L502.74,301.91L502.96,302.54L503.04,302.75L503.19,301.76L503.56,302.95L503.64,302.82L503.71,297.98L503.79,234.41L504.39,301.14L504.47,300.98L504.77,298.62L505.14,301.66L505.22,301.86L505.44,297.4L505.67,302.3L505.82,300.89L505.89,300.85L506.12,291.44L506.34,300.27L506.42,300.45L506.72,301.74L506.87,300.71L506.94,286.55L507.02,267.63L507.62,299.07L507.7,299.11L507.92,298.53L508.07,298.74L508.15,285.87L508.9,298.43L509.05,297.2L509.12,296.87L509.42,299.2L509.65,298.2L509.72,293.29L509.87,298.68L510.4,295.91L510.48,293.67L510.63,85.62L511.15,276.12L511.23,276.53L512.2,283.57L512.28,283.9L512.95,288.34L513.03,289.61L513.56,292.39L513.63,288.26L514.53,296.37L514.61,296.97L514.68,290.56L515.28,299.18L515.36,299.03L515.66,299.81L515.81,299.09L515.88,298.24L516.71,300.43L516.79,295.42L517.09,300.29L517.24,284.62L517.31,278.8L517.46,266.02L517.84,292.85L517.91,294L518.74,296.15L518.81,288.55L519.12,285.1L519.72,299.07L519.79,299.22L520.17,299.63L520.24,290.36L520.39,301.35L520.69,287.15L520.84,299.88L520.92,265.29L521.52,290.99L521.74,287.15L521.82,288.04L521.89,280.39L522.42,298.58L522.5,299.08L522.72,299.01L522.8,291.8L522.87,271.64L523.47,300.21L523.55,300.69L523.7,297.28L524.3,300.3L524.37,300.3L525.13,302.13L525.2,300.56L525.28,294.06L525.58,301.32L526.03,299.31L526.1,299.13L527,300.73L527.08,300.35L527.15,294.54L527.23,292.24L527.6,301.47L527.68,301.71L527.75,302.03L527.98,300.8L528.06,299.89L528.28,302.37L528.51,297.84L528.81,301.26L528.88,294.19L529.41,301.32L529.71,300.11L529.78,300.39L530.16,301.25L530.23,294.58L531.14,299.81L531.21,299.68L531.29,299.5L531.44,299.82L531.51,291.43L532.11,295.65L532.19,290.15L532.34,294.51L532.41,291.64L533.54,301.89L533.61,301.88L533.69,301.6L533.84,300.82L533.91,292.99L533.99,276.79L534.59,301.15L534.67,301.23L535.42,301.58L535.49,295.44L536.17,302.26L536.32,302.15L536.39,302.17L537.07,302.33L537.15,299.67L537.75,302.4L537.97,302.27L538.05,302.25L538.12,301.29L538.27,302.27L538.72,302.27L538.8,302.42L539.7,301.79L540,302.39" style="vector-effect: non-scaling-stroke; fill: none; stroke: rgb(255, 165, 0); stroke-opacity: 1; stroke-width: 2px; opacity: 1;"/></g><g class="points"/><g class="text"/></g><g class="trace scatter trace24e99e" style="stroke-miterlimit: 2; opacity: 1;"><g class="fills"/><g class="errorbars"/><g class="lines"><path class="js-line" d="M0,246.74L0.08,247.73L0.15,258.63L0.9,270.96L0.98,272.78L1.95,288.79L2.18,287.69L2.25,287.22L2.48,284.6L2.7,290.73L2.78,289.22L2.85,295.31L3.38,292.55L3.46,288.52L3.91,290.72L4.21,289.68L4.28,289.58L5.11,283.96L5.56,285.59L5.63,285.56L5.86,285.71L5.93,282.82L6.31,291.46L6.76,287.55L6.84,286.81L7.06,285.18L7.21,285.91L7.29,273.97L7.51,291.6L8.04,289.33L8.11,286.1L8.26,286.21L8.49,285.63L8.56,284.41L8.64,284.72L8.79,283.68L8.86,283.95L8.94,282.27L9.24,281.13L9.54,282.61L9.62,262.94L9.77,208.64L10.07,284.45L10.44,280.13L10.52,279.43L11.27,275.23L11.34,275.42L11.42,266.88L11.49,272.6L11.72,249.87L11.79,233.99L12.62,265.64L12.7,265.28L12.77,266.77L13.82,271.98L13.9,269.04L13.97,259.2L14.8,274.81L14.87,275.25L15.25,277.1L15.33,275.93L15.4,273.47L17.73,288.75L17.8,289.59L17.88,287.39L18.33,292.01L18.48,290.66L18.56,290.44L19.53,299.69L19.61,299.09L19.91,295.81L19.98,280.05L20.81,295.5L20.88,295.59L21.79,283.72L22.09,284.52L22.16,241.2L22.24,270L22.76,201.46L22.84,215.53L22.91,201.82L23.21,264.12L23.36,251.65L23.44,257.48L23.51,258.56L23.89,254.16L23.96,253.6L24.19,248.99L24.27,235.36L25.02,121.41L25.09,168.63L25.17,194.55L25.84,225.13L26.07,224.27L26.14,215.07L26.74,228.62L26.82,205.43L27.12,99.49L27.57,192.99L27.65,196.41L28.62,207.61L28.7,199.19L29.6,227.72L29.67,198.47L30.88,248.47L30.95,249.02L31.03,194.57L31.7,247.87L31.78,248L31.85,229.68L32.38,260.91L32.45,260.08L32.53,260.45L32.68,264.52L32.75,242.32L32.83,261.17L32.9,229.57L33.13,207.06L33.43,261.47L33.66,246.75L33.73,239.65L33.81,224.5L34.18,245.93L34.48,239.64L34.56,239.44L34.71,237.28L34.86,238.74L34.93,234.49L35.01,220.72L35.61,240.83L35.68,241.75L36.29,253.34L36.36,146.08L37.04,232.87L37.19,227.88L37.26,210.39L37.64,254.14L37.79,237.25L37.86,223.75L38.01,223.33L38.09,224.43L38.16,228.47L38.24,227.05L38.31,230.13L38.39,239.6L38.46,238.98L38.61,243.32L38.69,244.77L38.91,247.28L38.99,246.46L39.07,221.28L39.37,245.13L39.52,219.2L39.74,231.55L39.82,166.84L40.72,234.87L40.79,237.21L40.94,239.05L41.02,99.18L41.92,215.35L41.99,214.27L42.07,214.68L42.22,212.87L42.3,226.71L42.97,195.24L43.05,162.5L43.87,222.94L43.95,223.88L44.02,211.76L44.62,234.04L44.7,236.21L46.05,263.21L46.13,264.37L46.43,192.42L46.5,227.04L46.58,240.56L46.73,247L46.8,219.98L46.88,148.56L47.7,243.12L47.78,243.02L47.85,242.84L48.01,244.22L48.16,243.46L48.23,244.02L49.06,232.95L49.13,184.35L49.96,238.08L50.03,202.02L50.33,227.86L50.93,219.3L51.01,219.87L51.91,230.35L51.99,231.27L52.14,208.71L52.44,240.97L52.51,243.97L52.89,238.63L53.34,252.46L53.41,245.65L53.49,210.95L54.09,240.57L54.17,242.64L55.14,260.71L55.22,254.42L55.89,265.81L55.97,195.18L56.72,266.62L56.79,252.3L56.87,264.59L57.55,276.87L57.62,275.83L57.7,269.21L58,273.3L58.07,269.71L58.15,284.37L58.22,284.15L58.67,284.91L58.75,285.13L58.97,285.5L59.05,283.26L59.2,283.76L59.27,280.44L59.72,282.79L59.8,267.75L60.03,279.44L60.1,279.43L60.78,280.88L60.85,275.19L61,276.94L61.08,285.19L61.45,289.36L61.83,285.5L61.9,285.2L62.28,287.05L62.35,287.91L62.43,288.13L62.5,282.74L62.8,287.02L62.88,275.13L62.95,232.26L63.48,268.97L63.78,263.17L63.86,262.56L64.31,244.55L64.38,192.61L64.98,246.44L65.06,168.74L65.36,234.32L65.88,233.45L65.96,231.52L66.11,213.57L66.56,219.8L66.64,179.18L67.09,212.84L67.16,166.43L67.24,142.79L67.69,213.22L67.84,194.28L67.91,100.35L67.99,66.73L68.44,188.45L68.51,194.05L68.89,203.28L69.27,197.02L69.34,197.16L69.79,191.97L70.09,194.83L70.17,195.71L73.47,242.32L73.55,222.71L74.15,271.62L74.22,262.13L74.3,193.59L74.82,261.52L75.13,252.45L75.2,253.32L75.35,254.51L75.43,251.36L75.5,244.33L75.73,255.32L76.1,234.58L76.18,233.48L76.33,244.87L76.55,220.58L76.63,231.26L76.7,185.8L76.78,147.63L77.3,225.49L77.38,228.47L77.45,184.83L78.13,215.8L78.21,209.69L78.43,222.96L78.51,188.92L78.96,212.63L79.03,155.29L79.78,215.58L79.86,212.9L79.93,169.42L80.46,210.37L80.83,203.03L80.91,206.8L81.06,209.16L81.14,201.94L81.21,152.96L82.11,217.1L82.19,218.1L82.79,219.09L82.86,126.72L83.01,200.46L83.09,208.45L83.99,224.81L84.07,224.22L84.14,218.3L84.52,215.2L84.82,241.63L84.89,176.96L85.79,264.8L85.87,250.95L86.99,282.22L87.07,282.63L87.3,281.69L87.82,287L87.9,290.78L88.12,291.34L88.2,287.06L88.35,289.79L88.42,297.16L88.57,303.14L88.95,298.37L89.02,297.86L89.4,292.12L89.47,294.9L89.55,298.37L89.7,298.83L89.92,296.3L90,295.53L90.23,294.34L90.68,295.58L90.75,295.96L91.2,295.74L91.88,297.86L91.95,297.49L92.03,296.78L92.93,293.7L93.01,295.15L93.53,297.57L93.83,297.26L93.91,297.09L94.28,298.45L94.66,297.55L94.73,297.43L95.03,297.65L95.11,296.34L95.18,298L95.26,291.34L95.41,295.43L95.48,283.49L95.63,293.03L95.71,256.52L96.24,289.9L96.31,290.23L96.46,290.58L96.69,289.14L96.76,288.18L96.84,287.52L96.99,287.66L97.06,279.7L97.89,286.49L97.96,286.65L98.04,286.26L98.41,288.08L98.49,288.1L100.22,296.32L100.29,294.51L100.37,289.33L100.44,277.44L101.04,293.84L101.12,294.11L102.77,287.87L102.85,291.68L102.92,291.27L103.3,292.96L103.37,293.5L103.45,293.72L103.52,293.08L103.6,290.99L103.9,293.29L104.12,282.88L104.27,290.94L104.35,292.08L105.25,293.58L105.33,293.44L105.63,292.31L105.7,291.9L106,278.7L106.08,272.55L106.83,250.06L106.9,250.63L106.98,287.67L107.73,271.66L107.8,226.03L108.11,266.37L108.56,261.38L108.63,260.29L109.31,247.84L109.38,254.74L109.46,256.02L109.61,256.65L109.68,253.77L109.83,256.03L109.91,246.12L110.81,269.95L110.88,272.15L111.11,271.69L111.56,287.39L111.64,284.06L111.71,270.54L111.79,250.87L112.39,278.71L112.46,280.23L113.44,286.07L113.51,283.53L113.96,289.48L114.34,286.45L114.42,287.27L114.72,289.82L114.87,288.8L114.94,292.66L115.17,295.87L115.69,294.36L115.77,293.75L116.22,273.4L116.29,241.32L116.89,286.77L117.12,282.78L117.2,284.42L117.5,286.09L117.57,283.37L117.65,245.9L117.95,273.8L118.47,269.47L118.55,270.34L118.92,238.7L119,157.04L119.15,134.6L120.28,234.73L120.35,225.72L120.95,242.53L121.03,222.88L121.18,236.27L121.25,231.86L121.4,173.73L121.85,227.17L121.93,226.64L122.68,216.72L122.75,171.26L123.66,210.16L123.73,211.99L125.23,233.39L125.38,230.6L125.46,175.63L125.53,159.13L125.98,222.12L126.06,220.63L126.81,251.38L126.89,248.57L126.96,225.46L127.11,85.22L127.49,216.82L127.56,221.62L128.54,235.34L128.61,234.52L128.69,227.87L129.07,236.77L129.29,235.8L129.37,234.94L129.67,229.83L130.12,233.09L130.19,232.65L130.72,222.59L130.94,226.85L131.02,212.77L131.92,230.1L131.99,230.4L132.07,229.85L132.15,189.78L132.9,227.29L132.97,187.83L133.2,181.12L133.87,224.89L133.95,226.13L134.55,234.85L134.62,236.46L135.6,252.18L135.68,230.08L136.58,266.9L136.65,267.26L136.8,262.03L137.18,268.37L137.25,270.24L138.76,289.77L138.83,290.41L139.36,292.2L139.43,289.46L139.58,289.9L139.66,288.22L139.73,292.93L140.63,295.34L140.78,294.86L140.86,294.19L141.61,288.07L141.91,288.72L141.99,270.24L142.21,295.11L142.81,289.92L142.89,289.94L143.34,290.54L143.71,287.88L143.79,285.24L143.94,286.13L144.09,284.83L144.17,239.3L144.24,228.21L144.62,283.48L144.69,283.98L144.77,284.15L144.84,283.92L144.92,260.03L145.44,287.36L145.67,275.02L145.74,259.65L145.89,274.46L146.34,245.95L146.49,262.14L146.57,264.85L146.72,268.27L146.79,207.84L147.4,283.14L147.62,269.44L147.7,269.04L147.85,267.8L148.07,269.44L148.15,269.43L148.22,270.41L148.9,272.38L148.97,268.5L149.05,266.07L149.42,273.04L149.5,272.95L149.57,273.25L149.65,272.35L150.03,275.65L150.18,274.33L150.25,275.03L150.33,275.32L150.4,274.94L150.48,260.74L151.08,279.17L151.3,277.57L151.38,279.04L153.18,292.88L153.26,300.24L154.08,302.54L154.31,302.43L154.38,302.54L155.06,302.9L155.13,302.8L155.21,301.94L155.28,300.9L155.81,303.93L155.88,303.68L156.79,303.1L156.86,303.51L157.24,303.21L157.31,301.48L158.06,302.69L158.21,302.31L158.29,302.2L159.04,302.11L159.12,301.1L159.19,301.73L159.27,256.33L159.42,234.99L159.72,279.59L159.87,278.4L159.94,277.4L160.99,243.37L161.07,241.37L161.29,234.44L161.37,235.75L161.44,176.03L162.27,236.62L162.35,235.81L163.25,245.98L163.32,194.99L163.92,248.79L164,168.59L164.9,241.25L164.97,244.03L166.7,278.33L166.78,259.65L167.6,284.58L167.68,285.61L167.75,280.77L168.21,288.32L168.43,282.42L168.51,282.06L168.73,279.51L169.33,289.63L169.41,290.03L169.71,288.09L170.16,294.45L170.38,294.18L170.46,293.7L170.83,291.32L171.14,295.06L171.21,294.73L171.66,294.17L171.96,294.73L172.04,294.97L172.19,295.02L172.26,292.79L172.71,294.86L173.01,293.5L173.09,293.75L173.16,290.55L173.61,298.88L173.69,301.31L173.76,301.55L174.07,300.11L174.14,299.3L174.89,297.11L175.04,297.48L175.12,297.63L175.72,299.18L175.79,296.67L175.87,299.35L176.54,298.29L176.62,298.37L177.45,295.09L177.52,294.75L177.75,294.33L178.12,295.28L178.2,295.51L179.7,298.73L179.77,298.8L179.92,298.74L180,281.85L180.68,296.48L180.83,295.44L180.9,290.24L180.98,295.53L181.65,294.29L181.73,287.04L182.25,295.4L182.48,288.74L182.55,290.78L182.7,292.81L182.93,289.93L183.01,289.03L183.68,275.71L183.76,273.03L183.83,272.89L183.91,280L184.66,294.43L184.73,294.21L184.81,294.49L185.63,297.06L185.71,294.32L185.78,297.14L185.93,277.75L186.39,293.5L186.46,294.23L186.54,276.2L187.21,288.08L187.29,285.37L188.11,243.78L188.19,257.2L188.26,265.53L188.34,251.45L188.64,267.99L189.02,263.26L189.09,260.98L189.24,243.76L189.47,249.38L189.54,200.47L189.62,158.54L189.99,229.43L190.22,197.07L190.29,207.41L190.44,217.83L190.67,191.72L190.74,123.62L191.27,200.05L191.49,165.9L191.57,141.79L192.32,184.68L192.4,168.79L192.47,167.97L193.07,200.97L193.37,195.54L193.45,197.43L193.6,200.26L193.67,201.82L194.2,206.51L194.27,172.8L194.35,148.25L194.87,210.14L194.95,210.77L196.75,243.9L196.83,235.24L197.35,258.27L197.43,217.35L198.26,268.83L198.33,269.48L198.63,279.42L198.86,276.66L198.93,259.01L199.01,282.34L199.68,275.84L199.76,276.81L199.83,276.49L199.98,279.25L200.06,269.43L200.66,283.39L200.81,282.56L200.88,274.31L201.26,276.67L201.56,258.36L201.71,265.73L201.79,272.81L202.09,260.44L202.39,277.36L202.46,259.48L202.61,276.63L202.84,192.72L203.06,267.06L203.14,265.09L203.51,258.78L203.59,252.04L203.66,255.33L204.12,243.49L204.19,241.41L204.49,241.65L204.87,229.95L205.17,234.57L205.24,235.32L205.69,228.46L205.84,232.34L205.92,211.32L205.99,208.94L206.29,222.54L206.37,224.84L206.82,228.39L206.89,181.47L206.97,122.11L207.57,215.29L207.65,217.44L208.02,151.48L208.17,204.99L208.25,214.22L208.55,224.66L208.7,211.27L209.07,222.64L209.15,225.6L209.3,224.74L209.37,221.94L209.52,223.43L209.6,165.88L209.75,173.13L209.82,153.19L209.9,173.04L209.97,188.34L210.88,217.68L210.95,217.35L211.03,217.55L211.55,222.53L211.7,222.42L211.78,215.33L212,208.09L212.3,225.77L212.38,226.64L213.73,253.25L213.81,195.74L213.96,190.47L214.03,140.77L214.48,245.13L214.78,224.65L214.86,203.48L214.93,203.82L215.01,217.03L215.16,206.75L215.83,222.34L215.91,223.18L216.21,224.42L216.29,191.39L216.51,216.83L216.59,219.49L216.66,221.79L217.11,212.81L217.19,212.55L217.26,210.8L217.34,175.84L218.24,228.96L218.31,229.4L218.61,223.66L218.91,235.08L218.99,222.61L219.97,252.09L220.04,230.68L220.79,258.37L220.87,254.53L220.94,251.1L221.84,271.92L221.92,270.64L222.82,280.55L222.9,280.91L222.97,278.82L223.5,284.35L223.57,284.55L223.65,284.94L223.72,284.14L223.8,270.66L224.4,297.14L224.62,296.61L224.7,296.19L226.5,282.43L226.58,283.08L226.65,287.08L227.1,291.33L227.4,290.21L227.48,284.57L227.78,290.07L228.23,289.11L228.31,289.35L228.38,287.96L228.91,290.94L228.98,291.96L229.21,293.79L229.28,283.97L229.36,228.16L229.58,290.62L229.96,289.1L230.03,288.87L231.24,280.61L231.31,278.88L232.29,269.07L232.66,270.89L232.74,270.39L232.89,270.2L233.86,274.8L233.94,260.88L234.17,230.28L234.69,259.69L234.77,264.05L234.92,267.03L234.99,263.33L235.07,250.69L235.89,269.26L235.97,269.4L236.19,267.79L236.34,272.13L236.42,273.07L236.49,272.78L236.57,266.19L237.25,277.16L237.32,264.07L237.55,275.8L237.7,247.67L238.07,270.49L238.15,267.57L238.3,271.09L238.37,255.05L238.45,234.77L238.67,265.67L239.2,264.97L239.27,256.38L239.57,263.99L239.72,186.52L240.03,240.38L240.1,242.86L240.33,251.23L240.4,258.52L240.48,263.58L240.7,245L240.78,228.43L241.68,252.18L241.75,235.25L242.28,256.52L242.35,225.01L242.58,250.31L242.65,241.5L242.8,253.77L242.88,213.2L243.33,238.24L243.41,233.1L243.71,241.15L243.78,205.13L243.86,220.54L243.93,104.47L244.46,198.3L244.53,199.35L244.68,166.24L244.98,200.9L245.06,203.46L245.73,213.51L245.81,195.21L246.64,219.62L246.71,192.44L246.94,212.67L247.01,211.66L247.09,150.46L247.91,212.92L247.99,210.5L248.59,163.66L248.74,202.72L248.81,207.15L249.64,225.77L249.72,239.39L249.94,235.52L250.02,229.72L250.39,223.96L250.69,238.22L250.77,178.28L251.14,247.78L251.59,232.99L251.67,236.9L251.89,235.74L251.97,243.36L252.05,205.25L252.87,250.44L252.95,251.17L253.1,252.4L253.17,254.42L253.4,257.11L253.47,216.86L254.07,267.29L254.15,261.58L254.22,212.47L254.97,271.18L255.05,265.28L255.13,257.87L255.2,272.43L255.88,263.53L255.95,147.47L256.03,89.43L256.55,212.04L256.63,217.6L257,217.41L257.23,226.81L257.38,220.88L257.45,217.11L257.53,188.78L257.9,223.73L258.13,220.3L258.21,225.07L259.18,250.02L259.48,248.28L259.56,247.63L259.71,245.11L259.78,226.9L260.08,241.6L260.53,237.63L260.61,238.28L260.68,237.26L261.06,241.12L261.14,241.78L261.29,243.64L261.36,227.64L261.51,190.64L262.04,237.1L262.11,236.9L263.01,245.6L263.16,244.87L263.24,244.31L264.14,251.82L264.22,219.04L265.04,248.02L265.12,248.28L265.64,252.49L265.72,237.18L266.62,261.67L266.69,262.81L266.77,258.48L266.99,270.9L267.15,267.4L267.22,293.01L267.37,296L267.45,202.36L267.52,251.32L267.67,112.77L268.12,157.67L268.2,160.42L268.5,174.94L268.65,172.45L268.72,117.79L269.77,204.16L269.85,207.47L270.83,230.04L270.9,225.47L270.98,160.2L271.58,233.72L271.8,228.51L271.88,230.86L271.95,229.57L272.03,202.53L272.1,217.79L272.18,118.93L272.78,209.7L272.85,213.4L272.93,213.14L273.01,215.83L273.31,224.69L273.38,211.19L273.46,206.09L273.61,221.06L273.68,211.72L273.76,139.31L273.91,191.89L274.21,110.96L274.58,184.56L274.66,181.72L275.63,204.76L275.71,206.96L276.01,203.89L276.31,214.1L276.39,216.3L276.54,219.19L276.61,202.85L276.76,191.48L277.14,225.72L277.21,228.45L277.59,234.52L277.66,148.63L278.64,213.51L278.71,214.25L278.94,219.65L279.02,227.89L279.09,223.28L279.69,231.96L279.77,232.67L280.59,248.32L280.67,234L281.49,259.94L281.57,260.64L283.15,277.3L283.52,274.66L283.6,273.9L284.12,268.99L284.35,269.32L284.42,251.52L284.65,221.06L285.1,269.73L285.18,142.74L285.33,101.54L285.78,162.65L285.85,161.26L285.93,152.53L286,144.65L286.08,46.79L287.05,169L287.13,174.93L288.18,216.24L288.26,215.41L289.76,248.97L289.83,249.93L291.79,265.98L291.86,265.84L291.94,261.17L292.01,259.27L292.16,262.7L292.61,261.71L292.69,261.3L292.91,258.67L293.06,260.4L293.14,261.97L293.21,261.77L293.36,263.32L293.44,262.8L293.51,264L293.59,263.87L293.66,262.17L294.34,257.92L294.42,258.57L294.49,261.25L294.79,262.86L295.02,261.68L295.09,260.77L295.47,259.82L295.54,261.26L295.62,227.46L295.69,188.54L296.22,249.26L296.29,247.29L296.37,244.49L296.44,248.01L296.59,220.59L296.67,169.39L297.57,248.22L297.65,251.7L298.62,196.51L298.7,217.3L298.77,225.22L299,231.49L299.07,171.28L299.9,235.79L299.97,234.41L300.05,239.26L300.13,203.16L300.65,248.03L300.73,240.96L300.8,246.78L301.18,239.39L302.08,268.41L302.15,268.5L302.6,271.99L302.68,272.97L305.38,293.8L305.46,293.75L305.53,293.75L305.91,293.27L305.98,289.89L306.44,287.93L306.81,291.65L306.89,291.38L307.04,291.25L308.01,294.16L308.24,293.09L308.31,292.53L308.54,287.03L309.07,288.49L309.14,288.32L309.22,283.16L309.89,287.48L309.97,286.29L310.04,225.9L310.34,291.24L310.64,289.3L310.72,288.76L311.02,274.63L311.17,279.17L311.24,283.21L311.47,284.87L311.62,279.63L311.69,258.77L312.22,285.9L312.52,282.87L312.6,283.75L312.82,285.83L312.9,286.35L312.97,286.71L313.05,284.99L313.12,278.53L313.27,280.88L313.57,273.54L313.65,271.04L314.47,240.87L314.85,254.29L314.92,256.12L317.85,280.17L317.93,276.31L318.46,265.09L318.83,286.79L318.91,288.91L318.98,289.29L319.06,286.31L319.13,284.78L319.28,276.97L319.66,289L319.88,281.33L319.96,286.78L320.78,295.26L320.86,295.23L320.93,295.21L321.24,297.18L321.61,283.69L321.76,285.25L321.84,238.85L322.21,286.68L322.66,273.51L322.74,269.12L322.96,267.62L323.04,267.69L323.11,264.42L323.34,268.16L323.86,223.69L324.24,239.45L324.32,248.18L324.39,247.63L324.54,251.84L324.84,249.88L324.92,249.59L325.14,245.66L325.52,252.34L325.59,253.09L325.82,174.74L326.34,221.47L326.42,233.27L326.49,238.73L327.02,231.09L327.1,227.46L327.17,159.34L327.85,213.16L327.92,216.32L328.22,211.87L328.75,219.26L328.82,219.31L328.9,218.92L328.97,178.9L329.87,221.56L329.95,191.2L330.85,237.83L330.93,239.32L331.3,245.14L331.38,240.2L331.45,231.43L331.83,244.72L331.9,223.33L332.05,232.39L332.13,216.26L332.2,211.26L332.5,237.94L332.58,242.47L332.73,232.91L333.48,260.38L333.56,250.94L333.93,238.68L334.31,267.36L334.38,261.02L334.76,222.96L334.98,288.19L335.28,278.09L335.36,263.89L335.58,292.31L336.11,281.63L336.19,286.08L336.34,281.83L336.41,273.65L336.64,271.24L336.79,274.83L336.86,280.72L337.09,281.05L337.16,280.09L337.24,270.02L337.84,260.84L337.91,270.15L337.99,262.96L338.06,272.6L339.79,283.87L339.87,283.68L340.24,283.53L340.32,281.57L340.84,280.14L340.92,281.89L340.99,283.82L341.07,279.97L341.14,219.1L341.22,191.62L341.59,275.93L341.67,274.84L341.74,273.92L342.72,266.89L342.8,267.22L342.87,269.36L342.95,268.32L343.1,272.89L343.32,270.97L343.4,272.82L343.47,272.21L343.55,261.03L344.3,271.1L344.37,270.93L344.45,271.49L344.52,271.92L344.67,271.54L344.75,254.04L345.58,273.71L345.65,272.77L345.73,274.73L345.8,238.94L346.55,270.12L346.63,266.42L346.7,264.65L346.78,264.86L346.85,257.85L347.23,269.07L347.45,254.53L347.68,268.61L347.75,269.26L347.83,268.14L347.9,268.75L347.98,253.28L348.73,271.25L348.81,270.71L348.88,271.55L348.96,270.82L349.18,273.15L349.41,272.9L349.48,273.33L350.46,268.8L350.53,262.19L350.98,276.23L351.36,268.18L351.44,226.07L351.81,247.98L352.26,244.86L352.34,244.97L352.49,264.75L352.86,239.92L353.01,248.39L353.09,244.42L353.91,260.59L353.99,258.64L354.07,257.47L354.44,254.43L354.74,258.24L354.82,257.96L354.97,256.18L355.12,258.5L355.19,258.02L355.27,260.35L355.34,260.1L355.42,243.13L355.49,258.01L355.72,216.45L356.17,256.3L356.24,257.13L356.32,257.44L356.47,255.61L356.54,254.98L356.77,249.79L356.84,220.23L356.92,221.31L356.99,241.1L357.07,180.44L357.52,250.21L357.75,233.37L357.82,237.98L357.97,230.97L358.42,240.89L358.5,229.14L358.57,203.15L359.02,238.03L359.17,233.5L359.25,240.38L359.85,250.79L359.92,241.79L360.15,217.4L360.6,253.59L360.68,241.36L360.9,205.85L361.28,249.71L361.43,248.41L361.5,245.02L361.95,220.35L362.03,114.64L362.63,224.92L362.85,224.83L362.93,225.32L363.16,210.02L363.31,220.79L363.38,192.06L363.76,157.44L364.21,227.66L364.28,227.99L364.43,210.23L364.73,224.78L364.81,150.25L365.18,222.6L365.63,219.52L365.71,218.44L365.78,219.55L365.86,206.77L366.84,229.94L366.91,230.83L367.44,239.03L367.51,221.51L367.59,207.72L367.96,244.5L368.11,240.16L368.19,244.55L368.26,245.69L368.34,219.39L368.64,241.77L369.09,228.92L369.17,223.67L369.54,33.34L369.99,163.6L370.07,171.72L370.44,199.96L370.67,171.2L371.04,198.44L371.12,199.82L371.27,199.73L371.34,200.97L372.02,221.76L372.1,203.17L372.25,224.47L372.85,215.1L372.92,214.22L373,214.83L373.07,211.5L373.22,213.53L373.3,195.08L374.2,225.81L374.27,227.57L374.35,228.47L374.42,211.97L375.33,236.22L375.4,236.62L375.85,242.03L375.93,229.62L376.38,243.82L376.53,243.68L376.6,221.43L377.2,243.39L377.43,242.6L377.5,242.79L377.8,240.5L377.88,198.04L378.71,242.99L378.78,241.14L378.86,236.64L379.76,252.69L379.83,239.85L379.98,252.8L380.06,203.03L380.51,244.3L380.58,237.76L380.88,263.21L381.34,256.08L381.41,256.67L381.79,257.76L381.94,257.21L382.01,259.09L382.16,259.69L382.24,259.52L382.31,239.81L383.06,263.08L383.14,262.59L383.21,248.01L383.44,241.71L383.74,261.47L383.81,254.94L383.89,222.74L384.72,270.23L384.79,271.8L384.94,263.21L385.32,277.72L385.39,278.7L387.27,300.46L387.5,297.48L387.57,297.05L387.72,295.51L387.8,298.1L387.87,303.65L388.77,288.12L388.92,289.25L389,289.48L389.37,276.2L389.6,287.71L389.67,288.29L390.2,286.78L390.28,277.55L390.35,247.38L390.8,283.2L390.95,280.62L391.03,280.09L391.18,280.23L391.33,279.09L391.78,280.12L391.85,280.05L391.93,280.75L392,280.11L392.08,274.7L392.23,277.11L392.3,274.91L392.38,261.6L392.45,260.95L392.53,271.13L393.13,276.55L393.36,273.82L393.43,274.35L393.66,277.16L393.88,272.98L394.03,273.12L394.11,268.02L394.33,250.31L394.78,273.02L394.86,169.97L395.16,264.07L395.68,248.5L395.76,247.56L396.51,240.08L396.81,241.11L396.89,241.83L397.11,241.56L397.94,247.94L398.01,248.4L398.99,258.96L399.07,252.08L400.34,272.99L400.42,264.33L400.57,273.5L401.24,271.76L401.32,272.55L402.52,284.78L402.6,281.76L402.67,276.34L403.2,284.73L403.27,282.47L403.35,284.14L403.57,281.1L403.65,261.01L404.32,280.63L404.62,279.86L404.7,279.24L404.92,280.13L405,238.54L405.15,268.35L405.75,256.89L405.83,255.57L405.98,255.06L406.05,265.26L406.2,238.34L406.43,241.3L406.5,147.39L407.18,233.88L407.4,230.6L407.48,229.75L407.63,222.39L407.7,136.91L408.08,223.15L408.61,220.26L408.68,220.75L408.83,216.11L408.91,206.74L409.13,170.85L409.51,190.26L409.58,200.19L409.96,209.38L410.03,194.07L410.41,207.5L410.48,202.43L410.56,204.85L410.63,188.65L410.93,202.61L411.01,172.86L411.99,217.29L412.06,152.65L412.96,245.43L413.04,248.49L414.24,264.35L414.32,265.01L414.62,276.36L414.69,278.37L414.84,284.68L414.92,272.72L414.99,224.01L415.82,278.13L415.89,277.37L415.97,268.1L416.19,280.44L416.64,271.87L416.72,271.77L416.79,269.94L417.25,276.95L417.32,280.16L417.77,286.52L418.15,284.69L418.22,284.73L418.3,279.96L418.82,288.45L418.9,288.16L418.97,287.63L419.27,285.25L419.35,278.34L419.87,285.75L420.1,285.36L420.18,282.2L420.33,275.28L420.7,285.44L420.78,261.88L420.85,213.23L421.45,283.78L421.53,281.72L421.68,282.43L421.75,279.33L422.05,279.52L422.13,279.37L422.5,278.34L422.58,271.17L422.73,278.09L423.33,275.47L423.41,275.1L423.71,272.59L423.78,227.03L423.93,165.75L424.46,256.56L424.61,253.53L424.68,251.45L425.66,228.91L425.73,232.78L425.81,237.7L425.96,224.07L426.19,231.88L426.26,234.29L427.16,229.09L427.24,229.89L427.31,230.02L427.84,231.5L427.91,233.06L428.21,235.1L428.29,221.26L428.44,224.38L428.51,208.79L428.74,216.41L428.81,186.89L429.57,232.54L429.72,219.66L429.79,228.67L430.02,235.74L430.09,200.49L430.17,168.37L430.77,224.71L430.84,224.77L431.37,226.45L431.52,179.13L431.59,201.83L431.67,213.25L432.12,212.57L432.72,227.99L432.8,228.71L432.95,231.91L433.02,135.13L433.1,80.32L433.55,204L433.62,184.1L433.7,200.01L434.52,227.84L434.67,227.43L434.75,226.69L434.97,209.27L435.35,213.63L435.43,228.47L435.58,167.42L436.18,217.96L436.25,219.5L436.55,223.61L436.63,200.41L437.15,195.99L437.53,229.68L437.6,231.08L438.13,240.21L438.21,225.99L438.28,168.57L438.88,237.73L438.96,239.87L439.63,255.28L439.71,226.36L440.61,266.55L440.68,267.26L441.14,276.53L441.21,278.52L441.36,278.25L442.04,285.59L442.19,285.29L442.26,284.64L443.31,288.94L443.39,286.81L444.22,291.28L444.29,291.34L445.12,288.28L445.19,289.67L445.27,290.16L445.49,289.02L445.79,291.67L445.94,290.75L446.02,290.27L446.17,276.53L446.24,292.49L446.54,295.73L446.84,293.56L446.92,277.33L447.22,289.75L447.67,286.06L447.75,285.39L448.57,281.72L448.65,265.82L448.72,212.29L449.32,282.99L449.4,283.47L449.7,287.12L449.92,279.59L450.15,283.67L450.23,282.66L451.43,274.76L451.65,275.47L451.73,276.56L451.8,275.36L452.4,276.91L452.48,277.56L452.55,277.8L452.63,277.61L452.7,272.54L453.53,280.45L453.61,281.08L453.91,280.08L454.51,284.58L454.58,285.47L454.66,285.85L454.73,240.94L455.11,277.03L455.56,276.83L455.63,276.16L455.71,276.58L456.01,275L456.09,275.73L456.16,193.74L456.54,262.16L456.84,207.45L456.91,129.94L457.36,234.86L457.81,225.98L457.89,228.96L458.04,227.5L458.11,229.74L458.19,221.39L458.26,219.65L458.41,223.51L458.49,183.25L458.64,145.52L459.32,215.51L459.39,213.2L459.54,214.87L459.62,213.88L459.69,209.93L460.44,116.95L460.59,167.43L460.67,181.63L461.34,201.51L461.49,199.59L461.57,147.96L461.64,156.58L461.72,141.2L461.79,64.64L462.7,189.68L462.77,196.04L463.07,204.89L463.15,171.15L463.52,205.42L463.67,190.79L463.75,122.05L464.05,187.21L464.12,118.82L464.5,172.36L464.57,149.83L464.8,106.32L465.25,193.85L465.4,189.07L465.48,154.34L466.38,200.45L466.45,199.04L467.58,212.28L467.65,118.74L468.26,212.3L468.48,204.69L468.56,209.14L468.93,218.23L469.01,177.37L469.91,241.02L469.98,246.74L470.43,259.77L470.58,242.28L470.88,256.18L470.96,256.48L471.11,251.72L471.34,261.75L471.41,242.32L471.71,267.96L471.86,231.54L471.94,264.2L472.01,263.56L472.16,265.74L472.24,265.48L472.31,244.2L472.39,251.98L472.46,131.43L473.44,272.01L473.51,271.95L474.04,253.69L474.49,257.9L474.57,258.08L475.17,295.56L475.32,295.36L475.39,182.57L475.69,280.63L475.84,140.46L476.14,188.24L476.22,202.7L476.59,222.55L476.74,179.74L476.82,168.38L477.05,100.43L477.65,199.09L477.72,143.26L478.1,205.25L478.62,197.8L478.7,205.12L478.77,188.36L479.15,212.49L479.37,211.62L479.45,209.75L480.28,194.22L480.58,199.17L480.65,199.21L481.48,205.7L481.78,204.87L481.85,211.7L482.6,229.78L482.83,228.67L482.9,214.83L483.73,235.56L483.81,235.71L484.63,246.46L484.71,247.77L485.01,256.65L485.53,255.43L485.61,253.76L485.76,254.82L485.83,253.75L485.91,251.99L486.44,255.43L486.51,243.91L486.66,247.16L486.74,252.33L487.34,256.52L487.49,253.53L487.56,253.91L488.24,264.14L488.31,293L488.39,293.35L488.46,292.65L488.54,277.03L488.76,274.64L488.99,294.7L489.14,281.65L489.22,279.18L489.52,271.37L489.59,286.98L489.67,278.7L489.74,284.87L490.19,263.01L490.27,245.15L490.34,251.11L490.57,240.93L490.72,242.95L490.79,224.94L490.87,186.06L491.47,234.76L491.54,236.36L491.77,239.43L491.84,235.69L491.92,187.96L492.37,232.22L492.67,231.14L492.75,200.79L493.65,255.01L493.72,256.5L493.8,233.53L494.1,263.1L494.4,263.09L494.47,263.85L494.55,262.65L494.77,268.03L494.85,269.63L495.75,280.86L495.83,280.63L495.9,247.71L496.65,279.82L496.73,279.62L496.8,278.93L497.25,272.71L497.33,277.83L497.4,278.52L497.63,279.68L497.7,278.34L497.78,281.71L498.38,284.75L498.61,284.04L498.68,281.85L499.06,281.75L499.51,287.37L499.66,285.44L499.73,282.96L499.88,289L500.03,280.83L500.48,287.78L500.56,286.03L500.63,276.1L500.86,290.51L501.24,283.79L501.31,288.85L501.39,292.09L502.06,289.13L502.14,289.55L502.66,292.53L502.96,291.72L503.04,291.1L503.11,290.88L503.19,284.37L503.71,290.44L503.79,191.59L504.02,282.66L504.62,265.83L504.69,263.06L505.44,247.82L505.52,231.02L505.82,240.83L506.04,236.89L506.12,191.5L506.94,224.77L507.02,99.35L507.77,207.97L508.15,203.29L508.22,135.37L509.5,208.95L509.57,210.36L509.72,211.73L509.8,185.6L510.4,224.81L510.55,221.5L510.63,68.21L510.78,16L511.23,145.3L511.3,153.7L512.43,200.05L512.5,197.26L512.58,197.02L513.56,206.84L513.63,206.68L513.71,188.14L514.61,216.64L514.68,217.82L514.76,169.91L515.43,215.79L515.51,216.71L515.66,218.53L515.73,209.64L515.96,201.38L516.71,225.59L516.79,224.36L516.86,173.95L517.16,213L517.31,107.06L517.39,143.45L517.46,88.03L518.36,205.2L518.44,205.85L518.81,211.08L518.89,176.83L519.19,172.66L519.72,209.04L519.79,209.72L520.24,222.64L520.32,162.86L520.47,209.85L520.69,147.75L520.92,186.61L520.99,108.31L521.59,194.95L521.82,174.26L521.89,186.66L521.97,140.41L522.57,204.37L522.65,205.51L522.72,205.28L522.8,205.4L522.87,144.2L523.55,205.04L523.85,201.98L523.92,204.11L525.2,231.78L525.28,206.3L525.73,190.46L526.25,246.65L526.33,249.65L527.08,266.41L527.15,249.17L527.23,226.76L527.83,268.61L527.9,268.52L528.06,262.75L528.43,269.24L528.51,270.23L528.58,269.53L528.88,273.94L528.96,249.54L529.63,279.24L529.78,271.39L529.86,277.35L530.08,278.16L530.23,276.61L530.31,246.65L530.98,278.87L531.14,275.03L531.21,272.56L531.44,276.19L531.59,224.28L531.66,266.82L531.74,274.49L531.81,274.02L531.89,278.8L532.11,279.07L532.49,243.49L532.71,261.07L532.79,263.1L532.86,263.63L533.09,261.02L533.16,259.29L533.39,257.13L533.54,259.04L533.61,260.61L533.84,263.48L533.91,260.58L533.99,224.35L534.07,201.53L534.52,268.4L534.59,270.42L535.19,274.28L535.42,274.22L535.49,270.96L535.57,230.19L536.24,270L536.32,271.61L537.15,280.47L537.22,269.73L538.05,285.09L538.12,285.3L538.2,282.02L538.8,288.07L538.87,288.89L539.7,293.08L539.77,290.82L540,294.32" style="vector-effect: non-scaling-stroke; fill: none; stroke: rgb(31, 119, 180); stroke-opacity: 1; stroke-width: 2px; opacity: 1;"/></g><g class="points"/><g class="text"/></g></g></g><g class="overplot"/><path class="xlines-above crisp" d="M0,0" style="fill: none;"/><path class="ylines-above crisp" d="M0,0" style="fill: none;"/><g class="overlines-above"/><g class="xaxislayer-above"><g class="xtick"><text text-anchor="middle" x="0" y="433" transform="translate(177.51,0)" style="font-family: 'Open Sans', verdana, arial, sans-serif; font-size: 12px; fill: rgb(42, 63, 95); fill-opacity: 1; white-space: pre; opacity: 1;">2005</text></g><g class="xtick"><text text-anchor="middle" x="0" y="433" style="font-family: 'Open Sans', verdana, arial, sans-serif; font-size: 12px; fill: rgb(42, 63, 95); fill-opacity: 1; white-space: pre; opacity: 1;" transform="translate(314.69,0)">2010</text></g><g class="xtick"><text text-anchor="middle" x="0" y="433" style="font-family: 'Open Sans', verdana, arial, sans-serif; font-size: 12px; fill: rgb(42, 63, 95); fill-opacity: 1; white-space: pre; opacity: 1;" transform="translate(451.87,0)">2015</text></g><g class="xtick"><text text-anchor="middle" x="0" y="433" style="font-family: 'Open Sans', verdana, arial, sans-serif; font-size: 12px; fill: rgb(42, 63, 95); fill-opacity: 1; white-space: pre; opacity: 1;" transform="translate(589.05,0)">2020</text></g></g><g class="yaxislayer-above"><g class="ytick"><text text-anchor="end" x="79" y="4.199999999999999" transform="translate(0,404.02)" style="font-family: 'Open Sans', verdana, arial, sans-serif; font-size: 12px; fill: rgb(42, 63, 95); fill-opacity: 1; white-space: pre; opacity: 1;">0</text></g><g class="ytick"><text text-anchor="end" x="79" y="4.199999999999999" style="font-family: 'Open Sans', verdana, arial, sans-serif; font-size: 12px; fill: rgb(42, 63, 95); fill-opacity: 1; white-space: pre; opacity: 1;" transform="translate(0,368.31)">5</text></g><g class="ytick"><text text-anchor="end" x="79" y="4.199999999999999" style="font-family: 'Open Sans', verdana, arial, sans-serif; font-size: 12px; fill: rgb(42, 63, 95); fill-opacity: 1; white-space: pre; opacity: 1;" transform="translate(0,332.61)">10</text></g><g class="ytick"><text text-anchor="end" x="79" y="4.199999999999999" style="font-family: 'Open Sans', verdana, arial, sans-serif; font-size: 12px; fill: rgb(42, 63, 95); fill-opacity: 1; white-space: pre; opacity: 1;" transform="translate(0,296.9)">15</text></g><g class="ytick"><text text-anchor="end" x="79" y="4.199999999999999" style="font-family: 'Open Sans', verdana, arial, sans-serif; font-size: 12px; fill: rgb(42, 63, 95); fill-opacity: 1; white-space: pre; opacity: 1;" transform="translate(0,261.2)">20</text></g><g class="ytick"><text text-anchor="end" x="79" y="4.199999999999999" style="font-family: 'Open Sans', verdana, arial, sans-serif; font-size: 12px; fill: rgb(42, 63, 95); fill-opacity: 1; white-space: pre; opacity: 1;" transform="translate(0,225.49)">25</text></g><g class="ytick"><text text-anchor="end" x="79" y="4.199999999999999" style="font-family: 'Open Sans', verdana, arial, sans-serif; font-size: 12px; fill: rgb(42, 63, 95); fill-opacity: 1; white-space: pre; opacity: 1;" transform="translate(0,189.79000000000002)">30</text></g><g class="ytick"><text text-anchor="end" x="79" y="4.199999999999999" style="font-family: 'Open Sans', verdana, arial, sans-serif; font-size: 12px; fill: rgb(42, 63, 95); fill-opacity: 1; white-space: pre; opacity: 1;" transform="translate(0,154.07999999999998)">35</text></g><g class="ytick"><text text-anchor="end" x="79" y="4.199999999999999" style="font-family: 'Open Sans', verdana, arial, sans-serif; font-size: 12px; fill: rgb(42, 63, 95); fill-opacity: 1; white-space: pre; opacity: 1;" transform="translate(0,118.38)">40</text></g></g><g class="overaxes-above"/></g></g><g class="polarlayer"/><g class="smithlayer"/><g class="ternarylayer"/><g class="geolayer"/><g class="funnelarealayer"/><g class="pielayer"/><g class="iciclelayer"/><g class="treemaplayer"/><g class="sunburstlayer"/><g class="glimages"/><defs id="topdefs-85508e"><g class="clips"/></defs><g class="layer-above"><g class="imagelayer"/><g class="shapelayer"/></g><g class="infolayer"><g class="g-gtitle"/><g class="g-xtitle"/><g class="g-ytitle"/></g></svg>