<svg class="main-svg" xmlns="http://www.w3.org/2000/svg" xmlns:xlink="http://www.w3.org/1999/xlink" width="700" height="500" style="" viewBox="0 0 700 500"><rect x="0" y="0" width="700" height="500" style="fill: rgb(255, 255, 255); fill-opacity: 1;"/><defs id="defs-b4639f"><g class="clips"><clipPath id="clipb4639fxyplot" class="plotclip"><rect width="540" height="320"/></clipPath><clipPath class="axesclip" id="clipb4639fx"><rect x="80" y="0" width="540" height="500"/></clipPath><clipPath class="axesclip" id="clipb4639fy"><rect x="0" y="100" width="700" height="320"/></clipPath><clipPath class="axesclip" id="clipb4639fxy"><rect x="80" y="100" width="540" height="320"/></clipPath></g><g class="gradients"/><g class="patterns"/></defs><g class="bglayer"><rect class="bg" x="80" y="100" width="540" height="320" style="fill: rgb(229, 236, 246); fill-opacity: 1; stroke-width: 0;"/></g><g class="layer-below"><g class="imagelayer"/><g class="shapelayer"/></g><g class="cartesianlayer"><g class="subplot xy"><g class="layer-subplot"><g class="shapelayer"/><g class="imagelayer"/></g><g class="minor-gridlayer"><g class="x"/><g class="y"/></g><g class="gridlayer"><g class="x"><path class="xgrid crisp" transform="translate(177.51,0)" d="M0,100v320" style="stroke: rgb(255, 255, 255); stroke-opacity: 1; stroke-width: 1px;"/><path class="xgrid crisp" transform="translate(314.69,0)" d="M0,100v320" style="stroke: rgb(255, 255, 255); stroke-opacity: 1; stroke-width: 1px;"/><path class="xgrid crisp" transform="translate(451.87,0)" d="M0,100v320" style="stroke: rgb(255, 255, 255); stroke-opacity: 1; stroke-width: 1px;"/><path class="xgrid crisp" transform="translate(589.05,0)" d="M0,100v320" style="stroke: rgb(255, 255, 255); stroke-opacity: 1; stroke-width: 1px;"/></g><g class="y"><path class="ygrid crisp" transform="translate(0,360.92)" d="M80,0h540" style="stroke: rgb(255, 255, 255); stroke-opacity: 1; stroke-width: 1px;"/><path class="ygrid crisp" transform="translate(0,317.83000000000004)" d="M80,0h540" style="stroke: rgb(255, 255, 255); stroke-opacity: 1; stroke-width: 1px;"/><path class="ygrid crisp" transform="translate(0,274.74)" d="M80,0h540" style="stroke: rgb(255, 255, 255); stroke-opacity: 1; stroke-width: 1px;"/><path class="ygrid crisp" transform="translate(0,231.66)" d="M80,0h540" style="stroke: rgb(255, 255, 255); stroke-opacity: 1; stroke-width: 1px;"/><path class="ygrid crisp" transform="translate(0,188.57)" d="M80,0h540" style="stroke: rgb(255, 255, 255); stroke-opacity: 1; stroke-width: 1px;"/><path class="ygrid crisp" transform="translate(0,145.49)" d="M80,0h540" style="stroke: rgb(255, 255, 255); stroke-opacity: 1; stroke-width: 1px;"/><path class="ygrid crisp" transform="translate(0,102.4)" d="M80,0h540" style="stroke: rgb(255, 255, 255); stroke-opacity: 1; stroke-width: 1px;"/></g></g><g class="zerolinelayer"><path class="yzl zl crisp" transform="translate(0,404)" d="M80,0h540" style="stroke: rgb(255, 255, 255); stroke-opacity: 1; stroke-width: 2px;"/></g><path class="xlines-below"/><path class="ylines-below"/><g class="overlines-below"/><g class="xaxislayer-below"/><g class="yaxislayer-below"/><g class="overaxes-below"/><g class="plot" transform="translate(80,100)" clip-path="url(#clipb4639fxyplot)"><g class="scatterlayer mlayer"><g class="trace scatter tracec55414" style="stroke-miterlimit: 2; opacity: 1;"><g class="fills"/><g class="errorbars"/><g class="lines"><path class="js-line" d="M0,300.54L0.23,303.06L0.83,302.1L0.9,301.82L1.2,301.06L1.5,302.39L1.58,301.13L2.33,302.6L2.4,299.67L2.93,303.83L3.01,303.3L3.08,301.76L3.76,302.6L3.91,302.51L3.98,302.32L4.66,302.16L4.73,301.85L5.48,302.84L5.78,302.47L5.86,300.98L6.09,302.56L6.24,298.31L6.69,302.52L6.76,302.21L6.91,302.13L7.06,302.6L7.14,302.87L7.66,300.41L7.89,301.95L7.96,302.02L8.64,302.5L8.79,302.22L8.86,302.19L9.47,302.32L9.54,301.09L9.69,297.72L9.84,303.72L10.29,302.03L10.37,302.01L11.27,302.69L11.42,302.36L11.49,302.09L11.72,301.12L12.02,303.88L12.17,303.02L12.25,301.86L12.85,301.64L13,301.71L13.07,301.74L13.97,302.55L14.05,302.13L14.12,301.82L14.72,302.54L14.87,301.85L14.95,301.85L15.1,302.18L15.48,301.16L15.63,301.89L15.7,302.21L15.78,301.93L16.23,302.8L16.3,303.35L16.9,302.96L17.13,303.12L17.2,303.05L18.11,302.61L18.18,303.05L18.86,302.35L19.01,302.49L19.08,302.73L19.98,298.93L20.06,300.84L20.13,301.48L21.04,302.4L21.11,302.22L22.01,302.12L22.09,301.41L22.31,303.58L22.84,275.53L22.91,293.61L22.99,292.35L23.21,299.95L23.29,300.6L24.12,302.55L24.19,302.39L24.27,294.44L24.64,298.68L24.72,217.13L25.09,273.69L25.17,283.99L26.07,300.87L26.14,299.97L26.22,300.74L26.67,302.8L26.74,302.58L26.82,295.28L26.89,287.85L27.5,301.27L27.57,301.98L28.62,303.95L28.7,303.84L28.77,303.79L29.45,303.96L29.52,302.86L29.75,299.11L29.9,303.88L30.2,302.07L30.28,302.16L30.58,301.92L30.88,302.67L30.95,301.44L31.33,304L31.7,302.89L31.78,303L31.85,303.99L32.45,302.61L32.53,301.92L32.68,298.36L32.83,303.54L33.13,298.89L33.21,301.18L33.58,303.39L33.66,289.58L34.33,287.52L34.63,302.62L34.71,303L35.68,303.87L35.76,303.85L36.29,297.59L36.51,301.38L36.59,302.93L37.26,302.78L37.41,303.66L37.49,303.81L38.16,303.94L38.24,302.58L38.99,300.97L39.07,301.64L39.37,303.97L39.74,302.72L39.82,292.12L40.72,303.83L40.79,303.81L41.02,285.52L41.39,302.56L41.47,302.72L42.67,303.86L42.75,303.79L42.82,303.83L42.97,303.45L43.35,303.82L43.42,301.5L44.25,303.88L44.4,303.82L44.47,303.8L44.92,303.28L45,301.1L45.75,303.97L45.83,303.46L45.9,303.76L46.28,302.71L46.35,295.37" style="vector-effect: non-scaling-stroke; fill: none; stroke: rgb(255, 165, 0); stroke-opacity: 1; stroke-width: 2px; opacity: 1;"/><path class="js-line" d="M46.65,300.09L46.73,299.64L46.8,246.63L46.88,224.76L47.18,293.92L47.33,293.85L47.4,293.87L48.46,301.85L48.53,301.85L48.98,302.98L49.06,301.11L49.13,293.13L49.81,300.96L49.88,300.96L50.03,298.87L50.41,301.85L50.48,301.85L50.56,302.16L51.16,302.96L51.24,302.58L51.31,301.88L51.54,301.14L51.61,299.84L52.29,303.05L52.44,301.96L52.51,302.58L52.74,303.42L52.81,301.12L52.96,303.03L53.04,299.84L53.34,303.24L53.41,298.56L53.94,302.56L54.02,302.82L54.09,299.6L54.69,303.77L54.77,303.75L54.99,303.89L55.07,302.67L55.22,301.34L55.67,303.77L55.74,303.98L55.89,294.82L56.27,304L56.49,303.93L56.57,303.89L56.79,303.24L57.25,303.97L57.32,304L57.62,302.64L57.7,302.32L58.15,302.56L58.52,301.25L58.6,301.99L58.67,302.08L59.65,302.24L59.72,300.83L60.55,303.99L60.63,302.85L60.7,302.67L60.93,299.33L61,301.76L61.15,304L61.3,300.57L61.75,301.85L61.83,301.94L62.43,302.01L62.5,301.46L62.58,303.05L62.8,301.79L62.88,290.42L62.95,289.19L63.03,303.28L63.11,278.87L63.71,303.99L63.78,303.11L63.86,301.95L64.08,302.42L64.16,303.44L64.38,226.72L64.46,275.9L64.53,278.46L64.91,300.67L65.36,296.37L65.43,290.07L66.34,303.1L66.41,303.35L66.49,303.49L66.56,302.67L66.64,301.35L67.09,303.48L67.16,291.56L67.61,301.4L67.84,295L67.91,190.96L68.81,299.62L68.89,298.64L69.94,303.35L70.02,303.54L72.35,304L72.42,303.99L73.17,303.23L73.25,303.96L73.32,303.99L73.77,303.92L73.85,295.77L74.75,303.71L74.82,303.64L74.9,302.52L75.35,303.82L75.5,303.59L75.58,303.58L76.55,303.67L76.63,303.5L76.7,264.12L76.78,251.49L77.23,295.91L77.3,297.2L77.83,299.39L78.06,275.26L78.21,285.54L78.28,289L78.51,282.58L78.81,294.64L78.88,294.28L78.96,284.54L79.03,277.19L79.63,292.7L79.71,294.71L79.93,294.36L80.38,298.54L80.53,298.46L80.61,296.62L80.76,289.06L81.29,297.98L81.36,298.04L81.51,298L82.11,301.45L82.19,300.17L82.26,297.39L82.34,296.75L82.49,300.51L82.56,300.38L82.64,301.03L82.86,289.55L83.16,302.09L83.24,300.79L83.31,301.68L84.22,303.93L84.29,302.26L84.74,303.99L84.82,299.04L84.89,303.27L84.97,303.9L85.42,304L85.49,303.33L86.02,304L86.09,302.15L86.17,301.66L86.24,300.69L86.54,304L86.69,302.62" style="vector-effect: non-scaling-stroke; fill: none; stroke: rgb(255, 165, 0); stroke-opacity: 1; stroke-width: 2px; opacity: 1;"/><path class="js-line" d="M110.96,301.96L111.41,302.1L111.49,301.44L111.56,300.12L111.86,297.21L112.39,301.88L112.46,301.6L113.14,301.42L113.21,302.22L113.29,301.92L113.66,301.2L113.89,302.51L114.12,302.44L114.19,301.69L114.27,298.36L114.64,302.58L114.94,298.95L115.02,299.98L115.92,302.56L115.99,302.2L116.07,302.38L116.22,297.49L116.29,285.92L116.67,301.12L117.2,300.63L117.27,300.64L117.5,301.48L117.57,300.97L117.65,297.59L117.8,299.49L117.87,300.35L118.7,301.61L118.85,301.58L118.92,299.41L119.37,273.86L119.67,290.18L119.75,291.34L121.1,298.38L121.18,298.15L121.33,297.2L121.4,291.37L121.48,271.35L122,294.83L122.08,294.49L122.15,294.75L123.58,298.03L123.66,297.86L123.73,297.72L124.48,299.11L124.56,298.55L124.63,298.46L125.23,300.63L125.38,299.9L125.46,295.01L125.53,292.68L126.06,298.44L126.14,299.12L126.59,299.29L126.66,299.55L126.74,299.71L126.81,299.86L126.96,299.17L127.04,247.38L127.11,190.53L127.71,291.89L127.79,292.6L128.09,297.1L128.61,295.25L128.69,295.4L129.89,297.65L129.97,297.4L130.04,296.12L130.94,285.94L131.09,289.17L131.17,289.91L131.39,288.11L131.99,292.4L132.07,284.62L132.15,281.96L132.52,293.44L132.6,293.86L132.9,291.95L133.5,295.68L133.57,295.44L133.65,295.13L134.85,297.04L134.92,297.09L135.9,298.75L136.13,298.05L136.2,297.32L137.18,300.61L137.25,300.62L138.38,302.95L138.46,302.84L138.53,301.68L138.68,301.24L138.83,302.9L138.98,301.23L139.06,299.81L139.13,299.54L139.36,301.61L139.43,302.45L139.66,299.74L140.18,302.21L140.26,303.13L140.41,298.83L141.01,300.58L141.09,301.72L141.31,302.38L141.69,301.55L141.76,301.94L141.84,302L141.99,291.71L142.36,299.83L142.44,301.42L142.51,302.95L142.66,299.14L143.19,301.56L143.26,302.4L143.34,303.2L143.71,302.25L143.94,302.95L144.02,302.05L144.09,288.58L144.77,300.04L144.84,298.4L144.99,295.52L145.37,300.17L145.44,299.4L145.52,300.42L145.67,301.45L146.42,298.07L146.49,299.67L146.64,300.45L146.72,299.82L146.79,294.36L147.7,302.02L147.77,301.35L147.92,302.24L148.22,300.71L148.3,300.88L148.37,300.17L148.9,298.91L148.97,303.1L149.05,301.18L149.12,299.8L150.1,302L150.18,302.25L150.63,302.47L150.7,301.38L150.93,302.26L151,302.13L151.15,300.91L151.6,302.23L151.75,302.16L151.83,302.35L152.28,301.39L152.8,302.95L152.88,302.78L153.86,303.11L153.93,302.39L154.01,301.67L154.53,303.13L154.61,303.1L155.96,302.8L156.04,300.87L156.79,303.1L156.94,303.05L157.01,302.95L158.51,302.94L158.59,302.95L158.81,302.79" style="vector-effect: non-scaling-stroke; fill: none; stroke: rgb(255, 165, 0); stroke-opacity: 1; stroke-width: 2px; opacity: 1;"/><path class="js-line" d="M159.12,301.07L159.19,299.96L159.27,278.31L159.94,299.66L160.02,287.73L160.09,266.89L160.99,296L161.07,295.13L161.29,295.86L161.37,293.24L161.44,280.48L161.89,297.89L162.27,297.26L162.35,295.25L163.1,299.49L163.32,298.08L163.4,297.57L163.62,298.79L163.92,296.27L164.07,296.73L164.15,295.2L165.28,298.82L165.35,298.83L166.1,301.54L166.18,302.88L166.48,303.08L166.55,302.06L166.78,300.92L167,303.22L167.08,301.73L167.15,303.22L167.53,303.05L167.6,300.28L168.51,303.47L168.58,303.49L168.73,300.62L168.81,294.08L169.33,300.95L169.63,300.54L169.71,297.07L170.46,302.82L170.68,302.1L170.76,302.55L171.51,303.28L171.66,303.2L171.74,303.12L172.94,303.21L173.01,302.35L173.09,302.59L173.16,300.75L173.31,302.26L173.39,299.7L173.61,294.89L173.84,302.2L173.99,300.1L174.07,302.23L174.44,301.96L174.82,303.22L174.97,303.04L175.04,302.87L175.87,303.04L175.94,303.02L176.54,302.82" style="vector-effect: non-scaling-stroke; fill: none; stroke: rgb(255, 165, 0); stroke-opacity: 1; stroke-width: 2px; opacity: 1;"/><path class="js-line" d="M177.3,301.05L177.75,303.06L178.05,302.46L178.12,302.2L178.2,301.92L178.35,303.03L178.65,302.85" style="vector-effect: non-scaling-stroke; fill: none; stroke: rgb(255, 165, 0); stroke-opacity: 1; stroke-width: 2px; opacity: 1;"/><path class="js-line" d="M178.87,302.81L179.62,303.02L179.77,302.87L179.85,302.86L180.68,300.14L180.75,301.28L181.58,302.97L181.65,302.94L182.33,301.67L182.4,299.61L183.23,302.5L183.31,302.54L183.91,302.24L184.13,302.8L184.21,302.95L185.33,302.89L185.41,303.02L185.86,302.02L186.31,302.56L186.39,302.65L186.61,298.78L187.21,299.44L187.29,298.91L187.66,299.22L188.19,291.62L188.26,293.34L189.39,299.22L189.47,297.38L189.62,264.9L189.77,287.93L189.84,290.78L189.92,291.52L190.07,288.03L190.14,283.62L190.22,282.06L190.52,290.46L190.59,289.24L190.67,243.31L190.74,214L191.19,284.45L191.34,275.86L191.42,278.91L191.57,277.19L191.94,288.68L192.1,287.72L192.17,279.1L192.77,296.99L193.07,295.77L193.15,292.8L194.05,300.34L194.12,300.38L194.35,277.95L194.42,290.71L194.5,293.43L195.63,301.25L195.7,299.86L195.78,297.86L196.38,301.08L196.45,299.77L196.53,300.36L196.83,299.01L197.13,300.24L197.2,300.46L197.43,285.49L197.73,301.36L197.8,300.76L197.88,300.09L198.11,299.52L198.48,301.02L198.56,300.28L198.63,300.45L198.78,300.76L198.86,299.66L198.93,282.47L199.76,299.46L199.83,299.94L200.81,301.91L200.88,301.73L200.96,300.78L201.34,302.04L201.56,300.01L201.64,300.09L202.39,301.97L202.46,300.33L202.61,299.44L202.69,276.92L202.76,226.48L203.36,294.9L203.44,294.98L203.59,293.1L203.89,296.48L204.04,296.17L204.12,296.39L205.47,300.39L205.54,298.73L205.84,298.81L205.99,297.61L206.29,298.58L206.37,298.73L206.67,299.36L206.74,299.23L206.82,298.33L206.97,277.42L207.57,292.44L207.65,293.43L207.87,295.01L207.95,292.51L208.62,295.44L208.7,292.95L208.77,293.09L208.85,295.29L208.92,295.6L209,294.32L209.07,292.68L209.45,296.33L209.6,288.98L209.67,283.99L209.75,273.97L210.28,293.6L210.35,294.03L211.1,297.36L211.25,297.05L211.33,296.89L211.7,297.48L211.78,299.14L211.85,296.74L212.08,300.14L212.53,298.16L212.6,296.82L212.83,297.25L212.9,295.91L213.36,296.69L213.43,296.65L213.58,297.2L213.81,294.24L213.88,294.72L213.96,294.22L214.41,294.86L214.56,278.19L214.93,285.22L215.01,287.6L215.68,292.03L215.91,291.31L215.98,291.4L216.14,292.37L216.21,290.85L216.29,280.98L216.74,292.68L217.11,290.22L217.19,288.39L217.26,288.02L217.34,288.12L217.41,291.44L217.86,298.58L218.16,295.18L218.24,293.03L218.46,294.96L219.14,294.71L219.22,294.73L219.59,297.38L219.89,296.15L219.97,295.22L220.04,288.83L220.34,296.66L220.64,295.6L220.72,297.11L221.32,289.15L221.39,293.5L221.47,295.95L221.69,295.64L221.92,298.65L221.99,295.8L222.07,292.95L222.9,299.64L222.97,299.64L223.57,300.73L223.65,300.57L223.72,297.68L223.87,295.62L224.17,298.94L224.25,299.96L224.47,297.47L224.7,300.45L225.08,298.49L225.15,298.92L225.53,301.09L225.68,300.21" style="vector-effect: non-scaling-stroke; fill: none; stroke: rgb(255, 165, 0); stroke-opacity: 1; stroke-width: 2px; opacity: 1;"/><path class="js-line" d="M226.05,301.03L226.2,301.72L226.35,301.1L226.43,299.47L226.58,295.09L227.1,300.53L227.18,300.77L227.33,301.27L227.4,299.59L227.48,297.46L228.31,301.93L228.38,301.56L228.53,301.32L228.91,302.33L229.13,301.9L229.21,301.44L229.36,292.92L229.96,300.35L230.03,300.4L230.26,300.06L230.56,301.18L230.63,301.53L231.01,300.56L231.31,301.64L231.39,301.5L231.69,302.17L231.99,301.38L232.06,301.54L232.14,301.77L232.29,300.88L232.89,301.69L232.96,301.42L233.71,302.33L233.86,301.5L233.94,300.6L234.17,291.91L234.47,297.96L234.54,297.67L234.62,297.24L234.69,300.7L234.77,300.6L235.14,300.16L235.52,301.36L235.59,301.34L235.67,300.88L235.82,299.81L236.34,301.12L236.42,301.54L236.49,301.24L236.94,301.98L237.02,301.82L237.1,302.07L237.17,302.23L237.32,301.28L237.55,301.45L237.62,298.81L238.07,301.12L238.45,296.41L238.52,297.47L239.2,299.99L239.27,299.2L239.35,297.97L239.42,297.32L239.95,299.05L240.03,298.67L240.78,293.86L240.85,295.54L240.93,296.74L242.2,299.76L242.28,298.86L242.35,298.24L243.03,299.29L243.33,299.06L243.41,298.6L243.48,298.81L243.71,298.13L243.78,296.65L243.86,262.22L244.53,291.5L244.61,285.87L244.68,280.28L245.21,292.43L245.28,292.28L246.19,295.46L246.26,296.03L246.56,296.74L246.71,294.55L246.94,296.49L247.01,289.09L247.09,281.27L247.69,293.94L247.76,294.73L247.91,296.04L247.99,293.81L248.06,290.53L248.96,297.97L249.04,297.95L249.12,296.9L249.72,301.27L249.94,298.68L250.02,299.62L250.84,301.79L250.92,301.79L251.52,292.16L251.74,297.14L251.82,297.82L251.97,296.19L252.42,299.12L252.5,299.36L253.25,301.01L253.32,300.91L253.4,299.4L253.47,298.89L253.7,301.16L253.92,300.92L254,301.38L254.07,301.06L254.15,291.68L254.22,291.48L254.3,297.42L255.28,301.49L255.35,301.13L255.5,299.71L255.58,300.6L255.65,301.12L255.73,300.99L255.8,301.35L255.88,266.92L256.03,203.87L256.25,285.49L256.33,289.12L257.3,297.99L257.38,298.06L257.45,297.83L257.9,298.82L257.98,299.24L258.51,299.49L258.58,300.06L258.66,299.75L259.18,300.49L259.26,300.16L259.33,300.39L259.63,300.77L259.78,299.56L259.86,295.85L260.68,300.81L260.76,300.65L261.14,301.18L261.36,300.07L261.44,296.91L261.51,295.49L262.04,299.55L262.11,299.8L263.99,301.98L264.07,301.62L264.22,300.27L264.29,300.41L264.37,299.06L265.34,300.62L265.42,300.61L265.64,300.31L265.94,300.89L266.02,301.09L266.17,300.66L266.62,301.35L266.69,301.2L266.77,301.18L267.22,301.6L267.3,301.32L267.37,298.88L267.67,186.78L268.12,291.15L268.2,292.84L268.57,295.39L268.95,293.95L269.02,292.83L269.1,290.86L269.62,295.55L269.7,296.6L270.45,297.76L270.53,297.46L270.6,296.36L270.98,294.87L271.28,297.88L271.43,297.76L271.5,297.86L271.95,298.15L272.03,296.46L272.18,256.78L272.7,297.83L272.78,297.95L273.01,298.62L273.08,296.79L273.53,297.96L273.61,297.91L274.21,269.73L274.43,282.61L274.51,287.44L275.41,297.96L275.48,297.77L275.56,297.8L276.01,297.53L276.54,299.85L276.61,297.96L277.51,299.94L277.59,297.19L277.66,278.72L278.11,297.28L278.34,294.72L278.41,294.53L279.24,298.87L279.32,299.37L279.69,300.71L279.84,300.24L279.92,299.03L280.52,300.92L280.59,300.31L280.67,299.05L281.57,301.95L281.64,297.31L282.7,302.29L282.77,301.79L283.52,302.4L283.6,301.88L284.27,302.28L284.35,301.82L284.42,300.41L284.57,300.61L284.65,298.01L285.03,300.36L285.1,284.47L285.25,252.71L285.78,295.17L285.85,296L285.93,296.76L286,293.14L286.08,250.22L286.38,291.04L286.53,232L286.9,290.69L286.98,292.25L288.11,298.05L288.18,297.73L289.83,300.34L289.91,300.16L289.98,300.01L290.13,300.82L290.36,300.73L290.43,300.83L291.79,301.84L291.86,301.49L291.94,301.42L292.16,302.49L292.39,301.19L292.69,301.77L292.76,301.6L293.21,301.19L293.74,302.17L293.81,302.11L294.34,301.11L294.42,302.22L294.49,302.25L295.47,302.33L295.54,301.99L295.69,292.09L296.29,299.69L296.37,299.63L296.52,299.55L296.59,297.5L296.67,297.18L297.12,298.06L297.2,298.27L297.27,298.12L297.57,298.98L297.65,299.12L298.1,299.71L298.62,294.35L298.77,297.16L298.85,297.41L299.6,296.86L299.67,296.97L299.75,297.46L300.05,297.28L300.58,298.07L300.65,297.35L300.73,295.75" style="vector-effect: non-scaling-stroke; fill: none; stroke: rgb(255, 165, 0); stroke-opacity: 1; stroke-width: 2px; opacity: 1;"/><path class="js-line" d="M399.29,301.84L401.77,302.33L401.84,303.9L402.07,302.15L402.22,303.9" style="vector-effect: non-scaling-stroke; fill: none; stroke: rgb(255, 165, 0); stroke-opacity: 1; stroke-width: 2px; opacity: 1;"/><path class="js-line" d="M402.82,302.38L403.57,302.61L403.65,301.8L403.72,301.22L404.02,302.6L404.25,302.57L404.32,302.82L404.92,302.69L405,301.87L405.3,298.94L405.83,301.04L405.9,301.59L406.2,301.21L406.35,302.24L406.43,297.1L406.5,291.38L407.03,299.77L407.1,299.65L407.18,299.68L407.48,299.67L407.55,300.05L407.63,298.61L407.78,295.26L408.08,298.98L408.31,298.83L408.38,298.94L408.91,299.7L408.98,298.9L409.06,290.25L410.18,299.14L410.26,299.16L410.48,299.58L410.56,298.13L410.63,296.53L410.86,298.86L410.93,295.01L411.16,274.96L411.61,296.64L411.69,297.47L412.06,297.08L412.51,299.76L412.66,299.58L412.74,299.61L412.89,299.89L412.96,297.42L413.79,300.18L413.86,300.52L414.24,301.7L414.32,302.02L414.54,302.38L414.69,301.16L415.07,302.22L415.14,302.22L416.34,302.88L416.42,302.12L416.57,301.22L417.02,302.93L417.1,303.07L417.77,303.26L417.85,302.2L418.22,303.24L418.3,301L419.05,303.19L419.2,303.09L419.27,300.15L419.95,303.14L420.1,302.6L420.18,301.06L420.63,303L420.7,302.69L420.78,298.66L420.85,293.02L421.3,302.01L421.45,301.91L421.53,302.47L422.35,302.96L422.43,302.88L422.5,302.48L422.65,301.44L423.18,303.02L423.26,302.99L423.71,302.64L423.78,291.85L423.93,273.79L424.46,298.4L424.53,298.97L424.76,299.83L424.83,294.58L425.51,300.72L425.58,300.49L425.66,297.1L426.71,300.81L426.79,299.74L427.54,300.54L427.61,299.98L428.14,300.99L428.36,300.28L428.44,298.18L428.66,300.21L428.81,294.86L428.89,289.47L429.57,298.13L429.72,295.28L429.79,297.06L429.94,298.02L430.02,297.23L430.09,246.19L430.99,297.82L431.07,297.94L431.37,298.32L431.44,294.69L431.67,297.25L431.74,297.62L432.87,298.26L432.95,298.1L433.02,234.31L433.85,296.09L433.92,296.6L434.07,297.22L434.6,296.71L434.67,296.3L435.35,298.12L435.43,297.22L435.5,292.18L436.25,299.22L436.48,298.36L436.55,298.32L437.38,298.71L437.45,297.72L438.36,298.88L438.43,298.86L439.56,301.19L439.63,299.23L440.83,302.93L440.98,302.76L441.06,302.52L441.14,301.51L441.74,303L441.81,302.99L441.96,301.72L442.11,301.81L442.19,300.44L442.79,303.05L443.01,302.92L443.09,303.02L443.46,301.56L443.84,303.04L443.91,303.13L444.07,302.72L444.29,303.32L444.59,303.42L444.67,303.55L444.97,303.26L445.04,300.78L445.27,303.27L445.87,303.12L445.94,303.08L446.17,300.2L446.54,303.51L446.69,303.06L446.77,302.31L446.92,299.85L447.37,302.91L447.45,302.72L447.52,302.73L447.75,303.32L448.12,302.26L448.2,303.23L448.5,303.16L448.57,302.5L448.72,298.54L449.25,302.67L449.32,302.79L450.3,302.64L450.38,302.89L450.45,303L450.75,301.44L450.83,301.56L450.9,303.03L450.98,301.32L451.65,301.66L451.73,302.19L451.8,301.47L452.4,302.75L452.48,302.77L454.58,302.86L454.66,301.67L454.73,297.39L455.33,302.65L455.41,303.01L456.09,299.82L456.31,301.86L456.39,301.83L456.61,301.32L456.76,301.64L456.84,297.02L456.91,294.86L457.36,301.42L457.44,301.26L457.51,301.55L457.66,301.53L457.74,298.29L457.81,289.83L458.41,300.89L458.49,300.68L458.56,300.33L458.64,293.08L458.71,264.1L459.32,298.29L459.39,295.6L460.22,300.56L460.37,298.75L460.44,297.73L461.19,299.83L461.34,299.65L461.42,298.82L461.57,279.45L461.64,289.48L461.72,237.33L462.62,290.61L462.7,291.14L463,285.93L463.37,293.95L463.45,294.35L463.52,295.07L463.67,293.35L463.75,285.65L464.05,289.7L464.12,258.82L465.03,292.38L465.1,292.71L465.18,292.93L465.25,292.69L465.33,289.27L465.78,289.33L466,272.46L466.15,284.91L466.23,287.81L467.35,298.62L467.43,298.83L467.58,296.22L468.03,299.97L468.11,299.21L468.18,298.57L468.26,299.98L468.63,293.97L468.86,298.96L468.93,296.56L469.31,300.79L469.76,300.71L469.83,301.03L470.21,300.7L470.43,301.5L470.58,301.41L470.66,299.05L470.88,299.63L471.11,288.27L471.19,295.87L471.26,298.24L471.41,294.01L471.94,299.85L472.01,300.4L472.16,300.95L472.24,298.02L472.31,299.75L472.39,290.47L472.69,293.01L472.76,288.46L472.84,280.37L473.29,297.47L473.36,294.38L473.44,296.64L474.42,300.71L474.49,300.59L475.02,301.21L475.24,298.35L475.32,298.97L475.39,277.16L475.62,296.72L475.69,294.81L475.77,69.92L476.59,295.22L476.67,293.44L476.89,293.45L476.97,280.24L477.05,252.07L477.35,289.1L477.87,286.49L477.95,288.55L478.02,290.38L478.32,279.87L478.4,271.89L479.37,296.09L479.45,296.51L479.6,295.35L479.67,296.8L479.75,297.59L481.63,301.75L481.7,301.73L482.45,302.38L482.6,302.1L482.68,302.16L483.06,301.99L483.36,302.31L483.43,302.49L484.03,302.03L484.26,302.49L484.33,302.5L484.78,302.4L484.93,302.76L485.01,302.86L485.91,302.58L485.98,301.83L487.19,301.92L487.26,302.13L488.46,301.78L488.54,301.39L489.07,299.09L489.37,300.58L489.44,300.69L490.12,301.03L490.19,300.63L490.27,298.86L490.64,300.58L490.72,297.04L490.87,286.75L491.39,299.22L491.47,299.56L492.3,300.72L492.37,300.31L492.45,295.41L493.05,300.37L493.12,300.52L493.65,301.09L493.72,300.28L493.8,299.5L494.4,301.45L494.62,301.15L494.7,301.25L495.3,302.08L495.38,301.32L495.45,300.56L495.9,299.49L496.35,302.45L496.43,301.71L497.1,302.6L497.18,301.59L497.25,300.25L497.63,302.9L497.85,302.81L497.93,302.86L499.73,303.4L499.81,303.54L500.56,301.3L500.63,302.47L500.71,302.69L500.86,303.26L501.16,302.57L501.24,301.89L501.39,301.88L501.46,302.77L502.36,303.39L502.44,303.11L502.81,303.61L503.26,303.18L503.34,303.03L503.49,303.45L503.71,301.93L503.79,252.9L504.54,301.62L504.62,301.61L504.69,301.61L505.29,302.13L505.37,302.23L505.97,302.57L506.04,301.94L506.12,290.73L506.72,301.72L506.94,299.4L507.02,273.61L507.62,301.31L507.85,300.78L507.92,301.13L508.07,301.54L508.15,280.48L508.22,277.09L508.52,294.4L508.6,297.75L509.65,301.21L509.72,300.88L509.87,301.51L510.48,301.1L510.55,273.49L510.63,16L511.23,287.39L511.3,288.91L512.35,295.47L512.43,295.7L514.31,299.79L514.53,298.96L514.61,298.84L514.76,297.54L515.13,299.64L515.21,299.75L515.73,300.24L515.81,299.81L515.88,299.43L515.96,295.4L516.49,299.58L516.56,299.47L516.64,299.84L517.31,295.65L517.39,284.27L517.46,252.95L518.06,293.82L518.14,294.59L518.66,296.79L518.81,294.2L518.89,278.39L519.72,294.62L519.79,294.48L520.39,298.34L520.47,296.56L520.54,294.49L520.92,250.08L520.99,234.46L521.82,282.69L521.89,270.15L521.97,267.56L522.12,286.65L522.2,289.38L522.87,287.69L523.32,298.93L523.4,299.06L523.55,298.77L523.62,296.32L523.77,296.43L523.85,297.72L524.37,300.14L524.45,294.4L524.52,294.16L524.6,296.34L524.67,297.61L525.58,301.02L525.65,300.62L525.73,300.11L526.55,301.44L526.63,301.34L526.85,301.96L527.08,301.34L527.15,253.68L527.75,300.18L528.06,296.47L528.13,298.01L528.81,300.37L528.88,299.73L528.96,297.97L529.03,295.61L529.56,300.75L529.63,300.8L530.38,292.2L530.46,298.77L531.21,300.84L531.29,300.73L531.36,300.54L531.51,300.29L532.11,301.01L532.19,297.42L532.49,291.77L532.86,298.95L532.94,299.24L533.76,301.04L533.84,300.95L533.91,299.59L533.99,244.39L534.59,297.52L534.67,298.13L535.94,300.85L536.02,300.92L538.05,301.16L538.12,300.47L538.2,297.43L538.57,300.83L538.8,300.6L538.87,300.84L539.7,301.05L539.85,300.81L539.92,300.79" style="vector-effect: non-scaling-stroke; fill: none; stroke: rgb(255, 165, 0); stroke-opacity: 1; stroke-width: 2px; opacity: 1;"/></g><g class="points"/><g class="text"/></g><g class="trace scatter trace3438c8" style="stroke-miterlimit: 2; opacity: 1;"><g class="fills"/><g class="errorbars"/><g class="lines"><path class="js-line" d="M0,300.59L0.08,300.42L0.3,301.42L0.38,301.45L0.45,301.51L1.88,302.03L1.95,301.89L2.03,301.71L2.33,301.86L2.4,300.49L2.48,299.48L2.7,301.4L3.08,301.17L3.16,301.23L3.91,301.26L3.98,301.35L4.06,301.93L5.11,302.4L5.18,302.1L5.26,302L5.78,302.66L5.86,302.21L5.93,300.74L6.01,302.3L6.24,299.99L6.69,301.96L6.76,302.02L7.51,302.23L7.59,301.94L7.66,301.51L7.74,302.26L8.41,302.09L8.49,302.08L9.47,302.47L9.54,302.56L9.77,300.09L10.22,301.84L10.29,301.88L11.64,302.15L11.72,300.94L11.87,299.33L12.4,301.51L12.47,301.63L13.52,302.39L13.6,302.35L13.67,302.29L16.08,302.51L16.15,302.47L17.5,302.36L17.58,302.36L19.91,302.41L19.98,301.65L20.73,302.49L20.81,302.39L20.88,302.44L21.71,302.8L21.79,302.73L22.39,302.38L22.46,299.18L22.54,300.8L22.99,296.11L23.06,296.8L23.14,297.4L23.36,296.22L24.04,296.51L24.12,296.64L24.19,296.88L24.27,293.11L24.79,287.78L25.09,289.99L25.17,290.77L26.67,297.69L26.74,297.66L27.12,290.81L27.42,294.55L27.5,294.84L28.62,299.64L28.7,298.63L29.3,300.53L29.52,300.48L29.6,300.48L29.67,299.46L30.28,301.19L30.35,301.19L31.03,300.41L31.18,300.95L31.25,301.48L31.48,300.34L31.55,301.5L31.85,300.33L32.3,301.32L32.38,301.54L32.68,301.58L32.75,300.1L32.83,301.3L33.13,298.88L33.43,300.35L33.51,299.97L33.58,300.38L33.73,297.45L33.81,297.07L34.26,299.87L34.33,296.11L34.63,299.69L34.71,299.36L36.21,301.58L36.29,301.54L36.36,299.13L37.11,302.3L37.34,302.1L37.41,302.21L38.31,302.29L38.39,302.29L39.07,301.34L39.14,302.21L39.44,302.27L39.52,301.08L39.82,298.86L40.34,302.01L40.42,302.08L40.94,302.28L41.02,298.81L41.47,301.78L41.84,301.65L41.92,301.6L42.52,300.96L42.82,301.64L42.9,301.96L43.2,300.81L43.57,302.01L43.65,302.12L44.92,302.34L45,302.31L46.35,301.56L46.43,298.78L46.73,301.26L46.88,293.94L47.18,299.54L47.25,299.43L47.55,298.36L47.63,299.45L47.93,300.27L48.38,300.15L48.46,300.02L48.98,301.17L49.06,301.15L49.13,298.67L49.96,301.01L50.03,299.82L50.63,300.93L50.86,300.4L50.93,300.53L51.09,300.78L51.54,298.94L51.69,300.46L51.76,300.56L52.14,300.16L52.36,300.91L52.44,299.95L52.74,300.8L52.81,299.29L52.96,299.89L53.04,298.08L53.34,299.09L53.49,296.06L53.64,296.82L53.71,297.12L54.99,299.01L55.07,298.25L56.12,300.63L56.19,300.62L56.64,299.61L56.87,300.5L56.94,300.81L58.37,301.68L58.45,300.94L59.2,301.82L59.27,301.58L59.8,301.25L59.95,301.88L60.03,301.47L60.33,301.19L60.4,302.01L60.63,301.95L60.7,301.93L60.93,300.41L61.45,301.6L61.53,301.82L62.65,302.72L62.73,302.75L62.95,300.4L63.11,301.28L63.18,298.77L63.93,302.02L64.01,301.88L64.08,300.99L64.16,301.65L64.31,301.12L64.38,295.85L64.98,300.41L65.21,298.49L65.28,299.48L65.43,298.01L66.04,300.82L66.11,300L66.19,300.39L66.56,300.92L66.64,299.31L67.09,301.32L67.46,300.84L67.54,301.2L67.69,301.51L67.76,299.66L67.84,300.33L67.91,295.5L67.99,291.38L68.59,296.69L68.66,296.9L70.02,297.77L70.09,297.81L71.89,300.96L71.97,301.11L73.32,302L73.4,302.03L73.62,302.15L74.3,299.77L74.37,301.1L74.45,301.43L76.25,301.82L76.33,301.72L76.63,302.05L76.7,300.71L77.45,298.23L77.53,299.36L77.83,299.86L77.9,298.21L77.98,298.97L78.21,294.69L78.43,296.09L78.51,293.42L78.58,294.08L78.96,292.89L79.03,289L79.26,291.74L79.86,291.18L79.93,290L80.61,294.28L80.68,293.82L80.76,291.19L81.66,296.36L81.74,296.55L82.19,297.54L82.26,296.15L82.34,295.81L82.41,296.89L82.86,293L83.01,295L83.09,295.26L83.24,295.01L84.82,300L84.89,298.82L85.79,301.09L85.87,300.57L86.32,300.23L86.39,301.43L86.69,301.35L86.77,301.35L88.12,301.41L88.2,300.98L89.32,301.93L89.4,301.75L89.47,301.02L89.55,302.28L90.08,302.15L90.15,302L92.33,302.69L92.4,302.68L92.93,302.32L93.16,302.67L93.23,302.73L94.43,303.09L94.51,303.06L98.71,303.14L98.79,303.15L102.25,302.71L102.32,302.72L103.45,302.38L103.52,302.25L103.82,302.65L104.12,301.84L104.27,302.43L104.35,302.48L105.7,302.3L105.78,302.34L106.98,302.28L107.05,302.98L107.73,302.62L107.8,301.64L108.11,302.54L108.56,302.1L108.63,302.03L110.13,300.79L110.21,301.71L111.41,299.89L111.49,300.93L111.79,300.69L112.46,302.22L112.54,302.23L113.36,302.12L113.44,302.44L113.51,301.78L114.19,302.23L114.27,302.02L114.57,302.52L114.79,301.52L114.87,301.53L114.94,300.25L115.77,302.32L115.84,302.35L116.37,300.99L116.59,301.92L116.67,302L116.89,302.13L117.05,301.85L117.35,302.24L117.42,302.27L117.57,302.26L117.65,301.05L118.47,302.29L118.55,302.32L118.85,302.24L118.92,301.81L119,299.97L119.15,299.56L119.3,301L119.37,297.41L120.28,301.3L120.35,301.17L121.18,302.15L121.25,302.01L121.33,301.14L121.4,299L122,302.18L122.08,302.25L122.68,302.09L122.75,301.29L123.36,301.93L123.58,301.82L123.66,301.8L125.23,301.96L125.31,301.95L125.53,300.69L126.14,301.48L126.21,301.57L126.89,301.79L126.96,301.38L127.04,300.4L127.19,294.12L127.79,299.58L127.86,299.49L127.94,299.25L128.31,299.77L128.54,299.64L128.61,299.68L128.69,299.28L129.14,300.66L129.22,300.71L130.12,301.48L130.19,301.16L130.64,301.96L130.87,301.8L130.94,300.36L131.62,301.1L131.84,300.9L131.92,300.94L132.15,298.62L132.67,300.4L132.75,300.54L133.2,298.94L133.57,299.82L133.65,299.77L133.95,300.36L134.47,300.04L134.55,300.13L135.6,300.7L135.68,300.33L136.58,301.4L136.65,301.43L137.33,301.37L137.4,301.3L137.48,301.09L138.38,301.1L138.46,302.52L139.58,301.41L139.66,300.27L140.56,301.59L140.63,301.2L141.54,301.88L141.61,301.87L141.91,301.99L141.99,300.2L142.36,302.26L142.74,301.43L142.81,301.89L144.09,302.47L144.17,300.3L144.84,302.03L145.07,301.7L145.14,301.8L146.19,301.99L146.27,301.73L146.34,301.68L146.79,301.12L146.87,302.21L147.17,302.07L147.25,302.17L147.47,302.55L147.55,301.93L148.07,302.13L148.15,302.16L158.74,302.87L158.81,302.87L159.19,302.69L159.27,301.48L159.94,302.19L160.02,301.41L160.24,299.91L160.77,301.17L160.84,301.17L161.37,300.64L161.44,297.17L162.05,300.44L162.27,300.42L162.35,300.39L162.42,299.95L163.02,300.95L163.1,301.04L163.32,300.39L163.47,301.37L163.55,301.47L163.92,301.93L164,300.65L164.9,301.72L164.97,301.68L165.8,301.63L165.88,301.61L168.66,301.9L168.73,301.09L169.41,301.84L169.63,301.75L169.71,300.67L170.23,302.03L170.46,301.73L170.53,301.81L171.14,302.65L171.36,302.52L171.44,302.24L171.74,302.07L172.19,302.28L172.26,302.28L173.39,302.17L173.46,301.96L173.61,300.47L174.29,302.23L174.37,302.26L179.92,302.76L180,302.19L180.83,302.95L180.9,302.95L182.25,302.93L182.33,302.84L185.18,302.9L185.26,302.89L188.04,302.74L188.11,301.84L188.26,302.56L188.86,301.79L188.94,301.67L189.47,300.66L189.54,298.45L190.14,294.61L190.29,296.32L190.37,297.1L190.44,297.55L190.67,295.93L190.74,289.74L190.89,288.52L191.27,291.88L191.49,290.74L191.57,289.73L193,297.96L193.07,298.35L193.22,297.34L193.6,298.98L193.67,299.66L193.9,299.22L194.2,300.28L194.27,299.61L194.35,298.7L195.18,300.85L195.25,300.89L195.33,300.02L195.93,301.27L196,301.3L196.83,301.13L196.9,301.27L197.35,301.36L197.43,299.56L198.03,301.88L198.18,301.75L198.26,301.68L198.86,301.85L198.93,299.42L199.38,302.19L199.76,302.11L199.83,302.13L200.88,302.35L200.96,302.07L201.04,302.41L201.64,302.14L201.71,301.94L202.39,302.31L202.46,301.61L202.61,302.12L202.69,299.95L202.76,298.34L202.84,292.27L203.44,300.35L203.51,300.42L203.59,299.5L204.19,301.05L204.27,301.05L204.79,300.77L204.87,300.43L205.69,300.77L205.77,300.72L205.84,300.64L205.99,300.04L206.44,300.99L206.52,300.97L206.59,301.05L206.82,301.34L206.89,299.62L206.97,296.96L207.57,300.62L207.65,300.77L208.02,299.65L208.47,300.4L208.55,300.42L209.15,300.54L209.22,300.81L209.82,300.37L210.35,301.77L210.43,301.68L211.7,301.98L211.78,301.86L211.85,301.77L213.73,302.41L213.81,301.07L213.88,301.8L214.03,299.52L214.48,301.1L214.56,298.04L214.71,299.73L215.16,296.68L215.23,297.12L215.31,296.44L215.98,294.07L216.21,295.24L216.29,291.79L217.19,296.39L217.26,296.36L217.34,294.59L218.16,297.71L218.24,297.59L218.61,297.33L219.44,299.34L219.52,299.47L219.97,299.72L220.04,297.92L220.34,300.54L220.79,299.65L220.87,299.35L221.09,300.19L221.32,296.49L221.62,298.9L221.69,299.53L221.84,299.81L221.92,298.2L222.22,299.53L222.67,298.79L222.75,298.88L224.47,301.38L224.55,301.46L226.5,301.65L226.58,300.77L227.18,301.99L227.4,301.96L227.48,301.06L228.16,302.18L228.31,302.12L228.38,302.07L229.21,302.43L229.28,301.48L229.36,300.49L229.88,301.84L229.96,301.84L230.03,301.82L231.76,302.09L231.84,302.35L234.02,302.51L234.09,302.17L234.17,301.2L234.77,302.37L234.84,302.43L236.64,302.54L236.72,302.52L238.37,301.89L238.45,301.21L238.52,301.79L239.2,301.56L239.27,301.24L239.72,298.02L240.03,300.02L240.1,300.05L240.55,300.05L240.63,301.23L241.53,299.48L241.6,299.57L241.75,299.03L242.28,300.86L242.35,299.07L242.8,300.47L243.11,300.07L243.18,299.93L243.41,299.05L243.71,299.39L243.78,297.51L243.86,297.18L243.93,293.21L244.01,293.04L244.16,293.97L244.23,294.43L244.38,294.16L244.53,294.72L244.61,292.65L244.68,291.02L245.21,294.71L245.28,295.05L245.73,298.45L246.11,297.51L246.19,297.85L246.64,299.58L247.01,298.72L247.09,296.23L247.16,297.22L247.39,293.99L247.84,296.81L247.91,296.93L248.06,294.65L248.36,295.54L248.44,295.97L248.59,294.7L248.89,297.56L248.96,298L249.12,297.37L249.42,298.86L249.49,299.01L249.79,299.68L249.94,299.31L250.02,298.47L250.84,300.73L250.92,300.79L251.22,301.13L251.29,299.79L251.44,300.96L251.52,298.8L251.97,300.11L252.05,299.44L252.95,301.4L253.02,301.4L253.77,301.5L253.85,300.75L253.92,301.63L254.22,298.17L254.6,301.04L254.67,301.17L254.75,300.9L255.2,301.9L255.28,301.94L255.88,301.96L255.95,296.26L256.03,293.99L256.55,299.82L256.63,300.15L257.83,302.16L257.9,302.08L258.81,302.19L258.88,302.22L259.71,302.09L259.78,300.82L259.86,301.81L260.53,301.31L260.61,301.36L261.21,302.1L261.36,301.64L261.44,300.43L262.41,301.69L262.49,301.72L263.61,301.89L263.69,301.89L264.14,302L264.22,301.18L265.04,301.79L265.12,301.71L267.22,302.16L267.3,302.94L267.67,292.61L268.2,295.36L268.27,295.77L268.65,296.5L268.72,293.78L269.55,297.55L269.62,297.49L269.7,297.73L270.38,299.79L270.45,300.03L270.6,298.61L270.83,300.32L270.9,300.26L270.98,297.94L271.43,300.29L271.8,299.86L271.88,299.88L272.1,298.15L272.18,294L273.01,297.73L273.08,296.33L273.61,297.85L273.68,297.54L273.76,294.53L273.91,294.81L273.98,292.53L274.06,291.5L274.21,289.44L275.11,296.78L275.18,297.08L276.39,299.39L276.46,299.51L276.69,298.88L277.06,299.97L277.14,299.52L277.21,300.18L277.51,300.75L277.59,300.66L277.66,296.08L277.89,299.49L278.26,295.69L278.34,296.73L278.41,296.14L279.02,300.35L279.32,299.65L279.39,299.81L279.84,299.18L280.52,300.98L280.59,300.93L280.67,300.07L281.49,301.03L281.57,301.07L281.72,299.91L281.79,301.73L282.17,300.97L282.25,301.66L284.35,301.65L284.42,301.09L284.5,301.94L284.65,299.39L285.1,301.1L285.18,295.18L285.25,293.1L285.78,297.59L285.85,297.72L286,296.8L286.08,291.28L286.6,290.54L286.98,296.07L287.05,296.03L287.13,296.55L288.18,299.44L288.26,298.57L289.38,300.28L289.46,300.52L290.58,301.62L290.66,301.67L294.94,302L295.02,301.99L295.62,301.37L295.69,300.86L296.52,302.18L296.59,302.09L296.67,301.45L296.97,302.14L297.27,301.62L297.35,302.11L298.17,302.09L298.25,302.11L299.07,302.12L299.15,302.5L300.35,300.79L300.43,300.59L301.18,298.9L301.55,299.7L301.63,299.74L302.3,300.1L302.38,300.11L304.71,301.8L304.78,301.75L305.91,301.73L305.98,301.1L306.81,301.84L306.89,301.91L307.56,302.17L307.71,301.98L307.79,301.68L307.94,302.46L308.46,302L308.54,301.6L309.29,301.96L309.37,301.98L309.97,302.08L310.04,300.95L310.87,302.53L310.94,302.52L311.24,302.64L311.69,301.79L311.77,302.32L311.84,302.56L312.37,301.74L312.45,300.89L313.05,302.41L313.27,302.28L313.35,302.4L314.32,302.08L314.4,301.51L314.47,301.28L314.92,302.3L315,302.29L318.38,302.53L318.46,301.66L319.28,302.53L319.36,302.52L320.41,302.27L320.48,302.27L321.46,302.35L321.54,302.6L321.69,302.73L321.76,302.47L321.84,299.24L321.91,299.09L322.06,300.41L322.14,300.78L323.11,302.15L323.19,302.01L325.14,301.89L325.22,301.84L325.52,301.35L325.59,300.87L325.74,301.3L325.82,299.93L325.89,300.25L325.97,299.21L326.12,300L326.64,298.71L326.72,298.81L327.02,299.1L327.1,298.91L327.17,296.7L327.47,293.85L328,297.9L328.07,297.31L328.15,296.5L328.6,298.18L328.82,297.27L328.9,297.16L328.97,294.94L329.57,298L329.65,298.38L330.55,300.43L330.63,300.4L331.75,301.39L331.83,300.85L331.9,300.66L332.35,298.04L332.8,299.3L332.88,299.68L333.03,298.9L333.26,300.61L333.33,300.73L333.78,301.17L333.86,301.09L333.93,299.85L334.08,301.36L334.68,301.26L334.76,298.31L335.58,301.05L335.66,301.13L336.04,299.49L336.41,300.45L336.49,300.92L337.39,301.52L337.46,301.3L337.84,301L338.36,301.94L338.44,302.1L340.17,302.18L340.24,302.08L341.07,301.65L341.14,298.01L341.22,296.32L341.74,300.94L341.82,301.06L343.92,302.51L344,302.5L344.97,302.4L345.05,302.37L345.73,302.53L345.8,301.29L345.88,302.19L346.55,301.98L346.63,301.85L347.68,301.72L347.75,301.7L347.98,300.25L348.51,301.58L348.58,301.4L349.41,300.95L349.48,301.11L349.56,301.22L350.53,300.93L350.61,301.3L350.76,300.78L351.36,301.31L351.44,297.02L351.96,300.7L352.26,300.03L352.34,300.05L352.49,302.06L353.01,301.45L353.09,301.27L354.14,301.09L354.22,300.94L355.04,300.48L355.12,300.6L355.19,300.65L355.42,299.99L355.49,300.97L355.64,300.47L355.72,299.45L356.02,300.48L356.54,300.01L356.62,299.85L356.84,298.3L357.37,299.2L357.45,299.38L357.52,299.52L357.6,297.1L358.42,299.39L358.5,298.34L358.65,294.02L359.17,296.61L359.25,299.6L359.7,300.53L359.85,300.04L359.92,298.3L360.08,299.36L360.15,297.07L360.6,298.19L360.68,297.9L360.9,294.23L361.13,296.07L361.2,296.58L361.35,295.61L361.73,298.08L361.95,297.19L362.03,291.81L362.85,296.9L362.93,297.22L363.16,291.5L363.61,294.35L363.68,295.04L363.76,293.88L364.21,297.37L364.28,297.54L364.73,298.75L364.81,294.77L365.63,297.86L365.71,297.35L366.69,300.21L366.76,300.37L368.26,301.96L368.34,301.1L368.71,301.96L369.09,301.5L369.17,301.65L369.39,297.74L369.47,290.45L369.54,288.8L369.99,295.47L370.07,295.94L371.42,299.48L371.49,299.61L372.32,300.67L372.4,300.86L373.6,302.03L373.67,302.06L376.53,302.17L376.6,301.45L377.05,302.17L377.35,301.89L377.43,302L377.8,301.99L377.88,298.48L378.71,301.29L378.78,301.31L379.98,302.19L380.06,301.31L380.13,301.87L380.58,299.95L380.81,301.59L380.88,301.82L381.86,301.2L382.01,301.66L382.09,301.75L382.76,301.86L382.84,301.91L383.66,301.98L383.74,301.66L383.81,301.44L384.34,296.71L384.72,299.7L384.79,299.71L384.94,297.68L385.47,300.17L385.54,300.27L386.37,300.75L386.44,300.71L386.52,300.63L387.12,300.09L387.2,301.11L387.8,298.82L387.95,300.8L388.02,300.91L388.4,300.63L389,301.45L389.07,300.59L389.15,299.79L389.67,301.58L389.75,301.62L390.28,301.26L390.35,299.58L391.25,301.49L391.33,301.61L392.23,302L392.3,301.84L392.38,300.85L392.6,300.43L393.21,302.24L393.28,302.13L393.36,301.74L393.66,302.51L393.88,302.51L393.96,302.55L394.78,302.35L394.86,295.81L395.83,302.37L395.91,302.49L396.96,302.35L397.04,302.32L401.92,302.22L401.99,302.22L402.67,301.91L402.9,302.2L402.97,302.22L405.23,302.37L405.3,301.69L406.13,302.46L406.2,302.41L406.43,302.14L406.5,300.83L406.58,301.79L407.25,301.42L407.33,301.39L407.63,301.16L407.7,299.28L408.08,300.38L408.53,300.18L408.61,300.25L408.91,300.23L408.98,299.44L409.06,297.17L409.73,298.38L409.81,298.83L410.03,298.57L410.41,299.1L410.48,298.26L411.16,295.17L411.31,296.49L411.39,297.06L412.44,299.06L412.51,299.17L415.22,301.33L415.29,301.03L415.97,300.84L416.04,301.53L416.12,301.49L416.19,301.48L418.22,301.64L418.3,301.21L419.27,302.15L419.35,301.85L420.1,302.26L420.18,301.96L420.7,302.29L420.78,301.33L420.85,300.22L421.45,302.29L421.53,302.44L421.9,302.08L422.2,302.64L422.28,302.27L422.35,302.19L422.95,302.53L423.03,302.75L423.78,300.92L423.86,301.74L423.93,297.72L424.68,301.59L424.76,301.47L424.83,300.96L425.58,301.97L425.66,300.88L426.26,301.82L426.49,301.75L426.56,301.65L428.74,301.94L428.81,300.58L429.57,301.79L429.64,300.94L429.87,301.55L430.02,301.36L430.09,298.52L430.17,296.78L430.47,300.03L430.77,299.4L430.84,299.47L431.29,300.21L431.37,300.02L431.44,299.12L431.52,297.39L432.05,299.32L432.12,299.19L432.2,299.18L432.95,300.76L433.02,298.27L433.1,296.08L433.4,300.02L433.7,299.37L433.77,299.51L434.6,301.42L434.67,301.13L434.75,301.23L434.9,299.84L435.35,300.88L435.43,300.99L435.58,299.23L436.18,300.83L436.25,300.71L436.63,300.23L436.7,301.01L436.85,300.76L436.93,300.34L437.08,300.29L437.15,299.09L437.38,300.23L437.98,300.06L438.06,299.79L438.28,299.19L438.88,300.05L438.96,300.07L441.06,301.32L441.14,300.99L441.81,301.53L441.96,301.46L442.04,301.58L442.11,301.08L442.79,301.53L442.86,301.6L444.97,302.09L445.04,301.47L445.87,302.38L445.94,302.4L446.09,302.41L446.17,301.31L446.62,302.73L446.84,301.94L446.92,300.73L447.75,302.73L447.82,302.71L448.65,302.03L448.72,301.5L449.55,302.65L449.62,302.68L450.45,302.42L450.53,302.47L454.66,302.85L454.73,302.11L455.48,302.73L455.56,302.71L455.63,302.72L456.76,302.63L456.84,301.57L456.91,299.15L457.21,302.07L457.51,301.98L457.59,301.93L458.56,301.03L458.64,298.17L458.71,296.81L459.32,299.25L459.39,298.9L459.77,298.51L459.92,298.76L459.99,300.26L460.44,298.41L460.89,299.31L460.97,299.36L461.49,299.45L461.57,295.38L461.64,297.13L461.79,289.57L462.17,292.42L462.25,292.65L462.77,293.87L462.92,293.7L463,292.88L463.15,292.17L463.6,295.5L463.67,295.32L463.75,292.56L464.12,290.78L464.65,295.39L464.72,295.29L464.95,290.82L465.55,291.66L465.63,291.62L467.05,298.53L467.13,298.75L467.2,298.58L467.58,299.52L467.65,296.87L468.56,300.58L468.63,299.22L469.38,300.61L469.46,299.99L469.53,300.16L469.61,299.01L469.83,301.03L470.21,300.52L470.28,300.87L470.43,301.12L470.73,300.8L470.81,299.86L470.88,300.82L471.11,298.54L471.56,299.85L471.64,299.88L472.46,293.06L472.54,294.22L472.91,290.85L473.29,297.92L473.51,297.58L473.59,297.69L473.66,297.48L474.12,298.28L474.19,298.48L474.57,299.41L474.64,297.85L475.32,301.18L475.39,295.63L475.62,299.33L475.84,289.35L476.14,296.23L476.22,297.34L476.59,299.27L476.74,296.85L476.97,298.7L477.05,293.03L477.35,298.99L477.87,297.59L477.95,297.98L478.1,298.36L478.17,295.44L478.55,294.85L479,297.28L479.07,297.55L480.8,299.37L480.88,299.64L482.83,301.71L482.9,301.68L483.88,302.29L483.96,302.29L484.03,302.08L484.71,302.34L484.78,302.33L487.94,302.18L488.01,302.36L489.37,301.94L489.44,302.39L490.87,302.93L490.94,303.1L491.92,303.56L491.99,303.41L492.07,303.29L494.4,300.31L494.47,299.08L494.92,300.43L495.3,300.02L495.38,299.61L495.9,299.35L495.98,300.91L496.35,300.77L496.43,300.83L496.5,300.62L497.03,301.2L497.1,301.24L497.25,299.97L497.33,301.5L497.78,301.46L497.85,301.47L499.88,301.61L499.96,301.18L500.71,302.09L500.78,302.05L500.86,302.01L501.24,301.76L501.61,302.37L501.69,302.42L502.96,302.22L503.04,302.19L503.41,302.61L503.64,302.11L503.71,302.5L503.79,298.81L503.94,302.2L504.62,302.06L504.69,301.92L504.92,302.59L505.44,302.25L505.52,301.76L505.82,301.92L506.04,301.75L506.12,299.27L506.94,301.57L507.02,299.06L507.55,301.31L508,301L508.07,300.91L508.15,300.7L508.22,296.73L508.45,300.34L508.97,298.65L509.05,298.59L509.65,298.43L509.72,298.9L509.8,297.75L510.55,299.39L510.63,292.22L510.78,287.64L511.38,291.43L511.45,291.7L511.75,293.55L511.83,296.36L512.13,296.12L512.8,298.63L512.88,298.63L513.33,299.28L513.41,299.47L513.71,298.68L515.06,302.18L515.13,302.14L516.79,301.53L516.86,300.3L517.16,301.25L517.31,298.49L517.39,299.23L517.46,294.43L518.51,298.2L518.59,298.48L518.81,298.95L518.89,295.09L519.42,294.18L519.49,297.81L519.72,297.8L519.79,297.87L520.24,299.36L520.47,298.8L520.54,296.7L520.62,297.01L520.69,294.51L520.77,292.86L520.84,294.03L520.99,289.53L521.52,293.14L521.59,293.54L521.97,290.78L522.27,294L522.35,294.43L523.4,298.16L523.47,298.29L523.7,296.84L524.15,298.79L524.22,298.94L524.37,299.15L524.45,297.7L525.65,300.36L525.73,299.53L526.55,301.07L526.63,301.1L527.08,301.17L527.15,297.8L527.23,296.88L527.6,300.96L527.68,301.1L527.75,301.24L527.83,300.35L527.98,300.88L528.06,299.99L528.88,301.51L529.03,301.36L529.11,301.54L529.78,301.52L529.86,302.25L530.23,302.48L530.31,302.19L530.38,301.45L531.06,302.49L531.21,302.39L531.29,301.77L531.44,302.16L532.04,301.77L532.11,301.64L532.49,297.07L532.86,300.14L532.94,300.4L533.76,302.18L533.91,301.6L533.99,299.42L534.07,295.34L534.67,300.57L534.74,300.46L535.42,300.59L535.49,300.52L535.57,299.31L535.79,300.04L536.39,299.69L536.47,299.64L536.84,299.86L536.99,300.22L537.07,300.39L537.22,299.85L538.57,302.32L538.65,302.34L540,302.08" style="vector-effect: non-scaling-stroke; fill: none; stroke: rgb(31, 119, 180); stroke-opacity: 1; stroke-width: 2px; opacity: 1;"/></g><g class="points"/><g class="text"/></g></g></g><g class="overplot"/><path class="xlines-above crisp" d="M0,0" style="fill: none;"/><path class="ylines-above crisp" d="M0,0" style="fill: none;"/><g class="overlines-above"/><g class="xaxislayer-above"><g class="xtick"><text text-anchor="middle" x="0" y="433" transform="translate(177.51,0)" style="font-family: 'Open Sans', verdana, arial, sans-serif; font-size: 12px; fill: rgb(42, 63, 95); fill-opacity: 1; white-space: pre; opacity: 1;">2005</text></g><g class="xtick"><text text-anchor="middle" x="0" y="433" style="font-family: 'Open Sans', verdana, arial, sans-serif; font-size: 12px; fill: rgb(42, 63, 95); fill-opacity: 1; white-space: pre; opacity: 1;" transform="translate(314.69,0)">2010</text></g><g class="xtick"><text text-anchor="middle" x="0" y="433" style="font-family: 'Open Sans', verdana, arial, sans-serif; font-size: 12px; fill: rgb(42, 63, 95); fill-opacity: 1; white-space: pre; opacity: 1;" transform="translate(451.87,0)">2015</text></g><g class="xtick"><text text-anchor="middle" x="0" y="433" style="font-family: 'Open Sans', verdana, arial, sans-serif; font-size: 12px; fill: rgb(42, 63, 95); fill-opacity: 1; white-space: pre; opacity: 1;" transform="translate(589.05,0)">2020</text></g></g><g class="yaxislayer-above"><g class="ytick"><text text-anchor="end" x="79" y="4.199999999999999" transform="translate(0,404)" style="font-family: 'Open Sans', verdana, arial, sans-serif; font-size: 12px; fill: rgb(42, 63, 95); fill-opacity: 1; white-space: pre; opacity: 1;">0</text></g><g class="ytick"><text text-anchor="end" x="79" y="4.199999999999999" style="font-family: 'Open Sans', verdana, arial, sans-serif; font-size: 12px; fill: rgb(42, 63, 95); fill-opacity: 1; white-space: pre; opacity: 1;" transform="translate(0,360.92)">100</text></g><g class="ytick"><text text-anchor="end" x="79" y="4.199999999999999" style="font-family: 'Open Sans', verdana, arial, sans-serif; font-size: 12px; fill: rgb(42, 63, 95); fill-opacity: 1; white-space: pre; opacity: 1;" transform="translate(0,317.83000000000004)">200</text></g><g class="ytick"><text text-anchor="end" x="79" y="4.199999999999999" style="font-family: 'Open Sans', verdana, arial, sans-serif; font-size: 12px; fill: rgb(42, 63, 95); fill-opacity: 1; white-space: pre; opacity: 1;" transform="translate(0,274.74)">300</text></g><g class="ytick"><text text-anchor="end" x="79" y="4.199999999999999" style="font-family: 'Open Sans', verdana, arial, sans-serif; font-size: 12px; fill: rgb(42, 63, 95); fill-opacity: 1; white-space: pre; opacity: 1;" transform="translate(0,231.66)">400</text></g><g class="ytick"><text text-anchor="end" x="79" y="4.199999999999999" style="font-family: 'Open Sans', verdana, arial, sans-serif; font-size: 12px; fill: rgb(42, 63, 95); fill-opacity: 1; white-space: pre; opacity: 1;" transform="translate(0,188.57)">500</text></g><g class="ytick"><text text-anchor="end" x="79" y="4.199999999999999" style="font-family: 'Open Sans', verdana, arial, sans-serif; font-size: 12px; fill: rgb(42, 63, 95); fill-opacity: 1; white-space: pre; opacity: 1;" transform="translate(0,145.49)">600</text></g><g class="ytick"><text text-anchor="end" x="79" y="4.199999999999999" style="font-family: 'Open Sans', verdana, arial, sans-serif; font-size: 12px; fill: rgb(42, 63, 95); fill-opacity: 1; white-space: pre; opacity: 1;" transform="translate(0,102.4)">700</text></g></g><g class="overaxes-above"/></g></g><g class="polarlayer"/><g class="smithlayer"/><g class="ternarylayer"/><g class="geolayer"/><g class="funnelarealayer"/><g class="pielayer"/><g class="iciclelayer"/><g class="treemaplayer"/><g class="sunburstlayer"/><g class="glimages"/><defs id="topdefs-b4639f"><g class="clips"/></defs><g class="layer-above"><g class="imagelayer"/><g class="shapelayer"/></g><g class="infolayer"><g class="g-gtitle"/><g class="g-xtitle"/><g class="g-ytitle"/></g></svg>