<svg class="main-svg" xmlns="http://www.w3.org/2000/svg" xmlns:xlink="http://www.w3.org/1999/xlink" width="700" height="500" style="" viewBox="0 0 700 500"><rect x="0" y="0" width="700" height="500" style="fill: rgb(255, 255, 255); fill-opacity: 1;"/><defs id="defs-d30952"><g class="clips"><clipPath id="clipd30952xyplot" class="plotclip"><rect width="540" height="320"/></clipPath><clipPath class="axesclip" id="clipd30952x"><rect x="80" y="0" width="540" height="500"/></clipPath><clipPath class="axesclip" id="clipd30952y"><rect x="0" y="100" width="700" height="320"/></clipPath><clipPath class="axesclip" id="clipd30952xy"><rect x="80" y="100" width="540" height="320"/></clipPath></g><g class="gradients"/><g class="patterns"/></defs><g class="bglayer"><rect class="bg" x="80" y="100" width="540" height="320" style="fill: rgb(229, 236, 246); fill-opacity: 1; stroke-width: 0;"/></g><g class="layer-below"><g class="imagelayer"/><g class="shapelayer"/></g><g class="cartesianlayer"><g class="subplot xy"><g class="layer-subplot"><g class="shapelayer"/><g class="imagelayer"/></g><g class="minor-gridlayer"><g class="x"/><g class="y"/></g><g class="gridlayer"><g class="x"><path class="xgrid crisp" transform="translate(177.51,0)" d="M0,100v320" style="stroke: rgb(255, 255, 255); stroke-opacity: 1; stroke-width: 1px;"/><path class="xgrid crisp" transform="translate(314.69,0)" d="M0,100v320" style="stroke: rgb(255, 255, 255); stroke-opacity: 1; stroke-width: 1px;"/><path class="xgrid crisp" transform="translate(451.87,0)" d="M0,100v320" style="stroke: rgb(255, 255, 255); stroke-opacity: 1; stroke-width: 1px;"/><path class="xgrid crisp" transform="translate(589.05,0)" d="M0,100v320" style="stroke: rgb(255, 255, 255); stroke-opacity: 1; stroke-width: 1px;"/></g><g class="y"><path class="ygrid crisp" transform="translate(0,354.53)" d="M80,0h540" style="stroke: rgb(255, 255, 255); stroke-opacity: 1; stroke-width: 1px;"/><path class="ygrid crisp" transform="translate(0,305.07)" d="M80,0h540" style="stroke: rgb(255, 255, 255); stroke-opacity: 1; stroke-width: 1px;"/><path class="ygrid crisp" transform="translate(0,255.6)" d="M80,0h540" style="stroke: rgb(255, 255, 255); stroke-opacity: 1; stroke-width: 1px;"/><path class="ygrid crisp" transform="translate(0,206.14)" d="M80,0h540" style="stroke: rgb(255, 255, 255); stroke-opacity: 1; stroke-width: 1px;"/><path class="ygrid crisp" transform="translate(0,156.67000000000002)" d="M80,0h540" style="stroke: rgb(255, 255, 255); stroke-opacity: 1; stroke-width: 1px;"/><path class="ygrid crisp" transform="translate(0,107.21)" d="M80,0h540" style="stroke: rgb(255, 255, 255); stroke-opacity: 1; stroke-width: 1px;"/></g></g><g class="zerolinelayer"><path class="yzl zl crisp" transform="translate(0,404)" d="M80,0h540" style="stroke: rgb(255, 255, 255); stroke-opacity: 1; stroke-width: 2px;"/></g><path class="xlines-below"/><path class="ylines-below"/><g class="overlines-below"/><g class="xaxislayer-below"/><g class="yaxislayer-below"/><g class="overaxes-below"/><g class="plot" transform="translate(80,100)" clip-path="url(#clipd30952xyplot)"><g class="scatterlayer mlayer"><g class="trace scatter trace8931a7" style="stroke-miterlimit: 2; opacity: 1;"><g class="fills"/><g class="errorbars"/><g class="lines"><path class="js-line" d="M491.54,303L491.77,302.97L491.84,281.54L492.3,302.8L492.37,278.19L492.67,302.38L492.75,302.65L493.65,303.97L493.72,269.14L494.17,302.92L494.55,302.9L494.62,302.97L495.23,302.88L495.3,302.6L495.38,302.45L495.6,302.28L495.68,302.86L495.75,297.68L496.35,303.93L496.43,275.99L496.5,296.97L496.58,302.52L497.03,304L497.1,303.97L497.18,291.1L498.01,304L498.08,304L498.31,304L498.38,279.99L499.21,304L499.28,304L499.43,304L499.51,254.69L500.11,304L500.33,302.77L500.41,303.21L500.48,303.95L500.56,292.93L500.63,288.23L501.09,304L501.16,304L501.39,300.36L501.91,304L501.99,304L503.11,303.97L503.19,295.84L503.49,303.8L503.56,288.23L503.64,303.61L503.71,222.81L503.79,180.12L504.09,304L504.24,304L504.32,304L505.89,304" style="vector-effect: non-scaling-stroke; fill: none; stroke: rgb(255, 165, 0); stroke-opacity: 1; stroke-width: 2px; opacity: 1;"/><path class="js-line" d="M506.04,304L506.87,304L506.94,188.4L507.85,304L507.92,304L508.15,302.62L508.67,304L508.75,304L510.48,304L510.55,222.6L511.53,304L511.6,303.72L511.68,303.25L512.05,303.95L512.28,303.85L512.35,303.89L513.56,304L513.63,303.62L514.46,304L514.53,304L514.68,262.97L515.28,303.82L515.36,304L515.81,303.66L515.88,294.88L516.71,304L516.79,283.09L517.09,304L517.16,303.02L517.24,168.09L517.31,260.62L517.39,126.14" style="vector-effect: non-scaling-stroke; fill: none; stroke: rgb(255, 165, 0); stroke-opacity: 1; stroke-width: 2px; opacity: 1;"/><path class="js-line" d="M517.54,300.98L518.36,304L518.44,304L518.74,304L518.81,292.86L519.12,276.59L519.64,304L519.72,304L520.17,304L520.24,299.12L520.62,291.08L520.84,304L520.92,290.48L521.07,290.13L521.52,303.55L521.67,303.31L521.74,281L522.57,304L522.65,304L522.87,302.42L523.4,304L523.47,304L523.62,303.34L524.22,304L524.3,304L525.13,303.89L525.2,301.55L526.03,304L526.1,304L526.18,280.74L526.85,304L526.93,304L527.08,304L527.15,296.5L527.68,304L527.75,296.85L527.83,289.06L528.58,304L528.66,302.15L529.48,304L529.56,304L529.71,303.71L530.23,304L530.31,300.91L531.21,304L531.29,304L532.11,303.88L532.19,291.61L533.01,304L533.09,304L533.84,304L533.91,301.55L533.99,287.37L534.14,304L534.59,304L534.67,304L535.34,304L535.42,302.71L535.49,16L535.79,304L536.09,304L536.17,304L537.07,304L537.15,299.82L537.97,304L538.05,304L538.12,297.91L538.8,303.84L538.87,304L539.32,304L539.4,300.85L540,304" style="vector-effect: non-scaling-stroke; fill: none; stroke: rgb(255, 165, 0); stroke-opacity: 1; stroke-width: 2px; opacity: 1;"/></g><g class="points"/><g class="text"/></g><g class="trace scatter tracebcb09c" style="stroke-miterlimit: 2; opacity: 1;"><g class="fills"/><g class="errorbars"/><g class="lines"><path class="js-line" d="M0,298.58L1.2,303.56L1.28,303.47L2.1,304L2.18,304L2.85,302.85L2.93,303.69L3.01,303.9L4.51,304L4.58,304L14.12,303.3L14.2,302.96L15.25,301.11L15.33,301.98L15.55,302.74L16.83,300.58L16.9,301.75L17.8,299.91L17.88,300.5L18.33,299.62L18.63,299.95L18.71,300.51L19.46,299.87L19.68,300.22L19.76,301.05L19.98,298.45L20.06,302.9L20.43,300.63L20.51,301.46L20.81,300.84L20.88,303.48L21.34,302.54L21.41,302.09L21.71,301.03L21.79,302.97L22.09,301.9L22.16,277.61L22.31,292.11L22.46,241.28L22.84,267.72L22.91,248.86L24.19,291.81L24.27,292.72L24.64,294.41L24.72,291.9L25.02,243.71L25.24,272L25.32,274.41L26.82,298.18L26.89,296.68L27.05,296.19L27.12,279.87L27.65,299.28L27.95,299.24L28.02,299.33L28.4,300.04L28.47,298.4L29.22,302.53L29.52,302.33L29.6,302.28L29.82,301.33L30.95,304L31.03,304L31.25,301.93L31.78,304L31.85,304L32.3,301.64L32.6,303.73L32.68,303.91L33.13,295.74L33.36,302.95L33.43,289.6L34.33,304L34.41,304L34.71,303.42L34.78,302.66L34.93,303L35.01,301.63L35.23,302.12L35.31,301.9L35.38,301.56L35.68,302.53L35.76,302.43L35.83,303.11L36.21,302.1L36.29,303.76L36.36,260.8L36.96,303.92L37.19,303.55L37.26,304L38.31,304L38.39,302.56L38.46,303.14L38.99,302.97L39.07,301.72L39.74,296.1L39.82,235.87L40.72,298.1L40.79,298.52L40.94,297.92L41.02,181.44L41.84,300.22L41.92,301.15L42.45,303.81L42.9,302.96L42.97,301.67L43.05,294.35L43.72,297.55L43.8,298.01L44.77,300L44.85,299.76L44.92,299.52L45.75,298.51L45.83,296.65L46.35,253.24L46.43,207.38L46.88,161.76L47.25,277.58L47.33,279.37L48.46,287L48.53,287.19L50.03,297.77L50.18,296.5L50.26,296.36L51.16,300.11L51.31,299.82L51.39,299.53L51.54,299.16L51.99,299.71L52.06,300.54L52.21,300.05L52.81,301.1L52.89,300.67L52.96,300.7L53.41,301.76L53.56,300.39L53.71,301.08L53.79,301.18L53.94,301.37L54.24,300.8L54.39,300.75L54.47,300.75L55.67,300.53L55.74,300.73L55.97,301.59L56.04,300.34L56.42,300.94L56.49,299.9L56.64,300.24L56.72,299.79L57.02,300.73L57.55,300.29L57.62,300.47L58.07,301L58.15,301.96L58.97,304L59.05,304L59.72,304L59.8,298.86L60.4,303.29L60.63,303.25L60.7,303.15L60.85,294.45L61.15,303.67L61.38,302.7L61.45,303.37L61.9,304L62.13,303.27L62.2,303.21L63.18,301.29L63.26,302.63L63.33,303.66L64.23,303.32L64.31,304L65.06,287.14L65.21,293.2L65.28,296.99L65.36,298.7L65.43,292.64L66.04,298.34L66.11,298.64L66.41,300.36L66.56,299.61L66.64,295.09L67.09,299.41L67.39,296.14L67.46,295.39L67.69,295.99L67.76,291.55L67.84,293.84L67.91,276.69L67.99,234L68.06,234.55L68.14,252.28L69.34,286.79L69.42,286.99L71.07,296.94L71.14,296.6L71.22,296.2L71.89,295.31L72.27,295.83L72.35,296.27L73.25,297.9L73.47,297.71L73.55,295.14L73.7,295.29L73.85,254.76L74.07,284.21L74.15,287.59L74.3,226.16L74.75,294.45L74.82,295.3L74.97,295.24L76.48,304L76.55,301.14L76.63,301.97L76.7,225.81L76.78,160.94L77.3,283.57L77.38,286.09L78.06,230.4L78.13,267.23L78.21,276.94L78.51,275.81L78.96,286.94L79.03,267.15L79.86,286.37L79.93,275.58L80.76,295.89L80.91,295.86L80.98,295.86L84.44,302.91L84.52,304L84.74,301.77L85.27,303.93L85.34,303.57L85.42,303.31L85.57,303.98L85.94,303.96L86.02,304L86.39,303.11L86.92,303.71L86.99,303.71L88.35,304L88.42,304L88.65,303.49L89.25,303.96L89.32,304L90.45,303.93L90.53,304L92.33,304L92.4,300.08L92.48,298.92L92.55,284.62L93.38,301.87L93.46,302.24L93.68,301.56L93.76,300.67L94.21,298.13L94.66,298.94L94.73,299.28L94.96,280.69L95.03,256.91L95.18,270.37L95.26,225.3L96.09,274.46L96.16,276.29L97.66,294.91L97.74,294.88L98.71,296.47L98.94,296.31L99.02,296.08L100.07,296.5L100.14,296.8L100.22,297.03L100.37,296.01L100.44,287.57L101.42,296.44L101.49,296.93L101.94,298.54L102.32,297.52L102.4,297.49L103.75,301.33L103.82,301.2L104.12,302.65L104.42,299.95L104.65,300.95L104.72,301L104.87,301.34L105.18,300.24L105.25,300.07L105.4,300.19L105.48,299.77L105.93,300.2L106,300.46L106.08,301.4L106.3,300.3L106.75,301.01L106.83,300.88L106.98,300.82L107.05,302.45L107.5,302.94L107.65,302.4L107.73,304L108.93,303.35L109.01,303.18L110.21,302.58L110.28,302.65L110.36,302.99L111.11,301.99L111.26,302.54L111.34,302.76L111.49,301.64L111.71,304L111.94,303.73L112.01,303.9L113.51,304L113.59,303.59L113.66,302.78L114.12,304L114.42,303.57L114.49,303.63L114.79,303.94L115.32,303.61L115.39,303.65L115.47,301.33L116.07,303.73L116.14,303.73L116.37,302.4L116.44,304L116.52,304L118.85,303.86L118.92,297.25L119.37,247.08L119.67,277.78L119.75,274.3L120.73,302.31L120.8,302.32L120.95,302.58L121.03,297.08L121.25,300.91L121.33,264.48L121.4,200.59L122,285.16L122.08,287.83L122.75,287.8L123.21,297.35L123.28,297.38L124.48,302.41L124.56,302.61L125.08,303.09L125.31,302.55L125.38,302.36L125.68,265.52L126.14,282.72L126.21,286.27L126.89,297.21L126.96,289.98L127.04,270.75L127.11,195.26L127.71,294.46L127.79,295.63L128.76,301.09L129.14,300.97L129.22,299.26L129.52,301.28L129.97,300.3L130.04,300.48L130.42,300.16L130.49,299.9L130.57,299.64L131.39,300.93L131.47,300.79L131.54,300.64L132.6,299.4L132.67,300.31L132.75,299.66L132.97,300.8L133.35,300.6L133.42,300.62L133.8,301.13L134.17,300.42L134.25,300.58L134.32,300.62L134.92,300.67L135.08,300.87L135.15,300.97L136.2,300.68L136.28,302.64L136.35,300.22L137.03,300.82L137.1,300.79L138.31,300.61L138.38,301.64L138.91,304L139.13,303.82L139.21,303.89L140.33,303.62L140.41,303.24L141.09,303.81L141.16,303.56L141.24,303.65L141.99,303.8L142.06,303.15L142.51,304L142.89,303.83L142.96,303.83L144.09,304L144.17,256.89L144.84,303.74L145.07,300.28L145.14,301.79L145.74,303.61L145.97,302.76L146.04,302.74L146.34,301.08L146.72,301.53L146.79,297.14L147.17,303.48L147.62,303L147.7,302.8L148.15,301.42L148.52,302.45L148.6,302.7L149.42,303.21L149.5,303.51L152.13,303.37L152.2,303.12L153.18,301.65L153.26,302.3L154.61,301.92L154.68,302.01L154.76,302.15L154.98,301.88L155.21,302.42L155.28,303.04L155.36,302.58L155.66,303.3L155.96,303.29L156.04,304L156.64,303.34L156.71,303.06L157.24,302.96L157.31,304L157.91,302.75L158.14,303.04L158.21,302.95L159.04,302.95L159.12,303.35L159.27,302.11L159.34,293.65L159.87,299.37L160.17,285.01L160.24,290.09L160.54,299.08L161.07,297.87L161.14,298.47L161.29,299.1L161.37,298.86L161.44,281.92L162.27,296.16L162.35,296.97L162.57,297.38L162.65,297.79L162.8,298.38L163.02,297.58L163.32,297.92L163.4,297.43L163.62,296.88L163.92,298.31L164,298.79L165.2,302.89L165.28,303.05L165.58,303.52L165.65,303.73L166.93,304L167,304L168.73,304L168.81,301.28L169.63,304L169.71,304L169.78,302.88L170.46,304L170.53,304L171.59,303.51L171.66,303.66L173.16,304L173.24,303.15L174.07,304L174.14,304L174.22,303.35L174.89,304L174.97,304L179.7,303.34L179.77,303.14L179.85,302.86L180.08,304L180.3,304L180.38,304L181.35,303.45L181.43,303.18L182.25,302.81L182.33,303.16L182.4,302.96L182.48,304L183.08,303.21L183.16,303.34L183.38,302.83L183.76,304L183.83,304L184.13,303.42L184.21,300.05L184.58,304L185.03,302.83L185.11,302.79L186.46,302.92L186.54,303.13L186.69,303.63L187.21,302.98L187.29,303.42L187.36,303.16L188.04,304L188.11,302.71L188.34,302.25L188.94,304L189.02,304L189.62,304L189.69,303.06L190.52,304L190.59,304L190.67,303.36L190.74,283.36L191.04,264.34L191.27,303.14L191.49,300.04L191.57,287.08L192.4,302.82L192.47,302.5L193.37,298.69L193.45,299.64L193.67,302.1L194.27,301.9L194.35,296.95L195.25,303.75L195.33,303.63L196.23,304L196.3,304L202.76,304L202.84,280.17L203.14,303.12L203.66,301.8L203.74,301.58L204.04,301.68L204.27,301.11L204.34,301.01L204.64,300.17L204.94,301.22L205.02,301.45L205.39,302.35L205.77,301.82L205.84,301.12L206.14,297.17L206.59,298.26L206.67,298.46L206.82,298.97L206.89,285.04L206.97,230.11L207.57,295.48L207.65,296.27L208.02,283.37L208.4,295.68L208.47,296.05L209.3,302.18L209.52,301.96L209.6,265.4L209.82,237.02L210.2,288.54L210.28,290.43L211.33,300.28L211.4,300.69L212.08,302.39L212.38,301.61L212.45,301.62L213.73,301.12L213.81,296.16L213.96,290.8L214.03,246.57L214.18,242.28L215.16,278.09L215.23,278.79L215.76,284.43L215.83,285.99L217.11,297.41L217.19,297.65L217.34,298L217.49,296.49L217.56,296.66L217.64,296.71L220.49,303.02L220.57,301.86L220.72,301.32L221.02,303.05L221.09,303.61L221.39,304L221.47,302.92L221.54,303.8L221.62,301.74L222.45,304L222.52,304L226.58,304L226.65,303.05L227.48,304L227.55,304L229.28,304L229.36,303.07L229.43,293.06L229.73,304L230.03,304L230.11,304L234.09,304L234.17,303.18L234.24,304L234.47,298.98L234.54,297.57L235.22,281.48L235.44,287.7L235.52,288.96L235.74,287.81L235.89,290.99L235.97,292.87L236.94,298.22L237.02,298.58L237.25,299.22L237.32,294.69L237.55,299.89L237.62,277.12L237.7,254.88L238.07,283.33L238.37,264.78L238.45,233.88L239.27,292.82L239.35,283.33L239.57,293.81L239.72,265.86L240.03,278.68L240.1,280.96L241.08,294.5L241.3,293.7L241.38,293.41L241.75,290.83L241.83,293.45L241.9,292.45L242.05,293.55L242.5,293.22L242.58,293.52L243.78,298.91L243.86,297.03L243.93,230.73L244.61,272L244.68,264.98L244.76,265.57L244.83,272.34L246.04,300.53L246.11,299.94L246.19,298.15L246.26,298.58L246.56,296.44L246.64,296.53L246.71,294.51L247.09,291.06L247.31,295.57L247.39,296.23L248.59,302.68L248.89,301.96L248.96,301.97L249.72,301.38L249.87,301.9L249.94,302.16L250.39,303.77L250.47,303.69L250.54,302.01L251.44,304L251.52,304L252.05,304L252.12,302.6L252.95,304L253.02,304L254.15,304L254.22,290.73L255.05,304L255.13,304L255.88,303.41L255.95,271.57L256.78,304L256.85,304L258.51,303.43L258.58,303.22L259.63,301.91L259.71,302.33L259.78,302.54L259.86,303.65L260.16,302.24L260.53,302.83L260.61,302.4L261.51,300.29L261.59,302.47L261.96,300.45L262.41,301.14L262.49,301.66L262.79,302.4L263.24,301.71L263.31,301.39L264.07,301.25L264.14,301.4L264.22,293.46L264.89,303.04L265.04,302.96L265.12,302.96L265.42,302.71L265.49,303.09L265.64,303.03L265.72,303.62L265.79,303.82L266.17,302.69L266.24,302.68L266.62,302.19L266.84,303.1L266.99,302.7L267.07,302.24L267.22,299.08L267.3,302.47L267.37,302.26L267.45,231.68L267.67,162.15L268.27,292.29L268.35,293.49L269.77,304L269.85,304L270.83,303.33L270.9,302.91L271.65,258.92L271.8,279.01L271.88,284.09L272.78,297.77L272.85,297.58L272.93,297.6L273.38,298.67L273.46,285.11L273.68,296.37L273.98,263.29L274.06,245.09L274.21,214.66L275.03,304L275.11,304L276.01,300.18L276.16,300.91L276.24,301.47L276.69,301L276.91,302.06L276.99,301.59L277.06,301.39L277.66,303.72L277.96,302.56L278.04,301.3L279.02,304L279.09,304L284.65,304L284.72,302.86L285.1,304L285.18,301.64L285.25,270.52L285.4,264.38L285.85,287.03L285.93,235.49L286.08,94.06L286.23,172.52L286.3,193.79L286.53,166.82L287.65,283.05L287.73,285.12L289.01,296.9L289.08,296.75L289.68,297.63L289.98,297.3L290.06,296.92L290.96,296.18L291.04,296.53L292.09,298.36L292.16,298.37L293.81,298.33L293.89,298.45L294.87,298.32L294.94,298.42L295.02,298.59L295.47,298.64L295.54,299.88L295.62,287.42L296.29,299.65L296.37,301.57L296.59,302.57L296.67,283.95L297.35,296.51L297.57,293.95L297.65,293.02L298.1,298.84L298.47,295.5L298.55,297.25L298.62,281.58L299.3,295.7L299.37,296.82L299.6,299.19L300.05,297.96L300.13,283.73L300.95,300.21L301.03,300.4L301.25,299.87L302.23,302.95L302.3,303.15L303.28,304L303.36,303.52L304.18,304L304.26,304L305.98,304L306.06,303.19L306.81,304L306.89,303.98L306.96,303.85L307.71,304L307.79,302.93L307.86,302.68L308.24,303.6L308.31,303.59L308.39,303.61L309.97,304L310.04,279.5L310.87,304L310.94,304L311.62,303.78L311.69,303.06L311.92,304L311.99,301.73L312.37,303.47L312.45,294.22L313.27,304L313.35,304L313.8,303.76L313.87,303.06L314.92,299.65L315,299.71L315.6,298.89L315.75,299.67L315.83,300.21L315.9,300.58L316.13,299.8L316.5,300.09L316.58,300.08L318.23,299.54L318.31,299.56L318.46,298.68L318.53,300.6L319.06,299.33L319.13,299.32L319.43,299.55L319.96,298.97L320.03,299.49L320.26,300.16L320.48,299.33L320.71,299.73L320.78,299.16L320.93,298.58L321.24,299.49L321.31,302.76L321.61,303.42L321.76,302.37L321.84,256.84L322.36,299.66L322.81,295.64L322.89,296.18L322.96,293.09L323.49,299.5L323.56,301.44L324.09,299.18L324.39,300.21L324.47,300.82L324.69,302.58L325.29,301.82L325.37,301.45L325.59,300.83L325.67,295.89L325.74,290.89L325.82,227.88L325.97,136.48L326.34,243.94L326.42,256.11L327.1,291.92L327.32,278.21L327.4,265.91L327.47,264.77L327.62,271.16L327.7,274.31L328.9,296.29L328.97,293.26L329.72,297.7L329.87,297.54L329.95,297.7L330.7,300.22L330.78,300.41L332.73,303.42L332.8,302.5L334.16,304L334.23,304L335.81,304L335.88,301.75L336.04,304L336.71,303.49L336.79,303.46L337.84,304L337.91,303.59L338.36,303.97L338.44,303.23L338.66,303.85L338.74,303.89L341.07,304L341.14,292.67L341.22,273.74L341.82,301.89L341.89,301.99L342.8,303.86L342.87,303.81L342.95,303.78L343.47,304L343.55,303.1L344.37,304L344.45,304L345.73,304L345.8,303.23L345.95,303.31L346.1,299.92L346.55,302.39L346.63,302.41L346.93,302.16L347.23,302.56L347.3,302.86L347.45,302.51L347.53,303.27L347.98,303.14L348.06,302.54L348.81,301.97L348.96,302.2L349.03,302.25L349.18,302.61L349.78,302.34L349.86,302.38L350.31,302.84L350.46,302.65L350.53,303.87L350.98,302.18L351.29,302.91L351.36,302.79L351.44,290.29L352.04,303.41L352.11,302.52L352.19,302.75L352.41,301.75L352.49,303.8L352.71,304L352.94,303.51L353.16,304L353.24,304L354.44,303.8L354.52,303.09L354.74,301.9L354.97,303.7L355.12,303.23L355.19,303.21L355.34,304L355.72,302.67L355.79,304L356.54,304L356.62,303.11L356.99,296.29L357.37,302.51L357.45,302.74L358.5,303.92L358.57,302.74L358.65,301.13L359.17,304L359.25,303.87L359.32,303.96L360.15,303.9L360.23,303.2L360.98,304L361.05,303.96L361.13,304L361.95,304L362.03,303.15L362.55,304L362.85,303.67L362.93,303.59L363.61,303.64L363.68,303.82L363.76,304L364.43,303.33L364.58,303.41L364.66,303.38L364.81,260.01L365.11,304L365.33,301.9L365.41,304L366.39,303.27L366.46,302.71L366.54,302.23L367.14,303.16L367.21,303.22L368.79,304L368.86,304L369.39,304L369.47,267.69L369.54,268L369.62,296.12L369.84,288.51L370.07,296.55L370.14,297.44L370.52,296.94L370.59,295.25L370.67,284.74L371.12,297.29L371.27,297.22L371.34,297.05L372.4,300.39L372.47,300.61L372.77,301.89L372.85,302.23L373,304L373.3,298.46L373.6,302.59L373.67,302.65L374.35,302.73L374.42,301.64L374.5,299.81L374.57,301.78L375.18,301.13L375.25,301.43L375.78,301.16L375.93,301.8L376,302.16L376.6,303.93L376.83,302.64L376.9,302.6L377.35,303.51L377.5,302.83L377.58,302.39L377.8,302.81L377.88,295.38L378.78,302.43L378.86,302.65L379.16,301.99L379.23,301.63L379.38,301.23L379.83,302.17L379.98,301.62L380.06,302.71L380.73,300.34L380.81,302.74L382.24,302.72L382.31,303.41L382.54,302.67L383.06,303.22L383.14,303.27L384.04,303.77L384.12,302.97L384.42,302.03L384.94,304L385.09,303.7L385.17,303.68L385.47,302.96L385.54,301.77L385.62,301.14L385.84,303.72L385.99,303.72L386.07,303.74L387.05,303.62L387.12,302.62L387.65,303.86L387.95,303.57L388.02,303.69L388.4,304L388.7,303.59L388.77,302.97L390.2,303.71L390.28,303.08L390.35,302.61L390.88,303.92L390.95,303.42L391.03,303.68L394.78,304L394.86,274.75L395.68,304L395.76,304L396.81,303.25L396.89,303.14L399.14,302.88L399.22,302.97L399.74,302.84L399.89,302.97L399.97,303.17L401.69,302.93L401.77,303.02L402.07,302.7L402.37,303.21L402.45,303.54L403.12,302.44L403.27,302.67L403.35,302.72L403.65,303.13L403.72,304L404.55,303.49L404.62,303.16L405.68,300.39L405.9,300.86L405.98,301.32L406.43,304L406.5,285.59L407.33,303.12L407.4,303.09L407.7,300.1L407.78,302.24L407.85,298.12L407.93,299.55L408.23,293.77L408.38,294.17L408.46,294.45L408.91,300.16L409.06,296.53L409.13,293.91L410.03,298.74L410.11,297.85L410.18,297.76L410.48,298.35L410.78,297.32L410.86,297.33L411.16,298.09L411.24,298.47L411.99,300.5L412.06,300.07L412.14,299.06L413.26,303.23L413.34,303.33L413.41,303.52L413.64,302.25L413.86,302.86L413.94,302.75L414.17,302.54L414.47,303.27L414.54,303.9L414.69,303.17L414.92,304L415.22,304L415.29,304L418.37,303.87L418.45,303.08L418.75,304L419.2,303.85L419.27,303.74L419.57,303.3L420.03,303.81L420.1,303.86L420.7,303.51L420.78,304L423.71,304L423.78,302.13L423.86,301.58L423.93,289.89L424.01,304L424.16,289.74L424.68,298.91L424.76,298.54L425.28,301.38L425.58,300.37L425.66,296.9L425.96,289.74L426.49,299.73L426.56,299.82L427.76,302L427.91,301.8L427.99,301.6L428.59,301.7L428.66,301.09L428.74,300.77L428.81,274.17L430.02,297.36L430.09,255.26L430.17,255.09L430.24,268.9L430.84,292.45L431.22,291.5L431.29,293.51L431.37,294.63L431.44,277.01L431.52,264.89L432.05,290.44L432.12,291.17L432.65,293.5L432.87,292.65L432.95,292.04L433.1,166.9L433.7,273.48L433.77,279.43L434.9,301.5L434.97,301.75L435.13,301.24L435.2,302.09L435.35,301.93L435.43,303.45L435.58,276.77L436.18,293.75L436.25,296.57L436.55,298.72L436.63,287.44L437.23,301.14L437.53,299.69L437.6,299.08L438.43,295.06L438.58,296.25L438.66,297.09L439.18,299.17L439.56,299.13L439.63,299.46L440.01,299.22L441.59,303.75L441.66,303.78L442.11,304L442.19,303.02L443.01,304L443.09,304L448.65,304L448.72,290.58L449.55,304L449.62,304L452.4,303.25L452.48,303.12L453.23,303.16L453.31,303.06L454.66,302.88L454.73,304L456.09,303.64L456.16,286.28L456.69,303.88L456.84,302.41L456.91,268.08L457.36,300.94L457.74,298.73L457.81,299.27L458.56,302.65L458.64,282.26L458.71,281.32L458.79,283.89L458.86,290.64L459.02,284.14L459.84,300.21L459.92,299.81L459.99,301.76L460.14,286.3L460.37,294.36L460.44,181.83L461.34,298.01L461.42,298.26L461.49,299.08L461.57,292.02L461.64,294.95L461.72,285.11L461.79,179.94L462.47,282.79L462.55,286.24L463.07,297.86L463.3,287.09L463.37,288.39L463.82,290.5L464.12,277.29L464.42,283.21L464.5,286.32L464.72,285.18L465.25,297.28L465.48,295.61L465.55,296L465.78,297.17L465.85,296.92L465.93,291.69L466,278.7L466.45,300.86L466.6,299.73L466.68,299.8L466.75,299.37L467.2,300.8L467.28,301.07L467.58,301.91L467.65,299.09L468.48,302.72L468.56,301.95L468.63,302.09L469.08,301.79L469.46,304L469.61,303.82L469.68,302.74L470.58,304L470.66,304L471.49,299.87L471.64,302.53L471.71,303.13L472.61,304L472.69,304L475.69,304L475.77,287.3L476.59,304L476.67,304L476.97,304L477.05,267.96L477.35,303.13L477.8,287.37L477.87,290.5L478.1,295.94L478.17,187.68L478.92,287.41L479,285.73L479.07,287.45L480.28,302.32L480.58,300.66L480.65,300L481.78,298.34L481.85,298.46L481.93,298.71L482.23,298.56L483.28,300.27L483.36,300.17L483.43,299.99L484.78,301.71L484.86,301.5L485.08,301.67L485.31,301.16L485.61,301.58L485.68,301.57L485.83,300.87L485.91,299.21L486.21,299.62L486.36,299.46L486.44,302L486.51,302.85L486.66,301.34L486.96,302.33L487.04,299.94L488.01,302.28L488.09,301.86L488.16,301.98L488.31,299.6L488.91,301.31L488.99,301.39L489.07,296.18L489.67,302.63L489.74,304L490.87,304L490.94,303.24L491.32,304L491.62,303.27L491.69,303.15L492.9,304L492.97,304L494.25,303.66L494.32,300.31L494.4,303.96L495.08,303.5L495.15,303.58L496.43,303.97L496.5,299.93L497.03,303.8L497.33,303.51L497.4,303.45L498.38,303.58L498.46,303.05L499.36,304L499.43,304L499.66,303.26L500.26,303.82L500.33,303.73L500.71,303.17L500.78,303.96L502.44,303.8L502.51,303.94L503.71,303.84L503.79,253.26L504.62,304L504.69,304L506.94,304L507.02,261.38L507.92,301.99L508,302.36L508.15,303.18L508.22,292.97L508.75,301.95L509.12,301.51L509.2,301.38L509.72,303.27L509.8,293L510.4,302.43L510.55,302.04L510.63,169.49L510.78,88.94L511.08,278.38L511.15,285.08L511.75,301.9L512.2,301.75L512.28,302.53L513.33,304L513.41,304L514.31,303.51L514.38,303.23L514.61,303.27L514.68,303.07L514.76,247.39L515.58,292.74L515.66,293.73L515.73,294.67L515.81,292.45L515.88,293.24L515.96,282.22L516.79,300.27L516.86,272.02L517.16,295.15L517.24,289.52L517.31,151.68L517.39,158.61L517.46,36.61L518.51,280.69L518.59,285.25L518.81,292.36L518.89,251.44L519.12,283.22L519.34,173.19L519.57,233.37L519.64,245.22L520.62,295.77L520.69,293.89L520.77,293.54L520.92,294.78L520.99,283.01L521.59,297.69L521.82,293.21L521.89,296.12L522.95,300.86L523.02,300.54L524.3,302.32L524.37,302.33L525.28,303.74L525.35,302.87L526.03,304L526.25,303.79L526.33,299.81L527.23,304L527.3,302.44L527.9,304L528.06,303.62L528.13,302.5L529.03,304L529.11,303.81L530.01,303.45L530.08,303.66L530.16,304L535.49,304L535.57,301.85L535.79,301.3L536.39,303.88L536.47,303.83L537.15,302.36L537.3,302.85L537.37,303.82L537.97,302.05L538.12,302.36L538.2,303.29L539.02,300.12L539.1,300.31L539.17,301.2L539.25,300.98L539.47,301.62L539.85,301.33L539.92,301.52" style="vector-effect: non-scaling-stroke; fill: none; stroke: rgb(31, 119, 180); stroke-opacity: 1; stroke-width: 2px; opacity: 1;"/></g><g class="points"/><g class="text"/></g></g></g><g class="overplot"/><path class="xlines-above crisp" d="M0,0" style="fill: none;"/><path class="ylines-above crisp" d="M0,0" style="fill: none;"/><g class="overlines-above"/><g class="xaxislayer-above"><g class="xtick"><text text-anchor="middle" x="0" y="433" transform="translate(177.51,0)" style="font-family: 'Open Sans', verdana, arial, sans-serif; font-size: 12px; fill: rgb(42, 63, 95); fill-opacity: 1; white-space: pre; opacity: 1;">2005</text></g><g class="xtick"><text text-anchor="middle" x="0" y="433" style="font-family: 'Open Sans', verdana, arial, sans-serif; font-size: 12px; fill: rgb(42, 63, 95); fill-opacity: 1; white-space: pre; opacity: 1;" transform="translate(314.69,0)">2010</text></g><g class="xtick"><text text-anchor="middle" x="0" y="433" style="font-family: 'Open Sans', verdana, arial, sans-serif; font-size: 12px; fill: rgb(42, 63, 95); fill-opacity: 1; white-space: pre; opacity: 1;" transform="translate(451.87,0)">2015</text></g><g class="xtick"><text text-anchor="middle" x="0" y="433" style="font-family: 'Open Sans', verdana, arial, sans-serif; font-size: 12px; fill: rgb(42, 63, 95); fill-opacity: 1; white-space: pre; opacity: 1;" transform="translate(589.05,0)">2020</text></g></g><g class="yaxislayer-above"><g class="ytick"><text text-anchor="end" x="79" y="4.199999999999999" transform="translate(0,404)" style="font-family: 'Open Sans', verdana, arial, sans-serif; font-size: 12px; fill: rgb(42, 63, 95); fill-opacity: 1; white-space: pre; opacity: 1;">0</text></g><g class="ytick"><text text-anchor="end" x="79" y="4.199999999999999" style="font-family: 'Open Sans', verdana, arial, sans-serif; font-size: 12px; fill: rgb(42, 63, 95); fill-opacity: 1; white-space: pre; opacity: 1;" transform="translate(0,354.53)">5</text></g><g class="ytick"><text text-anchor="end" x="79" y="4.199999999999999" style="font-family: 'Open Sans', verdana, arial, sans-serif; font-size: 12px; fill: rgb(42, 63, 95); fill-opacity: 1; white-space: pre; opacity: 1;" transform="translate(0,305.07)">10</text></g><g class="ytick"><text text-anchor="end" x="79" y="4.199999999999999" style="font-family: 'Open Sans', verdana, arial, sans-serif; font-size: 12px; fill: rgb(42, 63, 95); fill-opacity: 1; white-space: pre; opacity: 1;" transform="translate(0,255.6)">15</text></g><g class="ytick"><text text-anchor="end" x="79" y="4.199999999999999" style="font-family: 'Open Sans', verdana, arial, sans-serif; font-size: 12px; fill: rgb(42, 63, 95); fill-opacity: 1; white-space: pre; opacity: 1;" transform="translate(0,206.14)">20</text></g><g class="ytick"><text text-anchor="end" x="79" y="4.199999999999999" style="font-family: 'Open Sans', verdana, arial, sans-serif; font-size: 12px; fill: rgb(42, 63, 95); fill-opacity: 1; white-space: pre; opacity: 1;" transform="translate(0,156.67000000000002)">25</text></g><g class="ytick"><text text-anchor="end" x="79" y="4.199999999999999" style="font-family: 'Open Sans', verdana, arial, sans-serif; font-size: 12px; fill: rgb(42, 63, 95); fill-opacity: 1; white-space: pre; opacity: 1;" transform="translate(0,107.21)">30</text></g></g><g class="overaxes-above"/></g></g><g class="polarlayer"/><g class="smithlayer"/><g class="ternarylayer"/><g class="geolayer"/><g class="funnelarealayer"/><g class="pielayer"/><g class="iciclelayer"/><g class="treemaplayer"/><g class="sunburstlayer"/><g class="glimages"/><defs id="topdefs-d30952"><g class="clips"/></defs><g class="layer-above"><g class="imagelayer"/><g class="shapelayer"/></g><g class="infolayer"><g class="g-gtitle"/><g class="g-xtitle"/><g class="g-ytitle"/></g></svg>