<svg class="main-svg" xmlns="http://www.w3.org/2000/svg" xmlns:xlink="http://www.w3.org/1999/xlink" width="700" height="500" style="" viewBox="0 0 700 500"><rect x="0" y="0" width="700" height="500" style="fill: rgb(255, 255, 255); fill-opacity: 1;"/><defs id="defs-65ab2f"><g class="clips"><clipPath id="clip65ab2fxyplot" class="plotclip"><rect width="540" height="320"/></clipPath><clipPath class="axesclip" id="clip65ab2fx"><rect x="80" y="0" width="540" height="500"/></clipPath><clipPath class="axesclip" id="clip65ab2fy"><rect x="0" y="100" width="700" height="320"/></clipPath><clipPath class="axesclip" id="clip65ab2fxy"><rect x="80" y="100" width="540" height="320"/></clipPath></g><g class="gradients"/><g class="patterns"/></defs><g class="bglayer"><rect class="bg" x="80" y="100" width="540" height="320" style="fill: rgb(229, 236, 246); fill-opacity: 1; stroke-width: 0;"/></g><g class="layer-below"><g class="imagelayer"/><g class="shapelayer"/></g><g class="cartesianlayer"><g class="subplot xy"><g class="layer-subplot"><g class="shapelayer"/><g class="imagelayer"/></g><g class="minor-gridlayer"><g class="x"/><g class="y"/></g><g class="gridlayer"><g class="x"><path class="xgrid crisp" transform="translate(173.16,0)" d="M0,100v320" style="stroke: rgb(255, 255, 255); stroke-opacity: 1; stroke-width: 1px;"/><path class="xgrid crisp" transform="translate(277.25,0)" d="M0,100v320" style="stroke: rgb(255, 255, 255); stroke-opacity: 1; stroke-width: 1px;"/><path class="xgrid crisp" transform="translate(383.07,0)" d="M0,100v320" style="stroke: rgb(255, 255, 255); stroke-opacity: 1; stroke-width: 1px;"/><path class="xgrid crisp" transform="translate(487.73,0)" d="M0,100v320" style="stroke: rgb(255, 255, 255); stroke-opacity: 1; stroke-width: 1px;"/><path class="xgrid crisp" transform="translate(593.55,0)" d="M0,100v320" style="stroke: rgb(255, 255, 255); stroke-opacity: 1; stroke-width: 1px;"/></g><g class="y"><path class="ygrid crisp" transform="translate(0,345.95)" d="M80,0h540" style="stroke: rgb(255, 255, 255); stroke-opacity: 1; stroke-width: 1px;"/><path class="ygrid crisp" transform="translate(0,287.89)" d="M80,0h540" style="stroke: rgb(255, 255, 255); stroke-opacity: 1; stroke-width: 1px;"/><path class="ygrid crisp" transform="translate(0,229.84)" d="M80,0h540" style="stroke: rgb(255, 255, 255); stroke-opacity: 1; stroke-width: 1px;"/><path class="ygrid crisp" transform="translate(0,171.78)" d="M80,0h540" style="stroke: rgb(255, 255, 255); stroke-opacity: 1; stroke-width: 1px;"/><path class="ygrid crisp" transform="translate(0,113.73)" d="M80,0h540" style="stroke: rgb(255, 255, 255); stroke-opacity: 1; stroke-width: 1px;"/></g></g><g class="zerolinelayer"><path class="yzl zl crisp" transform="translate(0,404)" d="M80,0h540" style="stroke: rgb(255, 255, 255); stroke-opacity: 1; stroke-width: 2px;"/></g><path class="xlines-below"/><path class="ylines-below"/><g class="overlines-below"/><g class="xaxislayer-below"/><g class="yaxislayer-below"/><g class="overaxes-below"/><g class="plot" transform="translate(80,100)" clip-path="url(#clip65ab2fxyplot)"><g class="scatterlayer mlayer"><g class="trace scatter traceb3f444" style="stroke-miterlimit: 2; opacity: 1;"><g class="fills"/><g class="errorbars"/><g class="lines"><path class="js-line" d="M0,302.74L14.38,302.99L14.95,302.99L23.58,302.99L24.15,302.25L25.3,302.86L25.88,302.85L26.45,302.27L27.03,302.85L35.65,302.99L36.23,302.99L40.83,302.45L41.41,302.09L42.56,302.68L43.13,302.67L44.86,302.4L45.43,291.96L46.01,293.8L46.58,301.96L47.73,301.98L48.31,205.5L48.88,219.64L49.46,299.77L50.61,292.31L51.18,299.92L52.33,301.45L52.91,301.48L57.51,301.49L58.08,299.26L59.23,299.6L59.81,300.72L62.11,301.01L62.68,299.79L63.26,295.13L63.83,297.79L64.98,299.21L65.56,299.85L66.13,300.62L66.71,268.25L67.28,291.43L67.86,190.93L68.43,16L69.01,225.85L69.58,98.98L70.16,134.56L70.73,230.57L71.31,237.06L71.88,260.58L72.46,260.47L73.04,273L74.19,273.58L74.76,280.32L75.34,280.36L75.91,283.05L77.06,283.4L77.64,286.62L79.36,291.9L79.94,292.28L81.09,292.61L81.66,287.61L82.81,277.63L83.39,293.63L83.96,294.13L84.54,271.71L85.11,168.31L85.69,296.02L87.41,296.78L87.99,296.65L92.01,296.06L92.59,295.44L93.16,290.55L93.74,291.23L94.31,290.71L95.46,290.66L96.04,290.85L97.19,290.32L97.76,291.16L101.79,290.65L102.36,293.04L102.94,298.49L103.51,298.26L104.09,298.39L107.54,299.32L108.12,299.07L110.99,298.95L111.57,299.04L112.14,299.94L112.72,299.34L114.44,298.97L115.02,298.79L116.74,298.94L117.32,299.93L117.89,301.74L118.47,299.99L120.19,299.41L120.77,297.21L121.92,299.21L122.49,299.61L124.22,299.74L124.79,301.44L125.94,302.44L126.52,302.48L128.82,302.04L129.39,300.7L130.54,299.57L131.12,300.25L132.84,300.44L133.42,299.47L134.57,300.14L135.14,300.47L136.87,302.42L137.44,299.05L138.59,302.09L139.17,300.74L140.89,299.36L141.47,300.02L142.62,297.88L143.19,299.06L144.92,299.63L145.5,298.8L146.07,298.52L146.65,300.83L147.8,298.1L148.37,298.89L150.67,302.46L151.25,302.46L152.97,302.44L153.55,301.61L154.12,302.04L154.7,299.5L157,298.49L157.57,295.06L158.72,301.34L159.3,301.11L161.02,296.7L161.6,298.03L164.47,298.76L165.05,297.63L166.2,300.71L166.77,298.62L167.35,298.47L167.92,297.49L169.07,299.75L169.65,300.37L170.8,300.45L171.37,296.99L171.95,297.37L172.52,300.23L173.1,302.2L173.67,300.89L174.25,300.58L174.82,298.81L175.4,299.82L175.97,299L177.12,299.95L177.7,298.68L178.85,299.63L179.42,301.56L181.73,302.56L182.3,301.25L183.45,302.67L184.03,302.66L197.83,302.8L198.4,303.01L211.63,302.9L212.2,302.16L214.5,302.89L215.08,302.91L234.06,302.91L234.63,301.76L236.93,302.9L237.51,302.9L238.66,302.91L239.23,302.9L250.16,302.55L250.73,300.88L251.88,302.72L252.46,302.72L256.49,302.68L257.06,302.69L258.21,302.63L258.79,302.57L261.66,302.72L262.24,301.47L262.81,291.03L263.39,298.09L265.11,299.9L265.69,301.78L266.26,302.68L266.84,302.22L267.41,301.5L267.99,300.65L268.56,302.37L269.14,301.77L269.71,302.7L284.09,302.33L284.66,300.5L285.24,302.7L285.81,302.46L286.39,301.78L286.96,300.8L287.54,291.94L288.69,302.25L289.27,302.37L290.99,302.34L291.57,298.26L292.14,294.92L292.72,297.4L293.87,299.56L294.44,298.9L295.59,301.99L296.17,302.12L296.74,302.25L297.32,301.18L299.04,302.13L299.62,302.33L305.94,302.42L306.52,302.04L308.24,302.4L308.82,302.42L313.99,301.97L314.57,289.82L316.29,239.7L316.87,244.37L318.59,247.4L319.17,247.86L320.32,248.41L320.89,242.77L322.04,243.51L322.62,254.05L323.19,269.34L323.77,221.36L324.35,195.75L324.92,284.82L325.5,285.23L326.07,286.92L327.22,295.22L327.8,293.64L328.95,296.12L329.52,296.15L332.4,299.84L332.97,300.01L335.85,300.34L336.42,299.63L338.15,298.74L338.72,299.48L339.87,300.84L340.45,300.04L341.02,300.46L341.6,299.4L342.17,299.55L342.75,301.99L343.32,302.37L343.9,298.89L344.47,298.18L345.05,299.55L345.62,299.55L346.2,295.7L347.35,299.82L347.92,299.94L348.5,300.5L349.07,299.87L349.65,299.85L350.22,298.91L351.37,300.64L351.95,298.81L353.67,300.13L354.25,300.53L354.82,300.34L355.4,298.24L355.97,295.39L356.55,295.95L357.12,298.19L357.7,298.17L358.27,299.94L359.42,302.39L360,301.32L361.73,300.54L362.3,297.58L364.6,296.72L365.18,290.66L365.75,290.1L366.33,285.27L366.9,213.37L367.48,44L368.05,84.17L368.63,200.39L369.78,236.76L370.35,252.12L371.5,268.96L372.08,268.93L373.8,270.35L374.38,274.63L376.1,285.1L376.68,286.62L379.55,286.62L380.13,283.42L381.85,274.37L382.43,275.31L383,277.95L383.58,286.34L385.88,293.96L386.45,294.55L388.18,298.41L388.75,299.28L389.33,299.37L389.9,298.61L391.05,299.77L391.63,299.22L392.2,278.47L392.78,279.36L393.35,277.22L393.93,270.35L394.5,221.36L395.08,220.31L395.65,249.6L396.81,284.17L397.38,291.82L397.96,293.92L398.53,292.57L399.68,289.36L400.26,289.49L402.56,295.88L403.13,302.04L404.28,302.75L404.86,302.74L407.16,302.53L407.73,302.72L420.38,302.94L420.96,302.98L435.34,302.95L435.91,302.96L447.99,302.96L448.56,302.25L449.14,302.78L449.71,302.22L450.86,302.6L451.44,302.64L454.31,302.95L454.89,302.65L455.46,295.68L456.04,300.99L458.34,302.77L458.91,302.94L460.64,302.71L461.21,302.18L461.79,301.67L462.36,302.41L464.09,302.48L464.66,302.72L466.96,302.7L467.54,301.99L468.69,301.78L469.27,302.38L473.29,302.35L473.87,302.58L474.44,302.68L475.02,290.23L476.17,302.02L476.74,302.24L477.89,302.72L478.47,302.53L482.49,302.6L483.07,301.98L484.22,302.71L484.79,302.72L489.39,302.69L489.97,302.7L492.27,302.53L492.84,299.99L493.42,298.04L493.99,290.51L495.72,298.52L496.29,297.69L499.74,299.54L500.32,299.59L503.19,299.4L503.77,299.44L504.92,299.85L505.5,301.05L506.07,302.46L506.65,301.85L508.37,300.04L508.95,299.92L509.52,300.86L510.1,300.1L510.67,298.39L511.25,299.37L512.97,301.27L513.55,301.31L516.42,302.53L517,302.54L525.05,302.37L525.62,302.37L535.97,302.39L536.55,302.29L540,302.35" style="vector-effect: non-scaling-stroke; fill: none; stroke: rgb(255, 165, 0); stroke-opacity: 1; stroke-width: 2px; opacity: 1;"/></g><g class="points"/><g class="text"/></g><g class="trace scatter trace147a44" style="stroke-miterlimit: 2; opacity: 1;"><g class="fills"/><g class="errorbars"/><g class="lines"><path class="js-line" d="M0,301.57L1.15,301.65L1.73,296.01L2.3,299.56L2.88,297.8L3.45,301.27L4.03,297.67L5.18,300.72L5.75,299.83L6.9,297.5L7.48,297.64L9.78,298.9L10.35,297.9L12.08,300.05L12.65,299.25L14.95,299.47L15.53,301.17L16.68,303.13L17.25,298.81L18.98,299.4L19.55,300.19L21.28,302.41L21.85,302.45L24.73,303.16L25.3,303.04L27.03,303.42L27.6,303.43L37.38,303.41L37.96,303.38L40.26,303.39L40.83,303.44L43.71,303.25L44.28,301.76L44.86,301.82L45.43,293L46.01,293.72L46.58,297.89L47.73,297.71L48.31,282.86L48.88,273.31L49.46,293.24L50.03,297.01L50.61,274.23L51.76,299.85L52.33,299.32L54.06,298.95L54.63,298.07L55.21,296.9L55.78,293.05L56.93,290.48L57.51,291.87L58.08,270.5L58.66,284.92L59.81,288.85L60.38,289.97L60.96,283.55L61.53,285.66L62.11,287.83L62.68,281.93L63.26,259.87L63.83,270.19L64.98,271.63L65.56,272.18L66.13,263.73L66.71,217.45L67.28,225.36L67.86,148.03L68.43,117.01L69.01,154.35L70.73,193.07L71.31,195.02L75.34,266.65L75.91,270.37L78.79,280.83L79.36,281.61L79.94,281.2L80.51,283.94L82.24,286.13L82.81,283.83L83.39,288.67L83.96,288.31L84.54,286.45L85.11,289.32L85.69,288.77L86.26,288.81L89.14,289.83L89.71,290.19L92.59,291.46L93.16,292.02L95.46,293.52L96.04,293.72L99.49,295.64L100.06,295.95L104.09,297.48L104.66,297.35L105.81,297.93L106.39,297.11L107.54,298.18L108.12,298.37L108.69,298.37L109.27,297.54L110.42,298.26L110.99,298.49L113.29,298.94L113.87,298.83L116.17,299.33L116.74,299.4L124.22,301.19L124.79,301.4L127.09,301.78L127.67,301.78L131.69,301.85L132.27,301.58L133.42,301.53L133.99,302.3L134.57,301.62L135.14,302.19L143.77,301.97L144.35,301.33L146.65,302.1L147.22,302.24L148.37,301.14L148.95,301.62L149.52,301.9L150.1,298.89L151.25,302.65L151.82,303.53L152.97,303.5L153.55,303L154.12,301.86L154.7,302.85L157.57,299.27L158.15,269.62L159.3,299.26L159.87,299.44L161.02,301.19L161.6,300.78L163.32,300.24L163.9,300.03L165.05,300.35L165.62,300.45L168.5,300.54L169.07,301.25L171.37,301.4L171.95,299.53L173.1,301.35L173.67,301.26L177.12,301.56L177.7,301.65L186.33,300.91L186.9,301.7L194.95,302.76L195.53,302.66L196.1,301.91L196.68,293.93L197.83,302.53L198.4,302.64L205.3,304L205.88,304L233.48,303.35L234.06,303.24L236.36,303.02L236.93,302.94L244.41,302.88L244.98,301.52L246.13,302.7L246.71,302.63L250.16,302.9L250.73,296.02L251.31,258.48L251.88,287.95L253.04,293.13L253.61,293.19L255.34,293.96L255.91,294.97L258.21,298.36L258.79,298.88L260.51,299.93L261.09,301.29L261.66,272.28L262.24,281.6L263.39,236.03L263.96,271.48L265.69,279.12L266.26,268.09L267.99,155.47L268.56,151.71L270.29,196.34L270.86,190.69L271.44,207.64L272.01,202.75L272.59,219.15L276.61,286.64L277.19,290.39L278.34,292.54L278.91,216.04L279.49,177.49L280.06,221.18L282.94,292.11L283.51,294.64L284.66,297.7L285.24,297.96L286.39,297.92L286.96,298.48L287.54,252.18L288.12,272.78L289.84,286.5L290.42,288.69L292.14,293.42L292.72,294.32L295.59,297.5L296.17,297.8L298.47,297.36L299.04,297.62L303.64,299.07L304.22,299.28L308.24,300.96L308.82,300.39L309.97,301L310.54,301.05L312.27,301.19L312.84,300.32L313.42,301.52L313.99,301.22L314.57,283.32L315.72,190.84L316.29,191.57L316.87,220.51L318.59,255.41L319.17,260.8L322.04,281.06L322.62,283.34L323.19,288.48L323.77,285.05L324.35,284.34L324.92,284.86L327.22,282.71L327.8,281.75L328.37,282.11L328.95,281.02L329.52,281.35L330.1,287.56L331.25,283.23L331.82,283.5L332.4,283.53L332.97,283.71L333.55,284.74L336.42,285.34L337,285.31L338.15,293.31L338.72,291.97L339.87,293.21L340.45,291.05L341.02,292.9L341.6,292.3L342.17,292.49L342.75,292.37L343.32,293.08L344.47,293.67L345.05,293.05L346.2,290.96L346.77,271.02L347.92,285.18L348.5,285.29L349.07,287.28L349.65,293.84L350.22,294.88L350.8,293.37L351.37,295.24L351.95,293.2L352.52,287.4L353.1,294.33L354.25,297.3L354.82,298.06L355.97,294.69L356.55,298.72L358.27,300.91L358.85,301.11L361.15,301.18L361.73,301.14L362.3,301.16L362.88,297.36L363.45,300.83L364.03,300.14L364.6,300.96L366.33,301.05L366.9,299.74L367.48,256.14L368.05,269.71L369.2,291.06L369.78,292.03L370.35,286.05L370.93,291.44L371.5,287.95L372.08,293.62L373.23,292.92L373.8,296.79L374.95,298.68L375.53,298.32L376.68,298.37L377.25,298.63L378.98,299.25L379.55,299.13L380.13,299.23L380.7,297.68L383.58,300.31L384.15,300.59L387.03,301.84L387.6,302.02L390.48,302.67L391.05,302.06L392.2,302.41L392.78,299.13L393.35,301.86L393.93,299.86L394.5,297.63L395.08,300.51L396.23,301.23L396.81,301.17L398.53,301.99L399.11,301.82L401.41,302.09L401.98,302.26L404.28,302.86L404.86,303.32L406.58,304L407.16,304L408.31,304L408.88,303.16L411.18,304L411.76,304L441.09,304L441.66,298.1L442.81,241.05L443.39,254.55L444.54,285.37L445.11,291.21L445.69,290.17L446.26,291.36L448.56,263.43L449.14,279.31L450.29,278.87L450.86,279.59L452.01,280.07L452.59,282.47L453.74,288.11L454.31,286.09L454.89,289.93L455.46,259.52L456.04,200.69L456.61,241.95L457.19,247.91L457.76,243.21L458.34,240.91L458.91,259.42L461.21,291.94L461.79,275.55L462.94,290.4L463.51,291.92L465.81,294.65L466.39,290.13L467.54,294.48L468.12,291.98L468.69,292.34L469.27,294.86L471.57,296.75L472.14,297.65L473.29,298.47L473.87,298.18L476.17,297.73L476.74,297.74L479.62,298.71L480.19,299.68L481.92,301.06L482.49,300.7L483.64,301.44L484.22,301.48L492.84,300.73L493.42,286.23L493.99,291.41L494.57,264.43L495.72,289.91L496.29,291.29L499.74,299.57L500.32,300.48L501.47,301.68L502.04,301.3L502.62,301.02L503.19,301.93L504.92,301.91L505.5,301.19L506.07,299L506.65,299.75L507.8,299.43L508.37,299.31L512.4,299.72L512.97,300.26L516.42,301.15L517,301.15L518.15,301.17L518.72,299.57L519.3,301.29L519.87,300.71L520.45,300.81L525.62,301.23L526.2,300.6L527.35,301.09L527.92,301.31L530.22,301.48L530.8,301.17L533.1,301.69L533.67,301.76L534.82,302.15L535.4,300.23L536.55,301.35L537.12,301.3L538.85,301.56L539.42,300.8L540,301.7" style="vector-effect: non-scaling-stroke; fill: none; stroke: rgb(31, 119, 180); stroke-opacity: 1; stroke-width: 2px; opacity: 1;"/></g><g class="points"/><g class="text"/></g></g></g><g class="overplot"/><path class="xlines-above crisp" d="M0,0" style="fill: none;"/><path class="ylines-above crisp" d="M0,0" style="fill: none;"/><g class="overlines-above"/><g class="xaxislayer-above"><g class="xtick"><text text-anchor="middle" x="0" y="433" transform="translate(173.16,0)" style="font-family: 'Open Sans', verdana, arial, sans-serif; font-size: 12px; fill: rgb(42, 63, 95); fill-opacity: 1; white-space: pre; opacity: 1;">Jan 2019</text></g><g class="xtick"><text text-anchor="middle" x="0" y="433" style="font-family: 'Open Sans', verdana, arial, sans-serif; font-size: 12px; fill: rgb(42, 63, 95); fill-opacity: 1; white-space: pre; opacity: 1;" transform="translate(277.25,0)">Jul 2019</text></g><g class="xtick"><text text-anchor="middle" x="0" y="433" style="font-family: 'Open Sans', verdana, arial, sans-serif; font-size: 12px; fill: rgb(42, 63, 95); fill-opacity: 1; white-space: pre; opacity: 1;" transform="translate(383.07,0)">Jan 2020</text></g><g class="xtick"><text text-anchor="middle" x="0" y="433" style="font-family: 'Open Sans', verdana, arial, sans-serif; font-size: 12px; fill: rgb(42, 63, 95); fill-opacity: 1; white-space: pre; opacity: 1;" transform="translate(487.73,0)">Jul 2020</text></g><g class="xtick"><text text-anchor="middle" x="0" y="433" style="font-family: 'Open Sans', verdana, arial, sans-serif; font-size: 12px; fill: rgb(42, 63, 95); fill-opacity: 1; white-space: pre; opacity: 1;" transform="translate(593.55,0)">Jan 2021</text></g></g><g class="yaxislayer-above"><g class="ytick"><text text-anchor="end" x="79" y="4.199999999999999" transform="translate(0,404)" style="font-family: 'Open Sans', verdana, arial, sans-serif; font-size: 12px; fill: rgb(42, 63, 95); fill-opacity: 1; white-space: pre; opacity: 1;">0</text></g><g class="ytick"><text text-anchor="end" x="79" y="4.199999999999999" style="font-family: 'Open Sans', verdana, arial, sans-serif; font-size: 12px; fill: rgb(42, 63, 95); fill-opacity: 1; white-space: pre; opacity: 1;" transform="translate(0,345.95)">10</text></g><g class="ytick"><text text-anchor="end" x="79" y="4.199999999999999" style="font-family: 'Open Sans', verdana, arial, sans-serif; font-size: 12px; fill: rgb(42, 63, 95); fill-opacity: 1; white-space: pre; opacity: 1;" transform="translate(0,287.89)">20</text></g><g class="ytick"><text text-anchor="end" x="79" y="4.199999999999999" style="font-family: 'Open Sans', verdana, arial, sans-serif; font-size: 12px; fill: rgb(42, 63, 95); fill-opacity: 1; white-space: pre; opacity: 1;" transform="translate(0,229.84)">30</text></g><g class="ytick"><text text-anchor="end" x="79" y="4.199999999999999" style="font-family: 'Open Sans', verdana, arial, sans-serif; font-size: 12px; fill: rgb(42, 63, 95); fill-opacity: 1; white-space: pre; opacity: 1;" transform="translate(0,171.78)">40</text></g><g class="ytick"><text text-anchor="end" x="79" y="4.199999999999999" style="font-family: 'Open Sans', verdana, arial, sans-serif; font-size: 12px; fill: rgb(42, 63, 95); fill-opacity: 1; white-space: pre; opacity: 1;" transform="translate(0,113.73)">50</text></g></g><g class="overaxes-above"/></g></g><g class="polarlayer"/><g class="smithlayer"/><g class="ternarylayer"/><g class="geolayer"/><g class="funnelarealayer"/><g class="pielayer"/><g class="iciclelayer"/><g class="treemaplayer"/><g class="sunburstlayer"/><g class="glimages"/><defs id="topdefs-65ab2f"><g class="clips"/></defs><g class="layer-above"><g class="imagelayer"/><g class="shapelayer"/></g><g class="infolayer"><g class="g-gtitle"/><g class="g-xtitle"/><g class="g-ytitle"/></g></svg>