<svg class="main-svg" xmlns="http://www.w3.org/2000/svg" xmlns:xlink="http://www.w3.org/1999/xlink" width="700" height="500" style="" viewBox="0 0 700 500"><rect x="0" y="0" width="700" height="500" style="fill: rgb(255, 255, 255); fill-opacity: 1;"/><defs id="defs-70a8be"><g class="clips"><clipPath id="clip70a8bexyplot" class="plotclip"><rect width="456" height="320"/></clipPath><clipPath class="axesclip" id="clip70a8bex"><rect x="80" y="0" width="456" height="500"/></clipPath><clipPath class="axesclip" id="clip70a8bey"><rect x="0" y="100" width="700" height="320"/></clipPath><clipPath class="axesclip" id="clip70a8bexy"><rect x="80" y="100" width="456" height="320"/></clipPath></g><g class="gradients"/><g class="patterns"/></defs><g class="bglayer"><rect class="bg" x="80" y="100" width="456" height="320" style="fill: rgb(229, 236, 246); fill-opacity: 1; stroke-width: 0;"/></g><g class="layer-below"><g class="imagelayer"/><g class="shapelayer"/></g><g class="cartesianlayer"><g class="subplot xy"><g class="layer-subplot"><g class="shapelayer"/><g class="imagelayer"/></g><g class="minor-gridlayer"><g class="x"/><g class="y"/></g><g class="gridlayer"><g class="x"><path class="xgrid crisp" transform="translate(158.67000000000002,0)" d="M0,100v320" style="stroke: rgb(255, 255, 255); stroke-opacity: 1; stroke-width: 1px;"/><path class="xgrid crisp" transform="translate(246.57,0)" d="M0,100v320" style="stroke: rgb(255, 255, 255); stroke-opacity: 1; stroke-width: 1px;"/><path class="xgrid crisp" transform="translate(335.91999999999996,0)" d="M0,100v320" style="stroke: rgb(255, 255, 255); stroke-opacity: 1; stroke-width: 1px;"/><path class="xgrid crisp" transform="translate(424.31,0)" d="M0,100v320" style="stroke: rgb(255, 255, 255); stroke-opacity: 1; stroke-width: 1px;"/><path class="xgrid crisp" transform="translate(513.6600000000001,0)" d="M0,100v320" style="stroke: rgb(255, 255, 255); stroke-opacity: 1; stroke-width: 1px;"/></g><g class="y"><path class="ygrid crisp" transform="translate(0,345.95)" d="M80,0h456" style="stroke: rgb(255, 255, 255); stroke-opacity: 1; stroke-width: 1px;"/><path class="ygrid crisp" transform="translate(0,287.89)" d="M80,0h456" style="stroke: rgb(255, 255, 255); stroke-opacity: 1; stroke-width: 1px;"/><path class="ygrid crisp" transform="translate(0,229.84)" d="M80,0h456" style="stroke: rgb(255, 255, 255); stroke-opacity: 1; stroke-width: 1px;"/><path class="ygrid crisp" transform="translate(0,171.78)" d="M80,0h456" style="stroke: rgb(255, 255, 255); stroke-opacity: 1; stroke-width: 1px;"/><path class="ygrid crisp" transform="translate(0,113.73)" d="M80,0h456" style="stroke: rgb(255, 255, 255); stroke-opacity: 1; stroke-width: 1px;"/></g></g><g class="zerolinelayer"><path class="yzl zl crisp" transform="translate(0,404)" d="M80,0h456" style="stroke: rgb(255, 255, 255); stroke-opacity: 1; stroke-width: 2px;"/></g><path class="xlines-below"/><path class="ylines-below"/><g class="overlines-below"/><g class="xaxislayer-below"/><g class="yaxislayer-below"/><g class="overaxes-below"/><g class="plot" transform="translate(80,100)" clip-path="url(#clip70a8bexyplot)"><g class="scatterlayer mlayer"><g class="trace scatter trace58fa84" style="stroke-miterlimit: 2; opacity: 1;"><g class="fills"/><g class="errorbars"/><g class="lines"><path class="js-line" d="M0,302.74L12.14,302.99L12.63,302.99L19.91,302.99L20.4,302.25L21.37,302.86L21.85,302.85L22.34,302.27L22.82,302.85L23.31,302.81L32.54,302.9L33.02,302.79L37.88,302.4L38.36,291.96L38.85,293.8L39.34,301.96L40.31,301.98L40.79,205.5L41.28,219.64L41.76,299.77L42.73,292.31L43.22,299.92L44.19,301.45L44.68,301.48L48.56,301.49L49.05,299.26L50.02,299.6L50.5,300.72L52.45,301.01L52.93,299.79L53.42,295.13L53.9,297.79L55.36,299.85L55.85,300.62L56.33,268.25L56.82,291.43L57.79,16L58.27,225.85L58.76,98.98L59.25,134.56L59.73,230.57L60.22,237.06L60.7,260.58L61.19,260.47L61.67,273L62.65,273.58L63.13,280.32L63.62,280.36L64.1,283.05L65.07,283.4L65.56,286.62L67.02,291.9L67.5,292.28L68.47,292.61L68.96,287.61L69.93,277.63L70.42,293.63L70.9,294.13L71.39,271.71L71.87,168.31L72.36,296.02L73.81,296.78L74.3,296.65L77.7,296.06L78.19,295.44L78.67,290.55L79.16,291.23L79.64,290.71L80.61,290.66L81.1,290.85L82.07,290.32L82.56,291.16L85.96,290.65L86.44,293.04L86.93,298.49L87.41,298.26L87.9,298.39L90.81,299.32L91.3,299.07L93.73,298.95L94.21,299.04L94.7,299.94L95.18,299.34L95.67,298.93L98.58,298.94L99.07,299.93L99.55,301.74L100.04,299.99L101.5,299.41L101.98,297.21L103.44,299.61L103.92,299.51L104.89,299.74L105.38,301.44L106.35,302.44L106.84,302.48L108.78,302.04L109.27,300.7L110.24,299.57L110.72,300.25L112.18,300.44L112.66,299.47L115.09,302.05L115.58,302.42L116.06,299.05L116.55,300.92L117.04,302.09L118.49,299.92L118.98,299.36L119.46,300.02L119.95,297.84L120.43,297.88L120.92,299.06L122.38,299.63L122.86,298.8L123.35,298.52L123.83,300.83L124.81,298.1L125.29,298.89L127.23,302.46L127.72,302.46L129.18,302.44L129.66,301.61L130.15,302.04L130.63,299.5L132.58,298.49L133.06,295.06L134.03,301.34L134.52,301.11L135.97,296.7L136.46,298.03L138.89,298.76L139.37,297.63L140.35,300.71L140.83,298.62L141.32,298.47L141.8,297.49L143.26,300.37L143.74,300.33L144.23,300.45L144.72,296.99L145.2,297.37L145.69,300.23L146.17,302.2L146.66,300.89L147.14,300.58L147.63,298.81L148.12,299.82L148.6,299L149.57,299.95L150.06,298.68L151.03,299.63L151.51,301.56L153.46,302.56L153.94,301.25L154.91,302.67L155.4,302.66L167.05,302.8L167.54,303.01L178.71,302.9L179.19,302.16L181.62,302.91L182.11,302.91L191.82,302.93L192.31,302.93L197.65,302.91L198.13,301.76L200.08,302.9L200.56,302.9L201.53,302.91L202.02,302.9L211.25,302.55L211.73,300.88L212.7,302.72L213.19,302.72L216.59,302.68L217.07,302.69L218.53,302.57L219.02,302.71L220.96,302.72L221.44,301.47L221.93,291.03L222.42,298.09L224.36,301.78L224.84,302.68L226.3,300.65L226.79,302.37L227.27,301.77L227.76,302.7L239.9,302.33L240.38,300.5L240.87,302.7L241.35,302.46L241.84,301.78L242.33,300.8L242.81,291.94L243.78,302.25L244.27,302.37L245.73,302.34L246.21,298.26L246.7,294.92L247.18,297.4L248.15,299.56L248.64,298.9L249.61,301.99L250.1,302.12L250.58,302.25L251.07,301.18L252.52,302.13L253.01,302.33L258.35,302.42L258.84,302.04L260.29,302.4L260.78,302.42L265.15,301.97L265.64,289.82L267.09,239.7L267.58,244.37L268.06,246.18L270.49,248.41L270.98,242.77L271.95,243.51L272.43,254.05L272.92,269.34L273.41,221.36L273.89,195.75L274.38,284.82L274.86,285.23L275.35,286.92L276.32,295.22L276.81,293.64L277.78,296.12L278.26,296.15L280.69,299.84L281.18,300.01L283.6,300.34L284.09,299.63L285.55,298.74L286.03,299.48L287,300.84L287.49,300.04L287.97,300.46L288.46,299.4L288.95,299.55L289.43,301.99L289.92,302.37L290.4,298.89L290.89,298.18L291.37,299.55L291.86,299.55L292.35,295.7L293.8,299.94L294.29,300.5L295.74,298.91L296.23,299.85L296.72,300.64L297.2,298.81L298.66,300.13L299.14,300.53L299.63,300.34L300.12,298.24L300.6,295.39L301.09,295.95L301.57,298.19L302.06,298.17L302.54,299.94L303.51,302.39L304,301.32L305.46,300.54L305.94,297.58L307.88,296.72L308.37,290.66L308.86,290.1L309.34,285.27L310.31,44L310.8,84.17L311.77,236.48L312.26,236.76L313.71,268.96L314.2,268.93L315.65,270.35L316.14,274.63L317.6,285.1L318.08,286.62L320.51,286.62L321,283.42L322.45,274.37L322.94,275.31L323.42,277.95L324.88,291L325.37,293.51L326.34,294.55L326.82,296.76L328.77,299.37L329.25,298.61L330.22,299.77L330.71,299.22L331.19,278.47L331.68,279.36L332.17,277.22L332.65,270.35L333.14,221.36L333.62,220.31L334.11,249.6L335.57,291.82L336.05,293.92L337.51,289.36L337.99,289.49L339.94,295.88L340.42,302.04L341.39,302.75L341.88,302.74L343.82,302.53L344.31,302.72L354.5,302.94L354.99,302.94L363.73,302.94L364.22,302.42L366.65,302.97L367.13,302.95L379.27,302.78L379.76,302.22L380.73,302.6L381.21,302.64L383.64,302.95L384.13,302.65L384.61,295.68L385.1,300.99L387.04,302.77L387.53,302.94L388.98,302.71L389.47,302.18L389.96,301.67L390.44,302.41L391.9,302.48L392.38,302.72L394.33,302.7L394.81,301.99L395.78,301.78L396.27,302.38L399.67,302.35L400.15,302.58L400.64,302.68L401.12,290.23L402.1,302.02L402.58,302.24L403.55,302.72L404.04,302.53L407.44,302.6L407.92,301.98L408.89,302.71L409.38,302.72L413.27,302.69L413.75,302.7L415.69,302.53L416.18,299.99L416.66,298.04L417.15,290.51L418.61,298.52L419.09,297.69L422.01,299.54L422.49,299.59L424.92,299.4L425.41,299.44L426.38,299.85L426.86,301.05L427.35,302.46L427.83,301.85L428.32,300.85L429.29,300.04L429.78,299.92L430.26,300.86L430.75,300.1L431.23,298.39L431.72,299.37L432.2,300.43L434.63,302.13L435.12,302.52L456,302.35" style="vector-effect: non-scaling-stroke; fill: none; stroke: rgb(255, 165, 0); stroke-opacity: 1; stroke-width: 2px; opacity: 1;"/></g><g class="points"/><g class="text"/></g><g class="trace scatter trace71b500" style="stroke-miterlimit: 2; opacity: 1;"><g class="fills"/><g class="errorbars"/><g class="lines"><path class="js-line" d="M0,301.57L0.97,301.65L1.46,296.01L2.91,301.27L3.4,297.67L4.37,300.72L4.86,299.83L5.34,297.37L5.83,297.5L6.31,297.64L8.26,298.9L8.74,297.9L10.2,300.05L10.68,299.25L12.63,299.47L13.11,301.17L14.08,303.13L14.57,298.81L16.03,299.4L16.51,300.19L17.97,302.41L18.45,302.45L20.88,303.16L21.37,303.04L22.82,303.42L23.31,303.43L31.57,303.41L32.05,303.38L33.99,303.39L34.48,303.44L36.91,303.25L37.39,301.76L37.88,301.82L38.36,293L38.85,293.72L39.34,297.89L40.31,297.71L40.79,282.86L41.28,273.31L41.76,293.24L42.25,297.01L42.73,274.23L43.71,299.85L44.19,299.32L45.65,298.95L46.13,298.07L46.62,296.9L47.11,293.05L48.08,290.48L48.56,291.87L49.05,270.5L49.53,284.92L50.99,289.97L51.48,283.55L52.45,287.83L52.93,281.93L53.42,259.87L53.9,270.19L54.39,271.66L55.36,272.18L55.85,263.73L57.79,117.01L58.27,154.35L59.73,193.07L60.22,195.02L63.62,266.65L64.1,270.37L66.53,280.83L67.02,281.61L67.5,281.2L67.99,283.94L69.44,286.13L69.93,283.83L70.42,288.67L70.9,288.31L71.39,286.45L71.87,289.32L72.36,288.77L72.84,288.81L75.27,289.83L75.76,290.19L78.19,291.46L78.67,292.02L80.61,293.52L81.1,293.72L84.5,295.95L84.98,296.26L87.9,297.48L88.38,297.35L89.35,297.93L89.84,297.11L90.81,298.18L91.3,298.37L91.78,298.37L92.27,297.54L93.73,298.49L94.21,298.73L95.18,298.89L95.67,298.94L97.12,299.21L97.61,299.27L103.92,300.78L104.41,300.9L106.84,301.83L107.32,301.78L110.24,302.46L110.72,302.57L112.18,301.29L112.66,301.53L113.15,302.3L113.64,301.62L115.09,302.24L115.58,302.04L120.92,302.11L121.41,301.97L121.89,301.33L122.38,301.7L122.86,301.95L123.83,302.1L124.32,302.24L125.29,301.14L125.78,301.62L126.26,301.9L126.75,298.89L127.23,302.4L129.18,303.5L129.66,303L130.15,301.86L130.63,302.85L133.06,299.27L133.55,269.62L134.52,299.26L135,299.44L135.97,301.19L136.46,300.78L137.92,300.24L138.4,300.03L139.86,300.45L140.35,300.45L141.8,301L142.29,300.54L143.26,301.36L143.74,301.33L144.72,301.4L145.2,299.53L146.17,301.35L146.66,301.26L149.57,301.56L150.06,301.65L157.34,300.91L157.83,301.7L164.63,302.76L165.11,302.66L165.6,301.91L166.08,293.93L167.05,302.53L167.54,302.64L173.37,304L173.85,304L197.16,303.35L197.65,303.24L199.59,303.02L200.08,302.94L206.39,302.88L206.88,301.52L207.85,302.7L208.33,302.63L211.25,302.9L211.73,296.02L212.22,258.48L212.7,287.95L213.67,293.13L214.16,293.19L215.62,293.96L216.1,294.97L218.04,298.36L218.53,298.88L219.99,299.93L220.47,301.29L221.93,249.93L222.42,236.03L223.39,274.21L223.87,276.58L224.36,279.12L224.84,268.09L226.3,155.47L226.79,151.71L229.21,207.64L229.7,202.75L232.61,277.56L233.1,278.53L234.56,291.67L235.04,292.54L236.01,177.49L236.5,221.18L238.93,292.11L239.41,294.64L240.38,297.7L240.87,297.96L241.84,297.92L242.33,298.48L242.81,252.18L243.3,272.78L243.78,280.78L246.21,293.22L246.7,293.42L249.61,297.5L250.1,297.8L252.04,297.36L252.52,297.62L256.41,299.07L256.89,299.28L260.29,300.96L260.78,300.39L261.75,301L262.24,301.05L263.69,301.19L264.18,300.32L264.66,301.52L265.15,301.22L265.64,283.32L266.61,190.84L267.09,191.57L267.58,220.51L269.52,260.8L270.01,265.72L271.46,279.63L271.95,281.06L272.92,288.48L273.41,285.05L273.89,284.34L274.38,284.86L274.86,284.43L277.78,281.02L278.26,281.35L278.75,287.56L279.23,285.4L279.72,283.23L284.09,285.34L284.58,285.31L285.55,293.31L286.03,291.97L287,293.21L287.49,291.05L287.97,292.9L288.46,292.3L288.95,292.49L289.43,292.37L289.92,293.08L290.89,293.67L291.37,293.05L292.35,290.96L292.83,271.02L293.8,285.18L294.29,285.29L294.77,287.28L295.26,293.84L295.74,294.88L296.23,293.37L296.72,295.24L297.2,293.2L297.69,287.4L298.17,294.33L299.63,298.06L300.12,296.93L300.6,294.69L301.09,298.72L303.03,301.11L303.51,301.28L305.94,301.16L306.43,297.36L306.91,300.83L307.4,300.14L307.88,300.96L309.34,301.05L309.83,299.74L310.31,256.14L310.8,269.71L311.28,287.27L312.26,292.03L312.74,286.05L313.23,291.44L313.71,287.95L314.2,293.62L314.68,293.51L315.17,292.92L316.63,298.68L317.11,298.32L318.08,298.37L318.57,298.63L320.03,299.25L320.51,299.13L321,299.23L321.48,297.68L323.91,300.31L324.4,300.59L326.82,301.84L327.31,302.02L329.74,302.67L330.22,302.06L331.19,302.41L331.68,299.13L332.17,301.86L332.65,299.86L333.14,297.63L333.62,300.51L334.59,301.23L335.08,301.17L336.54,301.99L337.02,301.82L338.96,302.09L339.45,302.26L341.39,302.86L341.88,303.32L343.34,304L343.82,304L344.79,304L345.28,303.16L347.22,304L347.71,304L372.47,304L372.96,298.1L373.93,241.05L374.42,254.55L375.87,291.21L376.36,290.17L376.84,291.36L377.33,282.52L377.81,281.86L378.3,273.13L378.79,263.43L379.27,279.31L380.24,278.87L380.73,279.59L381.7,280.07L382.19,282.47L383.16,288.11L383.64,286.09L384.13,289.93L384.61,259.52L385.1,200.69L385.58,241.95L386.07,247.91L386.56,243.21L387.04,240.91L387.53,259.42L389.47,291.94L389.96,275.55L390.93,290.4L391.41,291.92L393.35,294.65L393.84,290.13L394.81,294.48L395.3,291.98L395.78,292.34L396.27,294.86L398.21,296.75L398.7,297.65L399.67,298.47L400.15,298.18L402.1,297.73L402.58,297.74L405.01,298.71L405.5,299.68L406.95,301.06L407.44,300.7L408.41,301.44L408.89,301.48L416.18,300.73L416.66,286.23L417.15,291.41L417.64,264.43L418.61,289.91L419.09,291.29L422.49,300.48L422.98,301.16L423.95,301.3L424.43,301.02L425.41,302L425.89,301.92L426.86,301.19L427.35,299L427.83,299.75L428.32,299.27L428.81,299.43L431.23,299.58L431.72,299.56L436.58,301.15L437.06,301.13L437.55,301.17L438.03,299.57L438.52,301.29L439,300.71L439.49,300.81L443.86,301.23L444.35,300.6L444.83,301.45L445.32,301.09L445.8,301.31L447.74,301.48L448.23,301.17L450.17,301.69L450.66,301.76L451.63,302.15L452.12,300.23L453.09,301.35L453.57,301.3L455.03,301.56L455.51,300.8L456,301.7" style="vector-effect: non-scaling-stroke; fill: none; stroke: rgb(31, 119, 180); stroke-opacity: 1; stroke-width: 2px; opacity: 1;"/></g><g class="points"/><g class="text"/></g></g></g><g class="overplot"/><path class="xlines-above crisp" d="M0,0" style="fill: none;"/><path class="ylines-above crisp" d="M0,0" style="fill: none;"/><g class="overlines-above"/><g class="xaxislayer-above"><g class="xtick"><text text-anchor="middle" x="0" y="433" transform="translate(158.67000000000002,0)" style="font-family: 'Open Sans', verdana, arial, sans-serif; font-size: 12px; fill: rgb(42, 63, 95); fill-opacity: 1; white-space: pre; opacity: 1;">Jan 2019</text></g><g class="xtick"><text text-anchor="middle" x="0" y="433" style="font-family: 'Open Sans', verdana, arial, sans-serif; font-size: 12px; fill: rgb(42, 63, 95); fill-opacity: 1; white-space: pre; opacity: 1;" transform="translate(246.57,0)">Jul 2019</text></g><g class="xtick"><text text-anchor="middle" x="0" y="433" style="font-family: 'Open Sans', verdana, arial, sans-serif; font-size: 12px; fill: rgb(42, 63, 95); fill-opacity: 1; white-space: pre; opacity: 1;" transform="translate(335.91999999999996,0)">Jan 2020</text></g><g class="xtick"><text text-anchor="middle" x="0" y="433" style="font-family: 'Open Sans', verdana, arial, sans-serif; font-size: 12px; fill: rgb(42, 63, 95); fill-opacity: 1; white-space: pre; opacity: 1;" transform="translate(424.31,0)">Jul 2020</text></g><g class="xtick"><text text-anchor="middle" x="0" y="433" style="font-family: 'Open Sans', verdana, arial, sans-serif; font-size: 12px; fill: rgb(42, 63, 95); fill-opacity: 1; white-space: pre; opacity: 1;" transform="translate(513.6600000000001,0)">Jan 2021</text></g></g><g class="yaxislayer-above"><g class="ytick"><text text-anchor="end" x="79" y="4.199999999999999" transform="translate(0,404)" style="font-family: 'Open Sans', verdana, arial, sans-serif; font-size: 12px; fill: rgb(42, 63, 95); fill-opacity: 1; white-space: pre; opacity: 1;">0</text></g><g class="ytick"><text text-anchor="end" x="79" y="4.199999999999999" style="font-family: 'Open Sans', verdana, arial, sans-serif; font-size: 12px; fill: rgb(42, 63, 95); fill-opacity: 1; white-space: pre; opacity: 1;" transform="translate(0,345.95)">10</text></g><g class="ytick"><text text-anchor="end" x="79" y="4.199999999999999" style="font-family: 'Open Sans', verdana, arial, sans-serif; font-size: 12px; fill: rgb(42, 63, 95); fill-opacity: 1; white-space: pre; opacity: 1;" transform="translate(0,287.89)">20</text></g><g class="ytick"><text text-anchor="end" x="79" y="4.199999999999999" style="font-family: 'Open Sans', verdana, arial, sans-serif; font-size: 12px; fill: rgb(42, 63, 95); fill-opacity: 1; white-space: pre; opacity: 1;" transform="translate(0,229.84)">30</text></g><g class="ytick"><text text-anchor="end" x="79" y="4.199999999999999" style="font-family: 'Open Sans', verdana, arial, sans-serif; font-size: 12px; fill: rgb(42, 63, 95); fill-opacity: 1; white-space: pre; opacity: 1;" transform="translate(0,171.78)">40</text></g><g class="ytick"><text text-anchor="end" x="79" y="4.199999999999999" style="font-family: 'Open Sans', verdana, arial, sans-serif; font-size: 12px; fill: rgb(42, 63, 95); fill-opacity: 1; white-space: pre; opacity: 1;" transform="translate(0,113.73)">50</text></g></g><g class="overaxes-above"/></g></g><g class="polarlayer"/><g class="smithlayer"/><g class="ternarylayer"/><g class="geolayer"/><g class="funnelarealayer"/><g class="pielayer"/><g class="iciclelayer"/><g class="treemaplayer"/><g class="sunburstlayer"/><g class="glimages"/><defs id="topdefs-70a8be"><g class="clips"/><clipPath id="legend70a8be"><rect width="143" height="48" x="0" y="0"/></clipPath></defs><g class="layer-above"><g class="imagelayer"/><g class="shapelayer"/></g><g class="infolayer"><g class="legend" pointer-events="all" transform="translate(545.12,100)"><rect class="bg" shape-rendering="crispEdges" style="stroke: rgb(68, 68, 68); stroke-opacity: 1; fill: rgb(255, 255, 255); fill-opacity: 1; stroke-width: 0px;" width="143" height="48" x="0" y="0"/><g class="scrollbox" transform="" clip-path="url(#legend70a8be)"><g class="groups"><g class="traces" transform="translate(0,14.5)" style="opacity: 1;"><text class="legendtext" text-anchor="start" x="40" y="4.680000000000001" style="font-family: 'Open Sans', verdana, arial, sans-serif; font-size: 12px; fill: rgb(42, 63, 95); fill-opacity: 1; white-space: pre;">Observated flow</text><g class="layers" style="opacity: 1;"><g class="legendfill"/><g class="legendlines"><path class="js-line" d="M5,0h30" style="fill: none; stroke: rgb(255, 165, 0); stroke-opacity: 1; stroke-width: 2px;"/></g><g class="legendsymbols"><g class="legendpoints"/></g></g><rect class="legendtoggle" x="0" y="-9.5" width="137.890625" height="19" style="fill: rgb(0, 0, 0); fill-opacity: 0;"/></g><g class="traces" transform="translate(0,33.5)" style="opacity: 1;"><text class="legendtext" text-anchor="start" x="40" y="4.680000000000001" style="font-family: 'Open Sans', verdana, arial, sans-serif; font-size: 12px; fill: rgb(42, 63, 95); fill-opacity: 1; white-space: pre;">Forecasted flow</text><g class="layers" style="opacity: 1;"><g class="legendfill"/><g class="legendlines"><path class="js-line" d="M5,0h30" style="fill: none; stroke: rgb(31, 119, 180); stroke-opacity: 1; stroke-width: 2px;"/></g><g class="legendsymbols"><g class="legendpoints"/></g></g><rect class="legendtoggle" x="0" y="-9.5" width="137.890625" height="19" style="fill: rgb(0, 0, 0); fill-opacity: 0;"/></g></g></g><rect class="scrollbar" rx="20" ry="3" width="0" height="0" style="fill: rgb(128, 139, 164); fill-opacity: 1;" x="0" y="0"/></g><g class="g-gtitle"><text class="gtitle" x="35" y="50" text-anchor="start" dy="0em" style="font-family: 'Open Sans', verdana, arial, sans-serif; font-size: 17px; fill: rgb(42, 63, 95); opacity: 1; font-weight: normal; white-space: pre;">Observations vs Forecast of station a44_stats.csv-- Nash: -0.17</text></g><g class="g-xtitle"/><g class="g-ytitle"><text class="ytitle" transform="rotate(-90,38.934375,260)" x="38.934375" y="260" text-anchor="middle" style="font-family: 'Open Sans', verdana, arial, sans-serif; font-size: 14px; fill: rgb(42, 63, 95); opacity: 1; font-weight: normal; white-space: pre;">Flow (m3/s)</text></g></g></svg>