<svg class="main-svg" xmlns="http://www.w3.org/2000/svg" xmlns:xlink="http://www.w3.org/1999/xlink" width="700" height="500" style="" viewBox="0 0 700 500"><rect x="0" y="0" width="700" height="500" style="fill: rgb(255, 255, 255); fill-opacity: 1;"/><defs id="defs-09f424"><g class="clips"><clipPath id="clip09f424xyplot" class="plotclip"><rect width="540" height="320"/></clipPath><clipPath class="axesclip" id="clip09f424x"><rect x="80" y="0" width="540" height="500"/></clipPath><clipPath class="axesclip" id="clip09f424y"><rect x="0" y="100" width="700" height="320"/></clipPath><clipPath class="axesclip" id="clip09f424xy"><rect x="80" y="100" width="540" height="320"/></clipPath></g><g class="gradients"/><g class="patterns"/></defs><g class="bglayer"><rect class="bg" x="80" y="100" width="540" height="320" style="fill: rgb(229, 236, 246); fill-opacity: 1; stroke-width: 0;"/></g><g class="layer-below"><g class="imagelayer"/><g class="shapelayer"/></g><g class="cartesianlayer"><g class="subplot xy"><g class="layer-subplot"><g class="shapelayer"/><g class="imagelayer"/></g><g class="minor-gridlayer"><g class="x"/><g class="y"/></g><g class="gridlayer"><g class="x"><path class="xgrid crisp" transform="translate(173.16,0)" d="M0,100v320" style="stroke: rgb(255, 255, 255); stroke-opacity: 1; stroke-width: 1px;"/><path class="xgrid crisp" transform="translate(277.25,0)" d="M0,100v320" style="stroke: rgb(255, 255, 255); stroke-opacity: 1; stroke-width: 1px;"/><path class="xgrid crisp" transform="translate(383.07,0)" d="M0,100v320" style="stroke: rgb(255, 255, 255); stroke-opacity: 1; stroke-width: 1px;"/><path class="xgrid crisp" transform="translate(487.73,0)" d="M0,100v320" style="stroke: rgb(255, 255, 255); stroke-opacity: 1; stroke-width: 1px;"/><path class="xgrid crisp" transform="translate(593.55,0)" d="M0,100v320" style="stroke: rgb(255, 255, 255); stroke-opacity: 1; stroke-width: 1px;"/></g><g class="y"><path class="ygrid crisp" transform="translate(0,364.73)" d="M80,0h540" style="stroke: rgb(255, 255, 255); stroke-opacity: 1; stroke-width: 1px;"/><path class="ygrid crisp" transform="translate(0,325.46000000000004)" d="M80,0h540" style="stroke: rgb(255, 255, 255); stroke-opacity: 1; stroke-width: 1px;"/><path class="ygrid crisp" transform="translate(0,286.19)" d="M80,0h540" style="stroke: rgb(255, 255, 255); stroke-opacity: 1; stroke-width: 1px;"/><path class="ygrid crisp" transform="translate(0,246.92)" d="M80,0h540" style="stroke: rgb(255, 255, 255); stroke-opacity: 1; stroke-width: 1px;"/><path class="ygrid crisp" transform="translate(0,207.65)" d="M80,0h540" style="stroke: rgb(255, 255, 255); stroke-opacity: 1; stroke-width: 1px;"/><path class="ygrid crisp" transform="translate(0,168.38)" d="M80,0h540" style="stroke: rgb(255, 255, 255); stroke-opacity: 1; stroke-width: 1px;"/><path class="ygrid crisp" transform="translate(0,129.11)" d="M80,0h540" style="stroke: rgb(255, 255, 255); stroke-opacity: 1; stroke-width: 1px;"/></g></g><g class="zerolinelayer"><path class="yzl zl crisp" transform="translate(0,404)" d="M80,0h540" style="stroke: rgb(255, 255, 255); stroke-opacity: 1; stroke-width: 2px;"/></g><path class="xlines-below"/><path class="ylines-below"/><g class="overlines-below"/><g class="xaxislayer-below"/><g class="yaxislayer-below"/><g class="overaxes-below"/><g class="plot" transform="translate(80,100)" clip-path="url(#clip09f424xyplot)"><g class="scatterlayer mlayer"><g class="trace scatter trace966eb3" style="stroke-miterlimit: 2; opacity: 1;"><g class="fills"/><g class="errorbars"/><g class="lines"><path class="js-line" d="M0,295.5L0.58,296.8L1.15,293.74L3.45,297.47L4.03,297.29L4.6,297.78L5.18,296.44L5.75,295.88L6.33,297.17L8.05,297.96L8.63,298.09L9.78,297.65L10.35,295.86L10.93,297.48L11.5,294.23L12.65,289.58L13.23,294.64L13.8,295.49L14.38,293.23L14.95,293.66L15.53,295.25L17.25,296.82L17.83,296.4L18.4,296.09L18.98,296.9L21.28,298.88L21.85,297.98L23,297.59L23.58,298.16L24.15,296.38L24.73,288.4L25.3,289.49L25.88,280.7L26.45,278.43L27.03,285.21L28.75,292.08L29.33,291.39L29.9,291.38L30.48,293.65L33.93,296.41L34.5,296.49L36.23,296.95L36.81,297.69L37.96,297.62L38.53,297.88L39.68,293.99L40.26,297.15L42.56,298.46L43.13,298.62L43.71,288.25L44.28,292.86L44.86,294.83L45.43,269.86L46.58,289.64L47.16,291.57L47.73,281.37L48.31,16L49.46,254.12L50.03,260.13L51.76,274.45L52.33,276.93L54.63,284.88L55.21,282.96L56.36,284.72L56.93,286.71L58.08,268.06L58.66,274.96L60.38,281.7L60.96,270.45L62.11,277.79L62.68,273.76L63.26,273.65L63.83,276.14L65.56,282.56L66.13,278.93L67.28,276.39L67.86,252.7L68.43,251.03L69.01,261.42L71.31,277.63L71.88,275.92L75.34,285.77L75.91,286.67L78.21,289.52L78.79,289.79L83.39,292.6L83.96,292.43L87.99,294.48L88.56,294.74L97.19,296.96L97.76,297.91L101.79,298.3L102.36,298.31L105.81,298.93L106.39,298.32L110.42,298.56L110.99,297.88L112.14,298.14L112.72,298.87L113.87,298.79L114.44,299.32L116.17,298.78L116.74,298.71L122.49,299.03L123.07,299.07L129.97,300.28L130.54,299.5L131.69,300.28L132.27,300.12L139.17,300.71L139.74,300.74L140.89,300.82L141.47,301.5L142.62,301.76L143.19,301.66L145.5,301.13L146.07,298.59L146.65,297.8L147.22,298.7L148.37,297.62L148.95,298.55L150.1,296.51L150.67,298.08L152.4,298.89L152.97,298.79L154.12,298.78L154.7,298.78L155.85,299.02L156.42,298.31L157.57,299.08L158.15,298.23L159.3,293.68L159.87,295.59L161.6,297.13L162.17,296.9L163.9,285.89L164.47,289.6L166.2,293.79L166.77,293.95L169.65,296.43L170.22,296.92L170.8,297.65L171.37,296.09L172.52,295.53L173.1,296.56L174.82,297.06L175.4,293.5L175.97,289.81L176.55,291.14L180,295.3L180.58,295.87L181.73,296.88L182.3,296.63L183.45,297.09L184.03,297.39L185.18,297.97L185.75,296.01L186.33,295.07L186.9,297.31L188.63,298.4L189.2,298.06L190.35,299.06L190.93,296.38L191.5,293.33L192.08,296.63L193.23,297.91L193.8,298.32L196.1,299.52L196.68,299.23L197.83,299.52L198.4,298.17L198.98,297.89L199.55,299.47L200.7,300.49L201.28,299.39L202.43,297.77L203,299.28L204.15,299.73L204.73,299.66L205.88,300.32L206.45,300.03L207.6,299.41L208.18,300.22L209.9,300.52L210.48,300.15L211.63,300.21L212.2,295.08L213.35,300.76L213.93,300.54L214.5,300.52L215.08,300.58L215.65,301.48L224.28,300.56L224.86,300.76L227.16,300.49L227.73,300.67L232.91,299.97L233.48,298.93L234.06,301.45L234.63,301L235.21,301.15L237.51,300.96L238.08,300.38L239.81,300.72L240.38,300.77L241.53,300.45L242.11,300.63L242.68,299.67L243.26,297L244.98,300.87L245.56,300.28L247.86,300.68L248.43,300.56L249.58,300.59L250.16,299.31L250.73,300.62L251.31,298.23L253.04,300.86L253.61,300.64L257.06,300.86L257.64,300.78L259.94,300.88L260.51,301.94L261.09,302.21L261.66,300.49L262.81,298.95L263.39,236.91L264.54,288.53L265.11,291.59L266.26,295.6L266.84,296.72L267.99,297.09L268.56,297.19L269.14,297.25L269.71,296.5L270.86,295.99L271.44,297.54L273.16,298.07L273.74,298.38L275.46,299.74L276.04,298.64L277.76,298.97L278.34,299.07L280.06,299.52L280.64,299.09L281.21,280.75L281.79,290.1L283.51,295.42L284.09,296.28L285.24,297.44L285.81,297.03L286.96,297.64L287.54,294.46L288.12,268.93L288.69,282.38L290.42,292.57L290.99,293.65L292.72,294.65L293.29,293.51L295.59,296.13L296.17,296.36L296.74,261.33L297.32,264.12L297.89,267.83L299.62,282.48L300.19,284.93L301.92,290.69L302.49,291.65L304.22,293.79L304.79,294.26L307.09,296.16L307.67,295.67L309.39,296.52L309.97,297.01L311.12,298.16L311.69,298.29L313.42,297.64L313.99,297.85L314.57,271.56L315.14,100.2L315.72,98.84L316.29,228.38L317.44,268L318.02,271.11L319.74,276.61L320.32,277.75L320.89,277.66L321.47,280.98L322.04,283.99L322.62,279.28L323.19,277.54L323.77,280.03L326.07,286.49L326.65,286.67L327.22,286.59L327.8,287.35L329.52,288.06L330.1,287.91L330.67,287.23L331.25,287.74L331.82,287.7L332.4,288.65L334.7,294.55L335.27,293.71L336.42,292.37L337,293.22L338.15,292L338.72,291.93L343.9,293.56L344.47,293.19L347.35,292.81L347.92,293.14L349.65,293.64L350.22,293.21L351.95,292.89L352.52,293.25L353.67,293.77L354.25,292.88L354.82,292.75L355.4,291.68L355.97,289.9L356.55,290.65L358.27,291.77L358.85,291.94L362.3,292.1L362.88,291.84L365.18,292.22L365.75,291.59L366.33,291.23L366.9,275.99L367.48,253.82L368.05,270.89L370.35,280.94L370.93,281.01L373.8,289.75L374.38,289.27L375.53,289.26L376.1,289.82L377.25,290.78L377.83,282.57L378.4,271.13L378.98,278.68L379.55,279.01L380.13,263.39L381.28,271.36L381.85,274.81L385.3,286.81L385.88,287.52L388.18,291.14L388.75,291.6L389.9,291.99L390.48,291.42L391.63,292.14L392.2,283.52L392.78,284.19L393.35,281.74L393.93,247.29L394.5,249.71L395.08,267.52L395.65,274.1L396.23,269.87L396.81,267.01L397.38,270.77L398.53,267.13L399.11,259.85L399.68,263.17L400.26,261.69L401.98,270.74L402.56,274.55L406.01,285.49L406.58,286.44L408.31,288.43L408.88,286.87L410.61,291.28L411.18,291.71L412.91,291.82L413.48,291.62L414.63,287.15L415.21,288.64L417.51,291.74L418.08,291.82L419.81,292.99L420.38,281.8L420.96,275.01L421.53,277.66L423.26,288.39L423.83,289.33L424.98,290.06L425.56,290.29L426.13,292.45L426.71,292.08L427.28,293.21L428.43,293.31L429.01,293.97L430.16,294.02L430.73,293.95L431.88,295.05L432.46,294.9L433.61,295.2L434.19,295.81L437.64,297.23L438.21,297.27L440.51,298.07L441.09,286.44L441.66,244.03L442.24,272.47L443.39,288.38L443.96,289.47L445.69,292.36L446.26,291.48L446.84,285.41L447.41,289.84L447.99,286.37L448.56,287L449.14,288.15L450.86,292.85L451.44,292.45L452.01,292.22L453.74,292.46L454.31,293.94L454.89,292.88L455.46,283.03L456.04,284.69L456.61,292.28L457.76,294.11L458.34,292.73L460.64,296.24L461.21,295.16L461.79,292.04L462.36,294.29L465.24,296.33L465.81,273.1L467.54,294.31L468.12,291.9L468.69,290.39L469.27,292.84L472.14,295.56L472.72,295.84L473.87,295.23L474.44,295.89L477.32,296.85L477.89,297.73L479.62,297.75L480.19,288.03L481.34,295.05L481.92,293.18L482.49,291.1L483.07,291.81L483.64,291.5L484.79,292.4L485.37,292.9L489.97,295.87L490.54,296.06L492.27,296.6L492.84,295.9L493.42,294.6L493.99,223.37L495.72,276.21L496.29,280.52L498.02,288.01L498.59,289.4L500.32,291.68L500.89,292.12L505.5,294.54L506.07,293.98L507.8,295.15L508.37,295.28L514.7,296.95L515.27,297.48L518.15,297.79L518.72,297.77L525.05,297.76L525.62,291.55L527.35,295.72L527.92,296.13L529.65,296.08L530.22,296.12L534.25,297.21L534.82,297.21L540,297.73" style="vector-effect: non-scaling-stroke; fill: none; stroke: rgb(255, 165, 0); stroke-opacity: 1; stroke-width: 2px; opacity: 1;"/></g><g class="points"/><g class="text"/></g><g class="trace scatter traceef971a" style="stroke-miterlimit: 2; opacity: 1;"><g class="fills"/><g class="errorbars"/><g class="lines"><path class="js-line" d="M0,296.18L0.58,297.73L1.15,296.33L2.3,295.38L2.88,297.45L4.03,298.66L4.6,298.38L5.18,298.72L5.75,296.36L6.9,298.8L7.48,299.08L9.78,299.03L10.35,297.08L11.5,298.98L12.08,296.19L12.65,290.27L13.23,297.17L14.38,298.18L14.95,294.48L16.1,298.2L16.68,298.61L17.25,297.61L17.83,298.15L20.13,299.33L20.7,299.5L21.28,299.84L21.85,297.98L24.15,299.28L24.73,291.82L25.3,292.53L25.88,290.86L26.45,283.13L27.03,288.23L27.6,291.41L28.18,288.06L29.33,294.03L29.9,288.11L31.63,296.09L32.2,296.87L34.5,298.62L35.08,298.82L37.38,299.06L37.96,299.11L39.11,299.43L39.68,284.6L40.83,298.02L41.41,298L43.13,299.09L43.71,298.55L44.28,284.04L44.86,291.01L45.43,247.54L46.01,273.48L47.16,288.74L47.73,290.41L48.31,204.55L48.88,219.01L49.46,257.32L50.03,270.23L50.61,266.13L51.76,282.65L52.33,285.57L54.63,291.92L55.21,291.66L55.78,286.73L56.36,287.61L56.93,290.63L57.51,291.18L58.08,270.61L59.23,286.98L59.81,289.7L60.38,290.79L60.96,273.78L62.11,288.22L62.68,289.65L63.26,279.7L63.83,285.94L65.56,290.51L66.13,291.02L66.71,268.28L67.28,280.51L68.43,262.81L69.01,269.36L70.73,280.33L71.31,275.73L73.61,287.23L74.19,287.78L79.94,294.1L80.51,294.95L82.24,296.01L82.81,295.74L83.96,296.97L84.54,295.36L86.26,297.48L86.84,297.52L87.99,298.1L88.56,298.39L92.59,298.99L93.16,298.84L98.34,300L98.91,300.53L105.81,301.17L106.39,300.21L106.96,299.44L107.54,301.02L108.69,301.01L109.27,298.44L109.84,298.98L110.42,300.82L110.99,300.28L111.57,298.52L112.14,297.78L112.72,300.36L113.29,300.9L113.87,299.62L115.02,300.48L115.59,300.5L117.32,300.94L117.89,301.17L121.92,301.1L122.49,301.14L130.54,300.92L131.12,300.15L132.27,302.11L132.84,301.91L134.57,302.26L135.14,302.73L145.5,303.43L146.07,304L146.65,301.19L147.22,301.74L147.8,300.68L148.37,298.52L148.95,300.35L150.1,293.1L150.67,296.23L152.97,299.28L153.55,298.33L154.12,298.36L154.7,299.53L155.85,299.63L156.42,296.91L157,295.91L157.57,297.21L158.15,294.03L158.72,295.18L159.3,292.56L159.87,294.68L161.02,297.79L161.6,298.48L162.17,298.91L162.75,295.62L163.9,283.91L164.47,291.36L166.2,296.34L166.77,296.81L167.92,297.39L168.5,295.88L170.22,298.4L170.8,298.79L171.37,298.77L171.95,296.79L172.52,292.74L173.1,295.56L173.67,296.03L174.25,292.01L175.4,295.47L175.97,285.36L177.7,294.46L178.27,295.1L180,296.63L180.58,296.85L185.75,299.34L186.33,299.04L186.9,297.62L187.48,298.59L188.63,298.78L189.2,299.22L190.93,299.77L191.5,287.32L193.23,297.39L193.8,298.18L196.68,299.98L197.25,299.89L198.4,300L198.98,298.81L200.13,300.3L200.7,300.61L202.43,299.23L203,300.49L205.3,301.28L205.88,301.23L212.2,300.88L212.78,303.6L213.93,301.24L214.5,301.38L217.38,301.95L217.96,301.83L223.13,301.32L223.71,301.67L228.31,302.18L228.88,303.52L229.46,301.63L230.03,302.47L232.91,302.14L233.48,303.23L234.06,301.4L234.63,302.2L238.08,302.57L238.66,304L239.23,300.51L239.81,302.41L243.26,301.71L243.83,299.82L244.98,301.33L245.56,299.94L246.71,302.08L247.28,302.08L250.16,302.24L250.73,303.6L251.31,300.8L251.88,302.15L253.61,302.02L254.19,302L258.21,302.34L258.79,301.08L259.94,301.98L260.51,302.11L261.09,302.3L261.66,304L262.24,300.52L262.81,219.95L264.54,291.7L265.11,293.78L267.41,297.99L267.99,298.1L268.56,297.72L269.14,298.62L270.29,295.55L270.86,296.76L271.44,298.73L272.01,296.15L274.31,300.24L274.89,300.52L275.46,300.48L276.04,298.46L276.61,298.78L277.19,300.4L279.49,301.39L280.06,301.53L280.64,293.43L281.21,296.83L282.36,299.54L282.94,300.33L286.39,301.25L286.96,301.99L287.54,245.21L288.12,278.73L289.27,294.91L289.84,295.9L291.57,298.9L292.14,299.19L292.72,296.77L293.29,298.2L294.44,300.11L295.02,300.08L296.17,300.55L296.74,279.32L299.04,296.88L299.62,298.04L301.34,299.17L301.92,299.41L304.79,300.27L305.37,300.61L313.99,301.81L314.57,301.44L315.72,132.75L316.29,180.31L317.44,261.82L318.02,270.68L319.74,283.12L320.32,284.52L326.07,294.35L326.65,294.25L329.52,296.18L330.1,296.23L330.67,295.18L331.25,296.31L332.4,297.73L332.97,297.86L334.7,298.3L335.27,298.68L338.15,299.58L338.72,297.21L339.3,296.02L339.87,299.39L340.45,297.93L341.02,298.32L341.6,299L343.32,299.39L343.9,299.06L346.2,299.22L346.77,292.04L347.92,297.76L348.5,297.63L349.07,298.68L350.22,299.42L350.8,296.74L351.37,295.57L351.95,298.17L352.52,296.04L353.1,297.27L353.67,298.65L354.25,296.89L355.97,282.59L356.55,288.87L357.12,293.18L357.7,293.01L358.27,294.57L361.15,295.78L361.73,296.07L362.3,296.77L362.88,287.7L364.6,292.89L365.18,294.08L366.33,285.06L366.9,286.5L367.48,207.36L368.05,250.75L369.78,274.71L370.35,272.77L370.93,277.34L371.5,276.71L372.08,280.37L372.65,282.46L373.23,280.58L375.53,288.24L376.1,289.69L377.83,292.38L378.4,270.96L379.55,285.09L380.13,281.77L380.7,274.3L381.28,275.66L381.85,278.79L384.15,288.57L384.73,289.82L385.88,290.08L386.45,291.69L388.18,293.98L388.75,294.3L390.48,294.7L391.05,292.31L391.63,292.31L392.2,288.97L392.78,281.52L393.35,285.07L394.5,267.49L395.08,271.37L395.65,275.33L396.23,270.01L397.38,274.93L397.96,274.12L399.11,276.98L399.68,277.02L400.83,275.24L401.41,277.83L401.98,278.6L402.56,281.62L404.28,285.15L404.86,286.91L406.58,291.01L407.16,291.48L408.31,292.78L408.88,292.33L409.46,291.76L410.03,292.47L412.33,295.04L412.91,295.31L413.48,295.24L414.06,293.48L415.21,288.37L415.78,290.28L418.08,294.91L418.66,295.47L420.38,296.84L420.96,275.92L422.68,292.22L423.26,293.42L426.13,297L426.71,297.5L430.16,298.57L430.73,297.64L431.88,298.54L432.46,297.71L433.04,298.82L433.61,297.4L434.76,299.45L435.34,299.64L438.21,299.79L438.79,299.65L441.09,299.58L441.66,282.61L443.39,297.75L443.96,298.12L446.26,299.78L446.84,298.11L447.41,298.65L447.99,298L448.56,293.3L449.14,294.03L449.71,297.14L451.44,298.78L452.01,298.98L454.89,299.59L455.46,298.61L456.04,297.09L456.61,299.28L457.76,299.41L458.34,298.81L458.91,298.37L459.49,299.96L460.64,299.76L461.21,299.74L462.36,296.98L462.94,299.54L463.51,298.76L464.09,299.22L464.66,299.18L465.24,298.97L465.81,296.84L466.39,287.03L466.96,293.67L467.54,297.57L468.12,294.14L468.69,283.22L469.27,290.95L470.42,295.95L470.99,296.56L472.14,296.63L472.72,296.37L473.29,293.85L473.87,295.44L475.02,296.81L475.59,296.63L477.32,298.3L477.89,298.31L479.62,298.96L480.19,292.92L480.77,291.32L481.34,296.63L481.92,296.5L482.49,280.1L483.64,294.27L484.22,295.14L487.09,299.3L487.67,299.61L489.39,300.47L489.97,300.53L492.27,301.81L492.84,301.99L493.42,299.7L493.99,286.21L494.57,228.38L495.14,277.62L496.29,290.84L496.87,292.47L498.59,295.31L499.17,295.3L499.74,294.04L500.32,294.96L502.04,298.71L502.62,298.33L504.35,299.54L504.92,299.78L505.5,299.48L506.07,296.51L506.65,296.97L507.22,300.16L508.37,301.34L508.95,301.41L512.4,301.82L512.97,301.83L515.85,301.71L516.42,301.19L517.57,301.83L518.15,301.54L519.3,293.92L519.87,299.98L525.62,300.3L526.2,297.19L529.07,301.15L529.65,300.88L530.22,300.9L530.8,299.88L532.52,300.61L533.1,300.84L534.25,300.79L534.82,301.92L535.4,301.87L535.97,300.33L537.12,302.26L537.7,301.85L538.27,299.1L540,299.35" style="vector-effect: non-scaling-stroke; fill: none; stroke: rgb(31, 119, 180); stroke-opacity: 1; stroke-width: 2px; opacity: 1;"/></g><g class="points"/><g class="text"/></g><g class="trace scatter trace00cd0d" style="stroke-miterlimit: 2; opacity: 1;"><g class="fills"/><g class="errorbars"/><g class="lines"><path class="js-line" d="M0,295.93L0.58,296.82L1.15,295.53L5.18,297.45L5.75,296.38L6.9,297.96L7.48,298.19L9.78,299.01L10.35,296.97L11.5,298.72L12.08,296.33L12.65,294.52L13.23,297.65L14.38,298.91L14.95,297.13L16.1,299.39L16.68,299.71L21.28,300.77L21.85,299.04L24.15,300.2L24.73,296.04L25.3,296.83L25.88,296.24L26.45,294.29L27.03,297.17L27.6,297.24L28.18,295.99L29.33,297.08L29.9,293.9L31.05,297.03L31.63,297.29L34.5,298.28L35.08,298.21L39.11,298.17L39.68,288.3L40.83,295.13L41.41,295.75L43.13,296.88L43.71,295.92L44.28,284.74L44.86,290.75L45.43,276.92L46.01,286.59L47.16,292.26L47.73,292.57L48.31,268.36L48.88,269.56L49.46,288.17L50.03,291.31L50.61,287.65L51.76,293.04L52.33,293.52L54.63,294.64L55.21,294.32L55.78,290.15L56.36,291.75L56.93,293.14L57.51,292.88L58.08,282.91L59.23,290.72L59.81,290.8L60.38,291.01L60.96,282.02L62.11,289.29L62.68,289.64L63.26,283.09L63.83,287.57L66.13,289.46L66.71,277.25L67.28,284.69L67.86,277.55L68.43,274.36L69.01,280.28L70.73,285.35L71.31,282.23L72.46,286.21L73.04,286.66L81.09,290.72L81.66,290.6L83.96,290.98L84.54,289.16L85.69,290.88L86.26,291.01L95.46,293.06L96.04,292.81L105.81,295.24L106.39,293.49L107.54,295.2L108.12,295.43L108.69,295.73L109.27,293.45L109.84,295.7L110.42,295.55L110.99,295.9L112.14,295.29L112.72,296.38L115.02,297.17L115.59,297.47L117.32,298.48L117.89,298.73L129.97,300.83L130.54,300.16L132.27,301.53L132.84,301.58L142.04,302.59L142.62,302.59L145.5,302.69L146.07,301.2L146.65,300.34L147.22,301.51L147.8,300.72L148.37,301.45L149.52,300.87L150.1,300.26L151.25,301.03L151.82,301.25L155.85,301.35L156.42,300.7L157.57,300.95L158.15,300.58L158.72,300.87L159.3,300.25L161.02,301.01L161.6,301.1L162.75,300.59L163.32,298.06L163.9,297.33L164.47,298.99L171.37,300.55L171.95,299.63L172.52,298.48L173.1,299.66L174.25,298.45L174.82,299.17L175.4,298.95L175.97,296.45L177.12,298.25L177.7,298.58L185.75,298.88L186.33,294.65L186.9,297.34L187.48,297.08L188.05,296.82L190.35,297.38L190.93,297.5L191.5,287.47L192.08,292.24L193.23,295.07L193.8,295.63L197.25,297.56L197.83,297.97L198.4,298.28L198.98,296.34L200.13,298.25L200.7,298.53L201.85,298.46L202.43,296.84L203.58,298.89L204.15,299.21L207.6,300.4L208.18,300.5L212.2,300.68L212.78,297.08L213.93,300.25L214.5,300.78L216.81,302.05L217.38,302.12L224.86,302.49L225.43,302.25L232.33,302.76L232.91,302.69L234.06,302.41L234.63,302.62L238.08,302.71L238.66,301.56L240.38,302.27L240.96,302.29L246.13,302.12L246.71,302.27L250.16,302.63L250.73,301.85L252.46,302.56L253.04,302.59L257.64,302.7L258.21,302.28L260.51,302.75L261.09,302.71L261.66,299.67L262.24,301.36L262.81,290.07L263.39,293.82L264.54,299.82L265.11,300.44L267.41,301.27L267.99,301.2L272.59,300.87L273.16,301.04L275.46,300.96L276.04,299.84L277.19,300.46L277.76,300.51L280.06,300.26L280.64,293.92L281.79,297.75L282.36,298.04L284.66,298.74L285.24,298.53L285.81,297.57L286.39,298.38L286.96,298.39L287.54,281.57L289.27,293.47L289.84,294.2L292.14,295.32L292.72,293.58L293.87,295.39L294.44,295.71L296.17,296.31L296.74,284.04L298.47,292.92L299.04,294.43L301.34,295.9L301.92,295.97L306.52,296.28L307.09,295.98L309.97,295.74L310.54,295.76L314.57,295.47L315.14,265.62L315.72,252.71L316.29,261.21L317.44,287.43L318.02,289.49L320.32,293.22L320.89,293.76L323.77,295.28L324.35,295.43L331.25,295.8L331.82,295.96L338.15,295.57L338.72,291.48L339.87,294.02L340.45,293.27L342.17,294.46L342.75,294.6L345.62,295.06L346.2,295.19L346.77,287.52L347.35,293.32L348.5,293.64L349.07,294.1L350.22,294.66L350.8,292.33L351.95,293.95L352.52,292.97L353.67,294.69L354.25,294.16L354.82,291.4L355.4,292.59L355.97,288.45L356.55,293.23L359.42,295.28L360,295.59L362.3,296.46L362.88,289.25L363.45,294.35L364.03,293.82L364.6,294.5L365.18,294.81L365.75,293.83L366.33,291.35L366.9,293.02L367.48,271.64L368.05,279.42L369.2,289.1L369.78,290.08L370.35,288.04L370.93,291.28L371.5,289.77L372.08,292.29L372.65,292.4L373.23,290.73L374.38,293.04L374.95,293.34L377.83,294.67L378.4,279.48L379.55,289.29L380.13,286.46L380.7,280.96L381.28,285.63L382.43,290.29L383,290.96L385.88,291.71L386.45,292.78L388.75,294.22L389.33,294.31L390.48,294.73L391.05,288.55L391.63,292.91L392.2,288.07L392.78,283.45L393.35,290.35L394.5,280.44L395.08,286.72L395.65,289.21L396.23,284.99L396.81,288.97L397.38,287.8L397.96,286.69L399.11,288.4L399.68,287.55L400.83,286.11L401.41,289.34L401.98,288.76L402.56,290.39L403.71,291.42L404.28,290.56L406.01,292.74L406.58,292.72L408.31,293.57L408.88,289.01L410.03,293.51L410.61,293.7L412.91,294.76L413.48,294.83L414.63,292.14L415.21,289.98L416.36,293.26L416.93,293.56L420.38,295.17L420.96,285.58L422.68,291.97L423.26,292.74L427.28,295.83L427.86,296.12L430.16,296.39L430.73,296.05L431.88,296.58L432.46,296.23L433.04,296.78L433.61,295.49L434.76,296.7L435.34,296.9L441.09,298.42L441.66,291.52L442.24,289.7L442.81,294.76L444.54,297.46L445.11,298.03L446.26,298.73L446.84,296.14L447.41,298.27L447.99,297.72L448.56,295.85L450.29,298.48L450.86,298.66L453.16,299.36L453.74,298.82L454.89,298.9L455.46,297.13L456.61,297.65L457.19,298.03L457.76,297.97L458.34,296.41L459.49,297.47L460.06,297.77L461.21,298.16L461.79,293.49L462.94,297.11L463.51,297.74L464.09,298.15L464.66,297.32L465.24,297.7L465.81,296.58L466.39,289.7L466.96,294.76L467.54,295.04L468.12,293.71L468.69,287.44L469.27,292.9L472.14,295.46L472.72,295.67L473.29,294.46L473.87,295.58L479.62,296.24L480.19,289.81L481.34,293.41L481.92,293L482.49,285.71L483.07,292.03L484.22,292.42L484.79,293.04L489.97,296.25L490.54,296.54L492.84,296.63L493.42,289.79L493.99,281.82L494.57,263.15L495.72,288.85L496.29,290.64L498.59,293.85L499.17,294.23L499.74,293.86L500.32,294.48L502.04,294.47L502.62,294.1L504.35,294.94L504.92,295.18L505.5,295.27L506.07,293.67L507.22,295.54L507.8,296.02L510.1,295.92L510.67,296.07L518.15,295.4L518.72,289.33L520.45,293.23L521.02,293.66L525.62,296.13L526.2,292.68L526.77,295.35L527.35,295.21L527.92,295.59L530.22,296.21L530.8,295.17L531.95,296.43L532.52,296.65L534.82,297.05L535.4,296.22L535.97,295.17L536.55,296.48L537.7,296.73L538.27,294.53L538.85,296.27L539.42,295.27L540,296.35" style="vector-effect: non-scaling-stroke; fill: none; stroke: rgb(255, 0, 0); stroke-opacity: 1; stroke-width: 2px; opacity: 1;"/></g><g class="points"/><g class="text"/></g></g></g><g class="overplot"/><path class="xlines-above crisp" d="M0,0" style="fill: none;"/><path class="ylines-above crisp" d="M0,0" style="fill: none;"/><g class="overlines-above"/><g class="xaxislayer-above"><g class="xtick"><text text-anchor="middle" x="0" y="433" transform="translate(173.16,0)" style="font-family: 'Open Sans', verdana, arial, sans-serif; font-size: 12px; fill: rgb(42, 63, 95); fill-opacity: 1; white-space: pre; opacity: 1;">Jan 2019</text></g><g class="xtick"><text text-anchor="middle" x="0" y="433" style="font-family: 'Open Sans', verdana, arial, sans-serif; font-size: 12px; fill: rgb(42, 63, 95); fill-opacity: 1; white-space: pre; opacity: 1;" transform="translate(277.25,0)">Jul 2019</text></g><g class="xtick"><text text-anchor="middle" x="0" y="433" style="font-family: 'Open Sans', verdana, arial, sans-serif; font-size: 12px; fill: rgb(42, 63, 95); fill-opacity: 1; white-space: pre; opacity: 1;" transform="translate(383.07,0)">Jan 2020</text></g><g class="xtick"><text text-anchor="middle" x="0" y="433" style="font-family: 'Open Sans', verdana, arial, sans-serif; font-size: 12px; fill: rgb(42, 63, 95); fill-opacity: 1; white-space: pre; opacity: 1;" transform="translate(487.73,0)">Jul 2020</text></g><g class="xtick"><text text-anchor="middle" x="0" y="433" style="font-family: 'Open Sans', verdana, arial, sans-serif; font-size: 12px; fill: rgb(42, 63, 95); fill-opacity: 1; white-space: pre; opacity: 1;" transform="translate(593.55,0)">Jan 2021</text></g></g><g class="yaxislayer-above"><g class="ytick"><text text-anchor="end" x="79" y="4.199999999999999" transform="translate(0,404)" style="font-family: 'Open Sans', verdana, arial, sans-serif; font-size: 12px; fill: rgb(42, 63, 95); fill-opacity: 1; white-space: pre; opacity: 1;">0</text></g><g class="ytick"><text text-anchor="end" x="79" y="4.199999999999999" style="font-family: 'Open Sans', verdana, arial, sans-serif; font-size: 12px; fill: rgb(42, 63, 95); fill-opacity: 1; white-space: pre; opacity: 1;" transform="translate(0,364.73)">20</text></g><g class="ytick"><text text-anchor="end" x="79" y="4.199999999999999" style="font-family: 'Open Sans', verdana, arial, sans-serif; font-size: 12px; fill: rgb(42, 63, 95); fill-opacity: 1; white-space: pre; opacity: 1;" transform="translate(0,325.46000000000004)">40</text></g><g class="ytick"><text text-anchor="end" x="79" y="4.199999999999999" style="font-family: 'Open Sans', verdana, arial, sans-serif; font-size: 12px; fill: rgb(42, 63, 95); fill-opacity: 1; white-space: pre; opacity: 1;" transform="translate(0,286.19)">60</text></g><g class="ytick"><text text-anchor="end" x="79" y="4.199999999999999" style="font-family: 'Open Sans', verdana, arial, sans-serif; font-size: 12px; fill: rgb(42, 63, 95); fill-opacity: 1; white-space: pre; opacity: 1;" transform="translate(0,246.92)">80</text></g><g class="ytick"><text text-anchor="end" x="79" y="4.199999999999999" style="font-family: 'Open Sans', verdana, arial, sans-serif; font-size: 12px; fill: rgb(42, 63, 95); fill-opacity: 1; white-space: pre; opacity: 1;" transform="translate(0,207.65)">100</text></g><g class="ytick"><text text-anchor="end" x="79" y="4.199999999999999" style="font-family: 'Open Sans', verdana, arial, sans-serif; font-size: 12px; fill: rgb(42, 63, 95); fill-opacity: 1; white-space: pre; opacity: 1;" transform="translate(0,168.38)">120</text></g><g class="ytick"><text text-anchor="end" x="79" y="4.199999999999999" style="font-family: 'Open Sans', verdana, arial, sans-serif; font-size: 12px; fill: rgb(42, 63, 95); fill-opacity: 1; white-space: pre; opacity: 1;" transform="translate(0,129.11)">140</text></g></g><g class="overaxes-above"/></g></g><g class="polarlayer"/><g class="smithlayer"/><g class="ternarylayer"/><g class="geolayer"/><g class="funnelarealayer"/><g class="pielayer"/><g class="iciclelayer"/><g class="treemaplayer"/><g class="sunburstlayer"/><g class="glimages"/><defs id="topdefs-09f424"><g class="clips"/></defs><g class="layer-above"><g class="imagelayer"/><g class="shapelayer"/></g><g class="infolayer"><g class="g-gtitle"/><g class="g-xtitle"/><g class="g-ytitle"/></g></svg>