<svg class="main-svg" xmlns="http://www.w3.org/2000/svg" xmlns:xlink="http://www.w3.org/1999/xlink" width="700" height="500" style="" viewBox="0 0 700 500"><rect x="0" y="0" width="700" height="500" style="fill: rgb(255, 255, 255); fill-opacity: 1;"/><defs id="defs-ec4617"><g class="clips"><clipPath id="clipec4617xyplot" class="plotclip"><rect width="540" height="320"/></clipPath><clipPath class="axesclip" id="clipec4617x"><rect x="80" y="0" width="540" height="500"/></clipPath><clipPath class="axesclip" id="clipec4617y"><rect x="0" y="100" width="700" height="320"/></clipPath><clipPath class="axesclip" id="clipec4617xy"><rect x="80" y="100" width="540" height="320"/></clipPath></g><g class="gradients"/><g class="patterns"/></defs><g class="bglayer"><rect class="bg" x="80" y="100" width="540" height="320" style="fill: rgb(229, 236, 246); fill-opacity: 1; stroke-width: 0;"/></g><g class="layer-below"><g class="imagelayer"/><g class="shapelayer"/></g><g class="cartesianlayer"><g class="subplot xy"><g class="layer-subplot"><g class="shapelayer"/><g class="imagelayer"/></g><g class="minor-gridlayer"><g class="x"/><g class="y"/></g><g class="gridlayer"><g class="x"><path class="xgrid crisp" transform="translate(177.51,0)" d="M0,100v320" style="stroke: rgb(255, 255, 255); stroke-opacity: 1; stroke-width: 1px;"/><path class="xgrid crisp" transform="translate(314.69,0)" d="M0,100v320" style="stroke: rgb(255, 255, 255); stroke-opacity: 1; stroke-width: 1px;"/><path class="xgrid crisp" transform="translate(451.87,0)" d="M0,100v320" style="stroke: rgb(255, 255, 255); stroke-opacity: 1; stroke-width: 1px;"/><path class="xgrid crisp" transform="translate(589.05,0)" d="M0,100v320" style="stroke: rgb(255, 255, 255); stroke-opacity: 1; stroke-width: 1px;"/></g><g class="y"><path class="ygrid crisp" transform="translate(0,343.97)" d="M80,0h540" style="stroke: rgb(255, 255, 255); stroke-opacity: 1; stroke-width: 1px;"/><path class="ygrid crisp" transform="translate(0,283.93)" d="M80,0h540" style="stroke: rgb(255, 255, 255); stroke-opacity: 1; stroke-width: 1px;"/><path class="ygrid crisp" transform="translate(0,223.9)" d="M80,0h540" style="stroke: rgb(255, 255, 255); stroke-opacity: 1; stroke-width: 1px;"/><path class="ygrid crisp" transform="translate(0,163.87)" d="M80,0h540" style="stroke: rgb(255, 255, 255); stroke-opacity: 1; stroke-width: 1px;"/><path class="ygrid crisp" transform="translate(0,103.83)" d="M80,0h540" style="stroke: rgb(255, 255, 255); stroke-opacity: 1; stroke-width: 1px;"/></g></g><g class="zerolinelayer"><path class="yzl zl crisp" transform="translate(0,404)" d="M80,0h540" style="stroke: rgb(255, 255, 255); stroke-opacity: 1; stroke-width: 2px;"/></g><path class="xlines-below"/><path class="ylines-below"/><g class="overlines-below"/><g class="xaxislayer-below"/><g class="yaxislayer-below"/><g class="overaxes-below"/><g class="plot" transform="translate(80,100)" clip-path="url(#clipec4617xyplot)"><g class="scatterlayer mlayer"><g class="trace scatter trace790141" style="stroke-miterlimit: 2; opacity: 1;"><g class="fills"/><g class="errorbars"/><g class="lines"><path class="js-line" d="M0,303.95L1.05,303.99" style="vector-effect: non-scaling-stroke; fill: none; stroke: rgb(255, 165, 0); stroke-opacity: 1; stroke-width: 2px; opacity: 1;"/><path class="js-line" d="M9.62,303.85L9.69,303.52" style="vector-effect: non-scaling-stroke; fill: none; stroke: rgb(255, 165, 0); stroke-opacity: 1; stroke-width: 2px; opacity: 1;"/><path class="js-line" d="M11.72,300.26L11.87,304" style="vector-effect: non-scaling-stroke; fill: none; stroke: rgb(255, 165, 0); stroke-opacity: 1; stroke-width: 2px; opacity: 1;"/><path class="js-line" d="M22.16,303.59L22.24,303.85" style="vector-effect: non-scaling-stroke; fill: none; stroke: rgb(255, 165, 0); stroke-opacity: 1; stroke-width: 2px; opacity: 1;"/><path class="js-line" d="M35.83,303.4L36.29,300.67L36.66,302.02L36.74,302.07L39.89,301.33L39.97,301.26L40.27,302.48L40.79,302.3L40.87,302.13L40.94,296.42L41.62,301.64L41.69,301.66L42.52,303.02L42.6,302.25L43.12,301.91L43.2,301.68L43.42,301.22L44.1,302.16L44.17,302.26L45.53,301.59L45.6,302.01L46.13,301.33L46.28,301.73L46.35,298.11L46.65,301.15L46.73,294.58L46.8,189.74L47.63,300.2L47.7,300.23L48.98,300.43L49.06,299.51L49.13,299.24L49.36,300.77L49.58,300.31L49.66,300.3L51.99,300.26L52.06,299.76L53.56,300.25L53.64,300.27L54.92,300.32L54.99,300.58L55.07,300.98L55.89,301.09L55.97,300.94L56.04,300.94L57.77,301.15L57.85,300.97L58,300.6L58.6,300.94L58.67,301.16L58.75,301.9L59.42,301.67L59.5,301.67L59.65,301.61L59.72,300.18L60.78,300.63L60.85,296.44L61.53,301.63L61.68,301.6L61.75,301.58L62.88,300.09L63.03,300.24L63.11,296.68L63.93,300.99L64.01,300.91L64.23,300.75L64.31,270.91L64.38,265.19L64.68,299.68L64.76,299.88L64.98,295.44L65.51,299.44L65.58,299.46L66.34,299.75L66.41,299.72L66.49,299.71L66.56,294.92L67.24,298.72L67.31,299.15L67.61,299.44L67.84,299.28L67.91,298.28L67.99,291.19L68.59,298.61L68.66,298.58L68.96,298.86L69.27,298.57L69.34,298.72L69.42,298.71L69.87,299.41L69.94,232.64L70.69,299.62L70.77,299.51L70.84,299.55L71.14,299.38L71.52,299.5L71.59,299.46L71.67,299.58L73.1,299.78L73.17,299.88L73.77,299.64L73.85,294.37L74,299.49L74.15,299.19L74.22,257.17L74.9,299.58L75.05,299.29L75.13,299.19L76.4,299.67L76.48,299.31L76.63,299.04L76.7,267.42L77.23,298.15L77.53,297.5L77.6,297.77L77.9,298L77.98,267.13L78.36,297.01L78.81,296.94L78.88,296.95L79.26,293L79.63,296.91L79.71,297L79.93,294.35L80.23,297.2L80.31,297.26L81.21,297.66L81.29,291.47L82.11,298.39L82.19,298.4L82.41,298L82.94,298.31L83.01,298.39L85.57,299.35L85.64,299.5L86.17,299.8L86.24,298.51L87.15,299.61L87.22,299.6L87.3,300.5L87.52,299.56L87.97,299.59L88.05,299.61L90.98,299.56" style="vector-effect: non-scaling-stroke; fill: none; stroke: rgb(255, 165, 0); stroke-opacity: 1; stroke-width: 2px; opacity: 1;"/><path class="js-line" d="M91.13,299.59L93.76,299.14L93.83,299.37L93.98,298.97L94.43,299.78L94.51,299.77L95.78,299.51L95.86,299.6L97.21,299.04L97.29,299.37L97.36,299.16L97.51,300.35L97.81,300L97.89,300.15L98.79,300.17L98.86,300.27L99.02,300.53L99.32,299.73L99.39,299.58L100.29,300.25L100.37,300.36L101.72,299.81L101.79,300.12L102.47,299.86L102.62,299.97L102.7,299.78L103.9,300.58L103.97,300.46L108.56,301.4L108.63,301.43L109.83,301.09L109.91,301.13L111.86,301.24L111.94,301.27L116.07,301.27L116.14,295.87L116.22,282.72L116.74,301.15L116.82,301.15L116.89,301.15L116.97,300.81L117.65,301.06L117.72,301.06L118.85,301.75L119,301.35L119.07,300.58L119.6,301.44L119.67,296.08L120.13,302.09L120.5,302.05L120.58,301.99L120.88,301.94L120.95,300.72L121.18,301.21L121.25,297.89L121.4,271.25L121.93,301.11L122,301.15L123.51,301.61L123.58,301.31L124.86,301.66L124.93,301.3L125.01,301.19L125.31,301.44L125.38,299.54L125.46,272.34L126.06,300.83L126.14,300.8L126.89,300.94L126.96,300.78L127.04,300.34L127.19,284.04L127.79,299.35L127.86,299.43L128.91,300.2L128.99,300.23L130.42,300.61L130.49,301.68L130.57,296.4L131.24,298.99L131.32,299.05L132.45,299.38L132.52,299.38L132.82,299.4L132.9,298.29L133.12,300.55L133.35,296.53L133.42,296.68" style="vector-effect: non-scaling-stroke; fill: none; stroke: rgb(255, 165, 0); stroke-opacity: 1; stroke-width: 2px; opacity: 1;"/><path class="js-line" d="M141.46,302.99L141.99,300.87L142.06,302.55L142.66,303.23L142.96,303.11L143.04,303.01L144.02,303.02L144.09,299.82L144.99,302.75L145.07,302.73L145.14,302.72L146.19,302.38L146.27,301.22L146.49,301.72L146.64,300.87L146.72,268.46L147.47,300.7L147.55,300.7L153.63,301.01L153.71,301.06L157.39,300.8L157.46,300.85L159.12,300.6L159.19,295.3L159.27,276.87L159.79,300.39L159.87,300.39L159.94,300.37L160.09,297.04L160.62,300.48L160.69,300.49L174.37,300.96L174.44,300.96L175.49,300.89" style="vector-effect: non-scaling-stroke; fill: none; stroke: rgb(255, 165, 0); stroke-opacity: 1; stroke-width: 2px; opacity: 1;"/><path class="js-line" d="M176.17,300.97L177.6,300.95L177.67,300.98L180.38,301.01L180.45,301.02L183.61,300.94L183.68,301.03L186.16,301.08L186.24,301.07L189.39,300.96L189.47,300.88L189.54,245.75L190.22,282.38L190.29,299.8L190.37,300.4L190.44,295.22L191.04,300.52L191.27,300.34L191.34,299.94L191.87,299.97L191.94,295.27L192.77,300.38L192.85,300.38L193.52,301.03L193.6,301.48L194.87,301.76L194.95,301.69L197.28,302.91L197.35,302.29L197.43,301.07L198.03,302.56L198.11,302.6L199.31,302.89L199.38,302.9L202.31,303.12L202.39,303.04L202.54,303.01L202.61,297.94L202.76,297.43L203.66,301L203.74,301.04L205.62,302.12L205.69,302.2L206.74,302.79L206.82,302.8L206.97,291.88L207.57,301.01L207.65,301.01L207.87,301.06L207.95,290.01L208.77,300.97L208.85,301.04L209.45,301.66L209.52,301.19L209.6,299.83L209.67,295.2L210.28,300.83L210.35,300.82L213.13,300.74L213.21,300.71L213.96,300.51L214.03,299.56L214.41,300.77L214.48,294.37L214.56,265.3L215.08,300.39L215.16,300.35L215.23,300.4L215.83,300.38L215.91,299.43L216.14,300.43L216.74,300.25L216.81,300.25L221.32,300.64L221.39,300.67L221.47,300.4L222.15,300.65L222.22,300.63L223.72,300.54" style="vector-effect: non-scaling-stroke; fill: none; stroke: rgb(255, 165, 0); stroke-opacity: 1; stroke-width: 2px; opacity: 1;"/><path class="js-line" d="M223.95,300.56L225.53,300.93L225.6,300.89L229.13,301.04L229.21,296.24L229.28,296.68L229.36,293.98L229.43,300.17L230.26,300.61L230.33,300.61L234.77,300.75L234.84,300.77L238.3,300.74L238.37,299.92L239.05,300.69" style="vector-effect: non-scaling-stroke; fill: none; stroke: rgb(255, 165, 0); stroke-opacity: 1; stroke-width: 2px; opacity: 1;"/><path class="js-line" d="M239.27,300.52L239.65,300.29" style="vector-effect: non-scaling-stroke; fill: none; stroke: rgb(255, 165, 0); stroke-opacity: 1; stroke-width: 2px; opacity: 1;"/><path class="js-line" d="M239.8,300.03L240.03,300.13L240.1,299.81L240.18,299.36L241.45,300.31L241.53,300.3L243.78,300.3L243.86,298.85L243.93,275.92L244.46,300.19L244.53,299.82L244.61,299.75L245.43,300.3L245.51,300.33L246.56,300.53L246.64,300.45L247.69,300.43L247.76,300.43L251.37,300.51L251.44,297.85L251.89,300.53L252.27,300.48L252.35,300.5L254.07,300.38L254.15,266.06L254.97,300.19L255.05,300.23L255.73,300.54L255.8,300.25L255.88,115.51L256.7,300.45L256.78,300.45L267.3,300.81L267.37,177.29L268.2,300.11L268.27,300.15L270.9,300.4L270.98,299.51L271.2,300.22L271.58,299.91L271.65,296.67L272.03,300.25L272.48,300.17L272.55,300.25L273.83,300.49L273.91,275.81L274.66,300.27L274.73,300.26L274.81,300.26L280.29,300.26L280.37,302.31L284.72,302.48L284.8,302.49L285.03,302.51L285.1,116.27L285.93,298.14L286,294.52L287.05,297.89L287.13,297.88L290.21,298.83L290.28,298.85L295.17,299.75L295.24,299.76L295.99,299.91L296.07,301.69L296.22,302.97L296.82,302.26L296.89,302.26L298.7,302.2L298.77,302.41L299.82,302.7L299.9,302.76L300.13,302.27L300.65,302.75L300.73,302.76L305.91,302.46L305.98,302.73L310.87,302.74L310.94,300.12L311.54,302.74L311.77,302.48L311.84,302.68L311.99,299.15L312.52,302.53L312.6,302.57L317.33,302.81L317.4,302.81L321.69,302.76L321.76,276.19L321.84,226.34L322.44,301.73L322.51,301.74L325.82,301.92L325.89,288.26L325.97,287.7L326.04,300.53L326.87,302.17L326.94,302.19L327.17,298.44L327.7,301.99L327.77,301.99L328.82,302L328.9,296.3L329.72,301.17L329.8,301.18L330.55,301.31L330.63,302.35L331.3,302.45L331.38,296.96L332.2,302.16L332.28,302.19L332.88,302.38L332.95,301.4L340.99,301.97L341.07,301.15L341.22,300.99L341.37,302L341.44,302.37L344.22,302.69L344.3,302.69L351.29,302.37L351.36,301.19L352.34,302.17L352.41,302.22L353.76,302.46L353.84,302.48L358.42,302.76L358.5,295.93L359.32,302.64L359.4,302.63L360.38,302.63L360.45,297.65L361.28,302.1L361.35,302.11L363.01,302.19" style="vector-effect: non-scaling-stroke; fill: none; stroke: rgb(255, 165, 0); stroke-opacity: 1; stroke-width: 2px; opacity: 1;"/><path class="js-line" d="M382.24,303.44L384.19,303.43L384.27,302.18L384.34,299.32L385.02,301.42L385.09,301.52L387.27,303.35L387.35,303.35L394.78,303.27L394.86,302.05L395.76,303.54L395.83,303.54L399.22,303.54L399.29,302.74L400.12,303.33L400.19,303.34L406.28,303.19L406.35,302.91L406.43,297.22L407.03,302.9L407.1,302.92L413.41,303.83L413.49,303.83L420.7,303.74L420.78,302.6L420.85,300.98L421.45,303.71L421.53,303.73L423.78,303.33L423.86,300.64L424.83,303.6L424.91,303.61L428.66,303.36L428.74,302.3L428.81,288.76L429.42,303.39L429.49,303.42L430.02,303.48L430.09,289.45L430.92,303.35L430.99,303.37L431.29,303.52L431.37,302.77L431.44,296.63L432.27,303.38L432.35,303.39L432.95,303.27L433.02,288.89L433.85,303.45L433.92,303.45L456.76,303.52L456.84,287.79L457.66,303.38L457.74,303.38L460.29,303.37L460.37,302.51L460.44,300.88L460.67,303.37L461.04,303.34L461.12,303.45L461.64,303.51L461.72,259.09L462.55,303.52L462.62,303.51L463.67,303.35L463.75,297.39L464.65,303.03L464.72,303.06L464.87,301.26L465.4,302.81L465.48,303.02L465.78,303.13L465.85,301.87L465.93,300.42L466.53,303.1L466.6,303.11L471.04,303.25L471.11,303.23L475.62,303.24L475.69,299.75L475.77,285L475.84,302.45L476.37,301.82L476.44,301.83L476.67,301.9L476.74,300.29L476.89,302.51L476.97,282.15L477.87,301.99L477.95,302.04L478.02,302.44L478.1,298.43L478.92,301.64L479,301.69L480.05,302.57L480.13,302.58L487.86,303.19L487.94,303.36L488.76,303.46L488.84,303.46L491.84,302.73L491.92,302.6L500.78,303.45L500.86,303.45L503.71,303.24L503.79,301.05L504.54,303.35L504.62,303.37L506.87,303.52L506.94,294.62L507.02,288.33L507.55,303.4L507.62,303.4L510.48,303.43L510.55,283.23L510.7,259.01L511.15,301.96L511.23,302L514.61,302.57L514.68,281.59L515.51,301.55L515.58,301.54L517.16,301.87L517.24,296.71L517.31,295.22L517.39,207.37L518.21,298.74L518.29,298.84L518.66,300.58L518.74,301.26L518.81,300.42L519.49,301.25L519.57,301.26L522.2,301.77L522.27,301.77L527.08,301.99L527.15,300.7L527.98,301.74L528.06,301.1L528.96,301.72L529.03,301.73L529.93,303.37L530.01,303.35L530.08,303.32L532.71,303.2L532.79,302.99L540,303.52" style="vector-effect: non-scaling-stroke; fill: none; stroke: rgb(255, 165, 0); stroke-opacity: 1; stroke-width: 2px; opacity: 1;"/></g><g class="points"/><g class="text"/></g><g class="trace scatter trace330d11" style="stroke-miterlimit: 2; opacity: 1;"><g class="fills"/><g class="errorbars"/><g class="lines"><path class="js-line" d="M0,299.48L1.95,300.24L2.03,299.64L2.4,299.22L2.7,299.83L2.78,279.76L3.08,299.48L3.61,299.27L3.68,299.18L3.76,298.92L4.21,299.76L4.28,299.8L5.86,299.75L5.93,299.13L6.84,299.89L6.91,299.92L7.21,300.06L7.29,282.27L7.96,300.98L8.04,300.81L8.11,298.07L8.19,293.31L8.34,302.32L8.79,299.16L8.86,298.91L8.94,298.58L9.02,300.01L9.09,301.81L9.62,296.79L9.69,265.08L10.22,300.89L10.59,299.09L10.67,298.46L10.89,298.14L11.27,298.78L11.34,298.93L11.42,300.4L11.72,297.19L11.79,231.83L12.25,299.29L12.62,296.84L12.7,296.36L13,295.61L13.45,296.3L13.52,296.34L13.97,296.61L14.05,299.19L15.48,295.1L15.55,295.44L16.23,295.15L16.45,295.4L16.53,295.5L18.11,296.63L18.18,296.65L18.48,296.13L18.63,296.74L18.71,296.92L19.31,296.42L19.46,296.58L19.53,296.57L19.91,296.67L19.98,287.96L20.28,299.98L20.73,296.86L20.81,296.73L22.01,298.22L22.09,298.06L22.16,263.62L22.39,292.69L22.69,246.06L23.06,289.58L23.14,291.19L23.21,291.74L23.59,290.58L23.89,291.38L23.96,291.59L24.34,292.17L24.42,291.76L24.49,291.33L24.64,292.22L24.72,291.19L24.79,278.87L25.32,291.13L25.62,288.1L25.69,287.8L26.52,288.03L26.59,288.16L26.67,288.38L26.74,288.29L26.82,283.27L26.89,288.09L27.12,279.51L27.57,286.37L27.65,286.55L30.95,294.29L31.03,292.94L31.78,296.31L31.85,291.62L32.23,289.39L32.68,298.41L32.75,289.1L32.9,283.31L33.28,302L33.66,299.08L33.73,297.4L34.71,294.63L34.78,296.28L35.01,295.43L35.61,298.4L35.68,292.98L36.21,299.07L36.29,297.59L36.36,191.44L36.81,300.87L37.19,299.86L37.26,300.28L37.34,298.76L38.01,298.9L38.09,299.3L38.46,299.75L38.61,298.89L38.99,299.29L39.07,296.38L39.29,298.89L39.52,294.42L39.74,297.6L39.82,285.75L40.12,299.31L40.64,297.9L40.72,297.92L40.94,298.08L41.02,272.35L41.39,299.81L41.84,298.25L41.92,298.18L42.52,298.57L42.9,297.26L42.97,298.44L43.87,296.23L43.95,296.23L44.85,297L44.92,297L45.9,297.34L45.98,295.6L46.05,296.69L46.35,292.9L46.43,280.9L46.5,293.75L46.73,290.16L46.8,177.59L47.7,280.25L47.78,280.69L49.06,290.89L49.13,286.76L49.21,294.45L49.88,288.76L49.96,288.46L50.71,285.6L51.01,285.8L51.09,286.59L52.06,281.59L52.14,251.31L52.44,285.59L52.96,284.3L53.04,283.77L53.49,280.77L53.94,286.19L54.02,285.71L54.17,284.74L54.24,286.6L54.32,283.16L55.14,288.65L55.22,288.85L55.97,290.44L56.04,286.88L56.94,293.8L57.02,294.84L58.15,300.17L58.22,300.16L58.3,300.15L59.72,299.75L59.8,287.56L59.95,299.94L60.55,299.65L60.63,299.67L61.38,293.3L61.45,296.38L62.28,300.05L62.35,300.12L62.5,298L62.8,300.09L62.88,272.33L63.71,300.79L63.78,300.53L64.23,297.06L64.31,290.22L64.38,261.68L64.91,298.83L64.98,298.26L65.06,293.76L65.13,289.09L65.36,297.83L65.73,294.83L65.81,294.84L66.04,293.08L66.11,291.21L66.64,247.76L67.09,269.52L67.16,265.04L67.99,203.08L68.06,212.76L68.74,255.83L68.89,255.49L68.96,255.17L69.12,254.31L69.49,257.08L69.57,258.19L71.37,281.59L71.44,281.51L71.52,281.7L72.2,281.87L72.35,281.72L72.42,281.59L73.47,281.11L73.55,277.21L74.15,280.85L74.22,242.7L74.3,132.69L74.97,271.77L75.05,271.72L75.13,271.89L75.35,272.63L75.43,273.58L76.63,286.21L76.7,259.26L77,231.37L77.38,283.06L77.45,233.69L77.83,278.17L77.98,276.62L78.06,126.57L78.88,268.03L78.96,265.49L79.18,268.46L79.33,232.3L79.63,259.44L79.71,260.35L79.78,260.49L79.86,249.3L79.93,207.37L80.53,260.64L80.61,263.05L81.81,279.24L81.89,279.22L82.26,277.77L82.34,275.01L82.41,273.85L82.49,275.86L83.01,275.79L83.09,275.84L83.84,277.22L83.91,277.48L84.14,276.55L84.29,277.93L84.44,277.59L84.52,272.73L84.67,278.89L85.34,278.51L85.42,278.27L85.57,292.77L86.24,286.93L86.32,237.82L86.47,291.24L87.07,286.4L87.15,286.42L87.6,287.51L87.67,286.99L87.75,286.52L87.97,290.85L88.05,296.11L88.57,294.12L88.72,298L88.8,295.73L89.4,299.07L89.47,295.12L90.3,300.1L90.38,300.14L91.43,300.5L91.5,299.19L92.4,300.26L92.48,299.29L92.55,299.11L92.63,296.72L92.93,295.55L93.46,299.57L93.53,299.61L95.03,300.38L95.11,299.72L95.41,299.87L95.78,292.87L95.93,297.29L96.01,297.64L96.16,297.96L96.46,297.17L96.69,297.3L96.76,297.44L98.86,299.85L98.94,299.84L100.29,299.49L100.37,297.92L101.19,295.64L101.27,295.59L101.57,295.49L101.72,295.92L101.79,296.21L103.22,299.31L103.3,299.33L104.05,299.09L104.12,298.76L105.48,299.26L105.55,298.67L106.08,299.16L106.15,298.09L106.23,298.1L106.3,297.84L106.53,298.99L106.68,298.98L106.75,299.35L107.73,297.64L107.8,293.01L108.11,299.25L108.63,298.87L108.71,298.94L109.76,299.5L109.83,298.15L110.88,299.94L110.96,299.19L111.64,300.26L111.71,299.45L111.79,296.15L112.61,300.24L112.69,300.23L113.29,300.2L113.36,296.94L113.51,294.64L114.04,300.21L114.12,297.76L114.19,299.07L114.64,300.13L114.79,296.75L114.87,298.66L114.94,299.69L115.77,300.45L115.92,300.27L115.99,300.26L116.14,300.22L116.22,289.69L116.29,281.39L116.89,298.94L116.97,299.71L117.12,296.57L117.2,302.75L117.57,301.63L117.65,303.22L118.47,297.91L118.55,298.07L118.62,298.12L118.77,298.39L118.92,297.28L119,292.09L119.15,288.76L119.22,296.66L119.37,287.54L119.67,299.53L119.75,291.86L119.9,300.03L120.5,296.13L120.58,295.93L120.95,296.44L121.03,298.54L121.1,298.82L121.18,297.51L121.25,290.49L121.4,253.11L121.93,293.49L122,293.32L122.15,293.16L122.3,293.64L122.38,294.15L122.83,296.03L123.13,294.42L123.21,294.13L123.51,293.63L123.88,294.21L123.96,294.28L125.38,294.76L125.46,222.04L125.98,287.31L126.29,286.68L126.36,286.63L126.89,288.73L126.96,287.35L127.04,287.05L127.11,269.88L127.19,265.69L127.49,287.09L127.56,288.16L127.71,290.74L128.16,284.96L128.24,284.7L129.07,287.07L129.14,287.18L129.22,287.35L129.82,286.93L129.89,286.76L130.19,285.66L130.34,286.97L130.42,288.61L130.57,287.25L130.72,289.21L131.17,288.05L131.24,288.05L131.84,287.57L131.92,286.8L132.15,285.28L132.45,288.45L132.52,290.28L132.82,294.52L133.42,294.2L133.5,294.29L133.72,294.48L133.8,293.93L133.87,292.97L133.95,292.04L134.4,295.18L134.47,295.26L135.15,295.25L135.23,295.12L135.3,294.92L136.2,291.22L136.5,292.27L136.58,295.46L136.8,297.86L137.4,296.78L137.48,296.71L137.93,296.32L138.01,295.49L138.08,294.43L138.53,298.24L138.61,298.37L138.83,298.35L138.91,296.59L139.73,298.63L139.81,298.62L141.39,298.85L141.46,296.54L141.99,293.81L142.29,299.35L142.36,299.36L143.41,299.8L143.49,299.81L144.02,300.05L144.09,296.81L144.17,294.03L144.47,300.08L144.69,300.07L144.77,300.09L144.92,292.64L145.07,300.61L145.52,299.99L145.59,299.91L146.19,300.41L146.27,294.66L146.64,300.51L147.1,299.97L147.17,299.78L148.3,300.36L148.37,300.32L148.9,300.52L148.97,299.47L149.05,299.17L149.42,300.13L149.5,300.15L149.57,300.18L150.4,300.05L150.48,298.92L150.78,300.04L151.15,298.67L151.3,299.75L151.38,299.78L152.35,298.77L152.43,298.77L153.86,298.88L153.93,298.83L154.01,299.05L154.46,298.3L154.53,298.25L155.88,296.8L155.96,296.23L156.19,297.38L156.71,296.27L156.79,296.24L158.51,298.41L158.59,298.49L158.96,298.81L159.04,298.67L159.12,301.66L159.19,297.76L159.27,163.07L159.94,288.8L160.09,282.15L160.17,275.05L160.62,291.24L160.99,290.53L161.07,290.74L161.29,291.4L161.44,290.59L161.52,292.43L161.59,287.42L162.27,288.4L162.35,288.4L162.95,289.19L163.17,289.12L163.25,289.2L164.15,288.75L164.22,285.17L164.97,287.98L165.05,287.87L165.13,288.09L166.93,292.23L167.15,292.04L167.23,293.27L168.66,296.24L168.73,295.91L168.81,295.03L169.11,297.19L169.18,290.26L169.33,298.83L169.86,297.62L169.93,290.15L170.68,299.41L170.76,299.35L170.83,299.32L171.21,298.49L171.29,299.33L171.36,299.84L171.59,300.04L171.66,297.76L172.19,300.23L172.49,299.79L172.56,299.99L172.71,300.26L172.79,299.56L173.01,299.91L173.09,298.33L173.16,292.89L173.31,300.56L173.76,299.62L173.84,299.95L173.99,300.03L174.07,298.05L174.14,294.88L174.52,300.03L174.74,300.01L174.82,300.03L174.89,299.24L175.49,300.05L175.57,300.14L176.62,300.5L176.69,299.92L176.77,299.79L176.92,300.23L177.3,300.33L177.37,300.35L178.2,300.47L178.27,300.51L178.72,300.63L178.8,299.82L178.87,300.11L179.02,298.73L179.4,299.14L179.47,298.89L179.85,298.29L180,298.51L180.08,299.41L180.3,298.61L180.38,295.35L180.45,298.91L181.13,296.32L181.2,296.42L182.25,299.52L182.33,299.13L182.4,296.53L182.55,299.68L183.16,298.18L183.23,298.18L183.46,297.77L184.58,299.07L184.66,299.1L186.39,299.28L186.46,299.25L186.54,299.46L186.69,298.98L187.06,298.88L187.14,298.77L187.36,299.37L187.66,298.01L187.74,298.05L187.81,298.02L188.11,292.98L188.41,298.55L188.49,298.15L188.56,298.05L189.39,298.82L189.47,298.58L189.54,272.07L189.62,155.74L189.99,297.41L190.22,292.99L190.29,280.29L190.44,293.63L190.74,268.24L191.12,291.74L191.19,293L191.34,270.06L191.87,291.54L191.94,290.48L192.02,285.66L192.25,291.45L192.7,288.4L192.77,288.29L194.2,291.91L194.27,291.88L194.35,287.93L194.95,293.15L195.03,293.41L196.3,296.95L196.38,297.03L197.35,298.22L197.43,296.44L198.26,299.06L198.33,298.97L199.46,299.95L199.53,297.75L199.68,299.82L199.76,293.35L200.36,299.58L200.43,299.54L200.81,300.1L200.88,297.82L201.34,300.13L201.79,299.44L201.86,299.72L202.09,298.14L202.31,299.4L202.39,299.48L202.61,300.23L202.69,258.24L202.91,280.19L202.99,287.45L203.89,297.99L203.96,297.98L204.04,297.92L204.57,297.25L204.72,297.48L204.79,300.46L205.47,297.07L205.62,297.82L205.69,297.57L206.29,295.64L206.52,296.14L206.59,295.79L206.74,295.96L206.89,294.69L206.97,273.35L207.2,283.27L207.8,278.07L207.87,278.38L207.95,226.7L208.62,277.03L208.7,273.75L208.77,275.75L209,271.12L209.45,274.21L209.52,271.64L209.67,232.13L210.2,267.96L210.28,269.71L211.18,281.3L211.25,280.73L211.33,281L211.55,281.42L211.85,279.7L211.93,280.37L212,279.51L212.08,280.2L212.3,278.97L212.68,279.36L212.75,279.22L212.83,280.07L213.28,278.27L213.36,277.44L213.51,276.03L213.81,278.76L213.88,287.38L214.03,259.18L214.48,283.87L214.56,60.18L215.38,258.2L215.46,260.55L215.91,251.35L215.98,239.41L216.21,244.33L216.29,228.24L216.36,228.06L217.26,279.84L217.64,278.76L217.71,278.7L218.24,278.16L218.31,280.47L218.99,274.47L219.14,276.41L219.22,279.59L219.52,278.39L219.89,279.72L219.97,278.95L220.04,279.16L220.49,275.02L220.87,277.26L220.94,284.28L221.47,286.74L221.54,280.39L221.69,290L222.3,288.6L222.37,288.17L222.52,285.84L222.67,288.32L222.75,288.51L222.82,288.66L223.12,287.91L223.2,288.32L223.27,285.84L223.72,289.14L223.8,288.98L223.87,275.5L224.02,291.95L224.7,291.24L224.77,291.68L225.08,289.91L225.15,292.89L225.23,294.44L226.13,299.85L226.2,299.79L226.28,299.86L226.43,299.81L226.5,297.99L226.8,297.44L227.33,299.98L227.4,300.02L227.7,300.15L227.78,299.01L228.68,300.52L228.76,300.24L228.83,299.97L229.21,300.06L229.28,263.07L229.81,298.82L230.26,298.71L230.33,298.64L230.56,298.34L230.86,299.03L230.93,299.64L231.31,300.48L231.76,300.01L231.84,299.81L232.44,298.61L232.74,298.85L232.81,298.97L232.89,299.42L233.34,298.55L233.41,297.28L233.56,299.21L234.02,295.68L234.09,295.43L234.32,286.93L234.84,291.11L234.92,290.24L235.07,289.77L235.14,291.62L235.22,285.48L236.12,296.93L236.19,296.85L237.25,294.81L237.32,295.89L238.22,290.78L238.3,292.17L238.37,280.08L238.45,279.23L238.52,287.5L238.82,291.16L239.35,274.23L239.42,287.5L239.57,287.6L239.72,264.94L239.8,287.46L240.18,296.71L240.55,290.96L240.63,289.39L240.78,279.46L241.3,287.1L241.38,286.23L242.35,288.98L242.43,288.69L242.5,288.81L243.26,287.72L243.33,287.36L243.86,285.05L243.93,142.19L244.83,287.85L244.91,287.98L245.21,285.93L245.73,286.3L245.81,286.59L246.19,283.77L246.56,286L246.64,285.86L246.71,274.6L247.01,285.97L247.31,285.79L247.39,285.99L248.06,287.97L248.14,286.37L249.12,292.08L249.19,292.14L249.34,291.31L250.47,296.62L250.54,296.63L250.77,293.96L251.44,299.83L251.52,288.47L251.67,299.69L252.35,299.23L252.42,299.26L253.32,299.79L253.4,298.09L253.47,294.82L254.07,299.82L254.15,299.94L254.22,232.32L254.67,300.25L254.9,299.08L254.97,298.38L255.13,298.27L255.2,298.38L255.28,299.2L255.8,300.06L255.88,194.47L256.4,294.21L256.7,293.91L256.78,294.36L257.53,297.73L257.6,295.69L257.68,295.14L257.9,294.04L258.13,295.27L258.43,294.66L258.51,295.17L260.23,295.85L260.31,295.64L260.38,295.07L261.36,297L261.44,296.41L262.11,297.41L262.19,297.13L262.26,296.83L262.34,296.63L262.71,297.52L262.79,297.73L263.46,296.8L263.61,297.04L263.69,296.99L264.14,297.37L264.22,300.17L265.34,296.11L265.57,296.78L265.64,296.72L265.87,296.33L266.47,297.23L266.54,296.77L266.62,296.51L266.69,296.69L266.77,299.2L267.37,295.75L267.45,33.73L267.67,16L268.05,289.5L268.27,287.44L268.35,286.55L268.57,283.29L269.17,284.27L269.25,284.51L270.3,283.48L270.38,283.95L270.45,284.11L270.53,283.21L270.6,275.16L270.75,281.6L271.05,269.69L271.28,279.62L271.35,273.7L271.65,257.38L271.95,281.52L272.18,279.21L272.25,280.48L272.78,282.43L272.85,282.98L273.38,284.34L273.46,274.18L273.53,285.38L273.98,254.82L274.13,285.37L274.21,268.23L275.03,285.9L275.11,287.17L275.93,290.94L276.01,288.7L276.91,296.24L276.99,295.91L277.06,296.2L277.36,295.31L277.59,297.45L277.66,297.95L277.89,298.76L277.96,292.57L278.64,299.74L278.79,299.41L278.86,299.6L279.62,300.05L279.69,300.02L279.77,300.02L281.12,299.55L281.19,299.54L282.1,300.01L282.17,298.01L282.92,300.56L283,300.47L283.07,300.28L283.6,300.92L283.97,300.61L284.05,300.81L284.27,300.98L284.42,298.23L284.57,299.81L284.65,286.72L284.95,299.82L285.1,296.3L285.18,191.37L285.78,295.79L286.15,289.78L286.23,295.44L286.98,297.55L287.05,297.47L287.13,297.12L287.73,295L288.18,295.45L288.26,295.78L288.48,295.96L288.78,295.21L289.08,295.67L289.16,295.8L290.58,296.56L290.66,296.54L290.88,296.31L291.26,297.08L291.56,296.87L291.64,296.72L292.46,295.93L292.54,295.88L293.51,296.08L293.59,296.13L293.74,296.06L293.89,296.73L293.96,295.86L294.49,296.16L294.57,296.4L295.32,295.56L295.39,295.81L295.47,296.23L295.69,281.18L295.77,293.87L296.44,288.21L296.59,288.74L296.67,275.24L296.74,274.04L296.82,283.76L296.89,287.1L297.05,289.61L297.12,282.69L297.2,289.16L297.27,281.5L297.65,292.03L298.1,290.12L298.17,290.12L298.47,289.77L298.55,291.67L298.62,281.51L298.85,293.14L299.37,289.76L299.45,289.35L300.13,286.45L300.28,288.23L300.35,287.95L301.1,286.19L301.18,279.47L301.25,285.34L301.93,284.95L302,284.77L303.21,287.93L303.28,283.33L304.11,289.44L304.18,289.25L305.76,292.25L305.83,292.63L305.98,289.3L306.36,295.66L306.44,294.87L306.51,294.71L306.66,294.62L306.74,295.02L306.81,295.43L306.89,298.47L307.56,296.42L307.64,297.07L307.79,296.95L308.54,299.73L308.61,299.78L309.74,300.06L309.82,299.66L309.89,299.36L309.97,299.81L310.04,287.24L310.19,301.55L310.79,300.83L310.87,299.42L311.39,299.68L311.69,285.28L311.77,295.83L311.92,298.58L312.07,282.61L312.37,298.08L312.45,282.26L312.82,301.85L313.27,300.6L313.35,300.39L313.72,298.63L313.8,297.53L314.32,296.98L314.4,297.2L314.47,299.24L315.15,296.89L315.3,296.92L315.38,296.79L317.78,296.88L317.85,297.3L318.38,296.67L318.46,297.98L318.53,299.47L318.98,295.77L319.06,296.18L319.13,296.14L319.43,296.72L319.51,296.56L319.58,295.61L321.01,297.3L321.09,295.11L321.16,297.64L321.46,289.64L321.54,280.52L321.61,292.37L321.76,268.77L321.84,18.84L322.66,280.42L322.74,282.3L322.96,282.11L323.86,289.03L323.94,289.1L324.69,290.98L324.92,290.38L324.99,290.43L325.37,290.68L325.59,290.37L325.67,288.47L325.89,278.05L325.97,213.16L326.72,287.16L326.79,286.67L326.87,285.99L327.1,283.95L327.17,234.34L327.92,285.29L328,284.69L328.07,283.33L328.37,281.33L328.6,282.49L328.67,282.51L328.9,281.13L328.97,276.62L329.35,284.35L329.8,282.76L329.87,282.2L330.33,281.18L330.63,281.75L330.7,281.76L331.3,283.72L331.38,283.24L331.45,259L331.6,287.04L332.2,284.31L332.28,286.42L332.73,284.51L333.18,290.34L333.26,290.74L333.41,290.72L333.48,289.32L334.38,294.01L334.46,293.62L334.91,293.44L335.43,297.21L335.51,297.41L335.73,297.93L335.81,290.78L336.64,299.45L336.71,299.59L337.16,299.6L337.24,300.15L337.39,299.79L337.76,300.2L337.84,294.23L338.66,300.4L338.74,300.52L339.64,300.34L339.72,299.9L340.69,300.52L340.77,300.38L340.92,300.54L340.99,300.38L341.07,250.65L341.22,177.89L341.44,286.76L341.52,290.85L341.89,299.48L342.35,297.56L342.42,297.41L343.55,297.95L343.62,298.37L344.37,296.43L344.45,296.73L344.52,296.19L344.75,297.01L344.82,296.04L344.9,295.55L344.97,296.38L345.35,295.35L345.58,295.6L345.65,295.25L346.1,294.68L346.4,296.38L346.48,295.75L346.78,294.04L347.15,295.27L347.23,295.8L348.28,297.96L348.36,297.82L350.31,299.91L350.38,299.65L350.46,299.52L351.21,297.11L351.36,298.52L351.44,284.96L351.74,296.57L352.26,296.17L352.34,296.36L352.64,297.48L352.71,296.72L352.79,294.65L353.69,299.07L353.76,299.04L354.37,299.57L354.44,299L354.52,298.64L354.97,299.94L355.34,299.71L355.42,297.54L355.79,297.04L356.24,299.2L356.32,299.1L356.39,299.09L356.84,297.86L356.92,297.53L357.07,295.51L357.3,299.12L357.37,299.3L357.52,299.44L357.6,295.32L358.12,299.4L358.42,299.24L358.5,299.3L358.57,287.28L359.17,299.93L359.25,300.02L359.85,300.39L359.92,299.57L360.08,300.32L360.15,297.77L360.45,299.84L360.53,295.01L361.28,300.72L361.35,300.71L361.43,300.51L361.95,300.25L362.03,287.24L362.85,299.99L362.93,299.95L363.68,300.1L363.76,296.33L364.28,299.73L364.43,294.27L364.58,299.68L364.66,299.09L364.81,271.37L365.18,299.57L365.41,298.14L365.48,299.09L365.86,297.67L366.16,298.9L366.24,299.26L367.44,300.13L367.51,295.36L367.59,293.32L367.89,300.42L368.04,300.19L368.11,299.57L368.26,300.08L368.34,296.43L368.94,300.05L369.09,299.88L369.17,295.83L369.39,282.34L369.47,125.62L370.22,293.58L370.29,293.08L370.37,292.32L370.52,290.6L370.59,271.87L370.67,262.81L371.19,279.32L371.27,279.82L371.34,279.54L371.64,280.89L371.72,281.32L373.15,290.34L373.22,289.89L373.3,286.67L373.37,291.55L374.05,290.47L374.12,290.54L374.2,291.37L374.35,289.94L374.42,290.33L374.5,274.74L374.57,290.58L375.25,288.98L375.33,289.24L375.93,285.58L376,286.73L376.08,287.22L376.98,285.33L377.13,286.11L377.2,286.17L377.43,286.01L377.73,286.99L377.8,280.7L377.95,247.6L378.48,282.11L378.56,282.27L378.86,281.02L379.46,283.6L379.53,283.42L380.21,286.79L380.51,285.56L380.58,285.27L380.81,292.65L381.41,290.45L381.49,289.62L381.79,288.11L381.86,290.88L382.01,291.34L382.24,290.79L382.31,287.53L383.14,291.75L383.21,285.5L383.74,292.84L383.81,282.83L384.04,291.1L384.12,291.85L384.27,291.11L384.34,267.02L384.42,263.39L384.49,287.26L384.57,293.15L384.72,294.41L384.94,290.03L385.17,292.06L385.24,291.91L385.62,291.24L385.69,292.11L385.77,295.98L386.82,298.25L386.89,298.23L386.97,297.98L387.12,293.55L387.57,299.04L387.65,298.88L387.72,298.99L387.8,295.9L388.25,299.07L388.47,297.4L388.55,297.43L389.07,299.75L389.15,296.43L389.9,300.16L389.97,300.13L390.05,300.09L390.2,300.18L390.28,291.07L391.03,299.51L391.1,299.44L391.18,299.68L392.08,300.42L392.15,299.57L392.23,299.72L392.3,294.31L393.28,299.83L393.36,299.78L393.43,299.46L393.51,298.88L393.81,300.46L394.03,299.89L394.11,300.19L394.33,300.43L394.41,298.19L394.78,299.7L394.86,104.73L395.23,303.65L395.68,301.32L395.76,300.74L396.81,298.99L396.89,298.9L397.86,298.27L397.94,298.18L398.76,298.75L398.84,298.63L398.91,298.39L400.12,299.57L400.19,298.73L400.72,297.81L401.02,298.08L401.09,298.03L401.69,298.68L401.84,298.16L401.92,297.55L402.45,298.83L402.52,298.48L402.6,297.3L402.67,297.97L402.9,296.87L403.35,297.83L403.42,297.82L403.57,298.23L403.65,300.88L404.4,296.74L404.47,297.14L404.55,296.85L404.7,296.74L404.92,297.49L405,299.99L405.3,288.38L405.9,292.46L405.98,292.05L406.35,292.66L406.43,288.81L406.5,215.45L406.88,296.58L407.1,294.25L407.18,293.81L407.33,292.77L407.7,293.81L407.78,297.3L408.23,291.89L408.61,292.24L408.68,292.19L408.98,290.9L409.06,286L409.13,285.61L409.21,288.21L409.81,285.87L409.88,286.33L409.96,286.5L410.03,283.82L410.86,287.62L410.93,287.61L411.76,287.91L411.84,287.01L412.81,289.56L412.89,289.51L414.39,291.97L414.47,292.07L414.62,283.68L414.69,290.51L414.77,292.26L415.52,294.31L415.67,293.94L415.74,293.93L415.97,293.42L416.04,294.52L416.12,288.05L416.94,299.15L417.1,299.09L417.17,299.05L417.25,298.88L417.55,299.96L417.62,299.93L418.3,299.9L418.37,296.88L418.52,299.8L418.6,295.22L419.2,299.27L419.27,299.32L419.5,290.69L419.57,298.66L419.65,300.13L420.1,300.23L420.25,300.16L420.33,296.94L420.48,300.36L420.78,297.67L420.85,256.42L421.3,302.36L421.68,300.13L421.75,299.72L422.5,300.45L422.58,298.92L423.03,300.47L423.48,299.89L423.56,300.25L423.71,300.6L423.78,295.67L423.86,293.07L423.93,257.84L424.68,295.63L424.76,294.77L424.83,297.25L425.06,298.72L425.51,296.4L425.58,296.36L425.73,298.12L425.88,295.98L425.96,291.22L426.41,298.11L426.71,294.99L426.79,294.24L427.16,293.68L427.54,293.97L427.61,293.97L427.76,294.36L428.51,292.89L428.59,294.95L428.66,288.95L428.74,292.05L428.81,135.05L429.19,277.98L429.64,274.45L429.72,275.84L429.94,277.42L430.02,275.54L430.09,204.23L430.99,277.47L431.07,277.68L431.37,281.28L431.44,264.38L431.52,249.14L431.97,279.06L432.05,278.73L432.12,278.66L432.95,282.33L433.02,221.06L433.7,284.06L433.85,283.55L433.92,282.18L434,283.13L434.67,282.68L434.75,282.61L434.9,282.22L435.43,283.59L435.5,282.63L435.58,280.75L435.65,286.01L436.33,282.73L436.4,282.14L436.55,281.5L436.63,274.18L437.3,284.52L437.45,283.98L437.53,284.85L437.75,285.04L438.43,283.55L438.51,278.94L438.58,283.39L439.26,282.39L439.33,282.2L440.01,292.03L440.08,295.11L440.83,296.41L440.91,295.98L440.98,295.24L441.14,295.26L441.21,297.1L441.36,298.36L441.89,297.93L441.96,296.33L442.11,295.05L442.71,299.3L442.86,299.28L442.94,299.25L443.31,298.84L443.39,297.28L443.84,296.7L444.22,299.85L444.29,300.16L444.89,300.12L444.97,298.9L445.04,297.13L445.57,300.04L445.72,298.67L445.79,299.45L445.94,300.01L446.09,297.21L446.17,296.54L446.99,299.98L447.07,299.99L448.5,300.68L448.57,300.34L448.65,292.26L448.72,280.38L449.02,301.41L449.32,300.27L449.4,300.11L449.85,300.59L449.92,298.65L450.15,300.17L450.23,300.15L450.53,300.96L450.83,299.93L450.98,300.1L451.05,300.16L451.43,300.41L452.03,299.87L452.1,299.9L452.7,300.45L452.78,299.81L452.85,299.6L453.01,300.11L453.23,299.38L453.53,299.66L453.61,299.24L453.98,298.6L454.21,299.61L454.36,299.16L454.43,299.48L454.73,300.31L454.96,298.71L455.03,298.49L455.63,295.91L455.78,297.19L455.86,297.84L456.01,296.97L456.09,297.1L456.16,300.49L456.46,300.53L456.54,299.84L456.76,298.66L456.84,299.17L456.91,220.03L457.36,299.38L457.74,294.94L457.81,294.96L458.19,294.59L458.64,298.96L458.71,298.49L458.79,294.12L458.86,294.33L458.94,294.28L459.02,288.93L459.09,294.27L459.77,289.65L459.84,289.96L459.99,290.62L460.07,290.38L460.14,286.92L460.22,291.18L460.44,264.95L460.89,287.34L460.97,286.89L461.42,287.02L461.57,283.98L461.64,287.54L461.79,160.42L462.1,280.42L462.17,287.35L462.32,293.3L462.85,285.99L462.92,285.62L463,286.02L463.07,285.63L463.15,290.11L463.37,292.08L463.75,286.83L463.82,280.98L464.27,290.17L464.57,286.17L464.65,285.85L464.87,266.59L465.1,288.69L465.18,288.29L465.25,287.44L466.08,270.41L466.15,284.99L466.38,289.32L466.9,285.21L466.98,285.64L468.11,288.89L468.18,290.92L469.53,295.62L469.61,295.47L469.76,289.84L470.06,297.17L470.13,297.32L470.73,298.14L470.81,295.47L471.41,295.07L471.56,298.95L471.64,298.5L471.71,298.64L471.86,297.93L473.06,300.04L473.14,299.98L473.21,300.05L473.36,295.6L473.51,300.28L473.96,299.81L474.04,299.72L474.72,300.05L474.87,299.81L474.94,299.91L475.24,300.47L475.32,300L475.39,298.76L475.47,298.03L475.69,299.95L475.77,155.08L475.92,299.3L476.59,298.28L476.67,297.73L476.82,290.29L476.89,292.36L476.97,286.64L477.05,129.47L477.35,294.47L477.72,235.24L477.8,264.22L478.1,277.11L478.17,240.8L478.25,256.74L478.32,243.61L478.55,241.54L479.22,263.68L479.45,262.86L479.52,260.11L480.2,265.21L480.28,259.25L481.25,279.53L481.33,279.16L482.08,282.36L482.15,281.51L482.23,282.04L482.38,281.68L482.9,282.99L483.06,282.34L483.13,279.89L483.21,284.07L483.88,282.87L483.96,282.66L484.56,281.72L484.71,282.25L484.78,282.7L485.31,283.14L485.38,283.52L485.46,283.02L485.83,285.07L485.91,284.93L485.98,285.8L486.44,289.27L486.74,286.56L486.81,286L486.96,285.82L487.41,293.03L487.71,290.51L487.79,289.29L487.86,289L487.94,290.22L488.01,291.98L489.22,296.29L489.29,296.11L489.44,294.81L489.82,297.05L489.97,295.24L490.04,296.93L490.12,294.44L490.72,297.9L490.79,298.05L490.87,294.82L491.32,299.38L491.47,297.48L491.54,298.63L491.84,298.84L491.92,293.1L492.45,281.43L492.75,300.24L492.82,300.53L493.42,299.21L493.65,299.96L493.72,300.07L493.87,298.71L493.95,300.21L494.47,299.93L494.55,299.19L495.53,299.8L495.6,299.8L495.9,296.12L495.98,298.31L496.05,298.98L496.2,299.58L496.28,295.36L497.1,300.19L497.18,300.1L497.25,296.61L497.85,300.23L497.93,300.27L498.31,300.11L498.38,300.22L498.46,295.52L498.61,300.32L499.28,300.11L499.36,300.07L499.51,299.99L499.58,296.4L500.33,299.89L500.41,299.73L500.48,299.68L500.56,300.01L500.63,297.21L500.71,297.16L501.24,300.2L501.39,299.88L501.46,296.76L502.29,300.48L502.36,300.11L502.44,299.82L502.66,300.44L503.04,300.46L503.11,300.58L503.64,298.76L503.71,299.38L503.79,249.71L504.32,302.09L504.62,300.61L504.69,300.23L504.77,299.73L505.37,300.46L505.44,300.73L506.19,299.38L506.27,300.49L506.34,300.82L506.72,299.4L506.79,299.17L506.94,298.75L507.02,135.9L507.62,300.56L507.85,298.93L507.92,298.26L508.07,297.91L508.15,298.89L508.22,299.97L508.82,295.32L509.12,295.66L509.2,295.91L509.72,296.68L509.8,297.4L510.48,296.39L510.55,296.67L510.63,66.34L511.08,294.06L511.45,286.09L511.53,285.05L511.98,281.83L512.35,283.6L512.43,284.15L512.88,285.23L512.95,285.79L513.03,285.54L513.33,286.55L513.41,287.08L513.63,286.33L513.71,288.14L514.16,286.82L514.23,286.61L514.61,287.57L514.68,287.48L514.76,110.45L515.36,293.81L515.58,291.85L515.66,291.04L515.96,290.06L516.04,292.29L516.56,290.2L516.64,290.19L516.86,288.89L516.94,291.72L517.24,285.56L517.31,239.76L517.39,230.88L517.46,36.01L518.06,290.67L518.29,286.07L518.36,285.19L518.66,282.88L518.96,286.97L519.04,286.82L519.19,284.44L519.27,289.73L519.94,284.48L520.17,284.6L520.24,284.76L520.54,284.3L520.62,283.92L520.99,277.69L521.29,285.59L521.37,285.52L521.82,278.62L522.42,293.94L522.5,294.17L523.62,297.59L523.7,293.85L524.52,299.15L524.6,299.33L525.95,299.62L526.03,299.53L526.48,299.79L526.85,299.54L526.93,299.54L527.08,299.56L527.15,284.83L527.45,299.86L527.98,298.27L528.06,295.37L528.28,299.2L528.81,290.23L528.88,297.02L529.03,296.32L529.71,298.24L529.78,296.54L530.38,299.64L530.68,299.11L530.76,299.17L531.06,299.8L531.14,300.42L531.36,299L531.96,299.58L532.04,299.91L532.11,300.16L532.19,296.34L532.49,289.07L532.86,299.03L532.94,299.2L533.31,298.64L533.76,299.12L533.84,299.55L534.07,293.51L534.52,299.05L534.59,298.96L535.57,297.78L535.64,298.23L535.72,298.28L535.79,298.04L536.02,298.7L536.32,298.57L536.39,298.84L536.62,298.74L537.07,299.15L537.15,299.16L537.22,304L537.82,297.02L537.9,296.36L538.05,296.55L538.12,296.3L538.2,295.45L538.72,297.58L539.17,297.14L539.25,297.13L539.77,298.32L540,297.86" style="vector-effect: non-scaling-stroke; fill: none; stroke: rgb(31, 119, 180); stroke-opacity: 1; stroke-width: 2px; opacity: 1;"/></g><g class="points"/><g class="text"/></g></g></g><g class="overplot"/><path class="xlines-above crisp" d="M0,0" style="fill: none;"/><path class="ylines-above crisp" d="M0,0" style="fill: none;"/><g class="overlines-above"/><g class="xaxislayer-above"><g class="xtick"><text text-anchor="middle" x="0" y="433" transform="translate(177.51,0)" style="font-family: 'Open Sans', verdana, arial, sans-serif; font-size: 12px; fill: rgb(42, 63, 95); fill-opacity: 1; white-space: pre; opacity: 1;">2005</text></g><g class="xtick"><text text-anchor="middle" x="0" y="433" style="font-family: 'Open Sans', verdana, arial, sans-serif; font-size: 12px; fill: rgb(42, 63, 95); fill-opacity: 1; white-space: pre; opacity: 1;" transform="translate(314.69,0)">2010</text></g><g class="xtick"><text text-anchor="middle" x="0" y="433" style="font-family: 'Open Sans', verdana, arial, sans-serif; font-size: 12px; fill: rgb(42, 63, 95); fill-opacity: 1; white-space: pre; opacity: 1;" transform="translate(451.87,0)">2015</text></g><g class="xtick"><text text-anchor="middle" x="0" y="433" style="font-family: 'Open Sans', verdana, arial, sans-serif; font-size: 12px; fill: rgb(42, 63, 95); fill-opacity: 1; white-space: pre; opacity: 1;" transform="translate(589.05,0)">2020</text></g></g><g class="yaxislayer-above"><g class="ytick"><text text-anchor="end" x="79" y="4.199999999999999" transform="translate(0,404)" style="font-family: 'Open Sans', verdana, arial, sans-serif; font-size: 12px; fill: rgb(42, 63, 95); fill-opacity: 1; white-space: pre; opacity: 1;">0</text></g><g class="ytick"><text text-anchor="end" x="79" y="4.199999999999999" style="font-family: 'Open Sans', verdana, arial, sans-serif; font-size: 12px; fill: rgb(42, 63, 95); fill-opacity: 1; white-space: pre; opacity: 1;" transform="translate(0,343.97)">2</text></g><g class="ytick"><text text-anchor="end" x="79" y="4.199999999999999" style="font-family: 'Open Sans', verdana, arial, sans-serif; font-size: 12px; fill: rgb(42, 63, 95); fill-opacity: 1; white-space: pre; opacity: 1;" transform="translate(0,283.93)">4</text></g><g class="ytick"><text text-anchor="end" x="79" y="4.199999999999999" style="font-family: 'Open Sans', verdana, arial, sans-serif; font-size: 12px; fill: rgb(42, 63, 95); fill-opacity: 1; white-space: pre; opacity: 1;" transform="translate(0,223.9)">6</text></g><g class="ytick"><text text-anchor="end" x="79" y="4.199999999999999" style="font-family: 'Open Sans', verdana, arial, sans-serif; font-size: 12px; fill: rgb(42, 63, 95); fill-opacity: 1; white-space: pre; opacity: 1;" transform="translate(0,163.87)">8</text></g><g class="ytick"><text text-anchor="end" x="79" y="4.199999999999999" style="font-family: 'Open Sans', verdana, arial, sans-serif; font-size: 12px; fill: rgb(42, 63, 95); fill-opacity: 1; white-space: pre; opacity: 1;" transform="translate(0,103.83)">10</text></g></g><g class="overaxes-above"/></g></g><g class="polarlayer"/><g class="smithlayer"/><g class="ternarylayer"/><g class="geolayer"/><g class="funnelarealayer"/><g class="pielayer"/><g class="iciclelayer"/><g class="treemaplayer"/><g class="sunburstlayer"/><g class="glimages"/><defs id="topdefs-ec4617"><g class="clips"/></defs><g class="layer-above"><g class="imagelayer"/><g class="shapelayer"/></g><g class="infolayer"><g class="g-gtitle"/><g class="g-xtitle"/><g class="g-ytitle"/></g></svg>