<svg class="main-svg" xmlns="http://www.w3.org/2000/svg" xmlns:xlink="http://www.w3.org/1999/xlink" width="700" height="500" style="" viewBox="0 0 700 500"><rect x="0" y="0" width="700" height="500" style="fill: rgb(255, 255, 255); fill-opacity: 1;"/><defs id="defs-f2cbcc"><g class="clips"><clipPath id="clipf2cbccxyplot" class="plotclip"><rect width="540" height="320"/></clipPath><clipPath class="axesclip" id="clipf2cbccx"><rect x="80" y="0" width="540" height="500"/></clipPath><clipPath class="axesclip" id="clipf2cbccy"><rect x="0" y="100" width="700" height="320"/></clipPath><clipPath class="axesclip" id="clipf2cbccxy"><rect x="80" y="100" width="540" height="320"/></clipPath></g><g class="gradients"/><g class="patterns"/></defs><g class="bglayer"><rect class="bg" x="80" y="100" width="540" height="320" style="fill: rgb(229, 236, 246); fill-opacity: 1; stroke-width: 0;"/></g><g class="layer-below"><g class="imagelayer"/><g class="shapelayer"/></g><g class="cartesianlayer"><g class="subplot xy"><g class="layer-subplot"><g class="shapelayer"/><g class="imagelayer"/></g><g class="minor-gridlayer"><g class="x"/><g class="y"/></g><g class="gridlayer"><g class="x"><path class="xgrid crisp" transform="translate(177.51,0)" d="M0,100v320" style="stroke: rgb(255, 255, 255); stroke-opacity: 1; stroke-width: 1px;"/><path class="xgrid crisp" transform="translate(314.69,0)" d="M0,100v320" style="stroke: rgb(255, 255, 255); stroke-opacity: 1; stroke-width: 1px;"/><path class="xgrid crisp" transform="translate(451.87,0)" d="M0,100v320" style="stroke: rgb(255, 255, 255); stroke-opacity: 1; stroke-width: 1px;"/><path class="xgrid crisp" transform="translate(589.05,0)" d="M0,100v320" style="stroke: rgb(255, 255, 255); stroke-opacity: 1; stroke-width: 1px;"/></g><g class="y"><path class="ygrid crisp" transform="translate(0,363.62)" d="M80,0h540" style="stroke: rgb(255, 255, 255); stroke-opacity: 1; stroke-width: 1px;"/><path class="ygrid crisp" transform="translate(0,323.24)" d="M80,0h540" style="stroke: rgb(255, 255, 255); stroke-opacity: 1; stroke-width: 1px;"/><path class="ygrid crisp" transform="translate(0,282.86)" d="M80,0h540" style="stroke: rgb(255, 255, 255); stroke-opacity: 1; stroke-width: 1px;"/><path class="ygrid crisp" transform="translate(0,242.48)" d="M80,0h540" style="stroke: rgb(255, 255, 255); stroke-opacity: 1; stroke-width: 1px;"/><path class="ygrid crisp" transform="translate(0,202.1)" d="M80,0h540" style="stroke: rgb(255, 255, 255); stroke-opacity: 1; stroke-width: 1px;"/><path class="ygrid crisp" transform="translate(0,161.72)" d="M80,0h540" style="stroke: rgb(255, 255, 255); stroke-opacity: 1; stroke-width: 1px;"/><path class="ygrid crisp" transform="translate(0,121.33)" d="M80,0h540" style="stroke: rgb(255, 255, 255); stroke-opacity: 1; stroke-width: 1px;"/></g></g><g class="zerolinelayer"><path class="yzl zl crisp" transform="translate(0,404)" d="M80,0h540" style="stroke: rgb(255, 255, 255); stroke-opacity: 1; stroke-width: 2px;"/></g><path class="xlines-below"/><path class="ylines-below"/><g class="overlines-below"/><g class="xaxislayer-below"/><g class="yaxislayer-below"/><g class="overaxes-below"/><g class="plot" transform="translate(80,100)" clip-path="url(#clipf2cbccxyplot)"><g class="scatterlayer mlayer"><g class="trace scatter traced65702" style="stroke-miterlimit: 2; opacity: 1;"><g class="fills"/><g class="errorbars"/><g class="lines"><path class="js-line" d="M0,291.97L0.08,292.23L0.15,291.87L0.23,290.05L0.3,289.85L0.83,290.49L0.9,290.73L1.5,294.13L1.95,293.62L2.03,293.52L2.33,294.09L2.48,293.18L2.63,294.01L2.7,292.92L3.61,294.41L3.68,294.37L4.43,294.11L4.51,294.17L4.58,294.29L5.03,292.51L5.11,293.84L5.18,294.03L5.86,294.15L5.93,291.93L6.01,291.58L6.46,292.29L6.54,292.65L6.61,292.01L7.29,292.39L7.36,292.37L8.41,293.62L8.49,293.66L8.64,298.33L9.32,297.84L9.39,298.04L9.69,296.21L10.14,297.86L10.22,297.66L11.19,298.19L11.27,298.06L11.42,298.12L11.49,300.28L11.57,303.45L11.87,292.9L12.1,296.81L12.17,296.91L12.62,299.05L13.07,298.53L13.15,297.44L13.82,298.53L13.9,297.48L15.1,300.57L15.18,300.1L15.25,299.3L15.4,298.49L15.78,299.09L15.85,300.31L16.15,301.25L16.38,300.14L16.45,300.28L16.53,299.24L16.75,299.86L17.43,299.4L17.5,299.6L18.26,299.6L18.33,299.74L18.41,297.84L18.93,295.24L19.31,296.11L19.38,295.76L19.53,296.79L19.61,297.76L19.83,297.26L19.91,299.11L19.98,299.66L20.13,296.35L20.36,297.07L20.43,296.89L20.51,297.64L20.58,296.17L21.11,296.81L21.19,295.98L21.34,297.14L21.56,295.58L21.94,296.17L22.01,296.27L22.31,299.54L22.76,284.4L22.84,289.02L22.91,292.61L23.74,301.6L23.89,300.47L23.96,300.89L24.27,300.57L24.34,299.4L24.72,296.87L24.79,292.9L25.02,287.2L25.47,296.37L25.54,297.12L25.92,301.94L26.44,301.66L26.52,301.15L26.67,301.82L26.89,299.24L26.97,300.02L27.05,299.66L27.12,295.54L27.57,302.34L27.72,302.22L27.8,301.86L28.7,299.24L28.77,299.38L28.85,299.62L29.6,299.7L29.67,298.23L30.2,299.98L30.5,299.86L30.58,299.82L31.7,299.72L31.78,299.48L32.6,299.94L32.68,299.42L32.98,299.44L33.06,298.45L33.28,299.54L33.66,299.26L33.73,297.74L33.88,299.34L34.48,298.67L34.56,298.97L34.63,298.31L34.86,300.24L35.16,299.98L35.23,300.1L36.14,300.57L36.21,300.31L36.29,297.58L36.44,292.63L36.89,299.94L36.96,299.4L37.04,299.86L37.26,299.21L38.01,300.31L38.09,300.08L38.76,300.37L38.91,300.31L38.99,299.92L39.37,299.96L39.89,292.27L40.04,296.63L40.12,297.88L40.72,299.32L40.94,298.69L41.02,295.92L42.07,299.11L42.15,299.15L42.82,299.84L42.97,299.05L43.05,298.93L43.5,300.18L43.8,299.8L43.87,299.76L46.13,299.92L46.2,299.74L46.35,296.91L46.5,298.83L46.58,299.07L46.8,294.45L46.88,264.14L47.7,296.57L47.78,297.01L48.76,299.5L49.06,298.67L49.13,296.31L49.21,296.15L49.28,297.32L49.36,297.12L49.43,297.88L50.63,299.32L50.71,299.26L50.78,299.11L51.99,300.35L52.06,299.96L52.14,299.62L53.19,300.69L53.26,300.77L53.41,300.22L53.79,300.99L53.94,301.01L54.02,300.93L54.24,300.53L54.84,301.29L54.92,301.19L54.99,301.07L55.14,300.81L55.22,297.7L55.82,301.21L55.97,298.61L56.04,298.53L56.64,298.27L56.72,299.11L56.79,298.67L56.87,298.51L57.7,299.3L57.77,299.15L58.37,299.4L58.52,299.28L58.6,298.97L59.27,299.38L59.42,299.28L59.5,299.28L60.63,299.11L60.7,299.26L61,293.97L61.38,297.8L61.45,298.35L62.35,299.01L62.43,296.71L62.65,298.91L63.03,298.33L63.11,290.43L63.86,299.48L64.01,299.46L64.08,297.32L64.23,299.03L64.31,297.32L64.38,286.37L64.91,296.49L65.21,291.58L65.28,289.54L65.43,284.94L66.26,297.42L66.34,297.66L66.49,297.82L66.56,296.49L67.09,296.59L67.24,290.33L67.31,292.53L67.39,293.56L67.61,295.34L67.84,294.19L67.91,262L67.99,255.22L68.36,285.57L68.44,287.24L69.49,295.6L69.57,295.62L70.47,297.26L70.54,298.08L70.62,297.38L71.29,297.82L71.37,297.88L72.42,298.55L72.5,298.12L73.17,292.15L73.32,292.21L73.4,292.17L73.55,291.16L73.62,291.6L73.7,296.65L73.77,298L74.22,292.73L74.3,290.47L75.28,295.9L75.35,295.52L76.4,297.3L76.48,296.99L76.55,296.35L76.63,296.83L76.7,291.36L76.78,263.54L77.45,285.38L77.53,286.54L78.36,292.21L78.43,291.24L78.51,288.66L78.81,292.05L79.26,291.16L79.33,289.85L80.46,294.93L80.53,294.49L80.61,294.95L81.14,289.66L81.36,294.49L81.44,295.04L82.11,297.48L82.19,297.36L82.26,288.05L82.34,285.71L82.71,296.75L82.79,296.87L82.86,292.53L83.46,298.19L83.54,298.27L84.29,299.03L84.37,298.97L84.44,297.76L84.89,297.42L85.34,299.4L85.42,299.52L85.72,299.64L85.79,299.46L85.87,296.91L86.17,299.66L86.32,291.1L86.54,299.05L86.62,293.97L86.69,293L86.92,299.52L86.99,299.52L87.3,299.8L87.37,299.44L87.45,294.69L87.6,293.82L87.67,294.57L87.75,298.21L87.9,298.81L88.12,295.98L88.2,287.67L88.27,257.87L88.87,292.57L88.95,292.67L89.4,291.93L90.83,297.46L90.9,294.31L91.73,293.56L91.8,293.64L91.88,293.76L92.33,294.03L92.48,293.4L92.55,293.22L93.76,295.2L93.91,295.1L93.98,295.2L94.96,294.95L95.03,294.53L95.48,293.8L95.63,294.83L95.71,298.51L96.01,298.79L96.16,296.67L96.61,296.97L96.69,296.93L97.66,298.12L97.74,297.94L99.84,298.45L99.92,299.15L100.74,299.26L100.82,299.24L102.4,299.36L102.47,298.47L102.7,298.27L103.22,298.61L103.3,298.63L104.5,298.39L104.57,298.53L104.65,298.69L104.72,298.29L104.95,298.85L105.4,298.49L105.48,298.59L106.3,298.87L106.38,298.85L107.2,299.03L107.28,298.75L107.65,298.43L107.73,297.78L108.18,299.98L108.56,299.13L108.63,299.09L108.78,299.19L109.16,298.89L109.31,299.3L109.38,300.06L110.06,300.2L110.13,301.17L110.36,300.51L110.66,301.09L110.73,301.25L112.01,301.09L112.09,301.92L112.46,302.3L112.69,301.94L112.76,301.29L113.14,301.38L113.21,299.5L113.29,297.38L113.81,300.39L113.89,300.35L113.96,300.37L115.24,300.16L115.32,300.39L115.54,301.74L116.07,301.01L116.14,297.4L116.89,301.8L116.97,301.52L117.05,301.66L117.2,302.16L117.57,299.58L117.65,293.06L118.17,301.8L118.4,300.97L118.47,300.87L118.85,300.77L118.92,299.58L119,293.7L119.6,300.85L119.67,298.97L119.75,294.31L120.58,301.82L120.65,301.94L121.25,301.64L121.33,298.73L121.4,287.42L122,300.67L122.08,300.79L122.6,301.58L122.68,301.19L122.75,298.55L124.33,302.12L124.56,301.86L124.63,301.82L125.31,302.04L125.38,301.7L125.46,301.17L125.53,300.59L126.14,301.68L126.21,301.58L126.59,300.67L126.96,301.23L127.04,294.71L127.11,267.11L127.71,294.67L127.79,295.84L129.07,300.02L129.14,299.88L129.22,299.66L129.97,300.97L130.04,300.89L130.12,300.91L130.64,300.67L130.72,300.16L130.94,299.72L131.77,300.97L131.84,300.93L131.92,301.09L132.07,301.27L132.15,298.79L132.22,297.88L132.6,301.15L132.67,301.15L132.75,301.19L133.05,301.58L133.2,300.22L133.27,301.23L133.35,301.56L133.57,301.84L133.65,301.25L133.72,299.9L134.62,302.12L134.7,302.12L135.53,302.53L135.6,302.63L136.28,302.47L136.35,302.57L136.43,302.67L137.63,302.93L137.7,301.03L138.46,301.58L138.53,301.01L139.28,301.19L139.36,301.07L139.43,297.54L139.66,296.31L140.18,301.19L140.26,300.87L140.33,301.01L140.86,301.11L141.09,298.97L141.16,300.95L141.84,300.97L141.91,296.39L141.99,290.76L142.36,301.9L142.59,300.75L142.66,300.81L143.79,300.89L143.86,300.49L143.94,301.7L144.32,298.89L144.54,299.68L144.62,299.66L144.77,299.76L144.84,300.71L145.07,299.19L145.67,299.42L145.74,299.42L146.19,299.64L146.27,301.01L146.79,300.41L147.02,300.61L147.1,300.69L149.27,300.53L149.35,300.71L150.1,300.53L150.18,300.47L153.71,300.55L153.78,296.43L153.93,295.72L154.23,297.9L154.38,297.12L154.46,297.07L155.13,297.32L155.21,296.99L155.28,297.03L155.51,298.47L156.11,298.23L156.19,298.31L157.01,298.59L157.09,299.44L157.31,298.79L157.69,299.62L157.84,299.52L157.91,299.44L159.04,298.65L159.12,298.31L159.27,290.53L159.79,299.64L159.87,300.75L159.94,301.33L160.17,297.82L160.54,300.39L160.62,300.63L160.84,301.58L161.29,300.87L161.37,298.83L161.44,296.23L161.97,301.29L162.05,301.46L162.12,300.53L162.8,301.23L162.87,301.11L163.25,302.14L163.85,301.78L163.92,301.44L164.07,300.2L164.37,302.65L164.75,300.65L164.82,300.85L165.05,300.69L165.2,301.03L165.28,302.1L166.03,300.81L166.33,301.05L166.4,301.09L168.88,301.11L168.96,301.33L169.11,300.83L169.18,298.67L169.41,301.78L170.01,300.91L170.08,300.85L170.83,301.13L170.91,301.07L170.98,300.91L171.81,300.99L171.89,300.69L172.71,301.01L172.79,300.85L173.09,301.58L173.16,301.44L173.24,300.71L173.39,300.89L173.46,300.08L173.54,299.58L173.84,301.6L174.29,300.16L174.37,299.78L174.67,299.26L175.19,299.66L175.27,299.5L175.42,299.44L175.49,298.41L175.57,297.7L176.09,299.7L176.17,299.92L176.24,300.2L176.69,299.32L176.84,299.98L176.92,299.82L177.22,300.14L177.3,299.28L177.75,299.9L177.82,300.08L178.27,300.57L178.65,297.92L178.72,299.32L178.8,299.46L179.7,299.28L179.77,299.26L180,298.79L180.3,299.17L180.38,300.22L181.5,301.56L181.58,300.73L182.03,298.02L182.1,298.37L182.18,301.44L182.25,300.08L182.4,302.32L182.93,301.42L183.01,301.44L183.91,300.26L183.98,301.25L184.66,301.6L184.73,301.5L184.81,300.61L185.48,299.58L185.56,300.39L185.63,300.65L185.71,301.68L186.09,300.57L186.39,300.87L186.46,300.79L187.29,302.22L187.36,301.76L187.44,301.56L187.66,302.16L188.04,300.89L188.11,297.44L188.41,301.82L188.94,301.68L189.02,301.68L189.17,301.74L189.24,300.87L189.39,302.53L189.54,301.11L189.62,294.07L189.84,300.35L190.44,299.42L190.52,299.28L190.67,283.51L190.74,260.49L191.27,297.46L191.57,290.55L191.64,290.92L192.62,300.77L192.7,301.27L193.07,301.78L193.15,300.26L194.05,302.12L194.12,302.2L194.2,302.04L194.27,298.95L194.35,294.29L194.95,302L195.03,302.08L195.18,301.48L195.78,301.82L195.85,301.96L197.73,301.58L197.8,296.19L197.95,301.86L198.63,301.8L198.71,301.8L199.31,301.92L199.38,301.64L199.46,301.11L199.53,300.73L199.61,301.76L200.13,301.56L200.21,301.7L201.64,301.25L201.71,300.79L202.16,301.66L202.39,301.21L202.46,299.05L202.61,299.94L202.69,277.45L202.76,199.9L203.36,296.67L203.44,297.5L204.19,299.68L204.42,299.6L204.49,299.86L205.47,300.49L205.54,300.12L205.62,299.96L205.84,300.43L205.99,299.62L206.37,300.1L206.44,300.12L207.95,299.21L208.02,298.83L208.25,298.85L208.32,299.46L208.4,300.06L208.62,300.26L208.7,300.08L208.77,299.4L209.45,300.31L209.52,300.26L209.6,299.4L209.82,289.66L210.35,297.12L210.43,297.4L211.55,300.22L211.63,299.96L211.7,300.04L212.3,300.49L212.38,299.17L213.13,296.57L213.21,296.81L213.28,296.67L213.58,297.07L213.73,296.71L213.81,293.24L214.41,297.42L214.48,296.83L214.56,283.06L214.71,287.93L214.78,283.71L214.86,275.21L215.76,291.83L215.83,285.28L215.91,284.48L217.04,296.39L217.11,296.61L217.34,296.41L217.56,297.16L217.64,297.58L218.69,298.45L218.76,299.46L218.99,298.83L219.14,299.28L219.22,300.18L219.67,301.13L220.04,300.83L220.12,300.89L220.42,300.93L220.49,298.89L221.17,301.09L221.24,300.81L221.32,296.53L222.15,302L222.22,302.04L222.82,302.22L222.9,301.07L223.87,297.26L224.02,298.19L224.1,298.12L224.92,298.59L225,298.19L225.83,296.19L225.9,296.33L225.98,296.43L226.35,294.61L226.5,295.46L226.58,296.02L226.73,299.76L227.4,297.92L227.48,296.63L227.63,298.02L227.78,296.73L227.85,296.73L228.61,297.18L228.68,297.09L228.76,297.01L228.98,296.83L229.51,300.31L229.58,298.63L229.66,298.57L230.41,300.75L230.48,300.67L230.56,300.55L231.39,300.65L231.46,298.08L232.21,297.2L232.29,298L232.59,297.28L232.89,298.55L232.96,297.76L233.04,297.44L233.41,297.3L233.49,296.39L234.02,300.18L234.09,297.9L234.17,292.96L234.92,300.55L234.99,300.53L235.07,300.33L235.52,300.75L235.74,298.29L235.89,299.28L235.97,299.64L237.17,301.23L237.25,301.05L237.32,301.01L237.47,301.21L237.7,300.33L238.07,300.89L238.15,300.89L238.45,299.15L238.82,299.9L238.9,300.1L240.7,294.29L240.78,292.29L241.83,298.87L241.9,298.89L242.13,299.38L242.28,298.27L242.35,297.7L243.26,299.26L243.33,299.17L243.48,299.48L243.56,299.15L243.63,297.48L243.78,295.44L243.86,291.28L243.93,275.9L244.61,288.51L244.68,288.43L245.58,296.37L245.66,296.33L245.73,296.02L245.81,295.3L246.11,299.03L246.19,299.09L246.56,299.24L246.64,297.18L247.01,260.03L247.09,205.31L247.91,290.9L247.99,289.95L248.06,293.26L248.14,292.94L248.21,286.41L248.29,286.27L248.36,288.51L249.57,297.12L249.64,297.12L250.02,294.11L250.32,297.16L250.39,296.57L250.47,296.75L250.62,297.2L250.69,296.59L250.77,294.11L251.37,297.54L251.59,296.91L251.67,297.18L252.05,296.59L252.57,297.88L252.65,297.74L252.72,296.73L252.87,296.99L253.4,295.82L253.47,296.23L253.55,296.79L253.92,297.9L254.15,296.21L254.22,295.24L255.13,299.64L255.2,299.62L255.28,299.36L255.88,277.63L256.1,290.8L256.18,292.9L257.15,298.65L257.23,298.65L261.21,299.09L261.29,298.65L261.51,297.28L262.04,298.69L262.11,298.67L264.07,299.13L264.14,298.77L264.37,298.97L264.59,297.54L264.97,298L265.04,298.02L266.09,298.12L266.17,299.07L267.3,299.44L267.37,297.64L267.67,262.59L267.82,289.44L267.9,292.53L268.57,298.16L268.87,297.48L268.95,297.88L270.38,299.74L270.45,299.7L270.98,297.7L271.2,298.87L271.28,299.34L271.65,298.45L271.73,299.11L271.8,299.62L271.88,299.8L271.95,298.59L272.03,295.74L272.1,297.18L272.18,277.55L273.01,299.56L273.08,299.6L273.31,300.06L273.38,297.8L273.61,299.17L274.21,283.12L274.36,290.01L274.43,290.45L274.66,289.71L275.41,295.92L275.48,296.27L276.84,299.52L276.91,299.56L277.59,299.86L277.66,298.75L278.34,301.94L278.71,300.81L278.79,300.79L279.62,301.23L279.69,300.73L280.37,298.99L280.59,299.9L280.67,299.94L281.94,300.14L282.02,300.1L282.1,297.8L282.77,298.95L282.85,298.95L283.45,298.91L283.52,297.96L284.57,297.38L284.65,297.62L284.72,299.24L284.95,299.64L285.03,299.54L285.1,297.28L285.25,296.02L285.48,301.17L286,299.48L286.08,296.17L286.6,295.84L287.05,299.11L287.13,299.26L288.11,299.88L288.18,300.93L289.61,301.07L289.68,300.04L290.73,300L290.81,299.94L293.29,300.16L293.36,300.16L295.02,299.84L295.09,299.38L295.47,299.3L295.54,297.46L295.62,291.7L296.22,300.45L296.29,300.65L296.52,300.65L296.59,298.79L296.74,297.74L297.12,299.36L297.35,298.69L297.42,298.91L298.25,300.61L298.4,300.51L298.47,299.54L298.62,290.17L299.15,297.18L299.22,298.1L299.37,298.91L299.52,298.35L299.6,295.76L300.43,299.44L300.58,299.17L300.65,299.66L300.73,295.86L301.33,300L301.4,300.28L302,301.23L302.23,300.49L302.3,300.39L303.43,300.79L303.51,300.37L303.58,299.11L303.88,300.89L304.26,300.1L304.33,300.22L305.01,300.35L305.08,299.42L305.23,299.7L305.31,299.42L305.38,297.98L305.91,297.26L306.06,298.27L306.14,298.39L306.36,298.21L306.96,298.63L307.04,298.47L307.71,297.76L307.79,297.58L308.24,298.41L308.46,297.64L308.54,296.79L308.99,298.19L309.37,297.9L309.44,298.04L309.89,297.74L309.97,295.72L310.12,299.42L310.72,299.13L310.79,298.73L311.02,297.82L311.47,298.51L311.54,299.13L311.69,298.02L311.84,299.86L312.15,299.72L312.22,300.33L312.75,299.6L312.97,299.98L313.05,299.98L313.87,298.81L313.95,298.87L315.38,300L315.45,299.78L315.53,298.93L315.68,299.92L316.13,298.83L316.2,298.91L316.28,298.81L316.95,298.87L317.03,297.94L317.78,298.25L317.85,297.05L318.31,297.14L318.38,296.59L318.46,287.59L319.21,297.68L319.28,297.52" style="vector-effect: non-scaling-stroke; fill: none; stroke: rgb(255, 165, 0); stroke-opacity: 1; stroke-width: 2px; opacity: 1;"/><path class="js-line" d="M368.64,301.07L369.17,300.79L369.24,299.86L369.32,296.27L369.39,250.25L369.47,84.63L370.07,284.66L370.14,285.73L370.97,293.5L371.04,293.78L372.17,295.78L372.25,298.77L373.15,299.34L373.22,299.09L373.3,298.3L374.05,299.69L374.12,299.64L374.2,299.65L377.73,300.27L377.8,300.05L377.95,299.31L378.48,300.07L378.56,300.15L379.08,300.15L379.16,300.77L379.23,299.22L379.76,300.02L379.83,298.78L380.43,300.3L380.58,299.12L380.66,299.25L381.49,300.97L381.56,300.95L381.64,300.84L382.01,301.07L382.16,300.98L382.24,300.01L383.21,298.73L383.29,299.18L383.51,299.5L383.59,298.57L383.74,297.89L383.81,298.68L383.96,298.12L384.04,299.81L384.34,296.46L384.49,301.23L384.79,300.11L384.87,300.12L385.39,300.49L385.69,298.58L385.77,298.62L386.67,298.98L386.82,298.77L386.89,295.72L387.5,300.51L387.72,298.26L387.8,297.88L388.1,299.83L388.55,298.53L388.62,298.63L388.77,299.27L389.15,297.7L389.22,299.64L390.13,299.38L390.2,298.78L390.28,292.18L390.95,298.78L391.03,298.85L391.93,299.22L392,299.16L392.08,297.53L392.38,300.76L392.83,299.08L392.9,298.93L394.03,299.95L394.11,299.18L394.48,298.96L394.56,300.03L394.71,300.99L394.78,297.96L394.86,208.87L395.68,300.74L395.76,300.96L395.98,300.95L396.06,300.23L396.21,300.17L396.29,301.08L396.44,301.49L396.74,300.46L396.96,300.66L397.04,300.49L397.11,301.41L397.79,300.67L397.86,300.68L398.24,300.74L398.31,299.84L398.84,299.65L398.99,299.85L399.07,300.48L399.82,300.73L399.89,300.67L399.97,300.76L400.12,300.86L400.87,299.64L401.09,299.88L401.17,299.77L402.15,299.49L402.22,299.7L402.3,299.72L403.35,299.81L403.42,299.83L403.5,300.78L403.65,299.48L404.1,299.67L404.17,299.66L404.77,299.74L404.85,299.59L404.92,298.68L405.23,298.09L405.53,299.67L405.6,299.92L405.98,300.33L406.05,299.46L406.35,300.3L406.43,293.83L406.5,287.25L407.1,300.36L407.18,300.49L407.63,297.87L408.01,299.48L408.08,299.63L408.23,299.13L408.76,300.07L408.83,300.11L409.13,295.25L409.36,297.6L409.43,298.28L410.11,300.92L410.41,300.25L410.48,298.81L411.31,300.86L411.39,300.86L412.06,300.49L412.29,300.89L412.36,301.15L412.81,301.28L412.89,300.43L413.04,299.01L413.71,299.4L413.79,299.46L414.24,299.6L414.32,299.11L414.39,298.06L414.54,296.39L414.99,297.7L415.07,298.33L415.29,299.54L415.82,298.77L415.89,298.71L417.02,298.59L417.1,298.79L417.62,298.55L417.92,298.68L418,298.65L418.22,297.49L418.3,295.18L419.12,299.28L419.27,299.1L419.35,297.22L419.5,296.06L419.87,298L419.95,297.84L420.03,298.07L420.18,298.21L420.25,297.31L420.33,298.76L420.55,300.82L420.85,295L421.08,299.08L421.15,299.36L421.23,299.67L421.45,298.25L421.68,298.66L421.75,298.66L421.9,298.84L421.98,297.89L422.13,297.99L422.2,297.91L422.8,298.8L422.95,297.89L423.03,297.81L423.71,297.6L423.78,293.93L423.86,292.36L423.93,273.08L424.76,297.44L424.83,297.85L425.73,300.04L425.88,299.97L425.96,299.85L427.09,301.35L427.16,301.22L427.54,301.34L427.61,300.94L427.69,300.5L428.66,301.43L428.74,300.88L428.89,298.23L429.49,299.31L429.57,299.78L429.94,300.61L430.02,300.39L430.09,287.14L431.37,299.14L431.44,296.4L432.65,299.15L432.72,299.24L432.87,300.4L432.95,299.74L433.02,262.1L434,295.94L434.07,296.25L435.28,299.81L435.43,298.8L435.5,298.15L436.4,300.09L436.48,299.96L436.55,299.73L437.9,300.98L437.98,300.97L438.21,300.83L438.28,299.31L439.03,301.39L439.11,300.98L439.18,300.31L439.78,299.28L439.93,300.19L440.01,300.32L440.76,298.69L440.83,298.53L441.66,298.4L441.74,298.51L441.96,297.29L442.11,297.63L442.19,298.63L443.76,296.44L443.84,296.62L443.99,296.8L444.07,300.04L444.14,300.3L444.44,299.19L444.52,295.78L445.49,295.25L445.57,295.37L445.64,295.08L446.02,296.43L446.09,295.27L446.17,299.41L446.24,300.12L446.69,298.71L446.77,298.84L446.84,298.49L447.37,298.95L447.52,298.82L447.6,297.55L447.97,297.35L448.05,298.61L448.65,294.47L448.72,299.76L448.8,300.6L449.62,298.19L449.7,298.19L449.92,297.66L450,298.09L450.08,298.98L450.68,297.66L451.05,298.06L451.13,298.1L452.18,300.05L452.25,300.06L453.83,300.03L453.91,300.93L454.58,300.94L454.66,300.04L455.48,301.97L455.56,301.9L455.63,301.97L455.86,301.18L455.93,301.06L456.01,301.26L456.09,296.89L456.69,302.31L456.84,297.96L456.91,294.62L457.66,301.86L457.74,301.41L457.81,300.57L457.89,300.3L458.26,301.52L458.34,301.58L458.49,301.61L458.56,301.04L458.64,294.83L458.71,260.7L459.32,297.39L459.39,295.11L459.99,299.2L460.29,299.08L460.37,297.6L460.59,289.21L461.04,297.49L461.12,297.88L461.42,299.18L461.49,298.39L461.57,295.23L461.64,295.85L461.72,244.54L461.79,221.23L462.32,281.13L462.4,283.5L463.52,297.37L463.6,297.42L463.75,298.21L464.05,296.08L464.12,263.3L464.5,289.6L464.95,286.72L465.03,287.91L465.18,289.56L465.33,286.34L465.4,260.79L465.48,242.3L465.85,268.29L466.08,259.25L466.15,267.59L466.98,290.74L467.05,290.31L467.13,289.03L467.2,288.59L467.28,291.08L467.35,292.44L467.58,293.42L467.65,281.37L468.56,295.69L468.63,295.05L469.83,300.23L469.91,300.32L470.06,300.58L470.73,294.7L470.81,287.25L471.34,297.38L471.71,296.21L471.79,294.57L472.24,297.18L472.61,296.96L472.69,296.44L473.06,290.7L473.44,296.14L473.51,296.36L473.66,293.94L473.74,296.24L474.79,300.83L474.87,300.7L475.39,297.84L475.69,298.27L475.77,16L476.59,289.32L476.67,288.95L476.97,265.43L477.05,215.1L478.02,265.45L478.1,257.49L478.47,251.86L479.6,284.93L479.67,285.52L482,297.06L482.08,296.93L483.51,299.42L483.58,299.3L483.96,299.24L484.03,297.22L485.08,300.22L485.16,300.29L486.89,300.78L486.96,301.45L487.04,301.63L487.19,300.47L487.41,300.68L487.49,300.78L487.94,301L488.24,300.87L488.31,300.78L488.61,300.91L488.69,300.55L488.76,298.87L489.67,300.69L489.74,300.78L490.27,298.26L490.34,294.21L490.72,299.23L490.79,296.43L490.87,293.93L491.02,290.22L491.47,295.68L491.54,296.12L491.77,300.25L492.3,297.77L492.37,296.81L492.45,296.2L492.67,299.62L492.75,300.77L493.27,301.44L493.57,301.37L493.65,301.42L493.8,301.19L494.32,301.69L494.4,301.67L494.47,301.45L494.55,298.38L495,300.2L495.08,297.56L495.3,300.09L495.68,298.24L495.75,298L495.83,297L496.13,299.22L496.35,299.05L496.43,298.91L496.88,299.28L497.03,299.14L497.1,296.93L497.25,297.1L498.38,295.67L498.46,295.8L498.68,295.75L498.76,294.79L499.06,293.82L499.21,295.73L499.28,295.6L499.36,295.68L499.96,294.81L500.11,295.37L500.18,296.27L500.86,301.05L501.01,301.04L501.09,300.17L501.31,295.01L501.76,299.09L501.84,299.11L502.21,299.4L502.29,300.28L503.19,299.09L503.41,299.91L503.49,299.98L503.71,299.12L503.79,271.67L504.09,301.33L504.54,299.19L504.62,299.15L504.69,298.75L505.07,300.29L505.14,300.15L505.22,300.25L505.97,300.38L506.04,300.16L506.12,294.81L506.19,294.43L506.27,297.32L506.34,299.46L507.4,302.14L507.47,302.13L508.07,302.19L508.15,295.41L508.3,284.25L508.82,300.51L508.9,300.91L509.95,301.91L510.03,301.75L510.1,301.82L510.33,302.02L510.4,300.64L510.55,297.84L510.63,270.79L510.7,221.21L511.3,294.38L511.38,296.26L511.6,293.82L512.65,300.98L512.73,300.52L512.8,300.13L513.71,290.07L513.86,293.23L513.93,295.92L514.61,297.92L514.68,292.69L514.76,290.95L515.06,297.1L515.21,296.7L515.28,297.07L515.51,297.61L515.66,297.05L515.73,292.12L515.81,291.83L515.88,295.85L516.56,298.55L516.64,298.53L516.71,296.16L517.31,288.76L517.39,276.43L517.46,269.26L518.06,284.1L518.14,284.78L518.59,292.73L518.74,288.75L518.81,282.5L518.89,271.06L519.57,279.28L519.64,281.1L520.39,293.72L520.47,292.69L520.54,272.21L520.84,275.06L520.92,260.88L520.99,229.72L521.59,281.61L521.67,282.58L521.89,287.49L521.97,289.99L522.72,297.12L522.8,297.1L522.87,275.45L523.62,297.23L523.7,293.45L523.77,295.7L524.97,300.5L525.05,300.78L525.95,296.03L526.03,296.88L526.1,299.2L526.33,299.72L526.48,298.83L526.55,298.84L526.63,297.2L526.85,297.52L526.93,295.88L527,292.51L527.15,279.21L527.23,295.18L527.3,298.5L527.9,300.79L528.06,299.49L528.13,299.69L528.51,300.31L528.88,300.09L528.96,299.62L529.56,301.05L529.78,300.42L529.86,300.74L530.76,300.87L530.83,300.11L531.29,298.51L531.59,299.28L531.66,300.26L532.11,300.27L532.19,299.46L532.26,299.26L532.34,299.8L532.41,295.15L532.49,290.36L533.01,300.29L533.09,300.31L533.76,300.76L533.91,300.56L533.99,299.55L534.07,298.39L534.67,300.3L534.74,300.39L536.32,300.83L536.39,300.78L537.15,300.46L537.22,299.97L537.67,300.73L537.75,299.67L537.82,299.13L538.05,299.79L538.2,298.77L538.57,299.18L538.65,299.32L539.55,300.32L539.62,300.28L539.7,300.36L540,300.53" style="vector-effect: non-scaling-stroke; fill: none; stroke: rgb(255, 165, 0); stroke-opacity: 1; stroke-width: 2px; opacity: 1;"/></g><g class="points"/><g class="text"/></g><g class="trace scatter tracefce3dc" style="stroke-miterlimit: 2; opacity: 1;"><g class="fills"/><g class="errorbars"/><g class="lines"><path class="js-line" d="M0,299.29L0.9,300.45L0.98,300.41L1.43,300.81L1.73,300.47L1.8,300.11L1.95,300.04L2.03,298.76L2.1,299.41L2.48,296.6L2.7,298.16L2.78,295.98L3.08,297.76L3.61,297.44L3.68,297.43L4.58,297.03L4.66,296.54L5.11,295.15L5.41,296.62L5.48,296.67L5.86,296.85L5.93,294.87L6.76,297.43L6.84,297.5L7.59,298.23L7.66,295.87L8.49,299.61L8.56,299.75L9.54,301.56L9.69,300.79L9.77,299.3L10.29,300.66L10.74,300.26L10.82,300.04L11.87,296.07L11.94,298.53L12.77,299.55L12.85,299.58L13.97,298.76L14.05,299.04L14.12,299.37L17.95,300.6L18.03,300.78L19.91,300.86L19.98,299.85L20.06,300.83L20.73,300.57L20.81,300.47L22.09,300.29L22.16,297.31L22.46,296.37L23.06,300.05L23.14,300.41L23.81,300.32L23.89,300.19L23.96,300.01L24.87,297.39L24.94,298.03L25.02,295.44L25.77,299.64L25.92,299.42L25.99,299.73L26.82,298.24L26.89,296.77L27.05,298.2L27.12,293.45L27.87,299.77L28.02,299.7L28.1,299.65L28.62,300.04L29,299.82L29.07,299.81L29.6,300.13L29.67,299.44L29.75,299.41L30.58,300.15L30.65,300.2L32.53,300.48L32.6,300.6L32.9,296.98L33.51,297.87L33.58,298.7L34.03,293.41L34.48,295.69L34.56,295.74L34.71,293.3L35.08,293.87L35.16,295.26L36.21,296.72L36.29,296.63L36.36,288.23L36.96,296.9L37.04,297L37.26,296.47L38.39,298.39L38.46,298.35L38.91,298.33L38.99,297.85L39.07,296.75L39.37,299.15L39.74,298.65L39.82,295.06L40.27,299.08L40.72,298.92L40.79,298.89L40.94,298.86L41.02,295.83L41.77,299.18L41.92,299.06L41.99,298.93L42.82,298.81L42.9,299.02L42.97,298.11L43.35,299.79L43.57,299.71L43.65,299.65L44.17,298.48L44.32,299.4L44.4,299.43L45.9,299.17L45.98,299.14L46.13,299.48L46.8,295.8L46.88,284.11L46.95,279.13L47.48,291.21L47.55,292.16L48.08,295.56L48.68,295.44L48.76,295.55L49.13,294.36L49.28,296.7L49.36,297.45L50.48,299.08L50.56,299.21L52.06,299.18L52.14,298.29L52.36,300.13L52.96,299.63L53.04,299.43L53.41,298.7L53.49,298.21L54.32,299.42L54.39,299.5L55.44,300.64L55.52,300.7L55.89,300.98L55.97,299.93L56.04,299.55L56.57,300.39L56.64,299.81L56.72,300.46L56.87,299.85L57.32,300.95L57.4,301.15L58.52,303.02L58.6,303.05L59.72,302.97L59.8,301.43L60.1,301.19L60.18,300.34L60.78,300.04L60.85,298.58L61.38,295.25L61.68,296.45L61.75,296.33L62.43,295.21L62.5,292.88L63.03,295.66L63.11,293.64L63.18,287.55L63.86,296.32L64.01,296.27L64.08,296.15L64.23,296.28L64.31,295.89L64.38,293.2L64.53,291.93L64.98,298.19L65.28,297.57L65.36,298.21L65.43,293.52L65.96,299.75L66.04,299.71L66.11,299.28L66.41,299.74L66.56,299.46L66.64,297.81L66.86,299.4L67.24,296.85L67.39,297.99L67.46,297.84L67.61,298.37L67.76,296.56L67.84,298L67.91,296.11L67.99,287.21L68.59,296.99L68.66,297.29L69.19,298.36L69.57,298.19L69.64,298.16L70.39,298.37L70.47,298.46L72.5,299.04L72.57,298.97L73.47,299.01L73.55,297.33L73.77,299.45L73.85,295.04L74.15,298.49L74.3,292.2L74.67,297.79L74.75,298.17L75.65,298.74L75.73,298.66L76.48,298.49L76.55,297.35L76.63,298.91L76.85,289.2L76.93,291.15L77,287.72L78.13,294.84L78.21,295.19L78.51,293.66L78.81,296.02L78.96,295.1L79.03,294.68L79.78,298.24L79.86,297.91L79.93,297L80.01,296.5L80.31,297.8L80.53,297.7L80.61,297.64L80.76,295.84L81.36,296.5L81.44,297.39L82.19,297.83L82.26,296.59L82.56,296.16L82.71,297.6L82.79,297.99L82.94,297.36L83.46,298.38L83.54,298.44L84.07,299.03L84.14,298.44L84.22,298.03L84.52,296.71L84.82,299.02L84.97,298L85.04,298.64L85.79,299.67L85.87,298.1L86.02,299.08L86.32,295.81L86.47,296.72L86.54,296.88L86.69,293.3L87.3,294.69L87.37,295.33L87.97,295.76L88.12,295.53L88.2,288.66L88.35,284.35L89.02,294.81L89.1,294.89L89.47,292.66L89.85,294.82L89.92,294.81L91.5,295.54L91.58,295.54L92.33,296.04L92.4,296.15L92.48,295.57L93.08,296.59L93.16,296.61L94.81,298.53L94.88,298.56L95.26,297.9L95.41,299.12L95.48,297.51L96.31,299.49L96.39,299.48L97.44,298.59L97.51,298.57L98.41,298.9L98.49,298.97L101.72,300.27L101.79,300.23L105.33,300.48L105.4,300.38L105.48,300.77L106.15,300.61L106.23,300.58L106.98,299.34L107.05,299.11L107.5,297.73L107.8,298.44L107.88,299.45L108.86,300.33L108.93,300.36L109.61,300.08L109.68,299.64L110.51,301.13L110.58,300.95L110.66,301.16L111.34,301.99L111.71,301.7L111.79,301.07L112.91,302.31L112.99,302.43L113.44,302.42L113.51,301.69L114.04,302.21L114.27,301.72L114.34,301.24L114.57,301.69L114.87,300.5L114.94,299.6L115.84,301.1L115.92,301.15L116.07,301.34L116.14,301.21L116.22,300.26L116.37,299.49L116.67,300.62L116.89,300.66L116.97,300.58L117.42,300.67L117.57,300.2L117.65,299.99L117.87,300.4L118.32,299.77L118.4,299.7L118.92,298.82L119,295.94L119.15,295.3L119.3,298.4L119.45,297.84L119.52,298.73L119.75,297.83L120.5,300.36L120.58,300.38L121.25,299.64L121.33,298.73L121.4,296.05L122,300.32L122.08,300.34L122.68,299.78L122.75,297.22L123.51,299.52L123.58,299.49L123.66,299.42L125.08,299.09L125.16,299.18L125.38,299.02L125.46,297.02L125.91,299.74L126.29,299.54L126.36,299.46L126.89,299.07L126.96,297.86L127.11,286.25L127.49,292.27L127.56,293.6L128.39,296.95L128.54,296.65L128.61,295.98L128.69,292.54L129.29,298.62L129.37,298.75L129.52,298.87L129.59,298.53L129.67,297.16L130.49,300.13L130.57,300.15L130.72,298.87L131.24,300.53L131.32,300.51L132.15,298.87L132.22,298.96L132.3,300.16L132.45,300.58L132.9,300.15L132.97,299.68L133.2,299.08L133.42,300.46L133.65,300.23L133.72,299.29L133.87,300.38L134.47,299.52L134.55,299.47L134.92,299.02L135.3,300.02L135.45,299.79L135.53,299.65L136.88,297.58L137.1,297.83L137.18,297.9L137.48,297.65L137.55,298.6L138.83,301.38L138.98,301.19L139.06,301.41L139.28,301.77L139.36,301.16L139.43,301.62L139.51,300.19L140.33,297.33L140.41,297.48L140.48,297.51L141.09,294.95L141.46,295.93L141.54,296.12L141.91,296.26L141.99,288.6L142.66,297.17L142.81,297.16L142.89,297.15L143.86,297.14L143.94,297.98L144.09,297.63L144.17,295.82L145.14,299.56L145.22,299.73L145.82,299.72L145.97,299.47L146.04,299.4L146.72,298.86L146.79,298.02L147.32,299.28L147.7,299.21L147.77,299.18L148.9,298.27L148.97,296.68L149.5,298.97L149.8,298.9L149.87,298.85L150.48,298.08L150.55,299.07L150.63,297.78L151,299.21L151.23,299.19L151.3,299.18L152.13,298.83L152.2,298.74L153.78,299.46L153.86,299.59L154.01,298.87L154.53,299.93L154.61,299.93L155.96,299.61L156.04,299.23L156.79,299.93L156.86,299.87L159.04,299.44L159.12,298.06L159.19,298.27L159.27,294.33L159.34,293.21L159.64,299.26L159.72,299.81L160.17,299.3L160.54,300.17L160.62,300.18L161.29,299.99L161.37,299.64L161.52,298.37L161.89,300.17L162.05,300.1L162.12,300.07L163.92,298.77L164,298.29L164.67,299.8L164.75,299.66L164.82,297.9L164.9,298.26L164.97,284.58L165.8,296.65L165.88,296.53L165.95,296.42L166.33,296.62L166.78,296.23L166.85,296.16L167.75,296.8L167.83,295.95L168.51,297.95L168.58,297.39L168.66,297.07L169.11,298.35L169.26,295.34L169.33,296.77L169.41,297.14L170.08,298.48L170.38,298.13L170.46,298.07L171.44,299.07L171.51,299.07L172.49,299.93L172.56,299.76L172.64,299.49L172.79,298.65L173.31,299.95L173.39,300.22L173.61,299.03L174.07,300.39L174.14,300.37L174.97,300.07L175.04,299.98L176.62,299.44L176.69,295.72L177.6,300.16L177.67,300.15L177.75,300.09L179.77,299L179.85,299.09L180,297.55L180.38,299.84L180.53,299.8L180.6,299.64L180.75,299.69L180.98,298.38L181.35,299.68L181.43,299.7L182.33,298.99L182.4,298.25L182.85,299.96L183.23,299.9L183.31,299.88L183.83,300.45L183.91,300.5L184.88,300.84L184.96,300.77L185.78,300.91L185.86,300.78L185.93,299.95L186.01,300.31L186.31,299.18L186.46,299.19L186.54,298.58L187.29,299.94L187.36,299.42L187.44,298.74L187.81,299.71L187.96,298.01L188.04,298.84L188.11,297.61L189.09,300.55L189.17,300.61L189.47,300.38L189.54,299.64L190.14,294.76L190.37,297.1L190.44,297.73L190.67,291.99L190.74,282.25L191.49,298.27L191.79,298.18L191.87,297.03L192.32,299.26L192.7,298.88L192.77,299.17L193.07,300.48L193.22,298.88L193.45,298.93L193.52,299L193.6,298.71L193.75,299.95L194.05,299.85L194.12,299.71L194.42,293.75L194.8,297.54L194.87,297.49L195.93,296.27L196,296.31L196.08,296.39L196.75,296.78L196.83,296.17L197.73,298.01L197.8,294.24L198.48,299.69L198.63,299.58L198.71,299.81L199.38,300.06L199.53,298.5L199.61,299.08L199.68,299.61L199.91,298.78L200.81,300.67L200.96,300.51L201.04,300.59L201.64,300.1L201.71,298.9L202.39,300.54L202.46,298.89L202.76,286.15L202.84,275.36L203.74,297.45L203.81,297.55L204.42,296.79L204.49,296.28L204.87,294.78L205.54,299.13L205.62,298.56L205.84,299.76L206.37,299.33L206.44,299.46L207.65,299.67L207.72,299.18L208.02,298.85L208.47,300.39L208.62,300.24L208.7,299.54L209,299.24L209.37,300.07L209.45,299.97L209.52,299.97L209.67,294.93L210.2,299.25L210.28,299.79L210.43,299.55L210.73,300.26L211.1,299.95L211.18,299.91L212,298.72L212.08,299.45L212.15,299.84L213.73,299.67L213.81,297.12L213.96,299.28L214.18,295.62L214.48,296.69L214.56,286.63L214.63,286.9L214.71,290.75L214.86,285.92L215.08,292.37L215.23,291.09L215.31,292.75L215.61,294.81L216.14,294.25L216.21,294.36L216.29,293.57L216.81,295.73L216.89,295.87L217.26,295.72L217.34,296.21L217.41,296.62L217.79,297.05L218.09,296.41L218.16,296.43L218.61,295.79L218.91,296.39L218.99,295.01L219.89,298.18L219.97,298.22L220.42,297.73L220.49,297.03L221.24,299.49L221.32,298.37L221.39,297.92L222.07,300.03L222.22,299.93L222.3,299.86L222.82,300.02L222.97,300.22L223.05,300.33L224.02,300.48L224.1,300.23L226.35,302.04L226.43,301.46L226.8,300.07L227.25,300.84L227.33,300.77L228.38,300.3L228.46,300.54L228.53,300.54L229.21,299.85L229.28,299.07L229.36,297.57L229.88,299.73L229.96,299.67L230.03,299.69L231.16,299.11L231.24,299.06L232.29,298.5L232.36,299.24L233.41,299.73L233.49,299.75L233.86,299.81L233.94,298.75L234.02,298.43L234.09,298.51L234.17,291.46L234.39,298.36L234.99,296.87L235.07,296.55L235.37,297.92L235.67,296.88L235.74,292.54L236.49,296.33L236.57,295.57L236.64,296.29L238.07,299.96L238.15,299.87L238.22,299.67L238.45,299.01L238.52,299.98L238.9,299.81L238.97,299.99L239.27,299.71L239.35,297.82L239.8,295.67L240.18,300.15L240.25,300.32L240.63,300.03L240.7,298.99L240.78,298.81L240.93,299.9L241.08,299.43L241.15,300.01L242.28,299.6L242.35,298L242.73,300.36L243.11,300.05L243.18,299.59L243.48,300.08L243.71,299.62L243.78,298.19L243.86,298.81L243.93,286.09L245.73,294.74L245.81,293.2L246.56,296.39L246.64,296.2L246.71,290.66L247.09,275.01L247.46,288.77L247.54,290.01L247.99,289.35L248.44,292.54L248.51,292.05L248.59,290.57L249.04,294L249.12,291.13L249.19,294.31L249.79,293.99L249.87,295.83L249.94,295.78L250.02,294.15L250.92,298.49L250.99,298.35L251.52,296.83L251.67,298.76L251.74,298.69L251.97,298.22L252.05,296.62L252.95,299.34L253.02,298.56L253.55,300.08L253.62,298.7L254.22,297.47L254.3,298.62L254.37,299.49L254.52,299.2L254.67,299.84L255.05,299.71L255.13,299.82L255.28,300.06L255.5,299.3L255.73,299.5L255.8,299.39L255.95,289.26L256.18,295.33L256.25,296.79L256.78,299.3L257.15,298.81L257.23,298.73L258.13,298.39L258.21,298.51L259.56,299.71L259.63,299.68L259.78,298.5L260.08,300.09L260.31,299.9L260.38,299.94L260.46,300.3L260.91,299.4L261.06,299.58L261.14,299.49L261.29,299.67L261.36,296.78L261.81,300.45L262.19,300.12L262.26,300.05L263.39,299.32L263.46,299.37L264.14,299.74L264.22,298.17L264.29,300.55L264.97,299.85L265.04,299.66L265.72,298.9L265.87,299.04L265.94,299.23L266.02,299.09L266.47,299.65L266.54,299.67L266.62,299.64L267.37,299.8L267.45,295.72L267.52,299.43L267.67,289.33L268.2,298.57L268.27,298.54L268.65,298.38L268.72,297.3L268.8,298.77L269.47,298.01L269.55,297.76L269.92,296.62L270.38,297.4L270.45,297.36L270.68,297.46L270.98,295.4L271.05,297.36L271.13,294.69L271.58,298.54L271.73,298.36L271.8,298.27L272.03,297.24L272.1,298.23L272.18,293.83L272.78,298.87L273.01,298.64L273.08,298.37L273.31,298.06L273.38,296.98L273.53,297.92L273.76,296.07L273.91,296.55L273.98,295.3L274.21,289.84L274.88,298.19L274.96,298.35L276.16,300.1L276.24,300.06L277.06,299.3L277.14,298.92L277.59,298.29L277.66,298.04L278.64,298.72L278.71,298.47L278.79,298.36L279.77,298.51L279.84,297.47L279.92,298.82L280.37,297.28L280.59,297.99L280.67,297.95L281.27,297.8L281.49,297.9L281.57,297.9L282.17,296.54L282.25,298.63L283.07,298.54L283.15,299.38L283.37,300.05L283.75,298.54L283.82,298.27L284.42,295.86L284.5,297.77L284.57,298.2L284.65,296.1L285.03,299.99L285.25,299.52L285.33,299.74L285.78,300.39L286.23,300.24L286.3,300.33L286.53,300.04L287.05,300.45L287.13,300.47L288.93,299.77L289.01,299.78L290.58,299.67L290.66,299.63L292.39,299.19L292.46,299.48L294.34,299.34L294.42,299.43L294.64,299.31L295.02,299.83L295.09,300.03L295.54,300.67L295.62,298.88L295.69,296.95L295.92,300.23L296.29,299.57L296.37,299.47L296.89,299.44L296.97,299.61L297.12,299.51L297.2,299.88L297.27,298.72L297.57,300.38L298.02,300.04L298.1,299.88L298.4,299.58L298.47,297.87L298.55,299.06L298.62,294.95L299.22,297.99L299.3,298.1L299.45,298.01L299.52,296.24L299.6,296.06L299.75,297.49L299.82,297.72L299.97,297.66L300.05,296.59L300.13,296.25L300.35,297.84L300.5,297.64L300.58,297.73L300.73,294.83L301.25,297.66L301.33,297.76L302.08,297.4L302.15,297.37L302.38,296.61L302.45,297.54L302.68,297.3L303.06,297.99L303.13,298.16L303.58,296.94L303.66,298.61L303.81,298.34L303.88,298.23L305.16,296.03L305.31,296.32L305.38,296.35L307.04,296.94L307.11,297.04L307.34,297.11L307.56,296.51L307.64,296.44L307.79,295.82L308.01,297.32L308.31,296.78L308.39,296.81L308.46,295.98L308.99,298.16L309.07,298.38L309.82,298.3L309.89,299.65L310.04,297.83L310.57,298.82L310.64,298.96L311.47,298.74L311.54,298.18L311.99,297.48L312.67,299.54L312.75,299.12L313.5,300.02L313.57,300L313.65,299.94L313.8,300.14L314.47,299.44L314.55,300.1L315.75,299.4L315.83,300.17L315.9,300.21L316.13,300.56L316.65,300.21L316.73,300.1L317.93,299.08L318.01,299.24L318.23,299.42L318.38,297.87L318.46,291.11L318.91,299.87L319.28,299.74L319.36,299.82L320.11,299.61L320.18,299.87L321.01,299.12L321.09,299.21L321.16,299.58L321.76,299.42L321.84,294.7L322.36,299.23L322.66,299.16L322.74,297.65L323.19,299.16L323.56,299.11L323.64,298.55L324.24,300.08L324.47,299.94L324.54,299.87L325.59,299.12L325.67,298.22L325.97,279.04L326.34,287.75L326.42,288.67L327.02,294.14L327.1,292.27L327.17,280.64L327.4,278.41L328,288.67L328.07,288.18L328.45,289.37L328.52,290.29L330.1,296.59L330.18,296.72L330.7,296.41L331.3,297.87L331.38,297.6L331.75,298.14L331.9,296.57L332.13,297.37L332.2,298.02L333.33,298.71L333.41,298.68L334.16,296.97L334.23,297.31L334.31,297.85L334.68,298.3L334.98,297.87L335.06,297.59L335.66,297.87L335.73,297.29L335.81,296.58L336.04,295.41L336.86,298.81L336.94,298.87L337.76,298.17L337.84,297.26L338.29,299.32L338.66,299.09L338.74,299.05L339.94,299.1L340.02,299.11L341.07,298.89L341.14,297.02L341.22,295.75L341.59,300.13L341.67,299.97L341.74,299.74L342.87,298.34L343.02,298.51L343.1,298.48L343.55,298.15L343.85,298.91L343.92,297.33L344.37,299.41L344.67,299.37L344.75,294.94L345.58,299.74L345.65,299.65L345.73,299.83L345.8,298.03L346.25,300.6L346.7,300.26L346.78,300.6L347,300.75L347.53,298.66L347.6,299.77L347.68,300.41L347.83,301.18L347.98,299.09L348.43,300.91L348.51,300.82L350.23,299.42L350.31,299.35L350.53,298.49L350.61,299.35L350.68,299.54L351.29,299.84L351.44,297.58L351.51,299.6L351.81,300.15L352.04,299.04L352.26,299.96L352.34,299.84L352.64,299.85L352.71,299.41L352.79,297.97L353.01,295.63L353.76,300.08L353.91,299.81L353.99,299.64L354.97,298.39L355.04,298.57L355.12,298.64L355.27,298.79L355.34,298.21L355.42,296.56L356.17,298.93L356.24,298.92L356.32,299L356.69,298.49L356.77,298.17L357.15,297.14L357.45,298.72L357.52,298.83L357.6,297.22L358.27,298.36L358.35,298.45L358.5,297.87L358.57,290.56L359.1,298.26L359.4,297.95L359.47,297.73L360.53,296.56L360.6,296.99L360.68,297.24L361.65,298.27L361.73,298.11L361.8,298.25L361.88,296.41L362.03,287.12L362.55,296.49L362.63,296.06L362.7,296.71L363.31,298.23L363.53,297.7L363.61,297.07L363.76,294.62L364.28,298.69L364.36,298.21L364.43,296.84L364.73,298.39L364.81,291.42L365.56,298.13L365.71,297.92L365.78,298.63L365.86,297.3L366.24,298.75L366.46,298.64L366.54,298.63L367.51,297.05L367.59,293.62L368.41,299.79L368.49,299.76L369.09,299.59L369.17,298.9L369.32,299.4L369.39,296.04L369.47,280.88L369.54,280.74L369.62,283.79L370.74,295.62L370.82,295.59L371.12,295.31L371.49,295.71L371.57,295.86L372.92,297.81L373,297.87L373.07,296.24L373.6,298.92L373.67,298.87L373.75,298.94L374.12,298.39L374.2,299.37L374.27,299.2L374.57,299.6L374.87,299.71L374.95,299.75L375.93,299.32L376,300.31L376.38,300.42L376.53,300.18L376.6,298.28L376.83,300.39L377.35,299.51L377.43,299.69L378.26,300.83L378.33,300.73L378.41,300.68L379.76,300.79L379.83,299.72L379.91,300.68L380.06,298.67L380.51,299.69L380.58,297.78L381.19,299.95L381.34,299.86L381.41,299.8L382.24,298.95L382.31,297.76L382.39,299.08L383.06,298.33L383.14,298.17L383.66,298.58L383.74,297.66L383.81,298.4L383.89,297.86L384.04,294.32L384.42,297.99L384.49,295.41L384.57,298.37L384.87,297.65L385.54,299.39L385.62,299.34L386.52,299.51L386.59,299.47L386.97,298.61L387.05,297L387.27,299.26L387.72,297.81L387.8,296.79L388.32,299.19L388.62,299.12L388.7,299.1L389.15,297.71L389.37,298.74L389.45,298.7L389.52,298.01L389.6,298.85L390.13,298.31L390.2,298.88L390.28,298.59L390.35,295.42L390.73,298.93L391.25,298.82L391.33,298.81L391.85,299.26L392.08,298.51L392.15,299.05L392.45,298.41L392.53,299.33L392.6,297.61L392.98,300.04L393.21,299.96L393.28,299.35L393.66,300.24L394.03,299.9L394.11,299.68L394.41,298.86L394.48,299.62L394.56,299.72L394.78,299.53L394.86,269.88L395.68,296.94L395.76,296.68L395.83,296.66L397.86,298.56L397.94,298.59L401.24,299.22L401.32,299.21L402.07,299.52L402.15,298.32L402.22,300.01L402.6,297.61L402.9,298.49L402.97,298.4L403.35,298.63L403.65,296.39L403.72,298.79L404.1,297.88L404.47,298.39L404.55,298.51L404.92,298.34L405,297.18L405.3,296.24L405.9,299.79L405.98,299.82L406.2,299.02L406.35,299.4L406.43,296.78L406.5,294.14L407.03,300.16L407.1,300.35L407.63,299.63L407.7,297.17L408.31,300.41L408.53,300.34L408.61,300.31L408.98,299.29L409.06,296.29L409.58,300.64L409.88,300.34L409.96,300.23L410.48,298.38L410.78,300.06L410.86,300.05L411.09,300.31L411.16,298.42L411.54,300.28L411.61,300.37L411.84,299.58L411.99,300.1L412.06,298.69L412.21,300.61L412.81,299.65L412.89,299.46L414.54,297.67L414.62,296.24L414.99,294.84L415.29,299.16L415.44,298.72L415.52,298.76L416.72,298.02L416.79,297.56L417.4,298.93L417.62,298.26L417.7,298.57L417.85,296.94L418.37,299.13L418.45,299.41L418.75,299.5L419.5,297L419.57,298.62L419.65,298.45L420.1,299.23L420.18,299.33L420.4,299.53L420.85,297.65L421,298.94L421.08,299.05L422.13,299.3L422.2,299.22L422.28,299.15L422.5,298.56L422.58,297.28L423.26,299.32L423.41,299.29L423.48,299.27L423.71,298.83L423.78,290.03L423.93,280.28L424.53,297.25L424.68,296.66L424.76,296.23L425.43,295.55L425.51,294.56L426.19,296.81L426.34,296.74L426.41,296.93L428.14,299.44L428.21,299.5L428.74,299.75L428.81,297L429.12,298.47L429.42,296.57L429.49,294.68L430.02,299.09L430.17,292.2L430.24,295.76L430.32,296.34L430.99,298.48L431.29,298.39L431.37,298.36L431.52,295.83L431.89,298.94L432.12,297.89L432.2,299.27L432.27,298.36L432.72,299.63L432.87,299.56L432.95,299.35L433.1,280.85L433.7,293.12L433.77,294.09L434.6,296.3L434.67,296.17L434.75,296.62L435.35,297.78L435.43,296.69L435.5,296.34L435.58,294.78L436.1,298.23L436.18,298.36L436.55,298.49L436.63,296.17L437.23,298.91L437.45,298.46L437.53,298.9L438.06,297.68L438.13,298.27L438.21,298.93L438.28,297.3L438.66,299.56L438.88,299.42L438.96,299.36L441.51,297.09L441.59,297.13L442.86,296.5L442.94,296.58L443.24,296.84L443.31,296.52L443.39,294.69L444.22,297.12L444.29,297.21L444.74,296.99L444.82,297.95L444.97,297.47L445.04,297L445.27,296.87L445.79,297.54L445.87,297.45L445.94,297.51L446.09,297.44L446.17,291.19L446.99,299.32L447.07,299.01L448.12,298.96L448.2,298.87L448.65,297.47L448.72,295.04L449.02,299.2L449.55,298.74L449.62,298.67L449.85,298.74L449.92,298.19L450,299.13L450.83,298.86L450.9,298.89L452.55,299.78L452.63,299.4L452.7,299.08L452.78,300.21L453.46,299.55L453.53,299.51L454.28,299.61L454.36,300.12L454.58,300.19L454.66,299.62L454.73,298.57L454.81,300.22L455.48,299.47L455.56,299.5L456.09,299.45L456.16,296.05L456.24,299.39L456.84,297.84L456.91,294.84L457.51,298.99L457.74,298.2L457.81,298.43L458.41,297.94L458.49,297.6L458.71,283.14L459.24,296.8L459.32,296.87L459.39,295.83L459.62,298.26L459.92,298.04L459.99,298.58L460.37,298.85L460.44,293.13L460.74,298.41L460.82,298.52L461.04,298.8L461.42,298.1L461.49,298.43L461.57,295.28L461.64,297.82L461.79,281.26L462.1,287.59L462.17,288.94L463.37,295.96L463.45,296.04L464.05,297.57L464.12,289.88L464.57,297.13L464.95,296.83L465.03,296.94L465.25,297.45L465.33,294.46L465.48,290.34L465.7,294.21L465.78,294.43L465.93,290.87L466.9,298.22L466.98,298.22L467.58,297.73L467.65,290.94L467.88,296.75L468.41,296.25L468.48,295.59L469.01,294.84L469.08,297.08L469.38,297.01L469.46,296.97L469.61,296.24L469.68,297.21L470.13,297.06L470.21,297.14L470.58,297.37L470.66,296.43L470.96,297.68L471.04,295.76L471.34,297.62L471.41,292.49L472.24,299.59L472.31,299.25L473.29,300.59L473.36,299.56L473.59,300.48L474.12,300.21L474.19,300.2L475.39,298.42L475.54,299.32L475.62,299.42L475.77,285.73L476.37,297.72L476.44,297.78L476.67,297.57L476.74,295.73L476.82,295.16L476.89,296.68L476.97,296.15L477.05,284.18L477.35,294.96L477.87,293.13L477.95,294.14L478.17,292.49L478.7,296.06L478.77,294.04L479.6,297.53L479.67,297.57L480.43,298.28L480.5,297.42L481.33,299.18L481.4,299.13L482.68,299.08L482.75,299.12L483.21,299.37L483.36,297.73L483.43,299.19L483.51,293.91L483.58,298.81L484.26,298.13L484.33,298.52L484.93,299.28L485.16,299.11L485.23,299.06L486.36,298.79L486.44,298.88L486.51,297.69L486.59,299.28L487.26,299.2L487.34,299.14L488.46,299.23L488.54,298.62L488.61,298.15L488.69,299.82L488.76,293.66L489.22,295.56L489.29,296.35L489.67,298.39L490.12,297.23L490.19,297.15L490.27,293.57L490.72,298.56L490.87,295.68L490.94,297.84L491.69,298.89L491.84,298.58L491.92,297.88L492.45,295.07L492.75,299.82L492.82,299.89L493.72,298.91L493.8,296.32L494.62,299.48L494.7,299.32L495.15,299.54L495.3,299.18L495.38,298.82L495.9,297.19L495.98,298.73L496.43,298.17L496.5,297.73L497.1,298.85L497.33,298.6L497.4,298.19L498.23,298.06L498.31,298.07L499.06,295.27L499.21,297.32L499.28,297.46L499.81,297.67L499.88,297.47L499.96,299.33L500.63,298.26L500.71,299.35L500.78,299.32L500.93,298.26L501.39,299.69L501.46,299.47L501.54,299.62L502.96,299.02L503.04,298.93L503.26,299.36L503.64,297.26L503.71,299.31L503.79,284.71L504.47,298.74L504.69,298.26L504.77,298.24L505.14,299.44L505.59,299.25L505.67,298.78L505.89,299.12L506.04,299.03L506.12,294.43L506.87,299.39L506.94,299.02L507.02,298.35L507.85,300.1L507.92,300L508.07,300.17L508.15,299.49L508.22,288.02L508.3,287.55L508.45,289.15L508.52,291.5L509.27,297.41L509.57,296.86L509.65,296.82L509.8,296.54L510.1,297.33L510.18,297.44L510.55,297.88L510.63,294.98L510.78,286.88L511.3,295.41L511.38,295.73L512.13,295.6L512.28,295.86L512.35,296.07L513.56,298.12L513.63,297.75L513.71,294.08L514.53,299.32L514.61,299.34L514.68,299.16L514.76,296.12L515.58,300.28L515.66,300.28L515.96,299.7L516.19,300.77L516.41,300.31L516.49,300.56L516.79,300.39L516.86,299.44L517.09,300.59L517.39,298.31L517.46,293L517.54,295.99L517.84,288.08L518.14,291.15L518.21,291.58L518.81,295.76L518.89,288.37L519.72,296.71L519.79,296.64L520.32,294.99L520.47,296.07L520.54,291.37L520.62,296.35L520.99,284.41L521.22,291.22L521.29,289.11L522.42,298.06L522.57,297.84L522.65,297.7L522.8,297.52L522.87,293.46L523.25,297.31L523.7,296.23L523.77,297.12L524.45,295.78L524.82,296.36L524.9,296.49L525.13,297.26L525.65,296.9L525.73,296.5L525.8,297.67L526.4,296.36L526.48,296.29L527.08,296.31L527.15,292.39L527.98,297.48L528.06,296.77L528.88,298.4L528.96,297.84L529.56,298.57L529.71,298.53L529.78,296.09L530.46,298.69L530.53,298.65L530.61,298.61L530.76,298.85L531.29,296.36L531.36,298.77L531.81,299.59L532.11,299.26L532.19,298.65L532.26,297.92L532.34,299.59L532.41,299.17L532.49,286.86L533.24,299.41L533.31,299.38L533.39,299.29L533.99,296.77L534.07,298.09L534.14,298.85L537.15,299.19L537.22,297.12L537.82,300.15L538.12,299.91L538.2,298.58L539.02,300.06L539.1,299.98L539.55,299.38L539.62,300.39L539.92,300.08L540,300.43" style="vector-effect: non-scaling-stroke; fill: none; stroke: rgb(31, 119, 180); stroke-opacity: 1; stroke-width: 2px; opacity: 1;"/></g><g class="points"/><g class="text"/></g></g></g><g class="overplot"/><path class="xlines-above crisp" d="M0,0" style="fill: none;"/><path class="ylines-above crisp" d="M0,0" style="fill: none;"/><g class="overlines-above"/><g class="xaxislayer-above"><g class="xtick"><text text-anchor="middle" x="0" y="433" transform="translate(177.51,0)" style="font-family: 'Open Sans', verdana, arial, sans-serif; font-size: 12px; fill: rgb(42, 63, 95); fill-opacity: 1; white-space: pre; opacity: 1;">2005</text></g><g class="xtick"><text text-anchor="middle" x="0" y="433" style="font-family: 'Open Sans', verdana, arial, sans-serif; font-size: 12px; fill: rgb(42, 63, 95); fill-opacity: 1; white-space: pre; opacity: 1;" transform="translate(314.69,0)">2010</text></g><g class="xtick"><text text-anchor="middle" x="0" y="433" style="font-family: 'Open Sans', verdana, arial, sans-serif; font-size: 12px; fill: rgb(42, 63, 95); fill-opacity: 1; white-space: pre; opacity: 1;" transform="translate(451.87,0)">2015</text></g><g class="xtick"><text text-anchor="middle" x="0" y="433" style="font-family: 'Open Sans', verdana, arial, sans-serif; font-size: 12px; fill: rgb(42, 63, 95); fill-opacity: 1; white-space: pre; opacity: 1;" transform="translate(589.05,0)">2020</text></g></g><g class="yaxislayer-above"><g class="ytick"><text text-anchor="end" x="79" y="4.199999999999999" transform="translate(0,404)" style="font-family: 'Open Sans', verdana, arial, sans-serif; font-size: 12px; fill: rgb(42, 63, 95); fill-opacity: 1; white-space: pre; opacity: 1;">0</text></g><g class="ytick"><text text-anchor="end" x="79" y="4.199999999999999" style="font-family: 'Open Sans', verdana, arial, sans-serif; font-size: 12px; fill: rgb(42, 63, 95); fill-opacity: 1; white-space: pre; opacity: 1;" transform="translate(0,363.62)">20</text></g><g class="ytick"><text text-anchor="end" x="79" y="4.199999999999999" style="font-family: 'Open Sans', verdana, arial, sans-serif; font-size: 12px; fill: rgb(42, 63, 95); fill-opacity: 1; white-space: pre; opacity: 1;" transform="translate(0,323.24)">40</text></g><g class="ytick"><text text-anchor="end" x="79" y="4.199999999999999" style="font-family: 'Open Sans', verdana, arial, sans-serif; font-size: 12px; fill: rgb(42, 63, 95); fill-opacity: 1; white-space: pre; opacity: 1;" transform="translate(0,282.86)">60</text></g><g class="ytick"><text text-anchor="end" x="79" y="4.199999999999999" style="font-family: 'Open Sans', verdana, arial, sans-serif; font-size: 12px; fill: rgb(42, 63, 95); fill-opacity: 1; white-space: pre; opacity: 1;" transform="translate(0,242.48)">80</text></g><g class="ytick"><text text-anchor="end" x="79" y="4.199999999999999" style="font-family: 'Open Sans', verdana, arial, sans-serif; font-size: 12px; fill: rgb(42, 63, 95); fill-opacity: 1; white-space: pre; opacity: 1;" transform="translate(0,202.1)">100</text></g><g class="ytick"><text text-anchor="end" x="79" y="4.199999999999999" style="font-family: 'Open Sans', verdana, arial, sans-serif; font-size: 12px; fill: rgb(42, 63, 95); fill-opacity: 1; white-space: pre; opacity: 1;" transform="translate(0,161.72)">120</text></g><g class="ytick"><text text-anchor="end" x="79" y="4.199999999999999" style="font-family: 'Open Sans', verdana, arial, sans-serif; font-size: 12px; fill: rgb(42, 63, 95); fill-opacity: 1; white-space: pre; opacity: 1;" transform="translate(0,121.33)">140</text></g></g><g class="overaxes-above"/></g></g><g class="polarlayer"/><g class="smithlayer"/><g class="ternarylayer"/><g class="geolayer"/><g class="funnelarealayer"/><g class="pielayer"/><g class="iciclelayer"/><g class="treemaplayer"/><g class="sunburstlayer"/><g class="glimages"/><defs id="topdefs-f2cbcc"><g class="clips"/></defs><g class="layer-above"><g class="imagelayer"/><g class="shapelayer"/></g><g class="infolayer"><g class="g-gtitle"/><g class="g-xtitle"/><g class="g-ytitle"/></g></svg>